<svg width="40" height="41" viewBox="0 0 40 41" fill="none" xmlns="http://www.w3.org/2000/svg">
<mask id="mask0_10495_1356" style="mask-type:alpha" maskUnits="userSpaceOnUse" x="0" y="0" width="40" height="41">
<rect y="0.5" width="40" height="40" fill="#D9D9D9"/>
</mask>
<g mask="url(#mask0_10495_1356)">
<path d="M6.15375 15.9487C5.91764 15.9487 5.71972 15.8687 5.56 15.7087C5.40028 15.5487 5.32042 15.3505 5.32042 15.1141C5.32042 14.8778 5.40028 14.68 5.56 14.5208C5.71972 14.3616 5.91764 14.2821 6.15375 14.2821H11.3463C11.8782 14.2821 12.3531 14.4375 12.7708 14.7483C13.1886 15.0591 13.4829 15.4593 13.6538 15.9487H6.15375ZM9.55125 30.8846C11.0471 30.8846 12.3185 30.3611 13.3654 29.3141C14.4124 28.2672 14.9358 26.9958 14.9358 25.5C14.9358 24.0041 14.4124 22.7328 13.3654 21.6858C12.3185 20.6389 11.0471 20.1154 9.55125 20.1154C8.05542 20.1154 6.78403 20.6389 5.73708 21.6858C4.69014 22.7328 4.16667 24.0041 4.16667 25.5C4.16667 26.9958 4.69014 28.2672 5.73708 29.3141C6.78403 30.3611 8.05542 30.8846 9.55125 30.8846ZM32.5 30.8846C33.4081 30.8846 34.1907 30.5561 34.8479 29.8991C35.5049 29.2419 35.8333 28.4593 35.8333 27.5512C35.8333 26.6432 35.5049 25.8605 34.8479 25.2033C34.1907 24.5464 33.4081 24.2179 32.5 24.2179C31.5919 24.2179 30.8093 24.5464 30.1521 25.2033C29.4951 25.8605 29.1667 26.6432 29.1667 27.5512C29.1667 28.4593 29.4951 29.2419 30.1521 29.8991C30.8093 30.5561 31.5919 30.8846 32.5 30.8846ZM9.54375 27.3591C9.02514 27.3591 8.58694 27.1776 8.22917 26.8146C7.87139 26.4515 7.6925 26.0108 7.6925 25.4925C7.6925 24.9739 7.87389 24.5357 8.23667 24.1779C8.59972 23.8198 9.04042 23.6408 9.55875 23.6408C10.0774 23.6408 10.5156 23.8223 10.8733 24.1854C11.2314 24.5485 11.4104 24.9891 11.4104 25.5075C11.4104 26.0261 11.2289 26.4643 10.8658 26.8221C10.5031 27.1801 10.0624 27.3591 9.54375 27.3591ZM33.2692 22.5929C33.6069 22.6676 33.8943 22.7483 34.1313 22.835C34.3685 22.9214 34.6367 23.0683 34.9358 23.2758V14.4741C34.9358 13.7339 34.6722 13.1001 34.145 12.5729C33.6178 12.0457 32.984 11.7821 32.2437 11.7821H23.6667L21.9167 9.94873L24.25 7.6154L23.0833 6.44873L17.1667 12.3654L18.4167 13.5321L20.75 11.1987L22.5 12.9487V15.5C22.5 16.7691 22.0481 17.8557 21.1442 18.7596C20.2403 19.6635 19.1537 20.1154 17.8846 20.1154H14.0929C14.4113 20.3954 14.6687 20.6572 14.8654 20.9008C15.0621 21.1441 15.28 21.4379 15.5192 21.7821H17.8846C19.6324 21.7821 21.1164 21.1721 22.3367 19.9521C23.5567 18.7318 24.1667 17.2478 24.1667 15.5V13.4487H32.2437C32.5429 13.4487 32.7886 13.5448 32.9808 13.7371C33.1731 13.9296 33.2692 14.1753 33.2692 14.4741V22.5929ZM27.6379 26.3333C27.7404 25.9894 27.8449 25.698 27.9513 25.4591C28.0576 25.2203 28.2235 24.9561 28.4488 24.6666H16.5321C16.579 24.9866 16.6025 25.2648 16.6025 25.5012C16.6025 25.7376 16.579 26.015 16.5321 26.3333H27.6379ZM32.5 32.5512C31.1025 32.5512 29.9199 32.0672 28.9521 31.0991C27.984 30.1314 27.5 28.9487 27.5 27.5512C27.5 26.1537 27.984 24.9711 28.9521 24.0033C29.9199 23.0353 31.1025 22.5512 32.5 22.5512C33.8975 22.5512 35.0801 23.0353 36.0479 24.0033C37.016 24.9711 37.5 26.1537 37.5 27.5512C37.5 28.9487 37.016 30.1314 36.0479 31.0991C35.0801 32.0672 33.8975 32.5512 32.5 32.5512ZM9.55125 32.5512C7.60042 32.5512 5.9375 31.8637 4.5625 30.4887C3.1875 29.1137 2.5 27.4508 2.5 25.5C2.5 23.5491 3.1875 21.8862 4.5625 20.5112C5.9375 19.1362 7.60042 18.4487 9.55125 18.4487C11.5021 18.4487 13.165 19.1362 14.54 20.5112C15.915 21.8862 16.6025 23.5504 16.6025 25.5012C16.6025 27.4521 15.915 29.1137 14.54 30.4887C13.165 31.8637 11.5021 32.5512 9.55125 32.5512Z" fill="#1C1B1F"/>
</g>
</svg>
