<svg width="37" height="54" viewBox="0 0 37 54" fill="none" xmlns="http://www.w3.org/2000/svg">
<g id="Fuse_Airdrop">
<g id="Vector">
<path d="M29.7601 11.2743C29.8984 10.5875 27.3236 11.2423 27.0198 11.322C25.9089 11.615 24.8746 12.2853 23.7927 12.6236C22.8764 12.9104 21.3711 13.5432 20.5181 13.8581C19.7244 14.1526 20.4759 14.4526 21.6313 14.1112C22.1289 14.4823 23.7442 13.7096 24.2723 13.5643C25.7425 13.1651 27.2174 12.7783 28.6633 12.2978C29.0157 12.1814 31.8599 11.3767 31.8458 10.947C31.8232 10.6837 29.9711 11.2345 29.7601 11.272C29.8203 10.9954 30.2632 11.1868 29.7601 11.2743Z" fill="white"/>
<path d="M8.61405 19.8076C8.67891 20.0631 8.7485 20.3193 8.8243 20.574C8.74615 20.3193 8.67891 20.0631 8.61405 19.8076Z" fill="white"/>
<path d="M1.39477 10.4897C-0.181372 14.144 -0.430191 18.2345 0.691612 22.0529L6.21598 20.4185C5.47633 17.9359 5.13874 15.351 5.21607 12.7617C3.7984 12.2779 2.49709 11.5041 1.39477 10.4897Z" fill="#B4F9BA"/>
<path d="M22.661 0.841232C22.7076 1.85492 22.6022 2.86986 22.3485 3.85238C25.1836 6.61229 27.2415 10.0709 28.3144 13.8796L33.8404 12.2459C33.0426 9.58008 31.6079 7.14862 29.6601 5.16159C27.7123 3.17456 25.3101 1.69173 22.661 0.841232Z" fill="#B4F9BA"/>
<path d="M18.9234 9.5843C19.7789 11.6816 20.5266 13.8213 21.1637 15.9949L28.3082 13.8815C27.2353 10.0727 25.1777 6.61413 22.3425 3.85422C21.7608 6.04637 20.5763 8.0315 18.9234 9.5843Z" fill="#F5F5F5"/>
<path d="M5.21275 12.7644C5.13531 15.3537 5.47316 17.9388 6.21343 20.4212L13.3565 18.3117C12.8316 16.5381 12.3949 14.8099 12.0449 13.1738C9.77214 13.6535 7.41204 13.5121 5.21275 12.7644Z" fill="#F5F5F5"/>
<path d="M14.6539 12.3581C13.8117 12.7104 12.9376 12.9802 12.0434 13.1636C12.3933 14.7997 12.83 16.5279 13.3549 18.3015L21.1666 15.9904C20.5294 13.8167 19.7815 11.6771 18.9261 9.57975C17.6855 10.7615 16.2371 11.7034 14.6539 12.3581Z" fill="#B4F9BA"/>
<path d="M5.2079 12.7684C5.42272 6.82577 8.07248 2.00591 12.401 0.725348C9.95958 1.44224 7.70652 2.68928 5.80255 4.37747C3.89858 6.06567 2.39056 8.15339 1.38632 10.4917C2.48824 11.5078 3.78979 12.2832 5.2079 12.7684Z" fill="#B4F9BA"/>
<path d="M12.4039 0.71855C15.7059 -0.258861 19.3094 1.02639 22.3466 3.85236C22.6003 2.86985 22.7055 1.8549 22.659 0.841213C19.3331 -0.236927 15.7584 -0.279699 12.4077 0.71855H12.4039Z" fill="#B4F9BA"/>
<path d="M12.4039 0.723497C14.0123 0.248464 16.6027 3.92685 18.9275 9.58739C20.5803 8.0346 21.7648 6.04946 22.3466 3.85731C19.3094 1.03133 15.7059 -0.253914 12.4039 0.723497Z" fill="white"/>
<path d="M12.4035 0.716764C8.07584 1.99732 5.42531 6.81718 5.21049 12.7598C7.41021 13.5059 9.77031 13.6457 12.0427 13.1645C10.6046 6.42654 10.667 1.23086 12.4035 0.716764Z" fill="white"/>
<path d="M12.41 0.719307C10.6735 1.2334 10.6134 6.42908 12.0492 13.167C12.9434 12.9836 13.8176 12.7138 14.6597 12.3615C16.2435 11.7071 17.6926 10.7651 18.9336 9.5832C16.6089 3.92187 14.0184 0.244274 12.41 0.719307Z" fill="#B4F9BA"/>
<path d="M2.35815 20.4728C1.22864 21.1198 0.619345 21.6565 0.682616 22.0167C1.20337 21.7849 1.78254 21.5399 2.41994 21.2815C2.39182 21.0122 2.37117 20.7427 2.35815 20.4728Z" fill="#BFBFBF"/>
<path d="M33.7721 12.1233C33.5331 11.8546 32.762 11.7624 31.5848 11.8272C31.7083 12.0382 31.8266 12.2533 31.9396 12.4726C32.9394 13.0617 33.2065 12.2225 33.7721 12.1233Z" fill="#BFBFBF"/>
<path d="M7.28631 19.4586C7.22799 19.0602 7.18074 18.6643 7.1448 18.2711C5.50162 18.8978 3.902 19.6331 2.35631 20.472C2.36985 20.7418 2.3905 21.0114 2.4181 21.2806C4.1937 21.6057 6.13565 21.4932 7.28631 19.4586Z" fill="#469603"/>
<path d="M31.9389 12.4741C31.8264 12.2543 31.7083 12.0392 31.5844 11.8288C29.8313 11.9644 28.0892 12.2176 26.3701 12.5866C26.5466 12.9249 26.7185 13.271 26.8802 13.6258C29.0472 14.1141 30.5976 13.7773 31.9389 12.4741Z" fill="#469603"/>
<path d="M26.8758 13.6276C26.7141 13.2729 26.5422 12.9244 26.3656 12.5884C24.4799 12.9642 22.3309 13.4697 20.0265 14.0862C20.1827 14.4893 20.334 14.9019 20.4804 15.3238C23.1168 16.1137 24.9221 16.1379 26.8758 13.6276Z" fill="#BFBFBF"/>
<path d="M13.2748 16.0821C11.0095 16.8181 8.92762 17.5666 7.14189 18.2698C7.1773 18.6631 7.22455 19.0589 7.2834 19.4574C9.19333 20.645 11.814 19.6918 13.5693 17.376C13.4651 16.939 13.367 16.5077 13.2748 16.0821Z" fill="#BFBFBF"/>
<path d="M17.6771 17.3038C18.7238 16.9912 19.4879 16.9748 20.4894 15.3153C20.3399 14.894 20.1886 14.4814 20.0355 14.0778C18.9371 14.3708 17.8037 14.6911 16.6476 15.0325C15.4915 15.3739 14.3665 15.7232 13.2837 16.0748C13.3759 16.4998 13.4742 16.9321 13.5784 17.3717C15.1556 18.0499 16.3655 17.6913 17.6771 17.3038Z" fill="#469603"/>
<path d="M2.5867 22.4789C4.32379 22.3777 6.05086 22.1463 7.75333 21.7866C7.55686 21.0197 7.40053 20.2431 7.28474 19.4599C5.44276 20.1061 3.79906 20.7225 2.4164 21.2819C2.45702 21.6804 2.5138 22.0794 2.5867 22.4789Z" fill="#8AD390"/>
<path d="M26.8808 13.6285C27.2166 14.3592 27.5136 15.1072 27.7705 15.8692C29.3952 15.2449 30.9708 14.4996 32.484 13.6394C32.3168 13.2415 32.1346 12.854 31.9372 12.4768C30.453 12.78 28.7462 13.1675 26.8808 13.6285Z" fill="#8AD390"/>
<path d="M20.4771 15.3147C20.8005 16.2234 21.1129 17.1711 21.409 18.1501C23.7767 17.3782 25.9343 16.5961 27.7623 15.8593C27.5053 15.0972 27.2084 14.3493 26.8726 13.6185C24.9001 14.1061 22.7457 14.6756 20.4771 15.3147Z" fill="#E5E5E5"/>
<path d="M14.3367 20.2484C14.0539 19.2702 13.8006 18.3085 13.578 17.374C11.3126 18.0834 9.19658 18.7866 7.29211 19.4554C7.40789 20.2386 7.56422 21.0152 7.76069 21.7821C9.69406 21.4055 11.9291 20.8891 14.3367 20.2484Z" fill="#E5E5E5"/>
<path d="M17.3989 16.2116C16.0874 16.6022 14.8087 16.9929 13.5713 17.3773C13.7939 18.3149 14.047 19.2735 14.3298 20.2517C15.4796 19.9454 16.6733 19.6118 17.8856 19.2516C19.098 18.8915 20.2823 18.5258 21.4142 18.1578C21.1181 17.1788 20.8056 16.2311 20.4822 15.3224C19.4761 15.6042 18.4483 15.9006 17.3989 16.2116Z" fill="#8AD390"/>
<path d="M23.2435 36.6402L23.0505 36.6027L27.8509 12.3042L28.0915 12.2628L23.2435 36.6402Z" fill="#B4F9BA"/>
<path d="M23.2302 36.6631L23.0505 36.585L33.5228 12.4341L33.7431 12.4216L23.2302 36.6631Z" fill="#B4F9BA"/>
<path d="M23.2397 36.6125L23.0452 36.6336L20.5354 13.9453L20.7337 13.8937L23.2397 36.6125Z" fill="#B4F9BA"/>
<path d="M23.0752 36.6948L5.79974 18.8225L6.00056 18.7397L23.2167 36.5588L23.0752 36.6948Z" fill="#B4F9BA"/>
<path d="M23.0952 36.7057L0.971235 22.2977L1.43982 22.393L23.1976 36.5417L23.0952 36.7057Z" fill="#B4F9BA"/>
<path d="M23.0571 36.6709L12.7785 16.2445L12.9824 16.1773L23.2322 36.5826L23.0571 36.6709Z" fill="#B4F9BA"/>
<path d="M32.477 13.6367C33.4387 13.0523 33.9316 12.5695 33.8356 12.2437C33.8215 12.1999 33.7987 12.1595 33.7684 12.1249C33.2028 12.2241 32.5887 12.3405 31.9325 12.4742C32.1278 12.8513 32.3093 13.2388 32.477 13.6367Z" fill="#E5E5E5"/>
<path d="M2.58844 22.4767C2.51553 22.0772 2.45943 21.6782 2.41985 21.2797C1.78398 21.5402 1.20477 21.7852 0.682428 22.0149L0.690248 22.047C0.787113 22.3697 1.46356 22.5095 2.58844 22.4767Z" fill="#E5E5E5"/>
<path d="M26.4824 53.5019C32.8012 52.3481 36.9883 46.2904 35.8345 39.9715C34.6807 33.6527 28.6229 29.4656 22.3041 30.6194C15.9853 31.7732 11.7982 37.8309 12.952 44.1498C14.1058 50.4686 20.1635 54.6557 26.4824 53.5019Z" fill="#B4F9BA"/>
<path d="M20.446 35.8729L22.7856 33.885C22.8522 33.8284 22.9446 33.8115 23.0269 33.8409L30.6465 36.5619C30.7288 36.5913 30.7892 36.6624 30.8056 36.7482L31.3146 39.4836C31.3305 39.5703 31.2993 39.6589 31.2319 39.7155L28.8955 41.7006C28.7521 41.8231 28.5297 41.7438 28.4951 41.5584L28.038 39.1036C28.0223 39.0177 27.9613 38.9467 27.8789 38.9173L20.5223 36.2911C20.3442 36.2274 20.3019 35.9954 20.446 35.8729Z" fill="#010101"/>
<path d="M21.0177 48.5877L18.1275 47.5555C18.0444 47.5263 17.9841 47.4552 17.9682 47.3685L16.5149 39.4093C16.4992 39.3234 16.5306 39.2355 16.5971 39.1782L18.7117 37.369C18.7789 37.3116 18.8714 37.2947 18.9538 37.3248L21.841 38.3561C22.0184 38.4199 22.0613 38.6511 21.9181 38.7742L20.0209 40.3971C19.9544 40.4537 19.923 40.5416 19.9389 40.6282L21.3421 48.3132C21.3761 48.4994 21.1959 48.6514 21.0177 48.5877Z" fill="#010101"/>
<path d="M31.728 41.7331L32.2793 44.7524C32.2951 44.8391 32.2638 44.927 32.1965 44.9837L26.0302 50.2219C25.9636 50.2785 25.8719 50.2952 25.7896 50.2658L23.1657 49.3389C23.0826 49.3096 23.0215 49.2379 23.0056 49.1513L22.455 46.1356C22.4211 45.9501 22.6005 45.7975 22.7783 45.8597L25.1326 46.6916C25.2148 46.721 25.3064 46.7035 25.3731 46.6477L31.3266 41.5896C31.4707 41.4671 31.6932 41.5464 31.7272 41.7326L31.728 41.7331Z" fill="#010101"/>
</g>
</g>
</svg>
