<svg width="306" height="394" viewBox="0 0 306 394" fill="none" xmlns="http://www.w3.org/2000/svg">
<path d="M67.9815 106.57C86.2241 52.771 122.413 19.5122 157.968 16.4828C107.834 9.20398 49.9267 36.9135 23.8749 103.243C26.1903 100.093 43.5595 101.434 67.9815 106.57Z" fill="url(#paint0_linear_9824_2315)"/>
<path d="M154.032 124.685C165.504 84.3785 172.574 61.7521 187.332 21.2845C177.868 17.1622 167.943 15.6329 157.968 16.4828C122.413 19.5122 86.2241 52.771 67.9815 106.57C71.5257 105.894 75.3864 105.569 79.5047 105.559C100.315 105.509 127.701 113.488 154.032 124.685Z" fill="url(#paint1_linear_9824_2315)"/>
<path d="M187.332 21.2845C172.574 61.7521 165.504 84.3785 154.032 124.685C189.26 132.591 209.662 138.015 227.707 151.569C230.209 153.449 232.667 155.486 235.112 157.707C258.403 92.5455 239.314 38.5499 187.332 21.2845Z" fill="url(#paint2_linear_9824_2315)"/>
<path d="M187.332 21.2845C239.314 38.5499 258.403 92.5455 235.112 157.707C248.308 162.704 257.343 166.76 263.384 170.016C271.379 174.325 274.129 177.232 274.337 179.061C296.36 75.5651 231.41 35.1598 187.332 21.2845Z" fill="url(#paint3_linear_9824_2315)"/>
<path d="M260.338 183.261C269.237 183.015 272.404 182.33 274.337 179.061C274.129 177.232 271.379 174.325 263.384 170.016L260.338 183.261Z" fill="url(#paint4_linear_9824_2315)"/>
<path d="M260.338 183.261C270.149 192.48 266.72 196.206 248.593 193.653L260.338 183.261Z" fill="url(#paint5_linear_9824_2315)"/>
<path d="M263.384 170.016C257.343 166.76 248.308 162.704 235.112 157.707L223.902 171.136L220.667 187.773C232.259 190.715 241.539 192.66 248.593 193.653L260.338 183.261L263.384 170.016Z" fill="url(#paint6_linear_9824_2315)"/>
<path d="M141.578 169.91C171.358 183.2 188.253 187.754 209.842 187.98L223.902 171.136L227.707 151.569C209.662 138.015 189.26 132.591 154.032 124.685L139.162 169.447C139.958 169.601 140.763 169.755 141.578 169.91Z" fill="url(#paint7_linear_9824_2315)"/>
<path d="M235.112 157.707C232.667 155.486 230.209 153.449 227.707 151.569L223.902 171.136L235.112 157.707Z" fill="url(#paint8_linear_9824_2315)"/>
<path d="M220.667 187.773L223.902 171.136L209.842 187.98C213.305 188.017 216.89 187.942 220.667 187.773Z" fill="url(#paint9_linear_9824_2315)"/>
<path d="M154.032 124.685C127.701 113.488 100.315 105.509 79.5047 105.559L69.3359 128.874L70.2647 144.17C87.0713 156.382 103.675 162.574 139.162 169.447L154.032 124.685Z" fill="url(#paint10_linear_9824_2315)"/>
<path d="M79.5047 105.559C75.3864 105.569 71.5257 105.894 67.9815 106.57L68.6587 117.722L69.3359 128.874L79.5047 105.559Z" fill="url(#paint11_linear_9824_2315)"/>
<path d="M36.9846 128.932C43.7091 132.165 53.0433 135.816 64.5637 139.816L69.3359 128.874L68.6587 117.722L67.9815 106.57C43.5595 101.434 26.1903 100.093 23.8749 103.243C23.4767 106.149 26.8936 108.805 33.9276 114.605L36.9846 128.932Z" fill="url(#paint12_linear_9824_2315)"/>
<path d="M70.2647 144.17L69.3359 128.874L64.5637 139.816C66.4847 141.35 68.376 142.798 70.2647 144.17Z" fill="url(#paint13_linear_9824_2315)"/>
<path d="M33.9276 114.605L36.9846 128.932C22.5538 121.994 20.1407 116.985 33.9276 114.605Z" fill="url(#paint14_linear_9824_2315)"/>
<path d="M67.9815 106.57C86.2241 52.771 122.413 19.5122 157.968 16.4828M67.9815 106.57C43.5595 101.434 26.1903 100.093 23.8749 103.243M67.9815 106.57C71.5257 105.894 75.3864 105.569 79.5047 105.559M67.9815 106.57L68.6587 117.722L69.3359 128.874M187.332 21.2845C172.574 61.7521 165.504 84.3785 154.032 124.685M187.332 21.2845C239.314 38.5499 258.403 92.5455 235.112 157.707M187.332 21.2845C231.41 35.1598 296.36 75.5651 274.337 179.061M187.332 21.2845C177.868 17.1622 167.943 15.6329 157.968 16.4828M154.032 124.685C189.26 132.591 209.662 138.015 227.707 151.569M154.032 124.685C127.701 113.488 100.315 105.509 79.5047 105.559M154.032 124.685L139.162 169.447M235.112 157.707C248.308 162.704 257.343 166.76 263.384 170.016M235.112 157.707C232.667 155.486 230.209 153.449 227.707 151.569M235.112 157.707L223.902 171.136M274.337 179.061C272.404 182.33 269.237 183.015 260.338 183.261M274.337 179.061C274.129 177.232 271.379 174.325 263.384 170.016M260.338 183.261L263.384 170.016M260.338 183.261C270.149 192.48 266.72 196.206 248.593 193.653M260.338 183.261L248.593 193.653M220.667 187.773L99.0741 277.609M220.667 187.773C232.259 190.715 241.539 192.66 248.593 193.653M220.667 187.773L223.902 171.136M220.667 187.773C216.89 187.942 213.305 188.017 209.842 187.98M141.578 169.91L99.0741 277.609M141.578 169.91C171.358 183.2 188.253 187.754 209.842 187.98M141.578 169.91C140.763 169.755 139.958 169.601 139.162 169.447M64.5637 139.816L99.0741 277.609M64.5637 139.816C66.4847 141.35 68.376 142.798 70.2647 144.17M64.5637 139.816L69.3359 128.874M64.5637 139.816C53.0433 135.816 43.7091 132.165 36.9846 128.932M33.9276 114.605C26.8936 108.805 23.4767 106.149 23.8749 103.243M33.9276 114.605L36.9846 128.932M33.9276 114.605C20.1407 116.985 22.5538 121.994 36.9846 128.932M23.8749 103.243C49.9267 36.9135 107.834 9.20398 157.968 16.4828M227.707 151.569L223.902 171.136M79.5047 105.559L69.3359 128.874M99.0741 277.609L248.593 193.653M99.0741 277.609L139.162 169.447M99.0741 277.609L209.842 187.98M99.0741 277.609L70.2647 144.17M99.0741 277.609L36.9846 128.932M223.902 171.136L209.842 187.98M139.162 169.447C103.675 162.574 87.0713 156.382 70.2647 144.17M69.3359 128.874L70.2647 144.17" stroke="white" stroke-width="0.5"/>
<path d="M120.964 345.306C109.515 372.441 83.4937 387.742 62.8445 379.483C42.1953 371.224 34.7375 342.532 46.1871 315.397C57.6367 288.262 83.6579 272.96 104.307 281.219C124.956 289.478 132.414 318.171 120.964 345.306Z" fill="url(#paint15_linear_9824_2315)"/>
<path fill-rule="evenodd" clip-rule="evenodd" d="M122.743 346.019C111.149 373.495 85.7088 389.726 64.2077 384.253C62.7985 383.894 61.4063 383.442 60.0361 382.894C37.7573 373.983 29.711 343.026 42.0641 313.75C54.4173 284.474 82.4919 267.964 104.771 276.875C127.049 285.786 135.096 316.743 122.743 346.019ZM60.9364 380.607C82.2635 389.138 109.139 373.333 120.965 345.308C132.79 317.282 125.087 287.647 103.76 279.117C82.4331 270.587 55.5576 286.391 43.7321 314.417C31.9066 342.443 39.6092 372.077 60.9364 380.607Z" fill="url(#paint16_linear_9824_2315)"/>
<path fill-rule="evenodd" clip-rule="evenodd" d="M120.965 345.308C109.139 373.333 82.2635 389.138 60.9364 380.607C39.6092 372.077 31.9066 342.443 43.7321 314.417C55.5576 286.391 82.4331 270.587 103.76 279.117C125.087 287.647 132.79 317.282 120.965 345.308ZM62.8445 379.483C83.4937 387.742 109.515 372.441 120.964 345.306C132.414 318.171 124.956 289.478 104.307 281.219C83.6579 272.96 57.6367 288.262 46.1871 315.397C34.7375 342.532 42.1953 371.224 62.8445 379.483Z" fill="url(#paint17_linear_9824_2315)"/>
<path d="M104.771 276.875C127.049 285.786 135.096 316.743 122.743 346.019C111.149 373.495 85.7088 389.726 64.2077 384.253L70.2609 386.455C71.778 387.062 73.489 387.337 75.053 387.712C96.4573 392.844 120.748 376.952 132.26 349.669C143.455 323.136 137.896 295.224 120.172 283.592C118.339 282.389 116.376 281.36 114.288 280.525L104.771 276.875Z" fill="url(#paint18_linear_9824_2315)"/>
<path d="M126.986 303.747C124.205 293.049 118.268 284.183 109.641 279.011L114.195 280.757C114.195 280.757 114.196 280.757 114.197 280.758C116.268 281.586 118.216 282.607 120.035 283.801C137.62 295.342 143.197 323.104 132.029 349.572C120.544 376.792 96.3506 392.562 75.1113 387.469C74.6911 387.368 74.2652 387.275 73.8384 387.182C72.6496 386.924 71.4535 386.663 70.3538 386.223L70.3538 386.223L70.3464 386.221L67.4364 385.162C88.3418 388.34 111.936 372.274 122.973 346.116C129.169 331.433 130.253 316.318 126.986 303.747ZM122.512 345.922C110.946 373.333 85.6053 389.441 64.2693 384.01C62.8707 383.654 61.4889 383.206 60.1289 382.662C49.0789 378.242 41.542 368.35 38.3051 355.896C35.068 343.442 36.1371 328.44 42.2945 313.847C48.4519 299.254 58.5245 287.851 69.822 281.208C81.1198 274.564 93.6266 272.687 104.678 277.107C115.728 281.527 123.265 291.419 126.502 303.873C129.739 316.327 128.67 331.329 122.512 345.922ZM120.734 345.208C115.029 358.73 105.695 369.296 95.2276 375.452C84.7598 381.607 73.1738 383.345 62.9373 379.251C52.7021 375.157 45.7198 365.994 42.7207 354.456C39.7215 342.917 40.7118 329.016 46.4174 315.494C52.1231 301.972 61.4564 291.406 71.924 285.251C82.3917 279.095 93.9778 277.357 104.214 281.451C114.45 285.545 121.432 294.708 124.431 306.247C127.43 317.786 126.44 331.686 120.734 345.208ZM62.7517 379.715C72.2444 383.512 82.8477 382.366 92.6539 377.425C82.3058 382.983 71.0427 384.38 61.0292 380.375C50.455 376.146 43.2419 366.679 40.1439 354.76C37.0458 342.84 38.0688 328.481 43.9624 314.514C49.856 300.546 59.4969 289.632 70.3098 283.274C81.1229 276.915 93.092 275.119 103.667 279.349C113.755 283.384 120.783 292.185 124.099 303.334C120.717 292.988 113.97 284.814 104.4 280.987C93.9871 276.822 82.238 278.605 71.6705 284.82C61.1028 291.034 51.7007 301.687 45.9568 315.3C40.2129 328.912 39.2072 342.925 42.2368 354.581C45.2666 366.238 52.3377 375.55 62.7517 379.715ZM60.8435 380.84C71.5953 385.14 83.7275 383.299 94.6403 376.882C105.553 370.464 115.263 359.463 121.195 345.405C127.127 331.346 128.165 316.875 125.037 304.838C121.908 292.801 114.606 283.186 103.853 278.885C93.1013 274.584 80.9691 276.425 70.0563 282.843C59.1432 289.26 49.4336 300.261 43.5017 314.32C37.5699 328.378 36.5315 342.849 39.66 354.886C42.7888 366.923 50.0906 376.539 60.8435 380.84Z" stroke="white" stroke-width="0.5"/>
<path d="M83.1796 307.758L92.9628 304.009C93.2413 303.903 93.531 303.941 93.7196 304.109L111.168 319.679C111.356 319.847 111.417 320.12 111.329 320.395L108.492 329.15C108.401 329.427 108.174 329.665 107.893 329.771L98.1231 333.515C97.5225 333.746 97.013 333.292 97.205 332.699L99.7503 324.842C99.8403 324.567 99.7775 324.294 99.589 324.125L82.7417 309.095C82.3339 308.731 82.5769 307.989 83.1796 307.758Z" fill="url(#paint19_linear_9824_2315)"/>
<path d="M64.8914 346.701L58.273 340.794C58.0822 340.626 58.0217 340.353 58.1124 340.076L66.4472 314.628C66.5372 314.353 66.7641 314.118 67.0434 314.009L75.9056 310.583C76.1871 310.475 76.4768 310.513 76.6646 310.683L83.2756 316.584C83.6812 316.948 83.4412 317.687 82.8399 317.921L74.8898 320.994C74.6112 321.101 74.3843 321.336 74.2935 321.613L66.246 346.184C66.051 346.779 65.2985 347.067 64.8907 346.703L64.8914 346.701Z" fill="url(#paint20_linear_9824_2315)"/>
<path d="M106.133 336.325L102.971 345.978C102.881 346.255 102.654 346.491 102.373 346.597L76.5901 356.475C76.3115 356.581 76.024 356.543 75.8355 356.375L69.8111 351.044C69.6203 350.875 69.5584 350.6 69.6491 350.323L72.807 340.681C73.0013 340.088 73.7516 339.8 74.1609 340.159L79.5657 344.943C79.7542 345.111 80.0424 345.147 80.3202 345.043L105.214 335.504C105.817 335.273 106.327 335.727 106.132 336.323L106.133 336.325Z" fill="url(#paint21_linear_9824_2315)"/>
<defs>
<linearGradient id="paint0_linear_9824_2315" x1="139.218" y1="14.964" x2="68.1504" y2="103.579" gradientUnits="userSpaceOnUse">
<stop stop-color="#D0FCD4"/>
<stop offset="1" stop-color="#72C979"/>
</linearGradient>
<linearGradient id="paint1_linear_9824_2315" x1="168.903" y1="15.8692" x2="125.711" y2="104.744" gradientUnits="userSpaceOnUse">
<stop stop-color="#D0FCD4"/>
<stop offset="1" stop-color="#72CA7A"/>
</linearGradient>
<linearGradient id="paint2_linear_9824_2315" x1="191.966" y1="21.2002" x2="191.774" y2="118.05" gradientUnits="userSpaceOnUse">
<stop stop-color="#CEFBD2"/>
<stop offset="1" stop-color="#75CC7D"/>
</linearGradient>
<linearGradient id="paint3_linear_9824_2315" x1="215.45" y1="23.4239" x2="246.348" y2="140.115" gradientUnits="userSpaceOnUse">
<stop stop-color="#D0FCD4"/>
<stop offset="1" stop-color="#75CD7E"/>
</linearGradient>
<linearGradient id="paint4_linear_9824_2315" x1="151.346" y1="121.593" x2="131.15" y2="176.078" gradientUnits="userSpaceOnUse">
<stop stop-color="#416C44"/>
<stop offset="1" stop-color="#659369"/>
</linearGradient>
<linearGradient id="paint5_linear_9824_2315" x1="151.346" y1="121.593" x2="131.15" y2="176.078" gradientUnits="userSpaceOnUse">
<stop stop-color="#416C44"/>
<stop offset="1" stop-color="#659369"/>
</linearGradient>
<linearGradient id="paint6_linear_9824_2315" x1="151.346" y1="121.593" x2="131.15" y2="176.078" gradientUnits="userSpaceOnUse">
<stop stop-color="#416C44"/>
<stop offset="1" stop-color="#659369"/>
</linearGradient>
<linearGradient id="paint7_linear_9824_2315" x1="151.346" y1="121.593" x2="131.15" y2="176.078" gradientUnits="userSpaceOnUse">
<stop stop-color="#416C44"/>
<stop offset="1" stop-color="#659369"/>
</linearGradient>
<linearGradient id="paint8_linear_9824_2315" x1="151.346" y1="121.593" x2="131.15" y2="176.078" gradientUnits="userSpaceOnUse">
<stop stop-color="#416C44"/>
<stop offset="1" stop-color="#659369"/>
</linearGradient>
<linearGradient id="paint9_linear_9824_2315" x1="151.346" y1="121.593" x2="131.15" y2="176.078" gradientUnits="userSpaceOnUse">
<stop stop-color="#416C44"/>
<stop offset="1" stop-color="#659369"/>
</linearGradient>
<linearGradient id="paint10_linear_9824_2315" x1="151.346" y1="121.593" x2="131.15" y2="176.078" gradientUnits="userSpaceOnUse">
<stop stop-color="#416C44"/>
<stop offset="1" stop-color="#659369"/>
</linearGradient>
<linearGradient id="paint11_linear_9824_2315" x1="151.346" y1="121.593" x2="131.15" y2="176.078" gradientUnits="userSpaceOnUse">
<stop stop-color="#416C44"/>
<stop offset="1" stop-color="#659369"/>
</linearGradient>
<linearGradient id="paint12_linear_9824_2315" x1="151.346" y1="121.593" x2="131.15" y2="176.078" gradientUnits="userSpaceOnUse">
<stop stop-color="#416C44"/>
<stop offset="1" stop-color="#659369"/>
</linearGradient>
<linearGradient id="paint13_linear_9824_2315" x1="151.346" y1="121.593" x2="131.15" y2="176.078" gradientUnits="userSpaceOnUse">
<stop stop-color="#416C44"/>
<stop offset="1" stop-color="#659369"/>
</linearGradient>
<linearGradient id="paint14_linear_9824_2315" x1="151.346" y1="121.593" x2="131.15" y2="176.078" gradientUnits="userSpaceOnUse">
<stop stop-color="#416C44"/>
<stop offset="1" stop-color="#659369"/>
</linearGradient>
<linearGradient id="paint15_linear_9824_2315" x1="104.307" y1="281.219" x2="64.7062" y2="380.228" gradientUnits="userSpaceOnUse">
<stop stop-color="#A3F5AA"/>
<stop offset="1" stop-color="#75D87D"/>
</linearGradient>
<linearGradient id="paint16_linear_9824_2315" x1="104.307" y1="281.219" x2="64.7062" y2="380.228" gradientUnits="userSpaceOnUse">
<stop stop-color="#A3F5AA"/>
<stop offset="1" stop-color="#52A959"/>
</linearGradient>
<linearGradient id="paint17_linear_9824_2315" x1="104.306" y1="281.206" x2="64.8211" y2="380.117" gradientUnits="userSpaceOnUse">
<stop stop-color="#4C8251"/>
<stop offset="1" stop-color="#6EBF75"/>
</linearGradient>
<linearGradient id="paint18_linear_9824_2315" x1="104.307" y1="281.219" x2="64.7062" y2="380.228" gradientUnits="userSpaceOnUse">
<stop stop-color="#599C5E"/>
<stop offset="1" stop-color="#324A34"/>
</linearGradient>
<linearGradient id="paint19_linear_9824_2315" x1="100.097" y1="304.841" x2="96.3376" y2="333.389" gradientUnits="userSpaceOnUse">
<stop stop-color="#507854"/>
<stop offset="1" stop-color="#3C6A41"/>
</linearGradient>
<linearGradient id="paint20_linear_9824_2315" x1="76.7051" y1="310.579" x2="71.8139" y2="347.724" gradientUnits="userSpaceOnUse">
<stop stop-color="#507854"/>
<stop offset="1" stop-color="#3C6A41"/>
</linearGradient>
<linearGradient id="paint21_linear_9824_2315" x1="91.0969" y1="333.536" x2="87.8667" y2="358.067" gradientUnits="userSpaceOnUse">
<stop stop-color="#507854"/>
<stop offset="1" stop-color="#3C6A41"/>
</linearGradient>
</defs>
</svg>
