<svg width="1517" height="656" viewBox="0 0 1517 656" fill="none" xmlns="http://www.w3.org/2000/svg">
<path d="M795.649 264.784L795.558 201.374L642.82 291.219L642.911 354.629L795.649 264.784Z" fill="#EDC765" stroke="black" stroke-width="0.960002" stroke-linecap="round" stroke-linejoin="round"/>
<path d="M795.508 264.783L795.598 201.374L953.034 293.474L952.944 356.879L795.508 264.783Z" fill="#F5DC99" stroke="black" stroke-width="0.960002" stroke-linecap="round" stroke-linejoin="round"/>
<path d="M1059.91 364.519L1059.76 297.239L801.832 448.954L801.987 516.234L1059.91 364.519Z" fill="#EDC765" stroke="black" stroke-width="0.960002" stroke-linecap="round" stroke-linejoin="round"/>
<path d="M801.995 516.235L801.84 448.954L536.02 289.702L536.175 356.978L801.995 516.235Z" fill="#F5DC99" stroke="black" stroke-width="0.960002" stroke-linecap="round" stroke-linejoin="round"/>
<path d="M793.937 138L535.988 289.719L801.843 448.945L1059.79 297.231L793.937 138ZM800.237 385.567L642.819 291.233L795.608 201.379L953.027 295.717L800.237 385.575V385.567Z" fill="#F5DC99" stroke="black" stroke-width="0.960002" stroke-linecap="round" stroke-linejoin="round"/>
<path d="M1134 0H427L642.5 291L800.5 386L953.5 295.5L1134 0Z" fill="url(#paint0_linear_10592_1280)" fill-opacity="0.5"/>
<g style="mix-blend-mode:color-dodge" opacity="0.8" filter="url(#filter0_f_10592_1280)">
<ellipse cx="157.992" cy="112.554" rx="157.992" ry="112.554" transform="matrix(-1 8.74228e-08 0.0309297 0.999521 956.984 165)" fill="#A67900"/>
</g>
<g filter="url(#filter1_d_10592_1280)">
<path d="M1250.11 168.512L1250.09 127.616L1215.08 148.209L1215.11 189.105L1250.11 168.512Z" fill="#EDC765" stroke="black" stroke-width="0.403202" stroke-linecap="round" stroke-linejoin="round"/>
<path d="M1215.11 189.105L1215.08 148.209L1179 126.593L1179.02 167.489L1215.11 189.105Z" fill="#F5DC99" stroke="black" stroke-width="0.403202" stroke-linecap="round" stroke-linejoin="round"/>
<path d="M1215.08 148.209L1179 126.593L1214.01 106L1250.09 127.616L1215.08 148.209Z" fill="#F5DC99" stroke="black" stroke-width="0.403202" stroke-linecap="round" stroke-linejoin="round"/>
</g>
<g filter="url(#filter2_d_10592_1280)">
<path d="M193.229 446.023L193.187 364.231L123.164 405.418L123.212 487.209L193.229 446.023Z" fill="#EDC765" stroke="black" stroke-width="0.806409" stroke-linecap="round" stroke-linejoin="round"/>
<path d="M123.212 487.21L123.163 405.418L51 362.187L51.0422 443.978L123.212 487.21Z" fill="#F5DC99" stroke="black" stroke-width="0.806409" stroke-linecap="round" stroke-linejoin="round"/>
<path d="M123.163 405.418L51 362.186L121.023 321L193.186 364.231L123.163 405.418Z" fill="#F5DC99" stroke="black" stroke-width="0.806409" stroke-linecap="round" stroke-linejoin="round"/>
</g>
<g filter="url(#filter3_d_10592_1280)">
<path d="M428.292 226.143L428.262 167.72L378.246 197.139L378.281 255.561L428.292 226.143Z" fill="#EDC765" stroke="black" stroke-width="0.576002" stroke-linecap="round" stroke-linejoin="round"/>
<path d="M378.278 255.562L378.243 197.139L326.699 166.259L326.729 224.682L378.278 255.562Z" fill="#F5DC99" stroke="black" stroke-width="0.576002" stroke-linecap="round" stroke-linejoin="round"/>
<path d="M378.243 197.139L326.699 166.259L376.715 136.84L428.259 167.72L378.243 197.139Z" fill="#F5DC99" stroke="black" stroke-width="0.576002" stroke-linecap="round" stroke-linejoin="round"/>
</g>
<g filter="url(#filter4_d_10592_1280)">
<path d="M521.395 478.17L521.422 457.159L567.243 484.112L544.32 487.43L521.395 478.17Z" fill="#F5DC99" stroke="black" stroke-width="0.288002" stroke-linecap="round" stroke-linejoin="round"/>
<path d="M567.071 489.306L567.044 468.295L521.223 495.247L521.25 516.259L567.071 489.306Z" fill="#EDC765" stroke="black" stroke-width="0.288002" stroke-linecap="round" stroke-linejoin="round"/>
<path d="M521.622 479.945L521.595 458.933L475.773 485.887L498.699 489.205L521.622 479.945Z" fill="#EDC765" stroke="black" stroke-width="0.288002" stroke-linecap="round" stroke-linejoin="round"/>
<path d="M521.252 516.259L521.225 495.247L474 466.955L474.027 487.967L521.252 516.259Z" fill="#F5DC99"/>
<path d="M521.252 516.259L521.225 495.247L474 466.955L474.027 487.967L521.252 516.259Z" stroke="black" stroke-width="0.288002" stroke-linecap="round" stroke-linejoin="round"/>
<path d="M519.82 440L474.004 466.958L521.222 495.239L567.054 468.297L519.82 440ZM506.505 468.075L521.518 459.249L536.983 468.507L521.97 477.332L506.505 468.075Z" fill="#F5DC99" stroke="black" stroke-width="0.288002" stroke-linecap="round" stroke-linejoin="round"/>
</g>
<g filter="url(#filter5_d_10592_1280)">
<path d="M1104.79 550.34L1104.85 508.317L1196.49 562.224L1150.64 568.86L1104.79 550.34Z" fill="#F5DC99" stroke="black" stroke-width="0.576007" stroke-linecap="round" stroke-linejoin="round"/>
<path d="M1196.15 572.613L1196.09 530.59L1104.45 584.494L1104.5 626.517L1196.15 572.613Z" fill="#EDC765" stroke="black" stroke-width="0.576007" stroke-linecap="round" stroke-linejoin="round"/>
<path d="M1105.25 553.889L1105.19 511.866L1013.55 565.773L1059.4 572.409L1105.25 553.889Z" fill="#EDC765" stroke="black" stroke-width="0.576007" stroke-linecap="round" stroke-linejoin="round"/>
<path d="M1104.5 626.517L1104.45 584.494L1010 527.91L1010.05 569.933L1104.5 626.517Z" fill="#F5DC99"/>
<path d="M1104.5 626.517L1104.45 584.494L1010 527.91L1010.05 569.933L1104.5 626.517Z" stroke="black" stroke-width="0.576007" stroke-linecap="round" stroke-linejoin="round"/>
<path d="M1101.64 474L1010.01 527.915L1104.45 584.478L1196.11 530.595L1101.64 474ZM1075.01 530.15L1105.04 512.499L1135.97 531.013L1105.94 548.664L1075.01 530.15Z" fill="#F5DC99" stroke="black" stroke-width="0.576007" stroke-linecap="round" stroke-linejoin="round"/>
</g>
<g filter="url(#filter6_d_10592_1280)">
<path d="M1445.88 385.804L1445.91 360.59L1500.89 392.935L1473.39 396.916L1445.88 385.804Z" fill="#F5DC99" stroke="black" stroke-width="0.345602" stroke-linecap="round" stroke-linejoin="round"/>
<path d="M1500.69 399.168L1500.65 373.954L1445.67 406.297L1445.7 431.511L1500.69 399.168Z" fill="#EDC765" stroke="black" stroke-width="0.345602" stroke-linecap="round" stroke-linejoin="round"/>
<path d="M1446.15 387.934L1446.12 362.72L1391.13 395.064L1418.64 399.045L1446.15 387.934Z" fill="#EDC765" stroke="black" stroke-width="0.345602" stroke-linecap="round" stroke-linejoin="round"/>
<path d="M1445.7 431.51L1445.67 406.297L1389 372.346L1389.03 397.56L1445.7 431.51Z" fill="#F5DC99"/>
<path d="M1445.7 431.51L1445.67 406.297L1389 372.346L1389.03 397.56L1445.7 431.51Z" stroke="black" stroke-width="0.345602" stroke-linecap="round" stroke-linejoin="round"/>
<path d="M1443.98 340L1389 372.349L1445.67 406.287L1500.66 373.957L1443.98 340ZM1428.01 373.69L1446.02 363.099L1464.58 374.208L1446.56 384.799L1428.01 373.69Z" fill="#F5DC99" stroke="black" stroke-width="0.345602" stroke-linecap="round" stroke-linejoin="round"/>
</g>
<defs>
<filter id="filter0_f_10592_1280" x="548.191" y="68.75" width="508.562" height="417.5" filterUnits="userSpaceOnUse" color-interpolation-filters="sRGB">
<feFlood flood-opacity="0" result="BackgroundImageFix"/>
<feBlend mode="normal" in="SourceGraphic" in2="BackgroundImageFix" result="shape"/>
<feGaussianBlur stdDeviation="48.125" result="effect1_foregroundBlur_10592_1280"/>
</filter>
<filter id="filter1_d_10592_1280" x="1153.8" y="84.7983" width="121.52" height="133.508" filterUnits="userSpaceOnUse" color-interpolation-filters="sRGB">
<feFlood flood-opacity="0" result="BackgroundImageFix"/>
<feColorMatrix in="SourceAlpha" type="matrix" values="0 0 0 0 0 0 0 0 0 0 0 0 0 0 0 0 0 0 127 0" result="hardAlpha"/>
<feOffset dy="4"/>
<feGaussianBlur stdDeviation="12.5"/>
<feComposite in2="hardAlpha" operator="out"/>
<feColorMatrix type="matrix" values="0 0 0 0 0.960784 0 0 0 0 0.862745 0 0 0 0 0.6 0 0 0 1 0"/>
<feBlend mode="normal" in2="BackgroundImageFix" result="effect1_dropShadow_10592_1280"/>
<feBlend mode="normal" in="SourceGraphic" in2="effect1_dropShadow_10592_1280" result="shape"/>
</filter>
<filter id="filter2_d_10592_1280" x="0.597298" y="278.596" width="243.036" height="267.017" filterUnits="userSpaceOnUse" color-interpolation-filters="sRGB">
<feFlood flood-opacity="0" result="BackgroundImageFix"/>
<feColorMatrix in="SourceAlpha" type="matrix" values="0 0 0 0 0 0 0 0 0 0 0 0 0 0 0 0 0 0 127 0" result="hardAlpha"/>
<feOffset dy="8.00006"/>
<feGaussianBlur stdDeviation="25.0002"/>
<feComposite in2="hardAlpha" operator="out"/>
<feColorMatrix type="matrix" values="0 0 0 0 0.960784 0 0 0 0 0.862745 0 0 0 0 0.6 0 0 0 1 0"/>
<feBlend mode="normal" in2="BackgroundImageFix" result="effect1_dropShadow_10592_1280"/>
<feBlend mode="normal" in="SourceGraphic" in2="effect1_dropShadow_10592_1280" result="shape"/>
</filter>
<filter id="filter3_d_10592_1280" x="306.41" y="119.752" width="142.168" height="159.297" filterUnits="userSpaceOnUse" color-interpolation-filters="sRGB">
<feFlood flood-opacity="0" result="BackgroundImageFix"/>
<feColorMatrix in="SourceAlpha" type="matrix" values="0 0 0 0 0 0 0 0 0 0 0 0 0 0 0 0 0 0 127 0" result="hardAlpha"/>
<feOffset dy="3.20001"/>
<feGaussianBlur stdDeviation="10"/>
<feComposite in2="hardAlpha" operator="out"/>
<feColorMatrix type="matrix" values="0 0 0 0 0.960784 0 0 0 0 0.862745 0 0 0 0 0.6 0 0 0 1 0"/>
<feBlend mode="normal" in2="BackgroundImageFix" result="effect1_dropShadow_10592_1280"/>
<feBlend mode="normal" in="SourceGraphic" in2="effect1_dropShadow_10592_1280" result="shape"/>
</filter>
<filter id="filter4_d_10592_1280" x="448.855" y="418.856" width="143.531" height="126.547" filterUnits="userSpaceOnUse" color-interpolation-filters="sRGB">
<feFlood flood-opacity="0" result="BackgroundImageFix"/>
<feColorMatrix in="SourceAlpha" type="matrix" values="0 0 0 0 0 0 0 0 0 0 0 0 0 0 0 0 0 0 127 0" result="hardAlpha"/>
<feOffset dy="4"/>
<feGaussianBlur stdDeviation="12.5"/>
<feComposite in2="hardAlpha" operator="out"/>
<feColorMatrix type="matrix" values="0 0 0 0 0.960784 0 0 0 0 0.862745 0 0 0 0 0.6 0 0 0 1 0"/>
<feBlend mode="normal" in2="BackgroundImageFix" result="effect1_dropShadow_10592_1280"/>
<feBlend mode="normal" in="SourceGraphic" in2="effect1_dropShadow_10592_1280" result="shape"/>
</filter>
<filter id="filter5_d_10592_1280" x="984.711" y="452.712" width="237.07" height="203.093" filterUnits="userSpaceOnUse" color-interpolation-filters="sRGB">
<feFlood flood-opacity="0" result="BackgroundImageFix"/>
<feColorMatrix in="SourceAlpha" type="matrix" values="0 0 0 0 0 0 0 0 0 0 0 0 0 0 0 0 0 0 127 0" result="hardAlpha"/>
<feOffset dy="4"/>
<feGaussianBlur stdDeviation="12.5"/>
<feComposite in2="hardAlpha" operator="out"/>
<feColorMatrix type="matrix" values="0 0 0 0 0.960784 0 0 0 0 0.862745 0 0 0 0 0.6 0 0 0 1 0"/>
<feBlend mode="normal" in2="BackgroundImageFix" result="effect1_dropShadow_10592_1280"/>
<feBlend mode="normal" in="SourceGraphic" in2="effect1_dropShadow_10592_1280" result="shape"/>
</filter>
<filter id="filter6_d_10592_1280" x="1373.83" y="327.227" width="142.238" height="121.856" filterUnits="userSpaceOnUse" color-interpolation-filters="sRGB">
<feFlood flood-opacity="0" result="BackgroundImageFix"/>
<feColorMatrix in="SourceAlpha" type="matrix" values="0 0 0 0 0 0 0 0 0 0 0 0 0 0 0 0 0 0 127 0" result="hardAlpha"/>
<feOffset dy="2.39999"/>
<feGaussianBlur stdDeviation="7.49997"/>
<feComposite in2="hardAlpha" operator="out"/>
<feColorMatrix type="matrix" values="0 0 0 0 0.960784 0 0 0 0 0.862745 0 0 0 0 0.6 0 0 0 1 0"/>
<feBlend mode="normal" in2="BackgroundImageFix" result="effect1_dropShadow_10592_1280"/>
<feBlend mode="normal" in="SourceGraphic" in2="effect1_dropShadow_10592_1280" result="shape"/>
</filter>
<linearGradient id="paint0_linear_10592_1280" x1="808" y1="-8.97286" x2="817.519" y2="343.406" gradientUnits="userSpaceOnUse">
<stop stop-color="#F87D0A" stop-opacity="0"/>
<stop offset="1" stop-color="#F8B60D"/>
</linearGradient>
</defs>
</svg>
