<svg width="17" height="16" viewBox="0 0 17 16" fill="none" xmlns="http://www.w3.org/2000/svg">
<g clip-path="url(#clip0_120_776)">
<path fill-rule="evenodd" clip-rule="evenodd" d="M8.26695 1.75358C8.17277 1.57738 7.92016 1.57738 7.82598 1.75359L1.74434 13.1321C1.65533 13.2987 1.776 13.5 1.96482 13.5H14.1281C14.317 13.5 14.4376 13.2987 14.3486 13.1321L8.26695 1.75358ZM6.50309 1.04652C7.16235 -0.186933 8.93059 -0.186935 9.58985 1.04652L15.6715 12.4251C16.2946 13.5908 15.4499 15 14.1281 15H1.96482C0.643025 15 -0.201622 13.5908 0.421445 12.4251L6.50309 1.04652ZM9.04647 11C9.04647 11.5523 8.59876 12 8.04647 12C7.49419 12 7.04647 11.5523 7.04647 11C7.04647 10.4477 7.49419 10 8.04647 10C8.59876 10 9.04647 10.4477 9.04647 11ZM8.79647 5.75C8.79647 5.33579 8.46068 5 8.04647 5C7.63226 5 7.29647 5.33579 7.29647 5.75V8.25C7.29647 8.66421 7.63226 9 8.04647 9C8.46068 9 8.79647 8.66421 8.79647 8.25V5.75Z" fill="#9A6700"/>
</g>
<defs>
<clipPath id="clip0_120_776">
<rect width="16" height="16" fill="white" transform="translate(0.0463867)"/>
</clipPath>
</defs>
</svg>
