<svg width="29" height="32" viewBox="0 0 29 32" fill="none" xmlns="http://www.w3.org/2000/svg">
<path d="M1.0752 9.72803V22.272C1.0752 23.0784 1.4976 23.808 2.2016 24.2176L13.0688 30.4896C13.76 30.8864 14.6176 30.8864 15.3088 30.4896L26.176 24.2176C26.8672 23.8208 27.3024 23.0784 27.3024 22.272V9.72803C27.3024 8.92163 26.88 8.19203 26.176 7.78243L15.3088 1.51043C14.6176 1.11363 13.76 1.11363 13.0688 1.51043L2.2016 7.78243C1.5104 8.17923 1.088 8.92163 1.088 9.72803H1.0752Z" fill="#213147"/>
<path d="M16.5503 18.432L15.0015 22.6816C14.9631 22.7968 14.9631 22.9248 15.0015 23.0528L17.6639 30.3616L20.7487 28.5824L17.0495 18.432C16.9599 18.2016 16.6399 18.2016 16.5503 18.432Z" fill="#12AAFF"/>
<path d="M19.6608 11.2896C19.5712 11.0592 19.2512 11.0592 19.1616 11.2896L17.6128 15.5392C17.5744 15.6544 17.5744 15.7824 17.6128 15.9104L21.9776 27.8784L25.0624 26.0992L19.6608 11.3024V11.2896Z" fill="#12AAFF"/>
<path d="M14.1824 1.984C14.2592 1.984 14.336 2.0096 14.4 2.048L26.1504 8.832C26.2912 8.9088 26.368 9.0624 26.368 9.216V22.784C26.368 22.9376 26.2784 23.0912 26.1504 23.168L14.4 29.952C14.336 29.9904 14.2592 30.016 14.1824 30.016C14.1056 30.016 14.0288 29.9904 13.9648 29.952L2.2144 23.168C2.0736 23.0912 1.9968 22.9376 1.9968 22.784V9.2032C1.9968 9.0496 2.0864 8.896 2.2144 8.8192L13.9648 2.0352C14.0288 1.9968 14.1056 1.9712 14.1824 1.9712V1.984ZM14.1824 0C13.76 0 13.3504 0.1024 12.9664 0.32L1.216 7.104C0.4608 7.5392 0 8.3328 0 9.2032V22.7712C0 23.6416 0.4608 24.4352 1.216 24.8704L12.9664 31.6544C13.3376 31.872 13.76 31.9744 14.1824 31.9744C14.6048 31.9744 15.0144 31.872 15.3984 31.6544L27.1488 24.8704C27.904 24.4352 28.3648 23.6416 28.3648 22.7712V9.2032C28.3648 8.3328 27.904 7.5392 27.1488 7.104L15.3856 0.32C15.0144 0.1024 14.592 0 14.1696 0H14.1824Z" fill="#9DCCED"/>
<path d="M6.3999 27.8912L7.4879 24.9216L9.6639 26.7264L7.6287 28.5952L6.3999 27.8912Z" fill="#213147"/>
<path d="M13.1842 8.24321H10.2018C9.98423 8.24321 9.77943 8.38401 9.70263 8.58881L3.31543 26.0992L6.40023 27.8784L13.4402 8.58881C13.5042 8.40961 13.3762 8.23041 13.197 8.23041L13.1842 8.24321Z" fill="white"/>
<path d="M18.4065 8.24321H15.4241C15.2065 8.24321 15.0017 8.38401 14.9249 8.58881L7.62891 28.5824L10.7137 30.3616L18.6497 8.58881C18.7137 8.40961 18.5857 8.23041 18.4065 8.23041V8.24321Z" fill="white"/>
</svg>
