<svg width="70" height="70" viewBox="0 0 70 70" fill="none" xmlns="http://www.w3.org/2000/svg">
<mask id="mask0_10353_1399" style="mask-type:alpha" maskUnits="userSpaceOnUse" x="0" y="0" width="70" height="70">
<rect width="70" height="70" fill="#D9D9D9"/>
</mask>
<g mask="url(#mask0_10353_1399)">
<path d="M21.8763 48.1251H39.3763V45.2084H21.8763V48.1251ZM21.8763 36.4584H48.1263V33.5417H21.8763V36.4584ZM21.8763 24.7917H48.1263V21.8751H21.8763V24.7917ZM16.3798 58.3334C15.0372 58.3334 13.9162 57.8838 13.0169 56.9845C12.1176 56.0852 11.668 54.9642 11.668 53.6215V16.3786C11.668 15.036 12.1176 13.915 13.0169 13.0157C13.9162 12.1164 15.0372 11.6667 16.3798 11.6667H53.6228C54.9654 11.6667 56.0864 12.1164 56.9857 13.0157C57.885 13.915 58.3346 15.036 58.3346 16.3786V53.6215C58.3346 54.9642 57.885 56.0852 56.9857 56.9845C56.0864 57.8838 54.9654 58.3334 53.6228 58.3334H16.3798ZM16.3798 55.4167H53.6228C54.0719 55.4167 54.4834 55.2298 54.8572 54.856C55.2311 54.4822 55.418 54.0707 55.418 53.6215V16.3786C55.418 15.9295 55.2311 15.518 54.8572 15.1441C54.4834 14.7703 54.0719 14.5834 53.6228 14.5834H16.3798C15.9307 14.5834 15.5192 14.7703 15.1454 15.1441C14.7715 15.518 14.5846 15.9295 14.5846 16.3786V53.6215C14.5846 54.0707 14.7715 54.4822 15.1454 54.856C15.5192 55.2298 15.9307 55.4167 16.3798 55.4167Z" fill="#1C1B1F"/>
</g>
</svg>
