<svg width="271" height="270" viewBox="0 0 271 270" fill="none" xmlns="http://www.w3.org/2000/svg">
<g filter="url(#filter0_f_9832_3322)">
<mask id="path-1-inside-1_9832_3322" fill="white">
<path d="M135.499 220C182.514 220 220.628 181.944 220.628 135C220.628 88.0558 182.514 50 135.499 50C88.4829 50 50.3691 88.0558 50.3691 135C50.3691 181.944 88.4829 220 135.499 220Z"/>
</mask>
<path d="M135.499 220C182.514 220 220.628 181.944 220.628 135C220.628 88.0558 182.514 50 135.499 50C88.4829 50 50.3691 88.0558 50.3691 135C50.3691 181.944 88.4829 220 135.499 220Z" fill="url(#paint0_linear_9832_3322)"/>
<path d="M135.499 220C182.514 220 220.628 181.944 220.628 135C220.628 88.0558 182.514 50 135.499 50C88.4829 50 50.3691 88.0558 50.3691 135C50.3691 181.944 88.4829 220 135.499 220Z" stroke="#66E070" stroke-width="2" mask="url(#path-1-inside-1_9832_3322)"/>
</g>
<mask id="path-2-inside-2_9832_3322" fill="white">
<path d="M135.499 220C182.514 220 220.628 181.944 220.628 135C220.628 88.0558 182.514 50 135.499 50C88.4829 50 50.3691 88.0558 50.3691 135C50.3691 181.944 88.4829 220 135.499 220Z"/>
</mask>
<path d="M135.499 220C182.514 220 220.628 181.944 220.628 135C220.628 88.0558 182.514 50 135.499 50C88.4829 50 50.3691 88.0558 50.3691 135C50.3691 181.944 88.4829 220 135.499 220Z" fill="white" fill-opacity="0.5" stroke="#66E070" stroke-width="2" mask="url(#path-2-inside-2_9832_3322)"/>
<g opacity="0.2">
<mask id="path-3-inside-3_9832_3322" fill="white">
<path d="M147.057 164.165C147.963 163.655 148.87 163.201 149.834 162.748C159.696 157.93 168.028 156.343 171.882 157.704C175.736 159.121 177.55 161.785 177.776 165.299C177.776 165.299 177.776 165.299 177.776 165.242C177.776 165.299 177.776 165.299 177.72 165.355C177.72 165.355 171.655 177.088 155.955 180.318C155.955 180.318 161.283 175.728 155.955 169.493C153.121 166.149 149.664 164.732 147.057 164.165Z"/>
</mask>
<path d="M147.057 164.165C147.963 163.655 148.87 163.201 149.834 162.748C159.696 157.93 168.028 156.343 171.882 157.704C175.736 159.121 177.55 161.785 177.776 165.299C177.776 165.299 177.776 165.299 177.776 165.242C177.776 165.299 177.776 165.299 177.72 165.355C177.72 165.355 171.655 177.088 155.955 180.318C155.955 180.318 161.283 175.728 155.955 169.493C153.121 166.149 149.664 164.732 147.057 164.165Z" fill="#66E070" stroke="black" mask="url(#path-3-inside-3_9832_3322)"/>
</g>
<g opacity="0.6">
<mask id="path-4-inside-4_9832_3322" fill="white">
<path d="M128.751 176.18C135.496 172.439 139.974 167.508 149.836 162.69C159.698 157.873 168.03 156.286 171.884 157.646C175.738 159.063 177.552 161.727 177.778 165.241C177.778 165.241 180.385 161.047 175.681 151.581C170.92 142.116 165.819 134.861 160.265 134.861C154.71 134.861 130.622 137.979 120.023 153.168C109.424 168.358 113.732 171.759 116.566 173.573C119.399 175.386 124.897 178.05 128.751 176.18Z"/>
</mask>
<path d="M128.751 176.18C135.496 172.439 139.974 167.508 149.836 162.69C159.698 157.873 168.03 156.286 171.884 157.646C175.738 159.063 177.552 161.727 177.778 165.241C177.778 165.241 180.385 161.047 175.681 151.581C170.92 142.116 165.819 134.861 160.265 134.861C154.71 134.861 130.622 137.979 120.023 153.168C109.424 168.358 113.732 171.759 116.566 173.573C119.399 175.386 124.897 178.05 128.751 176.18Z" fill="#66E070" stroke="black" mask="url(#path-4-inside-4_9832_3322)"/>
</g>
<mask id="path-5-inside-5_9832_3322" fill="white">
<path d="M158.053 121.201L143.146 95.3559C139.292 88.6678 129.657 88.6678 125.746 95.3559C125.746 95.3559 111.236 120.464 111.009 120.861C103.471 133.954 89.8684 161.103 94.4026 170.058C98.5969 178.39 107.382 180.657 115.487 180.147C120.928 179.75 128.75 176.123 128.75 176.123C115.997 176.633 117.698 161.67 126.709 145.403C135.721 129.25 158.053 121.201 158.053 121.201Z"/>
</mask>
<path d="M158.053 121.201L143.146 95.3559C139.292 88.6678 129.657 88.6678 125.746 95.3559C125.746 95.3559 111.236 120.464 111.009 120.861C103.471 133.954 89.8684 161.103 94.4026 170.058C98.5969 178.39 107.382 180.657 115.487 180.147C120.928 179.75 128.75 176.123 128.75 176.123C115.997 176.633 117.698 161.67 126.709 145.403C135.721 129.25 158.053 121.201 158.053 121.201Z" fill="#66E070" stroke="black" mask="url(#path-5-inside-5_9832_3322)"/>
<defs>
<filter id="filter0_f_9832_3322" x="0.369141" y="0" width="270.26" height="270" filterUnits="userSpaceOnUse" color-interpolation-filters="sRGB">
<feFlood flood-opacity="0" result="BackgroundImageFix"/>
<feBlend mode="normal" in="SourceGraphic" in2="BackgroundImageFix" result="shape"/>
<feGaussianBlur stdDeviation="25" result="effect1_foregroundBlur_9832_3322"/>
</filter>
<linearGradient id="paint0_linear_9832_3322" x1="50.3691" y1="50" x2="220.628" y2="220" gradientUnits="userSpaceOnUse">
<stop offset="0.425" stop-color="#A3F5AA"/>
<stop offset="1" stop-color="#66E070"/>
</linearGradient>
</defs>
</svg>
