<svg width="271" height="270" viewBox="0 0 271 270" fill="none" xmlns="http://www.w3.org/2000/svg">
<g filter="url(#filter0_f_9226_2645)">
<mask id="path-1-inside-1_9226_2645" fill="white">
<path d="M135.5 220C182.515 220 220.629 181.944 220.629 135C220.629 88.0558 182.515 50 135.5 50C88.4839 50 50.3701 88.0558 50.3701 135C50.3701 181.944 88.4839 220 135.5 220Z"/>
</mask>
<path d="M135.5 220C182.515 220 220.629 181.944 220.629 135C220.629 88.0558 182.515 50 135.5 50C88.4839 50 50.3701 88.0558 50.3701 135C50.3701 181.944 88.4839 220 135.5 220Z" fill="url(#paint0_linear_9226_2645)"/>
<path d="M135.5 220C182.515 220 220.629 181.944 220.629 135C220.629 88.0558 182.515 50 135.5 50C88.4839 50 50.3701 88.0558 50.3701 135C50.3701 181.944 88.4839 220 135.5 220Z" stroke="#F65D51" stroke-width="2" mask="url(#path-1-inside-1_9226_2645)"/>
</g>
<mask id="path-2-inside-2_9226_2645" fill="white">
<path d="M135.5 220C182.515 220 220.629 181.944 220.629 135C220.629 88.0558 182.515 50 135.5 50C88.4839 50 50.3701 88.0558 50.3701 135C50.3701 181.944 88.4839 220 135.5 220Z"/>
</mask>
<path d="M135.5 220C182.515 220 220.629 181.944 220.629 135C220.629 88.0558 182.515 50 135.5 50C88.4839 50 50.3701 88.0558 50.3701 135C50.3701 181.944 88.4839 220 135.5 220Z" fill="white" fill-opacity="0.5" stroke="#F65D51" stroke-width="2" mask="url(#path-2-inside-2_9226_2645)"/>
<g opacity="0.2">
<mask id="path-3-inside-3_9226_2645" fill="white">
<path d="M150.058 159.165C150.964 158.655 151.871 158.201 152.835 157.748C162.697 152.93 171.029 151.343 174.883 152.704C178.737 154.121 180.551 156.785 180.777 160.299C180.777 160.299 180.777 160.299 180.777 160.242C180.777 160.299 180.777 160.299 180.721 160.355C180.721 160.355 174.656 172.088 158.956 175.318C158.956 175.318 164.284 170.728 158.956 164.493C156.122 161.149 152.665 159.732 150.058 159.165Z"/>
</mask>
<path d="M150.058 159.165C150.964 158.655 151.871 158.201 152.835 157.748C162.697 152.93 171.029 151.343 174.883 152.704C178.737 154.121 180.551 156.785 180.777 160.299C180.777 160.299 180.777 160.299 180.777 160.242C180.777 160.299 180.777 160.299 180.721 160.355C180.721 160.355 174.656 172.088 158.956 175.318C158.956 175.318 164.284 170.728 158.956 164.493C156.122 161.149 152.665 159.732 150.058 159.165Z" fill="#F65D51" stroke="black" mask="url(#path-3-inside-3_9226_2645)"/>
</g>
<g opacity="0.6">
<mask id="path-4-inside-4_9226_2645" fill="white">
<path d="M131.752 171.18C138.497 167.439 142.975 162.508 152.837 157.69C162.699 152.873 171.031 151.286 174.885 152.646C178.739 154.063 180.553 156.727 180.779 160.241C180.779 160.241 183.386 156.047 178.682 146.581C173.921 137.116 168.82 129.861 163.266 129.861C157.711 129.861 133.623 132.979 123.024 148.168C112.425 163.358 116.733 166.759 119.567 168.573C122.4 170.386 127.898 173.05 131.752 171.18Z"/>
</mask>
<path d="M131.752 171.18C138.497 167.439 142.975 162.508 152.837 157.69C162.699 152.873 171.031 151.286 174.885 152.646C178.739 154.063 180.553 156.727 180.779 160.241C180.779 160.241 183.386 156.047 178.682 146.581C173.921 137.116 168.82 129.861 163.266 129.861C157.711 129.861 133.623 132.979 123.024 148.168C112.425 163.358 116.733 166.759 119.567 168.573C122.4 170.386 127.898 173.05 131.752 171.18Z" fill="#F65D51" stroke="black" mask="url(#path-4-inside-4_9226_2645)"/>
</g>
<mask id="path-5-inside-5_9226_2645" fill="white">
<path d="M161.054 116.201L146.147 90.3559C142.293 83.6678 132.658 83.6678 128.747 90.3559C128.747 90.3559 114.237 115.464 114.01 115.861C106.472 128.954 92.8693 156.103 97.4036 165.058C101.598 173.39 110.383 175.657 118.488 175.147C123.929 174.75 131.751 171.123 131.751 171.123C118.998 171.633 120.698 156.67 129.71 140.403C138.722 124.25 161.054 116.201 161.054 116.201Z"/>
</mask>
<path d="M161.054 116.201L146.147 90.3559C142.293 83.6678 132.658 83.6678 128.747 90.3559C128.747 90.3559 114.237 115.464 114.01 115.861C106.472 128.954 92.8693 156.103 97.4036 165.058C101.598 173.39 110.383 175.657 118.488 175.147C123.929 174.75 131.751 171.123 131.751 171.123C118.998 171.633 120.698 156.67 129.71 140.403C138.722 124.25 161.054 116.201 161.054 116.201Z" fill="#F65D51" stroke="black" mask="url(#path-5-inside-5_9226_2645)"/>
<defs>
<filter id="filter0_f_9226_2645" x="0.370117" y="0" width="270.259" height="270" filterUnits="userSpaceOnUse" color-interpolation-filters="sRGB">
<feFlood flood-opacity="0" result="BackgroundImageFix"/>
<feBlend mode="normal" in="SourceGraphic" in2="BackgroundImageFix" result="shape"/>
<feGaussianBlur stdDeviation="25" result="effect1_foregroundBlur_9226_2645"/>
</filter>
<linearGradient id="paint0_linear_9226_2645" x1="50.3701" y1="50" x2="220.629" y2="220" gradientUnits="userSpaceOnUse">
<stop offset="0.425" stop-color="#FFC17B"/>
<stop offset="1" stop-color="#F65D51"/>
</linearGradient>
</defs>
</svg>
