<svg width="37" height="34" viewBox="0 0 37 34" fill="none" xmlns="http://www.w3.org/2000/svg">
<path d="M17.6918 6.37492H28.2038C29.8168 6.37492 30.6233 6.37492 31.2393 6.68374C31.7812 6.95537 32.2219 7.38881 32.498 7.92195C32.8118 8.52803 32.8118 9.32143 32.8118 10.9083V12.7499C32.8118 14.0701 32.8118 14.7301 32.5927 15.2509C32.3003 15.9451 31.7397 16.4967 31.034 16.7843C30.5048 16.9999 29.8338 16.9999 28.4918 16.9999M20.5718 27.6249H10.0599C8.44692 27.6249 7.64045 27.6249 7.02439 27.3161C6.48247 27.0445 6.04189 26.611 5.76577 26.0779C5.45188 25.4719 5.45188 24.6784 5.45188 23.0916V21.2499C5.45188 19.9297 5.45188 19.2697 5.67111 18.7489C5.96341 18.0548 6.52406 17.5031 7.22975 17.2155C7.75901 16.9999 8.42996 16.9999 9.77188 16.9999M16.6838 20.5416H21.5798C21.9832 20.5416 22.1848 20.5416 22.3387 20.4644C22.4742 20.3965 22.5844 20.2881 22.6533 20.1548C22.7318 20.0033 22.7318 19.8049 22.7318 19.4083V14.5916C22.7318 14.1949 22.7318 13.9965 22.6533 13.845C22.5844 13.7117 22.4742 13.6034 22.3387 13.5355C22.1848 13.4583 21.9832 13.4583 21.5798 13.4583H16.6838C16.2806 13.4583 16.079 13.4583 15.9249 13.5355C15.7896 13.6034 15.6794 13.7117 15.6103 13.845C15.5318 13.9965 15.5318 14.1949 15.5318 14.5916V19.4083C15.5318 19.8049 15.5318 20.0033 15.6103 20.1548C15.6794 20.2881 15.7896 20.3965 15.9249 20.4644C16.079 20.5416 16.2806 20.5416 16.6838 20.5416ZM27.4838 31.1666H32.3798C32.7832 31.1666 32.9848 31.1666 33.1387 31.0894C33.2742 31.0215 33.3844 30.9131 33.4533 30.7798C33.5318 30.6283 33.5318 30.4299 33.5318 30.0333V25.2166C33.5318 24.8199 33.5318 24.6216 33.4533 24.47C33.3844 24.3367 33.2742 24.2283 33.1387 24.1605C32.9848 24.0833 32.7832 24.0833 32.3798 24.0833H27.4838C27.0806 24.0833 26.879 24.0833 26.7249 24.1605C26.5896 24.2283 26.4794 24.3367 26.4103 24.47C26.3318 24.6216 26.3318 24.8199 26.3318 25.2166V30.0333C26.3318 30.4299 26.3318 30.6283 26.4103 30.7798C26.4794 30.9131 26.5896 31.0215 26.7249 31.0894C26.879 31.1666 27.0806 31.1666 27.4838 31.1666ZM5.88388 9.91659H10.7799C11.1831 9.91659 11.3847 9.91659 11.5387 9.83938C11.6742 9.77148 11.7844 9.66312 11.8534 9.52984C11.9319 9.37831 11.9319 9.17996 11.9319 8.78325V3.96659C11.9319 3.56988 11.9319 3.37153 11.8534 3.22C11.7844 3.08672 11.6742 2.97836 11.5387 2.91046C11.3847 2.83325 11.1831 2.83325 10.7799 2.83325H5.88388C5.48064 2.83325 5.27902 2.83325 5.125 2.91046C4.98952 2.97836 4.87938 3.08672 4.81035 3.22C4.73188 3.37153 4.73188 3.56988 4.73188 3.96659V8.78325C4.73188 9.17996 4.73188 9.37831 4.81035 9.52984C4.87938 9.66312 4.98952 9.77148 5.125 9.83938C5.27902 9.91659 5.48064 9.91659 5.88388 9.91659Z" stroke="black" stroke-width="1.6" stroke-linecap="round" stroke-linejoin="round"/>
</svg>
