<svg width="41" height="40" viewBox="0 0 41 40" fill="none" xmlns="http://www.w3.org/2000/svg">
<mask id="mask0_38653_566" style="mask-type:alpha" maskUnits="userSpaceOnUse" x="0" y="0" width="41" height="40">
<rect x="0.5" width="40" height="40" fill="#D9D9D9"/>
</mask>
<g mask="url(#mask0_38653_566)">
<path d="M28.1281 35.8012V31.4104H25.564L29.5381 24.1987V28.5896H32.1023L28.1281 35.8012ZM14.9869 35C14.6055 35 14.2858 34.871 14.0277 34.6129C13.7697 34.3549 13.6406 34.0351 13.6406 33.6538V8.81417C13.6406 8.43278 13.7697 8.11306 14.0277 7.855C14.2858 7.59695 14.6055 7.46792 14.9869 7.46792H17.6794V5H23.3202V7.46792H26.0194C26.4016 7.46792 26.7203 7.59695 26.9756 7.855C27.2312 8.11306 27.359 8.43278 27.359 8.81417V20.3204C27.0534 20.3632 26.767 20.4118 26.4998 20.4662C26.2326 20.5207 25.9634 20.5918 25.6923 20.6796V9.1025H15.3073V33.3333H19.5769C19.6922 33.6517 19.8187 33.9444 19.9565 34.2117C20.0942 34.4786 20.2572 34.7414 20.4452 35H14.9869Z" fill="#F6A051"/>
</g>
</svg>
