<svg width="122" height="142" viewBox="0 0 122 142" fill="none" xmlns="http://www.w3.org/2000/svg">
<path fill-rule="evenodd" clip-rule="evenodd" d="M61.3135 141.242L121.709 106.417V36.139L61.3135 70.8072V141.242ZM106.963 62.6499V97.6319L76.3731 115.515V98.4163V79.7487L92.3695 70.8072L106.963 62.6499Z" fill="#C3F9C7"/>
<path fill-rule="evenodd" clip-rule="evenodd" d="M61.3135 1L0.291016 36.139L61.3135 70.8072L121.709 36.139L61.3135 1ZM61.3135 18.0988L92.217 36.139L77.5703 44.7633L61.3135 54.3358L44.2265 44.4746L29.7827 36.139L61.3135 18.0988Z" fill="white"/>
<path d="M92.217 36.139L61.3135 18.0988V34.8839L77.5703 44.7633L92.217 36.139Z" fill="white"/>
<path d="M61.3135 18.0988L29.7827 36.139L44.2265 44.4746L61.3135 34.8839V18.0988Z" fill="#C3F9C7"/>
<path fill-rule="evenodd" clip-rule="evenodd" d="M0.291016 36.139V106.417L61.3135 141.242V70.8072L0.291016 36.139ZM14.7232 97.6319V80.1409V62.6499L29.7827 71.0249L45.4697 79.7487V98.4163V115.515L14.7232 97.6319Z" fill="white"/>
<path d="M14.7232 97.6319L29.7827 89.0041V71.0249L14.7232 62.6499V80.1409V97.6319Z" fill="#C3F9C7"/>
<path d="M14.7232 97.6319L45.4697 115.515V98.4163L29.7827 89.0041L14.7232 97.6319Z" fill="white"/>
<path fill-rule="evenodd" clip-rule="evenodd" d="M92.3695 70.8072L106.963 62.6499V97.6319L92.217 89.0041L92.3695 70.8072Z" fill="white"/>
<path d="M76.3731 115.515L106.963 97.6319L92.217 89.0041L76.3731 98.4163V115.515Z" fill="white"/>
<path d="M0.291016 36.139L61.3135 1L121.709 36.139M0.291016 36.139V106.417L61.3135 141.242M0.291016 36.139L61.3135 70.8072M61.3135 141.242L121.709 106.417V36.139M61.3135 141.242V70.8072M121.709 36.139L61.3135 70.8072M61.3135 18.0988L92.217 36.139L77.5703 44.7633M61.3135 18.0988L29.7827 36.139L44.2265 44.4746M61.3135 18.0988V34.8839M61.3135 34.8839L44.2265 44.4746M61.3135 34.8839L77.5703 44.7633M44.2265 44.4746L61.3135 54.3358L77.5703 44.7633M106.963 97.6319V62.6499L92.3695 70.8072M106.963 97.6319L76.3731 115.515V98.4163M106.963 97.6319L92.217 89.0041M92.217 89.0041L92.3695 70.8072M92.217 89.0041L76.3731 98.4163M92.3695 70.8072L76.3731 79.7488V98.4163M14.7232 97.6319L45.4697 115.515V98.4163M14.7232 97.6319L29.7827 89.0041M14.7232 97.6319V80.1409V62.6499L29.7827 71.0249M29.7827 89.0041L45.4697 98.4163M29.7827 89.0041V71.0249M45.4697 98.4163V79.7488L29.7827 71.0249" stroke="black" stroke-width="0.5" stroke-linecap="round" stroke-linejoin="round"/>
</svg>
