<svg width="285" height="210" viewBox="0 0 285 210" fill="none" xmlns="http://www.w3.org/2000/svg">
<path d="M76.0302 65.9495C76.0302 65.9495 26.8504 80.2096 16.151 112.74C1.47064 157.373 46.2479 159.457 46.2479 159.457M46.2479 159.457L36.8509 144.254M46.2479 159.457L31.1097 165.303" stroke="#A3F5AA" stroke-dasharray="3 3"/>
<path d="M76.8177 134.256C57.2643 122.897 47.7563 107.949 48.2938 93.0996L48.2939 93.0996L48.2939 93.0959L48.2939 77.4603L77.0519 54.1919C109.556 35.4349 159.168 32.5781 196.883 45.6222L197.013 45.6672L197.154 45.6348L215.818 41.3356L215.818 54.0041L76.8177 134.256Z" fill="url(#paint0_linear_22316_2755)" stroke="#A3F5AA" stroke-width="0.5"/>
<path d="M77.0339 41.1369C115.311 19.0378 177.324 18.9962 215.69 41.0121L76.8177 121.19C38.6852 99.0396 38.7573 63.2359 77.0339 41.1369Z" fill="url(#paint1_linear_22316_2755)" stroke="#A3F5AA" stroke-width="0.5"/>
<mask id="mask0_22316_2755" style="mask-type:alpha" maskUnits="userSpaceOnUse" x="47" y="24" width="170" height="98">
<path d="M77.0339 41.1369C115.311 19.0378 177.324 18.9962 215.69 41.0121L76.8177 121.19C38.6852 99.0396 38.7573 63.2359 77.0339 41.1369Z" fill="white" stroke="#A3F5AA" stroke-width="0.5"/>
</mask>
<g mask="url(#mask0_22316_2755)">
<path d="M158.609 52.083L175.984 56.2316C176.478 56.3499 176.856 56.6353 176.971 56.9774L187.599 88.6412C187.714 88.9832 187.551 89.3319 187.174 89.5579L175.121 96.7146C174.738 96.9403 174.196 97.0075 173.699 96.8871L156.348 92.7439C155.28 92.4906 154.969 91.5667 155.786 91.0814L166.602 84.658C166.981 84.4342 167.142 84.0833 167.027 83.7413L156.761 53.1721C156.513 52.4318 157.538 51.8275 158.609 52.083Z" fill="#A3F5AA"/>
<path d="M96.9158 79.1506L92.8846 67.1395C92.7667 66.7953 92.9303 66.4466 93.3131 66.221L128.473 45.4936C128.853 45.2698 129.391 45.2044 129.889 45.3208L145.656 49.0462C146.156 49.1648 146.534 49.4503 146.646 49.7942L150.672 61.7926C150.917 62.5308 149.898 63.1354 148.827 62.884L134.684 59.5418C134.189 59.4235 133.65 59.4889 133.268 59.7146L99.3193 79.7276C98.4968 80.2125 97.1608 79.8928 96.9126 79.1524L96.9158 79.1506Z" fill="#A3F5AA"/>
<path d="M165.202 102.553L151.865 110.416C151.482 110.642 150.943 110.707 150.446 110.587L104.658 99.6503C104.163 99.5321 103.788 99.2488 103.673 98.9068L99.963 88.0228C99.8451 87.6785 100.009 87.3258 100.392 87.1001L113.713 79.2467C114.533 78.7637 115.866 79.0812 116.12 79.8178L119.448 89.5835C119.563 89.9256 119.942 90.207 120.433 90.3271L164.644 100.885C165.714 101.14 166.025 102.064 165.203 102.549L165.202 102.553Z" fill="#A3F5AA"/>
</g>
<path d="M171.347 167.539C171.347 167.539 232.252 166.295 254.563 132.208C285.176 85.4385 234.362 69.2563 234.362 69.2563M234.362 69.2563L240.479 89.6205M234.362 69.2563L253.558 67.2002" stroke="white" stroke-dasharray="3 3"/>
<path d="M203.917 89.2806L232.511 115.108L232.511 128.049L232.511 128.053C233.044 142.952 223.464 157.949 203.771 169.319C165.452 191.443 103.343 191.46 64.987 169.371L64.987 156.689L203.917 89.2806Z" fill="url(#paint2_linear_22316_2755)" stroke="white" stroke-width="0.5"/>
<path d="M203.771 156.253C165.494 178.352 103.48 178.393 65.1142 156.378L203.987 76.1994C242.119 98.35 242.047 134.154 203.771 156.253Z" fill="url(#paint3_linear_22316_2755)" stroke="white" stroke-width="0.5"/>
<mask id="mask1_22316_2755" style="mask-type:alpha" maskUnits="userSpaceOnUse" x="64" y="75" width="169" height="99">
<path d="M203.771 156.254C165.494 178.353 103.48 178.394 65.1142 156.379L203.987 76.2004C242.119 98.351 242.047 134.155 203.771 156.254Z" fill="white" stroke="black" stroke-width="0.5"/>
</mask>
<g mask="url(#mask1_22316_2755)">
<path d="M158.275 127.621L157.469 127.465L157.917 127.882C160.326 130.123 161.578 132.318 161.141 134.472C160.705 136.622 158.578 138.767 154.104 140.901L154.299 141.037L154.104 140.901C148.566 143.544 143.219 144.133 137.804 143.324C132.359 142.511 126.813 140.281 120.922 137.24L120.706 137.129L120.501 137.247L109.954 143.332L103.741 139.745L114.142 133.743L114.358 133.618L114.141 133.493C112.419 132.501 110.673 131.474 108.884 130.4L108.668 130.27L108.447 130.397L98.0007 136.431L91.7968 132.847L102.353 126.746L102.567 126.622L102.354 126.497C101.825 126.187 101.294 125.874 100.759 125.558C99.7365 124.955 98.7004 124.345 97.6434 123.733L97.6432 123.733L89.2521 118.888L97.8069 115.386L97.8324 115.401C97.9649 115.48 98.1543 115.592 98.3815 115.727C98.8358 115.996 99.4415 116.353 100.047 116.708C100.652 117.063 101.258 117.416 101.712 117.674C101.939 117.803 102.13 117.91 102.266 117.982C102.332 118.017 102.39 118.047 102.434 118.068C102.451 118.075 102.478 118.088 102.509 118.098C103.493 118.652 104.486 118.821 105.376 118.783C106.265 118.746 107.012 118.504 107.509 118.289L107.527 118.281L107.542 118.272L124.596 108.426L136.735 101.416L136.755 101.404L136.772 101.39C137.327 100.917 137.787 100.307 137.743 99.603C137.698 98.9039 137.158 98.1382 135.808 97.3466C135.79 97.3278 135.769 97.3117 135.756 97.3022C135.721 97.2753 135.668 97.2407 135.607 97.2019C135.483 97.1229 135.298 97.0119 135.075 96.881C134.628 96.6185 134.017 96.2695 133.403 95.9214C132.788 95.5731 132.168 95.225 131.702 94.964C131.474 94.8366 131.283 94.7299 131.147 94.654L137.636 90.9062L146.367 95.9508L146.335 95.9691L146.552 96.0941C147.934 96.8922 149.377 97.6936 150.844 98.5077L151.061 98.6277L151.273 98.5052L161.712 92.4795L167.919 96.0636L157.693 101.969L157.472 102.097L157.697 102.222C159.507 103.226 161.321 104.235 163.067 105.243L163.283 105.368L163.5 105.243L173.662 99.3779L179.875 102.965L169.436 108.994L169.238 109.109L169.419 109.233C173.331 111.914 176.311 114.586 177.464 117.181C178.611 119.764 177.95 122.277 174.554 124.667L174.554 124.667C172.056 126.43 169.397 127.438 166.669 127.872C163.94 128.306 161.115 128.172 158.275 127.621ZM150.659 106.464L150.443 106.339L150.226 106.464L137.274 113.941L137.058 114.066L137.274 114.191C137.582 114.369 137.941 114.583 138.344 114.823C140.372 116.033 143.523 117.912 146.986 119.23C149.063 120.02 151.283 120.62 153.467 120.748C155.668 120.876 157.818 120.522 159.718 119.425L159.718 119.425C161.694 118.284 162.349 117.021 162.143 115.74C161.938 114.468 160.887 113.191 159.498 112.002C157.282 110.105 154.145 108.385 152.03 107.226C151.498 106.934 151.031 106.678 150.659 106.464ZM116.453 125.959L116.236 126.084L116.453 126.21C116.82 126.421 117.248 126.675 117.727 126.96C120.168 128.408 123.956 130.657 128.056 132.267C130.509 133.231 133.102 133.979 135.611 134.185C138.137 134.393 140.573 134.05 142.663 132.843C144.835 131.589 145.475 130.159 145.131 128.689C144.79 127.229 143.482 125.738 141.79 124.334C139.082 122.087 135.329 120.02 132.797 118.625C132.167 118.278 131.613 117.972 131.169 117.716L130.952 117.591L130.736 117.716L116.453 125.959Z" fill="white" stroke="white" stroke-width="0.5"/>
</g>
<defs>
<linearGradient id="paint0_linear_22316_2755" x1="41.9908" y1="114.399" x2="117.274" y2="-15.9961" gradientUnits="userSpaceOnUse">
<stop stop-color="#576D59"/>
<stop offset="1" stop-color="#474747"/>
</linearGradient>
<linearGradient id="paint1_linear_22316_2755" x1="41.9908" y1="101.333" x2="111.644" y2="-19.3096" gradientUnits="userSpaceOnUse">
<stop stop-color="#617E64"/>
<stop offset="1" stop-color="#425343"/>
</linearGradient>
<linearGradient id="paint2_linear_22316_2755" x1="233.255" y1="105.913" x2="163.602" y2="226.556" gradientUnits="userSpaceOnUse">
<stop stop-color="#474747"/>
<stop offset="1" stop-color="#575757"/>
</linearGradient>
<linearGradient id="paint3_linear_22316_2755" x1="238.814" y1="96.0564" x2="169.161" y2="216.699" gradientUnits="userSpaceOnUse">
<stop stop-color="#585858"/>
<stop offset="1" stop-color="#696969"/>
</linearGradient>
</defs>
</svg>
