<svg width="40" height="41" viewBox="0 0 40 41" fill="none" xmlns="http://www.w3.org/2000/svg">
<mask id="mask0_10495_1368" style="mask-type:alpha" maskUnits="userSpaceOnUse" x="0" y="0" width="40" height="41">
<rect y="0.5" width="40" height="40" fill="#D9D9D9"/>
</mask>
<g mask="url(#mask0_10495_1368)">
<path d="M29.6727 34.6797L18.756 23.7439C18.1366 24.03 17.5045 24.2554 16.8598 24.4202C16.2151 24.5846 15.5309 24.6668 14.8073 24.6668C12.2612 24.6668 10.0969 23.7756 8.31438 21.9931C6.53187 20.2109 5.64062 18.0466 5.64062 15.5002C5.64062 14.7779 5.72076 14.0829 5.88104 13.4152C6.04132 12.7474 6.27535 12.107 6.58312 11.4939L12.474 17.3206L16.6281 13.1668L10.8652 7.33975C11.4785 7.03225 12.1094 6.78766 12.7577 6.606C13.406 6.42433 14.0892 6.3335 14.8073 6.3335C17.3537 6.3335 19.5181 7.22475 21.3006 9.00725C23.0828 10.7895 23.974 12.9538 23.974 15.5002C23.974 16.2674 23.8972 16.9731 23.7435 17.6172C23.5897 18.2614 23.3588 18.872 23.051 19.4489L33.9869 30.3656C34.2349 30.6209 34.359 30.9293 34.359 31.291C34.359 31.6527 34.2373 31.955 33.994 32.1981L31.4415 34.751C31.1984 34.9941 30.9048 35.1049 30.5606 35.0835C30.2167 35.0621 29.9208 34.9275 29.6727 34.6797ZM30.5927 33.2214L32.519 31.2952L20.9869 19.7631C21.4227 19.1647 21.7517 18.4975 21.974 17.7614C22.1962 17.0253 22.3073 16.2716 22.3073 15.5002C22.3073 13.4702 21.5216 11.6502 19.9502 10.0402C18.3785 8.43016 16.363 7.77794 13.9035 8.0835L18.0448 12.2243C18.314 12.4938 18.4485 12.8079 18.4485 13.1668C18.4485 13.5257 18.314 13.8399 18.0448 14.1093L13.4165 18.7372C13.1473 19.0064 12.8331 19.141 12.474 19.141C12.1151 19.141 11.801 19.0064 11.5319 18.7372L7.39063 14.5964C7.14924 17.2909 7.84424 19.365 9.47563 20.8189C11.107 22.2731 12.8842 23.0002 14.8073 23.0002C15.544 23.0002 16.2805 22.8943 17.0169 22.6827C17.7533 22.4713 18.4345 22.1402 19.0606 21.6893L30.5927 33.2214Z" fill="#1C1B1F"/>
</g>
</svg>
