<svg width="32" height="31" viewBox="0 0 32 31" fill="none" xmlns="http://www.w3.org/2000/svg">
<path d="M7.05348 4.79601H30.332L27.1649 15.8809H8.75887M28.7485 22.2151H9.74588L6.57878 1.62891H1.82812M11.3294 28.5493C11.3294 29.4239 10.6204 30.1328 9.74588 30.1328C8.87131 30.1328 8.16233 29.4239 8.16233 28.5493C8.16233 27.6747 8.87131 26.9657 9.74588 26.9657C10.6204 26.9657 11.3294 27.6747 11.3294 28.5493ZM28.7485 28.5493C28.7485 29.4239 28.0395 30.1328 27.1649 30.1328C26.2903 30.1328 25.5814 29.4239 25.5814 28.5493C25.5814 27.6747 26.2903 26.9657 27.1649 26.9657C28.0395 26.9657 28.7485 27.6747 28.7485 28.5493Z" stroke="black" stroke-width="1.7" stroke-linecap="round" stroke-linejoin="round"/>
</svg>
