<svg width="58" height="16" viewBox="0 0 58 16" fill="none" xmlns="http://www.w3.org/2000/svg">
<path d="M5.18798 12.128C4.25998 12.128 3.43331 11.9413 2.70798 11.568C1.98264 11.184 1.41198 10.656 0.995977 9.984C0.590643 9.312 0.387977 8.54933 0.387977 7.696C0.387977 6.832 0.590643 6.06933 0.995977 5.408C1.41198 4.736 1.98264 4.21333 2.70798 3.84C3.43331 3.456 4.25998 3.264 5.18798 3.264C6.09464 3.264 6.88398 3.456 7.55598 3.84C8.22798 4.21333 8.72398 4.752 9.04398 5.456L7.10798 6.496C6.88398 6.09067 6.60131 5.792 6.25998 5.6C5.92931 5.408 5.56664 5.312 5.17198 5.312C4.74531 5.312 4.36131 5.408 4.01998 5.6C3.67864 5.792 3.40664 6.064 3.20398 6.416C3.01198 6.768 2.91598 7.19467 2.91598 7.696C2.91598 8.19733 3.01198 8.624 3.20398 8.976C3.40664 9.328 3.67864 9.6 4.01998 9.792C4.36131 9.984 4.74531 10.08 5.17198 10.08C5.56664 10.08 5.92931 9.98933 6.25998 9.808C6.60131 9.616 6.88398 9.312 7.10798 8.896L9.04398 9.952C8.72398 10.6453 8.22798 11.184 7.55598 11.568C6.88398 11.9413 6.09464 12.128 5.18798 12.128ZM14.8506 3.264C15.5333 3.264 16.1413 3.40267 16.6746 3.68C17.2186 3.94667 17.6453 4.36267 17.9546 4.928C18.2639 5.48267 18.4186 6.19733 18.4186 7.072V12H15.9226V7.456C15.9226 6.76267 15.7679 6.25067 15.4586 5.92C15.1599 5.58933 14.7333 5.424 14.1786 5.424C13.7839 5.424 13.4266 5.50933 13.1066 5.68C12.7973 5.84 12.5519 6.09067 12.3706 6.432C12.1999 6.77333 12.1146 7.21067 12.1146 7.744V12H9.6186V0.127999H12.1146V5.776L11.5546 5.056C11.8639 4.48 12.3066 4.03733 12.8826 3.728C13.4586 3.41867 14.1146 3.264 14.8506 3.264ZM25.1611 12V10.32L25.0011 9.952V6.944C25.0011 6.41067 24.8358 5.99467 24.5051 5.696C24.1851 5.39733 23.6891 5.248 23.0171 5.248C22.5584 5.248 22.1051 5.32267 21.6571 5.472C21.2198 5.61067 20.8464 5.80267 20.5371 6.048L19.6411 4.304C20.1104 3.97333 20.6758 3.71733 21.3371 3.536C21.9984 3.35467 22.6704 3.264 23.3531 3.264C24.6651 3.264 25.6838 3.57333 26.4091 4.192C27.1344 4.81067 27.4971 5.776 27.4971 7.088V12H25.1611ZM22.5371 12.128C21.8651 12.128 21.2891 12.016 20.8091 11.792C20.3291 11.5573 19.9611 11.2427 19.7051 10.848C19.4491 10.4533 19.3211 10.0107 19.3211 9.52C19.3211 9.008 19.4438 8.56 19.6891 8.176C19.9451 7.792 20.3451 7.49333 20.8891 7.28C21.4331 7.056 22.1424 6.944 23.0171 6.944H25.3051V8.4H23.2891C22.7024 8.4 22.2971 8.496 22.0731 8.688C21.8598 8.88 21.7531 9.12 21.7531 9.408C21.7531 9.728 21.8758 9.984 22.1211 10.176C22.3771 10.3573 22.7238 10.448 23.1611 10.448C23.5771 10.448 23.9504 10.352 24.2811 10.16C24.6118 9.95733 24.8518 9.664 25.0011 9.28L25.3851 10.432C25.2038 10.9867 24.8731 11.408 24.3931 11.696C23.9131 11.984 23.2944 12.128 22.5371 12.128ZM28.9561 12V3.392H31.3401V5.824L31.0041 5.12C31.2601 4.512 31.6708 4.05333 32.2361 3.744C32.8014 3.424 33.4894 3.264 34.3001 3.264V5.568C34.1934 5.55733 34.0974 5.552 34.0121 5.552C33.9268 5.54133 33.8361 5.536 33.7401 5.536C33.0574 5.536 32.5028 5.73333 32.0761 6.128C31.6601 6.512 31.4521 7.11467 31.4521 7.936V12H28.9561ZM38.9541 15.232C38.1434 15.232 37.3594 15.1307 36.6021 14.928C35.8554 14.736 35.2314 14.4427 34.7301 14.048L35.7221 12.256C36.0848 12.5547 36.5434 12.7893 37.0981 12.96C37.6634 13.1413 38.2181 13.232 38.7621 13.232C39.6474 13.232 40.2874 13.0347 40.6821 12.64C41.0874 12.2453 41.2901 11.6587 41.2901 10.88V9.584L41.4501 7.424L41.4181 5.248V3.392H43.7861V10.56C43.7861 12.16 43.3701 13.3387 42.5381 14.096C41.7061 14.8533 40.5114 15.232 38.9541 15.232ZM38.5701 11.584C37.7701 11.584 37.0448 11.4133 36.3941 11.072C35.7541 10.72 35.2368 10.2347 34.8421 9.616C34.4581 8.98667 34.2661 8.256 34.2661 7.424C34.2661 6.58133 34.4581 5.85067 34.8421 5.232C35.2368 4.60267 35.7541 4.11733 36.3941 3.776C37.0448 3.43467 37.7701 3.264 38.5701 3.264C39.2954 3.264 39.9354 3.41333 40.4901 3.712C41.0448 4 41.4768 4.45333 41.7861 5.072C42.0954 5.68 42.2501 6.464 42.2501 7.424C42.2501 8.37333 42.0954 9.15733 41.7861 9.776C41.4768 10.384 41.0448 10.8373 40.4901 11.136C39.9354 11.4347 39.2954 11.584 38.5701 11.584ZM39.0661 9.536C39.5034 9.536 39.8928 9.45067 40.2341 9.28C40.5754 9.09867 40.8421 8.848 41.0341 8.528C41.2261 8.208 41.3221 7.84 41.3221 7.424C41.3221 6.99733 41.2261 6.62933 41.0341 6.32C40.8421 6 40.5754 5.75467 40.2341 5.584C39.8928 5.40267 39.5034 5.312 39.0661 5.312C38.6288 5.312 38.2394 5.40267 37.8981 5.584C37.5568 5.75467 37.2848 6 37.0821 6.32C36.8901 6.62933 36.7941 6.99733 36.7941 7.424C36.7941 7.84 36.8901 8.208 37.0821 8.528C37.2848 8.848 37.5568 9.09867 37.8981 9.28C38.2394 9.45067 38.6288 9.536 39.0661 9.536ZM49.5812 12.128C48.5999 12.128 47.7359 11.936 46.9892 11.552C46.2532 11.168 45.6826 10.6453 45.2772 9.984C44.8719 9.312 44.6692 8.54933 44.6692 7.696C44.6692 6.832 44.8666 6.06933 45.2612 5.408C45.6666 4.736 46.2159 4.21333 46.9092 3.84C47.6026 3.456 48.3866 3.264 49.2612 3.264C50.1039 3.264 50.8612 3.44533 51.5332 3.808C52.2159 4.16 52.7546 4.672 53.1492 5.344C53.5439 6.00533 53.7412 6.8 53.7412 7.728C53.7412 7.824 53.7359 7.936 53.7252 8.064C53.7146 8.18133 53.7039 8.29333 53.6932 8.4H46.7012V6.944H52.3812L51.4212 7.376C51.4212 6.928 51.3306 6.53867 51.1492 6.208C50.9679 5.87733 50.7172 5.62133 50.3972 5.44C50.0772 5.248 49.7039 5.152 49.2772 5.152C48.8506 5.152 48.4719 5.248 48.1412 5.44C47.8212 5.62133 47.5706 5.88267 47.3892 6.224C47.2079 6.55467 47.1172 6.94933 47.1172 7.408V7.792C47.1172 8.26133 47.2186 8.67733 47.4212 9.04C47.6346 9.392 47.9279 9.664 48.3012 9.856C48.6852 10.0373 49.1332 10.128 49.6452 10.128C50.1039 10.128 50.5039 10.0587 50.8452 9.92C51.1972 9.78133 51.5172 9.57333 51.8052 9.296L53.1332 10.736C52.7386 11.184 52.2426 11.5307 51.6452 11.776C51.0479 12.0107 50.3599 12.128 49.5812 12.128ZM55.547 12.128C55.1203 12.128 54.7523 11.984 54.443 11.696C54.1443 11.3973 53.995 11.0187 53.995 10.56C53.995 10.1013 54.1443 9.73333 54.443 9.456C54.7523 9.168 55.1203 9.024 55.547 9.024C55.9843 9.024 56.3523 9.168 56.651 9.456C56.9496 9.73333 57.099 10.1013 57.099 10.56C57.099 11.0187 56.9496 11.3973 56.651 11.696C56.3523 11.984 55.9843 12.128 55.547 12.128Z" fill="black"/>
</svg>
