<svg width="27" height="28" viewBox="0 0 27 28" fill="none" xmlns="http://www.w3.org/2000/svg">
<g clip-path="url(#clip0_4523_11549)">
<path d="M13.2041 26.5622C20.3838 26.5622 26.2041 20.8735 26.2041 13.8563C26.2041 6.83901 20.3838 1.15039 13.2041 1.15039C6.0244 1.15039 0.204102 6.83901 0.204102 13.8563C0.204102 20.8735 6.0244 26.5622 13.2041 26.5622Z" fill="#B4F9BA"/>
<path fill-rule="evenodd" clip-rule="evenodd" d="M18.7443 8.98029L10.9931 16.3021L8.94555 14.1421C8.7519 13.9769 8.50674 13.8808 8.25002 13.8692C7.9933 13.8577 7.74014 13.9315 7.5318 14.0785C7.33023 14.2169 7.18861 14.4237 7.13453 14.6586C7.08046 14.8935 7.11781 15.1397 7.2393 15.3491L9.6768 19.2403C9.92055 19.5897 10.3431 19.8121 10.7981 19.8121C11.2531 19.8121 11.6593 19.5897 11.9031 19.2403C12.2931 18.7479 19.7356 10.0603 19.7356 10.0603C20.7106 9.10735 19.5243 8.23382 18.7606 8.98029H18.7443Z" fill="#03900F"/>
</g>
<defs>
<clipPath id="clip0_4523_11549">
<rect width="26" height="27" fill="white" transform="translate(0.204102 0.833984)"/>
</clipPath>
</defs>
</svg>
