<svg width="277" height="261" viewBox="0 0 277 261" fill="none" xmlns="http://www.w3.org/2000/svg">
<rect x="0.25" y="0.25" width="276.5" height="291.5" rx="14.75" fill="#F2F2F2"/>
<rect x="0.25" y="0.25" width="276.5" height="291.5" rx="14.75" stroke="black" stroke-width="0.5"/>
<path d="M28.0299 40.0422V29.8362H32.7619C34.7499 29.8362 35.8279 30.8862 35.8279 32.4542C35.8279 33.5182 35.2819 34.4422 34.1899 34.7222V34.7922C35.4359 35.0442 36.0939 36.0102 36.0939 37.1722C36.0939 39.0062 34.7779 40.0422 32.5799 40.0422H28.0299ZM29.5279 34.2322H32.5239C33.7139 34.2322 34.3019 33.6022 34.3019 32.6642C34.3019 31.6142 33.5459 31.0402 32.3979 31.0402H29.5279V34.2322ZM29.5279 38.8382H32.4399C33.8679 38.8382 34.5399 38.1242 34.5399 37.0882C34.5399 35.9962 33.8119 35.3942 32.5939 35.3942H29.5279V38.8382ZM40.1969 40.1682C38.3909 40.1682 37.1729 38.8102 37.1729 36.3322C37.1729 33.8542 38.3909 32.5102 40.1969 32.5102C41.4429 32.5102 42.3669 33.1402 42.7169 34.0922H42.8009L42.8569 32.6362H44.2429V40.0422H42.8009V38.5722H42.7169C42.3669 39.5242 41.4429 40.1682 40.1969 40.1682ZM40.7009 38.9782C42.0729 38.9782 42.7869 37.9002 42.7869 36.7522V35.9122C42.7869 34.7782 42.0729 33.6862 40.7009 33.6862C39.4689 33.6862 38.6569 34.5822 38.6569 36.3322C38.6569 38.0682 39.4689 38.9782 40.7009 38.9782ZM46.2629 40.0422V29.8362H47.7049V40.0422H46.2629ZM52.2282 40.1682C50.4222 40.1682 49.2042 38.8102 49.2042 36.3322C49.2042 33.8542 50.4222 32.5102 52.2282 32.5102C53.4742 32.5102 54.3982 33.1402 54.7482 34.0922H54.8322L54.8882 32.6362H56.2742V40.0422H54.8322V38.5722H54.7482C54.3982 39.5242 53.4742 40.1682 52.2282 40.1682ZM52.7322 38.9782C54.1042 38.9782 54.8182 37.9002 54.8182 36.7522V35.9122C54.8182 34.7782 54.1042 33.6862 52.7322 33.6862C51.5002 33.6862 50.6882 34.5822 50.6882 36.3322C50.6882 38.0682 51.5002 38.9782 52.7322 38.9782ZM58.2941 40.0422V32.6362H59.6661L59.7221 34.1062H59.8061C60.2401 33.0562 61.2201 32.5242 62.3121 32.5242C63.8241 32.5242 64.9581 33.3782 64.9581 35.6462V40.0422H63.5161V35.9402C63.5161 34.4282 62.9701 33.7142 61.7941 33.7142C60.5201 33.7142 59.7221 34.7222 59.7221 35.9962V40.0422H58.2941ZM70.0014 40.1682C67.8314 40.1682 66.4034 38.6422 66.4034 36.3462C66.4034 34.0502 67.8314 32.5242 70.0574 32.5242C71.8494 32.5242 73.1654 33.6022 73.2774 35.1982H71.8774C71.7094 34.2322 70.9674 33.7282 70.0154 33.7282C68.6434 33.7282 67.8734 34.7782 67.8734 36.3602C67.8734 38.0262 68.7134 38.9642 70.0014 38.9642C71.0794 38.9642 71.7934 38.3342 71.9054 37.3962H73.3054C73.1934 39.0762 71.8494 40.1682 70.0014 40.1682ZM77.8487 40.1682C75.6227 40.1682 74.2647 38.6562 74.2647 36.3742C74.2647 34.0362 75.6227 32.5242 77.7927 32.5242C80.2287 32.5242 81.4047 34.3022 81.1807 36.6262H75.6927C75.7207 38.1522 76.5607 39.0202 77.8487 39.0202C78.8427 39.0202 79.5847 38.5302 79.7667 37.7602H81.1387C80.9427 39.2162 79.5987 40.1682 77.8487 40.1682ZM77.7787 33.6582C76.6167 33.6582 75.8327 34.4002 75.7207 35.6042H79.7667C79.7247 34.2322 78.8707 33.6582 77.7787 33.6582Z" fill="#666666"/>
<path d="M35.9479 80.6746C30.8179 80.6746 27.7579 76.4446 27.7579 69.5746C27.7579 62.4946 31.0579 58.5646 36.0379 58.5646C41.1379 58.5646 44.1679 62.7946 44.1679 69.6346C44.1679 76.7746 40.8679 80.6746 35.9479 80.6746ZM35.9779 76.9546C38.1979 76.9546 39.7879 75.3046 39.7879 69.6046C39.7879 63.9046 38.1979 62.2846 35.9779 62.2846C33.7279 62.2846 32.1679 63.9046 32.1679 69.6046C32.1679 75.3046 33.7279 76.9546 35.9779 76.9546ZM46.6084 80.4646V76.4146H50.8384V80.4646H46.6084ZM61.6447 80.7346C56.9047 80.7346 53.8447 77.9746 53.7547 73.8946H58.2247C58.2847 75.6946 59.6347 76.8946 61.6747 76.8946C63.8947 76.8946 65.2447 75.3946 65.2447 73.2946C65.2447 71.0746 63.8647 69.5746 61.6447 69.5746C59.9347 69.5746 58.8247 70.4446 58.3747 71.6446H54.1747L54.7447 58.8346H68.4247V62.6746H58.6447L58.4347 67.2046L58.6147 67.2646C59.4247 66.4546 60.9847 65.9146 62.6047 65.9146C67.0147 65.9146 69.7147 68.9446 69.7147 73.1746C69.7147 77.7046 66.6247 80.7346 61.6447 80.7346ZM80.6947 80.7346C75.5347 80.7346 72.4447 77.3446 72.4447 70.1446C72.4447 62.3446 75.4747 58.5646 80.9647 58.5646C85.3147 58.5646 88.0747 60.9046 88.4347 64.4746H84.1447C83.8747 63.1546 82.5847 62.3746 80.9347 62.3746C77.9947 62.3746 76.8847 64.7146 76.9147 68.6446H77.0947C77.8447 67.1446 79.5847 66.1246 81.8947 66.1246C85.9447 66.1246 88.6447 69.0046 88.6447 73.2646C88.6447 78.0046 85.4047 80.7346 80.6947 80.7346ZM80.7847 76.8946C82.8847 76.8946 84.2347 75.4246 84.2347 73.1446C84.2347 70.8646 82.8847 69.4546 80.7847 69.4546C78.6247 69.4546 77.3047 71.0146 77.3047 73.2046C77.3047 75.4846 78.6547 76.8946 80.7847 76.8946ZM98.6014 80.4646V58.5946H114.471V62.5846H103.281V68.0746H113.271V71.8846H103.281V80.4646H98.6014ZM126.706 80.7346C120.796 80.7346 117.406 77.3746 117.406 72.1546V58.5946H122.056V72.1246C122.056 75.0946 123.796 76.5946 126.736 76.5946C129.796 76.5946 131.416 74.9446 131.416 72.1246V58.5946H136.066V72.1546C136.066 77.5546 132.436 80.7346 126.706 80.7346ZM148.264 80.7346C142.354 80.7346 139.234 77.8546 139.234 73.5946H143.974C144.034 75.7546 145.324 77.1646 148.444 77.1646C150.844 77.1646 152.404 76.2946 152.404 74.5546C152.404 72.4546 151.264 72.0046 147.304 71.3446C142.264 70.5646 139.684 68.7946 139.684 64.9846C139.684 60.8746 142.924 58.3246 148.234 58.3246C153.364 58.3246 156.574 60.9346 156.604 64.8346H151.894C151.804 62.7046 150.154 61.8646 148.084 61.8646C145.894 61.8646 144.544 62.8246 144.544 64.3846C144.544 66.3946 146.044 66.6646 149.824 67.2946C153.484 67.8646 157.264 68.8246 157.264 74.1046C157.264 78.0346 154.234 80.7346 148.264 80.7346ZM160.769 80.4646V58.5946H176.669V62.5846H165.449V67.4746H175.199V71.2246H165.449V76.4746H176.729V80.4646H160.769Z" fill="black"/>
<path d="M199.21 81.6546V80.5766C196.942 80.4086 195.822 79.1066 195.794 77.2726H197.348C197.376 78.5746 198.09 79.4006 199.742 79.4006C201.072 79.4006 201.982 78.8826 201.982 77.7906C201.982 76.5866 201.324 76.2366 199.42 75.8866C197.292 75.5086 196.018 74.8786 196.018 73.0446C196.018 71.3786 197.222 70.3006 199.21 70.1606V69.0686H200.134V70.1606C202.08 70.3286 203.214 71.4766 203.242 73.1286H201.702C201.66 71.8966 200.82 71.3086 199.588 71.3086C198.328 71.3086 197.586 71.9106 197.586 72.8486C197.586 73.9826 198.314 74.2066 200.176 74.5566C201.912 74.8646 203.55 75.2986 203.55 77.6506C203.55 79.3026 202.374 80.4506 200.134 80.5766V81.6546H199.21ZM204.763 80.4646V80.2126C204.763 76.2786 209.929 75.8166 209.929 73.2406C209.929 72.1766 209.201 71.4906 208.095 71.4906C206.933 71.4906 206.135 72.2466 206.205 73.5066H204.791C204.735 71.5326 206.121 70.2446 208.179 70.2446C210.139 70.2446 211.427 71.4066 211.427 73.1706C211.427 76.2506 207.073 77.0066 206.569 79.1906H211.539V80.4646H204.763ZM212.984 80.4646V78.9946H214.426V80.4646H212.984ZM218.05 80.4646V73.1566H215.614V72.0506H216.006C217.35 72.0506 218.008 71.3786 218.106 70.3706H219.492V80.4646H218.05ZM221.498 80.4646V80.2126C221.498 76.2786 226.664 75.8166 226.664 73.2406C226.664 72.1766 225.936 71.4906 224.83 71.4906C223.668 71.4906 222.87 72.2466 222.94 73.5066H221.526C221.47 71.5326 222.856 70.2446 224.914 70.2446C226.874 70.2446 228.162 71.4066 228.162 73.1706C228.162 76.2506 223.808 77.0066 223.304 79.1906H228.274V80.4646H221.498ZM232.938 80.5906C230.796 80.5906 229.494 79.3026 229.494 77.3566H230.908C230.88 78.5466 231.692 79.3446 232.938 79.3446C234.17 79.3446 234.982 78.6306 234.982 77.5246C234.982 76.3906 234.24 75.8306 233.134 75.8306H232.028V74.7246H233.05C234.212 74.7246 234.828 74.0106 234.828 73.0726C234.828 72.0646 234.086 71.4906 232.966 71.4906C231.72 71.4906 231.006 72.2606 230.992 73.4366H229.578C229.578 71.5046 230.936 70.2446 233.022 70.2446C235.024 70.2446 236.312 71.2946 236.312 72.9046C236.312 74.0246 235.682 74.8786 234.744 75.1866V75.2706C235.836 75.5366 236.466 76.4326 236.466 77.6506C236.466 79.4146 235.052 80.5906 232.938 80.5906Z" fill="#666666"/>
<circle cx="135.382" cy="147.66" r="23.465" fill="white"/>
<mask id="path-5-inside-1_5252_81" fill="white">
<path d="M147.261 148.013C147.261 154.574 141.943 159.893 135.382 159.893C128.821 159.893 123.502 154.574 123.502 148.013C123.502 141.452 128.821 136.133 135.382 136.133C141.943 136.133 147.261 141.452 147.261 148.013Z"/>
</mask>
<path d="M145.261 148.013C145.261 153.469 140.838 157.893 135.382 157.893V161.893C143.047 161.893 149.261 155.678 149.261 148.013H145.261ZM135.382 157.893C129.925 157.893 125.502 153.469 125.502 148.013H121.502C121.502 155.678 127.716 161.893 135.382 161.893V157.893ZM125.502 148.013C125.502 142.556 129.925 138.133 135.382 138.133V134.133C127.716 134.133 121.502 140.347 121.502 148.013H125.502ZM135.382 138.133C140.838 138.133 145.261 142.556 145.261 148.013H149.261C149.261 140.347 143.047 134.133 135.382 134.133V138.133Z" fill="black" mask="url(#path-5-inside-1_5252_81)"/>
<path d="M136.016 151.781L136.017 151.78L140.677 147.107C141.026 146.757 141.024 146.191 140.674 145.843C140.323 145.494 139.755 145.496 139.406 145.846L136.278 148.983L136.278 135.515C136.278 135.021 135.877 134.621 135.382 134.621C134.887 134.621 134.486 135.021 134.486 135.515L134.486 148.983L131.358 145.846C131.009 145.496 130.441 145.494 130.091 145.843C129.74 146.191 129.739 146.757 130.088 147.107L134.747 151.78L134.748 151.781C135.098 152.131 135.667 152.13 136.016 151.781Z" fill="black"/>
<path d="M121.243 185.504C118.903 185.504 117.715 184.34 117.703 182.66H119.323C119.347 183.644 119.935 184.28 121.303 184.28C122.395 184.28 123.103 183.884 123.103 183.068C123.103 182.132 122.587 181.892 120.931 181.616C118.927 181.292 117.895 180.632 117.895 179.12C117.895 177.536 119.143 176.54 121.219 176.54C123.247 176.54 124.471 177.572 124.483 179.12H122.887C122.839 178.172 122.131 177.752 121.159 177.752C120.151 177.752 119.539 178.208 119.539 178.916C119.539 179.804 120.175 179.96 121.771 180.224C123.283 180.476 124.759 180.86 124.759 182.912C124.759 184.448 123.559 185.504 121.243 185.504ZM128.035 185.396C126.847 185.396 126.523 184.856 126.523 183.944V180.224H125.347V179.012H126.523V177.212L128.011 177.056V179.012H129.367V180.224H128.011V183.668C128.011 184.076 128.179 184.172 128.551 184.172H129.367V185.396H128.035ZM132.516 185.504C130.98 185.504 129.948 184.364 129.948 182.204C129.948 180.032 130.98 178.892 132.516 178.892C133.548 178.892 134.316 179.408 134.628 180.188H134.712L134.772 179.012H136.212V185.396H134.712V184.208H134.628C134.316 184.988 133.548 185.504 132.516 185.504ZM133.08 184.28C134.148 184.28 134.688 183.428 134.688 182.528V181.868C134.688 180.956 134.148 180.116 133.08 180.116C132.12 180.116 131.472 180.8 131.472 182.204C131.472 183.596 132.12 184.28 133.08 184.28ZM137.821 185.396V176.648H139.345V181.856L139.885 181.244L142.021 179.012H143.881L141.409 181.52L143.941 185.396H142.177L140.737 183.176L140.353 182.516L139.345 183.512V185.396H137.821ZM147.225 185.504C145.269 185.504 144.093 184.208 144.093 182.24C144.093 180.2 145.293 178.892 147.165 178.892C149.337 178.892 150.369 180.452 150.153 182.528H145.569C145.569 183.692 146.229 184.352 147.225 184.352C147.993 184.352 148.557 183.98 148.701 183.404H150.129C149.949 184.664 148.785 185.504 147.225 185.504ZM147.165 180.044C146.265 180.044 145.677 180.608 145.581 181.52H148.689C148.641 180.512 148.005 180.044 147.165 180.044Z" fill="black"/>
<circle cx="217.868" cy="149.289" r="23.465" fill="white"/>
<path d="M217.423 139.817L217.422 139.818L212.199 145.056C211.807 145.449 211.809 146.084 212.202 146.474C212.595 146.865 213.231 146.863 213.623 146.471L217.13 142.954L217.13 158.053C217.13 158.606 217.58 159.055 218.135 159.055C218.689 159.055 219.139 158.606 219.139 158.053L219.139 142.954L222.646 146.471C223.038 146.863 223.674 146.865 224.067 146.474C224.46 146.083 224.462 145.449 224.07 145.056L218.847 139.818L218.846 139.817C218.453 139.424 217.815 139.425 217.423 139.817Z" fill="black"/>
<path d="M200.211 185.396V176.648H204.375C206.127 176.648 207.027 177.548 207.027 178.892C207.027 179.804 206.559 180.572 205.671 180.812V180.896C206.715 181.1 207.267 181.916 207.267 182.912C207.267 184.532 206.127 185.396 204.195 185.396H200.211ZM201.747 180.332H204.063C204.999 180.332 205.431 179.84 205.431 179.108C205.431 178.304 204.855 177.872 203.967 177.872H201.747V180.332ZM201.747 184.16H204.027C205.131 184.16 205.647 183.62 205.647 182.816C205.647 181.952 205.071 181.52 204.135 181.52H201.747V184.16ZM208.515 185.396V179.012H209.871L209.943 180.08H209.991C210.279 179.264 210.975 178.928 211.803 178.928H212.175V180.344C212.079 180.344 211.935 180.332 211.779 180.332C210.615 180.332 210.063 180.908 210.015 181.904V185.396H208.515ZM213.156 178.112V176.648H214.656V178.112H213.156ZM213.156 185.396V179.012H214.656V185.396H213.156ZM218.445 185.504C216.909 185.504 215.877 184.364 215.877 182.204C215.877 180.032 216.909 178.892 218.445 178.892C219.477 178.892 220.245 179.408 220.557 180.188H220.641V176.648H222.141L222.129 185.396H220.689L220.641 184.208H220.557C220.245 184.988 219.477 185.504 218.445 185.504ZM219.009 184.28C220.077 184.28 220.617 183.428 220.617 182.528V181.868C220.617 180.956 220.077 180.116 219.009 180.116C218.049 180.116 217.401 180.8 217.401 182.204C217.401 183.596 218.049 184.28 219.009 184.28ZM226.353 187.52C224.745 187.52 223.749 186.788 223.641 185.636H225.081C225.177 186.128 225.657 186.44 226.389 186.44C227.469 186.44 227.985 185.996 227.985 184.964V183.788H227.901C227.613 184.532 226.857 185.024 225.885 185.024C224.349 185.024 223.353 183.944 223.353 181.952C223.353 179.972 224.373 178.892 225.909 178.892C226.869 178.892 227.613 179.372 227.901 180.104H227.985L228.033 179.012H229.485V184.724C229.485 186.788 228.225 187.52 226.353 187.52ZM226.425 183.86C227.433 183.86 227.961 183.104 227.985 182.336V181.568C227.949 180.812 227.433 180.056 226.437 180.056C225.489 180.056 224.877 180.716 224.877 181.952C224.877 183.212 225.501 183.86 226.425 183.86ZM233.704 185.504C231.748 185.504 230.572 184.208 230.572 182.24C230.572 180.2 231.772 178.892 233.644 178.892C235.816 178.892 236.848 180.452 236.632 182.528H232.048C232.048 183.692 232.708 184.352 233.704 184.352C234.472 184.352 235.036 183.98 235.18 183.404H236.608C236.428 184.664 235.264 185.504 233.704 185.504ZM233.644 180.044C232.744 180.044 232.156 180.608 232.06 181.52H235.168C235.12 180.512 234.484 180.044 233.644 180.044Z" fill="black"/>
<circle cx="53.7979" cy="145.411" r="23.4629" fill="white"/>
<path d="M52.856 159.892V157.505C47.834 157.164 45.478 154.25 45.385 150.22H48.113C48.206 153.103 49.632 155.056 52.856 155.366V146.686C48.423 145.818 45.912 144.454 45.912 140.61C45.912 137.045 48.485 134.689 52.856 134.441V132.023H54.747V134.441C58.994 134.813 61.381 137.293 61.443 140.951H58.777C58.684 138.378 57.165 136.921 54.747 136.58V144.423C58.653 145.136 62.156 146.159 62.156 151.181C62.156 154.746 59.552 157.226 54.747 157.505V159.892H52.856ZM48.64 140.269C48.64 142.594 49.849 143.369 52.856 144.051V136.518C50.159 136.735 48.64 138.161 48.64 140.269ZM59.428 151.429C59.428 148.825 58.157 147.833 54.747 147.058V155.397C57.568 155.18 59.428 153.878 59.428 151.429Z" fill="black"/>
<path d="M28.2101 185.326V176.578H32.3741C34.1261 176.578 35.0261 177.478 35.0261 178.822C35.0261 179.734 34.5581 180.502 33.6701 180.742V180.826C34.7141 181.03 35.2661 181.846 35.2661 182.842C35.2661 184.462 34.1261 185.326 32.1941 185.326H28.2101ZM29.7461 180.262H32.0621C32.9981 180.262 33.4301 179.77 33.4301 179.038C33.4301 178.234 32.8541 177.802 31.9661 177.802H29.7461V180.262ZM29.7461 184.09H32.0261C33.1301 184.09 33.6461 183.55 33.6461 182.746C33.6461 181.882 33.0701 181.45 32.1341 181.45H29.7461V184.09ZM38.6288 185.434C37.1648 185.434 36.3368 184.558 36.3368 182.902V178.942H37.8368V182.506C37.8368 183.598 38.2328 184.21 39.2048 184.21C40.1768 184.21 40.7768 183.43 40.7768 182.422V178.942H42.2768V185.326H40.8368L40.7768 184.09H40.7048C40.3808 184.954 39.5768 185.434 38.6288 185.434ZM43.5265 187.33V186.094H44.2345C44.7865 186.094 45.0745 185.878 45.2545 185.398L45.4705 184.846L42.9985 178.942H44.6425L45.9505 182.59L46.1905 183.31H46.2505L46.4665 182.59L47.7025 178.942H49.2985L46.7185 185.746C46.2745 186.97 45.5665 187.33 44.5105 187.33H43.5265ZM52.9016 185.326V176.578H59.1296V177.946H54.4856V180.442H58.6496V181.738H54.4856V185.326H52.9016ZM62.4881 185.434C61.0241 185.434 60.1961 184.558 60.1961 182.902V178.942H61.6961V182.506C61.6961 183.598 62.0921 184.21 63.0641 184.21C64.0361 184.21 64.6361 183.43 64.6361 182.422V178.942H66.1361V185.326H64.6961L64.6361 184.09H64.5641C64.2401 184.954 63.4361 185.434 62.4881 185.434ZM70.1698 185.446C68.3578 185.446 67.3378 184.594 67.3498 183.322H68.8258C68.8378 184.09 69.4138 184.414 70.2058 184.414C71.0218 184.414 71.4538 184.114 71.4538 183.598C71.4538 182.95 71.0218 182.83 70.0258 182.686C68.5858 182.482 67.5178 182.146 67.5178 180.79C67.5178 179.506 68.5978 178.822 70.2058 178.822C71.8138 178.822 72.8098 179.566 72.8338 180.826H71.3698C71.3578 180.178 70.8898 179.854 70.1698 179.854C69.4138 179.854 69.0178 180.166 69.0178 180.634C69.0178 181.186 69.4738 181.366 70.4818 181.498C71.8138 181.678 72.9658 181.954 72.9658 183.454C72.9658 184.81 71.8978 185.446 70.1698 185.446ZM77.0312 185.434C75.0752 185.434 73.8992 184.138 73.8992 182.17C73.8992 180.13 75.0992 178.822 76.9712 178.822C79.1432 178.822 80.1752 180.382 79.9592 182.458H75.3752C75.3752 183.622 76.0352 184.282 77.0312 184.282C77.7992 184.282 78.3632 183.91 78.5072 183.334H79.9352C79.7552 184.594 78.5912 185.434 77.0312 185.434ZM76.9712 179.974C76.0712 179.974 75.4832 180.538 75.3872 181.45H78.4952C78.4472 180.442 77.8112 179.974 76.9712 179.974Z" fill="black"/>
<rect y="48.4646" width="277" height="212.535" fill="url(#paint0_linear_5252_81)"/>
<defs>
<linearGradient id="paint0_linear_5252_81" x1="138.5" y1="48.4646" x2="138.5" y2="261" gradientUnits="userSpaceOnUse">
<stop stop-color="white" stop-opacity="0"/>
<stop offset="1" stop-color="#D9D9D9"/>
</linearGradient>
</defs>
</svg>
