<svg width="41" height="40" viewBox="0 0 41 40" fill="none" xmlns="http://www.w3.org/2000/svg">
<mask id="mask0_38653_554" style="mask-type:alpha" maskUnits="userSpaceOnUse" x="0" y="0" width="41" height="40">
<rect x="0.5" width="40" height="40" fill="#D9D9D9"/>
</mask>
<g mask="url(#mask0_38653_554)">
<path d="M25.1919 31.6663C21.9311 31.6663 19.1691 30.5348 16.9061 28.2718C14.643 26.0087 13.5115 23.2468 13.5115 19.9859C13.5115 16.7493 14.643 13.998 16.9061 11.7322C19.1691 9.46606 21.9311 8.33301 25.1919 8.33301C28.4283 8.33301 31.1796 9.46606 33.4457 11.7322C35.7118 13.998 36.8448 16.7493 36.8448 19.9859C36.8448 23.2468 35.7118 26.0087 33.4457 28.2718C31.1796 30.5348 28.4283 31.6663 25.1919 31.6663ZM25.1782 29.9997C27.956 29.9997 30.3171 29.0275 32.2615 27.083C34.206 25.1386 35.1782 22.7775 35.1782 19.9997C35.1782 17.2219 34.206 14.8608 32.2615 12.9163C30.3171 10.9719 27.956 9.99967 25.1782 9.99967C22.4004 9.99967 20.0393 10.9719 18.0948 12.9163C16.1504 14.8608 15.1782 17.2219 15.1782 19.9997C15.1782 22.7775 16.1504 25.1386 18.0948 27.083C20.0393 29.0275 22.4004 29.9997 25.1782 29.9997ZM29.2903 25.3426L30.4794 24.1534L26.0115 19.6855V13.8459H24.3448V20.3555L29.2903 25.3426ZM5.81901 14.1663V12.4997H11.8448V14.1663H5.81901ZM4.15234 20.833V19.1663H11.8448V20.833H4.15234ZM5.81901 27.4997V25.833H11.8448V27.4997H5.81901Z" fill="#F6A051"/>
</g>
</svg>
