<svg width="20" height="19" viewBox="0 0 20 19" fill="none" xmlns="http://www.w3.org/2000/svg">
<path d="M1.916 2.12999e-05C1.6654 -0.00116308 1.41703 0.0470569 1.18507 0.141925C0.953123 0.236792 0.742144 0.376448 0.5642 0.552905C0.386257 0.729363 0.244837 0.939163 0.148028 1.17031C0.0512182 1.40146 0.000917083 1.64942 0 1.90002V15.2H1.916V1.90002H15.325V2.12999e-05H1.916ZM5.747 3.80002C5.4964 3.79884 5.24803 3.84706 5.01607 3.94192C4.78412 4.03679 4.57314 4.17645 4.3952 4.35291C4.21726 4.52936 4.07584 4.73916 3.97903 4.97031C3.88222 5.20146 3.83192 5.44942 3.831 5.70002V17.1C3.83192 17.3506 3.88222 17.5986 3.97903 17.8297C4.07584 18.0609 4.21726 18.2707 4.3952 18.4471C4.57314 18.6236 4.78412 18.7633 5.01607 18.8581C5.24803 18.953 5.4964 19.0012 5.747 19H17.24C17.4906 19.0012 17.739 18.953 17.9709 18.8581C18.2029 18.7633 18.4139 18.6236 18.5918 18.4471C18.7697 18.2707 18.9112 18.0609 19.008 17.8297C19.1048 17.5986 19.1551 17.3506 19.156 17.1V5.70002C19.1551 5.44942 19.1048 5.20146 19.008 4.97031C18.9112 4.73916 18.7697 4.52936 18.5918 4.35291C18.4139 4.17645 18.2029 4.03679 17.9709 3.94192C17.739 3.84706 17.4906 3.79884 17.24 3.80002H5.747ZM5.747 5.70002H17.24V17.1H5.747V5.70002Z" fill="#C2C2C2"/>
</svg>
