<svg width="20" height="19" viewBox="0 0 20 19" fill="none" xmlns="http://www.w3.org/2000/svg">
<path d="M2.28464 0.0945035C2.03654 0.0933309 1.79063 0.141071 1.56099 0.234996C1.33134 0.32892 1.12246 0.467187 0.946285 0.64189C0.770111 0.816593 0.630098 1.02431 0.534251 1.25316C0.438404 1.48201 0.388603 1.7275 0.387695 1.97561V14.1949C0.387695 14.7187 0.812342 15.1434 1.33617 15.1434C1.86 15.1434 2.28464 14.7187 2.28464 14.1949V2.97561C2.28464 2.42333 2.73236 1.97561 3.28464 1.97561H14.6198C15.1392 1.97561 15.5603 1.55451 15.5603 1.03506C15.5603 0.515603 15.1392 0.0945035 14.6198 0.0945035H2.28464ZM6.07755 3.85672C5.82944 3.85554 5.58354 3.90328 5.35389 3.99721C5.12425 4.09113 4.91536 4.2294 4.73919 4.4041C4.56302 4.57881 4.423 4.78652 4.32716 5.01537C4.23131 5.24422 4.18151 5.48971 4.1806 5.73782V17.0245C4.18151 17.2726 4.23131 17.5181 4.32716 17.7469C4.423 17.9758 4.56302 18.1835 4.73919 18.3582C4.91536 18.5329 5.12425 18.6712 5.35389 18.7651C5.58354 18.859 5.82944 18.9067 6.07755 18.9056H17.4563C17.7044 18.9067 17.9503 18.859 18.1799 18.7651C18.4096 18.6712 18.6184 18.5329 18.7946 18.3582C18.9708 18.1835 19.1108 17.9758 19.2067 17.7469C19.3025 17.5181 19.3523 17.2726 19.3532 17.0245V5.73782C19.3523 5.48971 19.3025 5.24422 19.2067 5.01537C19.1108 4.78652 18.9708 4.57881 18.7946 4.4041C18.6184 4.2294 18.4096 4.09113 18.1799 3.99721C17.9503 3.90328 17.7044 3.85554 17.4563 3.85672H6.07755ZM6.07755 6.73782C6.07755 6.18554 6.52526 5.73782 7.07755 5.73782H16.4563C17.0085 5.73782 17.4563 6.18554 17.4563 6.73782V16.0245C17.4563 16.5767 17.0085 17.0245 16.4563 17.0245H7.07755C6.52526 17.0245 6.07755 16.5767 6.07755 16.0245V6.73782Z" fill="white"/>
</svg>
