<svg width="12" height="11" viewBox="0 0 12 11" fill="none" xmlns="http://www.w3.org/2000/svg">
<path id="icons8-copy" d="M1.98254 0.500011C1.85065 0.499388 1.71992 0.524767 1.59784 0.574697C1.47576 0.624627 1.36472 0.69813 1.27107 0.791002C1.17741 0.883875 1.10298 0.994295 1.05203 1.11595C1.00108 1.23761 0.974604 1.36811 0.974121 1.50001V8.49999H1.98254V1.50001H9.03989V0.500011H1.98254ZM3.99885 2.50001C3.86696 2.49938 3.73623 2.52476 3.61415 2.57469C3.49208 2.62462 3.38103 2.69813 3.28738 2.791C3.19373 2.88387 3.11929 2.99429 3.06834 3.11595C3.01739 3.2376 2.99092 3.36811 2.99043 3.5V9.49999C2.99092 9.63189 3.01739 9.76239 3.06834 9.88405C3.11929 10.0057 3.19373 10.1161 3.28738 10.209C3.38103 10.3019 3.49208 10.3754 3.61415 10.4253C3.73623 10.4752 3.86696 10.5006 3.99885 10.5H10.0478C10.1797 10.5006 10.3104 10.4752 10.4325 10.4253C10.5546 10.3754 10.6656 10.3019 10.7593 10.209C10.8529 10.1161 10.9273 10.0057 10.9783 9.88405C11.0292 9.76239 11.0557 9.63189 11.0562 9.49999V3.5C11.0557 3.36811 11.0292 3.2376 10.9783 3.11595C10.9273 2.99429 10.8529 2.88387 10.7593 2.791C10.6656 2.69813 10.5546 2.62462 10.4325 2.57469C10.3104 2.52476 10.1797 2.49938 10.0478 2.50001H3.99885ZM3.99885 3.5H10.0478V9.49999H3.99885V3.5Z" fill="black"/>
</svg>
