<svg width="16" height="16" viewBox="0 0 16 16" fill="none" xmlns="http://www.w3.org/2000/svg">
<path d="M2.30267 0.521135C2.10483 0.5202 1.90875 0.558268 1.72563 0.633164C1.54251 0.70806 1.37594 0.818314 1.23546 0.957624C1.09498 1.09693 0.983332 1.26256 0.906903 1.44505C0.830475 1.62754 0.790763 1.8233 0.790039 2.02114V11.7648C0.790039 12.1826 1.12865 12.5212 1.54636 12.5212C1.96406 12.5212 2.30267 12.1826 2.30267 11.7648V3.02114C2.30267 2.46885 2.75039 2.02114 3.30267 2.02114H12.1388C12.553 2.02114 12.8888 1.68535 12.8888 1.27114C12.8888 0.856922 12.553 0.521135 12.1388 0.521135H2.30267ZM5.32716 3.52114C5.12931 3.52021 4.93323 3.55828 4.75011 3.63317C4.56699 3.70807 4.40043 3.81832 4.25994 3.95763C4.11946 4.09694 4.00781 4.26257 3.93139 4.44506C3.85496 4.62754 3.81524 4.8233 3.81452 5.02115V14.0212C3.81524 14.219 3.85496 14.4148 3.93139 14.5973C4.00781 14.7797 4.11946 14.9454 4.25994 15.0847C4.40043 15.224 4.56699 15.3342 4.75011 15.4091C4.93323 15.484 5.12931 15.5221 5.32716 15.5212H14.4006C14.5984 15.5221 14.7945 15.484 14.9777 15.4091C15.1608 15.3342 15.3273 15.224 15.4678 15.0847C15.6083 14.9454 15.7199 14.7797 15.7964 14.5973C15.8728 14.4148 15.9125 14.219 15.9132 14.0212V5.02115C15.9125 4.8233 15.8728 4.62754 15.7964 4.44506C15.7199 4.26257 15.6083 4.09694 15.4678 3.95763C15.3273 3.81832 15.1608 3.70807 14.9777 3.63317C14.7945 3.55828 14.5984 3.52021 14.4006 3.52114H5.32716ZM5.32716 6.02115C5.32716 5.46886 5.77487 5.02115 6.32716 5.02115H13.4006C13.9529 5.02115 14.4006 5.46886 14.4006 6.02115V13.0212C14.4006 13.5735 13.9529 14.0212 13.4006 14.0212H6.32716C5.77487 14.0212 5.32716 13.5735 5.32716 13.0212V6.02115Z" fill="#939393"/>
</svg>
