<svg width="19" height="19" viewBox="0 0 19 19" fill="none" xmlns="http://www.w3.org/2000/svg">
<g id="fi-rr-plus" clip-path="url(#clip0_120_327)">
<path id="Vector" d="M13.7765 13.0222L10.0052 9.25098L13.7765 5.47974C13.8765 5.37972 13.9327 5.24407 13.9327 5.10262C13.9327 4.96117 13.8765 4.82552 13.7765 4.7255V4.7255C13.6764 4.62548 13.5408 4.56929 13.3993 4.56929C13.2579 4.56929 13.1222 4.62548 13.0222 4.7255L9.25098 8.49673L5.47974 4.7255C5.37972 4.62548 5.24407 4.56929 5.10262 4.56929C4.96117 4.56929 4.82551 4.62548 4.72549 4.7255V4.7255C4.62547 4.82552 4.56928 4.96117 4.56928 5.10262C4.56928 5.24407 4.62547 5.37972 4.72549 5.47974L8.49673 9.25098L4.72549 13.0222C4.62547 13.1222 4.56928 13.2579 4.56928 13.3993C4.56928 13.5408 4.62547 13.6764 4.72549 13.7765C4.82551 13.8765 4.96117 13.9327 5.10262 13.9327C5.24407 13.9327 5.37972 13.8765 5.47974 13.7765L9.25098 10.0052L13.0222 13.7765C13.1222 13.8765 13.2579 13.9327 13.3993 13.9327C13.5408 13.9327 13.6764 13.8765 13.7765 13.7765C13.8765 13.6764 13.9327 13.5408 13.9327 13.3993C13.9327 13.2579 13.8765 13.1222 13.7765 13.0222Z" fill="black"/>
</g>
<defs>
<clipPath id="clip0_120_327">
<rect width="12.8" height="12.8" fill="white" transform="translate(9.25098 0.200012) rotate(45)"/>
</clipPath>
</defs>
</svg>
