<svg width="41" height="42" viewBox="0 0 41 42" fill="none" xmlns="http://www.w3.org/2000/svg">
<rect x="1.50732" y="2.31934" width="37.5986" height="37.5986" rx="18.7993" fill="#474747" stroke="#474747" stroke-width="3"/>
<rect x="3.50732" y="4.31934" width="33.5986" height="33.5986" rx="16.7993" fill="#474747" stroke="#FAB400"/>
<path fill-rule="evenodd" clip-rule="evenodd" d="M21.2641 16.3366C21.8867 16.0013 22.31 15.3434 22.31 14.5867C22.31 13.4898 21.4208 12.6006 20.3239 12.6006C19.227 12.6006 18.3378 13.4898 18.3378 14.5867C18.3378 15.372 18.7936 16.0508 19.455 16.3731L16.5443 22.6199L11.9762 19.7401L11.9347 19.7641C12.2028 19.4256 12.3628 18.9976 12.3628 18.5323C12.3628 17.4354 11.4736 16.5462 10.3767 16.5462C9.27983 16.5462 8.39062 17.4354 8.39062 18.5323C8.39062 19.6292 9.27983 20.5184 10.3767 20.5184C10.588 20.5184 10.7915 20.4854 10.9825 20.4243L14.3595 29.6373H26.3091L29.5544 20.426C29.7672 20.5039 29.9971 20.5464 30.2369 20.5464C31.3338 20.5464 32.223 19.6572 32.223 18.5603C32.223 17.4634 31.3338 16.5742 30.2369 16.5742C29.14 16.5742 28.2508 17.4634 28.2508 18.5603C28.2508 19.0062 28.3978 19.4177 28.6458 19.7492L24.3893 22.6199L21.2641 16.3366Z" fill="#FAB400"/>
</svg>
