<svg width="25" height="18" viewBox="0 0 25 18" fill="none" xmlns="http://www.w3.org/2000/svg">
<path fill-rule="evenodd" clip-rule="evenodd" d="M13.6869 4.57194C14.3096 4.23669 14.7328 3.57879 14.7328 2.82203C14.7328 1.72514 13.8436 0.835938 12.7468 0.835938C11.6499 0.835938 10.7607 1.72514 10.7607 2.82203C10.7607 3.60732 11.2164 4.28617 11.8779 4.60848L8.96713 10.8553L4.39904 7.97541L4.35759 7.99947C4.62563 7.66093 4.78566 7.23297 4.78566 6.76763C4.78566 5.67074 3.89646 4.78154 2.79957 4.78154C1.70268 4.78154 0.813477 5.67074 0.813477 6.76763C0.813477 7.86452 1.70268 8.75372 2.79957 8.75372C3.01083 8.75372 3.21439 8.72074 3.40537 8.65964L6.78239 17.8727H18.732L21.9773 8.66136C22.1901 8.73924 22.42 8.78174 22.6598 8.78174C23.7567 8.78174 24.6459 7.89254 24.6459 6.79565C24.6459 5.69876 23.7567 4.80956 22.6598 4.80956C21.5629 4.80956 20.6737 5.69876 20.6737 6.79565C20.6737 7.24151 20.8206 7.65306 21.0687 7.98452L16.8121 10.8553L13.6869 4.57194Z" fill="#FAB400"/>
</svg>
