<svg width="40" height="41" viewBox="0 0 40 41" fill="none" xmlns="http://www.w3.org/2000/svg">
<mask id="mask0_10495_1380" style="mask-type:alpha" maskUnits="userSpaceOnUse" x="0" y="0" width="40" height="41">
<rect y="0.5" width="40" height="40" fill="#D9D9D9"/>
</mask>
<g mask="url(#mask0_10495_1380)">
<path d="M19.999 37.1668C16.6101 37.1668 13.5727 36.2661 10.8869 34.4647C8.20104 32.6636 6.18493 30.2406 4.83854 27.1956V32.6797H3.17188V24.3464H11.5052V26.0131H6.16229C7.23924 28.8678 9.04424 31.1627 11.5773 32.8977C14.1106 34.6327 16.9178 35.5002 19.999 35.5002C21.9967 35.5002 23.8734 35.1417 25.629 34.4247C27.3842 33.7078 28.9301 32.7185 30.2665 31.4568C31.6031 30.1952 32.6887 28.6974 33.5231 26.9635C34.3576 25.2293 34.8388 23.3527 34.9669 21.3335H36.6335C36.5266 23.5407 36.0153 25.6059 35.0998 27.5289C34.1842 29.452 32.984 31.1293 31.499 32.561C30.014 33.9927 28.2831 35.1182 26.3065 35.9377C24.3301 36.7571 22.2276 37.1668 19.999 37.1668ZM19.1398 31.526V29.4872C18.0053 29.2245 17.0391 28.7742 16.241 28.1364C15.443 27.4986 14.8067 26.6092 14.3323 25.4681L15.8002 24.8335C16.2619 25.8654 16.8788 26.6609 17.651 27.2197C18.4235 27.7784 19.2895 28.0577 20.249 28.0577C21.2298 28.0577 22.1481 27.7997 23.004 27.2839C23.8595 26.7678 24.2873 25.9232 24.2873 24.7502C24.2873 23.8163 23.9791 23.0834 23.3627 22.5514C22.7463 22.0195 21.5417 21.4234 19.749 20.7631C17.9606 20.1156 16.6898 19.4318 15.9365 18.7118C15.1831 17.9916 14.8065 17.0321 14.8065 15.8335C14.8065 14.8229 15.1863 13.8897 15.946 13.0339C16.7058 12.1781 17.7981 11.6434 19.2231 11.4297V9.47433H20.8581V11.4297C21.7298 11.4917 22.5433 11.7929 23.2985 12.3335C24.0538 12.8741 24.627 13.545 25.0181 14.3464L23.5694 14.9168C23.2191 14.3207 22.7619 13.8288 22.1977 13.441C21.6335 13.0532 20.9284 12.8593 20.0823 12.8593C18.9817 12.8593 18.0998 13.1424 17.4365 13.7085C16.7731 14.2746 16.4415 14.9829 16.4415 15.8335C16.4415 16.6841 16.6967 17.3389 17.2073 17.7981C17.7178 18.2575 18.892 18.8078 20.7298 19.4489C22.7298 20.1711 24.0845 20.9435 24.794 21.766C25.5034 22.5888 25.8581 23.5835 25.8581 24.7502C25.8581 25.5343 25.7031 26.2213 25.3931 26.811C25.0834 27.4007 24.6833 27.8895 24.1927 28.2772C23.7024 28.6653 23.157 28.9645 22.5565 29.1747C21.9562 29.3853 21.3623 29.5172 20.7748 29.5706V31.526H19.1398ZM3.36437 19.6668C3.51382 17.3527 4.05701 15.2288 4.99396 13.2952C5.93118 11.3613 7.15299 9.68919 8.65938 8.27891C10.1658 6.86864 11.8912 5.77516 13.8356 4.9985C15.7801 4.22183 17.8345 3.8335 19.999 3.8335C23.3237 3.8335 26.361 4.73947 29.111 6.55141C31.861 8.36336 33.8772 10.8238 35.1594 13.9327V8.32058H36.826V16.6539H28.4927V14.9872H33.8356C32.8228 12.2181 31.0445 9.94461 28.5006 8.16683C25.9567 6.38905 23.1228 5.50016 19.999 5.50016C18.0865 5.50016 16.258 5.84794 14.5135 6.5435C12.7688 7.23905 11.2174 8.20697 9.85938 9.44725C8.5016 10.6875 7.38951 12.1747 6.52313 13.9089C5.65646 15.6428 5.1591 17.5621 5.03104 19.6668H3.36437Z" fill="#1C1B1F"/>
</g>
</svg>
