<svg width="156" height="141" viewBox="0 0 156 141" fill="none" xmlns="http://www.w3.org/2000/svg">
<g clip-path="url(#clip0_6245_895)">
<path d="M77.4625 67.1972L77.4358 48.7026L32.4346 74.9075L32.4612 93.402L77.4625 67.1972Z" fill="white" stroke="#1B1B1B" stroke-width="0.5" stroke-linecap="round" stroke-linejoin="round"/>
<path d="M77.4248 67.1972L77.4514 48.7026L123.837 75.5653L123.81 94.0585L77.4248 67.1972Z" fill="white" stroke="#1B1B1B" stroke-width="0.5" stroke-linecap="round" stroke-linejoin="round"/>
<path d="M155.326 96.2867L155.279 76.6633L79.2871 120.913L79.3328 140.537L155.326 96.2867Z" fill="white" stroke="#1B1B1B" stroke-width="0.5" stroke-linecap="round" stroke-linejoin="round"/>
<path d="M79.3324 140.537L79.2867 120.914L0.967773 74.4648L1.01345 94.087L79.3324 140.537Z" fill="white" stroke="#1B1B1B" stroke-width="0.5" stroke-linecap="round" stroke-linejoin="round"/>
<path d="M76.9597 30.2185L0.959961 74.4699L79.2891 120.911L155.289 76.6608L76.9597 30.2185ZM78.8158 102.425L32.4355 74.9115L77.452 48.704L123.832 76.2193L78.8158 102.428V102.425Z" fill="white" stroke="#1B1B1B" stroke-width="0.5" stroke-linecap="round" stroke-linejoin="round"/>
<path d="M78.9912 52.1261L79.0179 31.6982L124.019 57.9031L101.506 61.1288L78.9912 52.1261Z" fill="#D9D9D9" stroke="#242424" stroke-width="0.5" stroke-linecap="round" stroke-linejoin="round"/>
<path d="M123.851 62.9528L123.825 42.5249L78.8232 68.7285L78.8499 89.1564L123.851 62.9528Z" fill="#D9D9D9" stroke="#242424" stroke-width="0.5" stroke-linecap="round" stroke-linejoin="round"/>
<path d="M79.2115 53.851L79.1849 33.4231L34.1836 59.628L56.6982 62.8537L79.2115 53.851Z" fill="#D9D9D9" stroke="#242424" stroke-width="0.5" stroke-linecap="round" stroke-linejoin="round"/>
<path d="M78.8501 89.1563L78.8234 68.7284L32.4443 41.2222L32.471 61.6501L78.8501 89.1563Z" fill="#D9D9D9"/>
<path d="M78.8501 89.1563L78.8234 68.7284L32.4443 41.2222L32.471 61.6501L78.8501 89.1563Z" stroke="#242424" stroke-width="0.5" stroke-linecap="round" stroke-linejoin="round"/>
<path d="M77.4425 15.0161L32.4463 41.2248L78.819 68.7208L123.83 42.5275L77.4425 15.0161ZM64.3658 42.3112L79.1096 33.7307L94.2973 42.7309L79.5536 51.3114L64.3658 42.3112Z" fill="#D9D9D9" stroke="#242424" stroke-width="0.5" stroke-linecap="round" stroke-linejoin="round"/>
<path d="M94.2997 27.227L94.2908 10.187L79.5547 18.7675L79.5648 35.8075L94.2997 27.227Z" fill="white" stroke="#1B1B1B" stroke-width="0.5" stroke-linecap="round" stroke-linejoin="round"/>
<path d="M79.5648 35.8075L79.5547 18.7675L64.3682 9.76099L64.377 26.801L79.5648 35.8075Z" fill="white" stroke="#1B1B1B" stroke-width="0.5" stroke-linecap="round" stroke-linejoin="round"/>
<path d="M79.5547 18.7675L64.3682 9.76091L79.1043 1.18042L94.2908 10.187L79.5547 18.7675Z" fill="white" stroke="#1B1B1B" stroke-width="0.5" stroke-linecap="round" stroke-linejoin="round"/>
</g>
<defs>
<clipPath id="clip0_6245_895">
<rect width="155" height="140" fill="white" transform="translate(0.643555 0.858398)"/>
</clipPath>
</defs>
</svg>
