<svg width="31" height="31" viewBox="0 0 31 31" fill="none" xmlns="http://www.w3.org/2000/svg">
<g id="Frame 48096113">
<g id="Group">
<path id="Vector" d="M24.2266 7.61457C22.5822 6.86005 20.8188 6.30414 18.975 5.98571C18.9414 5.97956 18.9079 5.99493 18.8906 6.02562C18.6638 6.42901 18.4126 6.95519 18.2367 7.36881C16.2536 7.0719 14.2807 7.0719 12.3383 7.36881C12.1623 6.94602 11.902 6.42901 11.6742 6.02562C11.6569 5.99594 11.6233 5.98057 11.5898 5.98571C9.74706 6.30308 7.98366 6.859 6.33817 7.61457C6.32391 7.62071 6.31172 7.63094 6.30361 7.64425C2.95882 12.6413 2.0425 17.5156 2.49199 22.3294C2.49401 22.3529 2.50726 22.3755 2.52555 22.3898C4.73235 24.0105 6.87006 24.9943 8.96801 25.6465C9.00157 25.6567 9.03714 25.6444 9.05851 25.6168C9.55477 24.9391 9.99715 24.2245 10.3764 23.473C10.3988 23.429 10.3775 23.3767 10.3317 23.3593C9.63 23.0932 8.96186 22.7686 8.31912 22.4001C8.26827 22.3704 8.26419 22.2977 8.311 22.2629C8.44625 22.1615 8.58155 22.0561 8.71071 21.9496C8.73409 21.9301 8.76664 21.9261 8.79411 21.9383C13.0165 23.8661 17.5878 23.8661 21.7603 21.9383C21.7878 21.925 21.8204 21.9291 21.8448 21.9485C21.974 22.055 22.1092 22.1615 22.2455 22.2628C22.2922 22.2976 22.2892 22.3704 22.2384 22.4C21.5956 22.7758 20.9275 23.0931 20.2248 23.3583C20.179 23.3757 20.1587 23.4289 20.1811 23.4729C20.5685 24.2234 21.0109 24.938 21.498 25.6157C21.5184 25.6444 21.555 25.6567 21.5885 25.6464C23.6966 24.9943 25.8343 24.0104 28.0411 22.3898C28.0605 22.3755 28.0727 22.3539 28.0747 22.3304C28.6127 16.7651 27.1737 11.9308 24.2601 7.64525C24.253 7.63094 24.2408 7.62071 24.2266 7.61457ZM11.0071 19.3983C9.73587 19.3983 8.68838 18.2312 8.68838 16.7979C8.68838 15.3646 9.71551 14.1975 11.0071 14.1975C12.3088 14.1975 13.3461 15.3748 13.3258 16.7979C13.3258 18.2312 12.2986 19.3983 11.0071 19.3983ZM19.5801 19.3983C18.3089 19.3983 17.2614 18.2312 17.2614 16.7979C17.2614 15.3646 18.2885 14.1975 19.5801 14.1975C20.8818 14.1975 21.9191 15.3748 21.8988 16.7979C21.8988 18.2312 20.8818 19.3983 19.5801 19.3983Z" fill="#717AF0"/>
</g>
</g>
</svg>
