<svg width="19" height="21" viewBox="0 0 19 21" fill="none" xmlns="http://www.w3.org/2000/svg">
<path d="M15.339 5.4086C15.0442 5.1138 14.5664 5.1138 14.2715 5.4086C13.9767 5.70339 13.9767 6.18126 14.2715 6.47605C15.6567 7.86125 16.4195 9.70299 16.4195 11.662C16.4195 13.6209 15.6567 15.4625 14.2715 16.8476C12.842 18.2772 10.9645 18.9919 9.08655 18.9917C7.20858 18.9916 5.33021 18.2767 3.90053 16.847C1.04166 13.9881 1.04196 9.33623 3.90103 6.47716C4.19583 6.18237 4.19583 5.7044 3.90103 5.4097C3.60624 5.11491 3.12837 5.11491 2.83347 5.4097C-0.614178 8.85735 -0.61448 14.4671 2.83297 17.9145C4.55725 19.6388 6.8218 20.5009 9.08665 20.5008C11.3509 20.5007 13.6154 19.6388 15.3391 17.9151C17.0094 16.245 17.9292 14.0243 17.9292 11.6621C17.9293 9.2998 17.0093 7.07893 15.339 5.4086Z" fill="#666666" stroke="#666666" stroke-width="0.5"/>
<path d="M9.08566 10.2792C9.50264 10.2792 9.84051 9.94126 9.84051 9.52438V1.25485C9.84051 0.837971 9.50264 0.5 9.08566 0.5C8.66868 0.5 8.33081 0.837971 8.33081 1.25485V9.52438C8.33081 9.94136 8.66868 10.2792 9.08566 10.2792Z" fill="#666666" stroke="#666666" stroke-width="0.5"/>
</svg>
