<svg width="86" height="68" viewBox="0 0 86 68" fill="none" xmlns="http://www.w3.org/2000/svg">
<path d="M72.6677 6.54232C67.1338 3.95315 61.2167 2.07146 55.0305 1C54.2708 2.37357 53.3832 4.22105 52.7712 5.69071C46.1952 4.70175 39.6796 4.70175 33.2245 5.69071C32.6127 4.22105 31.705 2.37357 30.9384 1C24.7456 2.07146 18.8217 3.96007 13.2878 6.55603C2.12593 23.4231 -0.899872 39.8712 0.613033 56.0858C8.01618 61.6143 15.1907 64.9727 22.2442 67.1703C23.9857 64.7735 25.539 62.2256 26.877 59.5403C24.3286 58.572 21.8878 57.377 19.5816 55.9897C20.1934 55.5364 20.7919 55.0625 21.3701 54.5749C35.4367 61.1542 50.7204 61.1542 64.619 54.5749C65.204 55.0625 65.8024 55.5364 66.4076 55.9897C64.0945 57.3838 61.647 58.5788 59.0986 59.5472C60.4367 62.2256 61.9832 64.7804 63.7314 67.1771C70.7917 64.9795 77.9729 61.6212 85.3761 56.0858C87.1512 37.289 82.3436 20.9919 72.6677 6.54232ZM28.7934 46.114C24.5707 46.114 21.1078 42.1719 21.1078 37.3714C21.1078 32.5709 24.4968 28.6219 28.7934 28.6219C33.0901 28.6219 36.5529 32.5639 36.479 37.3714C36.4857 42.1719 33.0901 46.114 28.7934 46.114ZM57.1957 46.114C52.973 46.114 49.5101 42.1719 49.5101 37.3714C49.5101 32.5709 52.899 28.6219 57.1957 28.6219C61.4923 28.6219 64.9552 32.5639 64.8813 37.3714C64.8813 42.1719 61.4923 46.114 57.1957 46.114Z" fill="white" stroke="black" stroke-width="0.5" stroke-linecap="round" stroke-linejoin="round"/>
</svg>
