<svg width="25" height="18" viewBox="0 0 25 18" fill="none" xmlns="http://www.w3.org/2000/svg">
<path d="M18.5993 17.8701C18.5993 17.8701 17.8438 16.9672 17.2142 16.1902C19.9634 15.4133 21.0127 13.7125 21.0127 13.7125C20.1523 14.2794 19.3338 14.6784 18.5993 14.9514C17.55 15.3923 16.5427 15.6653 15.5563 15.8543C13.5417 16.2322 11.6949 16.1273 10.121 15.8333C8.92477 15.6023 7.89646 15.2873 7.03604 14.9304C6.55336 14.7414 6.02871 14.5104 5.50406 14.2164C5.4411 14.1744 5.37814 14.1534 5.31519 14.1114C5.27321 14.0904 5.25223 14.0694 5.23124 14.0694C4.8535 13.8594 4.64364 13.7125 4.64364 13.7125C4.64364 13.7125 5.65096 15.3713 8.31618 16.1692C7.6866 16.9672 6.91012 17.8911 6.91012 17.8911C2.27222 17.7441 0.509399 14.7204 0.509399 14.7204C0.509399 8.02194 3.53138 2.58341 3.53138 2.58341C6.55336 0.336597 9.40745 0.399592 9.40745 0.399592L9.61731 0.65157C5.83984 1.72248 4.11899 3.38134 4.11899 3.38134C4.11899 3.38134 4.58068 3.12936 5.35716 2.79339C7.60266 1.80647 9.38647 1.55449 10.121 1.4705C10.2469 1.4495 10.3518 1.4285 10.4777 1.4285C11.7579 1.26052 13.2059 1.21852 14.7169 1.38651C16.7106 1.61749 18.8511 2.20544 21.0337 3.38134C21.0337 3.38134 19.3758 1.80647 15.8082 0.735563L16.102 0.399592C16.102 0.399592 18.9771 0.336597 21.978 2.58341C21.978 2.58341 25 8.02194 25 14.7204C25 14.6994 23.2372 17.7231 18.5993 17.8701Z" fill="#666666"/>
</svg>
