<svg width="17" height="16" viewBox="0 0 17 16" fill="none" xmlns="http://www.w3.org/2000/svg">
<g id="Button: Dismiss">
<path id="Icon" fill-rule="evenodd" clip-rule="evenodd" d="M4.19236 3.72C4.33298 3.57955 4.52361 3.50066 4.72236 3.50066C4.92111 3.50066 5.11173 3.57955 5.25236 3.72L8.47236 6.94L11.6924 3.72C11.7611 3.64631 11.8439 3.58721 11.9359 3.54622C12.0279 3.50523 12.1272 3.48319 12.2279 3.48141C12.3286 3.47963 12.4286 3.49816 12.522 3.53588C12.6154 3.5736 12.7002 3.62974 12.7714 3.70096C12.8427 3.77218 12.8988 3.85702 12.9365 3.9504C12.9742 4.04379 12.9928 4.14382 12.991 4.24452C12.9892 4.34523 12.9672 4.44454 12.9262 4.53654C12.8852 4.62854 12.8261 4.71134 12.7524 4.78L9.53236 8L12.7524 11.22C12.8261 11.2887 12.8852 11.3715 12.9262 11.4635C12.9672 11.5555 12.9892 11.6548 12.991 11.7555C12.9928 11.8562 12.9742 11.9562 12.9365 12.0496C12.8988 12.143 12.8427 12.2278 12.7714 12.299C12.7002 12.3703 12.6154 12.4264 12.522 12.4641C12.4286 12.5018 12.3286 12.5204 12.2279 12.5186C12.1272 12.5168 12.0279 12.4948 11.9359 12.4538C11.8439 12.4128 11.7611 12.3537 11.6924 12.28L8.47236 9.06L5.25236 12.28C5.11018 12.4125 4.92213 12.4846 4.72783 12.4812C4.53353 12.4777 4.34815 12.399 4.21073 12.2616C4.07332 12.1242 3.99461 11.9388 3.99118 11.7445C3.98775 11.5502 4.05988 11.3622 4.19236 11.22L7.41236 8L4.19236 4.78C4.05191 4.63938 3.97302 4.44875 3.97302 4.25C3.97302 4.05125 4.05191 3.86063 4.19236 3.72Z" fill="#57606A"/>
</g>
</svg>
