<svg width="46" height="45" viewBox="0 0 46 45" fill="none" xmlns="http://www.w3.org/2000/svg">
<circle cx="23.3276" cy="22.4976" r="21.7476" stroke="black" stroke-width="1.5"/>
<path d="M23.4761 34.8761V32.6921C18.9121 32.4401 16.8121 29.8081 16.7561 26.1681H18.5481C18.6321 29.1361 20.1441 31.0401 23.4761 31.2641V22.6121C19.4161 21.8001 17.2041 20.6521 17.2041 17.2921C17.2041 14.1561 19.5281 12.0561 23.4761 11.8601V9.70409H24.7921V11.8881C28.6841 12.1401 30.7841 14.4361 30.8681 17.7401H29.0761C28.9921 15.1081 27.4241 13.5681 24.7921 13.3161V21.1561C28.4041 21.8281 31.5121 22.6961 31.5121 27.1761C31.5121 30.3681 29.1041 32.5521 24.7921 32.7201V34.8761H23.4761ZM19.0241 17.0681C19.0241 19.4201 20.3121 20.1761 23.4761 20.8761V13.2601C20.6481 13.4001 19.0241 14.8841 19.0241 17.0681ZM29.7201 27.2881C29.7201 24.6561 28.4041 23.6481 24.7921 22.8921V31.2641C27.7321 31.1241 29.7201 29.8641 29.7201 27.2881Z" fill="black"/>
</svg>
