<svg width="19" height="31" viewBox="0 0 19 31" fill="none" xmlns="http://www.w3.org/2000/svg">
<path d="M8.46698 30.8202V28.2022C2.95898 27.8282 0.374984 24.6322 0.272985 20.2122H3.26498C3.36698 23.3742 4.93098 25.5162 8.46698 25.8562V16.3362C3.60498 15.3842 0.850984 13.8882 0.850984 9.67218C0.850984 5.76218 3.67298 3.17817 8.46698 2.90617V0.254175H10.541V2.90617C15.199 3.31417 17.817 6.03417 17.885 10.0462H14.961C14.859 7.22417 13.193 5.62618 10.541 5.25217V13.8542C14.825 14.6362 18.667 15.7582 18.667 21.2662C18.667 25.1762 15.811 27.8962 10.541 28.2022V30.8202H8.46698ZM3.84298 9.29817C3.84298 11.8482 5.16898 12.6982 8.46698 13.4462V5.18417C5.50898 5.42217 3.84298 6.98617 3.84298 9.29817ZM15.675 21.5382C15.675 18.6822 14.281 17.5942 10.541 16.7442V25.8902C13.635 25.6522 15.675 24.2242 15.675 21.5382Z" fill="black"/>
</svg>
