<svg width="17" height="26" viewBox="0 0 17 26" fill="none" xmlns="http://www.w3.org/2000/svg">
<path d="M7.27969 25.4698V23.3084C2.81829 22.9204 0.462891 20.3988 0.462891 16.7687H4.81345C4.84116 18.7915 5.9773 20.0939 8.66522 20.0939C10.7158 20.0939 12.0736 19.318 12.0736 17.6554C12.0736 15.688 10.9929 15.2446 7.63993 14.6904C3.53877 13.9699 0.850839 12.5567 0.850839 8.81574C0.850839 5.35191 3.26166 3.07965 7.27969 2.71941V0.530273H9.74593V2.71941C13.57 3.13507 15.9254 5.43505 15.9531 8.67718H11.6303C11.5471 6.70973 10.1339 5.87842 8.3604 5.87842C6.47609 5.87842 5.31224 6.82058 5.31224 8.26153C5.31224 10.0904 6.53151 10.3675 9.82907 10.9495C13.1543 11.5037 16.535 12.3627 16.535 17.2675C16.535 20.565 14.235 22.9481 9.74593 23.3084V25.4698H7.27969Z" fill="black"/>
</svg>
