<svg width="41" height="41" viewBox="0 0 41 41" fill="none" xmlns="http://www.w3.org/2000/svg">
<mask id="mask0_12845_3620" style="mask-type:alpha" maskUnits="userSpaceOnUse" x="0" y="0" width="41" height="41">
<rect x="0.697266" y="0.433594" width="40" height="40" fill="#D9D9D9"/>
</mask>
<g mask="url(#mask0_12845_3620)">
<path d="M19.8381 31.4594H21.4731V29.504C22.6695 29.4037 23.8157 28.9743 24.9118 28.2157C26.0082 27.4571 26.5564 26.2797 26.5564 24.6836C26.5564 23.5169 26.2017 22.5222 25.4923 21.6994C24.7828 20.8769 23.4281 20.1046 21.4281 19.3823C19.5903 18.7412 18.4162 18.191 17.9056 17.7315C17.395 17.2723 17.1398 16.6175 17.1398 15.7669C17.1398 14.9164 17.4714 14.208 18.1348 13.6419C18.7981 13.0758 19.68 12.7928 20.7806 12.7928C21.6267 12.7928 22.3319 12.9866 22.896 13.3744C23.4602 13.7622 23.9174 14.2541 24.2677 14.8503L25.7164 14.2798C25.3253 13.4785 24.7521 12.8075 23.9968 12.2669C23.2416 11.7264 22.4281 11.4251 21.5564 11.3632V9.40776H19.9214V11.3632C18.4687 11.6046 17.3693 12.1462 16.6235 12.9882C15.8777 13.8301 15.5048 14.7564 15.5048 15.7669C15.5048 16.9655 15.8814 17.925 16.6348 18.6453C17.3881 19.3653 18.6589 20.049 20.4473 20.6965C22.24 21.3568 23.4446 21.9529 24.061 22.4848C24.6774 23.0168 24.9856 23.7497 24.9856 24.6836C24.9856 25.8566 24.5578 26.7012 23.7023 27.2173C22.8464 27.7332 21.9281 27.9911 20.9473 27.9911C19.9878 27.9911 19.1218 27.7118 18.3493 27.1532C17.5771 26.5943 16.9602 25.7989 16.4985 24.7669L15.0306 25.4015C15.505 26.5426 16.1413 27.4321 16.9393 28.0698C17.7374 28.7076 18.7037 29.1579 19.8381 29.4207V31.4594ZM20.6973 35.4336C18.6267 35.4336 16.6791 35.0389 14.8543 34.2494C13.0296 33.4597 11.442 32.3897 10.0914 31.0394C8.74115 29.6889 7.67115 28.1012 6.88143 26.2765C6.09199 24.4518 5.69727 22.5041 5.69727 20.4336C5.69727 18.363 6.09199 16.4154 6.88143 14.5907C7.67115 12.766 8.74115 11.1783 10.0914 9.82776C11.442 8.47748 13.0296 7.40748 14.8543 6.61776C16.6791 5.82832 18.6267 5.43359 20.6973 5.43359C22.7678 5.43359 24.7155 5.82832 26.5402 6.61776C28.3649 7.40748 29.9525 8.47748 31.3031 9.82776C32.6534 11.1783 33.7234 12.766 34.5131 14.5907C35.3025 16.4154 35.6973 18.363 35.6973 20.4336C35.6973 22.5041 35.3025 24.4518 34.5131 26.2765C33.7234 28.1012 32.6534 29.6889 31.3031 31.0394C29.9525 32.3897 28.3649 33.4597 26.5402 34.2494C24.7155 35.0389 22.7678 35.4336 20.6973 35.4336ZM20.6973 33.7669C24.4195 33.7669 27.5723 32.4753 30.1556 29.8919C32.7389 27.3086 34.0306 24.1558 34.0306 20.4336C34.0306 16.7114 32.7389 13.5586 30.1556 10.9753C27.5723 8.39193 24.4195 7.10026 20.6973 7.10026C16.975 7.10026 13.8223 8.39193 11.2389 10.9753C8.6556 13.5586 7.36393 16.7114 7.36393 20.4336C7.36393 24.1558 8.6556 27.3086 11.2389 29.8919C13.8223 32.4753 16.975 33.7669 20.6973 33.7669Z" fill="#1C1B1F"/>
</g>
</svg>
