<svg width="13" height="20" viewBox="0 0 13 20" fill="none" xmlns="http://www.w3.org/2000/svg">
<path d="M5.2441 19.2695V17.6628C1.92767 17.3744 0.176758 15.4999 0.176758 12.8015H3.41079C3.43139 14.3052 4.27595 15.2733 6.27405 15.2733C7.79837 15.2733 8.80772 14.6966 8.80772 13.4606C8.80772 11.9981 8.00436 11.6685 5.51189 11.2565C2.46324 10.721 0.465143 9.67042 0.465143 6.88956C0.465143 4.31469 2.25725 2.62557 5.2441 2.35779V0.730469H7.07741V2.35779C9.92007 2.66677 11.671 4.37649 11.6916 6.78656H8.47814C8.41634 5.32404 7.36579 4.70607 6.04746 4.70607C4.64673 4.70607 3.78158 5.40643 3.78158 6.47758C3.78158 7.83711 4.68793 8.0431 7.13921 8.47568C9.61108 8.88766 12.1242 9.52623 12.1242 13.1722C12.1242 15.6235 10.4144 17.395 7.07741 17.6628V19.2695H5.2441Z" fill="black"/>
</svg>
