<svg width="182" height="47" viewBox="0 0 182 47" fill="none" xmlns="http://www.w3.org/2000/svg">
<path d="M71.8278 35.7702C65.6678 35.7702 61.8278 31.4902 61.8278 24.9702C61.8278 18.4102 65.5878 14.0902 71.6678 14.0902C78.4278 14.0902 81.7078 19.0502 81.0678 25.4902H65.0278C65.1478 30.3302 67.7878 33.0902 71.8278 33.0902C74.9878 33.0902 77.3078 31.5302 77.8678 29.0502H80.9878C80.3878 33.0902 76.6278 35.7702 71.8278 35.7702ZM71.6278 16.7302C67.9878 16.7302 65.5078 19.0902 65.1078 22.9702H77.9078C77.7878 18.5302 75.1078 16.7302 71.6278 16.7302ZM92.3194 35.7702C87.1594 35.7702 83.6794 31.8102 83.6794 24.8902C83.6794 17.9702 87.1594 14.0502 92.3194 14.0502C95.9994 14.0502 98.7194 15.9302 99.7594 18.7702H99.9594V6.25015H103.199L103.159 35.4102H100.079L99.9594 31.0102H99.7594C98.7194 33.8502 95.9994 35.7702 92.3194 35.7702ZM93.3994 33.0502C97.5994 33.0502 99.9194 29.6902 99.9194 26.1702V23.6102C99.9194 20.0902 97.5994 16.7302 93.3994 16.7302C89.5594 16.7302 86.9994 19.5702 86.9994 24.8902C86.9994 30.1702 89.5594 33.0502 93.3994 33.0502ZM108.261 10.9302V6.25015H111.501V10.9302H108.261ZM108.261 35.4102V14.4102H111.501V35.4102H108.261ZM124.118 35.8102C118.518 35.8102 115.398 33.0102 115.398 28.8502H118.638C118.638 32.0102 120.918 33.4102 124.198 33.4102C127.558 33.4102 129.358 32.1302 129.358 29.8902C129.358 27.3302 127.758 26.6502 123.918 26.0902C119.078 25.3702 115.998 24.2502 115.998 20.1302C115.998 16.3302 119.238 14.0102 124.118 14.0102C129.198 14.0102 132.198 16.4902 132.238 20.5702H129.078C128.998 17.6502 127.078 16.4102 124.078 16.4102C120.958 16.4102 119.238 17.7702 119.238 19.8102C119.238 22.1302 120.998 22.8902 124.798 23.4102C129.198 24.0102 132.678 25.0102 132.678 29.6102C132.678 33.7302 129.358 35.8102 124.118 35.8102ZM145.605 35.7702C139.525 35.7702 135.445 31.4902 135.445 24.9702C135.445 18.5302 139.405 14.0902 145.605 14.0902C151.645 14.0902 155.685 18.3302 155.685 24.9302C155.685 31.3302 151.765 35.7702 145.605 35.7702ZM145.605 32.9702C149.685 32.9702 152.405 30.0102 152.405 24.9302C152.405 19.8902 149.805 16.8102 145.605 16.8102C141.525 16.8102 138.765 19.8102 138.765 24.9702C138.765 29.9302 141.405 32.9702 145.605 32.9702ZM159.284 35.4102V14.4102H162.364L162.484 18.7702H162.724C164.004 15.6902 166.884 14.0902 170.044 14.0902C174.404 14.0902 177.604 16.5702 177.604 23.0502V35.4102H174.364V23.6902C174.364 18.9702 172.644 16.8102 169.004 16.8102C165.044 16.8102 162.484 19.9302 162.484 24.0502V35.4102H159.284Z" fill="#666666"/>
<circle cx="23.3063" cy="23.2164" r="21.8063" fill="#666666" stroke="#666666" stroke-width="2"/>
<path d="M20.9561 35.4237V35.9237H21.4561H25.0681H25.5681V35.4237V30.6937V30.656L25.5625 30.6188L24.8894 26.1769L28.4602 28.9392L28.4841 28.9577L28.5102 28.9732L32.5522 31.3812L32.9857 31.6395L33.24 31.2036L35.046 28.1076L35.2956 27.6797L34.87 27.4261L30.828 25.0181L30.7943 24.998L30.7578 24.9834L26.7348 23.3742L30.7644 21.6952L30.792 21.6837L30.8181 21.669L34.7741 19.433L35.2062 19.1887L34.9652 18.7549L33.2452 15.6589L33.0028 15.2226L32.5661 15.4642L28.5241 17.7002L28.4905 17.7187L28.4602 17.7422L24.8894 20.5045L25.5625 16.0626L25.5681 16.0253V15.9877V11.4297V10.9297H25.0681H21.4561H20.9561V11.4297V15.9877V16.0291L20.9629 16.0699L21.6992 20.4878L18.15 17.7422L18.1197 17.7187L18.0861 17.7002L14.0441 15.4642L13.6074 15.2226L13.365 15.6589L11.645 18.7549L11.404 19.1887L11.8361 19.433L15.7921 21.669L15.8194 21.6844L15.8485 21.6963L19.9425 23.3742L15.855 24.9824L15.8172 24.9973L15.7822 25.0181L11.7402 27.4261L11.3146 27.6797L11.5642 28.1076L13.3702 31.2036L13.6245 31.6395L14.058 31.3812L18.1 28.9732L18.126 28.9577L18.15 28.9392L21.6992 26.1936L20.9629 30.6115L20.9561 30.6523V30.6937V35.4237Z" fill="#D9D9D9" stroke="#D9D9D9"/>
</svg>
