<svg width="468" height="301" viewBox="0 0 468 301" fill="none" xmlns="http://www.w3.org/2000/svg">
<rect x="181.244" y="0.53125" width="231.61" height="45" rx="22.5" fill="black"/>
<rect x="70.3574" y="98.9258" width="255.48" height="45" rx="22.5" fill="white"/>
<rect x="70.3574" y="153.926" width="271.213" height="45" rx="22.5" fill="white"/>
<rect x="70.3574" y="208.5" width="397.496" height="91.7656" rx="20" fill="white"/>
<rect x="158.143" y="236.84" width="221.926" height="11.7423" rx="5.87116" fill="#DADADA"/>
<rect x="158.143" y="258.047" width="159.461" height="11.7423" rx="5.87116" fill="#DADADA"/>
<rect x="423.354" y="1.03125" width="44" height="44" rx="22" stroke="black"/>
<path d="M445.354 20.4512C448.207 20.4512 450.52 18.1387 450.52 15.2861C450.52 12.4336 448.207 10.1211 445.354 10.1211C442.502 10.1211 440.189 12.4336 440.189 15.2861C440.189 18.1387 442.502 20.4512 445.354 20.4512Z" stroke="#1C274C"/>
<path d="M455.684 30.1349C455.684 33.3441 455.684 35.9456 445.354 35.9456C435.023 35.9456 435.023 33.3441 435.023 30.1349C435.023 26.9257 439.648 24.3242 445.354 24.3242C451.059 24.3242 455.684 26.9257 455.684 30.1349Z" stroke="#1C274C"/>
<path d="M213.33 28.2807C210.226 28.2807 208.722 26.7287 208.69 24.4887H210.482C210.514 25.9767 211.378 26.9047 213.362 26.9047C214.994 26.9047 216.082 26.3127 216.082 25.0807C216.082 23.6887 215.298 23.3047 213.01 22.9207C210.338 22.4567 208.962 21.6727 208.962 19.6727C208.962 17.6247 210.578 16.3447 213.25 16.3447C215.922 16.3447 217.49 17.7047 217.522 19.7527H215.746C215.698 18.3607 214.69 17.6887 213.186 17.6887C211.65 17.6887 210.77 18.3767 210.77 19.4327C210.77 20.7287 211.65 20.9847 213.89 21.3847C215.954 21.7207 217.89 22.2327 217.89 24.9207C217.89 26.9207 216.306 28.2807 213.33 28.2807ZM220.695 28.1367L218.535 19.6727H220.231L221.895 26.4887H221.975L223.543 19.6727H225.367L226.983 26.5047H227.031L228.695 19.6727H230.311L228.151 28.1367H225.991L224.423 21.7687H224.359L222.839 28.1367H220.695ZM234.362 28.2807C232.298 28.2807 230.906 26.7287 230.906 23.8967C230.906 21.0647 232.298 19.5287 234.362 19.5287C235.786 19.5287 236.842 20.2487 237.242 21.3367H237.338L237.402 19.6727H238.986V28.1367H237.338V26.4567H237.242C236.842 27.5447 235.786 28.2807 234.362 28.2807ZM234.938 26.9207C236.506 26.9207 237.322 25.6887 237.322 24.3767V23.4167C237.322 22.1207 236.506 20.8727 234.938 20.8727C233.53 20.8727 232.602 21.8967 232.602 23.8967C232.602 25.8807 233.53 26.9207 234.938 26.9207ZM241.295 30.8087V19.6727H242.879L242.943 21.3367H243.039C243.455 20.2647 244.511 19.5287 245.919 19.5287C247.983 19.5287 249.375 21.0807 249.375 23.9127C249.375 26.7447 247.983 28.2807 245.919 28.2807C244.511 28.2807 243.455 27.5607 243.039 26.4727H242.943V30.8087H241.295ZM245.343 26.9207C246.751 26.9207 247.695 25.8967 247.695 23.9127C247.695 21.9127 246.751 20.8887 245.343 20.8887C243.775 20.8887 242.959 22.1207 242.959 23.4327V24.3767C242.959 25.6887 243.775 26.9207 245.343 26.9207ZM258.317 28.2647C255.741 28.2647 254.109 26.1047 254.109 22.3447C254.109 18.5207 255.805 16.4727 258.333 16.4727C260.877 16.4727 262.477 18.6167 262.477 22.3607C262.477 26.2007 260.797 28.2647 258.317 28.2647ZM258.301 26.8567C259.869 26.8567 260.829 25.5287 260.829 22.3607C260.829 19.1927 259.869 17.8647 258.301 17.8647C256.733 17.8647 255.773 19.1767 255.773 22.3607C255.773 25.5287 256.733 26.8567 258.301 26.8567ZM263.929 28.1367V26.4567H265.577V28.1367H263.929ZM271.239 28.2807C268.839 28.2807 267.303 26.8087 267.287 24.6167H268.935C268.935 25.9447 269.847 26.8247 271.255 26.8247C272.775 26.8247 273.655 25.8167 273.655 24.3607C273.655 22.7927 272.711 21.8327 271.271 21.8327C270.167 21.8327 269.399 22.3767 269.079 23.1447H267.511L267.783 16.6007H274.743V18.0407H269.239L269.079 21.4647L269.175 21.4967C269.639 20.8567 270.567 20.4407 271.607 20.4407C273.895 20.4407 275.351 22.0247 275.351 24.2967C275.351 26.6807 273.751 28.2807 271.239 28.2807ZM281.144 28.1367V16.4727H289.288V17.9767H282.888V21.7207H288.648V23.1607H282.888V28.1367H281.144ZM295.832 28.2807C292.84 28.2807 291.064 26.5687 291.064 23.8167V16.4727H292.808V23.7847C292.808 25.7367 293.96 26.7127 295.848 26.7127C297.896 26.7127 298.888 25.5927 298.888 23.7847V16.4727H300.616V23.8167C300.616 26.5687 298.824 28.2807 295.832 28.2807ZM307.251 28.2807C304.147 28.2807 302.643 26.7287 302.611 24.4887H304.403C304.435 25.9767 305.299 26.9047 307.283 26.9047C308.915 26.9047 310.003 26.3127 310.003 25.0807C310.003 23.6887 309.219 23.3047 306.931 22.9207C304.259 22.4567 302.883 21.6727 302.883 19.6727C302.883 17.6247 304.499 16.3447 307.171 16.3447C309.843 16.3447 311.411 17.7047 311.443 19.7527H309.667C309.619 18.3607 308.611 17.6887 307.107 17.6887C305.571 17.6887 304.691 18.3767 304.691 19.4327C304.691 20.7287 305.571 20.9847 307.811 21.3847C309.875 21.7207 311.811 22.2327 311.811 24.9207C311.811 26.9207 310.227 28.2807 307.251 28.2807ZM313.926 28.1367V16.4727H322.102V17.9767H315.67V21.4807H321.318V22.8887H315.67V26.6167H322.118V28.1367H313.926ZM330.07 28.1367C328.678 28.1367 328.246 27.5127 328.246 26.3767V21.0167H326.646V19.6727H328.246V17.2247L329.894 17.0327V19.6727H331.766V21.0167H329.894V26.0727C329.894 26.6327 330.086 26.7767 330.614 26.7767H331.766V28.1367H330.07ZM336.738 28.2807C334.258 28.2807 332.594 26.5847 332.594 23.9287C332.594 21.3207 334.178 19.5447 336.738 19.5447C339.202 19.5447 340.866 21.2247 340.866 23.9127C340.866 26.5047 339.282 28.2807 336.738 28.2807ZM336.738 26.9047C338.21 26.9047 339.186 25.8327 339.186 23.9127C339.186 22.0087 338.258 20.9047 336.738 20.9047C335.266 20.9047 334.274 21.9767 334.274 23.9287C334.274 25.8167 335.234 26.9047 336.738 26.9047ZM351.098 28.2807C348.106 28.2807 346.33 26.5687 346.33 23.8167V16.4727H348.074V23.7847C348.074 25.7367 349.226 26.7127 351.114 26.7127C353.162 26.7127 354.154 25.5927 354.154 23.7847V16.4727H355.882V23.8167C355.882 26.5687 354.09 28.2807 351.098 28.2807ZM362.517 28.2807C359.413 28.2807 357.909 26.7287 357.877 24.4887H359.669C359.701 25.9767 360.565 26.9047 362.549 26.9047C364.181 26.9047 365.269 26.3127 365.269 25.0807C365.269 23.6887 364.485 23.3047 362.197 22.9207C359.525 22.4567 358.149 21.6727 358.149 19.6727C358.149 17.6247 359.765 16.3447 362.437 16.3447C365.109 16.3447 366.677 17.7047 366.709 19.7527H364.933C364.885 18.3607 363.877 17.6887 362.373 17.6887C360.837 17.6887 359.957 18.3767 359.957 19.4327C359.957 20.7287 360.837 20.9847 363.077 21.3847C365.141 21.7207 367.077 22.2327 367.077 24.9207C367.077 26.9207 365.493 28.2807 362.517 28.2807ZM369.191 28.1367V16.4727H373.911C377.271 16.4727 379.191 18.8087 379.191 22.3127C379.191 25.8167 377.271 28.1367 373.911 28.1367H369.191ZM370.935 26.6327H373.655C375.911 26.6327 377.399 25.2407 377.399 22.2807C377.399 19.3207 375.895 17.9767 373.655 17.9767H370.935V26.6327ZM386.416 28.2807C382.976 28.2807 380.704 25.9927 380.704 22.3127C380.704 18.6167 382.992 16.3447 386.416 16.3447C389.296 16.3447 391.36 17.9287 391.712 20.3767H389.952C389.632 18.8887 388.32 17.8487 386.416 17.8487C384 17.8487 382.496 19.4647 382.496 22.3127C382.496 25.1447 384 26.7767 386.416 26.7767C388.304 26.7767 389.664 25.7527 389.952 24.1847L391.712 24.2007C391.408 26.6647 389.296 28.2807 386.416 28.2807Z" fill="white"/>
<path d="M123.624 126.426V116.602H120.072V114.762H129.352V116.602H125.736V126.426H123.624ZM130.547 126.426V117.914H132.355L132.451 119.338H132.515C132.899 118.25 133.827 117.802 134.931 117.802H135.427V119.69C135.299 119.69 135.107 119.674 134.899 119.674C133.347 119.674 132.611 120.442 132.547 121.77V126.426H130.547ZM139.427 126.57C137.379 126.57 136.003 125.05 136.003 122.17C136.003 119.274 137.379 117.754 139.427 117.754C140.803 117.754 141.827 118.442 142.243 119.482H142.355L142.435 117.914H144.355V126.426H142.355V124.842H142.243C141.827 125.882 140.803 126.57 139.427 126.57ZM140.179 124.938C141.603 124.938 142.323 123.802 142.323 122.602V121.722C142.323 120.506 141.603 119.386 140.179 119.386C138.899 119.386 138.035 120.298 138.035 122.17C138.035 124.026 138.899 124.938 140.179 124.938ZM146.5 126.426V117.914H148.42L148.5 119.53H148.596C149.076 118.362 150.164 117.754 151.396 117.754C153.124 117.754 154.42 118.746 154.42 121.322V126.426H152.42V121.754C152.42 120.154 151.876 119.402 150.628 119.402C149.284 119.402 148.5 120.458 148.5 121.738V126.426H146.5ZM159.796 126.586C157.38 126.586 156.02 125.45 156.036 123.754H158.004C158.02 124.778 158.788 125.21 159.844 125.21C160.932 125.21 161.508 124.81 161.508 124.122C161.508 123.258 160.932 123.098 159.604 122.906C157.684 122.634 156.26 122.186 156.26 120.378C156.26 118.666 157.7 117.754 159.844 117.754C161.988 117.754 163.316 118.746 163.348 120.426H161.396C161.38 119.562 160.756 119.13 159.796 119.13C158.788 119.13 158.26 119.546 158.26 120.17C158.26 120.906 158.868 121.146 160.212 121.322C161.988 121.562 163.524 121.93 163.524 123.93C163.524 125.738 162.1 126.586 159.796 126.586ZM168.193 126.57C166.145 126.57 164.769 125.05 164.769 122.17C164.769 119.274 166.145 117.754 168.193 117.754C169.569 117.754 170.593 118.442 171.009 119.482H171.121L171.201 117.914H173.121V126.426H171.121V124.842H171.009C170.593 125.882 169.569 126.57 168.193 126.57ZM168.945 124.938C170.369 124.938 171.089 123.802 171.089 122.602V121.722C171.089 120.506 170.369 119.386 168.945 119.386C167.665 119.386 166.801 120.298 166.801 122.17C166.801 124.026 167.665 124.938 168.945 124.938ZM178.82 126.57C176.292 126.57 174.644 124.826 174.644 122.17C174.644 119.514 176.308 117.754 178.884 117.754C181.028 117.754 182.564 119.05 182.676 120.922H180.724C180.548 119.93 179.796 119.402 178.836 119.402C177.428 119.402 176.66 120.506 176.66 122.17C176.66 123.978 177.524 124.922 178.82 124.922C179.924 124.922 180.644 124.282 180.756 123.338H182.708C182.58 125.306 180.996 126.57 178.82 126.57ZM186.905 126.426C185.321 126.426 184.889 125.706 184.889 124.49V119.53H183.321V117.914H184.889V115.514L186.873 115.306V117.914H188.681V119.53H186.873V124.122C186.873 124.666 187.097 124.794 187.593 124.794H188.681V126.426H186.905ZM190.218 116.714V114.762H192.218V116.714H190.218ZM190.218 126.426V117.914H192.218V126.426H190.218ZM198.071 126.57C195.543 126.57 193.847 124.906 193.847 122.17C193.847 119.546 195.431 117.754 198.071 117.754C200.583 117.754 202.263 119.434 202.263 122.17C202.263 124.794 200.695 126.57 198.071 126.57ZM198.055 124.922C199.367 124.922 200.247 123.994 200.247 122.17C200.247 120.362 199.399 119.402 198.071 119.402C196.743 119.402 195.863 120.346 195.863 122.17C195.863 123.962 196.711 124.922 198.055 124.922ZM203.875 126.426V117.914H205.795L205.875 119.53H205.971C206.451 118.362 207.539 117.754 208.771 117.754C210.499 117.754 211.795 118.746 211.795 121.322V126.426H209.795V121.754C209.795 120.154 209.251 119.402 208.003 119.402C206.659 119.402 205.875 120.458 205.875 121.738V126.426H203.875ZM220.655 126.586C218.239 126.586 216.879 125.45 216.895 123.754H218.863C218.879 124.778 219.647 125.21 220.703 125.21C221.791 125.21 222.367 124.81 222.367 124.122C222.367 123.258 221.791 123.098 220.463 122.906C218.543 122.634 217.119 122.186 217.119 120.378C217.119 118.666 218.559 117.754 220.703 117.754C222.847 117.754 224.175 118.746 224.207 120.426H222.255C222.239 119.562 221.615 119.13 220.655 119.13C219.647 119.13 219.119 119.546 219.119 120.17C219.119 120.906 219.727 121.146 221.071 121.322C222.847 121.562 224.383 121.93 224.383 123.93C224.383 125.738 222.959 126.586 220.655 126.586ZM229.069 126.57C227.117 126.57 226.013 125.402 226.013 123.194V117.914H228.013V122.666C228.013 124.122 228.541 124.938 229.837 124.938C231.133 124.938 231.933 123.898 231.933 122.554V117.914H233.933V126.426H232.013L231.933 124.778H231.837C231.405 125.93 230.333 126.57 229.069 126.57ZM239.554 126.57C237.026 126.57 235.378 124.826 235.378 122.17C235.378 119.514 237.042 117.754 239.618 117.754C241.762 117.754 243.298 119.05 243.41 120.922H241.458C241.282 119.93 240.53 119.402 239.57 119.402C238.162 119.402 237.394 120.506 237.394 122.17C237.394 123.978 238.258 124.922 239.554 124.922C240.658 124.922 241.378 124.282 241.49 123.338H243.442C243.314 125.306 241.73 126.57 239.554 126.57ZM248.648 126.57C246.12 126.57 244.472 124.826 244.472 122.17C244.472 119.514 246.136 117.754 248.712 117.754C250.856 117.754 252.392 119.05 252.504 120.922H250.552C250.376 119.93 249.624 119.402 248.664 119.402C247.256 119.402 246.488 120.506 246.488 122.17C246.488 123.978 247.352 124.922 248.648 124.922C249.752 124.922 250.472 124.282 250.584 123.338H252.536C252.408 125.306 250.824 126.57 248.648 126.57ZM257.741 126.57C255.133 126.57 253.565 124.842 253.565 122.218C253.565 119.498 255.165 117.754 257.661 117.754C260.557 117.754 261.933 119.834 261.645 122.602H255.533C255.533 124.154 256.413 125.034 257.741 125.034C258.765 125.034 259.517 124.538 259.709 123.77H261.613C261.373 125.45 259.821 126.57 257.741 126.57ZM257.661 119.29C256.461 119.29 255.677 120.042 255.549 121.258H259.693C259.629 119.914 258.781 119.29 257.661 119.29ZM266.609 126.586C264.193 126.586 262.833 125.45 262.849 123.754H264.817C264.833 124.778 265.601 125.21 266.657 125.21C267.745 125.21 268.321 124.81 268.321 124.122C268.321 123.258 267.745 123.098 266.417 122.906C264.497 122.634 263.073 122.186 263.073 120.378C263.073 118.666 264.513 117.754 266.657 117.754C268.801 117.754 270.129 118.746 270.161 120.426H268.209C268.193 119.562 267.569 119.13 266.609 119.13C265.601 119.13 265.073 119.546 265.073 120.17C265.073 120.906 265.681 121.146 267.025 121.322C268.801 121.562 270.337 121.93 270.337 123.93C270.337 125.738 268.913 126.586 266.609 126.586ZM275.359 126.586C272.943 126.586 271.583 125.45 271.599 123.754H273.567C273.583 124.778 274.351 125.21 275.407 125.21C276.495 125.21 277.071 124.81 277.071 124.122C277.071 123.258 276.495 123.098 275.167 122.906C273.247 122.634 271.823 122.186 271.823 120.378C271.823 118.666 273.263 117.754 275.407 117.754C277.551 117.754 278.879 118.746 278.911 120.426H276.959C276.943 119.562 276.319 119.13 275.359 119.13C274.351 119.13 273.823 119.546 273.823 120.17C273.823 120.906 274.431 121.146 275.775 121.322C277.551 121.562 279.087 121.93 279.087 123.93C279.087 125.738 277.663 126.586 275.359 126.586ZM281.453 126.426V119.53H279.981V117.914H281.453V116.826C281.453 115.482 282.317 114.762 283.789 114.762H285.405V116.154H284.349C283.645 116.154 283.453 116.49 283.453 116.986V117.914H285.245V119.53H283.453V126.426H281.453ZM289.569 126.57C287.617 126.57 286.513 125.402 286.513 123.194V117.914H288.513V122.666C288.513 124.122 289.041 124.938 290.337 124.938C291.633 124.938 292.433 123.898 292.433 122.554V117.914H294.433V126.426H292.513L292.433 124.778H292.337C291.905 125.93 290.833 126.57 289.569 126.57ZM296.5 126.426V114.762H298.5V126.426H296.5ZM301.232 123.034L300.72 118.586V114.762H302.768V118.586L302.272 123.034H301.232ZM300.816 126.426V124.474H302.672V126.426H300.816Z" fill="black"/>
<path d="M97.0786 182.426V177.914L92.7586 170.762H95.1746L98.0866 175.85H98.1986L101.143 170.762H103.543L99.1906 177.914V182.426H97.0786ZM106.557 182.57C104.029 182.57 102.333 180.906 102.333 178.17C102.333 175.546 103.917 173.754 106.557 173.754C109.069 173.754 110.749 175.434 110.749 178.17C110.749 180.794 109.181 182.57 106.557 182.57ZM106.541 180.922C107.853 180.922 108.733 179.994 108.733 178.17C108.733 176.362 107.885 175.402 106.557 175.402C105.229 175.402 104.349 176.346 104.349 178.17C104.349 179.962 105.197 180.922 106.541 180.922ZM115.337 182.57C113.385 182.57 112.281 181.402 112.281 179.194V173.914H114.281V178.666C114.281 180.122 114.809 180.938 116.105 180.938C117.401 180.938 118.201 179.898 118.201 178.554V173.914H120.201V182.426H118.281L118.201 180.778H118.105C117.673 181.93 116.601 182.57 115.337 182.57ZM122.267 182.426V173.914H124.075L124.171 175.338H124.235C124.619 174.25 125.547 173.802 126.651 173.802H127.147V175.69C127.019 175.69 126.827 175.674 126.619 175.674C125.067 175.674 124.331 176.442 124.267 177.77V182.426H122.267ZM133.059 182.426L130.963 173.914H133.011L134.515 180.426H134.595L136.003 173.914H138.195L139.603 180.442H139.667L141.155 173.914H143.139L141.027 182.426H138.419L137.043 176.458H136.963L135.635 182.426H133.059ZM147.116 182.57C145.068 182.57 143.692 181.05 143.692 178.17C143.692 175.274 145.068 173.754 147.116 173.754C148.492 173.754 149.516 174.442 149.932 175.482H150.044L150.124 173.914H152.044V182.426H150.044V180.842H149.932C149.516 181.882 148.492 182.57 147.116 182.57ZM147.868 180.938C149.292 180.938 150.012 179.802 150.012 178.602V177.722C150.012 176.506 149.292 175.386 147.868 175.386C146.588 175.386 145.724 176.298 145.724 178.17C145.724 180.026 146.588 180.938 147.868 180.938ZM154.189 182.426V170.762H156.189V182.426H154.189ZM158.345 182.426V170.762H160.345V182.426H158.345ZM166.15 182.57C163.542 182.57 161.974 180.842 161.974 178.218C161.974 175.498 163.574 173.754 166.07 173.754C168.966 173.754 170.342 175.834 170.054 178.602H163.942C163.942 180.154 164.822 181.034 166.15 181.034C167.174 181.034 167.926 180.538 168.118 179.77H170.022C169.782 181.45 168.23 182.57 166.15 182.57ZM166.07 175.29C164.87 175.29 164.086 176.042 163.958 177.258H168.102C168.038 175.914 167.19 175.29 166.07 175.29ZM174.345 182.426C172.761 182.426 172.329 181.706 172.329 180.49V175.53H170.761V173.914H172.329V171.514L174.313 171.306V173.914H176.121V175.53H174.313V180.122C174.313 180.666 174.537 180.794 175.033 180.794H176.121V182.426H174.345ZM181.142 182.426V173.914H182.95L183.046 175.338H183.11C183.494 174.25 184.422 173.802 185.526 173.802H186.022V175.69C185.894 175.69 185.702 175.674 185.494 175.674C183.942 175.674 183.206 176.442 183.142 177.77V182.426H181.142ZM190.775 182.57C188.167 182.57 186.599 180.842 186.599 178.218C186.599 175.498 188.199 173.754 190.695 173.754C193.591 173.754 194.967 175.834 194.679 178.602H188.567C188.567 180.154 189.447 181.034 190.775 181.034C191.799 181.034 192.551 180.538 192.743 179.77H194.647C194.407 181.45 192.855 182.57 190.775 182.57ZM190.695 175.29C189.495 175.29 188.711 176.042 188.583 177.258H192.727C192.663 175.914 191.815 175.29 190.695 175.29ZM200.134 182.57C197.606 182.57 195.958 180.826 195.958 178.17C195.958 175.514 197.622 173.754 200.198 173.754C202.342 173.754 203.878 175.05 203.99 176.922H202.038C201.862 175.93 201.11 175.402 200.15 175.402C198.742 175.402 197.974 176.506 197.974 178.17C197.974 179.978 198.838 180.922 200.134 180.922C201.238 180.922 201.958 180.282 202.07 179.338H204.022C203.894 181.306 202.31 182.57 200.134 182.57ZM209.228 182.57C206.62 182.57 205.052 180.842 205.052 178.218C205.052 175.498 206.652 173.754 209.148 173.754C212.044 173.754 213.42 175.834 213.132 178.602H207.02C207.02 180.154 207.9 181.034 209.228 181.034C210.252 181.034 211.004 180.538 211.196 179.77H213.1C212.86 181.45 211.308 182.57 209.228 182.57ZM209.148 175.29C207.948 175.29 207.164 176.042 207.036 177.258H211.18C211.116 175.914 210.268 175.29 209.148 175.29ZM214.783 172.714V170.762H216.783V172.714H214.783ZM214.783 182.426V173.914H216.783V182.426H214.783ZM220.811 182.426L217.835 173.898H219.995L221.483 178.794L222.011 180.746H222.075L222.603 178.81L224.091 173.898H226.251L223.291 182.426H220.811ZM230.712 182.57C228.104 182.57 226.536 180.842 226.536 178.218C226.536 175.498 228.136 173.754 230.632 173.754C233.528 173.754 234.904 175.834 234.616 178.602H228.504C228.504 180.154 229.384 181.034 230.712 181.034C231.736 181.034 232.488 180.538 232.68 179.77H234.584C234.344 181.45 232.792 182.57 230.712 182.57ZM230.632 175.29C229.432 175.29 228.648 176.042 228.52 177.258H232.664C232.6 175.914 231.752 175.29 230.632 175.29ZM239.32 182.57C237.272 182.57 235.896 181.05 235.896 178.17C235.896 175.274 237.272 173.754 239.32 173.754C240.696 173.754 241.72 174.442 242.136 175.482H242.248V170.762H244.248L244.232 182.426H242.312L242.248 180.842H242.136C241.72 181.882 240.696 182.57 239.32 182.57ZM240.072 180.938C241.496 180.938 242.216 179.802 242.216 178.602V177.722C242.216 176.506 241.496 175.386 240.072 175.386C238.792 175.386 237.928 176.298 237.928 178.17C237.928 180.026 238.792 180.938 240.072 180.938ZM253.461 182.57C250.933 182.57 249.413 181.082 249.381 178.858H251.365C251.349 180.058 252.181 180.858 253.461 180.858C254.741 180.858 255.573 180.138 255.573 178.986C255.573 177.85 254.805 177.274 253.701 177.274H252.341V175.754H253.557C254.757 175.754 255.397 175.05 255.397 174.09C255.397 173.05 254.645 172.458 253.493 172.458C252.229 172.458 251.477 173.226 251.461 174.41H249.477C249.493 172.186 251.093 170.746 253.573 170.746C255.909 170.746 257.445 171.946 257.445 173.818C257.445 175.082 256.757 176.042 255.717 176.41V176.49C256.933 176.794 257.621 177.834 257.621 179.162C257.621 181.21 255.925 182.57 253.461 182.57ZM259.278 182.426V180.506H261.214V182.426H259.278ZM266.919 182.57C264.471 182.57 262.871 181.098 262.839 178.922H264.855C264.871 180.058 265.687 180.826 266.935 180.826C268.295 180.826 269.095 179.914 269.095 178.618C269.095 177.242 268.263 176.362 266.935 176.362C265.943 176.362 265.255 176.874 264.967 177.578H263.079L263.367 170.89H270.487V172.634H265.127L264.999 175.546L265.079 175.578C265.543 175.05 266.423 174.698 267.367 174.698C269.687 174.698 271.127 176.298 271.127 178.57C271.127 180.97 269.511 182.57 266.919 182.57ZM281.51 182.57C278.438 182.57 276.646 180.826 276.646 178.042V170.762H278.742V178.026C278.742 179.802 279.798 180.682 281.526 180.682C283.35 180.682 284.294 179.674 284.294 178.026V170.762H286.39V178.042C286.39 180.874 284.534 182.57 281.51 182.57ZM292.945 182.57C289.825 182.57 288.241 181.018 288.225 178.778H290.385C290.417 180.09 291.201 180.938 293.025 180.938C294.481 180.938 295.425 180.41 295.425 179.322C295.425 178.074 294.737 177.754 292.529 177.386C289.857 176.954 288.481 176.074 288.481 174.058C288.481 171.946 290.145 170.618 292.913 170.618C295.617 170.618 297.249 171.994 297.265 174.058H295.137C295.073 172.794 294.129 172.234 292.833 172.234C291.489 172.234 290.673 172.842 290.673 173.786C290.673 174.97 291.521 175.178 293.649 175.53C295.665 175.866 297.633 176.378 297.633 179.114C297.633 181.162 296.033 182.57 292.945 182.57ZM299.633 182.426V170.762H304.465C307.889 170.762 309.793 173.098 309.793 176.602C309.793 180.09 307.873 182.426 304.465 182.426H299.633ZM301.745 180.602H304.145C306.209 180.602 307.633 179.45 307.633 176.554C307.633 173.706 306.209 172.57 304.145 172.57H301.745V180.602ZM317.001 182.57C313.529 182.57 311.209 180.33 311.209 176.586C311.209 172.858 313.529 170.618 317.001 170.618C319.929 170.618 322.041 172.25 322.377 174.73H320.217C319.929 173.386 318.713 172.442 317.001 172.442C314.793 172.442 313.401 173.898 313.401 176.586C313.401 179.306 314.793 180.746 317.001 180.746C318.681 180.746 319.961 179.834 320.217 178.442H322.377C322.073 180.938 319.913 182.57 317.001 182.57Z" fill="black"/>
<g filter="url(#filter0_f_11314_1986)">
<circle cx="37.8574" cy="121.426" r="22.5" fill="url(#paint0_linear_11314_1986)"/>
</g>
<circle cx="37.8574" cy="121.426" r="21.5" fill="black" stroke="black" stroke-width="2"/>
<path d="M35.5341 133.469V133.969H36.0341H39.5976H40.0976V133.469V128.802V128.765L40.092 128.727L39.4305 124.362L42.94 127.077L42.964 127.095L42.9901 127.111L46.9778 129.486L47.4113 129.745L47.6656 129.309L49.4473 126.254L49.6969 125.826L49.2713 125.573L45.2836 123.197L45.2499 123.177L45.2134 123.162L41.2597 121.581L45.22 119.931L45.2477 119.919L45.2737 119.904L49.1766 117.699L49.6087 117.454L49.3677 117.02L47.6708 113.966L47.4284 113.53L46.9916 113.771L43.0039 115.977L42.9704 115.996L42.94 116.019L39.4305 118.734L40.092 114.369L40.0976 114.331V114.294V109.797V109.297H39.5976H36.0341H35.5341V109.797V114.294V114.335L35.5409 114.376L36.2646 118.718L32.7766 116.019L32.7462 115.996L32.7127 115.977L28.7249 113.771L28.2882 113.53L28.0458 113.966L26.3489 117.02L26.1079 117.454L26.54 117.699L30.4429 119.904L30.4702 119.92L30.4993 119.932L34.5229 121.581L30.5058 123.161L30.468 123.176L30.433 123.197L26.4453 125.573L26.0197 125.826L26.2693 126.254L28.051 129.309L28.3053 129.745L28.7388 129.486L32.7265 127.111L32.7526 127.095L32.7766 127.077L36.2646 124.378L35.5409 128.72L35.5341 128.761V128.802V133.469Z" fill="white" stroke="white"/>
<circle cx="98.3184" cy="121.057" r="11.6309" fill="#A2F5AA"/>
<path d="M92.7266 120.713L96.6836 124.67L103.912 117.441" stroke="black" stroke-width="2" stroke-linecap="round"/>
<circle cx="118.211" cy="253.316" r="22.3906" fill="#DADADA"/>
<defs>
<filter id="filter0_f_11314_1986" x="0.357422" y="83.9258" width="75" height="75" filterUnits="userSpaceOnUse" color-interpolation-filters="sRGB">
<feFlood flood-opacity="0" result="BackgroundImageFix"/>
<feBlend mode="normal" in="SourceGraphic" in2="BackgroundImageFix" result="shape"/>
<feGaussianBlur stdDeviation="7.5" result="effect1_foregroundBlur_11314_1986"/>
</filter>
<linearGradient id="paint0_linear_11314_1986" x1="15.3574" y1="98.9258" x2="61.1179" y2="99.7129" gradientUnits="userSpaceOnUse">
<stop stop-color="#49E358"/>
<stop offset="1" stop-color="#41008F"/>
</linearGradient>
</defs>
</svg>
