<svg width="335" height="133" viewBox="0 0 335 133" fill="none" xmlns="http://www.w3.org/2000/svg">
<path d="M140.122 88.2374C129.342 88.2374 122.622 80.7474 122.622 69.3374C122.622 57.8574 129.202 50.2974 139.842 50.2974C151.672 50.2974 157.412 58.9774 156.292 70.2474H128.222C128.432 78.7174 133.052 83.5474 140.122 83.5474C145.652 83.5474 149.712 80.8174 150.692 76.4774H156.152C155.102 83.5474 148.522 88.2374 140.122 88.2374ZM139.772 54.9174C133.402 54.9174 129.062 59.0474 128.362 65.8374H150.762C150.552 58.0674 145.862 54.9174 139.772 54.9174ZM176.732 88.2374C167.702 88.2374 161.612 81.3074 161.612 69.1974C161.612 57.0874 167.702 50.2274 176.732 50.2274C183.172 50.2274 187.932 53.5174 189.752 58.4874H190.102V36.5774H195.772L195.702 87.6074H190.312L190.102 79.9074H189.752C187.932 84.8774 183.172 88.2374 176.732 88.2374ZM178.622 83.4774C185.972 83.4774 190.032 77.5974 190.032 71.4374V66.9574C190.032 60.7974 185.972 54.9174 178.622 54.9174C171.902 54.9174 167.422 59.8874 167.422 69.1974C167.422 78.4374 171.902 83.4774 178.622 83.4774ZM205.38 44.7674V36.5774H211.05V44.7674H205.38ZM205.38 87.6074V50.8574H211.05V87.6074H205.38ZM233.88 88.3074C224.08 88.3074 218.62 83.4074 218.62 76.1274H224.29C224.29 81.6574 228.28 84.1074 234.02 84.1074C239.9 84.1074 243.05 81.8674 243.05 77.9474C243.05 73.4674 240.25 72.2774 233.53 71.2974C225.06 70.0374 219.67 68.0774 219.67 60.8674C219.67 54.2174 225.34 50.1574 233.88 50.1574C242.77 50.1574 248.02 54.4974 248.09 61.6374H242.56C242.42 56.5274 239.06 54.3574 233.81 54.3574C228.35 54.3574 225.34 56.7374 225.34 60.3074C225.34 64.3674 228.42 65.6974 235.07 66.6074C242.77 67.6574 248.86 69.4074 248.86 77.4574C248.86 84.6674 243.05 88.3074 233.88 88.3074ZM272.232 88.2374C261.592 88.2374 254.452 80.7474 254.452 69.3374C254.452 58.0674 261.382 50.2974 272.232 50.2974C282.802 50.2974 289.872 57.7174 289.872 69.2674C289.872 80.4674 283.012 88.2374 272.232 88.2374ZM272.232 83.3374C279.372 83.3374 284.132 78.1574 284.132 69.2674C284.132 60.4474 279.582 55.0574 272.232 55.0574C265.092 55.0574 260.262 60.3074 260.262 69.3374C260.262 78.0174 264.882 83.3374 272.232 83.3374ZM296.921 87.6074V50.8574H302.311L302.521 58.4874H302.941C305.181 53.0974 310.221 50.2974 315.751 50.2974C323.381 50.2974 328.981 54.6374 328.981 65.9774V87.6074H323.311V67.0974C323.311 58.8374 320.301 55.0574 313.931 55.0574C307.001 55.0574 302.521 60.5174 302.521 67.7274V87.6074H296.921Z" fill="black"/>
<g filter="url(#filter0_f_11314_2009)">
<circle cx="67.4114" cy="66.5544" r="36.4333" fill="url(#paint0_linear_11314_2009)"/>
</g>
<circle cx="67.5312" cy="66.7724" r="35.2148" fill="black" stroke="black" stroke-width="2"/>
<path d="M64.0931 86.157V86.657H64.5931H70.3287H70.8287V86.157V78.6461V78.6084L70.8231 78.5712L69.6445 70.7922L75.895 75.6275L75.919 75.6461L75.945 75.6616L82.3634 79.4853L82.797 79.7436L83.0512 79.3077L85.919 74.3915L86.1687 73.9635L85.743 73.71L79.3246 69.8862L79.2909 69.8661L79.2544 69.8515L72.1977 67.0288L79.261 64.0858L79.2887 64.0743L79.3147 64.0595L85.5966 60.5089L86.0287 60.2647L85.7877 59.8308L83.0564 54.9146L82.814 54.4783L82.3773 54.7199L75.9589 58.2705L75.9253 58.2891L75.895 58.3125L69.6445 63.1478L70.8231 55.3688L70.8287 55.3316V55.2939V48.0562V47.5562H70.3287H64.5931H64.0931V48.0562V55.2939V55.3353L64.0999 55.3761L65.3924 63.1312L59.1635 58.3125L59.1331 58.2891L59.0995 58.2705L52.6811 54.7199L52.2444 54.4783L52.002 54.9146L49.2708 59.8308L49.0297 60.2647L49.4618 60.5089L55.7437 64.0595L55.771 64.075L55.8001 64.0869L62.9784 67.0288L55.8066 69.8505L55.7688 69.8654L55.7338 69.8862L49.3154 73.71L48.8898 73.9635L49.1394 74.3915L52.0072 79.3077L52.2615 79.7436L52.695 79.4853L59.1134 75.6616L59.1395 75.6461L59.1635 75.6275L65.3924 70.8089L64.0999 78.5639L64.0931 78.6047V78.6461V86.157Z" fill="#D9D9D9" stroke="#D9D9D9"/>
<defs>
<filter id="filter0_f_11314_2009" x="0.978027" y="0.121094" width="132.867" height="132.867" filterUnits="userSpaceOnUse" color-interpolation-filters="sRGB">
<feFlood flood-opacity="0" result="BackgroundImageFix"/>
<feBlend mode="normal" in="SourceGraphic" in2="BackgroundImageFix" result="shape"/>
<feGaussianBlur stdDeviation="15" result="effect1_foregroundBlur_11314_2009"/>
</filter>
<linearGradient id="paint0_linear_11314_2009" x1="30.978" y1="30.1211" x2="105.076" y2="31.3956" gradientUnits="userSpaceOnUse">
<stop stop-color="#49E358"/>
<stop offset="1" stop-color="#41008F"/>
</linearGradient>
</defs>
</svg>
