<svg width="59" height="59" viewBox="0 0 59 59" fill="none" xmlns="http://www.w3.org/2000/svg">
<rect x="0.277344" y="0.398438" width="58" height="58" rx="29" fill="black"/>
<path d="M37.5154 27.9158L30.7283 21.1287C30.4605 20.8609 30.0264 20.8609 29.7587 21.1287C29.491 21.3964 29.491 21.8305 29.7587 22.0982L35.3775 27.717L19.578 27.7121C19.2005 27.6829 18.8707 27.9653 18.8415 28.3428C18.8123 28.7203 19.0947 29.0501 19.4722 29.0792C19.5074 29.082 19.5428 29.082 19.578 29.0792L35.3774 29.0841L29.7587 34.7029C29.4909 34.9706 29.491 35.4047 29.7587 35.6724C30.0264 35.9402 30.4605 35.9402 30.7283 35.6725L37.5154 28.8854C37.7831 28.6176 37.7831 28.1835 37.5154 27.9158Z" fill="white"/>
</svg>
