<svg width="24" height="31" viewBox="0 0 24 31" fill="none" xmlns="http://www.w3.org/2000/svg">
<path d="M3.22949 25.6353C3.41228 27.0711 4.95965 28.7442 4.95965 28.7442C4.95965 28.7442 6.61722 29.7622 9.10039 29.9329C11.6012 30.1047 13.2961 29.9909 15.5264 29.0643C17.2886 27.0054 17.7295 25.1353 16.7295 22.6353C16.1069 21.0787 14.4605 20.6145 13.9242 18.9735C13.6514 18.1391 13.7653 17.6474 13.7295 16.7791C13.6632 15.1727 13.7295 13.5206 13.7295 13.5206C13.7295 13.5206 11.782 16.4212 9.44647 19.2352C8.0193 20.9547 6.54994 23.9897 6.54994 23.9897L4.4484 21.3381C4.4484 21.3381 3.01824 23.9757 3.22949 25.6353Z" fill="#F65D51"/>
<path d="M15.5264 29.0643C17.6259 27.7738 19.2279 26.7602 20.5164 24.904C21.9892 22.7825 22.3684 21.3372 22.6179 18.9152C22.8349 16.8081 22.7777 15.5521 22.0499 13.5206C21.316 11.472 18.9261 8.67463 18.9261 8.67463L18.0174 11.5548L11.3722 2C11.3722 2 10.8027 5.2123 9.44647 7.63525C8.25807 9.75834 7.64312 9.63525 4.4484 12.6353C1.25368 15.6353 0.730469 18.475 0.730469 22.6353C0.730469 26.7955 4.95965 28.7442 4.95965 28.7442M15.5264 29.0643C17.2886 27.0054 17.7295 25.1353 16.7295 22.6353C16.1069 21.0787 14.4605 20.6145 13.9242 18.9735C13.6514 18.1391 13.7653 17.6474 13.7295 16.7791C13.6632 15.1727 13.7295 13.5206 13.7295 13.5206C13.7295 13.5206 11.782 16.4212 9.44647 19.2352C8.0193 20.9547 6.54994 23.9897 6.54994 23.9897L4.4484 21.3381C4.4484 21.3381 3.01824 23.9757 3.22949 25.6353C3.41228 27.0711 4.95965 28.7442 4.95965 28.7442M15.5264 29.0643C13.2961 29.9909 11.6012 30.1047 9.10039 29.9329C6.61722 29.7622 4.95965 28.7442 4.95965 28.7442" stroke="black"/>
<path d="M18.0174 11.5548L11.3722 2C11.3722 2 10.8027 5.2123 9.44647 7.63525C8.25807 9.75834 7.64312 9.63525 4.4484 12.6353C1.25368 15.6353 0.730469 18.475 0.730469 22.6353C0.730469 26.7955 4.95965 28.7442 4.95965 28.7442C4.95965 28.7442 3.41228 27.0711 3.22949 25.6353C3.01824 23.9757 4.4484 21.3381 4.4484 21.3381L6.54994 23.9897C6.54994 23.9897 8.0193 20.9547 9.44647 19.2352C11.782 16.4212 13.7295 13.5206 13.7295 13.5206C13.7295 13.5206 13.6632 15.1727 13.7295 16.7791C13.7653 17.6474 13.6514 18.1391 13.9242 18.9735C14.4605 20.6145 16.1069 21.0787 16.7295 22.6353C17.7295 25.1353 17.2886 27.0054 15.5264 29.0643C17.6259 27.7738 19.2279 26.7602 20.5164 24.904C21.9892 22.7825 22.3684 21.3372 22.6179 18.9152C22.8349 16.8081 22.7777 15.5521 22.0499 13.5206C21.316 11.472 18.9261 8.67463 18.9261 8.67463L18.0174 11.5548Z" fill="#F5B172"/>
<path d="M15.5264 29.0643C17.6259 27.7738 19.2279 26.7602 20.5164 24.904C21.9892 22.7825 22.3684 21.3372 22.6179 18.9152C22.8349 16.8081 22.7777 15.5521 22.0499 13.5206C21.316 11.472 18.9261 8.67463 18.9261 8.67463L18.0174 11.5548L11.3722 2C11.3722 2 10.8027 5.2123 9.44647 7.63525C8.25807 9.75834 7.64312 9.63525 4.4484 12.6353C1.25368 15.6353 0.730469 18.475 0.730469 22.6353C0.730469 26.7955 4.95965 28.7442 4.95965 28.7442M15.5264 29.0643C17.2886 27.0054 17.7295 25.1353 16.7295 22.6353C16.1069 21.0787 14.4605 20.6145 13.9242 18.9735C13.6514 18.1391 13.7653 17.6474 13.7295 16.7791C13.6632 15.1727 13.7295 13.5206 13.7295 13.5206C13.7295 13.5206 11.782 16.4212 9.44647 19.2352C8.0193 20.9547 6.54994 23.9897 6.54994 23.9897L4.4484 21.3381C4.4484 21.3381 3.01824 23.9757 3.22949 25.6353C3.41228 27.0711 4.95965 28.7442 4.95965 28.7442M15.5264 29.0643C13.2961 29.9909 11.6012 30.1047 9.10039 29.9329C6.61722 29.7622 4.95965 28.7442 4.95965 28.7442" stroke="black"/>
</svg>
