<svg width="222" height="254" viewBox="0 0 222 254" fill="none" xmlns="http://www.w3.org/2000/svg">
<g filter="url(#filter0_bd_8966_2012)">
<path d="M51.9344 17.207C51.9344 17.207 53.618 56.851 38.7718 87.0179C28.2466 108.405 22.4427 120.728 20.9897 141.812C19.6613 161.086 24.567 177.182 33.335 184.926C45.9197 192.674 86.747 217.193 95.947 222.715C84.0096 213.745 78.8154 173.391 97.7999 137.293C117.095 102.738 116.756 52.8485 117.095 55.6337C146.995 63.1577 161.415 71.829 179.648 101.643L188.137 76.4622C172.901 64.048 154.148 55.5719 122.877 38.7901L121.101 49.9266C121.101 49.9266 107.188 44.739 92.8057 34.074C78.4235 23.409 51.9344 17.207 51.9344 17.207Z" fill="#FFC27B" shape-rendering="crispEdges"/>
<path d="M109.881 186.222L151.098 211.062C151.098 211.062 160.842 198.432 166.177 182.902C170.838 169.336 176.694 156.689 168.322 147.453C154.134 135.037 155.915 111.529 155.915 111.529C138.394 135.928 130.091 150.726 119.772 180.426L114.929 171.132C113.102 176.325 111.459 181.074 110.112 185.462C110.034 185.717 109.957 185.97 109.881 186.222Z" fill="#F6A051" fill-opacity="0.8" shape-rendering="crispEdges"/>
<path d="M117.095 55.6337C116.756 52.8485 117.095 102.738 97.7999 137.293C78.8154 173.391 84.0096 213.745 95.947 222.715C97.1389 223.431 97.7999 223.828 97.7999 223.828C105.277 227.658 111.311 229.12 119.938 229.113C105.766 217.081 104.27 204.806 109.881 186.222C109.957 185.97 110.034 185.717 110.112 185.462C111.459 181.074 113.102 176.325 114.929 171.132L119.772 180.426C130.091 150.726 138.394 135.928 155.915 111.529C155.915 111.529 154.134 135.037 168.322 147.453C176.694 156.689 170.838 169.336 166.177 182.902C160.842 198.432 151.098 211.062 151.098 211.062C198.804 162.947 214.755 112.304 188.137 76.4622L179.648 101.643C161.415 71.829 146.995 63.1577 117.095 55.6337Z" fill="#F65D51" shape-rendering="crispEdges"/>
<path d="M97.7999 223.828C105.277 227.658 111.311 229.12 119.938 229.113M97.7999 223.828C97.1667 223.539 96.5483 223.167 95.947 222.715M97.7999 223.828C97.7999 223.828 97.1389 223.431 95.947 222.715M188.137 76.4622L179.648 101.643C161.415 71.829 146.995 63.1577 117.095 55.6337C116.756 52.8485 117.095 102.738 97.7999 137.293C78.8154 173.391 84.0096 213.745 95.947 222.715M188.137 76.4622C214.755 112.304 198.804 162.947 151.098 211.062M188.137 76.4622C172.901 64.048 154.148 55.5719 122.877 38.7901L121.101 49.9266C121.101 49.9266 107.188 44.739 92.8057 34.074C78.4235 23.409 51.9344 17.207 51.9344 17.207C51.9344 17.207 53.618 56.851 38.7718 87.0179C28.2466 108.405 22.4427 120.728 20.9897 141.812C19.6613 161.086 24.567 177.182 33.335 184.926C45.9197 192.674 86.747 217.193 95.947 222.715M151.098 211.062L109.881 186.222M151.098 211.062C151.098 211.062 160.842 198.432 166.177 182.902C170.838 169.336 176.694 156.689 168.322 147.453C154.134 135.037 155.915 111.529 155.915 111.529C138.394 135.928 130.091 150.726 119.772 180.426L114.929 171.132C113.102 176.325 111.459 181.074 110.112 185.462M109.881 186.222C104.27 204.806 105.766 217.081 119.938 229.113M109.881 186.222C109.957 185.97 110.034 185.717 110.112 185.462M119.938 229.113C105.574 216.917 104.275 204.478 110.112 185.462" stroke="black" stroke-width="0.443519" shape-rendering="crispEdges"/>
</g>
<defs>
<filter id="filter0_bd_8966_2012" x="0.552734" y="0.924316" width="220.641" height="252.411" filterUnits="userSpaceOnUse" color-interpolation-filters="sRGB">
<feFlood flood-opacity="0" result="BackgroundImageFix"/>
<feGaussianBlur in="BackgroundImageFix" stdDeviation="3.54815"/>
<feComposite in2="SourceAlpha" operator="in" result="effect1_backgroundBlur_8966_2012"/>
<feColorMatrix in="SourceAlpha" type="matrix" values="0 0 0 0 0 0 0 0 0 0 0 0 0 0 0 0 0 0 127 0" result="hardAlpha"/>
<feOffset dy="4"/>
<feGaussianBlur stdDeviation="10"/>
<feComposite in2="hardAlpha" operator="out"/>
<feColorMatrix type="matrix" values="0 0 0 0 0.7875 0 0 0 0 0.7875 0 0 0 0 0.7875 0 0 0 1 0"/>
<feBlend mode="normal" in2="effect1_backgroundBlur_8966_2012" result="effect2_dropShadow_8966_2012"/>
<feBlend mode="normal" in="SourceGraphic" in2="effect2_dropShadow_8966_2012" result="shape"/>
</filter>
</defs>
</svg>
