<svg width="221" height="254" viewBox="0 0 221 254" fill="none" xmlns="http://www.w3.org/2000/svg">
<g filter="url(#filter0_bd_8966_2012)">
<path d="M51.4627 17C51.4627 17 53.1463 56.644 38.3001 86.8109C27.775 108.198 21.9711 120.521 20.518 141.605C19.1896 160.879 24.0953 176.975 32.8634 184.719C45.448 192.467 86.2754 216.986 95.4753 222.508C83.5379 213.538 78.3438 173.184 97.3283 137.086C116.623 102.531 116.284 52.6415 116.623 55.4267C146.523 62.9507 160.943 71.622 179.177 101.436L187.665 76.2552C172.429 63.841 153.676 55.3649 122.406 38.5831L120.629 49.7195C120.629 49.7195 106.716 44.532 92.334 33.867C77.9519 23.202 51.4627 17 51.4627 17Z" fill="#F6A051" fill-opacity="0.8" shape-rendering="crispEdges"/>
<path d="M109.409 186.015L150.626 210.855C150.626 210.855 160.37 198.225 165.706 182.695C170.367 169.129 176.222 156.482 167.85 147.246C153.662 134.83 155.444 111.322 155.444 111.322C137.923 135.721 129.619 150.518 119.3 180.219L114.458 170.925C112.63 176.118 110.987 180.867 109.64 185.255C109.562 185.51 109.485 185.763 109.409 186.015Z" fill="#F6A051" fill-opacity="0.8" shape-rendering="crispEdges"/>
<path d="M116.623 55.4267C116.284 52.6415 116.623 102.531 97.3283 137.086C78.3438 173.184 83.5379 213.538 95.4753 222.508C96.6672 223.224 97.3283 223.621 97.3283 223.621C104.805 227.451 110.84 228.913 119.466 228.906C105.294 216.874 103.798 204.599 109.409 186.015C109.485 185.763 109.562 185.51 109.64 185.255C110.987 180.867 112.63 176.118 114.458 170.925L119.3 180.219C129.619 150.518 137.923 135.721 155.444 111.322C155.444 111.322 153.662 134.83 167.85 147.246C176.222 156.482 170.367 169.129 165.706 182.695C160.37 198.225 150.626 210.855 150.626 210.855C198.333 162.74 214.284 112.097 187.665 76.2552L179.177 101.436C160.943 71.622 146.523 62.9507 116.623 55.4267Z" fill="#F65D51" shape-rendering="crispEdges"/>
<path d="M97.3283 223.621C104.805 227.451 110.84 228.913 119.466 228.906M97.3283 223.621C96.695 223.332 96.0766 222.96 95.4753 222.508M97.3283 223.621C97.3283 223.621 96.6672 223.224 95.4753 222.508M187.665 76.2552L179.177 101.436C160.943 71.622 146.523 62.9507 116.623 55.4267C116.284 52.6415 116.623 102.531 97.3283 137.086C78.3438 173.184 83.5379 213.538 95.4753 222.508M187.665 76.2552C214.284 112.097 198.333 162.74 150.626 210.855M187.665 76.2552C172.429 63.841 153.676 55.3649 122.406 38.5831L120.629 49.7195C120.629 49.7195 106.716 44.532 92.334 33.867C77.9519 23.202 51.4627 17 51.4627 17C51.4627 17 53.1463 56.644 38.3001 86.8109C27.775 108.198 21.9711 120.521 20.518 141.605C19.1896 160.879 24.0953 176.975 32.8634 184.719C45.448 192.467 86.2754 216.986 95.4753 222.508M150.626 210.855L109.409 186.015M150.626 210.855C150.626 210.855 160.37 198.225 165.706 182.695C170.367 169.129 176.222 156.482 167.85 147.246C153.662 134.83 155.444 111.322 155.444 111.322C137.923 135.721 129.619 150.518 119.3 180.219L114.458 170.925C112.63 176.118 110.987 180.867 109.64 185.255M109.409 186.015C103.798 204.599 105.294 216.874 119.466 228.906M109.409 186.015C109.485 185.763 109.562 185.51 109.64 185.255M119.466 228.906C105.102 216.71 103.803 204.271 109.64 185.255" stroke="black" stroke-width="0.443519" shape-rendering="crispEdges"/>
</g>
<defs>
<filter id="filter0_bd_8966_2012" x="0.0800781" y="0.717285" width="220.643" height="252.411" filterUnits="userSpaceOnUse" color-interpolation-filters="sRGB">
<feFlood flood-opacity="0" result="BackgroundImageFix"/>
<feGaussianBlur in="BackgroundImageFix" stdDeviation="3.54815"/>
<feComposite in2="SourceAlpha" operator="in" result="effect1_backgroundBlur_8966_2012"/>
<feColorMatrix in="SourceAlpha" type="matrix" values="0 0 0 0 0 0 0 0 0 0 0 0 0 0 0 0 0 0 127 0" result="hardAlpha"/>
<feOffset dy="4"/>
<feGaussianBlur stdDeviation="10"/>
<feComposite in2="hardAlpha" operator="out"/>
<feColorMatrix type="matrix" values="0 0 0 0 1 0 0 0 0 0.752941 0 0 0 0 0.529412 0 0 0 1 0"/>
<feBlend mode="normal" in2="effect1_backgroundBlur_8966_2012" result="effect2_dropShadow_8966_2012"/>
<feBlend mode="normal" in="SourceGraphic" in2="effect2_dropShadow_8966_2012" result="shape"/>
</filter>
</defs>
</svg>
