<svg width="40" height="41" viewBox="0 0 40 41" fill="none" xmlns="http://www.w3.org/2000/svg">
<mask id="mask0_10495_1362" style="mask-type:alpha" maskUnits="userSpaceOnUse" x="0" y="0" width="40" height="41">
<rect y="0.5" width="40" height="40" fill="#D9D9D9"/>
</mask>
<g mask="url(#mask0_10495_1362)">
<path d="M7.51912 30.5C6.6794 30.5 6.02551 30.1939 5.55746 29.5817C5.08968 28.9694 4.91023 28.2862 5.01912 27.5321L6.83329 14.8396C7.01912 13.579 7.56982 12.5406 8.48537 11.7242C9.40121 10.9081 10.4894 10.5 11.75 10.5H28.25C29.5105 10.5 30.5987 10.9081 31.5145 11.7242C32.4301 12.5406 32.9808 13.579 33.1666 14.8396L34.9808 27.5321C35.0897 28.2862 34.9102 28.9694 34.4425 29.5817C33.9744 30.1939 33.3205 30.5 32.4808 30.5C32.1111 30.5 31.7777 30.4439 31.4808 30.3317C31.1838 30.2194 30.9018 30.0299 30.6345 29.7629L26.3716 25.5H13.6283L9.36537 29.7629C9.09815 30.0299 8.81607 30.2194 8.51912 30.3317C8.22218 30.4439 7.88885 30.5 7.51912 30.5ZM8.18579 28.5833L12.9358 23.8333H27.0641L31.8141 28.5833C31.8697 28.6389 32.0705 28.7222 32.4166 28.8333C32.7222 28.8333 32.9652 28.7431 33.1458 28.5625C33.3263 28.3819 33.3888 28.1389 33.3333 27.8333L31.5 15C31.3888 14.1944 31.0225 13.5208 30.4008 12.9792C29.7788 12.4375 29.0619 12.1667 28.25 12.1667H11.75C10.938 12.1667 10.2211 12.4375 9.59912 12.9792C8.97746 13.5208 8.61107 14.1944 8.49996 15L6.66662 27.8333C6.61107 28.1389 6.67357 28.3819 6.85412 28.5625C7.03468 28.7431 7.27773 28.8333 7.58329 28.8333C7.68162 28.8333 7.88246 28.75 8.18579 28.5833ZM28.3333 21.8463C28.6986 21.8463 29.0143 21.7132 29.2804 21.4471C29.5465 21.181 29.6795 20.8653 29.6795 20.5C29.6795 20.1347 29.5465 19.819 29.2804 19.5529C29.0143 19.2868 28.6986 19.1538 28.3333 19.1538C27.968 19.1538 27.6523 19.2868 27.3862 19.5529C27.1201 19.819 26.987 20.1347 26.987 20.5C26.987 20.8653 27.1201 21.181 27.3862 21.4471C27.6523 21.7132 27.968 21.8463 28.3333 21.8463ZM25 16.8463C25.3652 16.8463 25.6809 16.7132 25.947 16.4471C26.2132 16.181 26.3462 15.8653 26.3462 15.5C26.3462 15.1347 26.2132 14.819 25.947 14.5529C25.6809 14.2868 25.3652 14.1537 25 14.1537C24.6347 14.1537 24.319 14.2868 24.0529 14.5529C23.7868 14.819 23.6537 15.1347 23.6537 15.5C23.6537 15.8653 23.7868 16.181 24.0529 16.4471C24.319 16.7132 24.6347 16.8463 25 16.8463ZM13.4295 21.6538H14.9037V18.7371H17.8204V17.2629H14.9037V14.3462H13.4295V17.2629H10.5129V18.7371H13.4295V21.6538Z" fill="#1C1B1F"/>
</g>
</svg>
