<svg width="16" height="16" viewBox="0 0 16 16" fill="none" xmlns="http://www.w3.org/2000/svg">
<g clip-path="url(#clip0_1536_8694)">
<path d="M15.245 8.52645C15.0461 8.52645 14.8553 8.60546 14.7147 8.74611C14.574 8.88677 14.495 9.07753 14.495 9.27645V12.2955C14.4943 12.8786 14.2624 13.4377 13.8501 13.85C13.4378 14.2623 12.8787 14.4942 12.2956 14.4949H3.70438C3.12127 14.4942 2.56224 14.2623 2.14992 13.85C1.7376 13.4377 1.50567 12.8786 1.505 12.2955V3.70426C1.50567 3.12115 1.7376 2.56211 2.14992 2.1498C2.56224 1.73748 3.12127 1.50554 3.70438 1.50488H6.72344C6.92235 1.50488 7.11312 1.42587 7.25377 1.28521C7.39442 1.14456 7.47344 0.953795 7.47344 0.754883C7.47344 0.55597 7.39442 0.365205 7.25377 0.224553C7.11312 0.0839005 6.92235 0.00488281 6.72344 0.00488281H3.70438C2.7236 0.00604066 1.78332 0.396167 1.08981 1.08968C0.396289 1.7832 0.00616273 2.72348 0.00500488 3.70426V12.2955C0.00616273 13.2763 0.396289 14.2166 1.08981 14.9101C1.78332 15.6036 2.7236 15.9937 3.70438 15.9949H12.2956C13.2764 15.9937 14.2167 15.6036 14.9102 14.9101C15.6037 14.2166 15.9938 13.2763 15.995 12.2955V9.27645C15.995 9.07753 15.916 8.88677 15.7753 8.74611C15.6347 8.60546 15.4439 8.52645 15.245 8.52645Z" fill="black"/>
<path d="M15.2291 6.33675e-08H10.5666C10.3702 -3.75993e-05 10.1816 0.0769607 10.0414 0.214452C9.90115 0.351943 9.82044 0.538957 9.81659 0.735313C9.80878 1.15625 10.1628 1.5 10.5835 1.5H13.4375L7.4644 7.475C7.32376 7.61565 7.24475 7.80641 7.24475 8.00531C7.24475 8.20422 7.32376 8.39497 7.4644 8.53563C7.60505 8.67627 7.79581 8.75528 7.99472 8.75528C8.19362 8.75528 8.38438 8.67627 8.52503 8.53563L14.5 2.5625V5.42688C14.5 5.62579 14.579 5.81655 14.7197 5.95721C14.8604 6.09786 15.0511 6.17688 15.25 6.17688C15.4489 6.17688 15.6397 6.09786 15.7804 5.95721C15.921 5.81655 16 5.62579 16 5.42688V0.770625C16 0.669399 15.9801 0.569164 15.9413 0.475647C15.9026 0.382131 15.8458 0.297164 15.7742 0.2256C15.7026 0.154037 15.6176 0.0972798 15.5241 0.0585707C15.4306 0.0198615 15.3303 -4.09854e-05 15.2291 6.33675e-08Z" fill="black"/>
</g>
<defs>
<clipPath id="clip0_1536_8694">
<rect width="16" height="16" fill="white"/>
</clipPath>
</defs>
</svg>
