<svg width="26" height="25" viewBox="0 0 26 25" fill="none" xmlns="http://www.w3.org/2000/svg">
<g id="facebook 1" clip-path="url(#clip0_1439_4704)">
<g id="Group">
<path id="Vector" d="M25.7849 12.5002C25.7849 18.7391 21.2138 23.9102 15.2386 24.8476V16.1133H18.151L18.7052 12.5002H15.2386V10.1556C15.2386 9.16692 15.723 8.2036 17.2756 8.2036H18.8517V5.12762C18.8517 5.12762 17.4211 4.88349 16.0535 4.88349C13.1987 4.88349 11.3326 6.61385 11.3326 9.74648V12.5002H8.15897V16.1133H11.3326V24.8476C5.35739 23.9102 0.786377 18.7391 0.786377 12.5002C0.786377 5.59731 6.38271 0.000976562 13.2856 0.000976562C20.1885 0.000976562 25.7849 5.59731 25.7849 12.5002Z" fill="#1877F2"/>
<path id="Vector_2" d="M18.151 16.1136L18.7052 12.5005H15.2386V10.1559C15.2386 9.16741 15.7228 8.2039 17.2755 8.2039H18.8516V5.12791C18.8516 5.12791 17.4213 4.88379 16.0537 4.88379C13.1986 4.88379 11.3326 6.61415 11.3326 9.74677V12.5005H8.15894V16.1136H11.3326V24.8479C11.969 24.9477 12.6212 24.9997 13.2856 24.9997C13.95 24.9997 14.6022 24.9477 15.2386 24.8479V16.1136H18.151Z" fill="white"/>
</g>
</g>
<defs>
<clipPath id="clip0_1439_4704">
<rect width="24.9985" height="24.9985" fill="white" transform="translate(0.786377 0.000976562)"/>
</clipPath>
</defs>
</svg>
