<svg width="144" height="144" viewBox="0 0 144 144" fill="none" xmlns="http://www.w3.org/2000/svg">
<rect y="-0.00244141" width="144" height="143.998" rx="71.9991" fill="#161B85"/>
<g clip-path="url(#clip0_9766_27827)">
<path d="M76.5078 62.1461V67.488H81.8515L112 37.3395V31.9976H106.656L76.5078 62.1461Z" fill="#00F485"/>
<path d="M67.4922 81.8473V76.5054H62.1503L32 106.652V111.996H37.3436L67.4922 81.8473Z" fill="#00F485"/>
<path d="M97.6391 31.9976H86.9553L72 46.9528L57.0448 31.9976H46.361L72 57.6384L97.6391 31.9976Z" fill="#00F485"/>
<path d="M97.0431 71.9958L112 57.0405V46.355L86.3593 71.9958L111.998 97.6366V86.951L97.0431 71.9958Z" fill="#00F485"/>
<path d="M81.8497 76.5054H76.5078V81.8473L106.655 111.996H111.998V106.652L81.8497 76.5054Z" fill="#00F485"/>
<path d="M67.4905 67.488V62.1461L37.3419 31.9976H32V37.3395L62.1486 67.488H67.4905Z" fill="#00F485"/>
<path d="M32.0017 86.951V97.6366L57.6408 71.9958L32 46.355V57.0405L46.957 71.9958L32.0017 86.951Z" fill="#00F485"/>
<path d="M46.3593 111.996H57.0448L72.0001 97.0405L86.9553 111.996H97.6409L72.0001 86.355L46.3593 111.996Z" fill="#00F485"/>
</g>
<defs>
<clipPath id="clip0_9766_27827">
<rect width="80" height="79.9983" fill="white" transform="translate(32 31.9976)"/>
</clipPath>
</defs>
</svg>
