<svg width="27" height="33" viewBox="0 0 27 33" fill="none" xmlns="http://www.w3.org/2000/svg">
<path d="M8.98076 10.1296C9.56448 7.15228 11.0087 4.21189 14.5619 2.39525C14.5603 7.58135 14.6875 11.7323 17.7682 15.3547L19.9401 17.9085L19.5221 14.5821C19.4026 13.6311 19.5168 12.4159 20.1044 11.3254C20.5413 10.5146 21.262 9.72972 22.4342 9.16032C22.6296 11.4839 23.3201 13.1829 23.9826 14.6737C24.042 14.8073 24.1006 14.9384 24.1584 15.0674C24.8714 16.6612 25.4408 17.9337 25.4408 19.6511C25.4408 26.1988 20.1334 31.5063 13.5856 31.5063C7.03791 31.5063 1.73047 26.1988 1.73047 19.6511C1.73047 18.3207 2.03227 16.8245 2.62962 15.5192C2.98811 14.7359 3.43873 14.0508 3.96889 13.5102C4.04823 13.8768 4.14831 14.2854 4.27352 14.7152C4.71637 16.2353 5.52754 18.2153 7.01911 19.4361L8.47777 20.63L8.64838 18.7528C8.69148 18.2785 8.6858 17.6979 8.67067 17.0858C8.66552 16.8775 8.65921 16.6642 8.65273 16.4448C8.63948 15.9962 8.62548 15.5221 8.61901 15.0128C8.59992 13.5092 8.64998 11.8167 8.98076 10.1296Z" fill="#FFC17B" stroke="#F65D51" stroke-width="2"/>
</svg>
