<svg width="180" height="164" viewBox="0 0 180 164" fill="none" xmlns="http://www.w3.org/2000/svg">
<path d="M205.762 32.6181H117.785V14.6583H127.113C130.898 14.6583 134.018 11.5377 134.018 7.75321C134.018 3.9687 130.898 0.848145 127.113 0.848145H94.6459C90.8614 0.848145 87.7408 3.9687 87.7408 7.75321C87.7408 11.5377 90.8614 14.6583 94.6459 14.6583H103.974V32.6181H30.0437C13.4782 32.6181 0 45.7311 0 61.9646V114.45C0 118.234 3.12056 121.355 6.90507 121.355H53.1823C56.9668 121.355 60.0874 118.599 60.0874 114.782V91.6432H205.762C209.547 91.6432 212.667 88.5226 212.667 84.7381V39.5232C212.667 35.7387 209.547 32.6181 205.762 32.6181ZM199.189 77.8662H53.5475C49.763 77.8662 46.6424 80.9868 46.6424 84.7713V107.91H13.4782V61.9646C13.4782 53.3333 21.0804 46.0631 30.0437 46.0631H199.189V77.8662Z" fill="#6F6F6F"/>
<path d="M8.2996 127.264C4.51509 127.264 1.39453 130.385 1.39453 134.169V156.611C1.39453 160.395 4.51509 163.516 8.2996 163.516C12.0841 163.516 15.2047 160.395 15.2047 156.611V134.169C15.2047 130.352 12.0841 127.264 8.2996 127.264Z" fill="#6F6F6F"/>
<path d="M28.3172 127.264C24.5327 127.264 21.4121 130.385 21.4121 134.169V156.611C21.4121 160.395 24.5327 163.516 28.3172 163.516C32.1017 163.516 35.2222 160.395 35.2222 156.611V134.169C35.2222 130.352 32.1349 127.264 28.3172 127.264Z" fill="#6F6F6F"/>
<path d="M48.3348 127.264C44.5502 127.264 41.4297 130.385 41.4297 134.169V156.611C41.4297 160.395 44.5502 163.516 48.3348 163.516C52.1193 163.516 55.2398 160.395 55.2398 156.611V134.169C55.273 130.352 52.1525 127.264 48.3348 127.264Z" fill="#6F6F6F"/>
</svg>
