<svg width="159" height="155" viewBox="0 0 159 155" fill="none" xmlns="http://www.w3.org/2000/svg">
<path d="M110.734 34.3655C110.734 53.3451 126.036 68.7311 144.912 68.7311C163.788 68.7311 179.09 53.3451 179.09 34.3655C179.09 15.386 163.788 0 144.912 0C126.036 0 110.734 15.386 110.734 34.3655ZM162.196 34.3655C162.196 43.9637 154.458 51.7445 144.912 51.7445C135.366 51.7445 127.628 43.9637 127.628 34.3655C127.628 24.7673 135.366 16.9865 144.912 16.9865C154.458 16.9865 162.196 24.7673 162.196 34.3655Z" fill="#FFC17B"/>
<path fill-rule="evenodd" clip-rule="evenodd" d="M184.459 96.548C174.445 89.2522 161.168 85.9136 144.913 85.9136C128.657 85.9136 115.38 89.2522 105.365 96.548C95.1942 103.959 89.4472 114.675 86.8531 127.22C83.5541 143.173 97.3132 154.645 110.735 154.645H179.09C192.512 154.645 206.271 143.173 202.972 127.22C200.378 114.675 194.631 103.959 184.459 96.548ZM174.433 110.463C180.381 114.796 184.296 121.313 186.241 130.718C186.573 132.323 186.129 133.792 184.915 135.076C183.615 136.452 181.507 137.462 179.09 137.462H110.735C108.318 137.462 106.21 136.452 104.91 135.076C103.696 133.792 103.252 132.323 103.584 130.718C105.529 121.313 109.445 114.796 115.392 110.463C121.497 106.015 130.798 103.096 144.913 103.096C159.027 103.096 168.328 106.015 174.433 110.463Z" fill="#FFC17B"/>
<path d="M25.29 34.3655C25.29 53.3451 40.5922 68.7311 59.4678 68.7311C78.3433 68.7311 93.6455 53.3451 93.6455 34.3655C93.6455 15.386 78.3433 0 59.4678 0C40.5922 0 25.29 15.386 25.29 34.3655ZM76.7515 34.3655C76.7515 43.9637 69.0136 51.7445 59.4678 51.7445C49.9219 51.7445 42.1841 43.9637 42.1841 34.3655C42.1841 24.7673 49.9219 16.9865 59.4678 16.9865C69.0136 16.9865 76.7515 24.7673 76.7515 34.3655Z" fill="#FFC17B"/>
<path d="M80.5202 88.2238C85.6588 89.4919 87.4523 95.5084 84.548 99.9553L84.1823 100.515C82.0308 103.809 77.9321 105.15 74.0862 104.386C69.9028 103.555 65.0633 103.096 59.4675 103.096C45.353 103.096 36.0523 106.015 29.9473 110.463C23.9987 114.796 20.0836 121.313 18.1389 130.718C17.8066 132.323 18.2509 133.792 19.465 135.076C20.7646 136.452 22.8734 137.462 25.2898 137.462H68.012C72.7302 137.462 76.5564 141.308 76.5564 146.053C76.5564 150.798 72.7302 154.645 68.012 154.645H25.2898C11.8682 154.645 -1.89092 143.173 1.40723 127.22C4.00217 114.675 9.74915 103.959 19.9204 96.548C29.9354 89.2522 43.2117 85.9136 59.4675 85.9136C67.1626 85.9136 74.1904 86.6619 80.5202 88.2238Z" fill="#FFC17B"/>
</svg>
