<svg width="72" height="83" viewBox="0 0 72 83" fill="none" xmlns="http://www.w3.org/2000/svg">
<path fill-rule="evenodd" clip-rule="evenodd" d="M35.9537 1.15063L0.723633 21.4524L35.9537 41.4821L70.8213 21.4524L35.9537 1.15063ZM53.7951 21.4524L35.9537 11.0296L17.75 21.4524L26.0887 26.2683L35.9537 31.9658L45.3392 26.4351L53.7951 21.4524Z" fill="white"/>
<path fill-rule="evenodd" clip-rule="evenodd" d="M35.9537 82.1762L70.8213 62.0559V21.4524L35.9537 41.4821V82.1762ZM62.3083 56.9803V36.7692L53.883 41.4821L44.648 46.6482V57.4334V67.3124L62.3083 56.9803Z" fill="white"/>
<path fill-rule="evenodd" clip-rule="evenodd" d="M0.723633 21.4524V62.0559L35.9537 82.1762V41.4821L0.723633 21.4524ZM9.05573 56.9803L26.8066 67.3124V57.4334V46.6482L17.75 41.6079L9.05573 36.7692V46.8749V56.9803Z" fill="white"/>
<path d="M0.723633 21.4524L35.9537 1.15063L70.8213 21.4524M0.723633 21.4524V62.0559L35.9537 82.1762M0.723633 21.4524L35.9537 41.4821M70.8213 21.4524V62.0559L35.9537 82.1762M70.8213 21.4524L35.9537 41.4821M35.9537 82.1762V41.4821M35.9537 11.0296L53.7951 21.4524L45.3392 26.4351L35.9537 31.9658L26.0887 26.2683L17.75 21.4524L35.9537 11.0296ZM62.3083 36.7692V56.9803L44.648 67.3124V57.4334V46.6482L53.883 41.4821L62.3083 36.7692ZM26.8066 67.3124L9.05573 56.9803V46.8749V36.7692L17.75 41.6079L26.8066 46.6482V57.4334V67.3124Z" stroke="black" stroke-width="0.5" stroke-linecap="round" stroke-linejoin="round"/>
</svg>
