<svg width="172" height="157" viewBox="0 0 172 157" fill="none" xmlns="http://www.w3.org/2000/svg">
<g clip-path="url(#clip0_5286_2057)">
<path d="M85.2458 74.2834L85.2162 53.6752L35.2793 82.8749L35.3089 103.483L85.2458 74.2834Z" fill="white" stroke="#1B1B1B" stroke-width="0.5" stroke-linecap="round" stroke-linejoin="round"/>
<path d="M85.2031 74.2835L85.2327 53.6753L136.706 83.6079L136.676 104.215L85.2031 74.2835Z" fill="white" stroke="#1B1B1B" stroke-width="0.5" stroke-linecap="round" stroke-linejoin="round"/>
<path d="M171.648 106.698L171.596 84.8315L87.2695 134.139L87.3202 156.005L171.648 106.698Z" fill="white" stroke="#1B1B1B" stroke-width="0.5" stroke-linecap="round" stroke-linejoin="round"/>
<path d="M87.3198 156.005L87.2691 134.139L0.360352 82.3816L0.411035 104.246L87.3198 156.005Z" fill="white" stroke="#1B1B1B" stroke-width="0.5" stroke-linecap="round" stroke-linejoin="round"/>
<path d="M84.6868 33.0786L0.351562 82.3874L87.2716 134.136L171.607 84.8286L84.6868 33.0786ZM86.7465 113.538L35.2792 82.8793L85.233 53.6768L136.7 84.3366L86.7465 113.541V113.538Z" fill="white" stroke="#1B1B1B" stroke-width="0.5" stroke-linecap="round" stroke-linejoin="round"/>
<path d="M86.9404 57.4902L86.97 34.7277L136.907 63.9274L111.924 67.5218L86.9404 57.4902Z" fill="#B4F9BA" stroke="#242424" stroke-width="0.5" stroke-linecap="round" stroke-linejoin="round"/>
<path d="M136.72 69.5543L136.691 46.7917L86.7539 75.99L86.7835 98.7525L136.72 69.5543Z" fill="#B4F9BA" stroke="#242424" stroke-width="0.5" stroke-linecap="round" stroke-linejoin="round"/>
<path d="M87.1852 59.4124L87.1556 36.6498L37.2188 65.8496L62.2027 69.4439L87.1852 59.4124Z" fill="#B4F9BA" stroke="#242424" stroke-width="0.5" stroke-linecap="round" stroke-linejoin="round"/>
<path d="M86.7835 98.7525L86.7539 75.9899L35.2881 45.3401L35.3177 68.1027L86.7835 98.7525Z" fill="#B4F9BA"/>
<path d="M86.7835 98.7525L86.7539 75.9899L35.2881 45.3401L35.3177 68.1027L86.7835 98.7525Z" stroke="#242424" stroke-width="0.5" stroke-linecap="round" stroke-linejoin="round"/>
<path d="M85.2203 16.1391L35.2891 45.3431L86.7479 75.9814L136.696 46.7946L85.2203 16.1391ZM70.7095 46.5537L87.0702 36.9926L103.924 47.0213L87.563 56.5824L70.7095 46.5537Z" fill="#B4F9BA" stroke="#242424" stroke-width="0.5" stroke-linecap="round" stroke-linejoin="round"/>
<path d="M103.928 29.7453L103.918 10.7579L87.5654 20.319L87.5767 39.3064L103.928 29.7453Z" fill="white" stroke="#1B1B1B" stroke-width="0.5" stroke-linecap="round" stroke-linejoin="round"/>
<path d="M87.5763 39.3065L87.565 20.3191L70.7129 10.2832L70.7227 29.2706L87.5763 39.3065Z" fill="white" stroke="#1B1B1B" stroke-width="0.5" stroke-linecap="round" stroke-linejoin="round"/>
<path d="M87.565 20.319L70.7129 10.2831L87.0652 0.721985L103.917 10.7579L87.565 20.319Z" fill="white" stroke="#1B1B1B" stroke-width="0.5" stroke-linecap="round" stroke-linejoin="round"/>
</g>
<defs>
<clipPath id="clip0_5286_2057">
<rect width="172" height="156" fill="white" transform="translate(0 0.363281)"/>
</clipPath>
</defs>
</svg>
