<svg width="47" height="77" viewBox="0 0 47 77" fill="none" xmlns="http://www.w3.org/2000/svg">
<path d="M38.8419 0.634766H8.15624C3.92839 0.634766 0.500977 4.06213 0.500977 8.29003V68.71C0.500977 72.9379 3.92839 76.3653 8.15624 76.3653H38.8419C43.0698 76.3653 46.4972 72.9379 46.4972 68.71V8.29003C46.4972 4.06213 43.0698 0.634766 38.8419 0.634766Z" fill="white" stroke="black" stroke-width="0.5" stroke-miterlimit="10"/>
<path d="M18.1328 66.1064H28.8673H18.1328Z" fill="white"/>
<path d="M18.1328 66.1064H28.8673" stroke="black" stroke-width="0.5" stroke-miterlimit="10" stroke-linecap="round"/>
<path d="M23.5666 48.1084L36.3937 40.7122V25.7864L23.5666 33.1493V48.1084Z" fill="#B4F9BA"/>
<path d="M23.5666 18.3235L10.6064 25.7864L23.5666 33.1493L36.3937 25.7864L23.5666 18.3235Z" fill="#B4F9BA"/>
<path d="M10.6064 25.7864V40.7122L23.5666 48.1084V33.1493L10.6064 25.7864Z" fill="#B4F9BA"/>
<path d="M10.6064 25.7864L23.5666 18.3235L36.3937 25.7864M10.6064 25.7864V40.7122L23.5666 48.1084M10.6064 25.7864L23.5666 33.1493M36.3937 25.7864V40.7122L23.5666 48.1084M36.3937 25.7864L23.5666 33.1493M23.5666 48.1084V33.1493" stroke="black" stroke-width="0.5" stroke-linecap="round" stroke-linejoin="round"/>
</svg>
