<svg width="230" height="149" viewBox="0 0 230 149" fill="none" xmlns="http://www.w3.org/2000/svg">
<g clip-path="url(#clip0_5413_14)">
<path d="M229.601 50.283L229.59 28.7036L210.671 39.5702L210.682 61.1512L229.601 50.283Z" fill="#B4F9BA" stroke="#242424" stroke-width="0.5" stroke-linecap="round" stroke-linejoin="round"/>
<path d="M210.681 61.1513L210.67 39.5703L191.172 28.164L191.183 49.7434L210.681 61.1513Z" fill="#B4F9BA" stroke="#242424" stroke-width="0.5" stroke-linecap="round" stroke-linejoin="round"/>
<path d="M210.67 39.5704L191.172 28.1641L210.091 17.2959L229.589 28.7038L210.67 39.5704Z" fill="#B4F9BA" stroke="#242424" stroke-width="0.5" stroke-linecap="round" stroke-linejoin="round"/>
<path d="M196.74 82.8331L196.729 61.2521L177.809 72.1203L177.82 93.6996L196.74 82.8331Z" fill="#B4F9BA" stroke="#242424" stroke-width="0.594267" stroke-linecap="round" stroke-linejoin="round"/>
<path d="M177.819 93.6998L177.808 72.1204L158.31 60.7125L158.321 82.2935L177.819 93.6998Z" fill="#B4F9BA" stroke="#242424" stroke-width="0.594267" stroke-linecap="round" stroke-linejoin="round"/>
<path d="M177.808 72.1203L158.31 60.7124L177.229 49.8458L196.728 61.2521L177.808 72.1203Z" fill="white" stroke="#1B1B1B" stroke-width="0.594267" stroke-linecap="round" stroke-linejoin="round"/>
<path d="M177.808 49.937L177.797 28.356L158.878 39.2226L158.889 60.8036L177.808 49.937Z" fill="white" stroke="#1B1B1B" stroke-width="0.594267" stroke-linecap="round" stroke-linejoin="round"/>
<path d="M158.888 60.8039L158.877 39.2229L139.379 27.8167L139.39 49.3976L158.888 60.8039Z" fill="#B4F9BA" stroke="#242424" stroke-width="0.594267" stroke-linecap="round" stroke-linejoin="round"/>
<path d="M158.877 39.2229L139.379 27.8166L158.298 16.95L177.796 28.3563L158.877 39.2229Z" fill="#B4F9BA" stroke="#242424" stroke-width="0.594267" stroke-linecap="round" stroke-linejoin="round"/>
<path d="M196.739 111.777L133.238 148.244L133.19 75.8057L177.999 50.0847L178.015 72.01L196.723 61.2636L196.739 111.777Z" fill="white" stroke="#1B1B1B" stroke-width="0.5" stroke-linecap="round" stroke-linejoin="round"/>
<path d="M133.238 148.244L67.7849 109.951L67.7529 37.5125L92.1578 51.7984L92.1738 73.4034L111.682 84.8225L111.666 63.2175L133.19 75.8057L133.238 148.244Z" fill="white" stroke="#1B1B1B" stroke-width="0.5" stroke-linecap="round" stroke-linejoin="round"/>
<path d="M111.015 62.6025L111.002 41.0215L92.083 51.8881L92.0942 73.4691L111.015 62.6025Z" fill="white" stroke="#1B1B1B" stroke-width="0.594267" stroke-linecap="round" stroke-linejoin="round"/>
<path d="M177.999 50.0846L133.19 75.8057L111.733 63.187L130.457 52.4245L110.965 41.0214L92.241 51.7679L67.7529 37.5124L131.254 1.04492L177.791 28.2714L159.099 39.0179L177.999 50.0846Z" fill="white" stroke="#1B1B1B" stroke-width="0.5" stroke-linecap="round" stroke-linejoin="round"/>
<path d="M83.8302 90.2321L83.8174 68.6511L64.8984 79.5193L64.9096 101.099L83.8302 90.2321Z" fill="#B4F9BA" stroke="#242424" stroke-width="0.5" stroke-linecap="round" stroke-linejoin="round"/>
<path d="M64.9089 101.099L64.8977 79.5196L45.3994 68.1117L45.4106 89.6927L64.9089 101.099Z" fill="#B4F9BA" stroke="#242424" stroke-width="0.5" stroke-linecap="round" stroke-linejoin="round"/>
<path d="M64.8977 79.5196L45.3994 68.1117L64.3184 57.2451L83.8167 68.6514L64.8977 79.5196Z" fill="#B4F9BA" stroke="#242424" stroke-width="0.5" stroke-linecap="round" stroke-linejoin="round"/>
</g>
<path d="M5.52246 12.2609L12.2308 9.06537C15.3651 13.3959 18.3052 17.4514 21.4029 21.7268L14.6946 24.9223C11.5968 20.6469 8.65674 16.5914 5.52246 12.2609Z" fill="url(#paint0_linear_5413_14)" stroke="#242424" stroke-width="0.3" stroke-linecap="round" stroke-linejoin="round"/>
<path d="M14.6956 24.9221L21.404 21.7266C20.2375 22.2828 19.4405 22.6666 18.6888 23.029L11.9805 26.2245C12.7327 25.8617 13.5291 25.4783 14.6956 24.9221Z" fill="#B4F9BA" stroke="#242424" stroke-width="0.3" stroke-linecap="round" stroke-linejoin="round"/>
<path d="M12.4014 5.32971L19.1097 2.13422C19.4688 2.72084 20.159 3.84602 20.9741 5.18L14.2658 8.3755C13.4506 7.04191 12.7604 5.91633 12.4014 5.32971Z" fill="#B4F9BA" stroke="#242424" stroke-width="0.3" stroke-linecap="round" stroke-linejoin="round"/>
<path d="M1 10.6554L7.70835 7.45991C11.4357 5.71895 15.2199 3.95121 19.1097 2.13422L12.4014 5.32971C8.5115 7.1467 4.72739 8.91445 1 10.6554Z" fill="#B4F9BA" stroke="#242424" stroke-width="0.3" stroke-linecap="round" stroke-linejoin="round"/>
<path d="M12.4014 5.32977C12.7604 5.91639 13.4506 7.04157 14.2658 8.37556C11.4612 9.6209 8.52688 10.9265 5.52334 12.2609C8.65762 16.5914 11.5977 20.6469 14.6955 24.9223C13.5289 25.4786 12.732 25.8623 11.9803 26.2248C8.05105 20.658 4.41642 15.5021 1 10.6555C4.72739 8.91451 8.5115 7.14676 12.4014 5.32977Z" fill="#B4F9BA" stroke="#242424" stroke-width="0.3" stroke-linecap="round" stroke-linejoin="round"/>
<path d="M28.6895 7.82849L35.3978 4.633C36.5792 5.59744 37.5304 6.37238 38.7527 7.36715L32.0443 10.5626C30.8221 9.56748 29.8714 8.79293 28.6895 7.82849Z" fill="#B4F9BA" stroke="#242424" stroke-width="0.3" stroke-linecap="round" stroke-linejoin="round"/>
<path d="M32.0446 10.5624L38.7529 7.36688C34.9313 15.2207 31.1549 22.9815 27.2679 30.9689L20.5596 34.1644C24.4465 26.177 28.223 18.4162 32.0446 10.5624Z" fill="url(#paint1_linear_5413_14)" stroke="#242424" stroke-width="0.3" stroke-linecap="round" stroke-linejoin="round"/>
<path d="M28.6898 7.82849C29.8713 8.79293 30.8225 9.56787 32.0447 10.5626C28.2231 18.4164 24.4467 26.1773 20.5598 34.1646C19.3053 33.1123 18.3546 32.3145 17.2217 31.3619C21.0553 23.4947 24.8356 15.7319 28.6898 7.82849Z" fill="#B4F9BA" stroke="#242424" stroke-width="0.3" stroke-linecap="round" stroke-linejoin="round"/>
<path d="M34.8994 34.5487L41.6078 31.3532C44.5017 30.089 47.4072 28.8192 50.4881 27.4758L43.7798 30.6713C40.6989 32.0151 37.7934 33.2849 34.8994 34.5487Z" fill="#B4F9BA" stroke="#242424" stroke-width="0.3" stroke-linecap="round" stroke-linejoin="round"/>
<path d="M37.0576 17.0402L43.766 13.8447C47.4328 19.0656 51.176 24.3995 54.754 29.4908L48.0456 32.6863C44.4677 27.595 40.7244 22.2615 37.0576 17.0402Z" fill="url(#paint2_linear_5413_14)" stroke="#242424" stroke-width="0.3" stroke-linecap="round" stroke-linejoin="round"/>
<path d="M34.4053 17.8297L41.1136 14.6342C42.3729 14.2591 43.1732 14.0227 43.7663 13.8447L37.0579 17.0402C36.4648 17.2182 35.6646 17.455 34.4053 17.8297Z" fill="#B4F9BA" stroke="#242424" stroke-width="0.3" stroke-linecap="round" stroke-linejoin="round"/>
<path d="M37.0579 17.0402C40.7248 22.2611 44.468 27.595 48.0459 32.6863C44.6233 34.2886 40.8839 36.0433 36.8763 37.9265C36.4365 37.1756 35.7751 36.0445 34.8994 34.5486C37.7933 33.2843 40.6988 32.0146 43.7798 30.6711C40.6455 26.3784 37.6487 22.2733 34.4053 17.8297C35.6646 17.4546 36.4648 17.2182 37.0579 17.0402Z" fill="#B4F9BA" stroke="#242424" stroke-width="0.3" stroke-linecap="round" stroke-linejoin="round"/>
<defs>
<linearGradient id="paint0_linear_5413_14" x1="5.52246" y1="16.994" x2="21.4029" y2="16.994" gradientUnits="userSpaceOnUse">
<stop stop-color="#B4F9BA"/>
<stop offset="1" stop-color="#66E070"/>
</linearGradient>
<linearGradient id="paint1_linear_5413_14" x1="20.5596" y1="20.7654" x2="38.7534" y2="20.7654" gradientUnits="userSpaceOnUse">
<stop stop-color="#B4F9BA"/>
<stop offset="1" stop-color="#66E070"/>
</linearGradient>
<linearGradient id="paint2_linear_5413_14" x1="37.0576" y1="23.2653" x2="54.7544" y2="23.2653" gradientUnits="userSpaceOnUse">
<stop stop-color="#B4F9BA"/>
<stop offset="1" stop-color="#66E070"/>
</linearGradient>
<clipPath id="clip0_5413_14">
<rect width="185" height="148" fill="white" transform="translate(45 0.644531)"/>
</clipPath>
</defs>
</svg>
