<svg width="47" height="78" viewBox="0 0 47 78" fill="none" xmlns="http://www.w3.org/2000/svg">
<path d="M38.8419 1.13477H8.15624C3.92839 1.13477 0.500977 4.56213 0.500977 8.79003V69.21C0.500977 73.4379 3.92839 76.8653 8.15624 76.8653H38.8419C43.0698 76.8653 46.4972 73.4379 46.4972 69.21V8.79003C46.4972 4.56213 43.0698 1.13477 38.8419 1.13477Z" fill="white" stroke="black" stroke-width="0.5" stroke-miterlimit="10"/>
<path d="M18.1328 66.6064H28.8673H18.1328Z" fill="white"/>
<path d="M18.1328 66.6064H28.8673" stroke="black" stroke-width="0.5" stroke-miterlimit="10" stroke-linecap="round"/>
<path d="M23.5666 48.6084L36.3937 41.2122V26.2864L23.5666 33.6493V48.6084Z" fill="#D9D9D9"/>
<path d="M23.5666 18.8235L10.6064 26.2864L23.5666 33.6493L36.3937 26.2864L23.5666 18.8235Z" fill="#D9D9D9"/>
<path d="M10.6064 26.2864V41.2122L23.5666 48.6084V33.6493L10.6064 26.2864Z" fill="#D9D9D9"/>
<path d="M10.6064 26.2864L23.5666 18.8235L36.3937 26.2864M10.6064 26.2864V41.2122L23.5666 48.6084M10.6064 26.2864L23.5666 33.6493M36.3937 26.2864V41.2122L23.5666 48.6084M36.3937 26.2864L23.5666 33.6493M23.5666 48.6084V33.6493" stroke="black" stroke-width="0.5" stroke-linecap="round" stroke-linejoin="round"/>
</svg>
