<svg width="193" height="272" viewBox="0 0 193 272" fill="none" xmlns="http://www.w3.org/2000/svg">
<path d="M97.9911 0.442871L1.12891 133.997L97.9911 94.7975V0.442871Z" fill="#FFAE81"/>
<path d="M1.12891 133.997L97.9911 182.315V94.7975L1.12891 133.997Z" fill="#FFAE81"/>
<path d="M97.9911 182.315L1.12891 133.997L97.9911 271.2V182.315Z" fill="#FFAE81"/>
<path d="M191.77 133.997L97.9911 0.442871V94.7975L191.77 133.997Z" fill="#FC9C67"/>
<path d="M97.9911 182.315L191.77 133.997L97.9911 94.7975V182.315Z" fill="#FC9C67"/>
<path d="M191.77 133.997L97.9911 182.315V271.2L191.77 133.997Z" fill="#FC9C67"/>
<path d="M97.9911 0.442871L1.12891 133.997M97.9911 0.442871L191.77 133.997M97.9911 0.442871V271.2M97.9911 0.442871V94.7975M1.12891 133.997L97.9911 182.315M1.12891 133.997L97.9911 271.2M1.12891 133.997L97.9911 94.7975M97.9911 182.315L191.77 133.997M97.9911 182.315V94.7975M97.9911 182.315V271.2M191.77 133.997L97.9911 271.2M191.77 133.997L97.9911 94.7975" stroke="black" stroke-width="0.5"/>
</svg>
