<svg width="212" height="211" viewBox="0 0 212 211" fill="none" xmlns="http://www.w3.org/2000/svg">
<circle cx="105.9" cy="105.455" r="105.332" fill="#EDEDED"/>
<path d="M83.3189 50.1644L104.971 37.6604C105.588 37.3046 106.353 37.3046 106.969 37.6604L164.035 70.6073C164.652 70.963 165.031 71.6211 165.037 72.3326L165.114 94.9929C165.114 95.71 164.735 96.3745 164.112 96.7302L142.489 109.216C141.161 109.987 139.495 109.026 139.489 107.491L139.418 87.1549C139.418 86.4434 139.033 85.7853 138.416 85.4295L83.3189 53.6269C81.9849 52.8561 81.9849 50.9352 83.3189 50.1644Z" fill="white"/>
<path d="M69.334 152.8L47.6875 140.301C47.065 139.946 46.6855 139.287 46.6855 138.57V72.6763C46.6855 71.9648 47.065 71.3067 47.6816 70.945L67.2707 59.5437C67.8932 59.182 68.6581 59.182 69.2747 59.5437L90.8974 72.03C92.2254 72.8008 92.2314 74.7158 90.9033 75.4925L73.33 85.7198C72.7134 86.0756 72.334 86.7337 72.334 87.4511V151.074C72.334 152.616 70.668 153.57 69.334 152.8Z" fill="white"/>
<path d="M165.115 113.574V138.57C165.115 139.288 164.735 139.946 164.113 140.301L107.047 173.249C106.431 173.604 105.672 173.604 105.055 173.249L85.3888 161.983C84.7663 161.628 84.3809 160.964 84.3809 160.246V135.28C84.3809 133.745 86.041 132.784 87.375 133.542L105.02 143.651C105.636 144.007 106.395 144.001 107.011 143.651L162.109 111.837C163.443 111.066 165.109 112.027 165.109 113.568L165.115 113.574Z" fill="white"/>
</svg>
