<svg width="176" height="176" viewBox="0 0 176 176" fill="none" xmlns="http://www.w3.org/2000/svg">
<g filter="url(#filter0_d_8966_2126)">
<path d="M154.834 88.3056C154.834 125.252 124.837 155.205 87.8321 155.205C50.8272 155.205 20.8301 125.252 20.8301 88.3056C20.8301 51.3588 50.8272 21.4062 87.8321 21.4062C124.837 21.4062 154.834 51.3588 154.834 88.3056Z" fill="#F8B374" stroke="#F65D51"/>
<path d="M83.3964 61.9348C84.9819 62.397 86.0177 63.1582 86.4474 64.1879C86.6069 64.5736 87.0025 65.5213 87.3915 66.453C87.7593 67.3341 88.1212 68.201 88.2718 68.5649L88.272 68.5655C88.7015 69.5956 88.5137 70.8672 87.7266 72.3187C86.9409 73.7678 85.5765 75.3589 83.7279 76.9934C80.0328 80.2606 74.4467 83.663 67.8428 86.4163C61.2389 89.1695 54.8884 90.7455 49.9649 91.0724C47.5018 91.2359 45.4103 91.0859 43.8273 90.624C42.2418 90.1615 41.2059 89.3994 40.7763 88.3678C40.6192 87.988 40.2414 87.0832 39.864 86.1792L39.8638 86.1787C39.486 85.2739 39.1086 84.37 38.952 83.9912L38.9517 83.9905C38.5221 82.9604 38.7099 81.6889 39.4969 80.2373C40.2826 78.7882 41.647 77.1971 43.4955 75.5626C47.1906 72.2954 52.7767 68.8929 59.3806 66.1394C65.9846 63.3862 72.3351 61.8121 77.2586 61.4861C79.7217 61.323 81.8132 61.4733 83.3964 61.9348Z" fill="#F65D51" stroke="#F65D51" stroke-width="0.5"/>
<g style="mix-blend-mode:multiply" opacity="0.3">
<path d="M83.3964 61.9358C84.9819 62.398 86.0177 63.1591 86.4474 64.1888C86.6069 64.5746 87.0025 65.5222 87.3915 66.4539C87.7593 67.3351 88.1212 68.202 88.2718 68.5658L88.272 68.5664C88.7015 69.5966 88.5137 70.8681 87.7266 72.3197C86.9409 73.7688 85.5765 75.3599 83.7279 76.9943C80.0328 80.2615 74.4467 83.664 67.8428 86.4172C61.2389 89.1705 54.8884 90.7465 49.9649 91.0734C47.5018 91.2369 45.4103 91.0868 43.8273 90.625C42.2418 90.1625 41.2059 89.4004 40.7763 88.3687C40.6192 87.989 40.2414 87.0842 39.864 86.1801L39.8638 86.1797C39.486 85.2749 39.1086 84.371 38.952 83.9922L38.9517 83.9915C38.5221 82.9614 38.7099 81.6898 39.4969 80.2383C40.2826 78.7892 41.647 77.1981 43.4955 75.5636C47.1906 72.2964 52.7767 68.8938 59.3806 66.1404C65.9846 63.3872 72.3351 61.813 77.2586 61.487C79.7217 61.3239 81.8132 61.4742 83.3964 61.9358Z" fill="#F65D51" stroke="#F65D51" stroke-width="0.5"/>
<path d="M83.3964 61.9358C84.9819 62.398 86.0177 63.1591 86.4474 64.1888C86.6069 64.5746 87.0025 65.5222 87.3915 66.4539C87.7593 67.3351 88.1212 68.202 88.2718 68.5658L88.272 68.5664C88.7015 69.5966 88.5137 70.8681 87.7266 72.3197C86.9409 73.7688 85.5765 75.3599 83.7279 76.9943C80.0328 80.2615 74.4467 83.664 67.8428 86.4172C61.2389 89.1705 54.8884 90.7465 49.9649 91.0734C47.5018 91.2369 45.4103 91.0868 43.8273 90.625C42.2418 90.1625 41.2059 89.4004 40.7763 88.3687C40.6192 87.989 40.2414 87.0842 39.864 86.1801L39.8638 86.1797C39.486 85.2749 39.1086 84.371 38.952 83.9922L38.9517 83.9915C38.5221 82.9614 38.7099 81.6898 39.4969 80.2383C40.2826 78.7892 41.647 77.1981 43.4955 75.5636C47.1906 72.2964 52.7767 68.8938 59.3806 66.1404C65.9846 63.3872 72.3351 61.813 77.2586 61.487C79.7217 61.3239 81.8132 61.4742 83.3964 61.9358Z" fill="#F65D51" stroke="#F65D51" stroke-width="0.5"/>
</g>
<path d="M83.3964 61.9348C84.9819 62.397 86.0177 63.1582 86.4474 64.1879C86.6069 64.5736 87.0025 65.5213 87.3915 66.453C87.7593 67.3341 88.1212 68.201 88.2718 68.5649L88.272 68.5655C88.7015 69.5956 88.5137 70.8672 87.7266 72.3187C86.9409 73.7678 85.5765 75.3589 83.7279 76.9934C80.0328 80.2606 74.4467 83.663 67.8428 86.4163C61.2389 89.1695 54.8884 90.7455 49.9649 91.0724C47.5018 91.2359 45.4103 91.0859 43.8273 90.624C42.2418 90.1615 41.2059 89.3994 40.7763 88.3678C40.6192 87.988 40.2414 87.0832 39.864 86.1792L39.8638 86.1787C39.486 85.2739 39.1086 84.37 38.952 83.9912L38.9517 83.9905C38.5221 82.9604 38.7099 81.6889 39.4969 80.2373C40.2826 78.7882 41.647 77.1971 43.4955 75.5626C47.1906 72.2954 52.7767 68.8929 59.3806 66.1394C65.9846 63.3862 72.3351 61.8121 77.2586 61.4861C79.7217 61.323 81.8132 61.4733 83.3964 61.9348Z" fill="#F65D51" stroke="#F65D51" stroke-width="0.5"/>
<path d="M38.9517 83.9907L38.9517 83.9905C38.5221 82.9604 38.7099 81.6889 39.4969 80.2373C40.2826 78.7882 41.647 77.1971 43.4955 75.5626C47.1906 72.2954 52.7767 68.8929 59.3806 66.1394C65.9846 63.3862 72.3351 61.8121 77.2587 61.4861C79.7217 61.323 81.8133 61.4733 83.3964 61.9348C84.9823 62.3971 86.0182 63.1585 86.4477 64.1886C86.8772 65.2187 86.6894 66.4903 85.9023 67.9419C85.1166 69.391 83.7522 70.9821 81.9036 72.6166C78.2085 75.8839 72.6223 79.2864 66.0185 82.0397C59.4146 84.793 53.064 86.3689 48.1405 86.6958C45.6775 86.8593 43.586 86.7093 42.0029 86.2474C40.4172 85.7848 39.3813 85.0226 38.9517 83.9907Z" fill="#F65D51" stroke="black" stroke-width="0.5"/>
<path d="M94.7977 56.3592L94.7985 56.3582C95.076 56.0321 95.3525 55.7082 95.6285 55.3854L95.4117 55.2C95.9514 54.5689 96.4893 53.9425 97.0299 53.3129C97.0458 53.2944 97.0616 53.2759 97.0775 53.2575L97.2939 53.4433C97.5708 53.1209 97.8484 52.7975 98.1274 52.4723C98.3106 52.2586 98.4993 52.0517 98.6933 51.8515L98.4884 51.653C98.8886 51.2401 99.3108 50.855 99.7531 50.4978L99.9323 50.7197C100.368 50.3675 100.825 50.0427 101.299 49.7453L101.147 49.5036C101.63 49.201 102.131 48.9262 102.648 48.6791L102.771 48.9365C103.274 48.6963 103.793 48.4826 104.327 48.2955L104.232 48.0263C104.767 47.8386 105.315 47.6773 105.876 47.5421L105.943 47.8194C106.483 47.6889 107.036 47.5831 107.598 47.5019L107.557 47.2196C108.117 47.1388 108.686 47.0821 109.262 47.0493L109.278 47.3341C109.835 47.3025 110.399 47.2935 110.97 47.307L110.977 47.0218C111.541 47.0351 112.111 47.0703 112.685 47.1271L112.657 47.411C113.213 47.466 113.773 47.5415 114.336 47.6376L114.384 47.3564C114.941 47.4515 115.501 47.5665 116.062 47.7012L115.996 47.9786C116.54 48.1091 117.085 48.2583 117.63 48.4263L117.714 48.1536C118.255 48.3202 118.797 48.5049 119.337 48.7077L119.237 48.9747C119.761 49.1716 120.285 49.3857 120.806 49.617L120.922 49.3562C121.44 49.5856 121.956 49.8318 122.469 50.0946L122.339 50.3485C122.838 50.6044 123.335 50.8762 123.828 51.1639L123.972 50.9175C124.461 51.2028 124.947 51.5036 125.428 51.8198L125.271 52.0582C125.741 52.3669 126.207 52.6905 126.667 53.0288L126.836 52.7989C127.293 53.1341 127.744 53.4837 128.19 53.8476L128.009 54.0685C128.228 54.2473 128.446 54.4296 128.662 54.6153C128.878 54.8012 129.091 54.9892 129.301 55.179L129.492 54.9675C129.919 55.3539 130.333 55.7482 130.733 56.1495L130.531 56.3509C130.935 56.7559 131.325 57.1682 131.701 57.5868L131.913 57.3962C132.298 57.825 132.669 58.2605 133.025 58.7018L132.803 58.8808C133.161 59.3257 133.505 59.7766 133.833 60.2324L134.065 60.0658C134.402 60.534 134.723 61.0076 135.028 61.4854L134.787 61.6389C135.095 62.1205 135.385 62.6066 135.659 63.096L135.908 62.9567C136.19 63.4609 136.454 63.9686 136.7 64.4789L136.443 64.6028C136.691 65.1175 136.921 65.6346 137.132 66.1531L137.397 66.0455C137.614 66.5808 137.813 67.1176 137.991 67.6548L137.72 67.7446C137.9 68.2871 138.059 68.8297 138.197 69.3713L138.474 69.3007C138.617 69.8604 138.737 70.4192 138.836 70.9757L138.555 71.0254C138.655 71.5878 138.731 72.1476 138.784 72.7032L139.068 72.6762C139.123 73.2516 139.153 73.8229 139.158 74.3886L138.872 74.391C138.877 74.9598 138.856 75.5224 138.809 76.0772L139.094 76.1013C139.045 76.6762 138.969 77.2434 138.864 77.8009L138.584 77.7484C138.48 78.3046 138.348 78.8506 138.186 79.3848L138.46 79.4672C138.294 80.0167 138.098 80.5542 137.873 81.0778L137.611 80.9648C137.389 81.4795 137.137 81.9803 136.855 82.4654L137.102 82.6087C136.816 83.1008 136.499 83.5772 136.152 84.036L135.925 83.8638C135.756 84.0863 135.58 84.3045 135.397 84.5183L135.396 84.5191C135.119 84.8452 134.842 85.1691 134.566 85.4918L134.783 85.6772C134.25 86.2997 133.72 86.9176 133.187 87.5384C133.164 87.5655 133.14 87.5926 133.117 87.6196L132.901 87.4338C132.624 87.7562 132.346 88.0796 132.067 88.4048C131.884 88.6185 131.695 88.8254 131.501 89.0256L131.706 89.2241C131.306 89.6372 130.884 90.0222 130.441 90.3796L130.262 90.1576C129.826 90.5099 129.37 90.8347 128.895 91.1321L129.047 91.3738C128.564 91.6765 128.063 91.9513 127.545 92.1984L127.422 91.941C126.919 92.1812 126.4 92.3948 125.867 92.582L125.961 92.8512C125.426 93.0388 124.878 93.2001 124.317 93.3353L124.25 93.058C123.71 93.1884 123.157 93.2941 122.595 93.3752L122.635 93.6576C122.076 93.7382 121.507 93.7949 120.93 93.8275L120.914 93.5427C120.357 93.5743 119.793 93.5832 119.222 93.5696L119.216 93.8548C118.651 93.8413 118.081 93.806 117.507 93.749L117.535 93.4652C116.979 93.4101 116.419 93.3344 115.856 93.2382L115.808 93.5194C115.251 93.4241 114.691 93.309 114.129 93.1741L114.196 92.8967C113.652 92.7661 113.107 92.6167 112.561 92.4485L112.477 92.7211C111.936 92.5545 111.395 92.3696 110.854 92.1666L110.955 91.8996C110.43 91.7026 109.907 91.4883 109.385 91.2568L109.269 91.5176C108.751 91.288 108.235 91.0416 107.722 90.7786L107.852 90.5248C107.353 90.2688 106.856 89.9968 106.363 89.709L106.219 89.9553C105.73 89.6699 105.244 89.3689 104.763 89.0525L104.92 88.8142C104.45 88.5053 103.984 88.1816 103.524 87.8431L103.355 88.073C102.898 87.7377 102.447 87.388 102.001 87.0239L102.182 86.803C101.963 86.6242 101.745 86.4419 101.529 86.2561C101.313 86.0701 101.1 85.8822 100.89 85.6924L100.699 85.9039C100.272 85.5176 99.8583 85.1234 99.4581 84.7221L99.6601 84.5207C99.2563 84.1157 98.8662 83.7035 98.4902 83.2849L98.278 83.4756C97.8929 83.0468 97.5224 82.6114 97.1666 82.1702L97.3887 81.9912C97.0299 81.5463 96.6864 81.0955 96.3582 80.6398L96.1267 80.8064C95.7896 80.3383 95.4685 79.8648 95.1636 79.387L95.4041 79.2336C95.0969 78.752 94.8063 78.266 94.5326 77.7767L94.2836 77.9159C94.0018 77.4119 93.7376 76.9042 93.4914 76.3941L93.7483 76.2701C93.5 75.7555 93.2702 75.2385 93.0592 74.7201L92.795 74.8276C92.5771 74.2924 92.379 73.7557 92.2008 73.2186L92.4716 73.1288C92.2917 72.5864 92.1325 72.0438 91.9942 71.5024L91.7178 71.573C91.5749 71.0133 91.454 70.4546 91.3555 69.8982L91.6364 69.8485C91.5368 69.2861 91.4604 68.7264 91.4075 68.1709L91.1236 68.1979C91.0688 67.6226 91.0388 67.0514 91.0339 66.4858L91.3192 66.4833C91.3143 65.9147 91.3352 65.3522 91.3823 64.7974L91.098 64.7733C91.1468 64.1984 91.2232 63.6314 91.3276 63.074L91.608 63.1265C91.7122 62.5705 91.8447 62.0245 92.0059 61.4904L91.7328 61.408C91.8986 60.8586 92.0943 60.3213 92.3202 59.7979L92.5821 59.9109C92.8043 59.3964 93.0562 58.8958 93.3383 58.411L93.0917 58.2675C93.3779 57.7756 93.6946 57.2995 94.0423 56.8409L94.2696 57.0133C94.4382 56.791 94.6142 56.5729 94.7977 56.3592Z" fill="#F65D51" stroke="black" stroke-width="0.570536" stroke-dasharray="1.71 1.71"/>
<g style="mix-blend-mode:multiply" opacity="0.3">
<path d="M94.7977 56.3592L94.7985 56.3582C95.076 56.0321 95.3525 55.7082 95.6285 55.3854L95.4117 55.2C95.9514 54.5689 96.4893 53.9425 97.0299 53.3129C97.0458 53.2944 97.0616 53.2759 97.0775 53.2575L97.2939 53.4433C97.5708 53.1209 97.8484 52.7975 98.1274 52.4723C98.3106 52.2586 98.4993 52.0517 98.6933 51.8515L98.4884 51.653C98.8886 51.2401 99.3108 50.855 99.7531 50.4978L99.9323 50.7197C100.368 50.3675 100.825 50.0427 101.299 49.7453L101.147 49.5036C101.63 49.201 102.131 48.9262 102.648 48.6791L102.771 48.9365C103.274 48.6963 103.793 48.4826 104.327 48.2955L104.232 48.0263C104.767 47.8386 105.315 47.6773 105.876 47.5421L105.943 47.8194C106.483 47.6889 107.036 47.5831 107.598 47.5019L107.557 47.2196C108.117 47.1388 108.686 47.0821 109.262 47.0493L109.278 47.3341C109.835 47.3025 110.399 47.2935 110.97 47.307L110.977 47.0218C111.541 47.0351 112.111 47.0703 112.685 47.1271L112.657 47.411C113.213 47.466 113.773 47.5415 114.336 47.6376L114.384 47.3564C114.941 47.4515 115.501 47.5665 116.062 47.7012L115.996 47.9786C116.54 48.1091 117.085 48.2583 117.63 48.4263L117.714 48.1536C118.255 48.3202 118.797 48.5049 119.337 48.7077L119.237 48.9747C119.761 49.1716 120.285 49.3857 120.806 49.617L120.922 49.3562C121.44 49.5856 121.956 49.8318 122.469 50.0946L122.339 50.3485C122.838 50.6044 123.335 50.8762 123.828 51.1639L123.972 50.9175C124.461 51.2028 124.947 51.5036 125.428 51.8198L125.271 52.0582C125.741 52.3669 126.207 52.6905 126.667 53.0288L126.836 52.7989C127.293 53.1341 127.744 53.4837 128.19 53.8476L128.009 54.0685C128.228 54.2473 128.446 54.4296 128.662 54.6153C128.878 54.8012 129.091 54.9892 129.301 55.179L129.492 54.9675C129.919 55.3539 130.333 55.7482 130.733 56.1495L130.531 56.3509C130.935 56.7559 131.325 57.1682 131.701 57.5868L131.913 57.3962C132.298 57.825 132.669 58.2605 133.025 58.7018L132.803 58.8808C133.161 59.3257 133.505 59.7766 133.833 60.2324L134.065 60.0658C134.402 60.534 134.723 61.0076 135.028 61.4854L134.787 61.6389C135.095 62.1205 135.385 62.6066 135.659 63.096L135.908 62.9567C136.19 63.4609 136.454 63.9686 136.7 64.4789L136.443 64.6028C136.691 65.1175 136.921 65.6346 137.132 66.1531L137.397 66.0455C137.614 66.5808 137.813 67.1176 137.991 67.6548L137.72 67.7446C137.9 68.2871 138.059 68.8297 138.197 69.3713L138.474 69.3007C138.617 69.8604 138.737 70.4192 138.836 70.9757L138.555 71.0254C138.655 71.5878 138.731 72.1476 138.784 72.7032L139.068 72.6762C139.123 73.2516 139.153 73.8229 139.158 74.3886L138.872 74.391C138.877 74.9598 138.856 75.5224 138.809 76.0772L139.094 76.1013C139.045 76.6762 138.969 77.2434 138.864 77.8009L138.584 77.7484C138.48 78.3046 138.348 78.8506 138.186 79.3848L138.46 79.4672C138.294 80.0167 138.098 80.5542 137.873 81.0778L137.611 80.9648C137.389 81.4795 137.137 81.9803 136.855 82.4654L137.102 82.6087C136.816 83.1008 136.499 83.5772 136.152 84.036L135.925 83.8638C135.756 84.0863 135.58 84.3045 135.397 84.5183L135.396 84.5191C135.119 84.8452 134.842 85.1691 134.566 85.4918L134.783 85.6772C134.25 86.2997 133.72 86.9176 133.187 87.5384C133.164 87.5655 133.14 87.5926 133.117 87.6196L132.901 87.4338C132.624 87.7562 132.346 88.0796 132.067 88.4048C131.884 88.6185 131.695 88.8254 131.501 89.0256L131.706 89.2241C131.306 89.6372 130.884 90.0222 130.441 90.3796L130.262 90.1576C129.826 90.5099 129.37 90.8347 128.895 91.1321L129.047 91.3738C128.564 91.6765 128.063 91.9513 127.545 92.1984L127.422 91.941C126.919 92.1812 126.4 92.3948 125.867 92.582L125.961 92.8512C125.426 93.0388 124.878 93.2001 124.317 93.3353L124.25 93.058C123.71 93.1884 123.157 93.2941 122.595 93.3752L122.635 93.6576C122.076 93.7382 121.507 93.7949 120.93 93.8275L120.914 93.5427C120.357 93.5743 119.793 93.5832 119.222 93.5696L119.216 93.8548C118.651 93.8413 118.081 93.806 117.507 93.749L117.535 93.4652C116.979 93.4101 116.419 93.3344 115.856 93.2382L115.808 93.5194C115.251 93.4241 114.691 93.309 114.129 93.1741L114.196 92.8967C113.652 92.7661 113.107 92.6167 112.561 92.4485L112.477 92.7211C111.936 92.5545 111.395 92.3696 110.854 92.1666L110.955 91.8996C110.43 91.7026 109.907 91.4883 109.385 91.2568L109.269 91.5176C108.751 91.288 108.235 91.0416 107.722 90.7786L107.852 90.5248C107.353 90.2688 106.856 89.9968 106.363 89.709L106.219 89.9553C105.73 89.6699 105.244 89.3689 104.763 89.0525L104.92 88.8142C104.45 88.5053 103.984 88.1816 103.524 87.8431L103.355 88.073C102.898 87.7377 102.447 87.388 102.001 87.0239L102.182 86.803C101.963 86.6242 101.745 86.4419 101.529 86.2561C101.313 86.0701 101.1 85.8822 100.89 85.6924L100.699 85.9039C100.272 85.5176 99.8583 85.1234 99.4581 84.7221L99.6601 84.5207C99.2563 84.1157 98.8662 83.7035 98.4902 83.2849L98.278 83.4756C97.8929 83.0468 97.5224 82.6114 97.1666 82.1702L97.3887 81.9912C97.0299 81.5463 96.6864 81.0955 96.3582 80.6398L96.1267 80.8064C95.7896 80.3383 95.4685 79.8648 95.1636 79.387L95.4041 79.2336C95.0969 78.752 94.8063 78.266 94.5326 77.7767L94.2836 77.9159C94.0018 77.4119 93.7376 76.9042 93.4914 76.3941L93.7483 76.2701C93.5 75.7555 93.2702 75.2385 93.0592 74.7201L92.795 74.8276C92.5771 74.2924 92.379 73.7557 92.2008 73.2186L92.4716 73.1288C92.2917 72.5864 92.1325 72.0438 91.9942 71.5024L91.7178 71.573C91.5749 71.0133 91.454 70.4546 91.3555 69.8982L91.6364 69.8485C91.5368 69.2861 91.4604 68.7264 91.4075 68.1709L91.1236 68.1979C91.0688 67.6226 91.0388 67.0514 91.0339 66.4858L91.3192 66.4833C91.3143 65.9147 91.3352 65.3522 91.3823 64.7974L91.098 64.7733C91.1468 64.1984 91.2232 63.6314 91.3276 63.074L91.608 63.1265C91.7122 62.5705 91.8447 62.0245 92.0059 61.4904L91.7328 61.408C91.8986 60.8586 92.0943 60.3213 92.3202 59.7979L92.5821 59.9109C92.8043 59.3964 93.0562 58.8958 93.3383 58.411L93.0917 58.2675C93.3779 57.7756 93.6946 57.2995 94.0423 56.8409L94.2696 57.0133C94.4382 56.791 94.6142 56.5729 94.7977 56.3592Z" fill="#F65D51"/>
<path d="M94.7977 56.3592L94.7985 56.3582C95.076 56.0321 95.3525 55.7082 95.6285 55.3854L95.4117 55.2C95.9514 54.5689 96.4893 53.9425 97.0299 53.3129C97.0458 53.2944 97.0616 53.2759 97.0775 53.2575L97.2939 53.4433C97.5708 53.1209 97.8484 52.7975 98.1274 52.4723C98.3106 52.2586 98.4993 52.0517 98.6933 51.8515L98.4884 51.653C98.8886 51.2401 99.3108 50.855 99.7531 50.4978L99.9323 50.7197C100.368 50.3675 100.825 50.0427 101.299 49.7453L101.147 49.5036C101.63 49.201 102.131 48.9262 102.648 48.6791L102.771 48.9365C103.274 48.6963 103.793 48.4826 104.327 48.2955L104.232 48.0263C104.767 47.8386 105.315 47.6773 105.876 47.5421L105.943 47.8194C106.483 47.6889 107.036 47.5831 107.598 47.5019L107.557 47.2196C108.117 47.1388 108.686 47.0821 109.262 47.0493L109.278 47.3341C109.835 47.3025 110.399 47.2935 110.97 47.307L110.977 47.0218C111.541 47.0351 112.111 47.0703 112.685 47.1271L112.657 47.411C113.213 47.466 113.773 47.5415 114.336 47.6376L114.384 47.3564C114.941 47.4515 115.501 47.5665 116.062 47.7012L115.996 47.9786C116.54 48.1091 117.085 48.2583 117.63 48.4263L117.714 48.1536C118.255 48.3202 118.797 48.5049 119.337 48.7077L119.237 48.9747C119.761 49.1716 120.285 49.3857 120.806 49.617L120.922 49.3562C121.44 49.5856 121.956 49.8318 122.469 50.0946L122.339 50.3485C122.838 50.6044 123.335 50.8762 123.828 51.1639L123.972 50.9175C124.461 51.2028 124.947 51.5036 125.428 51.8198L125.271 52.0582C125.741 52.3669 126.207 52.6905 126.667 53.0288L126.836 52.7989C127.293 53.1341 127.744 53.4837 128.19 53.8476L128.009 54.0685C128.228 54.2473 128.446 54.4296 128.662 54.6153C128.878 54.8012 129.091 54.9892 129.301 55.179L129.492 54.9675C129.919 55.3539 130.333 55.7482 130.733 56.1495L130.531 56.3509C130.935 56.7559 131.325 57.1682 131.701 57.5868L131.913 57.3962C132.298 57.825 132.669 58.2605 133.025 58.7018L132.803 58.8808C133.161 59.3257 133.505 59.7766 133.833 60.2324L134.065 60.0658C134.402 60.534 134.723 61.0076 135.028 61.4854L134.787 61.6389C135.095 62.1205 135.385 62.6066 135.659 63.096L135.908 62.9567C136.19 63.4609 136.454 63.9686 136.7 64.4789L136.443 64.6028C136.691 65.1175 136.921 65.6346 137.132 66.1531L137.397 66.0455C137.614 66.5808 137.813 67.1176 137.991 67.6548L137.72 67.7446C137.9 68.2871 138.059 68.8297 138.197 69.3713L138.474 69.3007C138.617 69.8604 138.737 70.4192 138.836 70.9757L138.555 71.0254C138.655 71.5878 138.731 72.1476 138.784 72.7032L139.068 72.6762C139.123 73.2516 139.153 73.8229 139.158 74.3886L138.872 74.391C138.877 74.9598 138.856 75.5224 138.809 76.0772L139.094 76.1013C139.045 76.6762 138.969 77.2434 138.864 77.8009L138.584 77.7484C138.48 78.3046 138.348 78.8506 138.186 79.3848L138.46 79.4672C138.294 80.0167 138.098 80.5542 137.873 81.0778L137.611 80.9648C137.389 81.4795 137.137 81.9803 136.855 82.4654L137.102 82.6087C136.816 83.1008 136.499 83.5772 136.152 84.036L135.925 83.8638C135.756 84.0863 135.58 84.3045 135.397 84.5183L135.396 84.5191C135.119 84.8452 134.842 85.1691 134.566 85.4918L134.783 85.6772C134.25 86.2997 133.72 86.9176 133.187 87.5384C133.164 87.5655 133.14 87.5926 133.117 87.6196L132.901 87.4338C132.624 87.7562 132.346 88.0796 132.067 88.4048C131.884 88.6185 131.695 88.8254 131.501 89.0256L131.706 89.2241C131.306 89.6372 130.884 90.0222 130.441 90.3796L130.262 90.1576C129.826 90.5099 129.37 90.8347 128.895 91.1321L129.047 91.3738C128.564 91.6765 128.063 91.9513 127.545 92.1984L127.422 91.941C126.919 92.1812 126.4 92.3948 125.867 92.582L125.961 92.8512C125.426 93.0388 124.878 93.2001 124.317 93.3353L124.25 93.058C123.71 93.1884 123.157 93.2941 122.595 93.3752L122.635 93.6576C122.076 93.7382 121.507 93.7949 120.93 93.8275L120.914 93.5427C120.357 93.5743 119.793 93.5832 119.222 93.5696L119.216 93.8548C118.651 93.8413 118.081 93.806 117.507 93.749L117.535 93.4652C116.979 93.4101 116.419 93.3344 115.856 93.2382L115.808 93.5194C115.251 93.4241 114.691 93.309 114.129 93.1741L114.196 92.8967C113.652 92.7661 113.107 92.6167 112.561 92.4485L112.477 92.7211C111.936 92.5545 111.395 92.3696 110.854 92.1666L110.955 91.8996C110.43 91.7026 109.907 91.4883 109.385 91.2568L109.269 91.5176C108.751 91.288 108.235 91.0416 107.722 90.7786L107.852 90.5248C107.353 90.2688 106.856 89.9968 106.363 89.709L106.219 89.9553C105.73 89.6699 105.244 89.3689 104.763 89.0525L104.92 88.8142C104.45 88.5053 103.984 88.1816 103.524 87.8431L103.355 88.073C102.898 87.7377 102.447 87.388 102.001 87.0239L102.182 86.803C101.963 86.6242 101.745 86.4419 101.529 86.2561C101.313 86.0701 101.1 85.8822 100.89 85.6924L100.699 85.9039C100.272 85.5176 99.8583 85.1234 99.4581 84.7221L99.6601 84.5207C99.2563 84.1157 98.8662 83.7035 98.4902 83.2849L98.278 83.4756C97.8929 83.0468 97.5224 82.6114 97.1666 82.1702L97.3887 81.9912C97.0299 81.5463 96.6864 81.0955 96.3582 80.6398L96.1267 80.8064C95.7896 80.3383 95.4685 79.8648 95.1636 79.387L95.4041 79.2336C95.0969 78.752 94.8063 78.266 94.5326 77.7767L94.2836 77.9159C94.0018 77.4119 93.7376 76.9042 93.4914 76.3941L93.7483 76.2701C93.5 75.7555 93.2702 75.2385 93.0592 74.7201L92.795 74.8276C92.5771 74.2924 92.379 73.7557 92.2008 73.2186L92.4716 73.1288C92.2917 72.5864 92.1325 72.0438 91.9942 71.5024L91.7178 71.573C91.5749 71.0133 91.454 70.4546 91.3555 69.8982L91.6364 69.8485C91.5368 69.2861 91.4604 68.7264 91.4075 68.1709L91.1236 68.1979C91.0688 67.6226 91.0388 67.0514 91.0339 66.4858L91.3192 66.4833C91.3143 65.9147 91.3352 65.3522 91.3823 64.7974L91.098 64.7733C91.1468 64.1984 91.2232 63.6314 91.3276 63.074L91.608 63.1265C91.7122 62.5705 91.8447 62.0245 92.0059 61.4904L91.7328 61.408C91.8986 60.8586 92.0943 60.3213 92.3202 59.7979L92.5821 59.9109C92.8043 59.3964 93.0562 58.8958 93.3383 58.411L93.0917 58.2675C93.3779 57.7756 93.6946 57.2995 94.0423 56.8409L94.2696 57.0133C94.4382 56.791 94.6142 56.5729 94.7977 56.3592Z" stroke="black" stroke-width="0.570536" stroke-dasharray="1.71 1.71"/>
</g>
<path d="M94.9606 56.4991L94.962 56.4974C95.2394 56.1714 95.5158 55.8476 95.7917 55.525L95.4117 55.2C95.9514 54.5689 96.4893 53.9425 97.0299 53.3129C97.0458 53.2944 97.0616 53.2759 97.0775 53.2575L97.4569 53.5832C97.7337 53.2608 98.0113 52.9374 98.2903 52.6121C98.4707 52.4017 98.6565 52.198 98.8475 52.001L98.4884 51.653C98.8886 51.2401 99.3108 50.855 99.7531 50.4978L100.067 50.8868C100.497 50.54 100.946 50.2202 101.413 49.9272L101.147 49.5036C101.63 49.201 102.131 48.9262 102.648 48.6791L102.864 49.1303C103.36 48.8935 103.872 48.6828 104.398 48.4981L104.232 48.0263C104.767 47.8386 105.315 47.6773 105.876 47.5421L105.993 48.0281C106.527 47.8993 107.073 47.7947 107.629 47.7145L107.557 47.2196C108.117 47.1388 108.686 47.0821 109.262 47.0493L109.29 47.5485C109.841 47.5172 110.4 47.5083 110.965 47.5216L110.977 47.0218C111.541 47.0351 112.111 47.0703 112.685 47.1271L112.636 47.6247C113.187 47.6792 113.742 47.754 114.299 47.8493L114.384 47.3564C114.941 47.4515 115.501 47.5665 116.062 47.7012L115.946 48.1874C116.485 48.3168 117.026 48.4649 117.567 48.6315L117.714 48.1536C118.255 48.3202 118.797 48.5049 119.337 48.7077L119.161 49.1758C119.682 49.3712 120.201 49.5837 120.719 49.8133L120.922 49.3562C121.44 49.5856 121.956 49.8318 122.469 50.0946L122.241 50.5397C122.737 50.7937 123.23 51.0636 123.72 51.3494L123.972 50.9175C124.461 51.2028 124.947 51.5036 125.428 51.8198L125.153 52.2377C125.62 52.5443 126.083 52.8658 126.54 53.2019L126.836 52.7989C127.293 53.1341 127.744 53.4837 128.19 53.8476L127.873 54.2349C128.091 54.4125 128.307 54.5935 128.522 54.7781C128.736 54.9628 128.948 55.1496 129.157 55.3382L129.492 54.9675C129.919 55.3539 130.333 55.7482 130.733 56.1495L130.379 56.5026C130.78 56.9049 131.168 57.3145 131.541 57.7303L131.913 57.3962C132.298 57.825 132.669 58.2605 133.025 58.7018L132.635 59.0156C132.992 59.4575 133.333 59.9052 133.659 60.3579L134.065 60.0658C134.402 60.534 134.723 61.0076 135.028 61.4854L134.606 61.7544C134.911 62.2326 135.2 62.715 135.471 63.2008L135.908 62.9567C136.19 63.4609 136.454 63.9686 136.7 64.4789L136.25 64.6961C136.496 65.2068 136.724 65.7198 136.933 66.234L137.397 66.0455C137.614 66.5808 137.813 67.1176 137.991 67.6548L137.516 67.8122C137.694 68.35 137.852 68.8878 137.989 69.4244L138.474 69.3007C138.617 69.8604 138.737 70.4192 138.836 70.9757L138.344 71.0628C138.442 71.6198 138.518 72.1738 138.57 72.7236L139.068 72.6762C139.123 73.2516 139.153 73.8229 139.158 74.3886L138.658 74.3929C138.663 74.9552 138.642 75.5111 138.596 76.0591L139.094 76.1013C139.045 76.6762 138.969 77.2434 138.864 77.8009L138.373 77.7089C138.27 78.2577 138.14 78.7962 137.981 79.3229L138.46 79.4672C138.294 80.0167 138.098 80.5542 137.873 81.0778L137.414 80.8798C137.195 81.3867 136.947 81.8799 136.669 82.3575L137.102 82.6087C136.816 83.1008 136.499 83.5772 136.152 84.036L135.753 83.7342C135.587 83.9532 135.414 84.168 135.234 84.3785L135.233 84.3799C134.955 84.7059 134.679 85.0296 134.403 85.3522L134.783 85.6772C134.25 86.2997 133.72 86.9176 133.187 87.5384C133.164 87.5655 133.14 87.5926 133.117 87.6196L132.738 87.2939C132.461 87.6163 132.183 87.9397 131.904 88.265C131.724 88.4754 131.538 88.6791 131.347 88.8762L131.706 89.2241C131.306 89.6372 130.884 90.0222 130.441 90.3796L130.127 89.9906C129.698 90.3374 129.248 90.6572 128.781 90.9502L129.047 91.3738C128.564 91.6765 128.063 91.9513 127.545 92.1984L127.33 91.7472C126.834 91.984 126.322 92.1947 125.796 92.3794L125.961 92.8512C125.426 93.0388 124.878 93.2001 124.317 93.3353L124.2 92.8492C123.666 92.978 123.12 93.0825 122.564 93.1627L122.635 93.6576C122.076 93.7382 121.507 93.7949 120.93 93.8275L120.902 93.3283C120.351 93.3596 119.793 93.3684 119.228 93.3549L119.216 93.8548C118.651 93.8413 118.081 93.806 117.507 93.749L117.556 93.2515C117.005 93.1969 116.45 93.1219 115.892 93.0265L115.808 93.5194C115.251 93.4241 114.691 93.309 114.129 93.1741L114.246 92.6879C113.706 92.5584 113.166 92.4101 112.624 92.2433L112.477 92.7211C111.936 92.5545 111.395 92.3696 110.854 92.1666L111.03 91.6986C110.51 91.503 109.99 91.2903 109.472 91.0605L109.269 91.5176C108.751 91.288 108.235 91.0416 107.722 90.7786L107.95 90.3337C107.454 90.0795 106.961 89.8094 106.471 89.5235L106.219 89.9553C105.73 89.6699 105.244 89.3689 104.763 89.0525L105.038 88.6347C104.571 88.3279 104.108 88.0064 103.651 87.6701L103.355 88.073C102.898 87.7377 102.447 87.388 102.001 87.0239L102.318 86.6367C102.1 86.459 101.884 86.2779 101.669 86.0932C101.454 85.9085 101.243 85.7218 101.034 85.5332L100.699 85.9039C100.272 85.5176 99.8583 85.1234 99.4581 84.7221L99.8122 84.369C99.4109 83.9667 99.0235 83.5572 98.65 83.1414L98.278 83.4756C97.8929 83.0468 97.5224 82.6114 97.1666 82.1702L97.5558 81.8564C97.1995 81.4145 96.8584 80.9669 96.5325 80.5143L96.1267 80.8064C95.7896 80.3383 95.4685 79.8648 95.1636 79.387L95.5852 79.118C95.2801 78.6399 94.9916 78.1575 94.72 77.6719L94.2836 77.9159C94.0018 77.4119 93.7376 76.9042 93.4914 76.3941L93.9417 76.1768C93.6953 75.6662 93.4674 75.1533 93.2581 74.6391L92.795 74.8276C92.5771 74.2924 92.379 73.7557 92.2008 73.2186L92.6754 73.0612C92.4971 72.5235 92.3393 71.9857 92.2023 71.4493L91.7178 71.573C91.5749 71.0133 91.454 70.4546 91.3555 69.8982L91.8478 69.8111C91.7493 69.2542 91.6737 68.7002 91.6213 68.1505L91.1236 68.1979C91.0688 67.6226 91.0388 67.0514 91.0339 66.4858L91.5339 66.4815C91.5291 65.9193 91.5498 65.3635 91.5962 64.8156L91.098 64.7733C91.1468 64.1984 91.2232 63.6314 91.3276 63.074L91.8191 63.1661C91.9219 62.6174 92.0526 62.0789 92.2115 61.5525L91.7328 61.408C91.8986 60.8586 92.0943 60.3213 92.3202 59.7979L92.7793 59.996C92.9981 59.4892 93.2462 58.9963 93.5239 58.519L93.0917 58.2675C93.3779 57.7756 93.6946 57.2995 94.0423 56.8409L94.4407 57.143C94.6066 56.9242 94.7799 56.7095 94.9606 56.4991Z" fill="#F65D51" stroke="black" stroke-dasharray="1.71 1.71"/>
<path d="M131.906 88.2683C131.726 88.4787 131.54 88.6824 131.349 88.8795L131.708 89.2275C131.308 89.6405 130.886 90.0255 130.443 90.3828L130.129 89.9938C129.7 90.3406 129.25 90.6604 128.783 90.9534L129.049 91.377C128.566 91.6797 128.065 91.9544 127.547 92.2015L127.332 91.7502C126.836 91.987 126.324 92.1977 125.797 92.3823L125.963 92.8541C125.428 93.0417 124.879 93.203 124.319 93.3381L124.202 92.852C123.667 92.9808 123.121 93.0852 122.565 93.1654L122.637 93.6603C122.077 93.7409 121.508 93.7975 120.932 93.8302L120.903 93.331C120.353 93.3622 119.794 93.371 119.229 93.3575L119.217 93.8574C118.652 93.8439 118.082 93.8086 117.508 93.7516L117.557 93.2541C117.007 93.1995 116.452 93.1245 115.894 93.0291L115.809 93.522C115.252 93.4267 114.692 93.3116 114.13 93.1768L114.247 92.6906C113.708 92.5611 113.167 92.4129 112.625 92.2461L112.478 92.7239C111.937 92.5573 111.396 92.3724 110.855 92.1695L111.031 91.7014C110.511 91.5059 109.991 91.2933 109.473 91.0635L109.27 91.5206C108.752 91.291 108.236 91.0447 107.723 90.7818L107.951 90.3368C107.455 90.0826 106.962 89.8126 106.472 89.5267L106.22 89.9586C105.731 89.6731 105.245 89.3722 104.763 89.0559L105.038 88.638C104.571 88.3313 104.109 88.0098 103.651 87.6735L103.355 88.0765C102.899 87.7412 102.447 87.3915 102.002 87.0275L102.318 86.6402C102.1 86.4626 101.884 86.2814 101.669 86.0968C101.454 85.9121 101.243 85.7254 101.034 85.5368L100.699 85.9075C100.272 85.5212 99.8582 85.127 99.4579 84.7257L99.8119 84.3726C99.4106 83.9702 99.0231 83.5607 98.6495 83.1449L98.2776 83.4791C97.8924 83.0503 97.5218 82.6149 97.1659 82.1736L97.5551 81.8598C97.1988 81.4179 96.8575 80.9702 96.5316 80.5175L96.1258 80.8097C95.7887 80.3415 95.4675 79.868 95.1626 79.3901L95.5841 79.1212C95.279 78.643 94.9905 78.1605 94.7189 77.6748L94.2825 77.9189C94.0006 77.4148 93.7364 76.9071 93.4901 76.3968L93.9404 76.1795C93.694 75.6689 93.4661 75.1559 93.2567 74.6417L92.7936 74.8302C92.5757 74.2949 92.3776 73.7581 92.1994 73.2209L92.674 73.0635C92.4956 72.5257 92.3378 71.988 92.2007 71.4514L91.7163 71.5751C91.5733 71.0154 91.4524 70.4566 91.3539 69.9002L91.8462 69.813C91.7476 69.2561 91.6719 68.702 91.6195 68.1522L91.1218 68.1997C91.067 67.6243 91.0369 67.053 91.032 66.4873L91.532 66.483C91.5271 65.9207 91.5477 65.3648 91.5941 64.8168L91.0958 64.7746C91.1445 64.1996 91.2208 63.6325 91.3251 63.075L91.8166 63.167C91.9193 62.6182 92.0498 62.0796 92.2085 61.553L91.7298 61.4087C91.8955 60.8592 92.0909 60.3217 92.3167 59.7981L92.7758 59.9961C92.9945 59.4891 93.2423 58.9959 93.5198 58.5184L93.0875 58.2672C93.3735 57.775 93.69 57.2987 94.0374 56.8399L94.436 57.1417C94.6019 56.9228 94.775 56.7079 94.9556 56.4974L94.576 56.1719L94.9556 56.4974C95.136 56.2871 95.3218 56.0833 95.5128 55.8863L95.1538 55.5383C95.554 55.1253 95.9764 54.7402 96.4188 54.3829L96.7329 54.7719C97.1624 54.4252 97.6117 54.1054 98.079 53.8124L97.8135 53.3888C98.2963 53.0861 98.7974 52.8114 99.3149 52.5644L99.5303 53.0156C100.026 52.7789 100.538 52.5682 101.065 52.3836L100.899 51.9118C101.434 51.7242 101.983 51.5629 102.543 51.4278L102.66 51.9139C103.195 51.7851 103.741 51.6807 104.297 51.6005L104.225 51.1057C104.785 51.025 105.354 50.9684 105.93 50.9358L105.959 51.435C106.509 51.4038 107.068 51.395 107.633 51.4085L107.645 50.9086C108.21 50.9221 108.78 50.9574 109.354 51.0144L109.305 51.5119C109.855 51.5665 110.41 51.6415 110.968 51.7369L111.053 51.244C111.61 51.3393 112.17 51.4544 112.732 51.5893L112.615 52.0755C113.154 52.205 113.695 52.3532 114.237 52.52L114.384 52.0421C114.925 52.2088 115.466 52.3937 116.007 52.5966L115.831 53.0647C116.351 53.2602 116.871 53.4728 117.389 53.7026L117.592 53.2455C118.11 53.4751 118.626 53.7214 119.139 53.9843L118.911 54.4293C119.407 54.6835 119.9 54.9535 120.39 55.2394L120.642 54.8075C121.131 55.093 121.617 55.3939 122.098 55.7102L121.824 56.128C122.291 56.4348 122.753 56.7563 123.211 57.0925L123.507 56.6896C123.963 57.0249 124.415 57.3746 124.86 57.7385L124.544 58.1258C124.762 58.3035 124.978 58.4846 125.193 58.6692C125.407 58.8539 125.619 59.0406 125.828 59.2292L126.163 58.8585C126.59 59.2448 127.004 59.639 127.404 60.0403L127.05 60.3934C127.451 60.7957 127.839 61.2052 128.212 61.621L128.584 61.2869C128.97 61.7156 129.34 62.1511 129.696 62.5923L129.307 62.9062C129.663 63.348 130.004 63.7957 130.33 64.2484L130.736 63.9562C131.073 64.4244 131.394 64.8979 131.699 65.3758L131.278 65.6447C131.583 66.1229 131.871 66.6054 132.143 67.0911L132.579 66.847C132.861 67.3511 133.126 67.8588 133.372 68.3691L132.921 68.5864C133.168 69.097 133.396 69.61 133.605 70.1242L134.068 69.9357C134.286 70.4709 134.484 71.0078 134.662 71.5449L134.188 71.7024C134.366 72.2401 134.524 72.7779 134.661 73.3144L135.146 73.1907C135.288 73.7504 135.409 74.3092 135.508 74.8657L135.016 74.9529C135.114 75.5098 135.19 76.0638 135.242 76.6136L135.74 76.5661C135.795 77.1415 135.825 77.7128 135.83 78.2785L135.33 78.2828C135.335 78.8451 135.314 79.401 135.268 79.949L135.766 79.9912C135.717 80.5661 135.641 81.1333 135.537 81.6907L135.045 81.5988C134.943 82.1476 134.812 82.6862 134.653 83.2128L135.132 83.3571C134.966 83.9066 134.771 84.4441 134.545 84.9676L134.086 84.7697C133.867 85.2766 133.62 85.7698 133.342 86.2473L133.774 86.4986C133.488 86.9907 133.172 87.4671 132.824 87.9258L132.426 87.624C132.26 87.843 132.087 88.0578 131.906 88.2683L132.286 88.5938L131.906 88.2683Z" fill="#F65D51" stroke="black" stroke-dasharray="1.71 1.71"/>
<path d="M109.164 108.194L109.112 108.445L109.119 108.446L107.941 114.101C106.979 118.718 103.52 122.382 98.6632 124.561C93.8066 126.739 87.5697 127.421 81.1071 126.076C74.6446 124.731 69.1986 121.616 65.6157 117.681C62.0326 113.745 60.3246 109.006 61.2863 104.389L62.5166 98.4833C63.4785 93.8665 66.9374 90.2022 71.7943 88.0236C76.6508 85.8452 82.8877 85.1628 89.3503 86.5081C95.813 87.8534 101.257 90.9675 104.838 94.9024C108.42 98.8376 110.126 103.577 109.164 108.194Z" fill="#F65D51" stroke="#F65D51" stroke-width="0.5"/>
<g style="mix-blend-mode:multiply" opacity="0.3">
<path d="M109.164 108.195L109.112 108.447L109.119 108.448L107.941 114.102C106.979 118.719 103.52 122.383 98.6632 124.562C93.8066 126.74 87.5697 127.423 81.1071 126.078C74.6446 124.732 69.1986 121.618 65.6157 117.682C62.0326 113.747 60.3246 109.007 61.2863 104.39L62.5166 98.4847C63.4785 93.8679 66.9374 90.2037 71.7943 88.0251C76.6508 85.8467 82.8877 85.1642 89.3503 86.5095C95.813 87.8548 101.257 90.9689 104.838 94.9038C108.42 98.839 110.126 103.578 109.164 108.195Z" fill="#F65D51" stroke="#F65D51" stroke-width="0.5"/>
<path d="M109.164 108.195L109.112 108.447L109.119 108.448L107.941 114.102C106.979 118.719 103.52 122.383 98.6632 124.562C93.8066 126.74 87.5697 127.423 81.1071 126.078C74.6446 124.732 69.1986 121.618 65.6157 117.682C62.0326 113.747 60.3246 109.007 61.2863 104.39L62.5166 98.4847C63.4785 93.8679 66.9374 90.2037 71.7943 88.0251C76.6508 85.8467 82.8877 85.1642 89.3503 86.5095C95.813 87.8548 101.257 90.9689 104.838 94.9038C108.42 98.839 110.126 103.578 109.164 108.195Z" fill="#F65D51" stroke="#F65D51" stroke-width="0.5"/>
</g>
<path d="M109.164 108.194L109.112 108.445L109.119 108.446L107.941 114.101C106.979 118.718 103.52 122.382 98.6632 124.561C93.8066 126.739 87.5697 127.421 81.1071 126.076C74.6446 124.731 69.1986 121.616 65.6157 117.681C62.0326 113.745 60.3246 109.006 61.2863 104.389L62.5166 98.4833C63.4785 93.8665 66.9374 90.2022 71.7943 88.0236C76.6508 85.8452 82.8877 85.1628 89.3503 86.5081C95.813 87.8534 101.257 90.9675 104.838 94.9024C108.42 98.8376 110.126 103.577 109.164 108.194Z" fill="#F65D51" stroke="black" stroke-width="0.5"/>
<path d="M62.5169 98.4835L62.2727 98.4326L62.5169 98.4835C63.4788 93.866 66.9373 90.2017 71.794 88.0232C76.6504 85.8449 82.8873 85.1628 89.3506 86.5083L89.4015 86.2635L89.3506 86.5083C95.8139 87.8537 101.26 90.9679 104.843 94.903C108.426 98.8384 110.133 103.578 109.171 108.195C108.209 112.813 104.751 116.477 99.8943 118.656C95.038 120.834 88.8011 121.516 82.3377 120.171C75.8743 118.825 70.4283 115.711 66.8456 111.776C63.2626 107.84 61.555 103.101 62.5169 98.4835Z" fill="#F65D51" stroke="black" stroke-width="0.5"/>
</g>
<defs>
<filter id="filter0_d_8966_2126" x="0.330078" y="0.90625" width="175.004" height="174.799" filterUnits="userSpaceOnUse" color-interpolation-filters="sRGB">
<feFlood flood-opacity="0" result="BackgroundImageFix"/>
<feColorMatrix in="SourceAlpha" type="matrix" values="0 0 0 0 0 0 0 0 0 0 0 0 0 0 0 0 0 0 127 0" result="hardAlpha"/>
<feOffset/>
<feGaussianBlur stdDeviation="10"/>
<feComposite in2="hardAlpha" operator="out"/>
<feColorMatrix type="matrix" values="0 0 0 0 0.972549 0 0 0 0 0.701961 0 0 0 0 0.454902 0 0 0 1 0"/>
<feBlend mode="normal" in2="BackgroundImageFix" result="effect1_dropShadow_8966_2126"/>
<feBlend mode="normal" in="SourceGraphic" in2="effect1_dropShadow_8966_2126" result="shape"/>
</filter>
</defs>
</svg>
