<svg width="272" height="271" viewBox="0 0 272 271" fill="none" xmlns="http://www.w3.org/2000/svg">
<g filter="url(#filter0_f_9214_2029)">
<path d="M135.999 220.957C183.014 220.957 221.128 182.901 221.128 135.957C221.128 89.0128 183.014 50.957 135.999 50.957C88.9829 50.957 50.8691 89.0128 50.8691 135.957C50.8691 182.901 88.9829 220.957 135.999 220.957Z" fill="url(#paint0_linear_9214_2029)"/>
<path d="M220.628 135.957C220.628 182.624 182.739 220.457 135.999 220.457C89.2583 220.457 51.3691 182.624 51.3691 135.957C51.3691 89.2897 89.2583 51.457 135.999 51.457C182.739 51.457 220.628 89.2897 220.628 135.957Z" stroke="#F65D51"/>
</g>
<path d="M220.628 135.957C220.628 182.624 182.739 220.457 135.999 220.457C89.2583 220.457 51.3691 182.624 51.3691 135.957C51.3691 89.2897 89.2583 51.457 135.999 51.457C182.739 51.457 220.628 89.2897 220.628 135.957Z" fill="white" fill-opacity="0.5" stroke="#F65D51"/>
<path d="M130.259 102.95C132.269 103.535 133.597 104.505 134.149 105.829C134.351 106.317 134.849 107.51 135.339 108.684C135.803 109.795 136.259 110.888 136.45 111.349L136.45 111.349C137.003 112.674 136.757 114.3 135.759 116.139C134.764 117.976 133.037 119.988 130.702 122.052C126.036 126.178 118.984 130.473 110.651 133.947C102.318 137.421 94.3016 139.411 88.0835 139.824C84.9732 140.031 82.3271 139.841 80.3205 139.256C78.3114 138.67 76.9831 137.7 76.4306 136.373C76.2326 135.894 75.7563 134.753 75.2803 133.613L75.2801 133.612C74.8037 132.471 74.3276 131.331 74.13 130.853L74.1297 130.853C73.5773 129.528 73.823 127.902 74.8202 126.063C75.8161 124.226 77.5428 122.214 79.8772 120.15C84.5439 116.024 91.5954 111.729 99.9286 108.255C108.262 104.78 116.278 102.793 122.496 102.381C125.606 102.175 128.253 102.365 130.259 102.95Z" fill="#F65D51" stroke="#F65D51" stroke-width="0.5"/>
<g style="mix-blend-mode:multiply" opacity="0.3">
<path d="M130.259 102.951C132.269 103.537 133.597 104.506 134.149 105.831C134.351 106.319 134.849 107.512 135.339 108.685C135.803 109.796 136.259 110.89 136.45 111.35L136.45 111.351C137.003 112.676 136.757 114.301 135.759 116.14C134.764 117.977 133.037 119.99 130.702 122.054C126.036 126.18 118.984 130.474 110.651 133.949C102.318 137.423 94.3016 139.413 88.0835 139.825C84.9732 140.032 82.3271 139.843 80.3205 139.258C78.3114 138.671 76.9831 137.701 76.4306 136.374C76.2326 135.895 75.7563 134.754 75.2803 133.614L75.2801 133.614C74.8037 132.473 74.3276 131.333 74.13 130.855L74.1297 130.854C73.5773 129.529 73.823 127.904 74.8202 126.065C75.8161 124.228 77.5428 122.215 79.8772 120.151C84.5439 116.025 91.5954 111.731 99.9286 108.256C108.262 104.782 116.278 102.794 122.496 102.383C125.606 102.177 128.253 102.366 130.259 102.951Z" fill="#F65D51" stroke="#F65D51" stroke-width="0.5"/>
<path d="M130.259 102.951C132.269 103.537 133.597 104.506 134.149 105.831C134.351 106.319 134.849 107.512 135.339 108.685C135.803 109.796 136.259 110.89 136.45 111.35L136.45 111.351C137.003 112.676 136.757 114.301 135.759 116.14C134.764 117.977 133.037 119.99 130.702 122.054C126.036 126.18 118.984 130.474 110.651 133.949C102.318 137.423 94.3016 139.413 88.0835 139.825C84.9732 140.032 82.3271 139.843 80.3205 139.258C78.3114 138.671 76.9831 137.701 76.4306 136.374C76.2326 135.895 75.7563 134.754 75.2803 133.614L75.2801 133.614C74.8037 132.473 74.3276 131.333 74.13 130.855L74.1297 130.854C73.5773 129.529 73.823 127.904 74.8202 126.065C75.8161 124.228 77.5428 122.215 79.8772 120.151C84.5439 116.025 91.5954 111.731 99.9286 108.256C108.262 104.782 116.278 102.794 122.496 102.383C125.606 102.177 128.253 102.366 130.259 102.951Z" fill="#F65D51" stroke="#F65D51" stroke-width="0.5"/>
</g>
<path d="M130.259 102.95C132.269 103.535 133.597 104.505 134.149 105.829C134.351 106.317 134.849 107.51 135.339 108.684C135.803 109.795 136.259 110.888 136.45 111.349L136.45 111.349C137.003 112.674 136.757 114.3 135.759 116.139C134.764 117.976 133.037 119.988 130.702 122.052C126.036 126.178 118.984 130.473 110.651 133.947C102.318 137.421 94.3016 139.411 88.0835 139.824C84.9732 140.031 82.3271 139.841 80.3205 139.256C78.3114 138.67 76.9831 137.7 76.4306 136.373C76.2326 135.894 75.7563 134.753 75.2803 133.613L75.2801 133.612C74.8037 132.471 74.3276 131.331 74.13 130.853L74.1297 130.853C73.5773 129.528 73.823 127.902 74.8202 126.063C75.8161 124.226 77.5428 122.214 79.8772 120.15C84.5439 116.024 91.5954 111.729 99.9286 108.255C108.262 104.78 116.278 102.793 122.496 102.381C125.606 102.175 128.253 102.365 130.259 102.95Z" fill="#F65D51" stroke="#F65D51" stroke-width="0.5"/>
<path d="M74.1298 130.853L74.1297 130.853C73.5773 129.528 73.823 127.902 74.8202 126.063C75.8161 124.226 77.5428 122.214 79.8772 120.15C84.5439 116.024 91.5954 111.729 99.9286 108.255C108.262 104.78 116.278 102.793 122.496 102.381C125.606 102.175 128.253 102.365 130.259 102.95C132.269 103.535 133.597 104.505 134.149 105.83C134.702 107.154 134.456 108.78 133.459 110.619C132.463 112.456 130.736 114.468 128.402 116.532C123.735 120.659 116.683 124.953 108.35 128.428C100.017 131.902 92.0009 133.892 85.7828 134.305C82.6724 134.511 80.0263 134.322 78.0198 133.737C76.0106 133.15 74.6822 132.18 74.1298 130.853Z" fill="#F65D51" stroke="black" stroke-width="0.5"/>
<path d="M144.562 95.9318L144.563 95.9308C144.738 95.7256 144.912 95.521 145.086 95.317L144.869 95.1319C145.219 94.7213 145.569 94.313 145.918 93.9055L146.134 94.0911C146.484 93.6825 146.834 93.2748 147.185 92.8666L146.968 92.6807C147.123 92.5001 147.278 92.3194 147.434 92.1385C147.629 91.9115 147.824 91.6843 148.019 91.4564L148.236 91.6422L148.761 91.0299C148.94 90.8217 149.122 90.6186 149.309 90.4206L149.101 90.225C149.483 89.8195 149.882 89.4348 150.296 89.0707L150.484 89.2849C150.895 88.9237 151.321 88.5831 151.761 88.263L151.594 88.0322C152.042 87.7064 152.505 87.4015 152.981 87.1176L153.127 87.3626C153.595 87.0839 154.076 86.8256 154.569 86.5875L154.445 86.3306C154.941 86.0907 155.45 85.8712 155.97 85.6719L156.072 85.9383C156.58 85.7438 157.098 85.5689 157.626 85.4135L157.546 85.1398C158.074 84.9846 158.611 84.8486 159.156 84.7318L159.216 85.0108C159.747 84.897 160.286 84.8017 160.833 84.7247L160.793 84.4422C161.338 84.3655 161.889 84.3068 162.447 84.2661L162.468 84.5506C163.009 84.5111 163.557 84.4887 164.109 84.4833L164.106 84.1981C164.656 84.1927 165.21 84.2041 165.768 84.2321L165.754 84.517C166.298 84.5443 166.845 84.5876 167.396 84.6467L167.426 84.3631C167.973 84.4218 168.523 84.496 169.074 84.5857L169.028 84.8673C169.566 84.9546 170.105 85.0568 170.646 85.1737L170.706 84.8949C171.244 85.011 171.782 85.1416 172.322 85.2865L172.248 85.562C172.774 85.7036 173.302 85.859 173.829 86.0283L173.916 85.7566C174.44 85.9247 174.964 86.1064 175.488 86.3014L175.388 86.5687C175.9 86.7595 176.411 86.9633 176.921 87.18L177.033 86.9175C177.539 87.1327 178.045 87.3606 178.548 87.601L178.425 87.8585C178.918 88.0938 179.409 88.3414 179.898 88.6011L180.032 88.3491C180.518 88.6073 181.002 88.8774 181.483 89.1594L181.339 89.4055C181.81 89.6819 182.279 89.9698 182.745 90.2691L182.899 90.0291C183.363 90.3268 183.823 90.6358 184.279 90.9559L184.115 91.1895C184.563 91.5035 185.008 91.8284 185.448 92.1642L185.621 91.9373C186.059 92.2712 186.493 92.6158 186.923 92.9709L186.741 93.1908C186.953 93.3661 187.164 93.544 187.374 93.7245C187.584 93.9052 187.792 94.0874 187.997 94.271L188.188 94.0584C188.604 94.4305 189.01 94.8084 189.406 95.1918L189.208 95.3968C189.606 95.7823 189.994 96.1733 190.372 96.5694L190.578 96.3724C190.964 96.7762 191.339 97.1852 191.703 97.5989L191.489 97.7874C191.855 98.2035 192.21 98.6244 192.554 99.0496L192.776 98.8701C193.127 99.3039 193.467 99.7422 193.796 100.184L193.567 100.355C193.897 100.799 194.216 101.248 194.523 101.701L194.759 101.54C195.073 102.003 195.374 102.468 195.663 102.937L195.42 103.087C195.711 103.559 195.99 104.035 196.256 104.512L196.505 104.374C196.777 104.862 197.035 105.353 197.28 105.847L197.025 105.974C197.272 106.47 197.505 106.969 197.724 107.469L197.986 107.354C198.21 107.866 198.421 108.379 198.616 108.893L198.35 108.995C198.547 109.513 198.729 110.031 198.897 110.55L199.168 110.462C199.34 110.994 199.497 111.527 199.637 112.059L199.361 112.132C199.503 112.668 199.628 113.203 199.738 113.737L200.017 113.68C200.129 114.228 200.224 114.775 200.302 115.319L200.02 115.359C200.098 115.907 200.158 116.452 200.201 116.994L200.486 116.971C200.53 117.529 200.555 118.084 200.562 118.634L200.277 118.638C200.283 119.191 200.271 119.739 200.239 120.281L200.524 120.298C200.491 120.855 200.438 121.407 200.364 121.953L200.082 121.915C200.008 122.461 199.914 123 199.799 123.532L200.078 123.593C199.96 124.137 199.82 124.674 199.658 125.202L199.385 125.119C199.225 125.643 199.043 126.158 198.838 126.663L199.103 126.77C198.894 127.284 198.663 127.789 198.409 128.282L198.156 128.151C197.906 128.636 197.634 129.109 197.34 129.571L197.58 129.724C197.283 130.189 196.963 130.642 196.62 131.082L196.395 130.907C196.228 131.121 196.055 131.333 195.876 131.541L195.876 131.542C195.701 131.747 195.527 131.952 195.353 132.156L195.57 132.341C195.219 132.752 194.87 133.16 194.521 133.567L194.304 133.382C193.954 133.79 193.604 134.198 193.254 134.606L193.47 134.792C193.324 134.962 193.178 135.132 193.032 135.303C192.828 135.54 192.624 135.778 192.419 136.016L192.203 135.83L191.677 136.443C191.499 136.651 191.316 136.854 191.129 137.052L191.337 137.248C190.955 137.653 190.556 138.038 190.142 138.402L189.954 138.188C189.543 138.549 189.117 138.89 188.677 139.21L188.844 139.441C188.396 139.767 187.933 140.072 187.457 140.356L187.31 140.111C186.843 140.389 186.362 140.648 185.869 140.886L185.993 141.143C185.496 141.383 184.987 141.602 184.467 141.801L184.365 141.535C183.857 141.729 183.339 141.904 182.81 142.06L182.891 142.333C182.363 142.488 181.826 142.624 181.281 142.741L181.221 142.462C180.69 142.576 180.15 142.671 179.603 142.748L179.643 143.031C179.098 143.107 178.547 143.166 177.989 143.206L177.968 142.922C177.427 142.961 176.879 142.984 176.326 142.989L176.329 143.274C175.78 143.279 175.225 143.268 174.667 143.24L174.681 142.955C174.138 142.927 173.59 142.884 173.039 142.825L173.009 143.108C172.462 143.05 171.912 142.975 171.361 142.885L171.406 142.604C170.869 142.516 170.33 142.414 169.789 142.297L169.728 142.576C169.191 142.459 168.652 142.329 168.113 142.184L168.187 141.908C167.66 141.766 167.133 141.611 166.605 141.441L166.518 141.713C165.994 141.545 165.47 141.363 164.947 141.168L165.046 140.9C164.534 140.71 164.023 140.506 163.513 140.289L163.401 140.551C162.895 140.336 162.39 140.108 161.886 139.867L162.009 139.61C161.516 139.374 161.025 139.127 160.536 138.867L160.402 139.119C159.916 138.86 159.432 138.59 158.951 138.308L159.095 138.062C158.624 137.785 158.155 137.497 157.689 137.198L157.535 137.438C157.071 137.14 156.611 136.831 156.155 136.51L156.318 136.277C155.871 135.963 155.426 135.638 154.986 135.302L154.813 135.529C154.375 135.195 153.941 134.85 153.511 134.495L153.693 134.275C153.48 134.099 153.269 133.921 153.059 133.741C152.849 133.56 152.642 133.378 152.436 133.194L152.246 133.407C151.83 133.035 151.424 132.657 151.028 132.274L151.226 132.069C150.828 131.683 150.44 131.292 150.062 130.896L149.856 131.093C149.47 130.69 149.096 130.281 148.732 129.867L148.946 129.679C148.58 129.263 148.224 128.842 147.88 128.417L147.658 128.596C147.307 128.162 146.967 127.724 146.639 127.282L146.868 127.112C146.537 126.667 146.219 126.218 145.912 125.766L145.676 125.926C145.362 125.464 145.061 124.998 144.772 124.53L145.014 124.38C144.723 123.908 144.445 123.432 144.179 122.955L143.93 123.093C143.658 122.605 143.399 122.114 143.154 121.621L143.41 121.494C143.163 120.997 142.93 120.499 142.71 119.999L142.449 120.114C142.224 119.602 142.014 119.089 141.818 118.574L142.085 118.473C141.888 117.955 141.705 117.437 141.538 116.918L141.266 117.006C141.094 116.474 140.938 115.941 140.797 115.409L141.073 115.337C140.932 114.801 140.806 114.265 140.697 113.732L140.418 113.789C140.306 113.241 140.211 112.694 140.133 112.15L140.415 112.109C140.337 111.562 140.276 111.017 140.233 110.475L139.949 110.498C139.905 109.94 139.879 109.385 139.873 108.835L140.158 108.831C140.151 108.279 140.164 107.731 140.196 107.188L139.911 107.171C139.944 106.614 139.997 106.062 140.071 105.517L140.353 105.555C140.427 105.009 140.521 104.469 140.637 103.938L140.358 103.877C140.476 103.333 140.616 102.796 140.778 102.268L141.05 102.352C141.211 101.828 141.393 101.313 141.598 100.808L141.334 100.701C141.542 100.186 141.773 99.6822 142.027 99.1892L142.281 99.3199C142.531 98.8355 142.803 98.3623 143.098 97.9013L142.857 97.7476C143.155 97.2827 143.475 96.8301 143.818 96.3906L144.043 96.5661C144.21 96.3515 144.383 96.14 144.562 95.9318Z" fill="#F65D51" stroke="black" stroke-width="0.570536" stroke-dasharray="1.71 1.71"/>
<g style="mix-blend-mode:multiply" opacity="0.3">
<path d="M144.562 95.9318L144.563 95.9308C144.738 95.7256 144.912 95.521 145.086 95.317L144.869 95.1319C145.219 94.7213 145.569 94.313 145.918 93.9055L146.134 94.0911C146.484 93.6825 146.834 93.2748 147.185 92.8666L146.968 92.6807C147.123 92.5001 147.278 92.3194 147.434 92.1385C147.629 91.9115 147.824 91.6843 148.019 91.4564L148.236 91.6422L148.761 91.0299C148.94 90.8217 149.122 90.6186 149.309 90.4206L149.101 90.225C149.483 89.8195 149.882 89.4348 150.296 89.0707L150.484 89.2849C150.895 88.9237 151.321 88.5831 151.761 88.263L151.594 88.0322C152.042 87.7064 152.505 87.4015 152.981 87.1176L153.127 87.3626C153.595 87.0839 154.076 86.8256 154.569 86.5875L154.445 86.3306C154.941 86.0907 155.45 85.8712 155.97 85.6719L156.072 85.9383C156.58 85.7438 157.098 85.5689 157.626 85.4135L157.546 85.1398C158.074 84.9846 158.611 84.8486 159.156 84.7318L159.216 85.0108C159.747 84.897 160.286 84.8017 160.833 84.7247L160.793 84.4422C161.338 84.3655 161.889 84.3068 162.447 84.2661L162.468 84.5506C163.009 84.5111 163.557 84.4887 164.109 84.4833L164.106 84.1981C164.656 84.1927 165.21 84.2041 165.768 84.2321L165.754 84.517C166.298 84.5443 166.845 84.5876 167.396 84.6467L167.426 84.3631C167.973 84.4218 168.523 84.496 169.074 84.5857L169.028 84.8673C169.566 84.9546 170.105 85.0568 170.646 85.1737L170.706 84.8949C171.244 85.011 171.782 85.1416 172.322 85.2865L172.248 85.562C172.774 85.7036 173.302 85.859 173.829 86.0283L173.916 85.7566C174.44 85.9247 174.964 86.1064 175.488 86.3014L175.388 86.5687C175.9 86.7595 176.411 86.9633 176.921 87.18L177.033 86.9175C177.539 87.1327 178.045 87.3606 178.548 87.601L178.425 87.8585C178.918 88.0938 179.409 88.3414 179.898 88.6011L180.032 88.3491C180.518 88.6073 181.002 88.8774 181.483 89.1594L181.339 89.4055C181.81 89.6819 182.279 89.9698 182.745 90.2691L182.899 90.0291C183.363 90.3268 183.823 90.6358 184.279 90.9559L184.115 91.1895C184.563 91.5035 185.008 91.8284 185.448 92.1642L185.621 91.9373C186.059 92.2712 186.493 92.6158 186.923 92.9709L186.741 93.1908C186.953 93.3661 187.164 93.544 187.374 93.7245C187.584 93.9052 187.792 94.0874 187.997 94.271L188.188 94.0584C188.604 94.4305 189.01 94.8084 189.406 95.1918L189.208 95.3968C189.606 95.7823 189.994 96.1733 190.372 96.5694L190.578 96.3724C190.964 96.7762 191.339 97.1852 191.703 97.5989L191.489 97.7874C191.855 98.2035 192.21 98.6244 192.554 99.0496L192.776 98.8701C193.127 99.3039 193.467 99.7422 193.796 100.184L193.567 100.355C193.897 100.799 194.216 101.248 194.523 101.701L194.759 101.54C195.073 102.003 195.374 102.468 195.663 102.937L195.42 103.087C195.711 103.559 195.99 104.035 196.256 104.512L196.505 104.374C196.777 104.862 197.035 105.353 197.28 105.847L197.025 105.974C197.272 106.47 197.505 106.969 197.724 107.469L197.986 107.354C198.21 107.866 198.421 108.379 198.616 108.893L198.35 108.995C198.547 109.513 198.729 110.031 198.897 110.55L199.168 110.462C199.34 110.994 199.497 111.527 199.637 112.059L199.361 112.132C199.503 112.668 199.628 113.203 199.738 113.737L200.017 113.68C200.129 114.228 200.224 114.775 200.302 115.319L200.02 115.359C200.098 115.907 200.158 116.452 200.201 116.994L200.486 116.971C200.53 117.529 200.555 118.084 200.562 118.634L200.277 118.638C200.283 119.191 200.271 119.739 200.239 120.281L200.524 120.298C200.491 120.855 200.438 121.407 200.364 121.953L200.082 121.915C200.008 122.461 199.914 123 199.799 123.532L200.078 123.593C199.96 124.137 199.82 124.674 199.658 125.202L199.385 125.119C199.225 125.643 199.043 126.158 198.838 126.663L199.103 126.77C198.894 127.284 198.663 127.789 198.409 128.282L198.156 128.151C197.906 128.636 197.634 129.109 197.34 129.571L197.58 129.724C197.283 130.189 196.963 130.642 196.62 131.082L196.395 130.907C196.228 131.121 196.055 131.333 195.876 131.541L195.876 131.542C195.701 131.747 195.527 131.952 195.353 132.156L195.57 132.341C195.219 132.752 194.87 133.16 194.521 133.567L194.304 133.382C193.954 133.79 193.604 134.198 193.254 134.606L193.47 134.792C193.324 134.962 193.178 135.132 193.032 135.303C192.828 135.54 192.624 135.778 192.419 136.016L192.203 135.83L191.677 136.443C191.499 136.651 191.316 136.854 191.129 137.052L191.337 137.248C190.955 137.653 190.556 138.038 190.142 138.402L189.954 138.188C189.543 138.549 189.117 138.89 188.677 139.21L188.844 139.441C188.396 139.767 187.933 140.072 187.457 140.356L187.31 140.111C186.843 140.389 186.362 140.648 185.869 140.886L185.993 141.143C185.496 141.383 184.987 141.602 184.467 141.801L184.365 141.535C183.857 141.729 183.339 141.904 182.81 142.06L182.891 142.333C182.363 142.488 181.826 142.624 181.281 142.741L181.221 142.462C180.69 142.576 180.15 142.671 179.603 142.748L179.643 143.031C179.098 143.107 178.547 143.166 177.989 143.206L177.968 142.922C177.427 142.961 176.879 142.984 176.326 142.989L176.329 143.274C175.78 143.279 175.225 143.268 174.667 143.24L174.681 142.955C174.138 142.927 173.59 142.884 173.039 142.825L173.009 143.108C172.462 143.05 171.912 142.975 171.361 142.885L171.406 142.604C170.869 142.516 170.33 142.414 169.789 142.297L169.728 142.576C169.191 142.459 168.652 142.329 168.113 142.184L168.187 141.908C167.66 141.766 167.133 141.611 166.605 141.441L166.518 141.713C165.994 141.545 165.47 141.363 164.947 141.168L165.046 140.9C164.534 140.71 164.023 140.506 163.513 140.289L163.401 140.551C162.895 140.336 162.39 140.108 161.886 139.867L162.009 139.61C161.516 139.374 161.025 139.127 160.536 138.867L160.402 139.119C159.916 138.86 159.432 138.59 158.951 138.308L159.095 138.062C158.624 137.785 158.155 137.497 157.689 137.198L157.535 137.438C157.071 137.14 156.611 136.831 156.155 136.51L156.318 136.277C155.871 135.963 155.426 135.638 154.986 135.302L154.813 135.529C154.375 135.195 153.941 134.85 153.511 134.495L153.693 134.275C153.48 134.099 153.269 133.921 153.059 133.741C152.849 133.56 152.642 133.378 152.436 133.194L152.246 133.407C151.83 133.035 151.424 132.657 151.028 132.274L151.226 132.069C150.828 131.683 150.44 131.292 150.062 130.896L149.856 131.093C149.47 130.69 149.096 130.281 148.732 129.867L148.946 129.679C148.58 129.263 148.224 128.842 147.88 128.417L147.658 128.596C147.307 128.162 146.967 127.724 146.639 127.282L146.868 127.112C146.537 126.667 146.219 126.218 145.912 125.766L145.676 125.926C145.362 125.464 145.061 124.998 144.772 124.53L145.014 124.38C144.723 123.908 144.445 123.432 144.179 122.955L143.93 123.093C143.658 122.605 143.399 122.114 143.154 121.621L143.41 121.494C143.163 120.997 142.93 120.499 142.71 119.999L142.449 120.114C142.224 119.602 142.014 119.089 141.818 118.574L142.085 118.473C141.888 117.955 141.705 117.437 141.538 116.918L141.266 117.006C141.094 116.474 140.938 115.941 140.797 115.409L141.073 115.337C140.932 114.801 140.806 114.265 140.697 113.732L140.418 113.789C140.306 113.241 140.211 112.694 140.133 112.15L140.415 112.109C140.337 111.562 140.276 111.017 140.233 110.475L139.949 110.498C139.905 109.94 139.879 109.385 139.873 108.835L140.158 108.831C140.151 108.279 140.164 107.731 140.196 107.188L139.911 107.171C139.944 106.614 139.997 106.062 140.071 105.517L140.353 105.555C140.427 105.009 140.521 104.469 140.637 103.938L140.358 103.877C140.476 103.333 140.616 102.796 140.778 102.268L141.05 102.352C141.211 101.828 141.393 101.313 141.598 100.808L141.334 100.701C141.542 100.186 141.773 99.6822 142.027 99.1892L142.281 99.3199C142.531 98.8355 142.803 98.3623 143.098 97.9013L142.857 97.7476C143.155 97.2827 143.475 96.8301 143.818 96.3906L144.043 96.5661C144.21 96.3515 144.383 96.14 144.562 95.9318Z" fill="#F65D51"/>
<path d="M144.562 95.9318L144.563 95.9308C144.738 95.7256 144.912 95.521 145.086 95.317L144.869 95.1319C145.219 94.7213 145.569 94.313 145.918 93.9055L146.134 94.0911C146.484 93.6825 146.834 93.2748 147.185 92.8666L146.968 92.6807C147.123 92.5001 147.278 92.3194 147.434 92.1385C147.629 91.9115 147.824 91.6843 148.019 91.4564L148.236 91.6422L148.761 91.0299C148.94 90.8217 149.122 90.6186 149.309 90.4206L149.101 90.225C149.483 89.8195 149.882 89.4348 150.296 89.0707L150.484 89.2849C150.895 88.9237 151.321 88.5831 151.761 88.263L151.594 88.0322C152.042 87.7064 152.505 87.4015 152.981 87.1176L153.127 87.3626C153.595 87.0839 154.076 86.8256 154.569 86.5875L154.445 86.3306C154.941 86.0907 155.45 85.8712 155.97 85.6719L156.072 85.9383C156.58 85.7438 157.098 85.5689 157.626 85.4135L157.546 85.1398C158.074 84.9846 158.611 84.8486 159.156 84.7318L159.216 85.0108C159.747 84.897 160.286 84.8017 160.833 84.7247L160.793 84.4422C161.338 84.3655 161.889 84.3068 162.447 84.2661L162.468 84.5506C163.009 84.5111 163.557 84.4887 164.109 84.4833L164.106 84.1981C164.656 84.1927 165.21 84.2041 165.768 84.2321L165.754 84.517C166.298 84.5443 166.845 84.5876 167.396 84.6467L167.426 84.3631C167.973 84.4218 168.523 84.496 169.074 84.5857L169.028 84.8673C169.566 84.9546 170.105 85.0568 170.646 85.1737L170.706 84.8949C171.244 85.011 171.782 85.1416 172.322 85.2865L172.248 85.562C172.774 85.7036 173.302 85.859 173.829 86.0283L173.916 85.7566C174.44 85.9247 174.964 86.1064 175.488 86.3014L175.388 86.5687C175.9 86.7595 176.411 86.9633 176.921 87.18L177.033 86.9175C177.539 87.1327 178.045 87.3606 178.548 87.601L178.425 87.8585C178.918 88.0938 179.409 88.3414 179.898 88.6011L180.032 88.3491C180.518 88.6073 181.002 88.8774 181.483 89.1594L181.339 89.4055C181.81 89.6819 182.279 89.9698 182.745 90.2691L182.899 90.0291C183.363 90.3268 183.823 90.6358 184.279 90.9559L184.115 91.1895C184.563 91.5035 185.008 91.8284 185.448 92.1642L185.621 91.9373C186.059 92.2712 186.493 92.6158 186.923 92.9709L186.741 93.1908C186.953 93.3661 187.164 93.544 187.374 93.7245C187.584 93.9052 187.792 94.0874 187.997 94.271L188.188 94.0584C188.604 94.4305 189.01 94.8084 189.406 95.1918L189.208 95.3968C189.606 95.7823 189.994 96.1733 190.372 96.5694L190.578 96.3724C190.964 96.7762 191.339 97.1852 191.703 97.5989L191.489 97.7874C191.855 98.2035 192.21 98.6244 192.554 99.0496L192.776 98.8701C193.127 99.3039 193.467 99.7422 193.796 100.184L193.567 100.355C193.897 100.799 194.216 101.248 194.523 101.701L194.759 101.54C195.073 102.003 195.374 102.468 195.663 102.937L195.42 103.087C195.711 103.559 195.99 104.035 196.256 104.512L196.505 104.374C196.777 104.862 197.035 105.353 197.28 105.847L197.025 105.974C197.272 106.47 197.505 106.969 197.724 107.469L197.986 107.354C198.21 107.866 198.421 108.379 198.616 108.893L198.35 108.995C198.547 109.513 198.729 110.031 198.897 110.55L199.168 110.462C199.34 110.994 199.497 111.527 199.637 112.059L199.361 112.132C199.503 112.668 199.628 113.203 199.738 113.737L200.017 113.68C200.129 114.228 200.224 114.775 200.302 115.319L200.02 115.359C200.098 115.907 200.158 116.452 200.201 116.994L200.486 116.971C200.53 117.529 200.555 118.084 200.562 118.634L200.277 118.638C200.283 119.191 200.271 119.739 200.239 120.281L200.524 120.298C200.491 120.855 200.438 121.407 200.364 121.953L200.082 121.915C200.008 122.461 199.914 123 199.799 123.532L200.078 123.593C199.96 124.137 199.82 124.674 199.658 125.202L199.385 125.119C199.225 125.643 199.043 126.158 198.838 126.663L199.103 126.77C198.894 127.284 198.663 127.789 198.409 128.282L198.156 128.151C197.906 128.636 197.634 129.109 197.34 129.571L197.58 129.724C197.283 130.189 196.963 130.642 196.62 131.082L196.395 130.907C196.228 131.121 196.055 131.333 195.876 131.541L195.876 131.542C195.701 131.747 195.527 131.952 195.353 132.156L195.57 132.341C195.219 132.752 194.87 133.16 194.521 133.567L194.304 133.382C193.954 133.79 193.604 134.198 193.254 134.606L193.47 134.792C193.324 134.962 193.178 135.132 193.032 135.303C192.828 135.54 192.624 135.778 192.419 136.016L192.203 135.83L191.677 136.443C191.499 136.651 191.316 136.854 191.129 137.052L191.337 137.248C190.955 137.653 190.556 138.038 190.142 138.402L189.954 138.188C189.543 138.549 189.117 138.89 188.677 139.21L188.844 139.441C188.396 139.767 187.933 140.072 187.457 140.356L187.31 140.111C186.843 140.389 186.362 140.648 185.869 140.886L185.993 141.143C185.496 141.383 184.987 141.602 184.467 141.801L184.365 141.535C183.857 141.729 183.339 141.904 182.81 142.06L182.891 142.333C182.363 142.488 181.826 142.624 181.281 142.741L181.221 142.462C180.69 142.576 180.15 142.671 179.603 142.748L179.643 143.031C179.098 143.107 178.547 143.166 177.989 143.206L177.968 142.922C177.427 142.961 176.879 142.984 176.326 142.989L176.329 143.274C175.78 143.279 175.225 143.268 174.667 143.24L174.681 142.955C174.138 142.927 173.59 142.884 173.039 142.825L173.009 143.108C172.462 143.05 171.912 142.975 171.361 142.885L171.406 142.604C170.869 142.516 170.33 142.414 169.789 142.297L169.728 142.576C169.191 142.459 168.652 142.329 168.113 142.184L168.187 141.908C167.66 141.766 167.133 141.611 166.605 141.441L166.518 141.713C165.994 141.545 165.47 141.363 164.947 141.168L165.046 140.9C164.534 140.71 164.023 140.506 163.513 140.289L163.401 140.551C162.895 140.336 162.39 140.108 161.886 139.867L162.009 139.61C161.516 139.374 161.025 139.127 160.536 138.867L160.402 139.119C159.916 138.86 159.432 138.59 158.951 138.308L159.095 138.062C158.624 137.785 158.155 137.497 157.689 137.198L157.535 137.438C157.071 137.14 156.611 136.831 156.155 136.51L156.318 136.277C155.871 135.963 155.426 135.638 154.986 135.302L154.813 135.529C154.375 135.195 153.941 134.85 153.511 134.495L153.693 134.275C153.48 134.099 153.269 133.921 153.059 133.741C152.849 133.56 152.642 133.378 152.436 133.194L152.246 133.407C151.83 133.035 151.424 132.657 151.028 132.274L151.226 132.069C150.828 131.683 150.44 131.292 150.062 130.896L149.856 131.093C149.47 130.69 149.096 130.281 148.732 129.867L148.946 129.679C148.58 129.263 148.224 128.842 147.88 128.417L147.658 128.596C147.307 128.162 146.967 127.724 146.639 127.282L146.868 127.112C146.537 126.667 146.219 126.218 145.912 125.766L145.676 125.926C145.362 125.464 145.061 124.998 144.772 124.53L145.014 124.38C144.723 123.908 144.445 123.432 144.179 122.955L143.93 123.093C143.658 122.605 143.399 122.114 143.154 121.621L143.41 121.494C143.163 120.997 142.93 120.499 142.71 119.999L142.449 120.114C142.224 119.602 142.014 119.089 141.818 118.574L142.085 118.473C141.888 117.955 141.705 117.437 141.538 116.918L141.266 117.006C141.094 116.474 140.938 115.941 140.797 115.409L141.073 115.337C140.932 114.801 140.806 114.265 140.697 113.732L140.418 113.789C140.306 113.241 140.211 112.694 140.133 112.15L140.415 112.109C140.337 111.562 140.276 111.017 140.233 110.475L139.949 110.498C139.905 109.94 139.879 109.385 139.873 108.835L140.158 108.831C140.151 108.279 140.164 107.731 140.196 107.188L139.911 107.171C139.944 106.614 139.997 106.062 140.071 105.517L140.353 105.555C140.427 105.009 140.521 104.469 140.637 103.938L140.358 103.877C140.476 103.333 140.616 102.796 140.778 102.268L141.05 102.352C141.211 101.828 141.393 101.313 141.598 100.808L141.334 100.701C141.542 100.186 141.773 99.6822 142.027 99.1892L142.281 99.3199C142.531 98.8355 142.803 98.3623 143.098 97.9013L142.857 97.7476C143.155 97.2827 143.475 96.8301 143.818 96.3906L144.043 96.5661C144.21 96.3515 144.383 96.14 144.562 95.9318Z" stroke="black" stroke-width="0.570536" stroke-dasharray="1.71 1.71"/>
</g>
<path d="M144.725 96.0717L144.726 96.07C144.901 95.8648 145.075 95.6604 145.249 95.4564L144.869 95.1319C145.219 94.7213 145.569 94.313 145.918 93.9055L146.297 94.2308C146.647 93.8223 146.997 93.4146 147.348 93.0064L146.968 92.6807C147.123 92.5001 147.278 92.3194 147.434 92.1385C147.629 91.9115 147.824 91.6843 148.019 91.4564L148.399 91.7821L148.924 91.1696C149.101 90.9641 149.281 90.7635 149.465 90.5679L149.101 90.225C149.483 89.8195 149.882 89.4348 150.296 89.0707L150.626 89.4461C151.032 89.0894 151.452 88.7529 151.888 88.4367L151.594 88.0322C152.042 87.7064 152.505 87.4015 152.981 87.1176L153.237 87.5471C153.699 87.2716 154.175 87.0162 154.662 86.7809L154.445 86.3306C154.941 86.0907 155.45 85.8712 155.97 85.6719L156.149 86.1388C156.651 85.9464 157.164 85.7733 157.687 85.6195L157.546 85.1398C158.074 84.9846 158.611 84.8486 159.156 84.7318L159.261 85.2207C159.787 85.1081 160.321 85.0136 160.863 84.9373L160.793 84.4422C161.338 84.3655 161.889 84.3068 162.447 84.2661L162.483 84.7648C163.02 84.7256 163.563 84.7033 164.111 84.698L164.106 84.1981C164.656 84.1927 165.21 84.2041 165.768 84.2321L165.743 84.7315C166.283 84.7586 166.826 84.8015 167.373 84.8602L167.426 84.3631C167.973 84.4218 168.523 84.496 169.074 84.5857L168.994 85.0792C169.528 85.166 170.063 85.2674 170.601 85.3836L170.706 84.8949C171.244 85.011 171.782 85.1416 172.322 85.2865L172.192 85.7694C172.715 85.9101 173.239 86.0645 173.764 86.2327L173.916 85.7566C174.44 85.9247 174.964 86.1064 175.488 86.3014L175.313 86.7699C175.822 86.9596 176.33 87.1622 176.837 87.3777L177.033 86.9175C177.539 87.1327 178.045 87.3606 178.548 87.601L178.333 88.0522C178.823 88.2862 179.311 88.5324 179.797 88.7907L180.032 88.3491C180.518 88.6073 181.002 88.8774 181.483 89.1594L181.23 89.5908C181.699 89.8656 182.166 90.152 182.629 90.4498L182.899 90.0291C183.363 90.3268 183.823 90.6358 184.279 90.9559L183.992 91.3653C184.438 91.6777 184.88 92.0009 185.318 92.3349L185.621 91.9373C186.059 92.2712 186.493 92.6158 186.923 92.9709L186.604 93.3564C186.815 93.5308 187.025 93.7078 187.234 93.8873C187.443 94.0671 187.65 94.2484 187.854 94.4311L188.188 94.0584C188.604 94.4305 189.01 94.8084 189.406 95.1918L189.058 95.5511C189.455 95.9346 189.841 96.3236 190.217 96.7176L190.578 96.3724C190.964 96.7762 191.339 97.1852 191.703 97.5989L191.327 97.9293C191.692 98.3432 192.045 98.7618 192.387 99.1848L192.776 98.8701C193.127 99.3039 193.467 99.7422 193.796 100.184L193.394 100.483C193.723 100.925 194.04 101.371 194.345 101.821L194.759 101.54C195.073 102.003 195.374 102.468 195.663 102.937L195.237 103.2C195.527 103.669 195.804 104.142 196.068 104.617L196.505 104.374C196.777 104.862 197.035 105.353 197.28 105.847L196.833 106.069C197.078 106.563 197.31 107.058 197.528 107.555L197.986 107.354C198.21 107.866 198.421 108.379 198.616 108.893L198.149 109.071C198.345 109.586 198.526 110.101 198.693 110.616L199.168 110.462C199.34 110.994 199.497 111.527 199.637 112.059L199.154 112.187C199.294 112.719 199.419 113.25 199.527 113.78L200.017 113.68C200.129 114.228 200.224 114.775 200.302 115.319L199.807 115.39C199.885 115.933 199.945 116.473 199.987 117.011L200.486 116.971C200.53 117.529 200.555 118.084 200.562 118.634L200.062 118.641C200.069 119.188 200.056 119.731 200.025 120.269L200.524 120.298C200.491 120.855 200.438 121.407 200.364 121.953L199.869 121.886C199.796 122.427 199.703 122.961 199.589 123.487L200.078 123.593C199.96 124.137 199.82 124.674 199.658 125.202L199.18 125.056C199.021 125.574 198.841 126.083 198.639 126.582L199.103 126.77C198.894 127.284 198.663 127.789 198.409 128.282L197.965 128.053C197.718 128.532 197.45 129 197.159 129.455L197.58 129.724C197.283 130.189 196.963 130.642 196.62 131.082L196.226 130.775C196.061 130.987 195.89 131.196 195.713 131.402L195.712 131.403C195.538 131.608 195.363 131.813 195.189 132.017L195.57 132.341C195.219 132.752 194.87 133.16 194.521 133.567L194.141 133.242C193.791 133.65 193.441 134.058 193.091 134.466L193.47 134.792C193.324 134.962 193.178 135.132 193.032 135.303C192.828 135.54 192.624 135.778 192.419 136.016L192.04 135.691L191.514 136.303C191.338 136.509 191.158 136.709 190.973 136.905L191.337 137.248C190.955 137.653 190.556 138.038 190.142 138.402L189.812 138.027C189.407 138.384 188.986 138.72 188.55 139.036L188.844 139.441C188.396 139.767 187.933 140.072 187.457 140.356L187.201 139.926C186.738 140.202 186.263 140.457 185.775 140.692L185.993 141.143C185.496 141.383 184.987 141.602 184.467 141.801L184.288 141.334C183.786 141.527 183.273 141.7 182.75 141.854L182.891 142.333C182.363 142.488 181.826 142.624 181.281 142.741L181.176 142.252C180.65 142.365 180.115 142.459 179.574 142.535L179.643 143.031C179.098 143.107 178.547 143.166 177.989 143.206L177.953 142.708C177.416 142.747 176.873 142.769 176.324 142.774L176.329 143.274C175.78 143.279 175.225 143.268 174.667 143.24L174.692 142.74C174.153 142.713 173.609 142.67 173.062 142.611L173.009 143.108C172.462 143.05 171.912 142.975 171.361 142.885L171.441 142.392C170.907 142.305 170.371 142.203 169.834 142.087L169.728 142.576C169.191 142.459 168.652 142.329 168.113 142.184L168.243 141.701C167.719 141.56 167.195 141.405 166.671 141.237L166.518 141.713C165.994 141.545 165.47 141.363 164.947 141.168L165.121 140.699C164.612 140.509 164.104 140.307 163.597 140.091L163.401 140.551C162.895 140.336 162.39 140.108 161.886 139.867L162.102 139.416C161.611 139.182 161.123 138.936 160.637 138.677L160.402 139.119C159.916 138.86 159.432 138.59 158.951 138.308L159.204 137.877C158.735 137.602 158.268 137.315 157.805 137.017L157.535 137.438C157.071 137.14 156.611 136.831 156.155 136.51L156.442 136.101C155.996 135.789 155.554 135.465 155.116 135.131L154.813 135.529C154.375 135.195 153.941 134.85 153.511 134.495L153.829 134.109C153.618 133.935 153.408 133.758 153.199 133.578C152.99 133.398 152.784 133.217 152.579 133.034L152.246 133.407C151.83 133.035 151.424 132.657 151.028 132.274L151.376 131.915C150.979 131.531 150.593 131.142 150.217 130.748L149.856 131.093C149.47 130.69 149.096 130.281 148.732 129.867L149.107 129.537C148.743 129.123 148.389 128.704 148.047 128.281L147.658 128.596C147.307 128.162 146.967 127.724 146.639 127.282L147.04 126.984C146.711 126.541 146.395 126.095 146.089 125.645L145.676 125.926C145.362 125.464 145.061 124.998 144.772 124.53L145.197 124.267C144.908 123.798 144.631 123.325 144.367 122.85L143.93 123.093C143.658 122.605 143.399 122.114 143.154 121.621L143.602 121.398C143.357 120.905 143.125 120.409 142.907 119.913L142.449 120.114C142.224 119.602 142.014 119.089 141.818 118.574L142.285 118.396C142.09 117.882 141.908 117.367 141.742 116.852L141.266 117.006C141.094 116.474 140.938 115.941 140.797 115.409L141.281 115.282C141.14 114.75 141.016 114.218 140.907 113.689L140.418 113.789C140.306 113.241 140.211 112.694 140.133 112.15L140.628 112.079C140.55 111.536 140.49 110.995 140.447 110.458L139.949 110.498C139.905 109.94 139.879 109.385 139.873 108.835L140.373 108.829C140.366 108.281 140.379 107.738 140.41 107.201L139.911 107.171C139.944 106.614 139.997 106.062 140.071 105.517L140.566 105.584C140.639 105.043 140.732 104.509 140.846 103.983L140.358 103.877C140.476 103.333 140.616 102.796 140.778 102.268L141.256 102.415C141.414 101.896 141.595 101.388 141.797 100.889L141.334 100.701C141.542 100.186 141.773 99.6822 142.027 99.1892L142.472 99.4183C142.719 98.9398 142.987 98.4723 143.279 98.017L142.857 97.7476C143.155 97.2827 143.475 96.8301 143.818 96.3906L144.212 96.6983C144.377 96.4862 144.548 96.2773 144.725 96.0717Z" fill="#F65D51" stroke="black" stroke-dasharray="1.71 1.71"/>
<path d="M191.517 136.307C191.341 136.512 191.161 136.713 190.976 136.909L191.34 137.252C190.958 137.657 190.559 138.042 190.145 138.406L189.815 138.031C189.41 138.387 188.989 138.724 188.553 139.04L188.847 139.445C188.399 139.77 187.936 140.075 187.459 140.359L187.203 139.93C186.741 140.205 186.266 140.46 185.778 140.696L185.996 141.146C185.499 141.386 184.989 141.605 184.469 141.805L184.291 141.338C183.788 141.53 183.275 141.703 182.752 141.857L182.893 142.337C182.366 142.492 181.829 142.628 181.283 142.744L181.178 142.255C180.652 142.368 180.118 142.462 179.576 142.538L179.646 143.034C179.101 143.11 178.549 143.169 177.991 143.209L177.955 142.711C177.418 142.75 176.875 142.772 176.327 142.777L176.331 143.277C175.782 143.282 175.228 143.271 174.669 143.243L174.694 142.743C174.155 142.716 173.611 142.673 173.064 142.614L173.011 143.111C172.464 143.052 171.915 142.978 171.363 142.888L171.443 142.395C170.909 142.308 170.374 142.206 169.836 142.09L169.73 142.579C169.193 142.462 168.654 142.332 168.115 142.187L168.245 141.704C167.721 141.563 167.197 141.408 166.673 141.24L166.52 141.716C165.996 141.548 165.472 141.366 164.948 141.171L165.123 140.703C164.614 140.513 164.106 140.31 163.599 140.094L163.403 140.555C162.897 140.339 162.391 140.111 161.888 139.871L162.103 139.42C161.613 139.185 161.125 138.939 160.638 138.681L160.404 139.122C159.918 138.864 159.434 138.594 158.952 138.312L159.205 137.88C158.736 137.605 158.27 137.319 157.806 137.021L157.536 137.442C157.073 137.144 156.612 136.835 156.156 136.514L156.443 136.105C155.997 135.793 155.555 135.469 155.117 135.135L154.814 135.533C154.376 135.199 153.942 134.854 153.512 134.499L153.83 134.113C153.619 133.939 153.409 133.762 153.2 133.582C152.991 133.403 152.784 133.221 152.58 133.039L152.247 133.411C151.831 133.039 151.425 132.661 151.028 132.278L151.376 131.919C150.98 131.535 150.593 131.146 150.217 130.752L149.856 131.098C149.47 130.694 149.096 130.285 148.731 129.871L149.107 129.541C148.742 129.127 148.389 128.708 148.047 128.285L147.658 128.6C147.307 128.166 146.967 127.728 146.638 127.286L147.04 126.988C146.711 126.545 146.394 126.099 146.089 125.649L145.675 125.93C145.361 125.468 145.06 125.002 144.771 124.533L145.196 124.271C144.907 123.801 144.63 123.329 144.366 122.854L143.929 123.097C143.657 122.608 143.398 122.117 143.153 121.624L143.601 121.401C143.356 120.908 143.124 120.412 142.906 119.916L142.448 120.117C142.223 119.605 142.013 119.091 141.817 118.577L142.284 118.399C142.088 117.885 141.907 117.37 141.741 116.855L141.265 117.009C141.093 116.476 140.937 115.944 140.796 115.412L141.279 115.284C141.139 114.752 141.014 114.221 140.906 113.691L140.416 113.791C140.304 113.243 140.209 112.696 140.131 112.152L140.626 112.081C140.548 111.538 140.488 110.997 140.446 110.46L139.947 110.5C139.903 109.942 139.878 109.387 139.871 108.836L140.371 108.83C140.364 108.283 140.377 107.74 140.408 107.202L139.909 107.173C139.942 106.615 139.995 106.063 140.068 105.518L140.564 105.585C140.636 105.044 140.73 104.51 140.844 103.984L140.355 103.878C140.473 103.334 140.613 102.797 140.774 102.269L141.252 102.415C141.411 101.897 141.591 101.388 141.793 100.889L141.33 100.701C141.538 100.186 141.769 99.6819 142.023 99.1888L142.468 99.4177C142.714 98.9389 142.983 98.4713 143.274 98.0157L142.852 97.7465C143.149 97.2815 143.469 96.8285 143.812 96.3888L144.206 96.6962C144.372 96.4841 144.543 96.275 144.719 96.0693L144.34 95.7438L144.719 96.0693C144.896 95.8637 145.076 95.6631 145.26 95.4674L144.896 95.1245C145.279 94.719 145.677 94.3342 146.091 93.9701L146.421 94.3456C146.827 93.9888 147.248 93.6523 147.683 93.3361L147.389 92.9316C147.838 92.6058 148.301 92.3009 148.777 92.017L149.033 92.4465C149.495 92.1711 149.971 91.9158 150.458 91.6804L150.241 91.2301C150.738 90.9903 151.247 90.7708 151.767 90.5717L151.946 91.0386C152.448 90.8463 152.961 90.6732 153.484 90.5195L153.343 90.0398C153.871 89.8846 154.408 89.7488 154.954 89.6321L155.058 90.121C155.584 90.0085 156.119 89.9141 156.661 89.8379L156.591 89.3428C157.136 89.2662 157.688 89.2076 158.246 89.167L158.282 89.6657C158.819 89.6267 159.362 89.6045 159.91 89.5993L159.905 89.0994C160.455 89.0942 161.009 89.1057 161.567 89.1338L161.542 89.6332C162.082 89.6604 162.625 89.7034 163.172 89.7623L163.226 89.2652C163.773 89.324 164.322 89.3984 164.874 89.4882L164.794 89.9817C165.327 90.0686 165.863 90.1702 166.401 90.2865L166.506 89.7978C167.044 89.9141 167.582 90.0448 168.122 90.1898L167.992 90.6727C168.515 90.8135 169.04 90.9681 169.564 91.1364L169.717 90.6604C170.241 90.8286 170.765 91.0104 171.288 91.2056L171.114 91.674C171.622 91.8638 172.131 92.0665 172.638 92.2821L172.834 91.822C173.34 92.0373 173.845 92.2653 174.349 92.5059L174.133 92.9571C174.624 93.1912 175.112 93.4375 175.598 93.6959L175.833 93.2543C176.319 93.5126 176.803 93.7829 177.284 94.0649L177.031 94.4963C177.5 94.7713 177.967 95.0578 178.43 95.3556L178.701 94.935C179.164 95.2328 179.624 95.5419 180.081 95.8621L179.794 96.2715C180.239 96.584 180.681 96.9073 181.12 97.2414L181.423 96.8438C181.861 97.1778 182.295 97.5224 182.725 97.8777L182.406 98.2631C182.618 98.4375 182.828 98.6146 183.037 98.7942C183.246 98.974 183.452 99.1552 183.657 99.3379L183.99 98.9652C184.406 99.3372 184.812 99.7151 185.208 100.098L184.861 100.458C185.257 100.841 185.643 101.23 186.019 101.624L186.381 101.279C186.766 101.683 187.141 102.092 187.505 102.505L187.13 102.836C187.494 103.249 187.848 103.668 188.19 104.091L188.579 103.776C188.93 104.21 189.27 104.648 189.598 105.091L189.197 105.389C189.526 105.831 189.843 106.277 190.148 106.727L190.562 106.446C190.875 106.909 191.177 107.374 191.466 107.843L191.04 108.106C191.33 108.575 191.607 109.048 191.871 109.523L192.308 109.28C192.58 109.768 192.838 110.259 193.083 110.752L192.636 110.975C192.881 111.469 193.113 111.964 193.331 112.461L193.789 112.26C194.013 112.772 194.224 113.285 194.419 113.799L193.952 113.977C194.148 114.491 194.329 115.006 194.496 115.521L194.971 115.368C195.143 115.9 195.3 116.432 195.44 116.964L194.957 117.092C195.098 117.624 195.222 118.156 195.331 118.686L195.82 118.585C195.932 119.133 196.027 119.68 196.105 120.225L195.61 120.295C195.688 120.838 195.748 121.379 195.791 121.916L196.289 121.877C196.333 122.435 196.359 122.989 196.366 123.54L195.866 123.546C195.872 124.094 195.86 124.637 195.828 125.174L196.327 125.203C196.295 125.761 196.242 126.313 196.168 126.858L195.673 126.792C195.6 127.332 195.507 127.866 195.393 128.392L195.881 128.498C195.764 129.043 195.624 129.58 195.462 130.108L194.984 129.961C194.825 130.479 194.645 130.989 194.443 131.488L194.907 131.675C194.698 132.19 194.467 132.694 194.214 133.187L193.769 132.958C193.523 133.437 193.254 133.905 192.963 134.36L193.384 134.63C193.087 135.095 192.767 135.548 192.425 135.987L192.03 135.68C191.865 135.892 191.694 136.101 191.517 136.307L191.897 136.632L191.517 136.307Z" fill="#F65D51" stroke="black" stroke-dasharray="1.71 1.71"/>
<path d="M162.805 161.365L162.752 161.616L162.761 161.617L161.262 168.814C160.043 174.662 155.663 179.298 149.524 182.052C143.386 184.805 135.506 185.666 127.344 183.967C119.182 182.268 112.301 178.334 107.772 173.36C103.243 168.385 101.078 162.387 102.296 156.54L103.848 149.092C105.066 143.244 109.446 138.608 115.585 135.854C121.724 133.101 129.604 132.24 137.766 133.939C145.929 135.638 152.807 139.571 157.334 144.545C161.86 149.519 164.023 155.517 162.805 161.365Z" fill="#F65D51" stroke="#F65D51" stroke-width="0.5"/>
<g style="mix-blend-mode:multiply" opacity="0.3">
<path d="M162.804 161.367L162.751 161.618L162.76 161.619L161.261 168.816C160.043 174.664 155.662 179.3 149.523 182.054C143.385 184.807 135.505 185.668 127.343 183.969C119.181 182.27 112.3 178.336 107.771 173.362C103.242 168.387 101.077 162.389 102.295 156.542L103.847 149.094C105.065 143.246 109.446 138.61 115.585 135.856C121.723 133.103 129.603 132.242 137.765 133.941C145.928 135.64 152.806 139.573 157.333 144.547C161.859 149.521 164.022 155.519 162.804 161.367Z" fill="#F65D51" stroke="#F65D51" stroke-width="0.5"/>
<path d="M162.804 161.367L162.751 161.618L162.76 161.619L161.261 168.816C160.043 174.664 155.662 179.3 149.523 182.054C143.385 184.807 135.505 185.668 127.343 183.969C119.181 182.27 112.3 178.336 107.771 173.362C103.242 168.387 101.077 162.389 102.295 156.542L103.847 149.094C105.065 143.246 109.446 138.61 115.585 135.856C121.723 133.103 129.603 132.242 137.765 133.941C145.928 135.64 152.806 139.573 157.333 144.547C161.859 149.521 164.022 155.519 162.804 161.367Z" fill="#F65D51" stroke="#F65D51" stroke-width="0.5"/>
</g>
<path d="M162.805 161.365L162.752 161.616L162.761 161.617L161.262 168.814C160.043 174.662 155.663 179.298 149.524 182.052C143.386 184.805 135.506 185.666 127.344 183.967C119.182 182.268 112.301 178.334 107.772 173.36C103.243 168.385 101.078 162.387 102.296 156.54L103.848 149.092C105.066 143.244 109.446 138.608 115.585 135.854C121.724 133.101 129.604 132.24 137.766 133.939C145.929 135.638 152.807 139.571 157.334 144.545C161.86 149.519 164.023 155.517 162.805 161.365Z" fill="#F65D51" stroke="black" stroke-width="0.5"/>
<path d="M162.812 161.367C161.593 167.215 157.214 171.851 151.075 174.605C144.937 177.358 137.057 178.219 128.894 176.52C120.73 174.82 113.85 170.887 109.321 165.913C104.792 160.938 102.628 154.941 103.846 149.092L103.601 149.041L103.846 149.092C105.065 143.243 109.444 138.607 115.583 135.854C121.722 133.101 129.601 132.24 137.764 133.939C145.928 135.638 152.809 139.572 157.337 144.546C161.866 149.52 164.03 155.518 162.812 161.367Z" fill="#F65D51" stroke="black" stroke-width="0.5"/>
<defs>
<filter id="filter0_f_9214_2029" x="0.869141" y="0.957031" width="270.259" height="270" filterUnits="userSpaceOnUse" color-interpolation-filters="sRGB">
<feFlood flood-opacity="0" result="BackgroundImageFix"/>
<feBlend mode="normal" in="SourceGraphic" in2="BackgroundImageFix" result="shape"/>
<feGaussianBlur stdDeviation="25" result="effect1_foregroundBlur_9214_2029"/>
</filter>
<linearGradient id="paint0_linear_9214_2029" x1="50.8691" y1="50.957" x2="221.128" y2="220.957" gradientUnits="userSpaceOnUse">
<stop offset="0.425" stop-color="#FFC17B"/>
<stop offset="1" stop-color="#F65D51"/>
</linearGradient>
</defs>
</svg>
