<svg width="32" height="33" viewBox="0 0 32 33" fill="none" xmlns="http://www.w3.org/2000/svg">
<rect width="32" height="33" rx="16" fill="#B4F9BA"/>
<path d="M12.7738 8.31437L15.8667 6.47241C15.9548 6.42 16.064 6.42 16.1521 6.47241L24.3037 11.3258C24.3918 11.3782 24.446 11.4751 24.4468 11.5799L24.4578 14.918C24.4578 15.0237 24.4036 15.1215 24.3147 15.1739L21.226 17.0132C21.0363 17.1268 20.7983 16.9853 20.7975 16.7591L20.7873 13.7634C20.7873 13.6586 20.7322 13.5616 20.6442 13.5092L12.7738 8.82442C12.5832 8.71088 12.5832 8.42791 12.7738 8.31437Z" fill="#010101"/>
<path d="M10.7762 23.4337L7.68414 21.5926C7.59522 21.5402 7.54102 21.4432 7.54102 21.3376V11.6308C7.54102 11.526 7.59522 11.4291 7.6833 11.3758L10.4815 9.69627C10.5704 9.64299 10.6797 9.64299 10.7678 9.69627L13.8565 11.5356C14.0462 11.6491 14.047 11.9313 13.8573 12.0457L11.3471 13.5522C11.259 13.6046 11.2048 13.7016 11.2048 13.8073V23.1795C11.2048 23.4066 10.9668 23.5481 10.7762 23.4346V23.4337Z" fill="#010101"/>
<path d="M24.4582 17.6553V21.3375C24.4582 21.4432 24.404 21.5401 24.3151 21.5925L16.1635 26.4459C16.0755 26.4983 15.9671 26.4983 15.879 26.4459L13.0698 24.7865C12.9808 24.7341 12.9258 24.6362 12.9258 24.5306V20.8528C12.9258 20.6265 13.1629 20.4851 13.3535 20.5968L15.8739 22.086C15.962 22.1384 16.0704 22.1375 16.1585 22.086L24.0288 17.3994C24.2194 17.2859 24.4574 17.4273 24.4574 17.6544L24.4582 17.6553Z" fill="#010101"/>
</svg>
