<svg width="17" height="17" viewBox="0 0 17 17" fill="none" xmlns="http://www.w3.org/2000/svg">
<g clip-path="url(#clip0_1488_2184)">
<rect x="0.469482" y="0.541016" width="15.9768" height="15.9768" rx="7.9884" fill="#B4F9BA"/>
<path d="M6.84711 4.5651L8.39134 3.67332C8.43531 3.64795 8.48986 3.64795 8.53384 3.67332L12.6037 6.02307C12.6477 6.04844 12.6747 6.09537 12.6752 6.14612L12.6807 7.76223C12.6807 7.81339 12.6536 7.86075 12.6092 7.88612L11.0671 8.77663C10.9724 8.8316 10.8536 8.7631 10.8531 8.65358L10.8481 7.20323C10.8481 7.15248 10.8206 7.10555 10.7766 7.08018L6.84711 4.81204C6.75197 4.75707 6.75197 4.62007 6.84711 4.5651Z" fill="#010101"/>
<path d="M5.84964 11.8851L4.30584 10.9937C4.26144 10.9684 4.23438 10.9214 4.23438 10.8703V6.17079C4.23438 6.12005 4.26144 6.07311 4.30541 6.04732L5.70249 5.23419C5.74689 5.2084 5.80143 5.2084 5.84541 5.23419L7.38752 6.1247C7.48224 6.17967 7.48266 6.31625 7.38794 6.37164L6.13464 7.10104C6.09066 7.12642 6.0636 7.17335 6.0636 7.22451V11.7621C6.0636 11.872 5.94478 11.9405 5.84964 11.8855V11.8851Z" fill="#010101"/>
<path d="M12.6808 9.08858V10.8713C12.6808 10.9225 12.6538 10.9694 12.6094 10.9948L8.53951 13.3445C8.49553 13.3699 8.44141 13.3699 8.39743 13.3445L6.99486 12.5411C6.95046 12.5157 6.92297 12.4684 6.92297 12.4172V10.6366C6.92297 10.5271 7.04137 10.4586 7.13651 10.5127L8.39489 11.2337C8.43887 11.259 8.49299 11.2586 8.53697 11.2337L12.4665 8.96469C12.5616 8.90972 12.6804 8.97822 12.6804 9.08816L12.6808 9.08858Z" fill="#010101"/>
</g>
<defs>
<clipPath id="clip0_1488_2184">
<rect width="16.0033" height="16.0033" fill="white" transform="translate(0.429321 0.5)"/>
</clipPath>
</defs>
</svg>
