<svg width="189" height="28" viewBox="0 0 189 28" fill="none" xmlns="http://www.w3.org/2000/svg">
<g clip-path="url(#clip0_2645_877)">
<path d="M6.48873 4.25213L10.3237 2.03749C10.4329 1.97448 10.5683 1.97448 10.6775 2.03749L20.7846 7.87283C20.8938 7.93584 20.9611 8.0524 20.9621 8.17841L20.9758 12.1918C20.9758 12.3189 20.9085 12.4365 20.7983 12.4995L16.9686 14.711C16.7334 14.8475 16.4383 14.6774 16.4373 14.4054L16.4247 10.8036C16.4247 10.6776 16.3564 10.5611 16.2472 10.4981L6.48873 4.86538C6.25246 4.72887 6.25246 4.38864 6.48873 4.25213Z" fill="#010101"/>
<path d="M4.01134 22.4321L0.177465 20.2185C0.0672057 20.1555 0 20.0389 0 19.9119V8.24118C0 8.11517 0.0672057 7.99861 0.176415 7.93455L3.64591 5.91523C3.75617 5.85117 3.89163 5.85117 4.00084 5.91523L7.83051 8.12672C8.06573 8.26323 8.06678 8.60241 7.83156 8.73997L4.7191 10.5514C4.60989 10.6144 4.54269 10.7309 4.54269 10.858V22.1265C4.54269 22.3995 4.24761 22.5696 4.01134 22.4331V22.4321Z" fill="#010101"/>
<path d="M20.9756 15.4828V19.9099C20.9756 20.037 20.9084 20.1535 20.7981 20.2166L10.691 26.0519C10.5818 26.1149 10.4474 26.1149 10.3382 26.0519L6.85503 24.0567C6.74477 23.9937 6.67651 23.8761 6.67651 23.7491V19.3271C6.67651 19.0552 6.97054 18.885 7.20681 19.0195L10.3319 20.8099C10.4411 20.8729 10.5755 20.8718 10.6847 20.8099L20.4432 15.1751C20.6794 15.0386 20.9745 15.2087 20.9745 15.4817L20.9756 15.4828Z" fill="#010101"/>
<path d="M53.7509 8.07814H49.8362C49.6661 8.07814 49.5295 8.2157 49.5295 8.38581V15.832C49.5295 16.7844 49.3752 17.5814 49.0654 18.222C48.7556 18.8436 48.3303 19.3099 47.7885 19.6207C47.2467 19.9116 46.6271 20.0586 45.9309 20.0586C44.9239 20.0586 44.1405 19.7572 43.5797 19.1555C43.0379 18.5339 42.767 17.5709 42.767 16.2699V8.38686C42.767 8.21675 42.6294 8.07919 42.4603 8.07919H39.6167C39.5936 8.07499 39.5705 8.07289 39.5474 8.07289H33.8832V7.75786C33.8832 6.9997 34.0575 6.43685 34.4062 6.06722C34.7737 5.67868 35.2872 5.48442 35.9445 5.48442C36.2932 5.48442 36.6219 5.53272 36.9316 5.63038C37.1227 5.69129 37.3107 5.77004 37.4735 5.85615C37.6362 5.94226 37.8379 5.86035 37.8998 5.68603L38.8785 2.97786C38.9289 2.83714 38.8722 2.67963 38.743 2.60507C38.3608 2.38351 37.9124 2.21654 37.3958 2.10313C36.7962 1.96767 36.1672 1.89941 35.5088 1.89941C33.5745 1.89941 32.0844 2.43391 31.0385 3.5029C29.9937 4.55194 29.4707 5.96116 29.4707 7.72951V8.07289H27.4252C27.2246 8.07289 27.0608 8.21045 27.0608 8.38056V11.262C27.0608 11.4321 27.2236 11.5697 27.4252 11.5697H29.4707V23.4514C29.4707 23.6216 29.6083 23.7591 29.7774 23.7591H33.6911C33.8601 23.7591 33.9977 23.6216 33.9977 23.4514V11.5697H38.2379V16.9388C38.2379 18.5517 38.5183 19.8832 39.0801 20.9323C39.6419 21.9624 40.4253 22.73 41.4313 23.2351C42.4572 23.7402 43.6186 23.9933 44.9144 23.9933C46.1147 23.9933 47.2172 23.7213 48.2232 23.1763C48.8218 22.8476 49.3342 22.4276 49.7616 21.9194V23.4514C49.7616 23.6216 49.8992 23.7591 50.0682 23.7591H53.7509C53.921 23.7591 54.0575 23.6216 54.0575 23.4514V8.38686C54.0575 8.21675 53.92 8.07919 53.7509 8.07919V8.07814Z" fill="#010101"/>
<path d="M66.9318 15.5386C66.3899 15.2078 65.7798 14.9558 65.1025 14.7804C64.4263 14.6061 63.7479 14.479 63.0706 14.4013C62.4132 14.3037 61.8031 14.1976 61.2414 14.0811C60.6806 13.9645 60.2249 13.8091 59.8773 13.6148C59.5476 13.4206 59.3837 13.1297 59.3837 12.7401C59.3837 12.3127 59.6158 11.963 60.081 11.6911C60.5451 11.4191 61.2812 11.2836 62.2872 11.2836C63.0034 11.2836 63.7385 11.3708 64.4935 11.5461C65.1708 11.6816 65.8397 11.9294 66.5023 12.2886C66.6588 12.3726 66.852 12.3106 66.9276 12.1499L68.1772 9.47222C68.2454 9.32626 68.1898 9.14984 68.0491 9.07318C67.3581 8.6962 66.5222 8.40323 65.5394 8.19636C64.4368 7.96324 63.3531 7.84668 62.2883 7.84668C60.7793 7.84668 59.4825 8.07035 58.3988 8.51664C57.3151 8.94507 56.4834 9.53732 55.9027 10.2955C55.3419 11.0537 55.0605 11.9273 55.0605 12.9186C55.0605 13.8122 55.2254 14.541 55.5541 15.1049C55.9027 15.6677 56.3574 16.1151 56.9181 16.4459C57.4799 16.7766 58.0984 17.0287 58.7757 17.204C59.453 17.3594 60.1209 17.4854 60.7783 17.5831C61.4556 17.6808 62.0751 17.7774 62.6359 17.874C63.1966 17.9716 63.6419 18.1176 63.9716 18.3119C64.3202 18.4872 64.4945 18.7592 64.4945 19.1278C64.4945 19.5751 64.2719 19.9248 63.8267 20.1768C63.4014 20.4288 62.6653 20.5559 61.6204 20.5559C60.6722 20.5559 59.7051 20.4204 58.718 20.1485C57.8769 19.8954 57.1313 19.5835 56.4802 19.2128C56.3238 19.1236 56.1253 19.1866 56.0497 19.3504L54.7959 22.0628C54.7297 22.2056 54.7833 22.3747 54.9167 22.4566C55.6045 22.8766 56.4939 23.2347 57.5849 23.5298C58.823 23.8406 60.1104 23.996 61.4451 23.996V23.9939C63.0118 23.9939 64.3381 23.7807 65.4218 23.3533C66.5243 22.926 67.3665 22.3432 67.9472 21.6049C68.5279 20.8478 68.8177 19.9826 68.8177 19.0112C68.8177 18.1176 68.6434 17.3983 68.2948 16.8543C67.9462 16.2904 67.4915 15.8536 66.9307 15.5428L66.9318 15.5386Z" fill="#010101"/>
<path d="M84.4973 11.6355C83.7812 10.4111 82.8046 9.47859 81.5655 8.83699C80.3463 8.17648 79.0306 7.8457 77.4439 7.8457C75.8572 7.8457 74.4343 8.19538 73.1774 8.89474C71.9194 9.57415 70.9228 10.5266 70.1878 11.751C69.4716 12.9554 69.1135 14.3647 69.1135 15.9188C69.1135 17.4729 69.4811 18.8632 70.2161 20.0866C70.9512 21.291 71.9866 22.2435 73.3212 22.9428C74.6758 23.6422 76.2426 23.9919 78.0235 23.9919V23.994C79.437 23.994 80.6855 23.7798 81.7681 23.3534C82.7563 22.946 83.5911 22.3842 84.2737 21.6701C84.385 21.5536 84.385 21.3687 84.2758 21.249L82.2648 19.0596C82.1514 18.9367 81.9624 18.9283 81.8354 19.0386C81.3723 19.4429 80.8661 19.7537 80.3159 19.9711C79.6963 20.2231 78.9707 20.3502 78.139 20.3502C77.2108 20.3502 76.398 20.1853 75.7007 19.8545C75.0234 19.5048 74.491 19.0092 74.1046 18.3686C73.904 18.0095 73.7612 17.6199 73.6699 17.202H85.2051C85.3626 17.202 85.4949 17.0812 85.5096 16.9237C85.5201 16.8156 85.5306 16.7032 85.5401 16.5898C85.56 16.3567 85.5695 16.153 85.5695 15.9776C85.5695 14.2869 85.2114 12.8399 84.4952 11.6344L84.4973 11.6355ZM75.412 11.8108C76.0116 11.4612 76.6994 11.2858 77.4733 11.2858C78.2472 11.2858 78.9245 11.4612 79.5052 11.8108C80.0859 12.1406 80.5406 12.6079 80.8693 13.2096C81.0877 13.6086 81.2316 14.0559 81.3051 14.5495H73.6174C73.693 14.0643 73.8358 13.6264 74.0479 13.2379C74.3776 12.6163 74.8313 12.1406 75.412 11.8098V11.8108Z" fill="#010101"/>
</g>
<path d="M99.7188 23.252C95.4628 23.252 92.6628 20.228 92.6628 15.664C92.6628 11.128 95.4628 8.076 99.8028 8.076C103.275 8.076 105.823 10.148 106.075 13.228H103.891C103.499 11.128 101.847 10.008 99.7468 10.008C96.7228 10.008 94.9588 12.304 94.9588 15.692C94.9588 19.248 96.8348 21.32 99.7188 21.32C102.071 21.32 103.695 19.92 103.947 17.848H106.159C105.879 21.124 103.275 23.252 99.7188 23.252ZM114.361 23.252C110.105 23.252 107.249 20.256 107.249 15.692C107.249 11.184 110.021 8.076 114.361 8.076C118.589 8.076 121.417 11.044 121.417 15.664C121.417 20.144 118.673 23.252 114.361 23.252ZM114.361 21.292C117.217 21.292 119.121 19.22 119.121 15.664C119.121 12.136 117.301 9.98 114.361 9.98C111.505 9.98 109.573 12.08 109.573 15.692C109.573 19.164 111.421 21.292 114.361 21.292ZM123.636 23V8.3H125.792L125.876 11.352H126.044C126.94 9.196 128.956 8.076 131.168 8.076C134.22 8.076 136.46 9.812 136.46 14.348V23H134.192V14.796C134.192 11.492 132.988 9.98 130.44 9.98C127.668 9.98 125.876 12.164 125.876 15.048V23H123.636ZM144.881 23.28C140.961 23.28 138.777 21.32 138.777 18.408H141.045C141.045 20.62 142.641 21.6 144.937 21.6C147.289 21.6 148.549 20.704 148.549 19.136C148.549 17.344 147.429 16.868 144.741 16.476C141.353 15.972 139.197 15.188 139.197 12.304C139.197 9.644 141.465 8.02 144.881 8.02C148.437 8.02 150.537 9.756 150.565 12.612H148.353C148.297 10.568 146.953 9.7 144.853 9.7C142.669 9.7 141.465 10.652 141.465 12.08C141.465 13.704 142.697 14.236 145.357 14.6C148.437 15.02 150.873 15.72 150.873 18.94C150.873 21.824 148.549 23.28 144.881 23.28ZM159.622 23.252C155.366 23.252 152.51 20.256 152.51 15.692C152.51 11.184 155.282 8.076 159.622 8.076C163.85 8.076 166.678 11.044 166.678 15.664C166.678 20.144 163.934 23.252 159.622 23.252ZM159.622 21.292C162.478 21.292 164.382 19.22 164.382 15.664C164.382 12.136 162.562 9.98 159.622 9.98C156.766 9.98 154.834 12.08 154.834 15.692C154.834 19.164 156.682 21.292 159.622 21.292ZM168.898 23V2.588H171.166V23H168.898ZM180.397 23.252C176.085 23.252 173.397 20.256 173.397 15.692C173.397 11.1 176.029 8.076 180.285 8.076C185.017 8.076 187.313 11.548 186.865 16.056H175.637C175.721 19.444 177.569 21.376 180.397 21.376C182.609 21.376 184.233 20.284 184.625 18.548H186.809C186.389 21.376 183.757 23.252 180.397 23.252ZM180.257 9.924C177.709 9.924 175.973 11.576 175.693 14.292H184.653C184.569 11.184 182.693 9.924 180.257 9.924Z" fill="#1A1A1A"/>
<defs>
<clipPath id="clip0_2645_877">
<rect width="85.5707" height="24.2014" fill="white" transform="translate(0 1.89941)"/>
</clipPath>
</defs>
</svg>
