<svg width="204" height="28" viewBox="0 0 204 28" fill="none" xmlns="http://www.w3.org/2000/svg">
<g clip-path="url(#clip0_3774_4208)">
<path d="M6.48873 3.75017L10.3237 1.53554C10.4329 1.47253 10.5683 1.47253 10.6775 1.53554L20.7846 7.37088C20.8938 7.43388 20.9611 7.55044 20.9621 7.67646L20.9758 11.6899C20.9758 11.817 20.9085 11.9346 20.7983 11.9976L16.9686 14.2091C16.7334 14.3456 16.4383 14.1755 16.4373 13.9035L16.4247 10.3017C16.4247 10.1757 16.3564 10.0591 16.2472 9.9961L6.48873 4.36342C6.25246 4.22691 6.25246 3.88668 6.48873 3.75017Z" fill="#010101"/>
<path d="M4.01134 21.9321L0.177465 19.7185C0.0672057 19.6555 0 19.5389 0 19.4119V7.74118C0 7.61517 0.0672057 7.49861 0.176415 7.43455L3.64591 5.41523C3.75617 5.35117 3.89163 5.35117 4.00084 5.41523L7.83051 7.62672C8.06573 7.76323 8.06678 8.10241 7.83156 8.23997L4.7191 10.0514C4.60989 10.1144 4.54269 10.2309 4.54269 10.358V21.6265C4.54269 21.8995 4.24761 22.0696 4.01134 21.9331V21.9321Z" fill="#010101"/>
<path d="M20.9758 14.9808V19.408C20.9758 19.535 20.9086 19.6516 20.7984 19.7146L10.6912 25.5499C10.582 25.6129 10.4476 25.6129 10.3384 25.5499L6.85527 23.5548C6.74501 23.4918 6.67676 23.3742 6.67676 23.2471V18.8252C6.67676 18.5532 6.97078 18.3831 7.20705 18.5175L10.3321 20.3079C10.4413 20.3709 10.5757 20.3699 10.6849 20.3079L20.4434 14.6731C20.6797 14.5366 20.9748 14.7067 20.9748 14.9797L20.9758 14.9808Z" fill="#010101"/>
<path d="M53.7507 7.57716H49.8359C49.6658 7.57716 49.5293 7.71472 49.5293 7.88484V15.331C49.5293 16.2834 49.3749 17.0805 49.0652 17.721C48.7554 18.3427 48.3301 18.8089 47.7883 19.1197C47.2464 19.4106 46.6269 19.5576 45.9306 19.5576C44.9236 19.5576 44.1402 19.2563 43.5795 18.6545C43.0377 18.0329 42.7667 17.07 42.7667 15.7689V7.88589C42.7667 7.71577 42.6292 7.57821 42.4601 7.57821H39.6165C39.5934 7.57401 39.5703 7.57191 39.5472 7.57191H33.883V7.25688C33.883 6.49872 34.0573 5.93587 34.4059 5.56624C34.7734 5.17771 35.2869 4.98344 35.9443 4.98344C36.2929 4.98344 36.6216 5.03174 36.9314 5.1294C37.1225 5.19031 37.3105 5.26907 37.4732 5.35517C37.636 5.44128 37.8376 5.35937 37.8996 5.18506L38.8782 2.47688C38.9287 2.33617 38.8719 2.17865 38.7428 2.1041C38.3606 1.88253 37.9122 1.71556 37.3955 1.60215C36.7959 1.46669 36.1669 1.39844 35.5085 1.39844C33.5742 1.39844 32.0842 1.93293 31.0383 3.00192C29.9934 4.05096 29.4705 5.46018 29.4705 7.22853V7.57191H27.4249C27.2244 7.57191 27.0605 7.70947 27.0605 7.87959V10.761C27.0605 10.9311 27.2233 11.0687 27.4249 11.0687H29.4705V22.9505C29.4705 23.1206 29.6081 23.2581 29.7771 23.2581H33.6908C33.8599 23.2581 33.9974 23.1206 33.9974 22.9505V11.0687H38.2377V16.4378C38.2377 18.0507 38.5181 19.3823 39.0799 20.4313C39.6417 21.4614 40.425 22.2291 41.431 22.7341C42.4569 23.2392 43.6183 23.4923 44.9142 23.4923C46.1144 23.4923 47.217 23.2203 48.223 22.6753C48.8215 22.3467 49.334 21.9266 49.7614 21.4184V22.9505C49.7614 23.1206 49.8989 23.2581 50.068 23.2581H53.7507C53.9208 23.2581 54.0573 23.1206 54.0573 22.9505V7.88589C54.0573 7.71577 53.9197 7.57821 53.7507 7.57821V7.57716Z" fill="#010101"/>
<path d="M66.9313 15.0357C66.3894 14.7049 65.7793 14.4529 65.102 14.2775C64.4258 14.1032 63.7474 13.9761 63.0701 13.8984C62.4128 13.8007 61.8027 13.6947 61.2409 13.5781C60.6801 13.4616 60.2244 13.3062 59.8768 13.1119C59.5471 12.9176 59.3833 12.6267 59.3833 12.2372C59.3833 11.8098 59.6153 11.4601 60.0805 11.1881C60.5447 10.9162 61.2808 10.7807 62.2867 10.7807C63.0029 10.7807 63.738 10.8678 64.493 11.0432C65.1703 11.1787 65.8392 11.4265 66.5018 11.7856C66.6583 11.8696 66.8515 11.8077 66.9271 11.647L68.1767 8.96929C68.245 8.82333 68.1893 8.64691 68.0486 8.57025C67.3576 8.19327 66.5218 7.9003 65.5389 7.69343C64.4363 7.46031 63.3526 7.34375 62.2878 7.34375C60.7788 7.34375 59.482 7.56742 58.3983 8.01371C57.3146 8.44214 56.4829 9.03439 55.9022 9.79256C55.3415 10.5507 55.06 11.4244 55.06 12.4157C55.06 13.3093 55.2249 14.0381 55.5536 14.602C55.9022 15.1648 56.3569 15.6122 56.9176 15.9429C57.4794 16.2737 58.0979 16.5257 58.7752 16.7011C59.4526 16.8565 60.1204 16.9825 60.7778 17.0802C61.4551 17.1778 62.0746 17.2744 62.6354 17.371C63.1961 17.4687 63.6414 17.6147 63.9711 17.8089C64.3197 17.9843 64.494 18.2563 64.494 18.6249C64.494 19.0722 64.2714 19.4219 63.8262 19.6739C63.4009 19.9259 62.6648 20.053 61.6199 20.053C60.6717 20.053 59.7046 19.9175 58.7175 19.6455C57.8764 19.3925 57.1308 19.0806 56.4798 18.7099C56.3233 18.6207 56.1248 18.6837 56.0492 18.8475L54.7954 21.5599C54.7293 21.7027 54.7828 21.8717 54.9162 21.9536C55.604 22.3737 56.4934 22.7318 57.5845 23.0268C58.8225 23.3377 60.1099 23.4931 61.4446 23.4931V23.491C63.0113 23.491 64.3376 23.2778 65.4213 22.8504C66.5239 22.423 67.366 21.8402 67.9467 21.102C68.5274 20.3449 68.8173 19.4796 68.8173 18.5083C68.8173 17.6147 68.6429 16.8954 68.2943 16.3514C67.9457 15.7875 67.491 15.3507 66.9302 15.0399L66.9313 15.0357Z" fill="#010101"/>
<path d="M84.4971 11.1335C83.7809 9.90912 82.8043 8.97664 81.5652 8.33503C80.3461 7.67453 79.0303 7.34375 77.4436 7.34375C75.857 7.34375 74.4341 7.69343 73.1771 8.39279C71.9191 9.0722 70.9226 10.0246 70.1875 11.249C69.4714 12.4535 69.1133 13.8627 69.1133 15.4168C69.1133 16.971 69.4808 18.3613 70.2159 19.5846C70.9509 20.7891 71.9863 21.7415 73.321 22.4409C74.6756 23.1402 76.2423 23.4899 78.0233 23.4899V23.492C79.4367 23.492 80.6853 23.2778 81.7679 22.8515C82.756 22.444 83.5909 21.8822 84.2734 21.1682C84.3847 21.0516 84.3847 20.8668 84.2755 20.7471L82.2646 18.5576C82.1512 18.4348 81.9622 18.4264 81.8351 18.5366C81.372 18.9409 80.8659 19.2518 80.3156 19.4691C79.6961 19.7211 78.9705 19.8482 78.1388 19.8482C77.2105 19.8482 76.3978 19.6833 75.7005 19.3526C75.0232 19.0029 74.4908 18.5072 74.1044 17.8667C73.9038 17.5076 73.761 17.118 73.6696 16.7H85.2048C85.3624 16.7 85.4947 16.5793 85.5094 16.4218C85.5199 16.3136 85.5304 16.2012 85.5398 16.0878C85.5598 15.8547 85.5692 15.651 85.5692 15.4756C85.5692 13.785 85.2111 12.338 84.495 11.1325L84.4971 11.1335ZM75.4117 11.3089C76.0113 10.9592 76.6991 10.7838 77.473 10.7838C78.247 10.7838 78.9243 10.9592 79.505 11.3089C80.0857 11.6386 80.5403 12.1059 80.869 12.7076C81.0874 13.1066 81.2313 13.554 81.3048 14.0475H73.6171C73.6927 13.5624 73.8355 13.1245 74.0476 12.736C74.3774 12.1143 74.831 11.6386 75.4117 11.3078V11.3089Z" fill="#010101"/>
</g>
<path d="M106.704 23.252C102.448 23.252 99.592 20.256 99.592 15.692C99.592 11.184 102.364 8.076 106.704 8.076C110.932 8.076 113.76 11.044 113.76 15.664C113.76 20.144 111.016 23.252 106.704 23.252ZM106.704 21.292C109.56 21.292 111.464 19.22 111.464 15.664C111.464 12.136 109.644 9.98 106.704 9.98C103.848 9.98 101.916 12.08 101.916 15.692C101.916 19.164 103.764 21.292 106.704 21.292ZM115.98 27.676L116.008 8.3H118.164L118.248 11.352H118.416C119.144 9.392 121.048 8.048 123.596 8.048C127.208 8.048 129.644 10.82 129.644 15.664C129.644 20.508 127.208 23.252 123.596 23.252C121.048 23.252 119.144 21.936 118.416 19.948H118.248V27.676H115.98ZM122.84 21.348C125.528 21.348 127.348 19.36 127.348 15.664C127.348 11.94 125.528 9.952 122.84 9.952C119.9 9.952 118.276 12.276 118.276 14.768V16.532C118.276 19.024 119.9 21.348 122.84 21.348ZM138.115 23.252C133.803 23.252 131.115 20.256 131.115 15.692C131.115 11.1 133.747 8.076 138.003 8.076C142.735 8.076 145.031 11.548 144.583 16.056H133.355C133.439 19.444 135.287 21.376 138.115 21.376C140.327 21.376 141.951 20.284 142.343 18.548H144.527C144.107 21.376 141.475 23.252 138.115 23.252ZM137.975 9.924C135.427 9.924 133.691 11.576 133.411 14.292H142.371C142.287 11.184 140.411 9.924 137.975 9.924ZM146.874 23V8.3H148.89L149.03 11.016H149.142C149.786 9.14 151.522 8.104 153.51 8.104C153.846 8.104 154.154 8.132 154.406 8.16V10.316C154.154 10.288 153.846 10.26 153.51 10.26C150.934 10.26 149.31 11.716 149.114 14.236V23H146.874ZM160.566 23.252C156.954 23.252 154.518 20.48 154.518 15.636C154.518 10.792 156.954 8.048 160.566 8.048C163.142 8.048 165.046 9.364 165.774 11.352H165.914L165.998 8.3H168.182V23H165.914V19.92H165.774C165.046 21.908 163.142 23.252 160.566 23.252ZM161.322 21.348C164.262 21.348 165.886 18.996 165.886 16.532V14.74C165.886 12.276 164.262 9.924 161.322 9.924C158.634 9.924 156.842 11.912 156.842 15.636C156.842 19.332 158.634 21.348 161.322 21.348ZM175.317 23C173.161 23 172.433 22.048 172.433 20.2V10.176H169.577V8.3H172.433V3.904L174.701 3.596V8.3H178.117V10.176H174.701V19.808C174.701 20.844 175.009 21.096 176.017 21.096H178.117V23H175.317ZM185.743 23.252C181.487 23.252 178.631 20.256 178.631 15.692C178.631 11.184 181.403 8.076 185.743 8.076C189.971 8.076 192.799 11.044 192.799 15.664C192.799 20.144 190.055 23.252 185.743 23.252ZM185.743 21.292C188.599 21.292 190.503 19.22 190.503 15.664C190.503 12.136 188.683 9.98 185.743 9.98C182.887 9.98 180.955 12.08 180.955 15.692C180.955 19.164 182.803 21.292 185.743 21.292ZM195.019 23V8.3H197.035L197.175 11.016H197.287C197.931 9.14 199.667 8.104 201.655 8.104C201.991 8.104 202.299 8.132 202.551 8.16V10.316C202.299 10.288 201.991 10.26 201.655 10.26C199.079 10.26 197.455 11.716 197.259 14.236V23H195.019Z" fill="#1A1A1A"/>
<defs>
<clipPath id="clip0_3774_4208">
<rect width="85.5707" height="24.2014" fill="white" transform="translate(0 1.39844)"/>
</clipPath>
</defs>
</svg>
