<svg width="296" height="331" viewBox="0 0 296 331" fill="none" xmlns="http://www.w3.org/2000/svg">
<g filter="url(#filter0_f_10075_1279)">
<path d="M254.893 228.626V103.172L147.41 165.546V289.943L254.893 228.626Z" fill="#A3F5AA"/>
<path d="M147.41 41.1499L40.9883 103.172L147.41 165.546L254.893 103.172L147.41 41.1499Z" fill="#A3F5AA"/>
<path d="M40.9883 228.626L147.41 289.943V165.546L40.9883 103.172V228.626Z" fill="#85EB8E"/>
<path d="M40.9883 103.172L147.41 41.1499L254.893 103.172M40.9883 103.172V228.626L147.41 289.943M40.9883 103.172L147.41 165.546M254.893 103.172V228.626L147.41 289.943M254.893 103.172L147.41 165.546M147.41 289.943V165.546" stroke="black" stroke-width="0.5"/>
</g>
<path d="M254.893 228.626V103.172L147.41 165.546V289.943L254.893 228.626Z" fill="#66E070"/>
<path d="M147.41 41.1499L40.9883 103.172L147.41 165.546L254.893 103.172L147.41 41.1499Z" fill="#A3F5AA"/>
<path d="M40.9883 228.626L147.41 289.943V165.546L40.9883 103.172V228.626Z" fill="#A3F5AA"/>
<path d="M40.9883 103.172L147.41 41.1499L254.893 103.172M40.9883 103.172V228.626L147.41 289.943M40.9883 103.172L147.41 165.546M254.893 103.172V228.626L147.41 289.943M254.893 103.172L147.41 165.546M147.41 289.943V165.546" stroke="black" stroke-width="0.5"/>
<path d="M148.597 84.5464L118.585 102.002L187.798 143.04V173.666L218.729 155.29V124.665L148.597 84.5464Z" stroke="black" stroke-width="0.5"/>
<path d="M131.412 128.406L101.282 110.912L76.1758 124.665V207.781L107.602 226.41V143.04L131.412 128.406Z" stroke="black" stroke-width="0.5"/>
<path d="M120.722 234.347V198.547L147.774 213.126L218.729 172.143V208.915L147.774 250.546L120.722 234.347Z" stroke="black" stroke-width="0.5"/>
<defs>
<filter id="filter0_f_10075_1279" x="0.738281" y="0.86084" width="294.404" height="329.37" filterUnits="userSpaceOnUse" color-interpolation-filters="sRGB">
<feFlood flood-opacity="0" result="BackgroundImageFix"/>
<feBlend mode="normal" in="SourceGraphic" in2="BackgroundImageFix" result="shape"/>
<feGaussianBlur stdDeviation="20" result="effect1_foregroundBlur_10075_1279"/>
</filter>
</defs>
</svg>
