<svg width="273" height="352" viewBox="0 0 273 352" fill="none" xmlns="http://www.w3.org/2000/svg">
<g filter="url(#filter0_f_10075_1280)">
<path d="M137.991 40.4429L41.1289 173.997L137.991 134.797V40.4429Z" fill="#FFAE81"/>
<path d="M41.1289 173.997L137.991 222.315V134.797L41.1289 173.997Z" fill="#FFAE81"/>
<path d="M137.991 222.315L41.1289 173.997L137.991 311.2V222.315Z" fill="#FFAE81"/>
<path d="M231.77 173.997L137.991 40.4429V134.797L231.77 173.997Z" fill="#FC9C67"/>
<path d="M137.991 222.315L231.77 173.997L137.991 134.797V222.315Z" fill="#FC9C67"/>
<path d="M231.77 173.997L137.991 222.315V311.2L231.77 173.997Z" fill="#FC9C67"/>
<path d="M137.991 40.4429L41.1289 173.997M137.991 40.4429L231.77 173.997M137.991 40.4429V311.2M137.991 40.4429V134.797M41.1289 173.997L137.991 222.315M41.1289 173.997L137.991 311.2M41.1289 173.997L137.991 134.797M137.991 222.315L231.77 173.997M137.991 222.315V134.797M137.991 222.315V311.2M231.77 173.997L137.991 311.2M231.77 173.997L137.991 134.797" stroke="black" stroke-width="0.5"/>
</g>
<path d="M137.991 40.4429L41.1289 173.997L137.991 134.797V40.4429Z" fill="#FFAE81"/>
<path d="M41.1289 173.997L137.991 222.315V134.797L41.1289 173.997Z" fill="#FFAE81"/>
<path d="M137.991 222.315L41.1289 173.997L137.991 311.2V222.315Z" fill="#FFAE81"/>
<path d="M231.77 173.997L137.991 40.4429V134.797L231.77 173.997Z" fill="#FC9C67"/>
<path d="M137.991 222.315L231.77 173.997L137.991 134.797V222.315Z" fill="#FC9C67"/>
<path d="M231.77 173.997L137.991 222.315V311.2L231.77 173.997Z" fill="#FC9C67"/>
<path d="M137.991 40.4429L41.1289 173.997M137.991 40.4429L231.77 173.997M137.991 40.4429V311.2M137.991 40.4429V134.797M41.1289 173.997L137.991 222.315M41.1289 173.997L137.991 311.2M41.1289 173.997L137.991 134.797M137.991 222.315L231.77 173.997M137.991 222.315V134.797M137.991 222.315V311.2M231.77 173.997L137.991 311.2M231.77 173.997L137.991 134.797" stroke="black" stroke-width="0.5"/>
<defs>
<filter id="filter0_f_10075_1280" x="0.822266" y="0.0126953" width="271.252" height="351.626" filterUnits="userSpaceOnUse" color-interpolation-filters="sRGB">
<feFlood flood-opacity="0" result="BackgroundImageFix"/>
<feBlend mode="normal" in="SourceGraphic" in2="BackgroundImageFix" result="shape"/>
<feGaussianBlur stdDeviation="20" result="effect1_foregroundBlur_10075_1280"/>
</filter>
</defs>
</svg>
