<svg width="313" height="354" viewBox="0 0 313 354" fill="none" xmlns="http://www.w3.org/2000/svg">
<g filter="url(#filter0_f_10075_1281)">
<path d="M80.839 40.5586C80.839 40.5586 83.0039 91.5378 63.9128 130.33C50.3782 157.832 42.9149 173.679 41.0463 200.792C39.3382 225.576 45.6465 246.274 56.9216 256.232C73.1044 266.196 125.605 297.726 137.436 304.827C122.085 293.292 115.406 241.4 139.819 194.98C164.631 150.545 164.195 86.3909 164.63 89.9725C203.079 99.6477 221.623 110.798 245.069 149.137L255.985 116.756C236.393 100.793 212.278 89.8929 172.066 68.3128L169.781 82.6335C169.781 82.6335 151.891 75.9627 133.396 62.2483C114.902 48.5339 80.839 40.5586 80.839 40.5586Z" fill="#FA8775"/>
<path d="M155.353 257.899L208.356 289.842C208.356 289.842 220.886 273.6 227.747 253.63C233.74 236.185 241.27 219.923 230.505 208.045C212.26 192.079 214.551 161.85 214.551 161.85C192.02 193.225 181.343 212.253 168.073 250.446L161.846 238.495C159.496 245.172 157.383 251.279 155.651 256.922C155.551 257.249 155.451 257.575 155.353 257.899Z" fill="#FA8775"/>
<path d="M164.63 89.9725C164.195 86.3909 164.631 150.545 139.819 194.98C115.406 241.4 122.085 293.292 137.436 304.827C138.969 305.747 139.819 306.257 139.819 306.257C149.433 311.183 157.193 313.063 168.286 313.054C150.062 297.581 148.138 281.797 155.353 257.899C155.451 257.575 155.551 257.249 155.651 256.922C157.383 251.279 159.496 245.172 161.846 238.495L168.073 250.446C181.343 212.253 192.02 193.225 214.551 161.85C214.551 161.85 212.26 192.079 230.505 208.045C241.27 219.923 233.74 236.185 227.747 253.63C220.886 273.6 208.356 289.842 208.356 289.842C269.703 227.97 290.214 162.846 255.985 116.756L245.069 149.137C221.623 110.798 203.079 99.6477 164.63 89.9725Z" fill="#FA8775"/>
<path d="M139.819 306.257C149.433 311.183 157.193 313.063 168.286 313.054M139.819 306.257C139.004 305.887 138.209 305.408 137.436 304.827M139.819 306.257C139.819 306.257 138.969 305.747 137.436 304.827M255.985 116.756L245.069 149.137C221.623 110.798 203.079 99.6477 164.63 89.9725C164.195 86.3909 164.631 150.545 139.819 194.98C115.406 241.4 122.085 293.292 137.436 304.827M255.985 116.756C290.214 162.846 269.703 227.97 208.356 289.842M255.985 116.756C236.393 100.793 212.278 89.8929 172.066 68.3128L169.781 82.6335C169.781 82.6335 151.891 75.9627 133.396 62.2483C114.902 48.5339 80.839 40.5586 80.839 40.5586C80.839 40.5586 83.0039 91.5378 63.9128 130.33C50.3782 157.832 42.9149 173.679 41.0463 200.792C39.3382 225.576 45.6465 246.274 56.9216 256.232C73.1044 266.196 125.605 297.726 137.436 304.827M208.356 289.842L155.353 257.899M208.356 289.842C208.356 289.842 220.886 273.6 227.747 253.63C233.74 236.185 241.27 219.923 230.505 208.045C212.26 192.079 214.551 161.85 214.551 161.85C192.02 193.225 181.343 212.253 168.073 250.446L161.846 238.495C159.496 245.172 157.383 251.279 155.651 256.922M155.353 257.899C148.138 281.797 150.062 297.581 168.286 313.054M155.353 257.899C155.451 257.575 155.551 257.249 155.651 256.922M168.286 313.054C149.815 297.371 148.145 281.376 155.651 256.922" stroke="black" stroke-width="0.443519"/>
</g>
<path d="M80.8409 40.5586C80.8409 40.5586 83.0059 91.5378 63.9148 130.33C50.3802 157.832 42.9168 173.679 41.0483 200.792C39.3401 225.576 45.6484 246.274 56.9235 256.232C73.1064 266.196 125.607 297.726 137.438 304.827C122.087 293.292 115.408 241.4 139.821 194.98C164.633 150.545 164.197 86.3909 164.632 89.9725C203.081 99.6477 221.625 110.798 245.071 149.137L255.987 116.756C236.395 100.793 212.28 89.8929 172.068 68.3128L169.783 82.6335C169.783 82.6335 151.893 75.9627 133.398 62.2483C114.904 48.5339 80.8409 40.5586 80.8409 40.5586Z" fill="#FA8775"/>
<path d="M155.355 257.899L208.358 289.842C208.358 289.842 220.887 273.6 227.749 253.63C233.742 236.185 241.272 219.923 230.507 208.045C212.262 192.079 214.553 161.85 214.553 161.85C192.022 193.225 181.344 212.253 168.075 250.446L161.848 238.495C159.498 245.172 157.385 251.279 155.653 256.922C155.552 257.249 155.453 257.575 155.355 257.899Z" fill="#FA8775"/>
<path d="M164.632 89.9725C164.197 86.3909 164.633 150.545 139.821 194.98C115.408 241.4 122.087 293.292 137.438 304.827C138.971 305.747 139.821 306.257 139.821 306.257C149.435 311.183 157.195 313.063 168.288 313.054C150.064 297.581 148.14 281.797 155.355 257.899C155.453 257.575 155.552 257.249 155.653 256.922C157.385 251.279 159.498 245.172 161.848 238.495L168.075 250.446C181.344 212.253 192.022 193.225 214.553 161.85C214.553 161.85 212.262 192.079 230.507 208.045C241.272 219.923 233.742 236.185 227.749 253.63C220.887 273.6 208.358 289.842 208.358 289.842C269.705 227.97 290.216 162.846 255.987 116.756L245.071 149.137C221.625 110.798 203.081 99.6477 164.632 89.9725Z" fill="#F65D51"/>
<path d="M139.821 306.257C149.435 311.183 157.195 313.063 168.288 313.054M139.821 306.257C139.006 305.887 138.211 305.408 137.438 304.827M139.821 306.257C139.821 306.257 138.971 305.747 137.438 304.827M255.987 116.756L245.071 149.137C221.625 110.798 203.081 99.6477 164.632 89.9725C164.197 86.3909 164.633 150.545 139.821 194.98C115.408 241.4 122.087 293.292 137.438 304.827M255.987 116.756C290.216 162.846 269.705 227.97 208.358 289.842M255.987 116.756C236.395 100.793 212.28 89.8929 172.068 68.3128L169.783 82.6335C169.783 82.6335 151.893 75.9627 133.398 62.2483C114.904 48.5339 80.8409 40.5586 80.8409 40.5586C80.8409 40.5586 83.0059 91.5378 63.9148 130.33C50.3802 157.832 42.9168 173.679 41.0483 200.792C39.3401 225.576 45.6484 246.274 56.9235 256.232C73.1064 266.196 125.607 297.726 137.438 304.827M208.358 289.842L155.355 257.899M208.358 289.842C208.358 289.842 220.887 273.6 227.749 253.63C233.742 236.185 241.272 219.923 230.507 208.045C212.262 192.079 214.553 161.85 214.553 161.85C192.022 193.225 181.344 212.253 168.075 250.446L161.848 238.495C159.498 245.172 157.385 251.279 155.653 256.922M155.355 257.899C148.14 281.797 150.064 297.581 168.288 313.054M155.355 257.899C155.453 257.575 155.552 257.249 155.653 256.922M168.288 313.054C149.817 297.371 148.147 281.376 155.653 256.922" stroke="black" stroke-width="0.443519"/>
<defs>
<filter id="filter0_f_10075_1281" x="0.546875" y="0.275879" width="312.166" height="353" filterUnits="userSpaceOnUse" color-interpolation-filters="sRGB">
<feFlood flood-opacity="0" result="BackgroundImageFix"/>
<feBlend mode="normal" in="SourceGraphic" in2="BackgroundImageFix" result="shape"/>
<feGaussianBlur stdDeviation="20" result="effect1_foregroundBlur_10075_1281"/>
</filter>
</defs>
</svg>
