<svg width="233" height="257" viewBox="0 0 233 257" fill="none" xmlns="http://www.w3.org/2000/svg">
<g filter="url(#filter0_f_9832_3293)">
<path d="M192.273 173.247V84.5347L116.27 128.641V216.606L192.273 173.247Z" fill="#A3F5AA"/>
<path d="M116.27 40.6772L41.0156 84.5347L116.27 128.641L192.273 84.5347L116.27 40.6772Z" fill="#A3F5AA"/>
<path d="M41.0156 173.247L116.27 216.606V128.641L41.0156 84.5347V173.247Z" fill="#85EB8E"/>
<path d="M41.0156 84.5347L116.27 40.6772L192.273 84.5347M41.0156 84.5347V173.247L116.27 216.606M41.0156 84.5347L116.27 128.641M192.273 84.5347V173.247L116.27 216.606M192.273 84.5347L116.27 128.641M116.27 216.606V128.641" stroke="black" stroke-width="0.5"/>
</g>
<path d="M192.273 173.247V84.5347L116.27 128.641V216.606L192.273 173.247Z" fill="#66E070"/>
<path d="M116.27 40.6772L41.0156 84.5347L116.27 128.641L192.273 84.5347L116.27 40.6772Z" fill="#A3F5AA"/>
<path d="M41.0156 173.247L116.27 216.606V128.641L41.0156 84.5347V173.247Z" fill="#A3F5AA"/>
<path d="M41.0156 84.5347L116.27 40.6772L192.273 84.5347M41.0156 84.5347V173.247L116.27 216.606M41.0156 84.5347L116.27 128.641M192.273 84.5347V173.247L116.27 216.606M192.273 84.5347L116.27 128.641M116.27 216.606V128.641" stroke="black" stroke-width="0.5"/>
<path d="M117.105 71.3643L95.8834 83.7079L144.826 112.727V134.383L166.698 121.389V99.7334L117.105 71.3643Z" stroke="black" stroke-width="0.5"/>
<path d="M104.954 102.379L83.648 90.0079L65.8945 99.7334V158.507L88.1166 171.68V112.727L104.954 102.379Z" stroke="black" stroke-width="0.5"/>
<path d="M97.3942 177.293V151.978L116.524 162.287L166.698 133.307V159.309L116.524 188.747L97.3942 177.293Z" stroke="black" stroke-width="0.5"/>
<defs>
<filter id="filter0_f_9832_3293" x="0.765625" y="0.388184" width="231.758" height="256.506" filterUnits="userSpaceOnUse" color-interpolation-filters="sRGB">
<feFlood flood-opacity="0" result="BackgroundImageFix"/>
<feBlend mode="normal" in="SourceGraphic" in2="BackgroundImageFix" result="shape"/>
<feGaussianBlur stdDeviation="20" result="effect1_foregroundBlur_9832_3293"/>
</filter>
</defs>
</svg>
