<svg width="96" height="161" viewBox="0 0 96 161" fill="none" xmlns="http://www.w3.org/2000/svg">
<g clip-path="url(#clip0_5286_2080)">
<path d="M79.4935 149.664L79.4822 128.195L60.6865 139.006L60.6979 160.477L79.4935 149.664Z" fill="white" stroke="#1B1B1B" stroke-width="0.5" stroke-linecap="round" stroke-linejoin="round"/>
<path d="M60.6973 160.477L60.686 139.006L13.1309 112.593L13.1422 134.063L60.6973 160.477Z" fill="white" stroke="#1B1B1B" stroke-width="0.5" stroke-linecap="round" stroke-linejoin="round"/>
<path d="M60.686 139.006L13.1309 112.593L31.9251 101.781L79.4817 128.195L60.686 139.006Z" fill="white" stroke="#1B1B1B" stroke-width="0.5" stroke-linecap="round" stroke-linejoin="round"/>
<path d="M0.354492 136.459L0.365826 114.988L19.1601 125.799L19.1487 147.27L0.354492 136.459Z" fill="white" stroke="#1B1B1B" stroke-width="0.5" stroke-linecap="round" stroke-linejoin="round"/>
<path d="M19.1484 147.27L19.1598 125.799L66.7163 99.3871L66.705 120.857L19.1484 147.27Z" fill="white" stroke="#1B1B1B" stroke-width="0.5" stroke-linecap="round" stroke-linejoin="round"/>
<path d="M19.1595 125.799L66.716 99.387L47.9218 88.5742L0.365234 114.988L19.1595 125.799Z" fill="white" stroke="#1B1B1B" stroke-width="0.5" stroke-linecap="round" stroke-linejoin="round"/>
<path d="M66.7216 99.2181L66.7103 77.7472L47.916 88.5586L47.9274 110.029L66.7216 99.2181Z" fill="#B4F9BA" stroke="#242424" stroke-width="0.5" stroke-linecap="round" stroke-linejoin="round"/>
<path d="M47.9273 110.029L47.9159 88.5586L0.359375 62.1463L0.370709 83.6158L47.9273 110.029Z" fill="#B4F9BA" stroke="#242424" stroke-width="0.5" stroke-linecap="round" stroke-linejoin="round"/>
<path d="M47.9159 88.5586L0.359375 62.1463L19.1536 51.3335L66.7102 77.7472L47.9159 88.5586Z" fill="#B4F9BA" stroke="#242424" stroke-width="0.5" stroke-linecap="round" stroke-linejoin="round"/>
<path d="M29.2832 78.4173L29.2945 56.9479L48.0902 67.7593L48.0789 89.2287L29.2832 78.4173Z" fill="white" stroke="#1B1B1B" stroke-width="0.5" stroke-linecap="round" stroke-linejoin="round"/>
<path d="M48.0781 89.2287L48.0895 67.7593L95.6446 41.3456L95.6333 62.8165L48.0781 89.2287Z" fill="white" stroke="#1B1B1B" stroke-width="0.5" stroke-linecap="round" stroke-linejoin="round"/>
<path d="M48.0896 67.7593L95.6448 41.3456L76.8505 30.5342L29.2939 56.9479L48.0896 67.7593Z" fill="white" stroke="#1B1B1B" stroke-width="0.5" stroke-linecap="round" stroke-linejoin="round"/>
<path d="M81.1816 49.0703L81.1702 27.6008L62.376 38.4122L62.3873 59.8817L81.1816 49.0703Z" fill="white" stroke="#1B1B1B" stroke-width="0.5" stroke-linecap="round" stroke-linejoin="round"/>
<path d="M62.3872 59.8816L62.3759 38.4121L14.8193 11.9984L14.8307 33.4693L62.3872 59.8816Z" fill="white" stroke="#1B1B1B" stroke-width="0.5" stroke-linecap="round" stroke-linejoin="round"/>
<path d="M62.3759 38.4121L14.8193 11.9984L33.6136 1.18701L81.1702 27.6007L62.3759 38.4121Z" fill="white" stroke="#1B1B1B" stroke-width="0.5" stroke-linecap="round" stroke-linejoin="round"/>
</g>
<defs>
<clipPath id="clip0_5286_2080">
<rect width="96" height="160" fill="white" transform="translate(0 0.832031)"/>
</clipPath>
</defs>
</svg>
