<svg width="272" height="271" viewBox="0 0 272 271" fill="none" xmlns="http://www.w3.org/2000/svg">
<g filter="url(#filter0_f_9214_2029)">
<path d="M135.999 220.957C183.014 220.957 221.128 182.901 221.128 135.957C221.128 89.0128 183.014 50.957 135.999 50.957C88.9829 50.957 50.8691 89.0128 50.8691 135.957C50.8691 182.901 88.9829 220.957 135.999 220.957Z" fill="url(#paint0_linear_9214_2029)"/>
<path d="M220.628 135.957C220.628 182.624 182.739 220.457 135.999 220.457C89.2583 220.457 51.3691 182.624 51.3691 135.957C51.3691 89.2897 89.2583 51.457 135.999 51.457C182.739 51.457 220.628 89.2897 220.628 135.957Z" stroke="#F65D51"/>
</g>
<path d="M220.628 135.957C220.628 182.624 182.739 220.457 135.999 220.457C89.2583 220.457 51.3691 182.624 51.3691 135.957C51.3691 89.2897 89.2583 51.457 135.999 51.457C182.739 51.457 220.628 89.2897 220.628 135.957Z" fill="white" fill-opacity="0.5" stroke="#F65D51"/>
<path d="M130.259 102.95C132.269 103.535 133.597 104.505 134.149 105.829C134.351 106.317 134.849 107.51 135.339 108.684C135.803 109.795 136.259 110.888 136.45 111.349L136.45 111.349C137.003 112.674 136.757 114.3 135.759 116.139C134.764 117.976 133.037 119.988 130.702 122.052C126.036 126.178 118.984 130.473 110.651 133.947C102.318 137.421 94.3016 139.411 88.0835 139.824C84.9732 140.031 82.3271 139.841 80.3205 139.256C78.3114 138.67 76.9831 137.7 76.4306 136.373C76.2326 135.894 75.7563 134.753 75.2803 133.613L75.2801 133.612C74.8037 132.471 74.3276 131.331 74.13 130.853L74.1297 130.853C73.5773 129.528 73.823 127.902 74.8202 126.063C75.8161 124.226 77.5428 122.214 79.8772 120.15C84.5439 116.024 91.5954 111.729 99.9286 108.255C108.262 104.78 116.278 102.793 122.496 102.381C125.606 102.175 128.253 102.365 130.259 102.95Z" fill="#F65D51" stroke="black" stroke-width="0.5"/>
<g style="mix-blend-mode:multiply" opacity="0.3">
<path d="M130.259 102.951C132.269 103.537 133.597 104.506 134.149 105.831C134.351 106.319 134.849 107.512 135.339 108.685C135.803 109.796 136.259 110.89 136.45 111.35L136.45 111.351C137.003 112.676 136.757 114.301 135.759 116.14C134.764 117.977 133.037 119.99 130.702 122.054C126.036 126.18 118.984 130.474 110.651 133.949C102.318 137.423 94.3016 139.413 88.0835 139.825C84.9732 140.032 82.3271 139.843 80.3205 139.258C78.3114 138.671 76.9831 137.701 76.4306 136.374C76.2326 135.895 75.7563 134.754 75.2803 133.614L75.2801 133.614C74.8037 132.473 74.3276 131.333 74.13 130.855L74.1297 130.854C73.5773 129.529 73.823 127.904 74.8202 126.065C75.8161 124.228 77.5428 122.215 79.8772 120.151C84.5439 116.025 91.5954 111.731 99.9286 108.256C108.262 104.782 116.278 102.794 122.496 102.383C125.606 102.177 128.253 102.366 130.259 102.951Z" fill="#F65D51" stroke="black" stroke-width="0.5"/>
<path d="M130.259 102.951C132.269 103.537 133.597 104.506 134.149 105.831C134.351 106.319 134.849 107.512 135.339 108.685C135.803 109.796 136.259 110.89 136.45 111.35L136.45 111.351C137.003 112.676 136.757 114.301 135.759 116.14C134.764 117.977 133.037 119.99 130.702 122.054C126.036 126.18 118.984 130.474 110.651 133.949C102.318 137.423 94.3016 139.413 88.0835 139.825C84.9732 140.032 82.3271 139.843 80.3205 139.258C78.3114 138.671 76.9831 137.701 76.4306 136.374C76.2326 135.895 75.7563 134.754 75.2803 133.614L75.2801 133.614C74.8037 132.473 74.3276 131.333 74.13 130.855L74.1297 130.854C73.5773 129.529 73.823 127.904 74.8202 126.065C75.8161 124.228 77.5428 122.215 79.8772 120.151C84.5439 116.025 91.5954 111.731 99.9286 108.256C108.262 104.782 116.278 102.794 122.496 102.383C125.606 102.177 128.253 102.366 130.259 102.951Z" fill="#F65D51" stroke="black" stroke-width="0.5"/>
</g>
<path d="M130.259 102.95C132.269 103.535 133.597 104.505 134.149 105.829C134.351 106.317 134.849 107.51 135.339 108.684C135.803 109.795 136.259 110.888 136.45 111.349L136.45 111.349C137.003 112.674 136.757 114.3 135.759 116.139C134.764 117.976 133.037 119.988 130.702 122.052C126.036 126.178 118.984 130.473 110.651 133.947C102.318 137.421 94.3016 139.411 88.0835 139.824C84.9732 140.031 82.3271 139.841 80.3205 139.256C78.3114 138.67 76.9831 137.7 76.4306 136.373C76.2326 135.894 75.7563 134.753 75.2803 133.613L75.2801 133.612C74.8037 132.471 74.3276 131.331 74.13 130.853L74.1297 130.853C73.5773 129.528 73.823 127.902 74.8202 126.063C75.8161 124.226 77.5428 122.214 79.8772 120.15C84.5439 116.024 91.5954 111.729 99.9286 108.255C108.262 104.78 116.278 102.793 122.496 102.381C125.606 102.175 128.253 102.365 130.259 102.95Z" fill="#F65D51" stroke="black" stroke-width="0.5"/>
<path d="M74.1298 130.853L74.1297 130.853C73.5773 129.528 73.823 127.902 74.8202 126.063C75.8161 124.226 77.5428 122.214 79.8772 120.15C84.5439 116.024 91.5954 111.729 99.9286 108.255C108.262 104.78 116.278 102.793 122.496 102.381C125.606 102.175 128.253 102.365 130.259 102.95C132.269 103.535 133.597 104.505 134.149 105.83C134.702 107.154 134.456 108.78 133.459 110.619C132.463 112.456 130.736 114.468 128.402 116.532C123.735 120.659 116.683 124.953 108.35 128.428C100.017 131.902 92.0009 133.892 85.7828 134.305C82.6724 134.511 80.0263 134.322 78.0198 133.737C76.0106 133.15 74.6822 132.18 74.1298 130.853Z" fill="#F65D51" stroke="black" stroke-width="0.5"/>
<path d="M144.535 95.9088L144.536 95.908C145.57 94.6924 146.593 93.5017 147.623 92.3015C147.992 91.8717 148.362 91.4407 148.734 91.0069C152.881 86.1718 159.269 84.0338 166.271 84.5123C173.272 84.9909 180.871 88.0871 187.397 93.6978C193.926 99.3123 198.133 106.367 199.664 113.225C201.196 120.084 200.05 126.729 195.903 131.564L195.902 131.565C194.877 132.77 193.863 133.95 192.842 135.14C192.464 135.58 192.085 136.021 191.704 136.466C187.557 141.301 181.169 143.439 174.167 142.96C167.165 142.48 159.565 139.382 153.036 133.768C146.508 128.153 142.301 121.099 140.77 114.241C139.239 107.384 140.386 100.74 144.535 95.9088Z" fill="#F65D51" stroke="black" stroke-width="0.5"/>
<g style="mix-blend-mode:multiply" opacity="0.3">
<path d="M144.535 95.9088L144.536 95.908C145.57 94.6924 146.593 93.5017 147.623 92.3015C147.992 91.8717 148.362 91.4407 148.734 91.0069C152.881 86.1718 159.269 84.0338 166.271 84.5123C173.272 84.9909 180.871 88.0871 187.397 93.6978C193.926 99.3123 198.133 106.367 199.664 113.225C201.196 120.084 200.05 126.729 195.903 131.564L195.902 131.565C194.877 132.77 193.863 133.95 192.842 135.14C192.464 135.58 192.085 136.021 191.704 136.466C187.557 141.301 181.169 143.439 174.167 142.96C167.165 142.48 159.565 139.382 153.036 133.768C146.508 128.153 142.301 121.099 140.77 114.241C139.239 107.384 140.386 100.74 144.535 95.9088Z" fill="#F65D51"/>
<path d="M144.535 95.9088L144.536 95.908C145.57 94.6924 146.593 93.5017 147.623 92.3015C147.992 91.8717 148.362 91.4407 148.734 91.0069C152.881 86.1718 159.269 84.0338 166.271 84.5123C173.272 84.9909 180.871 88.0871 187.397 93.6978C193.926 99.3123 198.133 106.367 199.664 113.225C201.196 120.084 200.05 126.729 195.903 131.564L195.902 131.565C194.877 132.77 193.863 133.95 192.842 135.14C192.464 135.58 192.085 136.021 191.704 136.466C187.557 141.301 181.169 143.439 174.167 142.96C167.165 142.48 159.565 139.382 153.036 133.768C146.508 128.153 142.301 121.099 140.77 114.241C139.239 107.384 140.386 100.74 144.535 95.9088Z" stroke="black" stroke-width="0.5"/>
</g>
<path d="M144.535 95.9088L144.536 95.908C145.57 94.6924 146.593 93.5017 147.623 92.3015C147.992 91.8717 148.362 91.4407 148.734 91.0069C152.881 86.1718 159.269 84.0338 166.271 84.5123C173.272 84.9909 180.871 88.0871 187.397 93.6978C193.926 99.3123 198.133 106.367 199.664 113.225C201.196 120.084 200.05 126.729 195.903 131.564L195.902 131.565C194.877 132.77 193.863 133.95 192.842 135.14C192.464 135.58 192.085 136.021 191.704 136.466C187.557 141.301 181.169 143.439 174.167 142.96C167.165 142.48 159.565 139.382 153.036 133.768C146.508 128.153 142.301 121.099 140.77 114.241C139.239 107.384 140.386 100.74 144.535 95.9088Z" fill="#F65D51" stroke="black" stroke-width="0.5"/>
<path d="M183.199 98.6046C189.729 104.218 193.936 111.273 195.468 118.131C196.999 124.99 195.854 131.635 191.707 136.47C187.561 141.304 181.173 143.442 174.17 142.963C167.167 142.483 159.566 139.386 153.037 133.772C146.508 128.158 142.3 121.103 140.769 114.245C139.237 107.386 140.383 100.741 144.529 95.9065C148.676 91.0722 155.064 88.9345 162.066 89.4139C169.069 89.8933 176.67 92.9909 183.199 98.6046Z" fill="#F65D51" stroke="black" stroke-width="0.5"/>
<path d="M162.805 161.365L162.752 161.616L162.761 161.617L161.262 168.814C160.043 174.662 155.663 179.298 149.524 182.052C143.386 184.805 135.506 185.666 127.344 183.967C119.182 182.268 112.301 178.334 107.772 173.36C103.243 168.385 101.078 162.387 102.296 156.54L103.848 149.092C105.066 143.244 109.446 138.608 115.585 135.854C121.724 133.101 129.604 132.24 137.766 133.939C145.929 135.638 152.807 139.571 157.334 144.545C161.86 149.519 164.023 155.517 162.805 161.365Z" fill="#F65D51" stroke="#F65D51" stroke-width="0.5"/>
<g style="mix-blend-mode:multiply" opacity="0.3">
<path d="M162.804 161.367L162.751 161.618L162.76 161.619L161.261 168.816C160.043 174.664 155.662 179.3 149.523 182.054C143.385 184.807 135.505 185.668 127.343 183.969C119.181 182.27 112.3 178.336 107.771 173.362C103.242 168.387 101.077 162.389 102.295 156.542L103.847 149.094C105.065 143.246 109.446 138.61 115.585 135.856C121.723 133.103 129.603 132.242 137.765 133.941C145.928 135.64 152.806 139.573 157.333 144.547C161.859 149.521 164.022 155.519 162.804 161.367Z" fill="#F65D51" stroke="#F65D51" stroke-width="0.5"/>
<path d="M162.804 161.367L162.751 161.618L162.76 161.619L161.261 168.816C160.043 174.664 155.662 179.3 149.523 182.054C143.385 184.807 135.505 185.668 127.343 183.969C119.181 182.27 112.3 178.336 107.771 173.362C103.242 168.387 101.077 162.389 102.295 156.542L103.847 149.094C105.065 143.246 109.446 138.61 115.585 135.856C121.723 133.103 129.603 132.242 137.765 133.941C145.928 135.64 152.806 139.573 157.333 144.547C161.859 149.521 164.022 155.519 162.804 161.367Z" fill="#F65D51" stroke="#F65D51" stroke-width="0.5"/>
</g>
<path d="M162.805 161.365L162.752 161.616L162.761 161.617L161.262 168.814C160.043 174.662 155.663 179.298 149.524 182.052C143.386 184.805 135.506 185.666 127.344 183.967C119.182 182.268 112.301 178.334 107.772 173.36C103.243 168.385 101.078 162.387 102.296 156.54L103.848 149.092C105.066 143.244 109.446 138.608 115.585 135.854C121.724 133.101 129.604 132.24 137.766 133.939C145.929 135.638 152.807 139.571 157.334 144.545C161.86 149.519 164.023 155.517 162.805 161.365Z" fill="#F65D51" stroke="black" stroke-width="0.5"/>
<path d="M162.812 161.367C161.593 167.215 157.214 171.851 151.075 174.605C144.937 177.358 137.057 178.219 128.894 176.52C120.73 174.82 113.85 170.887 109.321 165.913C104.792 160.938 102.628 154.941 103.846 149.092L103.601 149.041L103.846 149.092C105.065 143.243 109.444 138.607 115.583 135.854C121.722 133.101 129.601 132.24 137.764 133.939C145.928 135.638 152.809 139.572 157.337 144.546C161.866 149.52 164.03 155.518 162.812 161.367Z" fill="#F65D51" stroke="black" stroke-width="0.5"/>
<defs>
<filter id="filter0_f_9214_2029" x="0.869141" y="0.957031" width="270.259" height="270" filterUnits="userSpaceOnUse" color-interpolation-filters="sRGB">
<feFlood flood-opacity="0" result="BackgroundImageFix"/>
<feBlend mode="normal" in="SourceGraphic" in2="BackgroundImageFix" result="shape"/>
<feGaussianBlur stdDeviation="25" result="effect1_foregroundBlur_9214_2029"/>
</filter>
<linearGradient id="paint0_linear_9214_2029" x1="50.8691" y1="50.957" x2="221.128" y2="220.957" gradientUnits="userSpaceOnUse">
<stop offset="0.425" stop-color="#FFC17B"/>
<stop offset="1" stop-color="#F65D51"/>
</linearGradient>
</defs>
</svg>
