<svg width="233" height="274" viewBox="0 0 233 274" fill="none" xmlns="http://www.w3.org/2000/svg">
<path d="M40.8409 0.558594C40.8409 0.558594 43.0059 51.5378 23.9148 90.3302C10.3802 117.832 2.91684 133.679 1.04827 160.792C-0.659871 185.576 5.64844 206.274 16.9235 216.232C33.1064 226.196 85.6073 257.726 97.4378 264.827C82.0872 253.292 75.4079 201.4 99.8206 154.98C124.633 110.545 124.197 46.3909 124.632 49.9725C163.081 59.6477 181.625 70.7984 205.071 109.137L215.987 76.7563C196.395 60.7926 172.28 49.8929 132.068 28.3128L129.783 42.6335C129.783 42.6335 111.893 35.9627 93.3983 22.2483C74.9039 8.5339 40.8409 0.558594 40.8409 0.558594Z" fill="#FA8775"/>
<path d="M115.355 217.899L168.358 249.842C168.358 249.842 180.887 233.6 187.749 213.63C193.742 196.185 201.272 179.923 190.507 168.045C172.262 152.079 174.552 121.85 174.552 121.85C152.022 153.225 141.344 172.253 128.075 210.446L121.848 198.495C119.498 205.172 117.385 211.279 115.653 216.922C115.552 217.249 115.453 217.575 115.355 217.899Z" fill="#FA8775"/>
<path d="M124.632 49.9725C124.197 46.3909 124.633 110.545 99.8206 154.98C75.4079 201.4 82.0872 253.292 97.4378 264.827C98.9705 265.747 99.8206 266.257 99.8206 266.257C109.435 271.183 117.195 273.063 128.288 273.054C110.064 257.581 108.14 241.797 115.355 217.899C115.453 217.575 115.552 217.249 115.653 216.922C117.385 211.279 119.498 205.172 121.848 198.495L128.075 210.446C141.344 172.253 152.022 153.225 174.552 121.85C174.552 121.85 172.262 152.079 190.507 168.045C201.272 179.923 193.742 196.185 187.749 213.63C180.887 233.6 168.358 249.842 168.358 249.842C229.705 187.97 250.216 122.846 215.987 76.7563L205.071 109.137C181.625 70.7984 163.081 59.6477 124.632 49.9725Z" fill="#F65D51"/>
<path d="M99.8206 266.257C109.435 271.183 117.195 273.063 128.288 273.054M99.8206 266.257C99.0062 265.887 98.211 265.408 97.4378 264.827M99.8206 266.257C99.8206 266.257 98.9705 265.747 97.4378 264.827M215.987 76.7564L205.071 109.137C181.625 70.7984 163.081 59.6477 124.632 49.9725C124.197 46.3909 124.633 110.545 99.8206 154.98C75.4079 201.4 82.0872 253.292 97.4378 264.827M215.987 76.7564C250.216 122.846 229.705 187.97 168.358 249.842M215.987 76.7564C196.395 60.7926 172.28 49.8929 132.068 28.3128L129.783 42.6335C129.783 42.6335 111.893 35.9627 93.3983 22.2483C74.9039 8.5339 40.8409 0.558594 40.8409 0.558594C40.8409 0.558594 43.0059 51.5378 23.9148 90.3302C10.3802 117.832 2.91684 133.679 1.04827 160.792C-0.659871 185.576 5.64844 206.274 16.9235 216.232C33.1064 226.196 85.6073 257.726 97.4378 264.827M168.358 249.842L115.355 217.899M168.358 249.842C168.358 249.842 180.887 233.6 187.749 213.63C193.742 196.185 201.272 179.923 190.507 168.045C172.262 152.079 174.552 121.85 174.552 121.85C152.022 153.225 141.344 172.253 128.075 210.446L121.848 198.495C119.498 205.172 117.385 211.279 115.653 216.922M115.355 217.899C108.14 241.797 110.064 257.581 128.288 273.054M115.355 217.899C115.453 217.575 115.552 217.249 115.653 216.922M128.288 273.054C109.817 257.371 108.147 241.376 115.653 216.922" stroke="black" stroke-width="0.443519"/>
</svg>
