<svg width="274" height="250" viewBox="0 0 274 250" fill="none" xmlns="http://www.w3.org/2000/svg">
<g clip-path="url(#clip0_9827_2400)">
<path d="M135.799 118.461L135.752 85.4355L56.2012 132.23L56.2483 165.256L135.799 118.461Z" fill="#EDC765" stroke="black" stroke-width="0.5" stroke-linecap="round" stroke-linejoin="round"/>
<path d="M135.729 118.461L135.776 85.4355L217.773 133.405L217.726 166.428L135.729 118.461Z" fill="#F5DC99" stroke="black" stroke-width="0.5" stroke-linecap="round" stroke-linejoin="round"/>
<path d="M273.439 170.407L273.356 135.365L139.021 214.383L139.102 249.425L273.439 170.407Z" fill="#EDC765" stroke="black" stroke-width="0.5" stroke-linecap="round" stroke-linejoin="round"/>
<path d="M139.103 249.425L139.022 214.384L0.574219 131.439L0.654958 166.479L139.103 249.425Z" fill="#F5DC99" stroke="black" stroke-width="0.5" stroke-linecap="round" stroke-linejoin="round"/>
<path d="M134.908 52.4282L0.560547 131.449L139.026 214.379L273.374 135.361L134.908 52.4282ZM138.19 181.369L56.2011 132.237L135.779 85.4381L217.767 134.572L138.19 181.374V181.369Z" fill="#F5DC99" stroke="black" stroke-width="0.5" stroke-linecap="round" stroke-linejoin="round"/>
<path d="M138.5 91.5497L138.547 55.0713L218.098 101.866L178.3 107.626L138.5 91.5497Z" fill="#F5DC99" stroke="black" stroke-width="0.5" stroke-linecap="round" stroke-linejoin="round"/>
<path d="M217.799 110.883L217.752 74.4048L138.201 121.197L138.248 157.675L217.799 110.883Z" fill="#EDC765" stroke="black" stroke-width="0.5" stroke-linecap="round" stroke-linejoin="round"/>
<path d="M138.889 94.6298L138.842 58.1514L59.291 104.946L99.091 110.706L138.889 94.6298Z" fill="#EDC765" stroke="black" stroke-width="0.5" stroke-linecap="round" stroke-linejoin="round"/>
<path d="M138.248 157.675L138.201 121.197L56.2148 72.0786L56.2619 108.557L138.248 157.675Z" fill="#F5DC99"/>
<path d="M138.248 157.675L138.201 121.197L56.2148 72.0786L56.2619 108.557L138.248 157.675Z" stroke="black" stroke-width="0.5" stroke-linecap="round" stroke-linejoin="round"/>
<path d="M135.758 25.2817L56.2168 72.083L138.192 121.183L217.76 74.4092L135.758 25.2817ZM112.642 74.023L138.705 58.7007L165.553 74.7724L139.49 90.0947L112.642 74.023Z" fill="#F5DC99" stroke="black" stroke-width="0.5" stroke-linecap="round" stroke-linejoin="round"/>
<path d="M165.559 47.0863L165.544 16.6577L139.494 31.98L139.512 62.4086L165.559 47.0863Z" fill="#EDC765" stroke="black" stroke-width="0.5" stroke-linecap="round" stroke-linejoin="round"/>
<path d="M139.512 62.4087L139.494 31.9801L112.648 15.897L112.664 46.3255L139.512 62.4087Z" fill="#F5DC99" stroke="black" stroke-width="0.5" stroke-linecap="round" stroke-linejoin="round"/>
<path d="M139.494 31.9802L112.648 15.897L138.698 0.574707L165.544 16.6578L139.494 31.9802Z" fill="#F5DC99" stroke="black" stroke-width="0.5" stroke-linecap="round" stroke-linejoin="round"/>
</g>
<defs>
<clipPath id="clip0_9827_2400">
<rect width="274" height="250" fill="white"/>
</clipPath>
</defs>
</svg>
