<svg width="117" height="152" viewBox="0 0 117 152" fill="none" xmlns="http://www.w3.org/2000/svg">
<g clip-path="url(#clip0_5286_2106)">
<path d="M87.4424 100.643L87.4252 67.905L58.707 84.39L58.7242 117.128L87.4424 100.643Z" fill="white" stroke="#1B1B1B" stroke-width="0.586527" stroke-linecap="round" stroke-linejoin="round"/>
<path d="M58.7239 117.128L58.7067 84.39L29.1094 67.0851L29.1266 99.8235L58.7239 117.128Z" fill="white" stroke="#1B1B1B" stroke-width="0.586527" stroke-linecap="round" stroke-linejoin="round"/>
<path d="M58.7067 84.3899L29.1094 67.0851L57.8275 50.6L87.4248 67.9049L58.7067 84.3899Z" fill="white" stroke="#1B1B1B" stroke-width="0.586527" stroke-linecap="round" stroke-linejoin="round"/>
<path d="M116.609 117.948L116.592 85.2097L87.874 101.696L87.8912 134.435L116.609 117.948Z" fill="white" stroke="#1B1B1B" stroke-width="0.5" stroke-linecap="round" stroke-linejoin="round"/>
<path d="M87.8909 134.435L87.8737 101.696L58.2764 84.39L58.2936 117.13L87.8909 134.435Z" fill="white" stroke="#1B1B1B" stroke-width="0.5" stroke-linecap="round" stroke-linejoin="round"/>
<path d="M87.8737 101.696L58.2764 84.3899L86.9945 67.9049L116.592 85.2098L87.8737 101.696Z" fill="white" stroke="#1B1B1B" stroke-width="0.5" stroke-linecap="round" stroke-linejoin="round"/>
<path d="M87.4424 67.9051L87.4252 35.1666L58.707 51.6516L58.7242 84.3901L87.4424 67.9051Z" fill="white" stroke="#1B1B1B" stroke-width="0.586527" stroke-linecap="round" stroke-linejoin="round"/>
<path d="M58.7239 84.3901L58.7067 51.6516L29.1094 34.3467L29.1266 67.0852L58.7239 84.3901Z" fill="white" stroke="#1B1B1B" stroke-width="0.586527" stroke-linecap="round" stroke-linejoin="round"/>
<path d="M58.7067 51.6516L29.1094 34.3467L57.8275 17.8617L87.4248 35.1666L58.7067 51.6516Z" fill="white" stroke="#1B1B1B" stroke-width="0.586527" stroke-linecap="round" stroke-linejoin="round"/>
<path d="M116.609 85.2099L116.592 52.4714L87.874 68.9564L87.8912 101.696L116.609 85.2099Z" fill="white" stroke="#1B1B1B" stroke-width="0.5" stroke-linecap="round" stroke-linejoin="round"/>
<path d="M87.8909 101.696L87.8737 68.9563L58.2764 51.6514L58.2936 84.3899L87.8909 101.696Z" fill="white" stroke="#1B1B1B" stroke-width="0.5" stroke-linecap="round" stroke-linejoin="round"/>
<path d="M87.8737 68.9563L58.2764 51.6514L86.9945 35.1664L116.592 52.4713L87.8737 68.9563Z" fill="white" stroke="#1B1B1B" stroke-width="0.5" stroke-linecap="round" stroke-linejoin="round"/>
<path d="M58.7236 117.013L58.7064 84.2743L29.9883 100.759L30.0055 133.499L58.7236 117.013Z" fill="white" stroke="#1B1B1B" stroke-width="0.5" stroke-linecap="round" stroke-linejoin="round"/>
<path d="M30.0051 133.499L29.9879 100.759L0.390625 83.4543L0.407833 116.193L30.0051 133.499Z" fill="white" stroke="#1B1B1B" stroke-width="0.5" stroke-linecap="round" stroke-linejoin="round"/>
<path d="M29.9879 100.759L0.390625 83.4544L29.1087 66.9694L58.706 84.2742L29.9879 100.759Z" fill="white" stroke="#1B1B1B" stroke-width="0.5" stroke-linecap="round" stroke-linejoin="round"/>
<path d="M87.8916 134.318L87.8744 101.579L59.1562 118.066L59.1735 150.804L87.8916 134.318Z" fill="white" stroke="#1B1B1B" stroke-width="0.5" stroke-linecap="round" stroke-linejoin="round"/>
<path d="M59.1731 150.804L59.1559 118.066L29.5586 100.759L29.5758 133.499L59.1731 150.804Z" fill="white" stroke="#1B1B1B" stroke-width="0.5" stroke-linecap="round" stroke-linejoin="round"/>
<path d="M59.1559 118.066L29.5586 100.759L58.2767 84.2743L87.874 101.579L59.1559 118.066Z" fill="white" stroke="#1B1B1B" stroke-width="0.5" stroke-linecap="round" stroke-linejoin="round"/>
<path d="M58.7236 84.2744L58.7064 51.5359L29.9883 68.021L30.0055 100.759L58.7236 84.2744Z" fill="white" stroke="#1B1B1B" stroke-width="0.5" stroke-linecap="round" stroke-linejoin="round"/>
<path d="M30.0051 100.759L29.9879 68.0209L0.390625 50.716L0.407833 83.4545L30.0051 100.759Z" fill="white" stroke="#1B1B1B" stroke-width="0.5" stroke-linecap="round" stroke-linejoin="round"/>
<path d="M29.9879 68.0209L0.390625 50.716L29.1087 34.231L58.706 51.5359L29.9879 68.0209Z" fill="white" stroke="#1B1B1B" stroke-width="0.5" stroke-linecap="round" stroke-linejoin="round"/>
<path d="M87.3824 50.6301L87.3636 17.8916L58.6455 34.3782L58.6627 67.1166L87.3824 50.6301Z" fill="#B4F9BA" stroke="#242424" stroke-width="0.5" stroke-linecap="round" stroke-linejoin="round"/>
<path d="M58.6623 67.1165L58.6451 34.378L29.0479 17.0715L29.0651 49.8116L58.6623 67.1165Z" fill="#B4F9BA" stroke="#242424" stroke-width="0.5" stroke-linecap="round" stroke-linejoin="round"/>
<path d="M58.6451 34.3779L29.0479 17.0714L57.766 0.586426L87.3633 17.8913L58.6451 34.3779Z" fill="#B4F9BA" stroke="#242424" stroke-width="0.5" stroke-linecap="round" stroke-linejoin="round"/>
</g>
<defs>
<clipPath id="clip0_5286_2106">
<rect width="117" height="151" fill="white" transform="translate(0 0.195312)"/>
</clipPath>
</defs>
</svg>
