<svg width="418" height="468" viewBox="0 0 418 468" fill="none" xmlns="http://www.w3.org/2000/svg">
<path d="M250 34V165.558C269.295 164.295 314.926 179.137 308.337 350.663C316.663 400.663 375 400.663 387.495 334C400 284 366.663 284 350 134C350 117.337 350 67.3368 283.337 34V17.3368C350 17.3368 400 100.663 400 117.337C400 134 383.337 134 383.337 134C383.337 134 387.495 234 404.168 250.663C420.832 267.337 416.663 317.337 416.663 350.663C416.663 384 366.663 417.337 350 417.337C333.337 417.337 283.337 417.337 283.337 367.337C283.337 321.789 276.421 220.947 250 203.316V417.337C259.2 417.337 266.663 424.8 266.663 434V467.337H0V434C0 424.8 7.46316 417.337 16.6632 417.337V34C16.6632 25.1585 20.1754 16.6792 26.4273 10.4273C32.6792 4.17542 41.1585 0.663147 50 0.663147H216.663C225.505 0.663147 233.984 4.17542 240.236 10.4273C246.488 16.6792 250 25.1585 250 34ZM70.8421 184H195.832C205.042 184 216.674 172.368 216.674 163.158V54.8421C216.674 45.6316 205.042 34 195.832 34H70.8421C61.6421 34 50.0105 45.6316 50.0105 54.8421V163.158C50.0105 172.368 61.6421 184 70.8526 184H70.8421Z" fill="#666666"/>
</svg>
