<svg width="215" height="139" viewBox="0 0 215 139" fill="none" xmlns="http://www.w3.org/2000/svg">
<g clip-path="url(#clip0_6245_855)">
<path d="M213.775 46.8124L213.764 26.7014L196.133 36.8285L196.143 56.941L213.775 46.8124Z" fill="#D9D9D9" stroke="#242424" stroke-width="0.5" stroke-linecap="round" stroke-linejoin="round"/>
<path d="M196.142 56.9413L196.131 36.8288L177.96 26.1987L177.97 46.3097L196.142 56.9413Z" fill="#D9D9D9" stroke="#242424" stroke-width="0.5" stroke-linecap="round" stroke-linejoin="round"/>
<path d="M196.131 36.8288L177.96 26.1987L195.592 16.0701L213.763 26.7017L196.131 36.8288Z" fill="#D9D9D9" stroke="#242424" stroke-width="0.5" stroke-linecap="round" stroke-linejoin="round"/>
<path d="M183.151 77.1474L183.141 57.0349L165.508 67.1635L165.518 87.2745L183.151 77.1474Z" fill="#D9D9D9" stroke="#242424" stroke-width="0.594267" stroke-linecap="round" stroke-linejoin="round"/>
<path d="M165.517 87.2745L165.506 67.1636L147.335 56.532L147.345 76.6444L165.517 87.2745Z" fill="#D9D9D9" stroke="#242424" stroke-width="0.594267" stroke-linecap="round" stroke-linejoin="round"/>
<path d="M165.506 67.1635L147.335 56.5319L164.967 46.4048L183.139 57.0349L165.506 67.1635Z" fill="white" stroke="#1B1B1B" stroke-width="0.594267" stroke-linecap="round" stroke-linejoin="round"/>
<path d="M165.506 46.4899L165.496 26.3774L147.864 36.5046L147.875 56.617L165.506 46.4899Z" fill="white" stroke="#1B1B1B" stroke-width="0.594267" stroke-linecap="round" stroke-linejoin="round"/>
<path d="M147.873 56.6173L147.863 36.5049L129.691 25.8748L129.702 45.9872L147.873 56.6173Z" fill="#D9D9D9" stroke="#242424" stroke-width="0.594267" stroke-linecap="round" stroke-linejoin="round"/>
<path d="M147.863 36.5048L129.691 25.8747L147.323 15.7476L165.494 26.3777L147.863 36.5048Z" fill="#D9D9D9" stroke="#242424" stroke-width="0.594267" stroke-linecap="round" stroke-linejoin="round"/>
<path d="M183.149 104.121L123.97 138.107L123.925 70.5982L165.685 46.6274L165.699 67.0608L183.134 57.0456L183.149 104.121Z" fill="white" stroke="#1B1B1B" stroke-width="0.5" stroke-linecap="round" stroke-linejoin="round"/>
<path d="M123.969 138.107L62.9703 102.42L62.9404 34.9109L85.6846 48.2247L85.6995 68.3595L103.88 79.0015L103.865 58.8667L123.925 70.5983L123.969 138.107Z" fill="white" stroke="#1B1B1B" stroke-width="0.5" stroke-linecap="round" stroke-linejoin="round"/>
<path d="M103.258 58.2936L103.246 38.1812L85.6143 48.3083L85.6247 68.4207L103.258 58.2936Z" fill="white" stroke="#1B1B1B" stroke-width="0.594267" stroke-linecap="round" stroke-linejoin="round"/>
<path d="M165.684 46.6274L123.925 70.5982L103.928 58.8382L121.377 48.8081L103.212 38.181L85.7621 48.1961L62.9404 34.9107L122.12 0.924805L165.49 26.2986L148.071 36.3137L165.684 46.6274Z" fill="white" stroke="#1B1B1B" stroke-width="0.5" stroke-linecap="round" stroke-linejoin="round"/>
<path d="M77.9238 84.0431L77.9118 63.9307L60.2803 74.0593L60.2907 94.1702L77.9238 84.0431Z" fill="#D9D9D9" stroke="#242424" stroke-width="0.5" stroke-linecap="round" stroke-linejoin="round"/>
<path d="M60.2893 94.1705L60.2789 74.0596L42.1074 63.428L42.1179 83.5404L60.2893 94.1705Z" fill="#D9D9D9" stroke="#242424" stroke-width="0.5" stroke-linecap="round" stroke-linejoin="round"/>
<path d="M60.2789 74.0595L42.1074 63.4279L59.739 53.3008L77.9104 63.9309L60.2789 74.0595Z" fill="#D9D9D9" stroke="#242424" stroke-width="0.5" stroke-linecap="round" stroke-linejoin="round"/>
</g>
<path d="M5.25391 19.4502L11.5145 16.468C14.4396 20.5095 17.1835 24.2944 20.0745 28.2844L13.8139 31.2666C10.9229 27.2766 8.179 23.4917 5.25391 19.4502Z" fill="white" stroke="#242424" stroke-width="0.3" stroke-linecap="round" stroke-linejoin="round"/>
<path d="M13.8103 31.2664L20.0709 28.2842C18.9823 28.8033 18.2386 29.1615 17.537 29.4997L11.2764 32.4819C11.9784 32.1433 12.7216 31.7856 13.8103 31.2664Z" fill="#D9D9D9" stroke="#242424" stroke-width="0.3" stroke-linecap="round" stroke-linejoin="round"/>
<path d="M11.6768 12.9817L17.9374 9.99951C18.2725 10.547 18.9166 11.5971 19.6774 12.842L13.4167 15.8242C12.656 14.5797 12.0118 13.5292 11.6768 12.9817Z" fill="#D9D9D9" stroke="#242424" stroke-width="0.3" stroke-linecap="round" stroke-linejoin="round"/>
<path d="M1.03418 17.952L7.29481 14.9698C10.7734 13.345 14.305 11.6952 17.9352 9.99951L11.6746 12.9817C8.04437 14.6775 4.51281 16.3272 1.03418 17.952Z" fill="#D9D9D9" stroke="#242424" stroke-width="0.3" stroke-linecap="round" stroke-linejoin="round"/>
<path d="M11.6746 12.9819C12.0097 13.5294 12.6538 14.5795 13.4146 15.8244C10.7972 16.9867 8.05872 18.2052 5.25563 19.4505C8.18073 23.492 10.9246 27.2768 13.8156 31.2669C12.7269 31.786 11.9832 32.1441 11.2817 32.4824C7.61464 27.2871 4.22259 22.4753 1.03418 17.9522C4.51281 16.3274 8.04437 14.6777 11.6746 12.9819Z" fill="#D9D9D9" stroke="#242424" stroke-width="0.3" stroke-linecap="round" stroke-linejoin="round"/>
<path d="M26.8809 15.314L33.1415 12.3318C34.2441 13.2319 35.1318 13.9551 36.2725 14.8835L30.0118 17.8657C28.8711 16.9369 27.9839 16.2141 26.8809 15.314Z" fill="#D9D9D9" stroke="#242424" stroke-width="0.3" stroke-linecap="round" stroke-linejoin="round"/>
<path d="M30.0124 17.8653L36.2731 14.8831C32.7065 22.2127 29.1821 29.4556 25.5546 36.9098L19.2939 39.8921C22.9215 32.4378 26.4459 25.1949 30.0124 17.8653Z" fill="white" stroke="#242424" stroke-width="0.3" stroke-linecap="round" stroke-linejoin="round"/>
<path d="M26.8786 15.3142C27.9811 16.2143 28.8688 16.9375 30.0095 17.8659C26.443 25.1955 22.9186 32.4384 19.2911 39.8927C18.1203 38.9106 17.2331 38.1661 16.1758 37.277C19.7535 29.9349 23.2815 22.6902 26.8786 15.3142Z" fill="#D9D9D9" stroke="#242424" stroke-width="0.3" stroke-linecap="round" stroke-linejoin="round"/>
<path d="M32.6689 40.2508L38.9296 37.2686C41.6304 36.0887 44.342 34.9037 47.2173 33.6499L40.9566 36.6321C38.0813 37.8863 35.3698 39.0713 32.6689 40.2508Z" fill="#D9D9D9" stroke="#242424" stroke-width="0.3" stroke-linecap="round" stroke-linejoin="round"/>
<path d="M34.6816 23.9105L40.9423 20.9282C44.3644 25.8007 47.8578 30.7787 51.1969 35.5301L44.9363 38.5124C41.5972 33.7609 38.1037 28.7833 34.6816 23.9105Z" fill="white" stroke="#242424" stroke-width="0.3" stroke-linecap="round" stroke-linejoin="round"/>
<path d="M32.21 24.6473L38.4706 21.665C39.6458 21.315 40.3927 21.0944 40.9462 20.9282L34.6856 23.9104C34.1321 24.0766 33.3852 24.2976 32.21 24.6473Z" fill="#D9D9D9" stroke="#242424" stroke-width="0.3" stroke-linecap="round" stroke-linejoin="round"/>
<path d="M34.6856 23.9106C38.1077 28.7831 41.6011 33.7611 44.9403 38.5126C41.746 40.0079 38.2562 41.6455 34.516 43.403C34.1056 42.7022 33.4884 41.6466 32.6711 40.2506C35.3719 39.0707 38.0835 37.8857 40.9588 36.6319C38.0337 32.6257 35.2369 28.7945 32.21 24.6475C33.3852 24.2974 34.1321 24.0768 34.6856 23.9106Z" fill="#D9D9D9" stroke="#242424" stroke-width="0.3" stroke-linecap="round" stroke-linejoin="round"/>
<defs>
<clipPath id="clip0_6245_855">
<rect width="172.411" height="137.929" fill="white" transform="translate(41.7354 0.551758)"/>
</clipPath>
</defs>
</svg>
