<svg width="28" height="27" viewBox="0 0 28 27" fill="none" xmlns="http://www.w3.org/2000/svg">
<path fill-rule="evenodd" clip-rule="evenodd" d="M13.7148 0.186523C6.35245 0.186523 0.38147 6.1352 0.38147 13.4739C0.38147 19.3444 4.20235 24.3242 9.49979 26.0815C10.1659 26.2049 10.4107 25.7934 10.4107 25.4425C10.4107 25.1256 10.3982 24.0792 10.3925 22.9688C6.68354 23.7724 5.90096 21.4005 5.90096 21.4005C5.29387 19.8651 4.42043 19.4565 4.42043 19.4565C3.21022 18.6319 4.51129 18.6489 4.51129 18.6489C5.85042 18.7428 6.55519 20.0185 6.55519 20.0185C7.74439 22.0497 9.67414 21.4622 10.4351 21.1226C10.555 20.2647 10.9003 19.6778 11.2819 19.3461C8.32025 19.0105 5.20698 17.8707 5.20698 12.7794C5.20698 11.3289 5.72832 10.1438 6.58075 9.21283C6.44275 8.87836 5.98615 7.52744 6.71023 5.69659C6.71023 5.69659 7.82958 5.33948 10.3778 7.0594C11.4415 6.76454 12.5818 6.61683 13.7148 6.61173C14.8478 6.61683 15.9893 6.76454 17.0547 7.0594C19.6 5.33948 20.7177 5.69659 20.7177 5.69659C21.4435 7.52744 20.9869 8.87836 20.8489 9.21283C21.7036 10.1438 22.2209 11.3289 22.2209 12.7794C22.2209 17.8832 19.102 19.0066 16.133 19.3354C16.6111 19.7474 17.0371 20.5561 17.0371 21.7961C17.0371 23.5738 17.0217 25.005 17.0217 25.4425C17.0217 25.7962 17.262 26.21 17.9378 26.0798C23.2324 24.3214 27.0481 19.3422 27.0481 13.4739C27.0481 6.1352 21.0783 0.186523 13.7148 0.186523Z" fill="#666666"/>
<path fill-rule="evenodd" clip-rule="evenodd" d="M5.43214 19.2632C5.40317 19.3295 5.29868 19.3493 5.20384 19.304C5.10672 19.2604 5.05277 19.1704 5.08401 19.1048C5.11297 19.0368 5.2169 19.0176 5.31401 19.0629C5.41056 19.1065 5.46564 19.1976 5.43214 19.2632Z" fill="#666666"/>
<path fill-rule="evenodd" clip-rule="evenodd" d="M5.97231 19.8639C5.90871 19.9228 5.78434 19.8951 5.70028 19.8023C5.61283 19.71 5.59636 19.586 5.6611 19.526C5.72641 19.4677 5.84681 19.4949 5.93426 19.5877C6.02172 19.6817 6.03876 19.8045 5.97231 19.8639Z" fill="#666666"/>
<path fill-rule="evenodd" clip-rule="evenodd" d="M6.49809 20.6295C6.41631 20.6867 6.28286 20.6335 6.19994 20.5152C6.11873 20.3969 6.11873 20.2548 6.20221 20.1982C6.28456 20.1416 6.41631 20.1931 6.4998 20.3103C6.58158 20.4297 6.58158 20.5712 6.49809 20.6295Z" fill="#666666"/>
<path fill-rule="evenodd" clip-rule="evenodd" d="M7.21779 21.3687C7.14453 21.4491 6.98892 21.4276 6.87477 21.3178C6.75835 21.2108 6.72598 21.0586 6.79924 20.9782C6.87363 20.8978 7.02981 20.9205 7.14453 21.0291C7.26038 21.1361 7.29559 21.2889 7.21779 21.3687Z" fill="#666666"/>
<path fill-rule="evenodd" clip-rule="evenodd" d="M8.21136 21.7981C8.17899 21.9022 8.02906 21.9492 7.87857 21.9045C7.72694 21.8592 7.62869 21.7375 7.65936 21.6322C7.69059 21.5275 7.84109 21.4789 7.99329 21.5258C8.14378 21.5711 8.2426 21.6922 8.21136 21.7981Z" fill="#666666"/>
<path fill-rule="evenodd" clip-rule="evenodd" d="M9.3019 21.8771C9.30531 21.9869 9.17753 22.0775 9.01908 22.0797C8.8595 22.0831 8.73059 21.9948 8.72888 21.8873C8.72888 21.7758 8.85382 21.6864 9.0134 21.6835C9.17185 21.6801 9.3019 21.769 9.3019 21.8771Z" fill="#666666"/>
<path fill-rule="evenodd" clip-rule="evenodd" d="M10.3177 21.7055C10.3365 21.8119 10.2263 21.9223 10.069 21.9517C9.91451 21.9795 9.77083 21.9132 9.75095 21.808C9.73221 21.6976 9.84409 21.5883 9.99856 21.5595C10.1564 21.5323 10.2973 21.5968 10.3177 21.7055Z" fill="#666666"/>
</svg>
