<svg width="271" height="270" viewBox="0 0 271 270" fill="none" xmlns="http://www.w3.org/2000/svg">
<g filter="url(#filter0_f_9832_3342)">
<mask id="path-1-inside-1_9832_3342" fill="white">
<path d="M135.503 220C182.518 220 220.632 181.944 220.632 135C220.632 88.0558 182.518 50 135.503 50C88.4868 50 50.373 88.0558 50.373 135C50.373 181.944 88.4868 220 135.503 220Z"/>
</mask>
<path d="M135.503 220C182.518 220 220.632 181.944 220.632 135C220.632 88.0558 182.518 50 135.503 50C88.4868 50 50.373 88.0558 50.373 135C50.373 181.944 88.4868 220 135.503 220Z" fill="url(#paint0_linear_9832_3342)"/>
<path d="M135.503 220C182.518 220 220.632 181.944 220.632 135C220.632 88.0558 182.518 50 135.503 50C88.4868 50 50.373 88.0558 50.373 135C50.373 181.944 88.4868 220 135.503 220Z" stroke="#66E070" stroke-width="2" mask="url(#path-1-inside-1_9832_3342)"/>
</g>
<mask id="path-2-inside-2_9832_3342" fill="white">
<path d="M135.503 220C182.518 220 220.632 181.944 220.632 135C220.632 88.0558 182.518 50 135.503 50C88.4868 50 50.373 88.0558 50.373 135C50.373 181.944 88.4868 220 135.503 220Z"/>
</mask>
<path d="M135.503 220C182.518 220 220.632 181.944 220.632 135C220.632 88.0558 182.518 50 135.503 50C88.4868 50 50.373 88.0558 50.373 135C50.373 181.944 88.4868 220 135.503 220Z" fill="white" fill-opacity="0.5" stroke="#66E070" stroke-width="2" mask="url(#path-2-inside-2_9832_3342)"/>
<mask id="path-3-inside-3_9832_3342" fill="white">
<path d="M182.355 93.813H164.618L159.06 99.3711C153.338 96.4518 147.013 94.9345 140.59 94.951C118.169 94.9757 99.9953 113.151 99.9706 135.573C99.9706 141.989 101.488 148.314 104.407 154.028L88.2285 170.191H105.982L111.894 164.279C119.497 171.906 129.829 176.195 140.598 176.187C163.027 176.162 181.192 157.986 181.217 135.556C181.217 133.454 181.052 131.359 180.73 129.281H146.865L134.323 141.824H167.966C165.022 154.573 153.684 163.619 140.598 163.635C125.096 163.619 112.537 151.051 112.521 135.556C112.537 120.053 125.096 107.494 140.598 107.477C148.044 107.461 155.193 110.421 160.446 115.699L164.973 111.18L182.355 93.813Z"/>
</mask>
<path d="M182.355 93.813H164.618L159.06 99.3711C153.338 96.4518 147.013 94.9345 140.59 94.951C118.169 94.9757 99.9953 113.151 99.9706 135.573C99.9706 141.989 101.488 148.314 104.407 154.028L88.2285 170.191H105.982L111.894 164.279C119.497 171.906 129.829 176.195 140.598 176.187C163.027 176.162 181.192 157.986 181.217 135.556C181.217 133.454 181.052 131.359 180.73 129.281H146.865L134.323 141.824H167.966C165.022 154.573 153.684 163.619 140.598 163.635C125.096 163.619 112.537 151.051 112.521 135.556C112.537 120.053 125.096 107.494 140.598 107.477C148.044 107.461 155.193 110.421 160.446 115.699L164.973 111.18L182.355 93.813Z" fill="#66E070" stroke="black" mask="url(#path-3-inside-3_9832_3342)"/>
<defs>
<filter id="filter0_f_9832_3342" x="0.373047" y="0" width="270.26" height="270" filterUnits="userSpaceOnUse" color-interpolation-filters="sRGB">
<feFlood flood-opacity="0" result="BackgroundImageFix"/>
<feBlend mode="normal" in="SourceGraphic" in2="BackgroundImageFix" result="shape"/>
<feGaussianBlur stdDeviation="25" result="effect1_foregroundBlur_9832_3342"/>
</filter>
<linearGradient id="paint0_linear_9832_3342" x1="50.373" y1="50" x2="220.632" y2="220" gradientUnits="userSpaceOnUse">
<stop offset="0.425" stop-color="#A3F5AA"/>
<stop offset="1" stop-color="#66E070"/>
</linearGradient>
</defs>
</svg>
