<svg width="271" height="271" viewBox="0 0 271 271" fill="none" xmlns="http://www.w3.org/2000/svg">
<g filter="url(#filter0_f_11607_1844)">
<mask id="path-1-inside-1_11607_1844" fill="white">
<path d="M135.833 220.446C182.848 220.446 220.962 182.39 220.962 135.446C220.962 88.5021 182.848 50.4463 135.833 50.4463C88.8169 50.4463 50.7031 88.5021 50.7031 135.446C50.7031 182.39 88.8169 220.446 135.833 220.446Z"/>
</mask>
<path d="M135.833 220.446C182.848 220.446 220.962 182.39 220.962 135.446C220.962 88.5021 182.848 50.4463 135.833 50.4463C88.8169 50.4463 50.7031 88.5021 50.7031 135.446C50.7031 182.39 88.8169 220.446 135.833 220.446Z" fill="url(#paint0_linear_11607_1844)"/>
<path d="M135.833 220.446C182.848 220.446 220.962 182.39 220.962 135.446C220.962 88.5021 182.848 50.4463 135.833 50.4463C88.8169 50.4463 50.7031 88.5021 50.7031 135.446C50.7031 182.39 88.8169 220.446 135.833 220.446Z" stroke="#F2D27B" stroke-width="2" mask="url(#path-1-inside-1_11607_1844)"/>
</g>
<mask id="path-2-inside-2_11607_1844" fill="white">
<path d="M135.833 220.446C182.848 220.446 220.962 182.39 220.962 135.446C220.962 88.5021 182.848 50.4463 135.833 50.4463C88.8169 50.4463 50.7031 88.5021 50.7031 135.446C50.7031 182.39 88.8169 220.446 135.833 220.446Z"/>
</mask>
<path d="M135.833 220.446C182.848 220.446 220.962 182.39 220.962 135.446C220.962 88.5021 182.848 50.4463 135.833 50.4463C88.8169 50.4463 50.7031 88.5021 50.7031 135.446C50.7031 182.39 88.8169 220.446 135.833 220.446Z" fill="white" fill-opacity="0.5" stroke="#ECCA70" stroke-width="2" mask="url(#path-2-inside-2_11607_1844)"/>
<mask id="path-3-inside-3_11607_1844" fill="white">
<path d="M182.685 94.2593H164.948L159.39 99.8174C153.668 96.8981 147.343 95.3808 140.92 95.3973C118.499 95.422 100.325 113.597 100.301 136.019C100.301 142.435 101.818 148.76 104.737 154.474L88.5586 170.638H106.312L112.224 164.725C119.827 172.353 130.159 176.641 140.928 176.633C163.357 176.608 181.522 158.433 181.547 136.003C181.547 133.9 181.382 131.805 181.06 129.727H147.195L134.653 142.27H168.296C165.352 155.019 154.014 164.065 140.928 164.082C125.426 164.065 112.867 151.498 112.851 136.003C112.867 120.499 125.426 107.94 140.928 107.924C148.374 107.907 155.523 110.868 160.776 116.145L165.303 111.626L182.685 94.2593Z"/>
</mask>
<path d="M182.685 94.2593H164.948L159.39 99.8174C153.668 96.8981 147.343 95.3808 140.92 95.3973C118.499 95.422 100.325 113.597 100.301 136.019C100.301 142.435 101.818 148.76 104.737 154.474L88.5586 170.638H106.312L112.224 164.725C119.827 172.353 130.159 176.641 140.928 176.633C163.357 176.608 181.522 158.433 181.547 136.003C181.547 133.9 181.382 131.805 181.06 129.727H147.195L134.653 142.27H168.296C165.352 155.019 154.014 164.065 140.928 164.082C125.426 164.065 112.867 151.498 112.851 136.003C112.867 120.499 125.426 107.94 140.928 107.924C148.374 107.907 155.523 110.868 160.776 116.145L165.303 111.626L182.685 94.2593Z" fill="#F2D27B" stroke="black" mask="url(#path-3-inside-3_11607_1844)"/>
<defs>
<filter id="filter0_f_11607_1844" x="0.703125" y="0.446289" width="270.258" height="270" filterUnits="userSpaceOnUse" color-interpolation-filters="sRGB">
<feFlood flood-opacity="0" result="BackgroundImageFix"/>
<feBlend mode="normal" in="SourceGraphic" in2="BackgroundImageFix" result="shape"/>
<feGaussianBlur stdDeviation="25" result="effect1_foregroundBlur_11607_1844"/>
</filter>
<linearGradient id="paint0_linear_11607_1844" x1="50.7031" y1="50.4463" x2="220.962" y2="220.446" gradientUnits="userSpaceOnUse">
<stop offset="0.425" stop-color="#F5DC99"/>
<stop offset="1" stop-color="#EDC765"/>
</linearGradient>
</defs>
</svg>
