<svg width="271" height="270" viewBox="0 0 271 270" fill="none" xmlns="http://www.w3.org/2000/svg">
<g filter="url(#filter0_f_9570_1294)">
<mask id="path-1-inside-1_9570_1294" fill="white">
<path d="M135.834 220C182.849 220 220.963 181.944 220.963 135C220.963 88.0558 182.849 50 135.834 50C88.8179 50 50.7041 88.0558 50.7041 135C50.7041 181.944 88.8179 220 135.834 220Z"/>
</mask>
<path d="M135.834 220C182.849 220 220.963 181.944 220.963 135C220.963 88.0558 182.849 50 135.834 50C88.8179 50 50.7041 88.0558 50.7041 135C50.7041 181.944 88.8179 220 135.834 220Z" fill="url(#paint0_linear_9570_1294)"/>
<path d="M135.834 220C182.849 220 220.963 181.944 220.963 135C220.963 88.0558 182.849 50 135.834 50C88.8179 50 50.7041 88.0558 50.7041 135C50.7041 181.944 88.8179 220 135.834 220Z" stroke="#F65D51" stroke-width="2" mask="url(#path-1-inside-1_9570_1294)"/>
</g>
<mask id="path-2-inside-2_9570_1294" fill="white">
<path d="M135.834 220C182.849 220 220.963 181.944 220.963 135C220.963 88.0558 182.849 50 135.834 50C88.8179 50 50.7041 88.0558 50.7041 135C50.7041 181.944 88.8179 220 135.834 220Z"/>
</mask>
<path d="M135.834 220C182.849 220 220.963 181.944 220.963 135C220.963 88.0558 182.849 50 135.834 50C88.8179 50 50.7041 88.0558 50.7041 135C50.7041 181.944 88.8179 220 135.834 220Z" fill="white" fill-opacity="0.5" stroke="#F65D51" stroke-width="2" mask="url(#path-2-inside-2_9570_1294)"/>
<mask id="path-3-inside-3_9570_1294" fill="white">
<path d="M180.353 93.813H162.616L157.058 99.3711C151.336 96.4518 145.011 94.9345 138.588 94.951C116.167 94.9757 97.9934 113.151 97.9686 135.573C97.9686 141.989 99.4858 148.314 102.405 154.028L86.2266 170.191H103.98L109.892 164.279C117.495 171.906 127.827 176.195 138.596 176.187C161.025 176.162 179.19 157.986 179.215 135.556C179.215 133.454 179.05 131.359 178.728 129.281H144.863L132.321 141.824H165.964C163.02 154.573 151.682 163.619 138.596 163.635C123.094 163.619 110.535 151.051 110.519 135.556C110.535 120.053 123.094 107.494 138.596 107.477C146.042 107.461 153.191 110.421 158.444 115.699L162.971 111.18L180.353 93.813Z"/>
</mask>
<path d="M180.353 93.813H162.616L157.058 99.3711C151.336 96.4518 145.011 94.9345 138.588 94.951C116.167 94.9757 97.9934 113.151 97.9686 135.573C97.9686 141.989 99.4858 148.314 102.405 154.028L86.2266 170.191H103.98L109.892 164.279C117.495 171.906 127.827 176.195 138.596 176.187C161.025 176.162 179.19 157.986 179.215 135.556C179.215 133.454 179.05 131.359 178.728 129.281H144.863L132.321 141.824H165.964C163.02 154.573 151.682 163.619 138.596 163.635C123.094 163.619 110.535 151.051 110.519 135.556C110.535 120.053 123.094 107.494 138.596 107.477C146.042 107.461 153.191 110.421 158.444 115.699L162.971 111.18L180.353 93.813Z" fill="#F65D51" stroke="black" mask="url(#path-3-inside-3_9570_1294)"/>
<defs>
<filter id="filter0_f_9570_1294" x="0.704102" y="0" width="270.259" height="270" filterUnits="userSpaceOnUse" color-interpolation-filters="sRGB">
<feFlood flood-opacity="0" result="BackgroundImageFix"/>
<feBlend mode="normal" in="SourceGraphic" in2="BackgroundImageFix" result="shape"/>
<feGaussianBlur stdDeviation="25" result="effect1_foregroundBlur_9570_1294"/>
</filter>
<linearGradient id="paint0_linear_9570_1294" x1="50.7041" y1="50" x2="220.963" y2="220" gradientUnits="userSpaceOnUse">
<stop offset="0.425" stop-color="#FFC17B"/>
<stop offset="1" stop-color="#F65D51"/>
</linearGradient>
</defs>
</svg>
