<svg width="22" height="23" viewBox="0 0 22 23" fill="none" xmlns="http://www.w3.org/2000/svg">
<g id="search 1" clip-path="url(#clip0_1439_4715)">
<path id="Vector" d="M4.77286 13.7465L4.02322 16.545L1.28329 16.603C0.464457 15.0842 0 13.3465 0 11.5C0 9.71438 0.434256 8.03052 1.204 6.54785H1.20459L3.6439 6.99506L4.71246 9.41973C4.48881 10.0717 4.36691 10.7717 4.36691 11.5C4.367 12.2904 4.51018 13.0478 4.77286 13.7465Z" fill="#FBBB00"/>
<path id="Vector_2" d="M21.348 9.48828C21.4716 10.1397 21.5361 10.8124 21.5361 11.4999C21.5361 12.2708 21.455 13.0228 21.3006 13.7482C20.7764 16.2166 19.4068 18.3719 17.5093 19.8972L17.5088 19.8966L14.4363 19.7399L14.0015 17.0253C15.2605 16.287 16.2444 15.1315 16.7627 13.7482H11.0048V9.48828H16.8467H21.348Z" fill="#518EF8"/>
<path id="Vector_3" d="M17.5088 19.8968L17.5094 19.8974C15.664 21.3806 13.3199 22.2681 10.7681 22.2681C6.66736 22.2681 3.10208 19.9761 1.28333 16.6031L4.77289 13.7466C5.68225 16.1735 8.02342 17.9012 10.7681 17.9012C11.9478 17.9012 13.0531 17.5822 14.0015 17.0255L17.5088 19.8968Z" fill="#28B446"/>
<path id="Vector_4" d="M17.6413 3.21094L14.1529 6.06684C13.1713 5.45331 12.0111 5.09889 10.768 5.09889C7.96124 5.09889 5.57628 6.90578 4.71248 9.41974L1.20457 6.54787H1.20398C2.99611 3.09262 6.60635 0.731934 10.768 0.731934C13.3808 0.731934 15.7764 1.66261 17.6413 3.21094Z" fill="#F14336"/>
</g>
<defs>
<clipPath id="clip0_1439_4715">
<rect width="21.5361" height="21.5361" fill="white" transform="translate(0 0.731934)"/>
</clipPath>
</defs>
</svg>
