<svg width="40" height="40" viewBox="0 0 40 40" fill="none" xmlns="http://www.w3.org/2000/svg">
<mask id="mask0_10495_1386" style="mask-type:alpha" maskUnits="userSpaceOnUse" x="0" y="0" width="40" height="40">
<rect width="40" height="40" fill="#D9D9D9"/>
</mask>
<g mask="url(#mask0_10495_1386)">
<path d="M4.32812 31.0258V28.282C4.32812 27.5084 4.5284 26.8433 4.92896 26.2866C5.32951 25.7302 5.86785 25.2855 6.54396 24.9525C7.98979 24.2641 9.42521 23.7154 10.8502 23.3062C12.2755 22.897 13.9903 22.6925 15.9948 22.6925C17.999 22.6925 19.7137 22.897 21.139 23.3062C22.5642 23.7154 23.9997 24.2641 25.4452 24.9525C26.1213 25.2855 26.6597 25.7302 27.0602 26.2866C27.461 26.8433 27.6615 27.5084 27.6615 28.282V31.0258H4.32812ZM30.9948 31.0258V28.205C30.9948 27.2391 30.7992 26.3275 30.4081 25.47C30.0173 24.6125 29.4628 23.8768 28.7448 23.2629C29.5631 23.4295 30.3516 23.6608 31.1102 23.9566C31.8685 24.2527 32.6185 24.5855 33.3602 24.955C34.0824 25.3183 34.6487 25.7831 35.059 26.3495C35.469 26.9162 35.674 27.5347 35.674 28.205V31.0258H30.9948ZM15.9948 18.9741C14.6198 18.9741 13.4427 18.4845 12.4635 17.5054C11.4844 16.5262 10.9948 15.3491 10.9948 13.9741C10.9948 12.5991 11.4844 11.422 12.4635 10.4429C13.4427 9.4637 14.6198 8.97412 15.9948 8.97412C17.3698 8.97412 18.5469 9.4637 19.526 10.4429C20.5052 11.422 20.9948 12.5991 20.9948 13.9741C20.9948 15.3491 20.5052 16.5262 19.526 17.5054C18.5469 18.4845 17.3698 18.9741 15.9948 18.9741ZM28.1102 13.9741C28.1102 15.3491 27.6206 16.5262 26.6415 17.5054C25.6623 18.4845 24.4852 18.9741 23.1102 18.9741C23.0397 18.9741 22.9498 18.9662 22.8406 18.9504C22.7317 18.9343 22.642 18.9166 22.5715 18.8975C23.1362 18.2058 23.5701 17.4386 23.8731 16.5958C24.1765 15.753 24.3281 14.8779 24.3281 13.9704C24.3281 13.0629 24.1694 12.1956 23.8519 11.3687C23.5347 10.5418 23.1078 9.76926 22.5715 9.0512C22.6612 9.01926 22.7509 8.99843 22.8406 8.9887C22.9303 8.97898 23.0202 8.97412 23.1102 8.97412C24.4852 8.97412 25.6623 9.4637 26.6415 10.4429C27.6206 11.422 28.1102 12.5991 28.1102 13.9741ZM5.99479 29.3591H25.9948V28.282C25.9948 27.8909 25.897 27.549 25.7015 27.2562C25.5059 26.9637 25.1549 26.6838 24.6485 26.4166C23.4049 25.7522 22.094 25.2431 20.7156 24.8895C19.3376 24.5359 17.764 24.3591 15.9948 24.3591C14.2253 24.3591 12.6516 24.5359 11.2735 24.8895C9.89521 25.2431 8.58424 25.7522 7.34062 26.4166C6.83424 26.6838 6.48326 26.9637 6.28771 27.2562C6.09243 27.549 5.99479 27.8909 5.99479 28.282V29.3591ZM15.9948 17.3075C16.9115 17.3075 17.6962 16.9811 18.349 16.3283C19.0017 15.6755 19.3281 14.8908 19.3281 13.9741C19.3281 13.0575 19.0017 12.2727 18.349 11.62C17.6962 10.9672 16.9115 10.6408 15.9948 10.6408C15.0781 10.6408 14.2934 10.9672 13.6406 11.62C12.9878 12.2727 12.6615 13.0575 12.6615 13.9741C12.6615 14.8908 12.9878 15.6755 13.6406 16.3283C14.2934 16.9811 15.0781 17.3075 15.9948 17.3075Z" fill="#1C1B1F"/>
</g>
</svg>
