<svg width="14" height="25" viewBox="0 0 14 25" fill="none" xmlns="http://www.w3.org/2000/svg">
<g id="Frame 1000005142">
<g clip-path="url(#clip0_1027_4585)">
<g id="Group">
<path id="Vector" d="M7.70364 6.10107C6.29641 6.10792 4.93121 6.5814 3.82192 7.44732C2.71264 8.31325 1.92195 9.52269 1.57373 10.8862L1.14777 10.242C1.10744 10.1745 1.05387 10.116 0.990295 10.0698C0.926717 10.0236 0.854445 9.99079 0.777837 9.9733C0.70123 9.95582 0.621874 9.95402 0.544555 9.96804C0.467236 9.98205 0.393555 10.0116 0.327957 10.0548C0.262359 10.0981 0.206202 10.1542 0.162872 10.2197C0.119542 10.2853 0.0899375 10.3589 0.0758433 10.4363C0.0617492 10.5136 0.0634574 10.5929 0.0808651 10.6695C0.0982727 10.7462 0.131019 10.8185 0.17713 10.8821L1.45735 12.8222C1.54627 12.9466 1.67739 13.0345 1.82628 13.0695C1.97832 13.0997 2.13612 13.0694 2.26621 12.9851L4.18653 11.6915C4.25274 11.6502 4.30996 11.596 4.35477 11.532C4.39959 11.4681 4.43108 11.3958 4.44739 11.3195C4.46369 11.2432 4.46447 11.1643 4.44967 11.0877C4.43488 11.011 4.40482 10.9382 4.36127 10.8734C4.31773 10.8086 4.2616 10.7532 4.19622 10.7106C4.13084 10.6679 4.05754 10.6389 3.9807 10.6251C3.90386 10.6114 3.82504 10.6133 3.74893 10.6306C3.67282 10.648 3.60099 10.6805 3.5377 10.7261L2.66424 11.315C2.8967 10.3714 3.38973 9.5121 4.08707 8.83519C4.78441 8.15827 5.65799 7.691 6.60812 7.48668C7.55825 7.28237 8.54669 7.34923 9.46065 7.67965C10.3746 8.01007 11.1773 8.59074 11.7771 9.35541C12.3769 10.1201 12.7497 11.0379 12.853 12.0043C12.9562 12.9707 12.7858 13.9466 12.3611 14.8207C11.9364 15.6948 11.2745 16.432 10.451 16.9481C9.62748 17.4641 8.67549 17.7384 7.70364 17.7394C6.87053 17.7372 6.05028 17.5338 5.31263 17.1466C4.57497 16.7593 3.94172 16.1997 3.4667 15.5153C3.42416 15.45 3.36892 15.3939 3.30428 15.3503C3.23963 15.3067 3.16689 15.2766 3.09037 15.2617C3.01385 15.2468 2.93511 15.2474 2.85884 15.2635C2.78256 15.2796 2.7103 15.3109 2.64634 15.3555C2.58239 15.4 2.52804 15.457 2.48653 15.523C2.44501 15.589 2.41718 15.6626 2.40468 15.7396C2.39219 15.8165 2.39528 15.8952 2.41377 15.9709C2.43227 16.0467 2.4658 16.1179 2.51236 16.1804C3.2846 17.2937 4.3936 18.13 5.67636 18.5662C6.95912 19.0025 8.348 19.0158 9.63886 18.6041C10.9297 18.1924 12.0545 17.3775 12.8479 16.2792C13.6412 15.1809 14.0614 13.857 14.0465 12.5022C14.0523 10.8128 13.3877 9.19014 12.1986 7.99014C11.0095 6.79014 9.39297 6.11077 7.70364 6.10107Z" fill="black"/>
<path id="Vector_2" d="M7.64539 8.98145C7.49106 8.98145 7.34305 9.04275 7.23392 9.15188C7.12479 9.26102 7.06348 9.40903 7.06348 9.56336V12.502C7.06595 12.6559 7.12692 12.803 7.23398 12.9135L8.97973 14.6749C9.08928 14.7827 9.23661 14.8435 9.39031 14.8443C9.54402 14.845 9.69195 14.7857 9.80256 14.679C9.91211 14.5703 9.97403 14.4226 9.97468 14.2683C9.97534 14.114 9.91468 13.9657 9.80605 13.8562L8.22731 12.2629V9.56336C8.22731 9.40903 8.166 9.26102 8.05687 9.15188C7.94774 9.04275 7.79973 8.98145 7.64539 8.98145Z" fill="black"/>
</g>
</g>
</g>
<defs>
<clipPath id="clip0_1027_4585">
<rect y="0.5" width="14" height="24" rx="3.20059" fill="white"/>
</clipPath>
</defs>
</svg>
