<svg width="18" height="16" viewBox="0 0 18 16" fill="none" xmlns="http://www.w3.org/2000/svg">
<g id="Group">
<path id="Vector" d="M9.54479 0C7.78608 0.00855972 6.07989 0.600297 4.69354 1.6825C3.30719 2.76471 2.319 4.27624 1.88381 5.98028L1.35145 5.1752C1.30105 5.09091 1.23411 5.0177 1.15465 4.95999C1.07519 4.90228 0.984868 4.86126 0.889126 4.8394C0.793384 4.81755 0.694207 4.81531 0.597576 4.83282C0.500945 4.85033 0.408861 4.88723 0.326879 4.9413C0.244896 4.99536 0.174712 5.06547 0.12056 5.1474C0.0664077 5.22932 0.0294087 5.32137 0.0117942 5.41798C-0.00582028 5.51459 -0.00368536 5.61377 0.0180702 5.70954C0.0398258 5.8053 0.0807513 5.89567 0.138379 5.97519L1.73836 8.39988C1.8495 8.5554 2.01336 8.66524 2.19944 8.70897C2.38945 8.74666 2.58667 8.70883 2.74925 8.60351L5.14922 6.98681C5.23196 6.93513 5.30347 6.86734 5.35948 6.78746C5.41548 6.70758 5.45485 6.61725 5.47522 6.52184C5.4956 6.42644 5.49657 6.32791 5.47808 6.23212C5.45959 6.13633 5.42202 6.04524 5.3676 5.96427C5.31318 5.8833 5.24303 5.81411 5.16132 5.76081C5.07961 5.70751 4.98801 5.6712 4.89197 5.65403C4.79594 5.63687 4.69743 5.6392 4.60231 5.66088C4.5072 5.68257 4.41742 5.72318 4.33832 5.78028L3.2467 6.51627C3.53723 5.33693 4.1534 4.26301 5.02491 3.41702C5.89643 2.57103 6.9882 1.98704 8.17565 1.73169C9.3631 1.47634 10.5984 1.55991 11.7406 1.97286C12.8829 2.38581 13.8861 3.11151 14.6357 4.06717C15.3853 5.02283 15.8513 6.16996 15.9803 7.37768C16.1093 8.5854 15.8963 9.80507 15.3655 10.8975C14.8347 11.99 14.0076 12.9113 12.9784 13.5563C11.9492 14.2012 10.7594 14.5439 9.54479 14.5452C8.5036 14.5424 7.47848 14.2883 6.55658 13.8043C5.63467 13.3204 4.84325 12.621 4.24959 11.7656C4.19642 11.684 4.12739 11.6139 4.0466 11.5594C3.9658 11.505 3.87489 11.4673 3.77926 11.4487C3.68363 11.4301 3.58523 11.4308 3.4899 11.451C3.39457 11.4711 3.30426 11.5102 3.22433 11.5659C3.1444 11.6216 3.07648 11.6928 3.0246 11.7753C2.97271 11.8577 2.93793 11.9498 2.92231 12.0459C2.90669 12.1421 2.91056 12.2404 2.93367 12.3351C2.95679 12.4297 2.99869 12.5188 3.05688 12.5969C4.02201 13.9883 5.408 15.0334 7.01116 15.5786C8.61432 16.1238 10.3501 16.1404 11.9634 15.6259C13.5767 15.1114 14.9824 14.093 15.9739 12.7203C16.9654 11.3477 17.4905 9.69312 17.4719 7.99988C17.4791 5.88858 16.6485 3.86063 15.1624 2.3609C13.6764 0.861171 11.6561 0.0121208 9.54479 0Z" fill="#8054FF"/>
<path id="Vector_2" d="M9.47207 3.59991C9.27919 3.59991 9.09421 3.67654 8.95782 3.81292C8.82143 3.94931 8.74481 4.13429 8.74481 4.32718V7.99985C8.74791 8.1921 8.8241 8.37595 8.9579 8.51403L11.1397 10.7154C11.2766 10.8502 11.4607 10.9261 11.6528 10.9271C11.8449 10.9281 12.0298 10.8539 12.168 10.7205C12.305 10.5847 12.3823 10.4001 12.3832 10.2073C12.384 10.0144 12.3082 9.82915 12.1724 9.69219L10.1993 7.70095V4.32718C10.1993 4.13429 10.1227 3.94931 9.98633 3.81292C9.84994 3.67654 9.66496 3.59991 9.47207 3.59991Z" fill="#8054FF"/>
</g>
</svg>
