<svg width="12" height="14" viewBox="0 0 12 14" fill="none" xmlns="http://www.w3.org/2000/svg">
<mask id="path-1-inside-1_25767_1321" fill="white">
<path d="M9.77336 4.9451C10.6911 3.81167 11.2792 2.26558 11.3461 0.544922H0.798828C0.865571 2.26558 1.45398 3.81167 2.37144 4.9451C3.32474 6.12269 4.63377 6.8511 6.07247 6.8511C7.51117 6.8511 8.82034 6.12269 9.77336 4.9451Z"/>
<path d="M11.3461 13.1406C11.2791 11.42 10.691 9.87388 9.77336 8.74045C8.82034 7.56286 7.51132 6.83445 6.07247 6.83445C4.63363 6.83445 3.3246 7.56299 2.37144 8.74045C1.45398 9.87388 0.865712 11.42 0.798828 13.1406H11.3461Z"/>
</mask>
<path d="M9.77336 4.9451C10.6911 3.81167 11.2792 2.26558 11.3461 0.544922H0.798828C0.865571 2.26558 1.45398 3.81167 2.37144 4.9451C3.32474 6.12269 4.63377 6.8511 6.07247 6.8511C7.51117 6.8511 8.82034 6.12269 9.77336 4.9451Z" fill="url(#paint0_radial_25767_1321)" fill-opacity="0.27"/>
<path d="M11.3461 13.1406C11.2791 11.42 10.691 9.87388 9.77336 8.74045C8.82034 7.56286 7.51132 6.83445 6.07247 6.83445C4.63363 6.83445 3.3246 7.56299 2.37144 8.74045C1.45398 9.87388 0.865712 11.42 0.798828 13.1406H11.3461Z" fill="url(#paint1_radial_25767_1321)" fill-opacity="0.27"/>
<path d="M9.77336 4.9451C10.6911 3.81167 11.2792 2.26558 11.3461 0.544922H0.798828C0.865571 2.26558 1.45398 3.81167 2.37144 4.9451C3.32474 6.12269 4.63377 6.8511 6.07247 6.8511C7.51117 6.8511 8.82034 6.12269 9.77336 4.9451Z" stroke="#DDDDDD" mask="url(#path-1-inside-1_25767_1321)"/>
<path d="M11.3461 13.1406C11.2791 11.42 10.691 9.87388 9.77336 8.74045C8.82034 7.56286 7.51132 6.83445 6.07247 6.83445C4.63363 6.83445 3.3246 7.56299 2.37144 8.74045C1.45398 9.87388 0.865712 11.42 0.798828 13.1406H11.3461Z" stroke="#DDDDDD" mask="url(#path-1-inside-1_25767_1321)"/>
<defs>
<radialGradient id="paint0_radial_25767_1321" cx="0" cy="0" r="1" gradientUnits="userSpaceOnUse" gradientTransform="translate(3.75776 3.24453) rotate(84.2699) scale(18.9472 10.2736)">
<stop stop-color="#E9E9E9"/>
<stop offset="0.4" stop-color="white"/>
<stop offset="0.835" stop-color="#BCBCBC"/>
<stop offset="1" stop-color="#A5A5A5"/>
</radialGradient>
<radialGradient id="paint1_radial_25767_1321" cx="0" cy="0" r="1" gradientUnits="userSpaceOnUse" gradientTransform="translate(3.75776 3.24453) rotate(84.2699) scale(18.9472 10.2736)">
<stop stop-color="#E9E9E9"/>
<stop offset="0.4" stop-color="white"/>
<stop offset="0.835" stop-color="#BCBCBC"/>
<stop offset="1" stop-color="#A5A5A5"/>
</radialGradient>
</defs>
</svg>
