<svg width="95" height="12" viewBox="0 0 95 12" fill="none" xmlns="http://www.w3.org/2000/svg">
<g id="ironblocks 1" clip-path="url(#clip0_1298_831)">
<path id="Vector" d="M15.0894 9.86022C15.0894 10.1458 15.3219 10.3773 15.6089 10.3773H21.1686C21.4556 10.3773 21.6881 10.1458 21.6881 9.86022V9.14911C21.6881 8.86356 21.4556 8.63205 21.1686 8.63205H19.4039V3.67357C19.4039 3.38801 19.1713 3.15652 18.8844 3.15652H15.6089C15.3219 3.15652 15.0894 3.38801 15.0894 3.67357V4.35806C15.0894 4.64362 15.3219 4.87512 15.6089 4.87512H17.5205V8.63205H15.6089C15.3219 8.63205 15.0894 8.86356 15.0894 9.14911V9.86022ZM18.8844 1.94418C19.1713 1.94418 19.4039 1.71269 19.4039 1.42713V0.742633C19.4039 0.457076 19.1713 0.225586 18.8844 0.225586H17.9866C17.6997 0.225586 17.467 0.457077 17.467 0.742633V1.42713C17.467 1.71269 17.6997 1.94418 17.9866 1.94418H18.8844Z" fill="black"/>
<path id="Vector_2" d="M27.1136 3.17236H26.3659C25.4842 3.17236 24.9233 3.4515 24.6435 3.79726H24.6033V3.49947C24.6033 3.31893 24.456 3.17236 24.2746 3.17236H23.0616C22.8802 3.17236 22.7329 3.31893 22.7329 3.49947V10.0496C22.7329 10.2301 22.8802 10.3767 23.0616 10.3767H24.2746C24.456 10.3767 24.6033 10.2301 24.6033 10.0496V5.97706C24.6033 5.21959 25.1911 4.88716 25.8853 4.88716H26.4596C27.1143 4.88716 27.3145 5.12633 27.3145 5.81715V5.85247C27.3145 6.03304 27.4617 6.17958 27.6431 6.17958H28.8695C29.051 6.17958 29.1982 6.03304 29.1982 5.85247V5.33885C29.1982 3.86388 28.4371 3.17236 27.115 3.17236H27.1136Z" fill="black"/>
<path id="Vector_3" d="M34.2666 3.17236H32.6373C31.1016 3.17236 30.2065 3.79726 30.2065 5.27222V8.27611C30.2065 9.75107 31.1016 10.376 32.6373 10.376H34.2666C35.8023 10.376 36.6973 9.75107 36.6973 8.27611V5.27222C36.6973 3.79726 35.8023 3.17236 34.2666 3.17236ZM34.8276 7.9037C34.8276 8.40869 34.614 8.63456 34.0129 8.63456H32.8909C32.2898 8.63456 32.0762 8.40869 32.0762 7.91702V5.60465C32.0762 5.11301 32.2898 4.88716 32.8909 4.88716H34.0129C34.614 4.88716 34.8276 5.11301 34.8276 5.60465V7.9037Z" fill="black"/>
<path id="Vector_4" d="M42.319 3.17236H41.4909C40.6092 3.17236 40.0483 3.4515 39.7685 3.79726H39.7283V3.49947C39.7283 3.31893 39.581 3.17236 39.3996 3.17236H38.1866C38.0052 3.17236 37.8579 3.31893 37.8579 3.49947V10.0496C37.8579 10.2301 38.0052 10.3767 38.1866 10.3767H39.3996C39.581 10.3767 39.7283 10.2301 39.7283 10.0496V5.97706C39.7283 5.21959 40.3161 4.88716 40.9968 4.88716H41.598C42.2527 4.88716 42.5198 5.19295 42.5198 5.87046V10.0489C42.5198 10.2294 42.6671 10.376 42.8485 10.376H44.0749C44.2563 10.376 44.4035 10.2294 44.4035 10.0489V5.33885C44.4035 3.86388 43.6424 3.17236 42.3203 3.17236H42.319Z" fill="black"/>
<path id="Vector_5" d="M59.7257 8.63515H57.7568V1.61275C57.7568 1.43221 57.6092 1.28564 57.4278 1.28564H53.7843C53.6029 1.28564 53.4556 1.43221 53.4556 1.61275V2.67334C53.4556 2.85388 53.6029 3.00044 53.7843 3.00044H55.8862V8.63585H53.5172C53.3358 8.63585 53.1885 8.78238 53.1885 8.96295V10.0502C53.1885 10.2307 53.3358 10.3773 53.5172 10.3773H59.7246C59.906 10.3773 60.0536 10.2307 60.0536 10.0502V8.96295C60.0536 8.78238 59.906 8.63585 59.7246 8.63585L59.7257 8.63515Z" fill="black"/>
<path id="Vector_6" d="M64.9814 3.17236H63.3524C61.8167 3.17236 60.9214 3.79726 60.9214 5.27222V8.27611C60.9214 9.75107 61.8167 10.376 63.3524 10.376H64.9814C66.5171 10.376 67.4124 9.75107 67.4124 8.27611V5.27222C67.4124 3.79726 66.5171 3.17236 64.9814 3.17236ZM65.5424 7.9037C65.5424 8.40869 65.3293 8.63456 64.7281 8.63456H63.6057C63.0046 8.63456 62.7915 8.40869 62.7915 7.91702V5.60465C62.7915 5.11301 63.0046 4.88716 63.6057 4.88716H64.7281C65.3293 4.88716 65.5424 5.11301 65.5424 5.60465V7.9037Z" fill="black"/>
<path id="Vector_7" d="M72.6199 3.17236H71.0574C69.5217 3.17236 68.627 3.79726 68.627 5.27222V8.27611C68.627 9.75107 69.5217 10.376 71.0574 10.376H72.6199C74.1556 10.376 75.0504 9.75107 75.0504 8.27611V7.73983C75.0504 7.55927 74.9033 7.41273 74.7219 7.41273H73.5088C73.3274 7.41273 73.1803 7.55927 73.1803 7.73983V7.91702C73.1803 8.40869 72.9667 8.63456 72.3655 8.63456H71.3108C70.7096 8.63456 70.496 8.40869 70.496 7.91702V5.60465C70.496 5.11301 70.7096 4.88716 71.3108 4.88716H72.3655C72.9667 4.88716 73.1803 5.11301 73.1803 5.60465V5.85247C73.1803 6.03304 73.3274 6.17958 73.5088 6.17958H74.7219C74.9033 6.17958 75.0504 6.03304 75.0504 5.85247V5.27222C75.0504 3.79726 74.1556 3.17236 72.6199 3.17236Z" fill="black"/>
<path id="Vector_8" d="M80.8883 3.2866L79.0187 5.4604H77.9087V1.61177C77.9087 1.43123 77.7616 1.28467 77.5802 1.28467H76.3671C76.1857 1.28467 76.0381 1.43123 76.0381 1.61177V10.0485C76.0381 10.2291 76.1857 10.3756 76.3671 10.3756H77.5802C77.7616 10.3756 77.9087 10.2291 77.9087 10.0485V7.04462L79.0933 7.05326L80.5394 8.28642V10.0485C80.5394 10.2291 80.687 10.3756 80.8684 10.3756H82.0809C82.2624 10.3756 82.41 10.2291 82.41 10.0485V7.67284L80.6397 6.13395L82.9054 3.49512C83.0144 3.36787 82.9231 3.17201 82.7551 3.17201H81.1395C81.0434 3.17201 80.9527 3.21398 80.8899 3.2866H80.8883Z" fill="black"/>
<path id="Vector_9" d="M86.3554 4.68748H87.3973C88.0516 4.68748 88.1584 4.86002 88.1584 5.24576C88.1584 5.36301 88.2539 5.45827 88.3715 5.45827H89.7209C89.8385 5.45827 89.934 5.36301 89.934 5.24576V4.87335C89.934 3.85007 89.3999 3.17188 87.6506 3.17188H86.2749C84.8192 3.17188 83.8042 3.67685 83.8042 5.13916V5.51157C83.8042 6.89396 84.4456 7.42556 86.101 7.42556H87.2362C87.9705 7.42556 88.1584 7.62475 88.1584 8.05046V8.24965C88.1584 8.66135 87.9716 8.83456 87.3839 8.83456H86.3554C85.6872 8.83456 85.5809 8.64868 85.5809 8.26296C85.5809 8.10907 85.4553 7.98385 85.3007 7.98385H84.0855C83.9309 7.98385 83.8047 8.10907 83.8047 8.26296V8.66204C83.8047 9.68533 84.3393 10.3761 86.1015 10.3761H87.4773C88.9329 10.3761 89.9351 9.87115 89.9351 8.40885V7.99716C89.9351 6.61479 89.2003 5.96391 87.5443 5.96391H86.5159C85.7816 5.96391 85.5809 5.80471 85.5809 5.39232V5.23309C85.5809 4.82138 85.8348 4.68814 86.3554 4.68814V4.68748Z" fill="black"/>
<path id="Vector_10" d="M5.55241 7.20368V4.45777L5.55162 4.45697C5.55162 4.17746 5.77338 3.95112 6.04723 3.95112H9.13852C9.76358 3.95112 10.271 3.434 10.271 2.79525V1.35021C10.271 0.712264 9.76433 0.194336 9.13852 0.194336H6.04723C5.77338 0.194336 5.55241 0.391468 5.55241 0.700181V3.44608C5.55241 3.72559 5.33064 3.95193 5.05679 3.95193H1.96551C1.34046 3.95193 0.833008 4.46905 0.833008 5.1078V6.55286C0.833008 7.1908 1.33967 7.70872 1.96551 7.70872H5.05679C5.33064 7.70872 5.55241 7.93507 5.55241 8.21456V10.9605C5.55241 11.2447 5.77417 11.4663 6.04802 11.4663H9.13933C9.76433 11.4663 10.2718 10.9492 10.2718 10.3104V8.86538C10.2718 8.22744 9.76513 7.70952 9.13933 7.70952H6.04802C5.77417 7.70952 5.55241 7.48317 5.55241 7.20368Z" fill="#FF7139"/>
<path id="Vector_11" d="M49.3134 4.88671C49.9633 4.88671 50.2419 5.19246 50.2419 5.8837V7.63847C50.2419 8.32972 49.9633 8.63545 49.3134 8.63545H48.6899C48.0135 8.63545 47.4298 8.30314 47.4298 7.5454V5.97677C47.4298 5.21904 48.0135 4.88671 48.6899 4.88671H49.3134ZM47.4298 9.76539H47.4696C47.7481 10.0978 48.3053 10.3769 49.1808 10.3769H50.043C51.3562 10.3769 52.099 9.69894 52.099 8.21007V5.33869C52.099 3.86311 51.3562 3.17185 50.043 3.17185H49.1808C48.3053 3.17185 47.7481 3.45101 47.4696 3.79664H47.4298V2.21272C47.4298 1.6999 47.0141 1.28418 46.5012 1.28418C45.9885 1.28418 45.5728 1.6999 45.5728 2.21272V9.44838C45.5728 9.9612 45.9885 10.3769 46.5012 10.3769H46.8183C47.156 10.3769 47.4298 10.1031 47.4298 9.76539Z" fill="black"/>
<path id="Vector_12" d="M91.8804 0.194336V2.073H91.4296V0.194336H91.8804ZM92.4435 0.194336V0.544004H90.8794V0.194336H92.4435Z" fill="#D4DDE9"/>
<path id="Vector_13" d="M92.8591 0.194336H93.2268L93.6444 1.5014L94.0625 0.194336H94.4302L93.7936 2.073H93.4951L92.8591 0.194336ZM92.6353 0.194336H93.0158L93.0867 1.6343V2.073H92.6353V0.194336ZM94.2729 0.194336H94.6551V2.073H94.2026V1.6343L94.2729 0.194336Z" fill="#D4DDE9"/>
</g>
<defs>
<clipPath id="clip0_1298_831">
<rect width="93.9331" height="11.272" fill="white" transform="translate(0.833008 0.194336)"/>
</clipPath>
</defs>
</svg>
