<svg width="271" height="270" viewBox="0 0 271 270" fill="none" xmlns="http://www.w3.org/2000/svg">
<g filter="url(#filter0_f_9866_1386)">
<path d="M135.835 220C182.85 220 220.964 181.944 220.964 135C220.964 88.0558 182.85 50 135.835 50C88.8189 50 50.7051 88.0558 50.7051 135C50.7051 181.944 88.8189 220 135.835 220Z" fill="url(#paint0_linear_9866_1386)"/>
<path d="M220.464 135C220.464 181.667 182.575 219.5 135.835 219.5C89.0943 219.5 51.2051 181.667 51.2051 135C51.2051 88.3326 89.0943 50.5 135.835 50.5C182.575 50.5 220.464 88.3326 220.464 135Z" stroke="#66E070"/>
</g>
<path d="M220.464 135C220.464 181.667 182.575 219.5 135.835 219.5C89.0943 219.5 51.2051 181.667 51.2051 135C51.2051 88.3326 89.0943 50.5 135.835 50.5C182.575 50.5 220.464 88.3326 220.464 135Z" fill="white" fill-opacity="0.5" stroke="#66E070"/>
<path d="M124.492 161.313L116.49 139.166L116.767 133.634L160.593 113.093L143.183 146.721L143.162 146.743L143.029 146.882C142.911 147.003 142.739 147.182 142.52 147.409C142.081 147.863 141.453 148.512 140.696 149.291C139.182 150.849 137.152 152.926 135.089 155.002C133.025 157.079 130.93 159.154 129.284 160.71C128.461 161.488 127.753 162.133 127.219 162.583C126.951 162.808 126.731 162.981 126.565 163.096C126.481 163.154 126.416 163.194 126.368 163.218C126.344 163.23 126.33 163.236 126.323 163.238C126.139 163.233 125.934 163.141 125.716 162.968C125.495 162.792 125.284 162.551 125.098 162.301C124.913 162.051 124.76 161.801 124.652 161.612C124.599 161.517 124.557 161.439 124.528 161.385C124.514 161.357 124.504 161.336 124.497 161.322L124.492 161.313Z" fill="#54CC5E" stroke="black" stroke-width="0.5"/>
<mask id="path-5-inside-1_9866_1386" fill="white">
<path d="M126.876 144.898L125.336 161.267C125.336 161.267 124.691 166.282 129.705 161.267C134.72 156.251 138.421 151.589 138.421 151.589"/>
</mask>
<path d="M126.876 144.898L125.336 161.267C125.336 161.267 124.691 166.282 129.705 161.267C134.72 156.251 138.421 151.589 138.421 151.589" fill="#66E070"/>
<path d="M125.336 161.267L125.831 161.331L125.833 161.322L125.833 161.314L125.336 161.267ZM126.378 144.852L124.838 161.22L125.833 161.314L127.374 144.945L126.378 144.852ZM125.336 161.267C124.84 161.203 124.84 161.203 124.84 161.204C124.84 161.204 124.84 161.204 124.84 161.204C124.839 161.205 124.839 161.205 124.839 161.206C124.839 161.207 124.839 161.208 124.839 161.21C124.838 161.214 124.838 161.219 124.837 161.224C124.836 161.236 124.834 161.253 124.832 161.273C124.828 161.314 124.823 161.372 124.819 161.442C124.81 161.582 124.804 161.777 124.814 161.995C124.832 162.404 124.911 163.005 125.239 163.446C125.414 163.682 125.666 163.878 126.004 163.958C126.334 164.036 126.695 163.992 127.078 163.853C127.83 163.579 128.793 162.886 130.059 161.62L129.352 160.913C128.11 162.155 127.274 162.717 126.736 162.913C126.474 163.008 126.319 163.004 126.234 162.984C126.158 162.967 126.098 162.926 126.041 162.85C125.903 162.664 125.83 162.325 125.813 161.949C125.805 161.776 125.81 161.618 125.817 161.503C125.82 161.446 125.824 161.401 125.827 161.371C125.829 161.356 125.83 161.345 125.831 161.338C125.831 161.334 125.831 161.332 125.831 161.331C125.832 161.33 125.832 161.33 125.832 161.33C125.832 161.33 125.832 161.33 125.832 161.33C125.832 161.33 125.832 161.33 125.832 161.33C125.832 161.331 125.831 161.331 125.336 161.267ZM130.059 161.62C132.577 159.102 134.764 156.673 136.321 154.874C137.1 153.975 137.722 153.232 138.15 152.714C138.364 152.455 138.529 152.252 138.641 152.113C138.697 152.044 138.74 151.991 138.768 151.955C138.783 151.937 138.794 151.923 138.801 151.914C138.805 151.909 138.808 151.906 138.809 151.903C138.81 151.902 138.811 151.901 138.812 151.9C138.812 151.9 138.812 151.9 138.812 151.9C138.812 151.9 138.812 151.9 138.812 151.9C138.812 151.899 138.813 151.899 138.421 151.589C138.029 151.278 138.029 151.278 138.029 151.278C138.029 151.278 138.029 151.278 138.029 151.278C138.029 151.278 138.029 151.278 138.029 151.278C138.028 151.279 138.028 151.28 138.027 151.281C138.025 151.283 138.023 151.286 138.019 151.29C138.012 151.299 138.002 151.312 137.988 151.33C137.96 151.364 137.918 151.416 137.863 151.484C137.753 151.62 137.59 151.821 137.379 152.077C136.955 152.59 136.339 153.327 135.565 154.22C134.019 156.006 131.848 158.416 129.352 160.913L130.059 161.62Z" fill="black" mask="url(#path-5-inside-1_9866_1386)"/>
<path d="M98.778 132.087L98.778 132.087C98.8817 131.79 99.0898 131.51 99.8679 130.97L99.8684 130.97C100.076 130.825 100.52 130.594 101.193 130.284C101.859 129.978 102.731 129.601 103.78 129.165C105.877 128.293 108.676 127.186 111.934 125.928C118.449 123.413 126.794 120.298 135.025 117.262C143.257 114.226 151.374 111.27 157.434 109.073C160.463 107.974 162.978 107.066 164.736 106.431C165.615 106.114 166.305 105.866 166.774 105.697L167.311 105.504L167.448 105.454L167.483 105.442L167.489 105.439L167.49 105.439L167.491 105.439L167.493 105.438L167.494 105.438L167.507 105.434C167.52 105.43 167.538 105.424 167.563 105.416C167.612 105.401 167.684 105.379 167.775 105.355C167.955 105.305 168.207 105.244 168.49 105.195C169.069 105.094 169.729 105.055 170.195 105.232L170.202 105.235L170.21 105.237C170.431 105.306 170.631 105.432 170.787 105.603C170.944 105.774 171.053 105.983 171.102 106.21L171.102 106.21L171.103 106.215C171.213 106.669 171.259 107.136 171.239 107.603L171.239 107.603L171.239 107.61C171.236 107.863 171.217 108.096 171.193 108.383C171.178 108.569 171.16 108.778 171.144 109.03L171.144 109.03C171.048 110.58 170.252 114.672 169.101 119.967C167.952 125.252 166.458 131.71 164.975 137.973C163.492 144.235 162.021 150.301 160.921 154.801C160.371 157.051 159.914 158.91 159.594 160.206C159.434 160.854 159.308 161.362 159.223 161.707L159.125 162.101L159.1 162.202L159.094 162.227L159.092 162.234L159.092 162.234L159.092 162.234L159.092 162.234L159.092 162.235L159.092 162.235L159.091 162.239L159.085 162.259C159.08 162.276 159.072 162.304 159.061 162.339C159.039 162.409 159.004 162.51 158.954 162.633C158.855 162.88 158.697 163.209 158.467 163.539C158.008 164.198 157.272 164.845 156.126 164.888C155.545 164.907 154.966 164.808 154.424 164.599C153.881 164.389 153.387 164.072 152.97 163.667L152.964 163.662L152.959 163.657C148.035 159.422 131.053 148.01 127.31 145.506C127.256 145.469 127.21 145.42 127.175 145.364L126.961 145.493L127.175 145.364C127.141 145.307 127.119 145.243 127.111 145.177L127.11 145.167L127.108 145.158C127.1 145.119 127.118 145.041 127.178 144.935C127.204 144.889 127.232 144.849 127.253 144.82C127.258 144.814 127.262 144.808 127.266 144.803C127.27 144.798 127.274 144.793 127.277 144.789L127.285 144.782L127.349 144.726L127.596 144.506C127.813 144.313 128.13 144.029 128.535 143.667C129.345 142.944 130.502 141.907 131.893 140.654C134.676 138.149 138.394 134.779 142.137 131.323C145.88 127.868 149.649 124.324 152.533 121.472C153.974 120.046 155.197 118.79 156.085 117.802C156.528 117.309 156.891 116.88 157.157 116.528C157.415 116.186 157.605 115.888 157.668 115.665L157.668 115.665C157.697 115.566 157.697 115.456 157.649 115.353C157.602 115.251 157.52 115.183 157.433 115.143C157.268 115.065 157.064 115.076 156.877 115.132L156.87 115.134L156.864 115.137C156.72 115.19 156.454 115.326 156.101 115.522C155.74 115.721 155.27 115.991 154.707 116.322C153.579 116.984 152.074 117.893 150.311 118.969C146.787 121.122 142.233 123.95 137.623 126.828C128.452 132.556 119.059 138.487 117.113 139.715C116.895 139.777 116.667 139.789 116.443 139.753L99.9669 134.385L99.9582 134.381C99.9463 134.376 99.928 134.367 99.9044 134.356C99.8571 134.333 99.7888 134.298 99.7082 134.25C99.5459 134.155 99.3388 134.011 99.152 133.818C98.7854 133.44 98.4997 132.882 98.778 132.087Z" fill="#66E070" stroke="black" stroke-width="0.5"/>
<defs>
<filter id="filter0_f_9866_1386" x="0.705078" y="0" width="270.26" height="270" filterUnits="userSpaceOnUse" color-interpolation-filters="sRGB">
<feFlood flood-opacity="0" result="BackgroundImageFix"/>
<feBlend mode="normal" in="SourceGraphic" in2="BackgroundImageFix" result="shape"/>
<feGaussianBlur stdDeviation="25" result="effect1_foregroundBlur_9866_1386"/>
</filter>
<linearGradient id="paint0_linear_9866_1386" x1="50.7051" y1="50" x2="220.964" y2="220" gradientUnits="userSpaceOnUse">
<stop offset="0.425" stop-color="#A3F5AA"/>
<stop offset="1" stop-color="#66E070"/>
</linearGradient>
</defs>
</svg>
