<svg width="271" height="271" viewBox="0 0 271 271" fill="none" xmlns="http://www.w3.org/2000/svg">
<g filter="url(#filter0_f_9214_2010)">
<path d="M135.5 220.906C182.515 220.906 220.629 182.85 220.629 135.906C220.629 88.962 182.515 50.9062 135.5 50.9062C88.4839 50.9062 50.3701 88.962 50.3701 135.906C50.3701 182.85 88.4839 220.906 135.5 220.906Z" fill="url(#paint0_linear_9214_2010)"/>
<path d="M220.129 135.906C220.129 182.574 182.24 220.406 135.5 220.406C88.7593 220.406 50.8701 182.574 50.8701 135.906C50.8701 89.2389 88.7593 51.4062 135.5 51.4062C182.24 51.4062 220.129 89.2389 220.129 135.906Z" stroke="#F65D51"/>
</g>
<path d="M220.129 135.906C220.129 182.574 182.24 220.406 135.5 220.406C88.7593 220.406 50.8701 182.574 50.8701 135.906C50.8701 89.2389 88.7593 51.4062 135.5 51.4062C182.24 51.4062 220.129 89.2389 220.129 135.906Z" fill="white" fill-opacity="0.5" stroke="#F65D51"/>
<path d="M105.52 118.924L105.181 119.136L105.52 119.348L137.049 139.053L137.181 139.136L137.314 139.053L168.842 119.348L169.181 119.136L168.842 118.924L137.314 99.2188L137.181 99.136L137.049 99.2188L105.52 118.924ZM101.723 112.611L101.723 112.611L101.726 112.609L137.181 90.4248L172.636 112.609L172.64 112.611C174.855 113.948 176.342 116.351 176.342 119.136V158.547C176.342 160.571 175.538 162.512 174.106 163.943C172.675 165.375 170.734 166.179 168.71 166.179H105.653C103.628 166.179 101.687 165.375 100.256 163.943L100.079 164.12L100.256 163.943C98.8246 162.512 98.0205 160.571 98.0205 158.547V119.136C98.0205 116.351 99.5075 113.948 101.723 112.611Z" fill="#F65D51" stroke="black" stroke-width="0.5"/>
<defs>
<filter id="filter0_f_9214_2010" x="0.370117" y="0.90625" width="270.259" height="270" filterUnits="userSpaceOnUse" color-interpolation-filters="sRGB">
<feFlood flood-opacity="0" result="BackgroundImageFix"/>
<feBlend mode="normal" in="SourceGraphic" in2="BackgroundImageFix" result="shape"/>
<feGaussianBlur stdDeviation="25" result="effect1_foregroundBlur_9214_2010"/>
</filter>
<linearGradient id="paint0_linear_9214_2010" x1="50.3701" y1="50.9062" x2="220.629" y2="220.906" gradientUnits="userSpaceOnUse">
<stop offset="0.425" stop-color="#FFC17B"/>
<stop offset="1" stop-color="#F65D51"/>
</linearGradient>
</defs>
</svg>
