<svg width="176" height="176" viewBox="0 0 176 176" fill="none" xmlns="http://www.w3.org/2000/svg">
<g filter="url(#filter0_d_8966_2042)">
<path d="M154.834 88.2978C154.834 125.245 124.837 155.197 87.8321 155.197C50.8272 155.197 20.8301 125.245 20.8301 88.2978C20.8301 51.351 50.8272 21.3984 87.8321 21.3984C124.837 21.3984 154.834 51.351 154.834 88.2978Z" fill="#F8B374" stroke="#F65D51"/>
<path d="M74.5816 114.611L66.5803 92.4649L66.8566 86.9329L110.683 66.3923L93.2729 100.02L93.2522 100.042L93.1185 100.181C93.0013 100.302 92.8293 100.481 92.6099 100.708C92.1711 101.162 91.543 101.811 90.786 102.59C89.2718 104.148 87.242 106.224 85.1788 108.301C83.1152 110.378 81.0197 112.453 79.3739 114.009C78.5505 114.787 77.8425 115.432 77.3084 115.882C77.0408 116.107 76.8211 116.28 76.6547 116.395C76.5712 116.453 76.5061 116.492 76.4583 116.517C76.4341 116.529 76.4197 116.535 76.4133 116.537C76.2289 116.532 76.0243 116.44 75.8063 116.267C75.5849 116.091 75.3737 115.85 75.1879 115.599C75.0031 115.35 74.8496 115.1 74.742 114.91C74.6884 114.816 74.6465 114.738 74.6182 114.683C74.6041 114.656 74.5934 114.635 74.5863 114.621L74.5816 114.611Z" fill="url(#paint0_linear_8966_2042)" stroke="black" stroke-width="0.5"/>
<mask id="path-3-inside-1_8966_2042" fill="white">
<path d="M76.9656 98.1973L75.4254 114.566C75.4254 114.566 74.7807 119.581 79.7951 114.566C84.8094 109.55 88.5107 104.887 88.5107 104.887"/>
</mask>
<path d="M76.9656 98.1973L75.4254 114.566C75.4254 114.566 74.7807 119.581 79.7951 114.566C84.8094 109.55 88.5107 104.887 88.5107 104.887" fill="url(#paint1_linear_8966_2042)"/>
<path d="M75.4254 114.566L75.9213 114.63L75.9224 114.621L75.9232 114.613L75.4254 114.566ZM76.4678 98.1504L74.9276 114.519L75.9232 114.613L77.4634 98.2441L76.4678 98.1504ZM75.4254 114.566C74.9295 114.502 74.9295 114.502 74.9294 114.503C74.9294 114.503 74.9294 114.503 74.9294 114.503C74.9293 114.504 74.9292 114.504 74.9292 114.505C74.929 114.506 74.9288 114.507 74.9286 114.509C74.9282 114.513 74.9276 114.517 74.9269 114.523C74.9256 114.535 74.9238 114.551 74.9218 114.572C74.9178 114.613 74.9128 114.67 74.9084 114.741C74.8998 114.881 74.8936 115.076 74.9035 115.294C74.9222 115.702 75.001 116.304 75.3285 116.745C75.5042 116.981 75.7554 117.176 76.0938 117.256C76.4235 117.334 76.7849 117.291 77.1682 117.151C77.9194 116.877 78.883 116.185 80.1487 114.919L79.4415 114.212C78.2 115.454 77.3638 116.016 76.8256 116.212C76.5642 116.307 76.4085 116.303 76.324 116.283C76.2482 116.265 76.1883 116.225 76.1313 116.148C75.9931 115.962 75.9197 115.623 75.9025 115.248C75.8946 115.075 75.8995 114.917 75.9066 114.802C75.9101 114.745 75.914 114.7 75.917 114.67C75.9185 114.655 75.9197 114.644 75.9205 114.637C75.9209 114.633 75.9212 114.631 75.9213 114.63C75.9214 114.629 75.9214 114.629 75.9214 114.629C75.9214 114.629 75.9214 114.629 75.9214 114.629C75.9214 114.629 75.9214 114.629 75.9214 114.629C75.9214 114.629 75.9213 114.63 75.4254 114.566ZM80.1487 114.919C82.6666 112.401 84.8538 109.972 86.4113 108.173C87.1903 107.273 87.8122 106.531 88.2397 106.013C88.4535 105.753 88.6187 105.55 88.7307 105.412C88.7867 105.343 88.8294 105.289 88.8582 105.254C88.8726 105.236 88.8835 105.222 88.8909 105.213C88.8946 105.208 88.8974 105.204 88.8993 105.202C88.9003 105.201 88.901 105.2 88.9015 105.199C88.9018 105.199 88.902 105.199 88.9021 105.199C88.9022 105.198 88.9022 105.198 88.9023 105.198C88.9023 105.198 88.9024 105.198 88.5107 104.887C88.1191 104.577 88.1191 104.577 88.1191 104.577C88.1191 104.577 88.1191 104.577 88.119 104.577C88.119 104.577 88.1188 104.577 88.1186 104.577C88.1182 104.578 88.1176 104.578 88.1168 104.58C88.1151 104.582 88.1125 104.585 88.109 104.589C88.1021 104.598 88.0916 104.611 88.0777 104.628C88.0498 104.663 88.0081 104.715 87.9531 104.783C87.8431 104.919 87.68 105.12 87.4684 105.376C87.0453 105.889 86.4285 106.625 85.6553 107.518C84.1086 109.305 81.938 111.715 79.4415 114.212L80.1487 114.919Z" fill="black" mask="url(#path-3-inside-1_8966_2042)"/>
<path d="M48.8678 85.3857L48.8679 85.3856C48.9716 85.0888 49.1797 84.8084 49.9578 84.2688L49.9582 84.2684C50.1658 84.1237 50.6103 83.893 51.2826 83.5833C51.9484 83.2766 52.8204 82.9001 53.8695 82.464C55.9673 81.592 58.766 80.4849 62.0237 79.2272C68.5387 76.7119 76.8836 73.5969 85.1152 70.561C93.3466 67.5253 101.464 64.5692 107.523 62.3719C110.553 61.2733 113.068 60.3645 114.826 59.7303C115.705 59.4132 116.395 59.1647 116.864 58.9956L117.4 58.8026L117.538 58.7532L117.572 58.7407L117.579 58.7382L117.58 58.738L117.581 58.7376L117.583 58.7369L117.583 58.7368L117.597 58.7324C117.609 58.7284 117.628 58.7224 117.653 58.7148C117.702 58.6996 117.774 58.6782 117.864 58.6536C118.045 58.6043 118.297 58.5428 118.58 58.4936C119.159 58.393 119.819 58.354 120.285 58.531L120.292 58.5338L120.3 58.5361C120.521 58.6046 120.72 58.7308 120.877 58.9016C121.034 59.0725 121.142 59.2819 121.192 59.5084L121.191 59.5084L121.193 59.5141C121.303 59.9681 121.349 60.4351 121.329 60.9018L121.329 60.9018L121.329 60.9091C121.326 61.1616 121.307 61.395 121.283 61.6813C121.267 61.868 121.25 62.0772 121.234 62.3288L121.234 62.3291C121.138 63.8784 120.341 67.9705 119.191 73.2663C118.042 78.5512 116.547 85.0091 115.064 91.2716C113.581 97.5339 112.111 103.6 111.011 108.1C110.461 110.35 110.003 112.209 109.684 113.505C109.524 114.153 109.398 114.661 109.313 115.006L109.215 115.4L109.19 115.501L109.184 115.526L109.182 115.533L109.182 115.533L109.182 115.533L109.182 115.533L109.182 115.534L109.182 115.534L109.181 115.538L109.175 115.558C109.17 115.575 109.162 115.602 109.151 115.637C109.129 115.707 109.094 115.809 109.044 115.932C108.944 116.179 108.787 116.508 108.557 116.838C108.097 117.497 107.361 118.144 106.215 118.187C105.634 118.206 105.056 118.107 104.514 117.898C103.971 117.688 103.477 117.371 103.059 116.966L103.054 116.961L103.048 116.956C98.1251 112.721 81.1432 101.309 77.4001 98.8052C77.3454 98.7677 77.2994 98.7191 77.265 98.6624L77.0513 98.7921L77.265 98.6624C77.2305 98.6055 77.2085 98.5418 77.2007 98.4757L77.1996 98.466L77.1977 98.4565C77.1901 98.4183 77.2075 98.3395 77.2676 98.2337C77.2937 98.1878 77.3217 98.1476 77.3433 98.1187C77.3479 98.1126 77.3521 98.1071 77.3559 98.1023C77.3603 98.0966 77.3641 98.0919 77.3672 98.0881L77.375 98.0812L77.4384 98.0247L77.6858 97.8044C77.9024 97.6114 78.2203 97.3278 78.6251 96.966C79.4346 96.2424 80.592 95.2056 81.9833 93.9529C84.7658 91.4474 88.4842 88.0779 92.2273 84.6221C95.9701 81.1666 99.7393 77.6232 102.623 74.7705C104.064 73.3445 105.287 72.0885 106.175 71.1013C106.618 70.6079 106.981 70.1785 107.247 69.8266C107.505 69.4851 107.695 69.187 107.758 68.9643L107.758 68.9642C107.786 68.8647 107.786 68.7549 107.739 68.6521C107.692 68.5501 107.61 68.4818 107.523 68.4414C107.358 68.3642 107.154 68.3744 106.967 68.431L106.96 68.4332L106.953 68.4357C106.81 68.4886 106.544 68.625 106.191 68.8203C105.83 69.0195 105.36 69.2897 104.796 69.6207C103.669 70.2829 102.164 71.1914 100.401 72.2678C96.8766 74.4209 92.3224 77.2484 87.7129 80.127C78.5414 85.8545 69.1484 91.786 67.2032 93.0143C66.9852 93.0753 66.7564 93.0882 66.5327 93.0518L50.0568 87.6836L50.048 87.6798C50.0362 87.6745 50.0179 87.6662 49.9943 87.6549C49.947 87.632 49.8787 87.5969 49.798 87.5493C49.6357 87.4534 49.4287 87.3098 49.2419 87.117C48.8753 86.7388 48.5895 86.1808 48.8678 85.3857Z" fill="#F65D51" stroke="black" stroke-width="0.5"/>
</g>
<defs>
<filter id="filter0_d_8966_2042" x="0.330078" y="0.898438" width="175.004" height="174.799" filterUnits="userSpaceOnUse" color-interpolation-filters="sRGB">
<feFlood flood-opacity="0" result="BackgroundImageFix"/>
<feColorMatrix in="SourceAlpha" type="matrix" values="0 0 0 0 0 0 0 0 0 0 0 0 0 0 0 0 0 0 127 0" result="hardAlpha"/>
<feOffset/>
<feGaussianBlur stdDeviation="10"/>
<feComposite in2="hardAlpha" operator="out"/>
<feColorMatrix type="matrix" values="0 0 0 0 1 0 0 0 0 0.753882 0 0 0 0 0.529167 0 0 0 1 0"/>
<feBlend mode="normal" in2="BackgroundImageFix" result="effect1_dropShadow_8966_2042"/>
<feBlend mode="normal" in="SourceGraphic" in2="effect1_dropShadow_8966_2042" result="shape"/>
</filter>
<linearGradient id="paint0_linear_8966_2042" x1="101.687" y1="111.73" x2="73.833" y2="72.6294" gradientUnits="userSpaceOnUse">
<stop stop-color="#F65D51"/>
<stop offset="1" stop-color="#F5B172"/>
</linearGradient>
<linearGradient id="paint1_linear_8966_2042" x1="85.7209" y1="114.948" x2="75.0311" y2="102.951" gradientUnits="userSpaceOnUse">
<stop stop-color="#F65D51"/>
<stop offset="1" stop-color="#F5B172"/>
</linearGradient>
</defs>
</svg>
