<svg width="271" height="271" viewBox="0 0 271 271" fill="none" xmlns="http://www.w3.org/2000/svg">
<g filter="url(#filter0_f_9214_2101)">
<path d="M135.5 220.906C182.515 220.906 220.629 182.85 220.629 135.906C220.629 88.962 182.515 50.9062 135.5 50.9062C88.4839 50.9062 50.3701 88.962 50.3701 135.906C50.3701 182.85 88.4839 220.906 135.5 220.906Z" fill="url(#paint0_linear_9214_2101)"/>
<path d="M220.129 135.906C220.129 182.574 182.24 220.406 135.5 220.406C88.7593 220.406 50.8701 182.574 50.8701 135.906C50.8701 89.2389 88.7593 51.4062 135.5 51.4062C182.24 51.4062 220.129 89.2389 220.129 135.906Z" stroke="#F65D51"/>
</g>
<path d="M220.129 135.906C220.129 182.574 182.24 220.406 135.5 220.406C88.7593 220.406 50.8701 182.574 50.8701 135.906C50.8701 89.2389 88.7593 51.4062 135.5 51.4062C182.24 51.4062 220.129 89.2389 220.129 135.906Z" fill="white" fill-opacity="0.5" stroke="#F65D51"/>
<path d="M119.061 168.881L108.964 140.935L109.315 133.906L164.796 107.904L142.747 150.492L142.714 150.526L142.545 150.701C142.398 150.855 142.181 151.08 141.904 151.366C141.35 151.939 140.558 152.758 139.603 153.74C137.694 155.705 135.134 158.324 132.532 160.943C129.929 163.563 127.286 166.18 125.209 168.142C124.171 169.124 123.277 169.939 122.602 170.507C122.264 170.792 121.985 171.011 121.772 171.158C121.666 171.232 121.581 171.284 121.517 171.316C121.466 171.342 121.443 171.348 121.441 171.349C121.185 171.346 120.909 171.22 120.625 170.994C120.339 170.767 120.069 170.459 119.833 170.14C119.598 169.823 119.403 169.505 119.266 169.265C119.198 169.145 119.145 169.045 119.109 168.976C119.091 168.942 119.077 168.915 119.068 168.896L119.061 168.881Z" fill="url(#paint1_linear_9214_2101)" stroke="black" stroke-width="0.5"/>
<mask id="path-5-inside-1_9214_2101" fill="white">
<path d="M122.127 148.155L120.184 168.798C120.184 168.798 119.371 175.123 125.695 168.798C132.019 162.473 136.687 156.592 136.687 156.592"/>
</mask>
<path d="M122.127 148.155L120.184 168.798C120.184 168.798 119.371 175.123 125.695 168.798C132.019 162.473 136.687 156.592 136.687 156.592" fill="url(#paint2_linear_9214_2101)"/>
<path d="M120.184 168.798L120.68 168.861L120.681 168.853L120.682 168.845L120.184 168.798ZM121.629 148.108L119.687 168.751L120.682 168.845L122.625 148.202L121.629 148.108ZM120.184 168.798C119.688 168.734 119.688 168.734 119.688 168.734C119.688 168.735 119.688 168.735 119.688 168.735C119.688 168.736 119.688 168.736 119.688 168.737C119.688 168.738 119.688 168.74 119.687 168.742C119.687 168.746 119.686 168.752 119.685 168.759C119.684 168.773 119.682 168.793 119.679 168.818C119.674 168.868 119.668 168.939 119.663 169.026C119.652 169.2 119.644 169.441 119.657 169.71C119.68 170.221 119.779 170.945 120.167 171.468C120.373 171.745 120.665 171.971 121.057 172.064C121.441 172.155 121.87 172.106 122.338 171.936C123.257 171.601 124.456 170.745 126.049 169.151L125.342 168.444C123.773 170.013 122.701 170.739 121.995 170.996C121.649 171.122 121.426 171.124 121.288 171.091C121.158 171.06 121.057 170.989 120.97 170.872C120.771 170.604 120.677 170.142 120.656 169.664C120.645 169.44 120.652 169.236 120.661 169.088C120.665 169.014 120.671 168.956 120.674 168.916C120.676 168.897 120.678 168.882 120.679 168.872C120.68 168.868 120.68 168.865 120.68 168.863C120.68 168.862 120.68 168.861 120.68 168.861C120.68 168.861 120.68 168.861 120.68 168.861C120.68 168.861 120.68 168.861 120.68 168.861C120.68 168.861 120.68 168.861 120.184 168.798ZM126.049 169.151C129.221 165.978 131.978 162.917 133.94 160.65C134.922 159.516 135.706 158.581 136.244 157.928C136.514 157.601 136.722 157.346 136.863 157.171C136.933 157.084 136.987 157.017 137.023 156.972C137.041 156.95 137.055 156.932 137.064 156.921C137.069 156.915 137.072 156.911 137.075 156.908C137.076 156.906 137.077 156.905 137.077 156.904C137.078 156.904 137.078 156.903 137.078 156.903C137.078 156.903 137.078 156.903 137.078 156.903C137.078 156.903 137.078 156.903 136.687 156.592C136.295 156.281 136.295 156.281 136.295 156.281C136.295 156.281 136.295 156.281 136.295 156.281C136.295 156.281 136.295 156.282 136.295 156.282C136.294 156.283 136.293 156.284 136.292 156.285C136.29 156.288 136.287 156.292 136.282 156.297C136.274 156.308 136.26 156.325 136.243 156.347C136.207 156.391 136.155 156.457 136.085 156.543C135.946 156.715 135.74 156.968 135.473 157.291C134.939 157.939 134.16 158.869 133.184 159.996C131.232 162.25 128.493 165.292 125.342 168.444L126.049 169.151Z" fill="black" mask="url(#path-5-inside-1_9214_2101)"/>
<path d="M86.6312 131.976L86.6312 131.976C86.27 133.008 86.643 133.737 87.1176 134.227C87.3585 134.475 87.6248 134.66 87.8327 134.783C87.9362 134.844 88.024 134.889 88.0851 134.918C88.1156 134.933 88.1393 134.944 88.1549 134.951L88.1691 134.957L108.955 141.729C109.251 141.778 109.555 141.761 109.843 141.679C112.278 140.141 124.137 132.652 135.716 125.421C141.53 121.791 147.273 118.225 151.718 115.51C153.94 114.153 155.839 113.007 157.26 112.172C157.97 111.755 158.562 111.414 159.016 111.164C159.464 110.917 159.793 110.747 159.969 110.683L159.976 110.68L159.983 110.678C160.211 110.609 160.45 110.6 160.638 110.688C160.736 110.734 160.826 110.81 160.878 110.922C160.93 111.035 160.931 111.157 160.899 111.27C160.822 111.538 160.591 111.905 160.265 112.336C159.931 112.778 159.475 113.318 158.916 113.939C157.798 115.183 156.257 116.766 154.439 118.564C150.804 122.161 146.051 126.629 141.331 130.987C136.611 135.345 131.921 139.594 128.412 142.754C126.658 144.334 125.198 145.641 124.177 146.554C123.667 147.01 123.266 147.367 122.993 147.611L122.681 147.889L122.601 147.96L122.587 147.972L122.586 147.974C122.578 147.983 122.566 147.998 122.552 148.017C122.524 148.055 122.487 148.108 122.452 148.169C122.375 148.304 122.342 148.422 122.357 148.495L122.359 148.504L122.36 148.514C122.371 148.606 122.401 148.696 122.45 148.775C122.498 148.855 122.563 148.923 122.639 148.976C127.361 152.134 148.774 166.524 154.979 171.862L154.985 171.866L154.991 171.872C155.523 172.389 156.154 172.793 156.846 173.061C157.538 173.328 158.277 173.454 159.018 173.43C160.491 173.375 161.436 172.542 162.023 171.7C162.317 171.279 162.517 170.86 162.644 170.546C162.707 170.389 162.752 170.259 162.78 170.169C162.795 170.124 162.805 170.09 162.812 170.067L162.819 170.041L162.82 170.035L162.82 170.035L162.82 170.034L162.82 170.034L162.821 170.033L162.823 170.025L162.831 169.993L162.862 169.866L162.985 169.369C163.093 168.933 163.252 168.293 163.453 167.476C163.857 165.841 164.433 163.497 165.127 160.659C166.514 154.984 168.369 147.334 170.239 139.436C172.11 131.538 173.995 123.393 175.443 116.727C176.894 110.051 177.901 104.884 178.022 102.924L178.022 102.924C178.042 102.61 178.064 102.347 178.083 102.112C178.113 101.749 178.138 101.45 178.142 101.13L178.142 101.123L178.142 101.123C178.167 100.528 178.108 99.9332 177.968 99.3548L177.967 99.3491L177.967 99.3491C177.902 99.0521 177.76 98.7776 177.555 98.5536L177.739 98.3846L177.555 98.5536C177.349 98.3296 177.088 98.1642 176.798 98.0744L176.79 98.072L176.783 98.0692C176.178 97.8394 175.33 97.8917 174.598 98.0189C174.238 98.0813 173.919 98.1594 173.69 98.2219C173.576 98.2532 173.484 98.2804 173.421 98.2997C173.39 98.3094 173.366 98.317 173.35 98.3222L173.332 98.328L173.331 98.3284L173.328 98.3294L173.328 98.3294L173.327 98.3297L86.6312 131.976ZM86.6312 131.976C86.7691 131.582 87.0461 131.218 88.0302 130.536L88.0307 130.535C88.2979 130.349 88.8637 130.056 89.7109 129.665C90.5516 129.278 91.6522 128.803 92.9755 128.253C95.6219 127.153 99.1521 125.756 103.261 124.17C111.478 120.998 122.002 117.069 132.383 113.241C142.764 109.412 153.001 105.684 160.643 102.913C164.464 101.527 167.636 100.381 169.853 99.5813C170.962 99.1814 171.831 98.8681 172.424 98.6547L173.1 98.4114L173.273 98.3491L173.317 98.3334L173.327 98.3297L86.6312 131.976Z" fill="#F65D51" stroke="black" stroke-width="0.5"/>
<defs>
<filter id="filter0_f_9214_2101" x="0.370117" y="0.90625" width="270.259" height="270" filterUnits="userSpaceOnUse" color-interpolation-filters="sRGB">
<feFlood flood-opacity="0" result="BackgroundImageFix"/>
<feBlend mode="normal" in="SourceGraphic" in2="BackgroundImageFix" result="shape"/>
<feGaussianBlur stdDeviation="25" result="effect1_foregroundBlur_9214_2101"/>
</filter>
<linearGradient id="paint0_linear_9214_2101" x1="50.3701" y1="50.9062" x2="220.629" y2="220.906" gradientUnits="userSpaceOnUse">
<stop offset="0.425" stop-color="#FFC17B"/>
<stop offset="1" stop-color="#F65D51"/>
</linearGradient>
<linearGradient id="paint1_linear_9214_2101" x1="153.305" y1="165.221" x2="118.177" y2="115.91" gradientUnits="userSpaceOnUse">
<stop stop-color="#F65D51"/>
<stop offset="1" stop-color="#F5B172"/>
</linearGradient>
<linearGradient id="paint2_linear_9214_2101" x1="133.168" y1="169.28" x2="119.687" y2="154.15" gradientUnits="userSpaceOnUse">
<stop stop-color="#F65D51"/>
<stop offset="1" stop-color="#F5B172"/>
</linearGradient>
</defs>
</svg>
