<svg width="21" height="25" viewBox="0 0 21 25" fill="none" xmlns="http://www.w3.org/2000/svg">
<g id="Group 1000004776">
<path id="Vector" d="M6.48176 3.03949L10.3138 0.826515C10.4229 0.763557 10.5583 0.763557 10.6674 0.826515L20.7669 6.65748C20.8761 6.72044 20.9432 6.83692 20.9443 6.96283L20.9579 10.9733C20.9579 11.1002 20.8908 11.2177 20.7806 11.2807L16.9538 13.4905C16.7187 13.6269 16.4239 13.457 16.4228 13.1852L16.4103 9.58609C16.4103 9.46017 16.342 9.3437 16.2329 9.28074L6.48176 3.65228C6.24566 3.51588 6.24566 3.1759 6.48176 3.03949Z" fill="#010101"/>
<path id="Vector_2" d="M4.00833 21.2048L0.177332 18.9929C0.0671553 18.9299 0 18.8135 0 18.6865V7.02455C0 6.89864 0.0671553 6.78216 0.176283 6.71816L3.64318 4.70035C3.75335 4.63634 3.88871 4.63634 3.99784 4.70035L7.82464 6.91018C8.05969 7.04659 8.06074 7.38551 7.82569 7.52297L4.71556 9.33302C4.60643 9.39597 4.53928 9.51245 4.53928 9.63941V20.8995C4.53928 21.1723 4.24443 21.3423 4.00833 21.2059V21.2048Z" fill="#010101"/>
<path id="Vector_3" d="M20.9602 14.2623V18.6861C20.9602 18.8131 20.8931 18.9296 20.7829 18.9925L10.6834 24.8235C10.5742 24.8865 10.4399 24.8865 10.3308 24.8235L6.85026 22.8298C6.74008 22.7669 6.67188 22.6493 6.67188 22.5224V18.1038C6.67188 17.832 6.96568 17.662 7.20177 17.7963L10.3245 19.5854C10.4336 19.6483 10.5679 19.6473 10.6771 19.5854L20.4282 13.9548C20.6643 13.8184 20.9592 13.9884 20.9592 14.2612L20.9602 14.2623Z" fill="#010101"/>
</g>
</svg>
