<svg width="70" height="38" viewBox="0 0 70 38" fill="none" xmlns="http://www.w3.org/2000/svg">
<g clip-path="url(#clip0_3769_3768)">
<path d="M35.1892 35.674L19.2649 20.3162C14.8805 15.7818 14.8805 8.3699 19.2649 3.83548C23.0825 -0.121365 29.4085 0.401601 33.4115 4.14042C35.2438 5.85198 35.1346 5.85198 36.9561 4.14042C40.9591 0.401601 47.2851 -0.121365 51.1131 3.83548C55.4868 8.3699 55.4868 15.7818 51.1131 20.3162L35.1892 35.674Z" stroke="black" stroke-width="1.5" stroke-miterlimit="10" stroke-linecap="round" stroke-linejoin="round"/>
<path d="M1.18359 14.2363H9.6112" stroke="black" stroke-width="1.5" stroke-miterlimit="10" stroke-linecap="round" stroke-linejoin="round"/>
<path d="M9.61365 7.45322L2.30396 3.88477" stroke="black" stroke-width="1.5" stroke-miterlimit="10" stroke-linecap="round" stroke-linejoin="round"/>
<path d="M9.61365 21.0195L2.30396 24.588" stroke="black" stroke-width="1.5" stroke-miterlimit="10" stroke-linecap="round" stroke-linejoin="round"/>
<path d="M69.08 14.2363H60.6523" stroke="black" stroke-width="1.5" stroke-miterlimit="10" stroke-linecap="round" stroke-linejoin="round"/>
<path d="M60.6523 7.45322L67.9575 3.88477" stroke="black" stroke-width="1.5" stroke-miterlimit="10" stroke-linecap="round" stroke-linejoin="round"/>
<path d="M60.6523 21.0195L67.9575 24.588" stroke="black" stroke-width="1.5" stroke-miterlimit="10" stroke-linecap="round" stroke-linejoin="round"/>
</g>
<defs>
<clipPath id="clip0_3769_3768">
<rect width="70" height="37" fill="white" transform="translate(0 0.0507812)"/>
</clipPath>
</defs>
</svg>
