<svg width="146" height="133" viewBox="0 0 146 133" fill="none" xmlns="http://www.w3.org/2000/svg">
<path id="Vector" fill-rule="evenodd" clip-rule="evenodd" d="M68.3143 0.174805C71.2692 0.174805 74.1577 1.05175 76.6146 2.69474C79.0715 4.33773 80.9864 6.67297 82.1172 9.40516C83.2479 12.1373 83.5438 15.1438 82.9673 18.0443C82.3909 20.9447 80.968 23.609 78.8785 25.7001C76.7891 27.7912 74.1271 29.2153 71.229 29.7923C68.3309 30.3692 65.3269 30.0731 62.597 28.9414C59.867 27.8097 57.5337 25.8932 55.8921 23.4343C54.2504 20.9754 53.3742 18.0845 53.3742 15.1272C53.3742 11.1616 54.9482 7.35838 57.7501 4.55426C60.5519 1.75015 64.352 0.174805 68.3143 0.174805ZM85.331 112.029C87.997 107.862 91.0277 103.94 94.3874 100.31L95.4834 99.155L57.0083 83.1634L67.1029 99.155C67.8949 100.413 68.2778 101.885 68.1989 103.369L67.1895 124.124C66.9665 125.936 66.0683 127.596 64.6745 128.774C63.2806 129.952 61.494 130.56 59.6718 130.476C57.8496 130.392 56.1262 129.622 54.8463 128.322C53.5664 127.021 52.8244 125.285 52.7685 123.46L53.6626 104.957L39.5301 82.5284L29.8681 124.268C29.6541 125.197 29.2594 126.074 28.7066 126.85C28.1538 127.626 27.4536 128.286 26.6461 128.791C25.8386 129.296 24.9396 129.637 24.0004 129.795C23.0612 129.952 22.1002 129.923 21.1722 129.709C20.2443 129.495 19.3676 129.1 18.5921 128.547C17.8167 127.993 17.1578 127.293 16.6529 126.485C16.1481 125.676 15.8072 124.777 15.6498 123.837C15.4924 122.897 15.5216 121.935 15.7356 121.006L27.4454 70.145L0.333984 58.0503L2.43944 46.5041L8.98655 49.3907L16.6585 35.8238C17.1847 34.8864 17.9136 34.0785 18.7919 33.4593C19.6701 32.84 20.6756 32.4249 21.7347 32.2445L43.2796 28.6074C44.7713 28.3594 46.3032 28.5813 47.6635 29.2425L74.025 40.4712C75.095 40.9194 76.04 41.6213 76.7787 42.5164C77.5173 43.4115 78.0273 44.473 78.2648 45.6093L86.1674 81.9799C86.2822 82.5501 86.3401 83.1302 86.3405 83.7118L103.848 90.3509L117.259 76.2934H117.49C130.497 73.1182 141.602 110.672 143.765 119.592L143.967 120.458C145.582 127.068 146.303 129.955 144.976 131.282C143.649 132.61 141.775 132.264 137.91 132.148C136.15 132.148 133.987 132.148 131.392 132.148C123.277 132.148 115.298 132.148 107.453 132.148C99.5789 132.148 91.907 131.773 84.3792 131.427C82.5045 131.427 80.9759 131.427 79.7645 131.427C77.486 131.427 76.217 131.427 75.6978 130.849C74.6018 129.579 82.9083 115.81 85.2157 112.26L85.331 112.029ZM40.3954 43.8773L32.6946 59.9266L22.4269 55.3658L27.6761 46.0422L40.3954 43.8773ZM59.4599 71.7615L65.6609 55.539L70.2179 76.5243L59.4599 71.7615Z" fill="#D3D3D3"/>
</svg>
