<svg width="20" height="31" viewBox="0 0 20 31" fill="none" xmlns="http://www.w3.org/2000/svg">
<path d="M8.24 22.38V21.66C8.24 20.54 8.45333 19.5533 8.88 18.7C9.30667 17.82 9.82667 17.02 10.44 16.3C11.08 15.5533 11.72 14.8333 12.36 14.14C13 13.42 13.5333 12.6733 13.96 11.9C14.3867 11.1267 14.6 10.26 14.6 9.3C14.6 7.94 14.2 6.92667 13.4 6.26C12.6 5.56667 11.5333 5.22 10.2 5.22C8.70667 5.22 7.53333 5.64667 6.68 6.5C5.82667 7.35333 5.4 8.46 5.4 9.82H0.52C0.52 8.06 0.92 6.51333 1.72 5.18C2.54667 3.84667 3.70667 2.82 5.2 2.1C6.69333 1.35333 8.44 0.979999 10.44 0.979999C13.5333 0.979999 15.8533 1.7 17.4 3.14C18.9733 4.58 19.76 6.47333 19.76 8.82C19.76 10.1 19.52 11.2467 19.04 12.26C18.5867 13.2467 18.0133 14.14 17.32 14.94C16.6267 15.74 15.92 16.5133 15.2 17.26C14.5067 17.98 13.92 18.7133 13.44 19.46C12.9867 20.2067 12.76 21.02 12.76 21.9V22.38H8.24ZM8.08 30.5V25.7H12.96V30.5H8.08Z" fill="black"/>
</svg>
