<svg width="40" height="41" viewBox="0 0 40 41" fill="none" xmlns="http://www.w3.org/2000/svg">
<mask id="mask0_10495_1374" style="mask-type:alpha" maskUnits="userSpaceOnUse" x="0" y="0" width="40" height="41">
<rect y="0.5" width="40" height="40" fill="#D9D9D9"/>
</mask>
<g mask="url(#mask0_10495_1374)">
<path d="M22.309 34.6668V33.0002H31.1298L22.309 24.1797V21.8206L32.309 31.8206V23.0002H33.9757V34.6668H22.309ZM11.0273 28.0002V26.3335H6.02734V24.6668H15.0015C15.2579 24.6668 15.4929 24.56 15.7065 24.3464C15.9204 24.1328 16.0273 23.8977 16.0273 23.641V19.026C16.0273 18.7693 15.9204 18.5342 15.7065 18.3206C15.4929 18.107 15.2579 18.0002 15.0015 18.0002H8.71943C7.95248 18.0002 7.31207 17.7432 6.79818 17.2293C6.28429 16.7154 6.02734 16.0749 6.02734 15.3077V10.6927C6.02734 9.92544 6.28429 9.28489 6.79818 8.771C7.31207 8.25711 7.95248 8.00016 8.71943 8.00016H11.0273V6.3335H12.694V8.00016H17.694V9.66683H8.71943C8.46304 9.66683 8.22804 9.77364 8.01443 9.98725C7.80082 10.2009 7.69401 10.436 7.69401 10.6927V15.3077C7.69401 15.5643 7.80082 15.7995 8.01443 16.0131C8.22804 16.2267 8.46304 16.3335 8.71943 16.3335H15.0015C15.7687 16.3335 16.4093 16.5904 16.9232 17.1043C17.4371 17.6182 17.694 18.2588 17.694 19.026V23.641C17.694 24.4082 17.4371 25.0488 16.9232 25.5627C16.4093 26.0766 15.7687 26.3335 15.0015 26.3335H12.694V28.0002H11.0273Z" fill="#1C1B1F"/>
</g>
</svg>
