<svg width="81" height="83" viewBox="0 0 81 83" fill="none" xmlns="http://www.w3.org/2000/svg">
<path d="M20.5214 58.9111L40.5003 47.2661L40.4346 70.2232L20.4561 81.8682L20.5214 58.9111Z" fill="white" stroke="black" stroke-width="0.5" stroke-linecap="round" stroke-linejoin="round"/>
<path d="M0.542969 47.3761L20.5219 35.7341L40.5004 47.2661L20.5219 58.9111L0.542969 47.3761Z" fill="white" stroke="black" stroke-width="0.5" stroke-linecap="round" stroke-linejoin="round"/>
<path d="M20.5219 58.9113L20.4562 81.8684L0.477539 70.3333L0.542977 47.3762L20.5219 58.9113Z" fill="white" stroke="black" stroke-width="0.5" stroke-linecap="round" stroke-linejoin="round"/>
<path d="M40.5986 24.312L60.5774 12.667L60.5121 35.6238L40.5332 47.266L40.5986 24.312Z" fill="white" stroke="black" stroke-width="0.5" stroke-linecap="round" stroke-linejoin="round"/>
<path d="M20.6201 12.777L40.5987 1.13184L60.5776 12.6668L40.5987 24.312L20.6201 12.777Z" fill="white" stroke="black" stroke-width="0.5" stroke-linecap="round" stroke-linejoin="round"/>
<path d="M40.5989 24.3122L40.5336 47.2662L20.5547 35.7342L20.62 12.7771L40.5989 24.3122Z" fill="white" stroke="black" stroke-width="0.5" stroke-linecap="round" stroke-linejoin="round"/>
<path d="M60.5448 58.9111L80.5237 47.2661L80.4584 70.2232L60.4795 81.8682L60.5448 58.9111Z" fill="white" stroke="black" stroke-width="0.5" stroke-linecap="round" stroke-linejoin="round"/>
<path d="M40.5664 47.3761L60.545 35.7341L80.5239 47.2661L60.545 58.9111L40.5664 47.3761Z" fill="white" stroke="black" stroke-width="0.5" stroke-linecap="round" stroke-linejoin="round"/>
<path d="M60.5442 58.9113L60.4789 81.8684L40.5 70.3333L40.5654 47.3762L60.5442 58.9113Z" fill="white" stroke="black" stroke-width="0.5" stroke-linecap="round" stroke-linejoin="round"/>
</svg>
