<svg width="43" height="44" viewBox="0 0 43 44" fill="none" xmlns="http://www.w3.org/2000/svg">
<path d="M22.0056 1H5.15925C2.83816 1 0.956543 2.88162 0.956543 5.20271V38.373C0.956543 40.6941 2.83816 42.5757 5.15925 42.5757H22.0056C24.3267 42.5757 26.2083 40.6941 26.2083 38.373V5.20271C26.2083 2.88162 24.3267 1 22.0056 1Z" stroke="black" stroke-width="1.5" stroke-miterlimit="10"/>
<path d="M10.6365 36.9453H16.5296" stroke="black" stroke-width="1.5" stroke-miterlimit="10" stroke-linecap="round"/>
<path d="M11.0891 21.1784C11.0958 22.2622 11.9797 23.1355 13.0636 23.1289L14.1353 23.1223C15.2197 23.1156 16.0931 22.2308 16.0858 21.1464L16.0857 21.135C16.0815 20.5176 15.787 19.9381 15.2906 19.5708L11.8757 17.0436C11.3756 16.6735 11.0806 16.0882 11.0806 15.4661C11.0806 14.3821 11.9593 13.5035 13.0432 13.5035H14.1164C15.2004 13.5035 16.079 14.3821 16.079 15.4661" stroke="black" stroke-width="1.5" stroke-miterlimit="10" stroke-linecap="round" stroke-linejoin="round"/>
<path d="M13.5845 13.5V11.43" stroke="black" stroke-width="1.5" stroke-miterlimit="10" stroke-linecap="round" stroke-linejoin="round"/>
<path d="M13.5845 25.1953V23.1253" stroke="black" stroke-width="1.5" stroke-miterlimit="10" stroke-linecap="round" stroke-linejoin="round"/>
<path d="M32.5835 24.1523C33.3579 23.3779 33.8368 22.3086 33.8368 21.127C33.8368 19.9455 33.3579 18.8762 32.5835 18.1017" stroke="black" stroke-width="1.5" stroke-miterlimit="10" stroke-linecap="round" stroke-linejoin="round"/>
<path d="M35.4546 27.0234C36.9628 25.5145 37.8962 23.4307 37.8962 21.1284C37.8962 18.8261 36.9628 16.7423 35.4546 15.2333" stroke="black" stroke-width="1.5" stroke-miterlimit="10" stroke-linecap="round" stroke-linejoin="round"/>
<path d="M38.3218 29.8906C40.5652 27.6479 41.9524 24.5488 41.9524 21.1265C41.9524 17.7042 40.5652 14.6052 38.3218 12.3624" stroke="black" stroke-width="1.5" stroke-miterlimit="10" stroke-linecap="round" stroke-linejoin="round"/>
</svg>
