<svg width="41" height="40" viewBox="0 0 41 40" fill="none" xmlns="http://www.w3.org/2000/svg">
<mask id="mask0_38653_578" style="mask-type:alpha" maskUnits="userSpaceOnUse" x="0" y="0" width="41" height="40">
<rect x="0.5" width="40" height="40" fill="#D9D9D9"/>
</mask>
<g mask="url(#mask0_38653_578)">
<path d="M14.882 33.3337C12.7389 33.3337 10.9168 32.5831 9.41573 31.082C7.91462 29.5809 7.16406 27.7588 7.16406 25.6157C7.16406 24.7096 7.31795 23.8314 7.62573 22.9812C7.93323 22.1306 8.37767 21.356 8.95906 20.6574L14.8116 13.6287L11.3466 6.66699H29.6482L26.1832 13.6287L32.0357 20.6574C32.6171 21.356 33.0616 22.1306 33.3691 22.9812C33.6768 23.8314 33.8307 24.7096 33.8307 25.6157C33.8307 27.7588 33.0786 29.5809 31.5745 31.082C30.07 32.5831 28.2495 33.3337 26.1128 33.3337H14.882ZM20.4974 25.8016C19.7516 25.8016 19.1164 25.5394 18.592 25.0149C18.0673 24.4902 17.8049 23.855 17.8049 23.1095C17.8049 22.3637 18.0673 21.7284 18.592 21.2037C19.1164 20.6792 19.7516 20.417 20.4974 20.417C21.2432 20.417 21.8784 20.6792 22.4028 21.2037C22.9275 21.7284 23.1899 22.3637 23.1899 23.1095C23.1899 23.855 22.9275 24.4902 22.4028 25.0149C21.8784 25.5394 21.2432 25.8016 20.4974 25.8016ZM16.3466 12.917H24.6799L26.9557 8.33366H14.0391L16.3466 12.917ZM14.882 31.667H26.1128C27.8031 31.667 29.2342 31.0756 30.4061 29.8928C31.5781 28.7103 32.1641 27.2846 32.1641 25.6157C32.1641 24.9063 32.046 24.2177 31.8099 23.5499C31.5738 22.8821 31.226 22.277 30.7666 21.7345L24.802 14.5837H16.2345L10.2603 21.7245C9.80087 22.2673 9.44767 22.8742 9.20073 23.5453C8.95406 24.2162 8.83073 24.9063 8.83073 25.6157C8.83073 27.2846 9.42212 28.7103 10.6049 29.8928C11.7874 31.0756 13.2131 31.667 14.882 31.667Z" fill="#F6A051"/>
</g>
</svg>
