<svg width="40" height="41" viewBox="0 0 40 41" fill="none" xmlns="http://www.w3.org/2000/svg">
<mask id="mask0_10495_1350" style="mask-type:alpha" maskUnits="userSpaceOnUse" x="0" y="0" width="40" height="41">
<rect y="0.5" width="40" height="40" fill="#D9D9D9"/>
</mask>
<g mask="url(#mask0_10495_1350)">
<path d="M19.1408 31.5258H20.7758V29.5704C21.9722 29.4701 23.1185 29.0407 24.2146 28.2821C25.311 27.5235 25.8592 26.3461 25.8592 24.75C25.8592 23.5833 25.5044 22.5886 24.795 21.7658C24.0856 20.9433 22.7308 20.171 20.7308 19.4488C18.8931 18.8076 17.7189 18.2574 17.2083 17.7979C16.6978 17.3388 16.4425 16.6839 16.4425 15.8333C16.4425 14.9828 16.7742 14.2744 17.4375 13.7083C18.1008 13.1422 18.9828 12.8592 20.0833 12.8592C20.9294 12.8592 21.6346 13.0531 22.1988 13.4408C22.7629 13.8286 23.2201 14.3206 23.5704 14.9167L25.0192 14.3463C24.6281 13.5449 24.0549 12.8739 23.2996 12.3333C22.5443 11.7928 21.7308 11.4915 20.8592 11.4296V9.47417H19.2242V11.4296C17.7714 11.671 16.6721 12.2126 15.9263 13.0546C15.1804 13.8965 14.8075 14.8228 14.8075 15.8333C14.8075 17.0319 15.1842 17.9914 15.9375 18.7117C16.6908 19.4317 17.9617 20.1154 19.75 20.7629C21.5428 21.4232 22.7474 22.0193 23.3637 22.5513C23.9801 23.0832 24.2883 23.8161 24.2883 24.75C24.2883 25.9231 23.8606 26.7676 23.005 27.2838C22.1492 27.7996 21.2308 28.0575 20.25 28.0575C19.2906 28.0575 18.4246 27.7782 17.6521 27.2196C16.8799 26.6607 16.2629 25.8653 15.8013 24.8333L14.3333 25.4679C14.8078 26.609 15.444 27.4985 16.2421 28.1363C17.0401 28.774 18.0064 29.2243 19.1408 29.4871V31.5258ZM20 35.5C17.9294 35.5 15.9818 35.1053 14.1571 34.3158C12.3324 33.5261 10.7447 32.4561 9.39417 31.1058C8.04389 29.7553 6.97389 28.1676 6.18417 26.3429C5.39472 24.5182 5 22.5706 5 20.5C5 18.4294 5.39472 16.4818 6.18417 14.6571C6.97389 12.8324 8.04389 11.2447 9.39417 9.89417C10.7447 8.54389 12.3324 7.47389 14.1571 6.68417C15.9818 5.89472 17.9294 5.5 20 5.5C22.0706 5.5 24.0182 5.89472 25.8429 6.68417C27.6676 7.47389 29.2553 8.54389 30.6058 9.89417C31.9561 11.2447 33.0261 12.8324 33.8158 14.6571C34.6053 16.4818 35 18.4294 35 20.5C35 22.5706 34.6053 24.5182 33.8158 26.3429C33.0261 28.1676 31.9561 29.7553 30.6058 31.1058C29.2553 32.4561 27.6676 33.5261 25.8429 34.3158C24.0182 35.1053 22.0706 35.5 20 35.5ZM20 33.8333C23.7222 33.8333 26.875 32.5417 29.4583 29.9583C32.0417 27.375 33.3333 24.2222 33.3333 20.5C33.3333 16.7778 32.0417 13.625 29.4583 11.0417C26.875 8.45833 23.7222 7.16667 20 7.16667C16.2778 7.16667 13.125 8.45833 10.5417 11.0417C7.95833 13.625 6.66667 16.7778 6.66667 20.5C6.66667 24.2222 7.95833 27.375 10.5417 29.9583C13.125 32.5417 16.2778 33.8333 20 33.8333Z" fill="#1C1B1F"/>
</g>
</svg>
