<svg width="80" height="80" viewBox="0 0 80 80" fill="none" xmlns="http://www.w3.org/2000/svg">
<g clip-path="url(#clip0_3363_2246)">
<path d="M63.92 58.1507L4.83567 77.894C4.36621 78.0512 3.86222 78.0743 3.38031 77.9609C2.8984 77.8475 2.45766 77.602 2.10759 77.2519C1.75752 76.9018 1.51198 76.4611 1.39857 75.9792C1.28515 75.4973 1.30834 74.9933 1.46554 74.5238L21.2088 15.4395L63.92 58.1507Z" fill="#FDC70E"/>
<path d="M63.92 58.1541C63.92 58.1541 55.2182 56.1834 39.2075 40.1567C23.6213 24.5851 21.3199 15.8992 21.2101 15.4456V15.4297C21.2101 15.4297 29.9277 17.4018 45.9438 33.4178C61.9598 49.4339 63.92 58.1541 63.92 58.1541Z" fill="#D39518"/>
<path d="M25.7389 70.9082L16.9829 73.8313C15.1444 72.1912 13.1869 70.3527 11.0971 68.2629C9.00727 66.1731 7.16878 64.2156 5.52869 62.3771L8.45176 53.6211C10.6738 56.3061 13.3853 59.3085 16.7184 62.6416C20.0515 65.9747 23.0539 68.6861 25.7389 70.9082Z" fill="#2167D8"/>
<path d="M49.5731 62.9441L40.169 66.0788C34.997 62.3638 30.1597 58.2036 25.7124 53.6459C21.1546 49.1986 16.9945 44.3613 13.2794 39.1892L16.4141 29.7852C20.6388 36.4406 25.6479 42.5643 31.3337 48.0246C36.794 53.7104 42.9177 58.7195 49.5731 62.9441Z" fill="#D3374E"/>
<path d="M33.7714 26.9897C33.5098 26.9897 33.2541 26.9121 33.0367 26.7668C32.8192 26.6214 32.6497 26.4149 32.5496 26.1732C32.4496 25.9316 32.4234 25.6657 32.4744 25.4091C32.5254 25.1526 32.6513 24.917 32.8362 24.732C35.4219 22.2923 37.1297 19.0671 37.6941 15.5572C38.2585 12.0474 37.6481 8.44932 35.9577 5.32199C35.8564 5.17296 35.7866 5.0048 35.7527 4.82783C35.7187 4.65087 35.7213 4.46883 35.7602 4.29289C35.7991 4.11694 35.8735 3.9508 35.979 3.80467C36.0844 3.65853 36.2186 3.53548 36.3733 3.44306C36.528 3.35065 36.6999 3.29081 36.8785 3.26723C37.0572 3.24365 37.2388 3.25683 37.4121 3.30594C37.5855 3.35506 37.747 3.43909 37.8868 3.55286C38.0265 3.66664 38.1415 3.80777 38.2247 3.96759C40.208 7.60362 40.9381 11.7918 40.3021 15.8844C39.6662 19.977 37.6996 23.7461 34.7065 26.6088C34.5834 26.7309 34.4375 26.8274 34.277 26.8927C34.1165 26.9581 33.9446 26.9911 33.7714 26.9897Z" fill="#2167D8"/>
<path d="M31.5586 13.7099C31.2078 13.7099 30.8715 13.5705 30.6235 13.3224L28.4094 11.1096C28.2866 10.9867 28.1892 10.8408 28.1227 10.6803C28.0563 10.5198 28.0222 10.3477 28.0222 10.174C28.0223 10.0003 28.0566 9.82827 28.1231 9.66779C28.1896 9.50731 28.2871 9.36151 28.41 9.23871C28.6582 8.9907 28.9947 8.85144 29.3456 8.85156C29.5193 8.85162 29.6914 8.8859 29.8518 8.95244C30.0123 9.01898 30.1581 9.11648 30.2809 9.23937L32.4937 11.4522C32.6786 11.6371 32.8046 11.8728 32.8556 12.1293C32.9066 12.3859 32.8804 12.6518 32.7803 12.8934C32.6802 13.1351 32.5107 13.3416 32.2933 13.4869C32.0758 13.6323 31.8202 13.7099 31.5586 13.7099Z" fill="#23AF6F"/>
<path d="M47.0508 11.4987C46.7 11.4987 46.3636 11.3594 46.1155 11.1113C45.8675 10.8633 45.7281 10.5269 45.7281 10.1761V7.96328C45.7281 7.61249 45.8675 7.27607 46.1155 7.02802C46.3636 6.77998 46.7 6.64062 47.0508 6.64062C47.4016 6.64062 47.738 6.77998 47.9861 7.02802C48.2341 7.27607 48.3735 7.61249 48.3735 7.96328V10.1761C48.3735 10.5269 48.2341 10.8633 47.9861 11.1113C47.738 11.3594 47.4016 11.4987 47.0508 11.4987Z" fill="#D3374E"/>
<path d="M49.2649 20.3523H47.0508C46.7 20.3523 46.3636 20.213 46.1155 19.9649C45.8675 19.7169 45.7281 19.3805 45.7281 19.0297C45.7281 18.6789 45.8675 18.3425 46.1155 18.0944C46.3636 17.8464 46.7 17.707 47.0508 17.707H49.2649C49.6157 17.707 49.9521 17.8464 50.2002 18.0944C50.4482 18.3425 50.5876 18.6789 50.5876 19.0297C50.5876 19.3805 50.4482 19.7169 50.2002 19.9649C49.9521 20.213 49.6157 20.3523 49.2649 20.3523Z" fill="#23AF6F"/>
<path d="M53.6905 46.9111C53.429 46.911 53.1733 46.8334 52.9559 46.6881C52.7384 46.5427 52.5689 46.3362 52.4688 46.0945C52.3687 45.8529 52.3426 45.587 52.3936 45.3304C52.4446 45.0739 52.5705 44.8383 52.7554 44.6533C55.6184 41.6601 59.3877 39.6934 63.4805 39.0575C67.5734 38.4215 71.7618 39.1517 75.398 41.135C75.6869 41.3208 75.8923 41.6117 75.9705 41.9461C76.0488 42.2806 75.9939 42.6324 75.8175 42.9271C75.641 43.2218 75.3568 43.4363 75.025 43.5252C74.6931 43.6141 74.3398 43.5704 74.0396 43.4034C70.9197 41.6816 67.3134 41.0533 63.7951 41.6188C60.2768 42.1842 57.0489 43.9108 54.6257 46.5235C54.3777 46.7716 54.0413 46.911 53.6905 46.9111Z" fill="#2167D8"/>
<path d="M69.1842 51.336C68.8337 51.3363 68.4973 51.1974 68.2491 50.9498L66.035 48.7357C65.794 48.4862 65.6607 48.1521 65.6637 47.8053C65.6668 47.4585 65.8059 47.1268 66.0511 46.8815C66.2963 46.6363 66.6281 46.4972 66.9749 46.4942C67.3217 46.4912 67.6558 46.6245 67.9052 46.8654L70.1193 49.0782C70.3043 49.2632 70.4302 49.4989 70.4812 49.7554C70.5322 50.0119 70.506 50.2778 70.4059 50.5195C70.3059 50.7611 70.1364 50.9677 69.9189 51.113C69.7014 51.2583 69.4458 51.336 69.1842 51.336Z" fill="#23AF6F"/>
<path d="M71.3957 33.6316H69.1842C68.8334 33.6316 68.497 33.4923 68.249 33.2442C68.0009 32.9962 67.8616 32.6598 67.8616 32.309C67.8616 31.9582 68.0009 31.6218 68.249 31.3737C68.497 31.1257 68.8334 30.9863 69.1842 30.9863H71.3957C71.7465 30.9863 72.0829 31.1257 72.331 31.3737C72.579 31.6218 72.7184 31.9582 72.7184 32.309C72.7184 32.6598 72.579 32.9962 72.331 33.2442C72.0829 33.4923 71.7465 33.6316 71.3957 33.6316Z" fill="#D3374E"/>
<path d="M60.3303 33.6309C59.9796 33.6309 59.6431 33.4916 59.3951 33.2435C59.147 32.9955 59.0077 32.6591 59.0077 32.3083V30.0941C59.0077 29.7434 59.147 29.4069 59.3951 29.1589C59.6431 28.9108 59.9796 28.7715 60.3303 28.7715C60.6811 28.7715 61.0176 28.9108 61.2656 29.1589C61.5137 29.4069 61.653 29.7434 61.653 30.0941V32.3083C61.653 32.6591 61.5137 32.9955 61.2656 33.2435C61.0176 33.4916 60.6811 33.6309 60.3303 33.6309Z" fill="#D3374E"/>
<path d="M49.265 29.2041C49.0034 29.2041 48.7478 29.1265 48.5303 28.9811C48.3129 28.8358 48.1434 28.6292 48.0433 28.3876C47.9432 28.1459 47.917 27.88 47.968 27.6235C48.019 27.367 48.145 27.1313 48.3299 26.9464C48.8885 26.4043 49.5582 25.9902 50.2926 25.7326C51.0271 25.475 51.8088 25.38 52.5835 25.4544H52.6126C53.0336 25.5236 53.4648 25.495 53.8728 25.3706C54.2809 25.2463 54.6548 25.0297 54.9656 24.7375C55.2603 24.4226 55.4782 24.0439 55.6025 23.631C55.7269 23.218 55.7543 22.782 55.6825 22.3567C55.597 21.5809 55.6869 20.7958 55.9455 20.0594C56.2042 19.3229 56.6249 18.654 57.1767 18.1019C57.7285 17.5499 58.3972 17.1289 59.1335 16.8699C59.8698 16.611 60.6549 16.5207 61.4308 16.6058C61.8582 16.6918 62.3002 16.6707 62.7175 16.5446C63.1348 16.4185 63.5145 16.1912 63.8228 15.8829C64.131 15.5747 64.3583 15.195 64.4844 14.7777C64.6106 14.3604 64.6316 13.9184 64.5456 13.491C64.472 12.7155 64.5676 11.9333 64.8258 11.1984C65.0841 10.4635 65.4989 9.79351 66.0416 9.23467C66.1633 9.10585 66.3096 9.0028 66.4719 8.93164C66.6342 8.86048 66.8091 8.82265 66.9863 8.82042C67.1635 8.81818 67.3394 8.85158 67.5034 8.91862C67.6675 8.98566 67.8164 9.08499 67.9413 9.21069C68.0662 9.3364 68.1646 9.48592 68.2305 9.65039C68.2965 9.81485 68.3288 9.9909 68.3255 10.1681C68.3221 10.3453 68.2832 10.52 68.211 10.6818C68.1388 10.8436 68.0348 10.9893 67.9052 11.1102C67.6107 11.4253 67.3925 11.8038 67.2675 12.2166C67.1425 12.6294 67.1141 13.0654 67.1843 13.491C67.2696 14.2672 67.1795 15.0526 66.9206 15.7893C66.6617 16.526 66.2406 17.1951 65.6884 17.7473C65.1363 18.2994 64.4671 18.7205 63.7304 18.9794C62.9938 19.2384 62.2083 19.3285 61.4321 19.2432C61.0057 19.1575 60.5647 19.1785 60.1485 19.3046C59.7322 19.4306 59.3536 19.6577 59.0464 19.9655C58.7392 20.2734 58.5129 20.6525 58.3878 21.069C58.2626 21.4855 58.2425 21.9266 58.3292 22.3528C58.4041 23.1276 58.3095 23.9094 58.0519 24.644C57.7942 25.3786 57.3797 26.0482 56.8372 26.6064C56.2764 27.1453 55.6064 27.5573 54.8725 27.8147C54.1387 28.0721 53.358 28.1689 52.5835 28.0984H52.5531C52.1324 28.0288 51.7013 28.0572 51.2934 28.1816C50.8855 28.3059 50.5118 28.5228 50.2014 28.8153C50.0786 28.9385 49.9327 29.0363 49.772 29.103C49.6113 29.1697 49.439 29.2041 49.265 29.2041Z" fill="#FDC70E"/>
<path d="M53.6919 13.7118C53.4745 13.7119 53.2605 13.6584 53.0687 13.5561C52.877 13.4538 52.7134 13.3058 52.5924 13.1252C52.4714 12.9446 52.3968 12.737 52.3752 12.5207C52.3536 12.3045 52.3856 12.0862 52.4684 11.8852C53.1709 10.3241 53.5388 8.63314 53.5484 6.92123C53.558 5.20932 53.209 3.51437 52.524 1.94547C52.3584 1.63607 52.3225 1.27357 52.4242 0.937717C52.5259 0.601863 52.7569 0.320164 53.0663 0.154591C53.3757 -0.0109824 53.7382 -0.0468665 54.074 0.0548324C54.4099 0.156531 54.6916 0.387483 54.8571 0.69688C55.7258 2.61088 56.18 4.68689 56.19 6.78876C56.2001 8.89064 55.7657 10.9709 54.9153 12.8931C54.8155 13.1354 54.6459 13.3426 54.428 13.4884C54.2102 13.6342 53.954 13.7119 53.6919 13.7118Z" fill="#D3374E"/>
<path d="M66.97 26.9904C66.6636 26.9907 66.3665 26.8846 66.1296 26.6902C65.8927 26.4958 65.7307 26.2252 65.6712 25.9245C65.6117 25.6239 65.6584 25.312 65.8034 25.042C65.9484 24.772 66.1826 24.5607 66.4661 24.4443C68.3883 23.593 70.4689 23.1581 72.5711 23.1681C74.6733 23.1782 76.7496 23.6329 78.6636 24.5025C78.973 24.6681 79.204 24.9498 79.3057 25.2856C79.4074 25.6215 79.3715 25.984 79.2059 26.2934C79.0403 26.6028 78.7586 26.8337 78.4228 26.9354C78.0869 27.0371 77.7244 27.0012 77.415 26.8356C75.8461 26.15 74.1508 25.8008 72.4386 25.8103C70.7264 25.8199 69.0352 26.1881 67.474 26.8912C67.314 26.9567 67.1428 26.9904 66.97 26.9904Z" fill="#D3374E"/>
</g>
<defs>
<clipPath id="clip0_3363_2246">
<rect width="79.3594" height="79.3594" fill="white"/>
</clipPath>
</defs>
</svg>
