<svg width="215" height="215" viewBox="0 0 215 215" fill="none" xmlns="http://www.w3.org/2000/svg">
<mask id="mask0_105_21" style="mask-type:luminance" maskUnits="userSpaceOnUse" x="0" y="0" width="215" height="215">
<path d="M107.346 214.468C166.507 214.468 214.467 166.508 214.467 107.347C214.467 48.1862 166.507 0.226746 107.346 0.226746C48.1855 0.226746 0.226074 48.1862 0.226074 107.347C0.226074 166.508 48.1855 214.468 107.346 214.468Z" fill="white"/>
</mask>
<g mask="url(#mask0_105_21)">
<path d="M224.61 -9.91656H-9.91699V224.61H224.61V-9.91656Z" fill="url(#paint0_linear_105_21)"/>
</g>
<path d="M138.327 130.463L168.633 112.963C170.239 112.036 171.231 110.312 171.231 108.458V73.4626C171.231 71.6124 170.234 69.8848 168.633 68.9575L138.327 51.4577C136.722 50.5304 134.731 50.5348 133.126 51.4577L102.82 68.9575C101.214 69.8848 100.222 71.6124 100.222 73.4626V136.005L78.969 148.273L57.7164 136.005V111.463L78.969 99.1941L92.9872 107.286V90.8225L81.5671 84.2311C80.7798 83.7762 79.8787 83.5356 78.9646 83.5356C78.0505 83.5356 77.1495 83.7762 76.3665 84.2311L46.06 101.731C44.4548 102.658 43.4619 104.381 43.4619 106.236V141.231C43.4619 143.081 44.4592 144.809 46.06 145.736L76.3665 163.236C77.9674 164.159 79.9618 164.159 81.5671 163.236L111.874 145.741C113.479 144.814 114.472 143.086 114.472 141.236V78.6937L114.857 78.4751L135.724 66.425L156.977 78.6937V103.236L135.724 115.504L121.728 107.421V123.885L133.126 130.467C134.731 131.39 136.722 131.39 138.327 130.467V130.463Z" fill="white"/>
<defs>
<linearGradient id="paint0_linear_105_21" x1="-52.7765" y1="9.35907" x2="189.335" y2="157.519" gradientUnits="userSpaceOnUse">
<stop stop-color="#A229C5"/>
<stop offset="1" stop-color="#7B3FE4"/>
</linearGradient>
</defs>
</svg>
