<svg width="19" height="20" viewBox="0 0 19 20" fill="none" xmlns="http://www.w3.org/2000/svg">
<path d="M6.698 6.87369C6.61424 6.7898 6.50397 6.73757 6.38599 6.72588C6.26802 6.7142 6.14966 6.74379 6.05106 6.80962C5.95247 6.87545 5.87976 6.97343 5.84533 7.08687C5.8109 7.20031 5.81687 7.32217 5.86223 7.4317C5.9076 7.54122 5.98955 7.63162 6.09411 7.68748C6.19867 7.74335 6.31937 7.76122 6.43563 7.73805C6.5519 7.71488 6.65652 7.6521 6.73168 7.56042C6.80683 7.46874 6.84787 7.35384 6.84778 7.23529C6.8473 7.09976 6.7935 6.96986 6.698 6.87369Z" fill="white"/>
<path d="M8.38264 4.67578H4.29068C4.15505 4.67578 4.02498 4.72966 3.92908 4.82556C3.83317 4.92147 3.7793 5.05154 3.7793 5.18717V9.27913C3.7793 9.41475 3.83317 9.54483 3.92908 9.64073C4.02498 9.73663 4.15505 9.79051 4.29068 9.79051H8.38264C8.51827 9.79051 8.64834 9.73663 8.74424 9.64073C8.84015 9.54483 8.89403 9.41475 8.89403 9.27913V5.18717C8.89403 5.05154 8.84015 4.92147 8.74424 4.82556C8.64834 4.72966 8.51827 4.67578 8.38264 4.67578V4.67578ZM7.87126 8.76774H4.80207V5.69855H7.87126V8.76774Z" fill="white"/>
<path d="M12.8369 6.87317C12.7532 6.78951 12.6431 6.73745 12.5254 6.72585C12.4076 6.71426 12.2895 6.74384 12.1911 6.80957C12.0928 6.8753 12.0202 6.97311 11.9859 7.08633C11.9515 7.19955 11.9575 7.32117 12.0028 7.43047C12.0481 7.53978 12.1299 7.63 12.2342 7.68578C12.3385 7.74155 12.459 7.75942 12.575 7.73633C12.6911 7.71325 12.7955 7.65064 12.8706 7.55919C12.9456 7.46773 12.9866 7.35308 12.9866 7.23477C12.9864 7.0992 12.9325 6.96924 12.8369 6.87317Z" fill="white"/>
<path d="M14.5213 4.67603H10.4293C10.2937 4.67603 10.1637 4.7299 10.0678 4.82581C9.97185 4.92171 9.91797 5.05178 9.91797 5.18741V9.27937C9.91797 9.415 9.97185 9.54507 10.0678 9.64097C10.1637 9.73688 10.2937 9.79075 10.4293 9.79075H14.5213C14.6569 9.79075 14.787 9.73688 14.8829 9.64097C14.9788 9.54507 15.0327 9.415 15.0327 9.27937V5.18741C15.0327 5.05178 14.9788 4.92171 14.8829 4.82581C14.787 4.7299 14.6569 4.67603 14.5213 4.67603V4.67603ZM14.0099 8.76799H10.9407V5.69879H14.0099V8.76799Z" fill="white"/>
<path d="M6.698 13.0087C6.61424 12.9248 6.50397 12.8726 6.38599 12.8609C6.26802 12.8492 6.14966 12.8788 6.05106 12.9446C5.95247 13.0105 5.87976 13.1084 5.84533 13.2219C5.8109 13.3353 5.81687 13.4572 5.86223 13.5667C5.9076 13.6762 5.98955 13.7666 6.09411 13.8225C6.19867 13.8783 6.31937 13.8962 6.43563 13.8731C6.5519 13.8499 6.65652 13.7871 6.73168 13.6954C6.80683 13.6038 6.84787 13.4888 6.84778 13.3703C6.8473 13.2348 6.7935 13.1049 6.698 13.0087Z" fill="white"/>
<path d="M8.38362 10.8142H4.29166C4.15603 10.8142 4.02596 10.8681 3.93005 10.964C3.83415 11.0599 3.78027 11.19 3.78027 11.3256V15.4176C3.78027 15.5532 3.83415 15.6832 3.93005 15.7791C4.02596 15.8751 4.15603 15.9289 4.29166 15.9289H8.38362C8.51925 15.9289 8.64932 15.8751 8.74522 15.7791C8.84112 15.6832 8.895 15.5532 8.895 15.4176V11.3256C8.895 11.19 8.84112 11.0599 8.74522 10.964C8.64932 10.8681 8.51925 10.8142 8.38362 10.8142ZM7.87223 14.9062H4.80304V11.837H7.87223V14.9062Z" fill="white"/>
<path d="M12.8155 12.8594H12.4743C12.3386 12.8594 12.2086 12.9132 12.1127 13.0091C12.0168 13.105 11.9629 13.2351 11.9629 13.3708C11.9629 13.5064 12.0168 13.6364 12.1127 13.7323C12.2086 13.8283 12.3386 13.8821 12.4743 13.8821H12.8155C12.9511 13.8821 13.0812 13.8283 13.1771 13.7323C13.273 13.6364 13.3269 13.5064 13.3269 13.3708C13.3269 13.2351 13.273 13.105 13.1771 13.0091C13.0812 12.9132 12.9511 12.8594 12.8155 12.8594Z" fill="white"/>
<path d="M14.5203 13.8826C14.3847 13.8826 14.2546 13.9365 14.1587 14.0324C14.0628 14.1283 14.0089 14.2583 14.0089 14.3939V14.9053H12.8151C12.6795 14.9053 12.5494 14.9592 12.4535 15.0551C12.3576 15.151 12.3037 15.2811 12.3037 15.4167C12.3037 15.5524 12.3576 15.6824 12.4535 15.7783C12.5494 15.8742 12.6795 15.9281 12.8151 15.9281H14.5203C14.6559 15.9281 14.786 15.8742 14.8819 15.7783C14.9778 15.6824 15.0317 15.5524 15.0317 15.4167V14.3939C15.0317 14.2583 14.9778 14.1283 14.8819 14.0324C14.786 13.9365 14.6559 13.8826 14.5203 13.8826Z" fill="white"/>
<path d="M10.4293 12.8594C10.2937 12.8594 10.1637 12.9132 10.0678 13.0091C9.97185 13.105 9.91797 13.2351 9.91797 13.3708V14.0523C9.91797 14.1879 9.97185 14.318 10.0678 14.4139C10.1637 14.5098 10.2937 14.5637 10.4293 14.5637C10.565 14.5637 10.695 14.5098 10.7909 14.4139C10.8868 14.318 10.9407 14.1879 10.9407 14.0523V13.3708C10.9407 13.2351 10.8868 13.105 10.7909 13.0091C10.695 12.9132 10.565 12.8594 10.4293 12.8594Z" fill="white"/>
<path d="M12.8154 10.8142H11.7926C11.657 10.8142 11.5269 10.8681 11.431 10.964C11.3351 11.0599 11.2812 11.19 11.2812 11.3256C11.2812 11.4612 11.3351 11.5913 11.431 11.6872C11.5269 11.7831 11.657 11.837 11.7926 11.837H12.8154C12.951 11.837 13.0811 11.7831 13.177 11.6872C13.2729 11.5913 13.3268 11.4612 13.3268 11.3256C13.3268 11.19 13.2729 11.0599 13.177 10.964C13.0811 10.8681 12.951 10.8142 12.8154 10.8142Z" fill="white"/>
<path d="M1.37207 7.40524V4.72778" stroke="white" stroke-width="2" stroke-linecap="round" stroke-linejoin="round"/>
<path d="M1.37207 4.72615C1.37207 3.99089 1.66415 3.28574 2.18405 2.76584C2.70396 2.24594 3.40909 1.95386 4.14435 1.95386H6.94768" fill="white"/>
<path d="M1.37207 4.72615C1.37207 3.99089 1.66415 3.28574 2.18405 2.76584C2.70396 2.24594 3.40909 1.95386 4.14435 1.95386H6.94768" stroke="white" stroke-width="2" stroke-linecap="round" stroke-linejoin="round"/>
<path d="M17.5957 13.0208V15.6982" stroke="white" stroke-width="2" stroke-linecap="round" stroke-linejoin="round"/>
<path d="M17.5957 15.6999C17.5957 16.4351 17.3036 17.1403 16.7837 17.6602C16.2638 18.1801 15.5587 18.4722 14.8234 18.4722H12.0201" fill="white"/>
<path d="M17.5957 15.6999C17.5957 16.4351 17.3036 17.1403 16.7837 17.6602C16.2638 18.1801 15.5587 18.4722 14.8234 18.4722H12.0201" stroke="white" stroke-width="2" stroke-linecap="round" stroke-linejoin="round"/>
<path d="M12.1458 1.88745L14.8232 1.88745" stroke="white" stroke-width="2" stroke-linecap="round" stroke-linejoin="round"/>
<path d="M14.8234 1.88745C15.5587 1.88745 16.2638 2.17953 16.7837 2.69944C17.3036 3.21934 17.5957 3.92448 17.5957 4.65974V7.46305" fill="white"/>
<path d="M14.8234 1.88745C15.5587 1.88745 16.2638 2.17953 16.7837 2.69944C17.3036 3.21934 17.5957 3.92448 17.5957 4.65974V7.46305" stroke="white" stroke-width="2" stroke-linecap="round" stroke-linejoin="round"/>
<path d="M6.82199 18.5349H4.14453" stroke="white" stroke-width="2" stroke-linecap="round" stroke-linejoin="round"/>
<path d="M4.14533 18.5349C3.41008 18.5349 2.70494 18.2428 2.18503 17.7229C1.66513 17.203 1.37305 16.4979 1.37305 15.7626L1.37305 12.9593" fill="white"/>
<path d="M4.14533 18.5349C3.41008 18.5349 2.70494 18.2428 2.18503 17.7229C1.66513 17.203 1.37305 16.4979 1.37305 15.7626L1.37305 12.9593" stroke="white" stroke-width="2" stroke-linecap="round" stroke-linejoin="round"/>
</svg>
