<svg width="19" height="19" viewBox="0 0 19 19" fill="none" xmlns="http://www.w3.org/2000/svg">
<path d="M6.63526 6.12882C6.55149 6.04493 6.44122 5.99269 6.32325 5.98101C6.20528 5.96933 6.08691 5.99892 5.98832 6.06475C5.88973 6.13057 5.81702 6.22856 5.78258 6.34199C5.74815 6.45543 5.75412 6.5773 5.79949 6.68683C5.84486 6.79635 5.9268 6.88675 6.03136 6.94261C6.13592 6.99847 6.25663 7.01634 6.37289 6.99318C6.48915 6.97001 6.59378 6.90723 6.66893 6.81555C6.74409 6.72387 6.78513 6.60896 6.78504 6.49042C6.78456 6.35489 6.73075 6.22499 6.63526 6.12882Z" fill="#666666"/>
<path d="M8.31965 3.93164H4.22769C4.09207 3.93164 3.96199 3.98552 3.86609 4.08142C3.77019 4.17732 3.71631 4.3074 3.71631 4.44302V8.53498C3.71631 8.67061 3.77019 8.80068 3.86609 8.89659C3.96199 8.99249 4.09207 9.04637 4.22769 9.04637H8.31965C8.45528 9.04637 8.58535 8.99249 8.68126 8.89659C8.77716 8.80068 8.83104 8.67061 8.83104 8.53498V4.44302C8.83104 4.3074 8.77716 4.17732 8.68126 4.08142C8.58535 3.98552 8.45528 3.93164 8.31965 3.93164V3.93164ZM7.80827 8.0236H4.73908V4.95441H7.80827V8.0236Z" fill="#666666"/>
<path d="M12.7744 6.1283C12.6907 6.04464 12.5806 5.99258 12.4629 5.98098C12.3451 5.96938 12.227 5.99897 12.1286 6.0647C12.0303 6.13043 11.9577 6.22824 11.9234 6.34146C11.889 6.45467 11.895 6.57629 11.9403 6.6856C11.9856 6.7949 12.0674 6.88513 12.1717 6.9409C12.276 6.99667 12.3965 7.01454 12.5125 6.99146C12.6286 6.96838 12.733 6.90577 12.8081 6.81432C12.8831 6.72286 12.9241 6.60821 12.9241 6.4899C12.9239 6.35433 12.87 6.22437 12.7744 6.1283Z" fill="#666666"/>
<path d="M14.4581 3.93164H10.3661C10.2305 3.93164 10.1004 3.98552 10.0045 4.08142C9.90862 4.17732 9.85474 4.3074 9.85474 4.44302V8.53498C9.85474 8.67061 9.90862 8.80068 10.0045 8.89659C10.1004 8.99249 10.2305 9.04637 10.3661 9.04637H14.4581C14.5937 9.04637 14.7238 8.99249 14.8197 8.89659C14.9156 8.80068 14.9695 8.67061 14.9695 8.53498V4.44302C14.9695 4.3074 14.9156 4.17732 14.8197 4.08142C14.7238 3.98552 14.5937 3.93164 14.4581 3.93164V3.93164ZM13.9467 8.0236H10.8775V4.95441H13.9467V8.0236Z" fill="#666666"/>
<path d="M6.63526 12.2655C6.55149 12.1816 6.44122 12.1294 6.32325 12.1177C6.20528 12.106 6.08691 12.1356 5.98832 12.2015C5.88973 12.2673 5.81702 12.3653 5.78258 12.4787C5.74815 12.5921 5.75412 12.714 5.79949 12.8235C5.84486 12.933 5.9268 13.0234 6.03136 13.0793C6.13592 13.1352 6.25663 13.1531 6.37289 13.1299C6.48915 13.1067 6.59378 13.0439 6.66893 12.9523C6.74409 12.8606 6.78513 12.7457 6.78504 12.6271C6.78456 12.4916 6.73075 12.3617 6.63526 12.2655Z" fill="#666666"/>
<path d="M8.32038 10.0703H4.22843C4.0928 10.0703 3.96273 10.1242 3.86682 10.2201C3.77092 10.316 3.71704 10.4461 3.71704 10.5817V14.6737C3.71704 14.8093 3.77092 14.9393 3.86682 15.0353C3.96273 15.1312 4.0928 15.185 4.22843 15.185H8.32038C8.45601 15.185 8.58609 15.1312 8.68199 15.0353C8.77789 14.9393 8.83177 14.8093 8.83177 14.6737V10.5817C8.83177 10.4461 8.77789 10.316 8.68199 10.2201C8.58609 10.1242 8.45601 10.0703 8.32038 10.0703ZM7.809 14.1623H4.73981V11.0931H7.809V14.1623Z" fill="#666666"/>
<path d="M12.7525 12.1152H12.4113C12.2757 12.1152 12.1456 12.1691 12.0497 12.265C11.9538 12.3609 11.8999 12.491 11.8999 12.6266C11.8999 12.7622 11.9538 12.8923 12.0497 12.9882C12.1456 13.0841 12.2757 13.138 12.4113 13.138H12.7525C12.8881 13.138 13.0182 13.0841 13.1141 12.9882C13.21 12.8923 13.2639 12.7622 13.2639 12.6266C13.2639 12.491 13.21 12.3609 13.1141 12.265C13.0182 12.1691 12.8881 12.1152 12.7525 12.1152Z" fill="#666666"/>
<path d="M14.4573 13.1387C14.3217 13.1387 14.1916 13.1926 14.0957 13.2885C13.9998 13.3844 13.9459 13.5144 13.9459 13.6501V14.1614H12.7521C12.6165 14.1614 12.4864 14.2153 12.3905 14.3112C12.2946 14.4071 12.2407 14.5372 12.2407 14.6728C12.2407 14.8085 12.2946 14.9385 12.3905 15.0344C12.4864 15.1303 12.6165 15.1842 12.7521 15.1842H14.4573C14.5929 15.1842 14.723 15.1303 14.8189 15.0344C14.9148 14.9385 14.9687 14.8085 14.9687 14.6728V13.6501C14.9687 13.5144 14.9148 13.3844 14.8189 13.2885C14.723 13.1926 14.5929 13.1387 14.4573 13.1387Z" fill="#666666"/>
<path d="M10.3661 12.1152C10.2305 12.1152 10.1004 12.1691 10.0045 12.265C9.90862 12.3609 9.85474 12.491 9.85474 12.6266V13.3081C9.85474 13.4438 9.90862 13.5739 10.0045 13.6698C10.1004 13.7657 10.2305 13.8195 10.3661 13.8195C10.5017 13.8195 10.6318 13.7657 10.7277 13.6698C10.8236 13.5739 10.8775 13.4438 10.8775 13.3081V12.6266C10.8775 12.491 10.8236 12.3609 10.7277 12.265C10.6318 12.1691 10.5017 12.1152 10.3661 12.1152Z" fill="#666666"/>
<path d="M12.7524 10.0703H11.7296C11.594 10.0703 11.464 10.1242 11.368 10.2201C11.2721 10.316 11.2183 10.4461 11.2183 10.5817C11.2183 10.7173 11.2721 10.8474 11.368 10.9433C11.464 11.0392 11.594 11.0931 11.7296 11.0931H12.7524C12.888 11.0931 13.0181 11.0392 13.114 10.9433C13.2099 10.8474 13.2638 10.7173 13.2638 10.5817C13.2638 10.4461 13.2099 10.316 13.114 10.2201C13.0181 10.1242 12.888 10.0703 12.7524 10.0703Z" fill="#666666"/>
<path d="M1.30957 6.65988V3.98242" stroke="#666666" stroke-width="2" stroke-linecap="round" stroke-linejoin="round"/>
<path d="M1.30957 3.98128C1.30957 3.24602 1.60165 2.54087 2.12155 2.02097C2.64146 1.50106 3.34659 1.20898 4.08185 1.20898H6.88518" stroke="#666666" stroke-width="2" stroke-linecap="round" stroke-linejoin="round"/>
<path d="M17.5327 12.2757V14.9531" stroke="#666666" stroke-width="2" stroke-linecap="round" stroke-linejoin="round"/>
<path d="M17.5327 14.9543C17.5327 15.6895 17.2406 16.3947 16.7207 16.9146C16.2008 17.4345 15.4957 17.7266 14.7604 17.7266H11.9571" stroke="#666666" stroke-width="2" stroke-linecap="round" stroke-linejoin="round"/>
<path d="M12.084 1.14258L14.7615 1.14258" stroke="#666666" stroke-width="2" stroke-linecap="round" stroke-linejoin="round"/>
<path d="M14.7614 1.14258C15.4967 1.14258 16.2018 1.43466 16.7217 1.95456C17.2416 2.47447 17.5337 3.17961 17.5337 3.91487V6.71817" stroke="#666666" stroke-width="2" stroke-linecap="round" stroke-linejoin="round"/>
<path d="M6.75973 17.791H4.08228" stroke="#666666" stroke-width="2" stroke-linecap="round" stroke-linejoin="round"/>
<path d="M4.08332 17.791C3.34807 17.791 2.64292 17.4989 2.12302 16.979C1.60311 16.4591 1.31104 15.754 1.31104 15.0187L1.31104 12.2154" stroke="#666666" stroke-width="2" stroke-linecap="round" stroke-linejoin="round"/>
</svg>
