<svg width="15" height="15" viewBox="0 0 15 15" fill="none" xmlns="http://www.w3.org/2000/svg">
<circle cx="7.5" cy="7.5" r="7" fill="white" fill-opacity="0.15" stroke="#0A090D"/>
<path d="M6.79598 9.468V9.24C6.79598 8.92 6.85598 8.632 6.97598 8.376C7.10398 8.12 7.25998 7.888 7.44398 7.68C7.63598 7.464 7.82398 7.256 8.00798 7.056C8.19198 6.848 8.34398 6.636 8.46398 6.42C8.59198 6.204 8.65598 5.968 8.65598 5.712C8.65598 5.36 8.54798 5.092 8.33198 4.908C8.12398 4.724 7.84398 4.632 7.49198 4.632C7.09998 4.632 6.78798 4.744 6.55598 4.968C6.32398 5.192 6.20798 5.48 6.20798 5.832H4.49198C4.49198 5.296 4.61598 4.828 4.86398 4.428C5.11998 4.02 5.47998 3.704 5.94398 3.48C6.40798 3.256 6.95198 3.144 7.57598 3.144C8.54398 3.144 9.26798 3.364 9.74798 3.804C10.228 4.244 10.468 4.82 10.468 5.532C10.468 5.916 10.396 6.256 10.252 6.552C10.116 6.84 9.94398 7.104 9.73598 7.344C9.52798 7.584 9.31998 7.812 9.11198 8.028C8.90398 8.236 8.72798 8.448 8.58398 8.664C8.44798 8.872 8.37998 9.1 8.37998 9.348V9.468H6.79598ZM6.73598 12V10.38H8.43998V12H6.73598Z" fill="#0A090D"/>
</svg>
