<svg width="104" height="26" viewBox="0 0 104 26" fill="none" xmlns="http://www.w3.org/2000/svg">
<mask id="mask0_1346_2241" style="mask-type:alpha" maskUnits="userSpaceOnUse" x="0" y="0" width="104" height="26">
<rect x="0.5" y="0.478516" width="103" height="24.8621" fill="#C4C4C4"/>
</mask>
<g mask="url(#mask0_1346_2241)">
<path d="M26.3547 14.7802L21.8066 19.2075C21.4213 19.5826 21.4216 20.1924 21.8073 20.5669L25.2829 23.9426C25.8753 24.5097 26.8436 24.5097 27.436 23.9426L38.0887 13.7452C38.681 13.1782 38.681 12.2511 38.0887 11.6841L27.436 1.49558C26.8436 0.928556 25.8753 0.928556 25.2829 1.49558L21.8073 4.87131C21.4216 5.24594 21.4213 5.85565 21.8066 6.2307L26.3547 10.6581C27.5394 11.7921 27.5394 13.6462 26.3547 14.7802Z" fill="#0A6E5C"/>
<path d="M12.6777 14.7802L17.2259 19.2075C17.6112 19.5826 17.6108 20.1924 17.2251 20.5669L13.7495 23.9426C13.1572 24.5097 12.1888 24.5097 11.5965 23.9426L0.943765 13.7452C0.351427 13.1782 0.351427 12.2511 0.943765 11.6841L11.5965 1.49558C12.1888 0.928556 13.1572 0.928556 13.7495 1.49558L17.2251 4.87131C17.6108 5.24594 17.6112 5.85565 17.2259 6.2307L12.6777 10.6581C11.493 11.7921 11.493 13.6462 12.6777 14.7802Z" fill="#21BF73"/>
<path d="M13.8708 13.5603C13.391 13.0951 13.391 12.3408 13.8708 11.8756L18.6478 7.24248C19.1275 6.77725 19.9052 6.77725 20.3849 7.24248L25.1619 11.8756C25.6415 12.3408 25.6415 13.0951 25.1619 13.5603L20.3849 18.1934C19.9052 18.6587 19.1275 18.6587 18.6478 18.1934L13.8708 13.5603Z" fill="#21BF73"/>
<path d="M58.9045 19.7075H55.5098L53.6376 14.9576C53.4868 14.5834 53.2536 14.3229 52.9381 14.1759C52.6364 14.0289 52.2524 13.9554 51.7861 13.9554H49.7081V19.7075H46.5398V5.4375H53.0616C54.7623 5.4375 56.0516 5.79826 56.9294 6.51978C57.8071 7.2413 58.2461 8.27681 58.2461 9.62634C58.2461 10.575 57.9855 11.39 57.4643 12.0715C56.9568 12.7529 56.223 13.2406 55.2629 13.5345C56.127 13.7082 56.7511 14.2895 57.1351 15.2782L58.9045 19.7075ZM52.5884 11.5704C53.5073 11.5704 54.1794 11.4235 54.6046 11.1295C55.0298 10.8222 55.2423 10.3478 55.2423 9.7065C55.2423 9.06516 55.0298 8.59746 54.6046 8.30354C54.1794 7.99622 53.5073 7.84257 52.5884 7.84257H49.6669V11.5704H52.5884Z" fill="black"/>
<path d="M71.3513 9.5467V19.708H68.2859V18.2049C67.9705 18.726 67.5247 19.1335 66.9487 19.4275C66.3726 19.7214 65.7211 19.8684 64.9942 19.8684C64.0889 19.8684 63.2865 19.6546 62.5871 19.2271C61.9013 18.7995 61.3595 18.1915 60.9618 17.4033C60.5778 16.6015 60.3857 15.6796 60.3857 14.6374C60.3857 13.5952 60.5778 12.6665 60.9618 11.8515C61.3595 11.0364 61.9082 10.4085 62.6076 9.96759C63.3071 9.51329 64.1027 9.28613 64.9942 9.28613C65.7211 9.28613 66.3726 9.43975 66.9487 9.74706C67.5247 10.0544 67.9705 10.4686 68.2859 10.9897V9.5467H71.3513ZM65.8994 17.5636C66.6675 17.5636 67.2573 17.3097 67.6687 16.802C68.0801 16.2942 68.2859 15.5593 68.2859 14.5973C68.2859 13.6353 68.0801 12.9004 67.6687 12.3927C67.2573 11.8716 66.6675 11.611 65.8994 11.611C65.1313 11.611 64.5347 11.8782 64.1095 12.4127C63.6843 12.9471 63.4717 13.6887 63.4717 14.6374C63.4717 15.586 63.6775 16.3142 64.0889 16.822C64.5141 17.3164 65.1176 17.5636 65.8994 17.5636Z" fill="black"/>
<path d="M86.6163 9.28613C87.8099 9.28613 88.6942 9.64018 89.2707 10.3484C89.8599 11.0431 90.155 12.1121 90.155 13.5551V19.708H87.0487V13.6553C87.0487 12.9471 86.9316 12.4394 86.6989 12.1321C86.4654 11.8115 86.0818 11.6511 85.5466 11.6511C84.916 11.6511 84.4289 11.8649 84.0858 12.2925C83.7428 12.72 83.5716 13.3213 83.5716 14.0962V19.708H80.4646V13.6553C80.4646 12.9605 80.3415 12.4528 80.0945 12.1321C79.8618 11.8115 79.4842 11.6511 78.9633 11.6511C78.332 11.6511 77.8388 11.8649 77.4815 12.2925C77.1391 12.72 76.9672 13.3213 76.9672 14.0962V19.708H73.8609V12.4528C73.8609 11.3705 73.806 10.4018 73.6963 9.5467H76.6174L76.8029 11.0699C77.1181 10.4954 77.5573 10.0544 78.1195 9.74706C78.6953 9.43975 79.3544 9.28613 80.0945 9.28613C81.6446 9.28613 82.6731 9.91408 83.1805 11.1701C83.5236 10.5955 83.9965 10.1412 84.6 9.8072C85.2171 9.45985 85.8897 9.28613 86.6163 9.28613Z" fill="black"/>
<path d="M98.9818 9.28613C99.8735 9.28613 100.669 9.51329 101.369 9.96759C102.068 10.4085 102.61 11.0364 102.994 11.8515C103.392 12.6665 103.59 13.5952 103.59 14.6374C103.59 15.6796 103.399 16.6015 103.014 17.4033C102.631 18.1915 102.089 18.7995 101.389 19.2271C100.69 19.6546 99.8871 19.8684 98.9818 19.8684C98.2551 19.8684 97.6035 19.7214 97.0278 19.4275C96.4513 19.1335 96.0129 18.726 95.7111 18.2049V24.3674H92.6041V12.4528C92.6041 11.3705 92.5493 10.4018 92.4397 9.5467H95.3613L95.567 11.2302C95.841 10.629 96.2801 10.1546 96.8836 9.8072C97.5007 9.45985 98.2003 9.28613 98.9818 9.28613ZM98.0975 17.5636C98.8654 17.5636 99.4554 17.3164 99.8668 16.822C100.278 16.3142 100.484 15.586 100.484 14.6374C100.484 13.6887 100.271 12.9471 99.8458 12.4127C99.4344 11.8782 98.8519 11.611 98.0975 11.611C97.3295 11.611 96.7328 11.8716 96.3071 12.3927C95.8958 12.9004 95.6901 13.6353 95.6901 14.5973C95.6901 15.5593 95.8958 16.2942 96.3071 16.802C96.7328 17.3097 97.3295 17.5636 98.0975 17.5636Z" fill="black"/>
</g>
</svg>
