<svg width="16" height="26" viewBox="0 0 16 26" fill="none" xmlns="http://www.w3.org/2000/svg">
<path d="M7.09558 0.93131L7.09437 0.932462L0.452043 7.60698C-0.0455561 8.107 -0.0437043 8.91577 0.456386 9.41349C0.956413 9.91116 1.76518 9.90924 2.26284 9.40921L6.7224 4.92795L6.7224 24.166C6.7224 24.8715 7.29428 25.4434 7.99977 25.4434C8.70526 25.4434 9.27714 24.8715 9.27714 24.166L9.27714 4.92801L13.7367 9.40915C14.2344 9.90918 15.0431 9.91109 15.5431 9.41343C16.0433 8.9157 16.045 8.10687 15.5475 7.60691L8.90517 0.932396L8.90395 0.931245C8.40463 0.430963 7.59324 0.432562 7.09558 0.93131Z" fill="black"/>
</svg>
