<svg width="21" height="20" viewBox="0 0 21 20" fill="none" xmlns="http://www.w3.org/2000/svg">
<mask id="path-1-inside-1_1576_182" fill="white">
<path fill-rule="evenodd" clip-rule="evenodd" d="M10.7531 12.016L10.7523 12.0168C10.421 12.3488 9.88088 12.3499 9.5485 12.0169L9.54769 12.0161L5.1261 7.57307C4.7949 7.24026 4.79605 6.70185 5.12899 6.37052C5.46184 6.03925 6.00021 6.04052 6.33149 6.37337L9.30008 9.35633L9.30008 0C4.16537 0.431561 0.132568 4.73593 0.132568 9.98221C0.132568 15.5149 4.61768 20 10.1504 20C15.683 20 20.1681 15.5149 20.1681 9.98221C20.1681 4.73595 16.1354 0.431597 11.0007 5.45008e-06L11.0007 9.35637L13.9693 6.37333C14.3006 6.04048 14.8389 6.0392 15.1718 6.37048C15.5047 6.70181 15.5059 7.24017 15.1747 7.57303L10.7531 12.016Z"/>
</mask>
<path fill-rule="evenodd" clip-rule="evenodd" d="M10.7531 12.016L10.7523 12.0168C10.421 12.3488 9.88088 12.3499 9.5485 12.0169L9.54769 12.0161L5.1261 7.57307C4.7949 7.24026 4.79605 6.70185 5.12899 6.37052C5.46184 6.03925 6.00021 6.04052 6.33149 6.37337L9.30008 9.35633L9.30008 0C4.16537 0.431561 0.132568 4.73593 0.132568 9.98221C0.132568 15.5149 4.61768 20 10.1504 20C15.683 20 20.1681 15.5149 20.1681 9.98221C20.1681 4.73595 16.1354 0.431597 11.0007 5.45008e-06L11.0007 9.35637L13.9693 6.37333C14.3006 6.04048 14.8389 6.0392 15.1718 6.37048C15.5047 6.70181 15.5059 7.24017 15.1747 7.57303L10.7531 12.016Z" fill="black"/>
<path d="M10.7523 12.0168L10.0638 11.2915L10.054 11.3009L10.0444 11.3105L10.7523 12.0168ZM10.7531 12.016L11.4415 12.7413L11.4519 12.7315L11.4619 12.7214L10.7531 12.016ZM9.5485 12.0169L10.2563 11.3104L10.2467 11.3009L10.2369 11.2916L9.5485 12.0169ZM9.54769 12.0161L8.83888 12.7215L8.84892 12.7316L8.85926 12.7414L9.54769 12.0161ZM5.1261 7.57307L4.41727 8.27845L4.41728 8.27846L5.1261 7.57307ZM5.12899 6.37052L5.83437 7.07935L5.83442 7.0793L5.12899 6.37052ZM6.33149 6.37337L7.0403 5.66797L7.04027 5.66794L6.33149 6.37337ZM9.30008 9.35633L8.59127 10.0617L10.3001 11.7788V9.35633H9.30008ZM9.30008 0L10.3001 1.01928e-07V-1.08757L9.21633 -0.996487L9.30008 0ZM11.0007 5.45008e-06L11.0845 -0.996481L10.0007 -1.08758V5.34815e-06L11.0007 5.45008e-06ZM11.0007 9.35637H10.0007V11.7789L11.7095 10.0618L11.0007 9.35637ZM13.9693 6.37333L13.2605 5.6679L13.2605 5.66794L13.9693 6.37333ZM15.1718 6.37048L14.4664 7.07926L15.1718 6.37048ZM15.1747 7.57303L15.8835 8.27842L15.8835 8.27841L15.1747 7.57303ZM11.4407 12.7421L11.4415 12.7413L10.0646 11.2908L10.0638 11.2915L11.4407 12.7421ZM8.84071 12.7233C9.56457 13.4485 10.739 13.4459 11.4602 12.7231L10.0444 11.3105C10.103 11.2517 10.1972 11.2512 10.2563 11.3104L8.84071 12.7233ZM8.85926 12.7414L8.86006 12.7422L10.2369 11.2916L10.2361 11.2908L8.85926 12.7414ZM4.41728 8.27846L8.83888 12.7215L10.2565 11.3107L5.83491 6.86767L4.41728 8.27846ZM4.4236 5.6617C3.69904 6.38275 3.69666 7.55432 4.41727 8.27845L5.83492 6.86769C5.89315 6.9262 5.89306 7.02095 5.83437 7.07935L4.4236 5.6617ZM7.04027 5.66794C6.31939 4.94364 5.14786 4.94087 4.42356 5.66175L5.83442 7.0793C5.77582 7.13762 5.68103 7.1374 5.62271 7.0788L7.04027 5.66794ZM10.0089 8.65093L7.0403 5.66797L5.62268 7.07877L8.59127 10.0617L10.0089 8.65093ZM8.30008 -1.01928e-07L8.30008 9.35633H10.3001L10.3001 1.01928e-07L8.30008 -1.01928e-07ZM1.13257 9.98221C1.13257 5.26014 4.76273 1.38488 9.38383 0.996487L9.21633 -0.996487C3.56801 -0.521758 -0.867432 4.21172 -0.867432 9.98221H1.13257ZM10.1504 19C5.16997 19 1.13257 14.9626 1.13257 9.98221H-0.867432C-0.867432 16.0672 4.0654 21 10.1504 21V19ZM19.1681 9.98221C19.1681 14.9626 15.1307 19 10.1504 19V21C16.2353 21 21.1681 16.0672 21.1681 9.98221H19.1681ZM10.9169 0.996491C15.538 1.38491 19.1681 5.26016 19.1681 9.98221H21.1681C21.1681 4.21175 16.7327 -0.521718 11.0845 -0.996481L10.9169 0.996491ZM12.0007 9.35637L12.0007 5.55201e-06L10.0007 5.34815e-06L10.0007 9.35637H12.0007ZM13.2605 5.66794L10.2919 8.65099L11.7095 10.0618L14.6781 7.07872L13.2605 5.66794ZM15.8772 5.6617C15.1529 4.94083 13.9814 4.9436 13.2605 5.6679L14.6781 7.07876C14.6197 7.13736 14.525 7.13758 14.4664 7.07926L15.8772 5.6617ZM15.8835 8.27841C16.6042 7.55415 16.6016 6.38265 15.8772 5.6617L14.4664 7.07926C14.4078 7.02096 14.4076 6.9262 14.4658 6.86764L15.8835 8.27841ZM11.4619 12.7214L15.8835 8.27842L14.4659 6.86763L10.0443 11.3106L11.4619 12.7214Z" fill="black" mask="url(#path-1-inside-1_1576_182)"/>
</svg>
