<svg width="32" height="35" viewBox="0 0 32 35" fill="none" xmlns="http://www.w3.org/2000/svg">
<mask id="path-1-inside-1_5308_1466" fill="white">
<path d="M31.6933 18.9721C31.6933 27.4867 24.7909 34.3891 16.2763 34.3891C7.76179 34.3891 0.859375 27.4867 0.859375 18.9721C0.859375 10.4576 7.76179 3.55518 16.2763 3.55518C24.7909 3.55518 31.6933 10.4576 31.6933 18.9721Z"/>
</mask>
<path d="M29.6933 18.9721C29.6933 26.3821 23.6863 32.3891 16.2763 32.3891V36.3891C25.8955 36.3891 33.6933 28.5913 33.6933 18.9721H29.6933ZM16.2763 32.3891C8.86636 32.3891 2.85938 26.3821 2.85938 18.9721H-1.14062C-1.14062 28.5913 6.65722 36.3891 16.2763 36.3891V32.3891ZM2.85938 18.9721C2.85938 11.5622 8.86636 5.55518 16.2763 5.55518V1.55518C6.65722 1.55518 -1.14062 9.35302 -1.14062 18.9721H2.85938ZM16.2763 5.55518C23.6863 5.55518 29.6933 11.5622 29.6933 18.9721H33.6933C33.6933 9.35302 25.8955 1.55518 16.2763 1.55518V5.55518Z" fill="black" mask="url(#path-1-inside-1_5308_1466)"/>
<path d="M17.2052 25.6739L17.2064 25.6727L24.0263 18.8198C24.5372 18.3064 24.5353 17.476 24.0218 16.965C23.5084 16.454 22.6781 16.456 22.1671 16.9694L17.5883 21.5704L17.5883 1.81811C17.5883 1.09376 17.0012 0.506591 16.2768 0.506591C15.5525 0.506591 14.9653 1.09376 14.9653 1.81811L14.9653 21.5704L10.3865 16.9694C9.87555 16.456 9.04516 16.4541 8.53177 16.965C8.01824 17.4761 8.01647 18.3065 8.52731 18.8199L15.3472 25.6728L15.3484 25.674C15.8611 26.1876 16.6942 26.186 17.2052 25.6739Z" fill="black"/>
</svg>
