<svg width="64" height="65" viewBox="0 0 64 65" fill="none" xmlns="http://www.w3.org/2000/svg">
<path d="M48.4009 33.1537H48.108C46.1331 33.1537 44.4809 34.5289 43.9666 36.4363C42.5557 41.6639 37.8216 45.5143 32.167 45.5143C30.2706 45.5143 28.4685 45.0705 26.8739 44.297H26.8639L26.863 44.298L30.5605 41.7959C31.6328 40.7236 30.8802 38.8887 29.3611 38.8848H25.043H16.7175C16.2429 38.8897 15.814 39.0734 15.5042 39.3832C15.1984 39.689 15.0147 40.1169 15.0107 40.5925V48.918V53.2361C15.0157 54.7552 16.8496 55.5078 17.9219 54.4355L20.3952 50.7816C23.7631 53.0454 27.8102 54.366 32.168 54.366C41.953 54.366 50.1911 47.7096 52.5889 38.6743C53.3256 35.8912 51.2783 33.1537 48.4009 33.1537Z" fill="#0A7500"/>
<path d="M15.8892 32.0159C17.8641 32.0159 19.5163 30.6407 20.0306 28.7334C21.4415 23.5058 26.1756 19.6553 31.8302 19.6553C33.7266 19.6553 35.5287 20.0992 37.1233 20.8726H37.1333L37.1342 20.8716L33.4367 23.3737C32.3644 24.4461 33.117 26.2809 34.6361 26.2849H38.9542H47.2797C47.7543 26.2799 48.1832 26.0963 48.493 25.7865C48.7988 25.4807 48.9825 25.0527 48.9865 24.5771V16.2527V11.9346C48.9815 10.4154 47.1476 9.66282 46.0753 10.7351L43.602 14.389C40.2341 12.1252 36.187 10.8046 31.8292 10.8046C22.0442 10.8046 13.8061 17.461 11.4083 26.4964C10.6706 29.2775 12.7179 32.0159 15.5953 32.0159H15.8892Z" fill="#B4F9BA"/>
</svg>
