<svg width="41" height="40" viewBox="0 0 41 40" fill="none" xmlns="http://www.w3.org/2000/svg">
<mask id="mask0_38653_572" style="mask-type:alpha" maskUnits="userSpaceOnUse" x="0" y="0" width="41" height="40">
<rect x="0.5" width="40" height="40" fill="#D9D9D9"/>
</mask>
<g mask="url(#mask0_38653_572)">
<path d="M8.83333 23.3337C7.89306 23.3337 7.1025 23.0131 6.46167 22.372C5.82056 21.7312 5.5 20.9406 5.5 20.0003C5.5 19.06 5.82056 18.2695 6.46167 17.6287C7.1025 16.9875 7.89306 16.667 8.83333 16.667V12.6928C8.83333 11.9523 9.09694 11.3184 9.62417 10.7912C10.1514 10.2639 10.7853 10.0003 11.5258 10.0003H17.1667C17.1667 9.06005 17.4872 8.26949 18.1283 7.62866C18.7692 6.98755 19.5597 6.66699 20.5 6.66699C21.4403 6.66699 22.2308 6.98755 22.8717 7.62866C23.5128 8.26949 23.8333 9.06005 23.8333 10.0003H29.4742C30.2147 10.0003 30.8486 10.2639 31.3758 10.7912C31.9031 11.3184 32.1667 11.9523 32.1667 12.6928V16.667C33.1069 16.667 33.8975 16.9875 34.5383 17.6287C35.1794 18.2695 35.5 19.06 35.5 20.0003C35.5 20.9406 35.1794 21.7312 34.5383 22.372C33.8975 23.0131 33.1069 23.3337 32.1667 23.3337V30.6412C32.1667 31.3817 31.9031 32.0156 31.3758 32.5428C30.8486 33.07 30.2147 33.3337 29.4742 33.3337H11.5258C10.7853 33.3337 10.1514 33.07 9.62417 32.5428C9.09694 32.0156 8.83333 31.3817 8.83333 30.6412V23.3337ZM15.4963 20.8337C15.9582 20.8337 16.3521 20.672 16.6779 20.3487C17.0037 20.0253 17.1667 19.6327 17.1667 19.1707C17.1667 18.7088 17.005 18.3149 16.6817 17.9891C16.3583 17.6632 15.9657 17.5003 15.5037 17.5003C15.0418 17.5003 14.6479 17.662 14.3221 17.9853C13.9963 18.3087 13.8333 18.7013 13.8333 19.1632C13.8333 19.6252 13.995 20.0191 14.3183 20.3449C14.6417 20.6707 15.0343 20.8337 15.4963 20.8337ZM25.4962 20.8337C25.9582 20.8337 26.3521 20.672 26.6779 20.3487C27.0038 20.0253 27.1667 19.6327 27.1667 19.1707C27.1667 18.7088 27.005 18.3149 26.6817 17.9891C26.3583 17.6632 25.9657 17.5003 25.5037 17.5003C25.0418 17.5003 24.6479 17.662 24.3221 17.9853C23.9963 18.3087 23.8333 18.7013 23.8333 19.1632C23.8333 19.6252 23.995 20.0191 24.3183 20.3449C24.6417 20.6707 25.0343 20.8337 25.4962 20.8337ZM14.6667 27.5003H26.3333V25.8337H14.6667V27.5003ZM11.5258 31.667H29.4742C29.7733 31.667 30.0192 31.5709 30.2117 31.3787C30.4039 31.1862 30.5 30.9403 30.5 30.6412V12.6928C30.5 12.3937 30.4039 12.1478 30.2117 11.9553C30.0192 11.7631 29.7733 11.667 29.4742 11.667H11.5258C11.2267 11.667 10.9808 11.7631 10.7883 11.9553C10.5961 12.1478 10.5 12.3937 10.5 12.6928V30.6412C10.5 30.9403 10.5961 31.1862 10.7883 31.3787C10.9808 31.5709 11.2267 31.667 11.5258 31.667Z" fill="#F6A051"/>
</g>
</svg>
