<svg width="271" height="271" viewBox="0 0 271 271" fill="none" xmlns="http://www.w3.org/2000/svg">
<g filter="url(#filter0_f_9214_2068)">
<path d="M135.5 220.906C182.515 220.906 220.629 182.85 220.629 135.906C220.629 88.962 182.515 50.9062 135.5 50.9062C88.4839 50.9062 50.3701 88.962 50.3701 135.906C50.3701 182.85 88.4839 220.906 135.5 220.906Z" fill="url(#paint0_linear_9214_2068)"/>
<path d="M220.129 135.906C220.129 182.574 182.24 220.406 135.5 220.406C88.7593 220.406 50.8701 182.574 50.8701 135.906C50.8701 89.2389 88.7593 51.4062 135.5 51.4062C182.24 51.4062 220.129 89.2389 220.129 135.906Z" stroke="#F65D51"/>
</g>
<path d="M220.129 135.906C220.129 182.574 182.24 220.406 135.5 220.406C88.7593 220.406 50.8701 182.574 50.8701 135.906C50.8701 89.2389 88.7593 51.4062 135.5 51.4062C182.24 51.4062 220.129 89.2389 220.129 135.906Z" fill="white" fill-opacity="0.5" stroke="#F65D51"/>
<path d="M108.414 99.5518H163.918C168.141 99.5518 171.597 103.008 171.597 107.231V162.735C171.597 166.958 168.141 170.414 163.918 170.414H108.414C104.192 170.414 100.735 166.958 100.735 162.735V107.231C100.735 103.008 104.192 99.5518 108.414 99.5518ZM112.129 152.823C112.129 156.252 114.897 159.02 118.326 159.02C121.754 159.02 124.523 156.252 124.523 152.823C124.523 149.395 121.754 146.626 118.326 146.626C114.897 146.626 112.129 149.395 112.129 152.823ZM112.129 117.142C112.129 120.571 114.897 123.339 118.326 123.339C121.754 123.339 124.523 120.571 124.523 117.142C124.523 113.714 121.754 110.945 118.326 110.945C114.897 110.945 112.129 113.714 112.129 117.142ZM129.969 134.983C129.969 138.411 132.738 141.18 136.166 141.18C139.595 141.18 142.363 138.411 142.363 134.983C142.363 131.554 139.595 128.786 136.166 128.786C132.738 128.786 129.969 131.554 129.969 134.983ZM147.81 152.823C147.81 156.252 150.578 159.02 154.007 159.02C157.435 159.02 160.204 156.252 160.204 152.823C160.204 149.395 157.435 146.626 154.007 146.626C150.578 146.626 147.81 149.395 147.81 152.823ZM147.81 117.142C147.81 120.571 150.578 123.339 154.007 123.339C157.435 123.339 160.204 120.571 160.204 117.142C160.204 113.714 157.435 110.945 154.007 110.945C150.578 110.945 147.81 113.714 147.81 117.142Z" fill="#F65D51" stroke="black" stroke-width="0.5"/>
<defs>
<filter id="filter0_f_9214_2068" x="0.370117" y="0.90625" width="270.259" height="270" filterUnits="userSpaceOnUse" color-interpolation-filters="sRGB">
<feFlood flood-opacity="0" result="BackgroundImageFix"/>
<feBlend mode="normal" in="SourceGraphic" in2="BackgroundImageFix" result="shape"/>
<feGaussianBlur stdDeviation="25" result="effect1_foregroundBlur_9214_2068"/>
</filter>
<linearGradient id="paint0_linear_9214_2068" x1="50.3701" y1="50.9062" x2="220.629" y2="220.906" gradientUnits="userSpaceOnUse">
<stop offset="0.425" stop-color="#FFC17B"/>
<stop offset="1" stop-color="#F65D51"/>
</linearGradient>
</defs>
</svg>
