<svg width="176" height="175" viewBox="0 0 176 175" fill="none" xmlns="http://www.w3.org/2000/svg">
<g filter="url(#filter0_d_8966_2102)">
<rect x="21.166" y="21.3984" width="134" height="133" rx="66.5" fill="#F8B374" stroke="#F65D51"/>
<path d="M66.291 59.5215H110.041C113.34 59.5215 116.041 62.2221 116.041 65.5215V109.271C116.041 112.571 113.34 115.271 110.041 115.271H66.291C62.9916 115.271 60.291 112.571 60.291 109.271V65.5215C60.291 62.2221 62.9916 59.5215 66.291 59.5215ZM69.166 101.459C69.166 104.191 71.3717 106.396 74.1035 106.396C76.8353 106.396 79.041 104.191 79.041 101.459C79.041 98.7272 76.8353 96.5215 74.1035 96.5215C71.3717 96.5215 69.166 98.7272 69.166 101.459ZM69.166 73.334C69.166 76.0658 71.3717 78.2715 74.1035 78.2715C76.8353 78.2715 79.041 76.0658 79.041 73.334C79.041 70.6022 76.8353 68.3965 74.1035 68.3965C71.3717 68.3965 69.166 70.6022 69.166 73.334ZM83.2285 87.3965C83.2285 90.1283 85.4342 92.334 88.166 92.334C90.8978 92.334 93.1035 90.1283 93.1035 87.3965C93.1035 84.6647 90.8978 82.459 88.166 82.459C85.4342 82.459 83.2285 84.6647 83.2285 87.3965ZM97.291 101.459C97.291 104.191 99.4967 106.396 102.229 106.396C104.96 106.396 107.166 104.191 107.166 101.459C107.166 98.7272 104.96 96.5215 102.229 96.5215C99.4967 96.5215 97.291 98.7272 97.291 101.459ZM97.291 73.334C97.291 76.0658 99.4967 78.2715 102.229 78.2715C104.96 78.2715 107.166 76.0658 107.166 73.334C107.166 70.6022 104.96 68.3965 102.229 68.3965C99.4967 68.3965 97.291 70.6022 97.291 73.334Z" fill="#F65D51" stroke="black" stroke-width="0.5"/>
</g>
<defs>
<filter id="filter0_d_8966_2102" x="0.666016" y="0.898438" width="175" height="174" filterUnits="userSpaceOnUse" color-interpolation-filters="sRGB">
<feFlood flood-opacity="0" result="BackgroundImageFix"/>
<feColorMatrix in="SourceAlpha" type="matrix" values="0 0 0 0 0 0 0 0 0 0 0 0 0 0 0 0 0 0 127 0" result="hardAlpha"/>
<feOffset/>
<feGaussianBlur stdDeviation="10"/>
<feComposite in2="hardAlpha" operator="out"/>
<feColorMatrix type="matrix" values="0 0 0 0 0.972549 0 0 0 0 0.701961 0 0 0 0 0.454902 0 0 0 1 0"/>
<feBlend mode="normal" in2="BackgroundImageFix" result="effect1_dropShadow_8966_2102"/>
<feBlend mode="normal" in="SourceGraphic" in2="effect1_dropShadow_8966_2102" result="shape"/>
</filter>
</defs>
</svg>
