<svg width="41" height="40" viewBox="0 0 41 40" fill="none" xmlns="http://www.w3.org/2000/svg">
<mask id="mask0_38653_560" style="mask-type:alpha" maskUnits="userSpaceOnUse" x="0" y="0" width="41" height="40">
<rect x="0.5" width="40" height="40" fill="#D9D9D9"/>
</mask>
<g mask="url(#mask0_38653_560)">
<path d="M27.1667 17.9488C27.5106 17.9488 27.8103 17.8211 28.0658 17.5658C28.3211 17.3103 28.4488 17.0106 28.4488 16.6667C28.4488 16.3228 28.3211 16.0231 28.0658 15.7675C27.8103 15.5122 27.5106 15.3846 27.1667 15.3846C26.8228 15.3846 26.5231 15.5122 26.2675 15.7675C26.0122 16.0231 25.8846 16.3228 25.8846 16.6667C25.8846 17.0106 26.0122 17.3103 26.2675 17.5658C26.5231 17.8211 26.8228 17.9488 27.1667 17.9488ZM13.8333 14.1667H22.1667V12.5H13.8333V14.1667ZM9.25 33.3333C8.43389 30.4231 7.60486 27.5358 6.76292 24.6717C5.92097 21.8072 5.5 18.8611 5.5 15.8333C5.5 13.7478 6.22861 11.9764 7.68583 10.5192C9.14306 9.06195 10.9144 8.33333 13 8.33333H22.1667C22.8867 7.38472 23.7376 6.59194 24.7196 5.955C25.7015 5.31833 26.795 5 28 5C28.2244 5 28.4194 5.08278 28.585 5.24833C28.7506 5.41389 28.8333 5.60889 28.8333 5.83333C28.8333 5.89306 28.8232 5.95292 28.8029 6.01292C28.7826 6.07264 28.7661 6.12917 28.7533 6.1825C28.5567 6.68056 28.399 7.19083 28.2804 7.71333C28.1618 8.23556 28.0533 8.75958 27.955 9.28542L32.8367 14.1667H35.5V22.9071L31.1121 24.3525L28.4167 33.3333H22.1667V30H15.5V33.3333H9.25ZM10.5 31.6667H13.8333V28.3333H23.8333V31.6667H27.1667L29.75 23.0833L33.8333 21.7083V15.8333H32.1667L26.3333 10C26.3333 9.44444 26.3681 8.90972 26.4375 8.39583C26.5069 7.88194 26.6325 7.37181 26.8142 6.86542C26.0086 7.08764 25.311 7.48028 24.7213 8.04333C24.1315 8.60639 23.655 9.25861 23.2917 10H13C11.3889 10 10.0139 10.5694 8.875 11.7083C7.73611 12.8472 7.16667 14.2222 7.16667 15.8333C7.16667 18.5556 7.54167 21.2153 8.29167 23.8125C9.04167 26.4097 9.77778 29.0278 10.5 31.6667Z" fill="#F6A051"/>
</g>
</svg>
