<svg width="18" height="28" viewBox="0 0 18 28" fill="none" xmlns="http://www.w3.org/2000/svg">
<path d="M8.15284 1.32361L8.15156 1.32482L1.17487 8.33533C0.652221 8.86053 0.654166 9.71 1.17943 10.2328C1.70463 10.7555 2.55411 10.7535 3.07682 10.2283L7.76087 5.52144L7.76087 25.7279C7.76087 26.4689 8.36153 27.0696 9.10254 27.0696C9.84354 27.0696 10.4442 26.4689 10.4442 25.7279L10.4442 5.5215L15.1283 10.2282C15.651 10.7534 16.5004 10.7554 17.0256 10.2327C17.551 9.70993 17.5528 8.86039 17.0302 8.33526L10.0535 1.32475L10.0522 1.32355C9.52778 0.79808 8.67555 0.799759 8.15284 1.32361Z" fill="black"/>
</svg>
