<svg width="10" height="14" viewBox="0 0 10 14" fill="none" xmlns="http://www.w3.org/2000/svg">
<path d="M4.64175 0.210769L4.64107 0.211417L0.904439 3.96616C0.624515 4.24745 0.625557 4.70242 0.906882 4.98241C1.18817 5.26237 1.64314 5.2613 1.9231 4.98001L4.43182 2.45907L4.43182 13.2814C4.43182 13.6783 4.75353 14 5.1504 14C5.54728 14 5.86899 13.6783 5.86899 13.2814L5.86899 2.45911L8.3777 4.97997C8.65766 5.26126 9.11264 5.26234 9.39393 4.98238C9.67529 4.70238 9.67626 4.24738 9.39637 3.96612L5.65973 0.21138L5.65905 0.210733C5.37816 -0.0706999 4.92171 -0.0698015 4.64175 0.210769Z" fill="black"/>
</svg>
