<svg width="30" height="30" viewBox="0 0 30 30" fill="none" xmlns="http://www.w3.org/2000/svg">
<mask id="path-1-inside-1_1746_804" fill="white">
<path fill-rule="evenodd" clip-rule="evenodd" d="M15.8679 17.9074L15.8668 17.9085C15.389 18.3873 14.6101 18.3888 14.1308 17.9085L14.1296 17.9074L7.75306 11.5C7.27543 11.02 7.27709 10.2436 7.75723 9.76574C8.23725 9.28799 9.01365 9.28983 9.4914 9.76985L13.7725 14.0717L13.7725 0.578778C6.36805 1.20164 0.552734 7.4089 0.552734 14.9744C0.552734 22.9533 7.02088 29.4214 14.9998 29.4214C22.9786 29.4214 29.4468 22.9533 29.4468 14.9744C29.4468 7.40823 23.6304 1.20054 16.225 0.578613L16.225 14.0717L20.5061 9.76979C20.9839 9.28977 21.7603 9.28793 22.2403 9.76568C22.7204 10.2435 22.7222 11.0199 22.2445 11.4999L15.8679 17.9074Z"/>
</mask>
<path fill-rule="evenodd" clip-rule="evenodd" d="M15.8679 17.9074L15.8668 17.9085C15.389 18.3873 14.6101 18.3888 14.1308 17.9085L14.1296 17.9074L7.75306 11.5C7.27543 11.02 7.27709 10.2436 7.75723 9.76574C8.23725 9.28799 9.01365 9.28983 9.4914 9.76985L13.7725 14.0717L13.7725 0.578778C6.36805 1.20164 0.552734 7.4089 0.552734 14.9744C0.552734 22.9533 7.02088 29.4214 14.9998 29.4214C22.9786 29.4214 29.4468 22.9533 29.4468 14.9744C29.4468 7.40823 23.6304 1.20054 16.225 0.578613L16.225 14.0717L20.5061 9.76979C20.9839 9.28977 21.7603 9.28793 22.2403 9.76568C22.7204 10.2435 22.7222 11.0199 22.2445 11.4999L15.8679 17.9074Z" fill="black"/>
<path d="M15.8668 17.9085L14.8739 16.8625L14.8597 16.876L14.8459 16.8898L15.8668 17.9085ZM15.8679 17.9074L16.8608 18.9533L16.8757 18.9392L16.8901 18.9246L15.8679 17.9074ZM14.1308 17.9085L15.1515 16.8898L15.1377 16.876L15.1236 16.8625L14.1308 17.9085ZM14.1296 17.9074L13.1074 18.9247L13.1219 18.9393L13.1368 18.9534L14.1296 17.9074ZM7.75306 11.5L6.73083 12.5172L6.73085 12.5173L7.75306 11.5ZM7.75723 9.76574L8.77449 10.788L8.77455 10.7879L7.75723 9.76574ZM9.4914 9.76985L10.5136 8.75257L10.5136 8.75252L9.4914 9.76985ZM13.7725 14.0717L12.7503 15.089L15.2146 17.5652V14.0717H13.7725ZM13.7725 0.578778L15.2146 0.578778V-0.989763L13.6516 -0.858283L13.7725 0.578778ZM16.225 0.578613L16.3457 -0.858465L14.7829 -0.989715V0.578613L16.225 0.578613ZM16.225 14.0717H14.7829L14.7829 17.5654L17.2472 15.089L16.225 14.0717ZM20.5061 9.76979L19.484 8.75246L19.4839 8.75252L20.5061 9.76979ZM22.2403 9.76568L23.2576 8.74352L23.2576 8.74352L22.2403 9.76568ZM22.2445 11.4999L23.2667 12.5172L23.2667 12.5172L22.2445 11.4999ZM16.8596 18.9544L16.8608 18.9533L14.8751 16.8614L14.8739 16.8625L16.8596 18.9544ZM13.11 18.9273C14.1539 19.9732 15.8476 19.9694 16.8876 18.9271L14.8459 16.8898C14.9305 16.8051 15.0663 16.8044 15.1515 16.8898L13.11 18.9273ZM13.1368 18.9534L13.1379 18.9545L15.1236 16.8625L15.1224 16.8614L13.1368 18.9534ZM6.73085 12.5173L13.1074 18.9247L15.1518 16.8901L8.77527 10.4827L6.73085 12.5173ZM6.73996 8.74352C5.69505 9.78337 5.69161 11.4729 6.73083 12.5172L8.77528 10.4827C8.85925 10.5671 8.85912 10.7037 8.77449 10.788L6.73996 8.74352ZM10.5136 8.75252C9.47395 7.70798 7.78444 7.70398 6.7399 8.74358L8.77455 10.7879C8.69005 10.872 8.55335 10.8717 8.46924 10.7872L10.5136 8.75252ZM14.7947 13.0544L10.5136 8.75257L8.4692 10.7871L12.7503 15.089L14.7947 13.0544ZM12.3304 0.578778L12.3304 14.0717H15.2146L15.2146 0.578778L12.3304 0.578778ZM1.99487 14.9744C1.99487 8.16484 7.22957 2.5764 13.8934 2.01584L13.6516 -0.858283C5.50653 -0.173123 -0.889403 6.65296 -0.889403 14.9744H1.99487ZM14.9998 27.9793C7.81735 27.9793 1.99487 22.1568 1.99487 14.9744H-0.889403C-0.889403 23.7497 6.22441 30.8636 14.9998 30.8636V27.9793ZM28.0046 14.9744C28.0046 22.1568 22.1821 27.9793 14.9998 27.9793V30.8636C23.7751 30.8636 30.8889 23.7497 30.8889 14.9744H28.0046ZM16.1043 2.01569C22.769 2.57541 28.0046 8.16424 28.0046 14.9744H30.8889C30.8889 6.65222 24.4918 -0.17433 16.3457 -0.858465L16.1043 2.01569ZM17.6672 14.0717L17.6672 0.578613L14.7829 0.578613L14.7829 14.0717H17.6672ZM19.4839 8.75252L15.2028 13.0545L17.2472 15.089L21.5284 10.7871L19.4839 8.75252ZM23.2576 8.74352C22.2131 7.70392 20.5236 7.70792 19.484 8.75246L21.5283 10.7871C21.4442 10.8716 21.3075 10.8719 21.223 10.7878L23.2576 8.74352ZM23.2667 12.5172C24.3061 11.4727 24.3023 9.78322 23.2576 8.74352L21.223 10.7878C21.1385 10.7038 21.1382 10.5671 21.2223 10.4826L23.2667 12.5172ZM16.8901 18.9246L23.2667 12.5172L21.2223 10.4826L14.8457 16.8901L16.8901 18.9246Z" fill="black" mask="url(#path-1-inside-1_1746_804)"/>
</svg>
