<svg width="24" height="24" viewBox="0 0 24 24" fill="none" xmlns="http://www.w3.org/2000/svg">
<g clip-path="url(#clip0_159_125)">
<rect x="0.0600586" y="0.059967" width="23.9603" height="23.9603" rx="11.9801" fill="#B4F9BA"/>
<path d="M9.62532 6.09637L11.9412 4.75897C12.0071 4.72093 12.0889 4.72093 12.1549 4.75897L18.2584 8.28287C18.3244 8.32091 18.365 8.3913 18.3656 8.4674L18.3739 10.8911C18.3739 10.9678 18.3333 11.0388 18.2667 11.0769L15.954 12.4124C15.8119 12.4948 15.6338 12.3921 15.6331 12.2278L15.6255 10.0527C15.6255 9.97664 15.5843 9.90625 15.5183 9.8682L9.62532 6.4667C9.48264 6.38426 9.48264 6.1788 9.62532 6.09637Z" fill="#010101"/>
<path d="M8.12943 17.0745L5.8142 15.7377C5.74762 15.6996 5.70703 15.6293 5.70703 15.5525V8.50474C5.70703 8.42865 5.74762 8.35826 5.81357 8.31958L7.90875 7.10013C7.97533 7.06145 8.05714 7.06145 8.12309 7.10013L10.4358 8.43562C10.5778 8.51806 10.5785 8.72289 10.4364 8.80596L8.55684 9.89984C8.49089 9.93789 8.4503 10.0083 8.4503 10.085V16.8899C8.4503 17.0548 8.27211 17.1575 8.12943 17.0751V17.0745Z" fill="#010101"/>
<path d="M18.3738 12.8784V15.552C18.3738 15.6287 18.3332 15.6991 18.2666 15.7371L12.1631 19.261C12.0971 19.2991 12.016 19.2991 11.95 19.261L9.84657 18.0562C9.77999 18.0181 9.73877 17.9471 9.73877 17.8704V15.2C9.73877 15.0358 9.91633 14.933 10.059 15.0142L11.9462 16.0954C12.0121 16.1335 12.0933 16.1328 12.1593 16.0954L18.0523 12.6926C18.195 12.6102 18.3732 12.7129 18.3732 12.8778L18.3738 12.8784Z" fill="#010101"/>
</g>
<defs>
<clipPath id="clip0_159_125">
<rect width="24" height="24" fill="white"/>
</clipPath>
</defs>
</svg>
