<svg width="29" height="35" viewBox="0 0 29 35" fill="none" xmlns="http://www.w3.org/2000/svg">
<g clip-path="url(#clip0_12845_3653)">
<path d="M10.1615 16.739L13.2726 19.7825L20.2726 12.9347M27.2726 17.4999C27.2726 24.9692 18.9441 30.4018 15.9139 32.1313C15.5695 32.3277 15.3973 32.426 15.1543 32.477C14.9657 32.5166 14.6906 32.5166 14.502 32.477C14.2589 32.426 14.0867 32.3277 13.7424 32.1313C10.7121 30.4018 2.38368 24.9692 2.38368 17.4999V10.2223C2.38368 9.00568 2.38368 8.39737 2.58709 7.87445C2.76677 7.4125 3.05876 7.00032 3.43782 6.67352C3.8669 6.3036 4.44915 6.09001 5.61364 5.66282L13.9542 2.6031C14.2776 2.48447 14.4393 2.42515 14.6057 2.40162C14.7532 2.38077 14.903 2.38077 15.0506 2.40162C15.2169 2.42515 15.3786 2.48447 15.702 2.6031L24.0426 5.66282C25.2071 6.09001 25.7893 6.3036 26.2184 6.67352C26.5975 7.00032 26.8894 7.4125 27.0691 7.87445C27.2726 8.39737 27.2726 9.00568 27.2726 10.2223V17.4999Z" stroke="black" stroke-width="1.6" stroke-linecap="round" stroke-linejoin="round"/>
</g>
<defs>
<clipPath id="clip0_12845_3653">
<rect width="28" height="35" fill="white" transform="translate(0.828125)"/>
</clipPath>
</defs>
</svg>
