<svg width="271" height="270" viewBox="0 0 271 270" fill="none" xmlns="http://www.w3.org/2000/svg">
<g filter="url(#filter0_f_9654_1288)">
<path d="M135.5 220C182.515 220 220.629 181.944 220.629 135C220.629 88.0558 182.515 50 135.5 50C88.4839 50 50.3701 88.0558 50.3701 135C50.3701 181.944 88.4839 220 135.5 220Z" fill="url(#paint0_linear_9654_1288)"/>
<path d="M220.129 135C220.129 181.667 182.24 219.5 135.5 219.5C88.7593 219.5 50.8701 181.667 50.8701 135C50.8701 88.3326 88.7593 50.5 135.5 50.5C182.24 50.5 220.129 88.3326 220.129 135Z" stroke="#F65D51"/>
</g>
<path d="M220.129 135C220.129 181.667 182.24 219.5 135.5 219.5C88.7593 219.5 50.8701 181.667 50.8701 135C50.8701 88.3326 88.7593 50.5 135.5 50.5C182.24 50.5 220.129 88.3326 220.129 135Z" fill="white" fill-opacity="0.5" stroke="#F65D51"/>
<path d="M146.193 175.374L143.512 182.902C144.609 182.83 145.692 182.715 146.762 182.558V173.774L146.193 175.374Z" fill="#F65D51"/>
<path d="M153.471 163.192H151.628L153.471 169.28V163.192Z" fill="#F65D51"/>
<path d="M153.471 163.192H151.628L153.471 169.28V163.192Z" fill="url(#paint1_linear_9654_1288)"/>
<path d="M151.628 163.192H146.937L147.9 163.597L151.628 163.192Z" fill="#F65D51"/>
<path d="M151.628 163.192H146.937L147.9 163.597L151.628 163.192Z" fill="#F65D51"/>
<path d="M147.967 170.389L146.762 173.774V182.558C147.874 182.396 148.973 182.189 150.056 181.938L147.967 170.389ZM150.063 164.505L147.97 170.387L150.056 181.938C151.215 181.667 152.353 181.35 153.469 180.987V169.277L151.627 163.192L147.9 163.597L150.063 164.505Z" fill="#F65D51"/>
<path d="M150.063 164.505L147.97 170.387L150.056 181.938C151.215 181.667 152.353 181.35 153.469 180.987V169.277L151.627 163.192L147.899 163.597L150.063 164.505Z" fill="url(#paint2_linear_9654_1288)"/>
<path d="M143.634 162.372L146.765 163.31V163.193L146.937 163.192L143.811 161.877L136.685 181.892L139.219 182.954C139.569 182.969 139.922 182.979 140.277 182.983L143.634 162.372Z" fill="#F65D51"/>
<path d="M146.762 163.31L147.768 163.61L147.9 163.597L146.937 163.19H146.762V163.31Z" fill="#F65D51"/>
<path d="M146.762 163.31L147.768 163.61L147.9 163.597L146.937 163.19H146.762V163.31Z" fill="url(#paint3_linear_9654_1288)"/>
<path d="M146.762 163.31L147.768 163.61L147.9 163.597L146.937 163.19H146.762V163.31Z" fill="url(#paint4_linear_9654_1288)"/>
<path d="M147.899 163.597L147.768 163.613L148.344 163.787L148.041 170.184L147.97 170.387L150.062 164.508L147.899 163.597Z" fill="#F65D51"/>
<path d="M147.899 163.597L147.768 163.613L148.344 163.787L148.041 170.184L147.97 170.387L150.062 164.508L147.899 163.597Z" fill="#F65D51"/>
<path d="M147.899 163.597L147.768 163.613L148.344 163.787L148.041 170.184L147.97 170.387L150.062 164.508L147.899 163.597Z" fill="#F65D51"/>
<path d="M146.762 163.721L146.762 163.31L143.634 162.37L140.272 182.988H140.831C141.73 182.988 142.623 182.959 143.509 182.902L146.19 175.377L146.76 173.774L146.762 163.721Z" fill="#F65D51"/>
<path d="M146.762 163.721L146.762 163.31L143.634 162.37L140.272 182.988H140.831C141.73 182.988 142.623 182.959 143.509 182.902L146.19 175.377L146.76 173.774L146.762 163.721Z" fill="url(#paint5_linear_9654_1288)"/>
<path d="M146.762 173.771L147.967 170.387L146.762 163.719V173.771Z" fill="#F65D51"/>
<path d="M146.762 173.771L147.967 170.387L146.762 163.719V173.771Z" fill="#F65D51"/>
<path d="M146.762 173.771L147.967 170.387L146.762 163.719V173.771Z" fill="#F65D51"/>
<path d="M147.768 163.61L146.762 163.31L146.762 163.721L147.768 163.61Z" fill="#F65D51"/>
<path d="M147.768 163.61L146.762 163.31L146.762 163.721L147.768 163.61Z" fill="#F65D51"/>
<path d="M147.768 163.61L146.762 163.31L146.762 163.721L147.768 163.61Z" fill="#F65D51"/>
<path d="M146.762 163.721L147.967 170.389L148.041 170.184L148.344 163.787L147.768 163.61L146.762 163.721Z" fill="#F65D51"/>
<path d="M146.762 163.721L147.967 170.389L148.041 170.184L148.344 163.787L147.768 163.61L146.762 163.721Z" fill="#F65D51"/>
<path d="M146.762 163.721L147.967 170.389L148.041 170.184L148.344 163.787L147.768 163.61L146.762 163.721Z" fill="#F65D51"/>
<path d="M146.19 175.374L143.512 182.902C144.599 182.831 145.682 182.716 146.76 182.558L146.76 173.774L146.19 175.374Z" fill="#F65D51"/>
<path d="M153.468 163.192H151.626L153.468 169.28V163.192Z" fill="#F65D51"/>
<path d="M153.468 163.192H151.626L153.468 169.28V163.192Z" fill="url(#paint6_linear_9654_1288)"/>
<path d="M151.626 163.192H146.935L147.899 163.597L151.626 163.192Z" fill="#F65D51"/>
<path d="M151.626 163.192H146.935L147.899 163.597L151.626 163.192Z" fill="#F65D51"/>
<path d="M147.965 170.389L146.76 173.774L146.76 182.558C147.872 182.396 148.97 182.189 150.054 181.938L147.965 170.389ZM150.061 164.505L147.965 170.389L150.054 181.938C151.211 181.667 152.349 181.35 153.467 180.987V169.277L151.625 163.192L147.895 163.597L150.061 164.505Z" fill="#F65D51"/>
<path d="M150.061 164.505L147.964 170.387L150.054 181.938C151.211 181.667 152.349 181.35 153.467 180.987V169.277L151.625 163.192L147.895 163.597L150.061 164.505Z" fill="#F65D51"/>
<path d="M143.634 162.372L146.762 163.31L146.763 163.193L146.937 163.192L143.808 161.877L136.683 181.892L139.219 182.954C139.569 182.969 139.921 182.979 140.275 182.983L143.634 162.372Z" fill="#F65D51"/>
<path d="M146.76 163.31L147.766 163.61L147.897 163.597L146.934 163.19H146.76V163.31Z" fill="#F65D51"/>
<path d="M146.76 163.31L147.766 163.61L147.897 163.597L146.934 163.19H146.76V163.31Z" fill="url(#paint7_linear_9654_1288)"/>
<path d="M146.76 163.31L147.766 163.61L147.897 163.597L146.934 163.19H146.76V163.31Z" fill="url(#paint8_linear_9654_1288)"/>
<path d="M147.897 163.597L147.766 163.613L148.344 163.787L148.039 170.184L147.967 170.387L150.06 164.508L147.897 163.597Z" fill="#F65D51"/>
<path d="M147.897 163.597L147.766 163.613L148.344 163.787L148.039 170.184L147.967 170.387L150.06 164.508L147.897 163.597Z" fill="url(#paint9_linear_9654_1288)"/>
<path d="M147.897 163.597L147.766 163.613L148.344 163.787L148.039 170.184L147.967 170.387L150.06 164.508L147.897 163.597Z" fill="#F65D51"/>
<path d="M146.76 163.721L146.76 163.31L143.632 162.37L140.272 182.988H140.831C141.732 182.988 142.626 182.957 143.512 182.9L146.19 175.374L146.76 173.774V163.721Z" fill="#F65D51"/>
<path d="M146.76 163.721L146.76 163.31L143.632 162.37L140.272 182.988H140.831C141.732 182.988 142.625 182.959 143.512 182.902L146.19 175.377L146.76 173.774V163.721Z" fill="#F65D51"/>
<path d="M146.76 173.771L147.964 170.387L146.76 163.719V173.771Z" fill="#F65D51"/>
<path d="M146.76 173.771L147.964 170.387L146.76 163.719V173.771Z" fill="#F65D51"/>
<path d="M146.76 173.771L147.964 170.387L146.76 163.719V173.771Z" fill="#F65D51"/>
<path d="M147.766 163.61L146.76 163.31L146.76 163.721L147.766 163.61Z" fill="#F65D51"/>
<path d="M147.766 163.61L146.76 163.31L146.76 163.721L147.766 163.61Z" fill="#F65D51"/>
<path d="M147.766 163.61L146.76 163.31L146.76 163.721L147.766 163.61Z" fill="#F65D51"/>
<path d="M146.76 163.721L147.965 170.389L148.039 170.184L148.343 163.787L147.766 163.61L146.76 163.721Z" fill="#F65D51"/>
<path d="M146.76 163.721L147.965 170.389L148.039 170.184L148.343 163.787L147.766 163.61L146.76 163.721Z" fill="#F65D51"/>
<path d="M146.76 163.721L147.965 170.389L148.039 170.184L148.343 163.787L147.766 163.61L146.76 163.721Z" fill="#F65D51"/>
<path d="M134.486 86.9025C134.486 86.9025 139.199 85.406 139.032 80.0825C139.032 80.0825 141.249 85.5168 137.7 88.3447L134.486 86.9025Z" fill="#F65D51"/>
<path d="M136.361 88.2268C136.361 88.2268 141.287 88.6789 143.202 83.708C143.202 83.708 143.134 89.5763 138.764 90.8038L136.361 88.2268ZM130.936 85.0711C130.936 85.0711 135.81 85.903 138.102 81.0949C138.102 81.0949 137.582 86.9406 133.133 87.8267L130.936 85.0711Z" fill="#F65D51"/>
<path d="M122.422 101.37C123.569 103.006 125.154 104.285 126.995 105.061H126.99C126.583 114.741 107.699 111.872 107.699 131.184C107.699 136.021 109.401 140.463 112.243 143.94C113.25 145.172 114.399 146.282 115.665 147.247L117.964 148.761L168.713 182.187C172.379 176.628 174.327 170.112 174.314 163.452C174.314 152.209 168.873 142.237 160.48 136.026C151.377 129.285 142.997 128.593 132.167 130.307C131.082 130.48 129.972 130.415 128.915 130.118C127.857 129.82 126.876 129.297 126.041 128.583C125.205 127.87 124.534 126.984 124.074 125.986C123.614 124.988 123.376 123.903 123.376 122.804C123.376 112.589 142.052 116.337 142.052 97.7259C142.052 94.412 140.883 84.7506 131.082 84.7506C128.234 84.7506 125.521 85.8922 123.532 87.9266C121.596 89.8989 120.513 92.5528 120.516 95.3162C120.516 97.5677 121.222 99.6564 122.422 101.37Z" fill="#F65D51"/>
<path d="M122.422 101.37C123.569 103.007 125.154 104.287 126.995 105.063L126.99 105.061L128.387 109.917L129.366 115.245C134.828 112.229 142.052 109.302 142.052 97.7259C142.052 94.412 140.886 84.7506 131.084 84.7506C128.234 84.7506 125.523 85.8944 123.534 87.9289C121.599 89.9006 120.516 92.5536 120.519 95.3162C120.519 97.5677 121.219 99.6564 122.422 101.37Z" fill="#F65D51"/>
<path fill-rule="evenodd" clip-rule="evenodd" d="M137.452 110C140.097 107.428 142.052 103.75 142.052 97.7259C142.052 94.412 140.886 84.7506 131.084 84.7506C128.234 84.7506 125.523 85.8944 123.534 87.9289C121.599 89.9006 120.516 92.5536 120.519 95.3162C120.522 96.2159 120.629 97.0824 120.84 97.9158C120.846 97.9113 137.14 86.9975 137.452 109.998" fill="#F65D51"/>
<path fill-rule="evenodd" clip-rule="evenodd" d="M171.331 189.258C173.515 186.347 175.264 183.134 176.523 179.719L122.09 137.504C122.717 138.331 123.741 139.303 124.952 140.578L171.331 189.258Z" fill="#F65D51"/>
<path d="M120.175 150.217C107.446 126.536 128.055 115.993 128.055 115.993C128.477 115.741 128.913 115.491 129.364 115.242C134.369 108.924 129.348 106.054 127.565 105.283C127.378 105.2 127.188 105.126 126.995 105.061H126.99C126.583 114.741 107.699 111.872 107.699 131.184C107.699 136.021 109.401 140.463 112.243 143.937C113.25 145.171 114.399 146.281 115.665 147.247L117.964 148.761L120.175 150.217Z" fill="#F65D51"/>
<path fill-rule="evenodd" clip-rule="evenodd" d="M117.105 142.85C111.748 124.336 128.055 115.995 128.055 115.995C128.055 115.995 110.034 123.988 117.103 142.841L117.105 142.85Z" fill="#F65D51"/>
<path fill-rule="evenodd" clip-rule="evenodd" d="M120.598 112.551C114.98 115.754 107.699 119.192 107.699 131.184C107.699 134.988 108.753 138.547 110.581 141.582C104.114 122.061 120.598 112.551 120.598 112.551Z" fill="#F65D51"/>
<path fill-rule="evenodd" clip-rule="evenodd" d="M123.607 87.8543C124.8 87.5898 139.03 84.7438 141.458 97.3258C141.682 98.4832 141.806 99.7671 141.81 101.198C141.97 100.137 142.051 98.9805 142.052 97.7282C142.047 95.9164 141.773 94.1155 141.239 92.3843C141.073 91.8489 140.874 91.3242 140.644 90.8133C139.229 87.6486 136.451 84.7506 131.084 84.7506C128.327 84.75 125.679 85.8282 123.706 87.7548L123.607 87.8543Z" fill="#F65D51"/>
<path fill-rule="evenodd" clip-rule="evenodd" d="M120.177 150.217C120.177 150.217 114.607 135.216 126.055 128.591C125.216 127.878 124.542 126.991 124.08 125.992C123.618 124.992 123.378 123.905 123.378 122.804C123.378 119.465 125.372 117.618 128.057 115.995C128.057 115.995 107.446 126.536 120.177 150.217Z" fill="#F65D51"/>
<path fill-rule="evenodd" clip-rule="evenodd" d="M122.412 137.902C125.504 142.807 135.374 158.829 131.465 157.652L157.66 174.906L155.739 172.89L124.953 140.576C123.929 139.5 123.043 138.641 122.412 137.902Z" fill="#F65D51"/>
<path fill-rule="evenodd" clip-rule="evenodd" d="M151.553 132.865C166.965 138.444 177.978 153.209 177.978 170.547C177.977 172.591 177.828 174.593 177.533 176.554C178.396 173.355 178.831 170.056 178.828 166.743C178.828 150.492 168.504 136.653 154.06 131.425C149.961 129.944 145.635 129.188 141.277 129.191C136.267 129.191 131.489 130.173 127.117 131.954C130.632 130.974 134.264 130.48 137.913 130.484C142.701 130.484 147.294 131.321 151.553 132.865Z" fill="#F65D51"/>
<path fill-rule="evenodd" clip-rule="evenodd" d="M127.567 105.283C129.348 106.054 134.371 108.924 129.364 115.245C129.931 114.934 130.509 114.621 131.1 114.304C134.278 108.895 130.311 106.384 128.179 105.479C127.795 105.313 127.399 105.173 126.995 105.061C127.029 105.073 127.244 105.145 127.567 105.283Z" fill="#F65D51"/>
<path fill-rule="evenodd" clip-rule="evenodd" d="M128.533 110.708C129.43 112.539 129.366 115.245 129.366 115.245C134.369 108.927 129.348 106.056 127.567 105.283C127.38 105.2 127.191 105.126 126.998 105.061L126.99 105.061C126.918 106.793 126.254 108.124 125.212 109.252C126.932 108.676 127.938 109.501 128.533 110.708Z" fill="#F65D51"/>
<path fill-rule="evenodd" clip-rule="evenodd" d="M155.739 172.89L157.658 174.904L122.989 136.625C122.989 136.625 121.424 135.015 124.684 133.053C119.403 135.669 121.329 136.776 124.953 140.581L155.739 172.89Z" fill="#F65D51"/>
<path d="M123.535 87.9054V87.8703H123.528L123.53 87.9077L123.535 87.9054Z" fill="#F65D51"/>
<path d="M123.534 87.9994L123.712 87.8096L123.705 87.753L123.534 87.9V87.9994ZM120.877 92.5837L121.022 92.4707L121.058 92.4549C121.513 90.7663 122.374 89.245 123.531 88.0017V87.9294C122.261 89.2274 121.347 90.8313 120.877 92.586" fill="#F65D51"/>
<path d="M91.1482 116.025C94.505 115.907 105.355 114.409 122.424 101.368C121.543 100.104 120.947 98.6637 120.68 97.1464C120.413 95.6291 120.48 94.0722 120.877 92.5837L91.1482 116.025Z" fill="#F65D51"/>
<path d="M123.529 87.9042L123.525 87.8703L90.1982 116.023H90.2389L123.529 87.9042Z" fill="#F65D51"/>
<path d="M91.1463 116.025L120.879 92.5832C121.349 90.8283 122.263 89.2243 123.535 87.9265L123.529 87.9042L90.2421 116.025C90.4229 116.031 90.7258 116.04 91.1463 116.025Z" fill="#F65D51"/>
<path d="M182.5 141.865C182.5 119.402 164.289 101.196 141.831 101.196C119.368 101.196 101.162 119.402 101.162 141.863C101.162 164.323 118.502 181.652 140.215 182.5L137.681 181.435L144.806 161.423L147.932 162.736H154.465V180.531C170.74 175.216 182.497 159.913 182.497 141.863" fill="#F65D51" fill-opacity="0.2"/>
<defs>
<filter id="filter0_f_9654_1288" x="0.370117" y="0" width="270.259" height="270" filterUnits="userSpaceOnUse" color-interpolation-filters="sRGB">
<feFlood flood-opacity="0" result="BackgroundImageFix"/>
<feBlend mode="normal" in="SourceGraphic" in2="BackgroundImageFix" result="shape"/>
<feGaussianBlur stdDeviation="25" result="effect1_foregroundBlur_9654_1288"/>
</filter>
<linearGradient id="paint0_linear_9654_1288" x1="50.3701" y1="50" x2="220.629" y2="220" gradientUnits="userSpaceOnUse">
<stop offset="0.425" stop-color="#FFC17B"/>
<stop offset="1" stop-color="#F65D51"/>
</linearGradient>
<linearGradient id="paint1_linear_9654_1288" x1="183.939" y1="242.082" x2="202.445" y2="678.677" gradientUnits="userSpaceOnUse">
<stop stop-color="#0067AF"/>
<stop offset="1" stop-color="#3AB6A8"/>
</linearGradient>
<linearGradient id="paint2_linear_9654_1288" x1="139.909" y1="134.374" x2="145.809" y2="276.159" gradientUnits="userSpaceOnUse">
<stop stop-color="#0067AF"/>
<stop offset="1" stop-color="#3AB6A8"/>
</linearGradient>
<linearGradient id="paint3_linear_9654_1288" x1="217.417" y1="2578.79" x2="2315.03" y2="8117.56" gradientUnits="userSpaceOnUse">
<stop stop-color="#0067AF"/>
<stop offset="1" stop-color="#3AB6A8"/>
</linearGradient>
<linearGradient id="paint4_linear_9654_1288" x1="181.471" y1="-339.598" x2="-4217.35" y2="3687.39" gradientUnits="userSpaceOnUse">
<stop stop-color="#0067AF"/>
<stop offset="1" stop-color="#3AB6A8"/>
</linearGradient>
<linearGradient id="paint5_linear_9654_1288" x1="187.441" y1="74.9356" x2="164.9" y2="252.183" gradientUnits="userSpaceOnUse">
<stop stop-color="#0067AF"/>
<stop offset="1" stop-color="#3AB6A8"/>
</linearGradient>
<linearGradient id="paint6_linear_9654_1288" x1="183.939" y1="242.082" x2="202.445" y2="678.677" gradientUnits="userSpaceOnUse">
<stop stop-color="#0067AF"/>
<stop offset="1" stop-color="#3AB6A8"/>
</linearGradient>
<linearGradient id="paint7_linear_9654_1288" x1="217.417" y1="2578.79" x2="2315.03" y2="8117.56" gradientUnits="userSpaceOnUse">
<stop stop-color="#0067AF"/>
<stop offset="1" stop-color="#3AB6A8"/>
</linearGradient>
<linearGradient id="paint8_linear_9654_1288" x1="181.471" y1="-339.598" x2="-4217.35" y2="3687.39" gradientUnits="userSpaceOnUse">
<stop stop-color="#0067AF"/>
<stop offset="1" stop-color="#3AB6A8"/>
</linearGradient>
<linearGradient id="paint9_linear_9654_1288" x1="161.364" y1="226.038" x2="179.878" y2="617.295" gradientUnits="userSpaceOnUse">
<stop stop-color="#0067AF"/>
<stop offset="1" stop-color="#3AB6A8"/>
</linearGradient>
</defs>
</svg>
