<svg width="271" height="270" viewBox="0 0 271 270" fill="none" xmlns="http://www.w3.org/2000/svg">
<g filter="url(#filter0_f_9832_3380)">
<path d="M135.499 220C182.514 220 220.628 181.944 220.628 135C220.628 88.0558 182.514 50 135.499 50C88.4829 50 50.3691 88.0558 50.3691 135C50.3691 181.944 88.4829 220 135.499 220Z" fill="url(#paint0_linear_9832_3380)"/>
<path d="M220.128 135C220.128 181.667 182.239 219.5 135.499 219.5C88.7583 219.5 50.8691 181.667 50.8691 135C50.8691 88.3326 88.7583 50.5 135.499 50.5C182.239 50.5 220.128 88.3326 220.128 135Z" stroke="#66E070"/>
</g>
<path d="M220.128 135C220.128 181.667 182.239 219.5 135.499 219.5C88.7583 219.5 50.8691 181.667 50.8691 135C50.8691 88.3326 88.7583 50.5 135.499 50.5C182.239 50.5 220.128 88.3326 220.128 135Z" fill="white" fill-opacity="0.5" stroke="#66E070"/>
<path d="M145.192 175.374L142.511 182.902C143.608 182.83 144.691 182.715 145.761 182.558V173.774L145.192 175.374Z" fill="#66E070"/>
<path d="M152.47 163.192H150.627L152.47 169.28V163.192Z" fill="#66E070"/>
<path d="M152.47 163.192H150.627L152.47 169.28V163.192Z" fill="url(#paint1_linear_9832_3380)"/>
<path d="M150.627 163.192H145.936L146.899 163.597L150.627 163.192Z" fill="#66E070"/>
<path d="M150.627 163.192H145.936L146.899 163.597L150.627 163.192Z" fill="#66E070"/>
<path d="M146.966 170.389L145.761 173.774V182.558C146.873 182.396 147.972 182.189 149.055 181.938L146.966 170.389ZM149.062 164.505L146.969 170.387L149.055 181.938C150.214 181.667 151.352 181.35 152.468 180.987V169.277L150.626 163.192L146.899 163.597L149.062 164.505Z" fill="#66E070"/>
<path d="M149.062 164.505L146.969 170.387L149.055 181.938C150.214 181.667 151.352 181.35 152.468 180.987V169.277L150.626 163.192L146.898 163.597L149.062 164.505Z" fill="url(#paint2_linear_9832_3380)"/>
<path d="M142.633 162.372L145.764 163.31V163.193L145.936 163.192L142.81 161.877L135.684 181.892L138.218 182.954C138.568 182.969 138.921 182.979 139.276 182.983L142.633 162.372Z" fill="#66E070"/>
<path d="M145.762 163.31L146.767 163.61L146.899 163.597L145.936 163.19H145.762V163.31Z" fill="#66E070"/>
<path d="M145.762 163.31L146.767 163.61L146.899 163.597L145.936 163.19H145.762V163.31Z" fill="url(#paint3_linear_9832_3380)"/>
<path d="M145.762 163.31L146.767 163.61L146.899 163.597L145.936 163.19H145.762V163.31Z" fill="url(#paint4_linear_9832_3380)"/>
<path d="M146.898 163.597L146.767 163.613L147.343 163.787L147.04 170.184L146.969 170.387L149.061 164.508L146.898 163.597Z" fill="#66E070"/>
<path d="M146.898 163.597L146.767 163.613L147.343 163.787L147.04 170.184L146.969 170.387L149.061 164.508L146.898 163.597Z" fill="#66E070"/>
<path d="M146.898 163.597L146.767 163.613L147.343 163.787L147.04 170.184L146.969 170.387L149.061 164.508L146.898 163.597Z" fill="#66E070"/>
<path d="M145.761 163.721L145.762 163.31L142.633 162.37L139.271 182.988H139.83C140.729 182.988 141.622 182.959 142.508 182.902L145.189 175.377L145.759 173.774L145.761 163.721Z" fill="#66E070"/>
<path d="M145.761 163.721L145.762 163.31L142.633 162.37L139.271 182.988H139.83C140.729 182.988 141.622 182.959 142.508 182.902L145.189 175.377L145.759 173.774L145.761 163.721Z" fill="url(#paint5_linear_9832_3380)"/>
<path d="M145.762 173.771L146.966 170.387L145.762 163.719V173.771Z" fill="#66E070"/>
<path d="M145.762 173.771L146.966 170.387L145.762 163.719V173.771Z" fill="#66E070"/>
<path d="M145.762 173.771L146.966 170.387L145.762 163.719V173.771Z" fill="#66E070"/>
<path d="M146.767 163.61L145.762 163.31L145.761 163.721L146.767 163.61Z" fill="#66E070"/>
<path d="M146.767 163.61L145.762 163.31L145.761 163.721L146.767 163.61Z" fill="#66E070"/>
<path d="M146.767 163.61L145.762 163.31L145.761 163.721L146.767 163.61Z" fill="#66E070"/>
<path d="M145.761 163.721L146.966 170.389L147.04 170.184L147.343 163.787L146.767 163.61L145.761 163.721Z" fill="#66E070"/>
<path d="M145.761 163.721L146.966 170.389L147.04 170.184L147.343 163.787L146.767 163.61L145.761 163.721Z" fill="#66E070"/>
<path d="M145.761 163.721L146.966 170.389L147.04 170.184L147.343 163.787L146.767 163.61L145.761 163.721Z" fill="#66E070"/>
<path d="M145.189 175.374L142.511 182.902C143.598 182.831 144.681 182.716 145.759 182.558L145.759 173.774L145.189 175.374Z" fill="#66E070"/>
<path d="M152.467 163.192H150.625L152.467 169.28V163.192Z" fill="#66E070"/>
<path d="M152.467 163.192H150.625L152.467 169.28V163.192Z" fill="url(#paint6_linear_9832_3380)"/>
<path d="M150.625 163.192H145.934L146.898 163.597L150.625 163.192Z" fill="#66E070"/>
<path d="M150.625 163.192H145.934L146.898 163.597L150.625 163.192Z" fill="#66E070"/>
<path d="M146.964 170.389L145.759 173.774L145.759 182.558C146.871 182.396 147.969 182.189 149.053 181.938L146.964 170.389ZM149.06 164.505L146.964 170.389L149.053 181.938C150.21 181.667 151.348 181.35 152.466 180.987V169.277L150.624 163.192L146.894 163.597L149.06 164.505Z" fill="#66E070"/>
<path d="M149.06 164.505L146.963 170.387L149.053 181.938C150.21 181.667 151.348 181.35 152.466 180.987V169.277L150.624 163.192L146.894 163.597L149.06 164.505Z" fill="#66E070"/>
<path d="M142.633 162.372L145.762 163.31L145.762 163.193L145.936 163.192L142.807 161.877L135.682 181.892L138.218 182.954C138.568 182.969 138.92 182.979 139.274 182.983L142.633 162.372Z" fill="#66E070"/>
<path d="M145.759 163.31L146.765 163.61L146.896 163.597L145.933 163.19H145.759V163.31Z" fill="#66E070"/>
<path d="M145.759 163.31L146.765 163.61L146.896 163.597L145.933 163.19H145.759V163.31Z" fill="url(#paint7_linear_9832_3380)"/>
<path d="M145.759 163.31L146.765 163.61L146.896 163.597L145.933 163.19H145.759V163.31Z" fill="url(#paint8_linear_9832_3380)"/>
<path d="M146.896 163.597L146.765 163.613L147.343 163.787L147.038 170.184L146.966 170.387L149.059 164.508L146.896 163.597Z" fill="#66E070"/>
<path d="M146.896 163.597L146.765 163.613L147.343 163.787L147.038 170.184L146.966 170.387L149.059 164.508L146.896 163.597Z" fill="url(#paint9_linear_9832_3380)"/>
<path d="M146.896 163.597L146.765 163.613L147.343 163.787L147.038 170.184L146.966 170.387L149.059 164.508L146.896 163.597Z" fill="#66E070"/>
<path d="M145.759 163.721L145.759 163.31L142.631 162.37L139.271 182.988H139.83C140.731 182.988 141.625 182.957 142.511 182.9L145.189 175.374L145.759 173.774V163.721Z" fill="#66E070"/>
<path d="M145.759 163.721L145.759 163.31L142.631 162.37L139.271 182.988H139.83C140.731 182.988 141.625 182.959 142.511 182.902L145.189 175.377L145.759 173.774V163.721Z" fill="#66E070"/>
<path d="M145.759 173.771L146.963 170.387L145.759 163.719V173.771Z" fill="#66E070"/>
<path d="M145.759 173.771L146.963 170.387L145.759 163.719V173.771Z" fill="#66E070"/>
<path d="M145.759 173.771L146.963 170.387L145.759 163.719V173.771Z" fill="#66E070"/>
<path d="M146.765 163.61L145.759 163.31L145.759 163.721L146.765 163.61Z" fill="#66E070"/>
<path d="M146.765 163.61L145.759 163.31L145.759 163.721L146.765 163.61Z" fill="#66E070"/>
<path d="M146.765 163.61L145.759 163.31L145.759 163.721L146.765 163.61Z" fill="#66E070"/>
<path d="M145.759 163.721L146.964 170.389L147.038 170.184L147.342 163.787L146.765 163.61L145.759 163.721Z" fill="#66E070"/>
<path d="M145.759 163.721L146.964 170.389L147.038 170.184L147.342 163.787L146.765 163.61L145.759 163.721Z" fill="#66E070"/>
<path d="M145.759 163.721L146.964 170.389L147.038 170.184L147.342 163.787L146.765 163.61L145.759 163.721Z" fill="#66E070"/>
<path d="M133.485 86.9025C133.485 86.9025 138.198 85.406 138.031 80.0825C138.031 80.0825 140.248 85.5168 136.699 88.3447L133.485 86.9025Z" fill="#66E070"/>
<path d="M135.36 88.2268C135.36 88.2268 140.286 88.6789 142.201 83.708C142.201 83.708 142.133 89.5763 137.763 90.8038L135.36 88.2268ZM129.935 85.0711C129.935 85.0711 134.809 85.903 137.101 81.0949C137.101 81.0949 136.581 86.9406 132.132 87.8267L129.935 85.0711Z" fill="#66E070"/>
<path d="M121.421 101.37C122.568 103.006 124.153 104.285 125.994 105.061H125.989C125.583 114.741 106.698 111.872 106.698 131.184C106.698 136.021 108.4 140.463 111.242 143.94C112.249 145.172 113.398 146.282 114.664 147.247L116.963 148.761L167.712 182.187C171.378 176.628 173.326 170.112 173.313 163.452C173.313 152.209 167.872 142.237 159.479 136.026C150.376 129.285 141.996 128.593 131.166 130.307C130.081 130.48 128.971 130.415 127.914 130.118C126.856 129.82 125.875 129.297 125.04 128.583C124.204 127.87 123.533 126.984 123.073 125.986C122.613 124.988 122.375 123.903 122.375 122.804C122.375 112.589 141.051 116.337 141.051 97.7259C141.051 94.412 139.882 84.7506 130.081 84.7506C127.233 84.7506 124.52 85.8922 122.531 87.9266C120.595 89.8989 119.512 92.5528 119.515 95.3162C119.515 97.5677 120.221 99.6564 121.421 101.37Z" fill="#66E070"/>
<path d="M121.421 101.37C122.568 103.007 124.153 104.287 125.994 105.063L125.989 105.061L127.386 109.917L128.365 115.245C133.827 112.229 141.051 109.302 141.051 97.7259C141.051 94.412 139.885 84.7506 130.083 84.7506C127.233 84.7506 124.522 85.8944 122.533 87.9289C120.598 89.9006 119.515 92.5536 119.518 95.3162C119.518 97.5677 120.218 99.6564 121.421 101.37Z" fill="#66E070"/>
<path fill-rule="evenodd" clip-rule="evenodd" d="M136.451 110C139.096 107.428 141.051 103.75 141.051 97.7259C141.051 94.412 139.885 84.7506 130.083 84.7506C127.233 84.7506 124.522 85.8944 122.533 87.9289C120.598 89.9006 119.515 92.5536 119.518 95.3162C119.521 96.2159 119.628 97.0824 119.839 97.9158C119.845 97.9113 136.139 86.9975 136.451 109.998" fill="#66E070"/>
<path fill-rule="evenodd" clip-rule="evenodd" d="M170.33 189.258C172.514 186.347 174.263 183.134 175.522 179.719L121.089 137.504C121.716 138.331 122.74 139.303 123.951 140.578L170.33 189.258Z" fill="#66E070"/>
<path d="M119.174 150.217C106.445 126.536 127.054 115.993 127.054 115.993C127.476 115.741 127.912 115.491 128.363 115.242C133.368 108.924 128.347 106.054 126.564 105.283C126.377 105.2 126.187 105.126 125.994 105.061H125.989C125.583 114.741 106.698 111.872 106.698 131.184C106.698 136.021 108.4 140.463 111.242 143.937C112.249 145.171 113.398 146.281 114.664 147.247L116.963 148.761L119.174 150.217Z" fill="#66E070"/>
<path fill-rule="evenodd" clip-rule="evenodd" d="M116.104 142.85C110.747 124.336 127.054 115.995 127.054 115.995C127.054 115.995 109.033 123.988 116.102 142.841L116.104 142.85Z" fill="#66E070"/>
<path fill-rule="evenodd" clip-rule="evenodd" d="M119.597 112.551C113.979 115.754 106.698 119.192 106.698 131.184C106.698 134.988 107.752 138.547 109.58 141.582C103.113 122.061 119.597 112.551 119.597 112.551Z" fill="#66E070"/>
<path fill-rule="evenodd" clip-rule="evenodd" d="M122.606 87.8543C123.799 87.5898 138.029 84.7438 140.457 97.3258C140.681 98.4832 140.805 99.7671 140.809 101.198C140.969 100.137 141.05 98.9805 141.051 97.7282C141.046 95.9164 140.772 94.1155 140.238 92.3843C140.072 91.8489 139.873 91.3242 139.643 90.8133C138.228 87.6486 135.45 84.7506 130.083 84.7506C127.326 84.75 124.678 85.8282 122.705 87.7548L122.606 87.8543Z" fill="#66E070"/>
<path fill-rule="evenodd" clip-rule="evenodd" d="M119.176 150.217C119.176 150.217 113.606 135.216 125.054 128.591C124.215 127.878 123.541 126.991 123.079 125.992C122.617 124.992 122.377 123.905 122.377 122.804C122.377 119.465 124.371 117.618 127.056 115.995C127.056 115.995 106.445 126.536 119.176 150.217Z" fill="#66E070"/>
<path fill-rule="evenodd" clip-rule="evenodd" d="M121.411 137.902C124.503 142.807 134.373 158.829 130.464 157.652L156.659 174.906L154.738 172.89L123.952 140.576C122.928 139.5 122.042 138.641 121.411 137.902Z" fill="#66E070"/>
<path fill-rule="evenodd" clip-rule="evenodd" d="M150.552 132.865C165.964 138.444 176.977 153.209 176.977 170.547C176.976 172.591 176.827 174.593 176.532 176.554C177.395 173.355 177.83 170.056 177.827 166.743C177.827 150.492 167.503 136.653 153.059 131.425C148.96 129.944 144.634 129.188 140.276 129.191C135.266 129.191 130.488 130.173 126.116 131.954C129.631 130.974 133.263 130.48 136.912 130.484C141.7 130.484 146.293 131.321 150.552 132.865Z" fill="#66E070"/>
<path fill-rule="evenodd" clip-rule="evenodd" d="M126.566 105.283C128.347 106.054 133.37 108.924 128.363 115.245C128.93 114.934 129.508 114.621 130.099 114.304C133.277 108.895 129.31 106.384 127.178 105.479C126.794 105.313 126.398 105.173 125.994 105.061C126.028 105.073 126.243 105.145 126.566 105.283Z" fill="#66E070"/>
<path fill-rule="evenodd" clip-rule="evenodd" d="M127.532 110.708C128.429 112.539 128.365 115.245 128.365 115.245C133.368 108.927 128.347 106.056 126.566 105.283C126.379 105.2 126.19 105.126 125.997 105.061L125.989 105.061C125.917 106.793 125.253 108.124 124.211 109.252C125.931 108.676 126.937 109.501 127.532 110.708Z" fill="#66E070"/>
<path fill-rule="evenodd" clip-rule="evenodd" d="M154.738 172.89L156.657 174.904L121.988 136.625C121.988 136.625 120.423 135.015 123.683 133.053C118.402 135.669 120.328 136.776 123.952 140.581L154.738 172.89Z" fill="#66E070"/>
<path d="M122.534 87.9054V87.8703H122.527L122.529 87.9077L122.534 87.9054Z" fill="#66E070"/>
<path d="M122.533 87.9994L122.711 87.8096L122.704 87.753L122.533 87.9V87.9994ZM119.876 92.5837L120.021 92.4707L120.057 92.4549C120.512 90.7663 121.373 89.245 122.53 88.0017V87.9294C121.26 89.2274 120.346 90.8313 119.876 92.586" fill="#66E070"/>
<path d="M90.1472 116.025C93.504 115.907 104.354 114.409 121.424 101.368C120.542 100.104 119.946 98.6637 119.679 97.1464C119.412 95.6291 119.479 94.0722 119.876 92.5837L90.1472 116.025Z" fill="#66E070"/>
<path d="M122.528 87.9042L122.524 87.8703L89.1973 116.023H89.238L122.528 87.9042Z" fill="#66E070"/>
<path d="M90.1453 116.025L119.878 92.5832C120.348 90.8283 121.263 89.2243 122.534 87.9265L122.528 87.9042L89.2411 116.025C89.4219 116.031 89.7249 116.04 90.1453 116.025Z" fill="#66E070"/>
<path d="M181.498 141.865C181.498 119.402 163.287 101.196 140.829 101.196C118.366 101.196 100.16 119.402 100.16 141.863C100.16 164.323 117.5 181.652 139.213 182.5L136.679 181.435L143.804 161.423L146.93 162.736H153.463V180.531C169.738 175.216 181.495 159.913 181.495 141.863" fill="#66E070" fill-opacity="0.3"/>
<defs>
<filter id="filter0_f_9832_3380" x="0.369141" y="0" width="270.26" height="270" filterUnits="userSpaceOnUse" color-interpolation-filters="sRGB">
<feFlood flood-opacity="0" result="BackgroundImageFix"/>
<feBlend mode="normal" in="SourceGraphic" in2="BackgroundImageFix" result="shape"/>
<feGaussianBlur stdDeviation="25" result="effect1_foregroundBlur_9832_3380"/>
</filter>
<linearGradient id="paint0_linear_9832_3380" x1="50.3691" y1="50" x2="220.628" y2="220" gradientUnits="userSpaceOnUse">
<stop offset="0.425" stop-color="#A3F5AA"/>
<stop offset="1" stop-color="#66E070"/>
</linearGradient>
<linearGradient id="paint1_linear_9832_3380" x1="182.938" y1="242.082" x2="201.444" y2="678.677" gradientUnits="userSpaceOnUse">
<stop stop-color="#0067AF"/>
<stop offset="1" stop-color="#3AB6A8"/>
</linearGradient>
<linearGradient id="paint2_linear_9832_3380" x1="138.908" y1="134.374" x2="144.808" y2="276.159" gradientUnits="userSpaceOnUse">
<stop stop-color="#0067AF"/>
<stop offset="1" stop-color="#3AB6A8"/>
</linearGradient>
<linearGradient id="paint3_linear_9832_3380" x1="216.416" y1="2578.79" x2="2314.03" y2="8117.56" gradientUnits="userSpaceOnUse">
<stop stop-color="#0067AF"/>
<stop offset="1" stop-color="#3AB6A8"/>
</linearGradient>
<linearGradient id="paint4_linear_9832_3380" x1="180.47" y1="-339.598" x2="-4218.35" y2="3687.39" gradientUnits="userSpaceOnUse">
<stop stop-color="#0067AF"/>
<stop offset="1" stop-color="#3AB6A8"/>
</linearGradient>
<linearGradient id="paint5_linear_9832_3380" x1="186.44" y1="74.9356" x2="163.899" y2="252.183" gradientUnits="userSpaceOnUse">
<stop stop-color="#0067AF"/>
<stop offset="1" stop-color="#3AB6A8"/>
</linearGradient>
<linearGradient id="paint6_linear_9832_3380" x1="182.938" y1="242.082" x2="201.444" y2="678.677" gradientUnits="userSpaceOnUse">
<stop stop-color="#0067AF"/>
<stop offset="1" stop-color="#3AB6A8"/>
</linearGradient>
<linearGradient id="paint7_linear_9832_3380" x1="216.416" y1="2578.79" x2="2314.03" y2="8117.56" gradientUnits="userSpaceOnUse">
<stop stop-color="#0067AF"/>
<stop offset="1" stop-color="#3AB6A8"/>
</linearGradient>
<linearGradient id="paint8_linear_9832_3380" x1="180.47" y1="-339.598" x2="-4218.35" y2="3687.39" gradientUnits="userSpaceOnUse">
<stop stop-color="#0067AF"/>
<stop offset="1" stop-color="#3AB6A8"/>
</linearGradient>
<linearGradient id="paint9_linear_9832_3380" x1="160.363" y1="226.038" x2="178.877" y2="617.295" gradientUnits="userSpaceOnUse">
<stop stop-color="#0067AF"/>
<stop offset="1" stop-color="#3AB6A8"/>
</linearGradient>
</defs>
</svg>
