<svg width="11" height="11" viewBox="0 0 11 11" fill="none" xmlns="http://www.w3.org/2000/svg">
<g id="sign-out 1">
<g id="Group">
<path id="Vector" d="M5.57072 8.83008C5.57072 8.54241 5.33755 8.30925 5.04989 8.30925H2.75822V2.68424H5.04989C5.33755 2.68424 5.57072 2.45106 5.57072 2.16341C5.57072 1.87576 5.33755 1.64258 5.04989 1.64258H2.65405C2.13629 1.64258 1.71655 2.06231 1.71655 2.58008V8.41341C1.71655 8.93116 2.13629 9.35091 2.65405 9.35091H5.04989C5.33755 9.35091 5.57072 9.11774 5.57072 8.83008Z" fill="white"/>
<path id="Vector_2" d="M6.82074 6.84436L7.64666 6.01845H4.42489C4.13724 6.01845 3.90405 5.78528 3.90405 5.49761C3.90405 5.20995 4.13724 4.97678 4.42489 4.97678H7.64666L6.8207 4.15084C6.61732 3.94744 6.61732 3.61766 6.8207 3.41427C7.02412 3.21087 7.35387 3.21087 7.55728 3.41427L9.27232 5.12932C9.37003 5.22699 9.42491 5.35949 9.42491 5.49761C9.42491 5.63574 9.37003 5.76824 9.27232 5.86591L7.55728 7.58095C7.35391 7.78432 7.02412 7.78432 6.82074 7.58095C6.61732 7.37753 6.61732 7.04778 6.82074 6.84436Z" fill="white"/>
</g>
</g>
</svg>
