<svg width="40" height="41" viewBox="0 0 40 41" fill="none" xmlns="http://www.w3.org/2000/svg">
<mask id="mask0_10495_1392" style="mask-type:alpha" maskUnits="userSpaceOnUse" x="0" y="0" width="40" height="41">
<rect y="0.5" width="40" height="40" fill="#D9D9D9"/>
</mask>
<g mask="url(#mask0_10495_1392)">
<path d="M8.33333 23.8332C7.39306 23.8332 6.6025 23.5126 5.96167 22.8715C5.32056 22.2307 5 21.4401 5 20.4998C5 19.5596 5.32056 18.769 5.96167 18.1282C6.6025 17.4871 7.39306 17.1665 8.33333 17.1665V13.1923C8.33333 12.4518 8.59694 11.8179 9.12417 11.2907C9.65139 10.7634 10.2853 10.4998 11.0258 10.4998H16.6667C16.6667 9.55956 16.9872 8.769 17.6283 8.12817C18.2692 7.48706 19.0597 7.1665 20 7.1665C20.9403 7.1665 21.7308 7.48706 22.3717 8.12817C23.0128 8.769 23.3333 9.55956 23.3333 10.4998H28.9742C29.7147 10.4998 30.3486 10.7634 30.8758 11.2907C31.4031 11.8179 31.6667 12.4518 31.6667 13.1923V17.1665C32.6069 17.1665 33.3975 17.4871 34.0383 18.1282C34.6794 18.769 35 19.5596 35 20.4998C35 21.4401 34.6794 22.2307 34.0383 22.8715C33.3975 23.5126 32.6069 23.8332 31.6667 23.8332V31.1407C31.6667 31.8812 31.4031 32.5151 30.8758 33.0423C30.3486 33.5696 29.7147 33.8332 28.9742 33.8332H11.0258C10.2853 33.8332 9.65139 33.5696 9.12417 33.0423C8.59694 32.5151 8.33333 31.8812 8.33333 31.1407V23.8332ZM14.9963 21.3332C15.4582 21.3332 15.8521 21.1715 16.1779 20.8482C16.5037 20.5248 16.6667 20.1322 16.6667 19.6703C16.6667 19.2083 16.505 18.8144 16.1817 18.4886C15.8583 18.1628 15.4657 17.9998 15.0037 17.9998C14.5418 17.9998 14.1479 18.1615 13.8221 18.4848C13.4963 18.8082 13.3333 19.2008 13.3333 19.6628C13.3333 20.1247 13.495 20.5186 13.8183 20.8444C14.1417 21.1703 14.5343 21.3332 14.9963 21.3332ZM24.9962 21.3332C25.4582 21.3332 25.8521 21.1715 26.1779 20.8482C26.5038 20.5248 26.6667 20.1322 26.6667 19.6703C26.6667 19.2083 26.505 18.8144 26.1817 18.4886C25.8583 18.1628 25.4657 17.9998 25.0037 17.9998C24.5418 17.9998 24.1479 18.1615 23.8221 18.4848C23.4963 18.8082 23.3333 19.2008 23.3333 19.6628C23.3333 20.1247 23.495 20.5186 23.8183 20.8444C24.1417 21.1703 24.5343 21.3332 24.9962 21.3332ZM14.1667 27.9998H25.8333V26.3332H14.1667V27.9998ZM11.0258 32.1665H28.9742C29.2733 32.1665 29.5192 32.0704 29.7117 31.8782C29.9039 31.6857 30 31.4398 30 31.1407V13.1923C30 12.8932 29.9039 12.6473 29.7117 12.4548C29.5192 12.2626 29.2733 12.1665 28.9742 12.1665H11.0258C10.7267 12.1665 10.4808 12.2626 10.2883 12.4548C10.0961 12.6473 10 12.8932 10 13.1923V31.1407C10 31.4398 10.0961 31.6857 10.2883 31.8782C10.4808 32.0704 10.7267 32.1665 11.0258 32.1665Z" fill="#1C1B1F"/>
</g>
</svg>
