<svg width="273" height="261" viewBox="0 0 273 261" fill="none" xmlns="http://www.w3.org/2000/svg">
<g clip-path="url(#clip0_65_304)">
<rect width="273" height="303" rx="15" fill="#F2F2F2"/>
<rect x="17" y="24" width="240" height="32" rx="10" fill="#D9D9D9"/>
<rect x="19" y="26" width="126" height="28" rx="10" fill="white"/>
<path d="M66.496 44.608C64.156 44.608 62.968 43.444 62.956 41.764H64.576C64.6 42.748 65.188 43.384 66.556 43.384C67.648 43.384 68.356 42.988 68.356 42.172C68.356 41.236 67.84 40.996 66.184 40.72C64.18 40.396 63.148 39.736 63.148 38.224C63.148 36.64 64.396 35.644 66.472 35.644C68.5 35.644 69.724 36.676 69.736 38.224H68.14C68.092 37.276 67.384 36.856 66.412 36.856C65.404 36.856 64.792 37.312 64.792 38.02C64.792 38.908 65.428 39.064 67.024 39.328C68.536 39.58 70.012 39.964 70.012 42.016C70.012 43.552 68.812 44.608 66.496 44.608ZM73.2879 44.5C72.0999 44.5 71.7759 43.96 71.7759 43.048V39.328H70.5999V38.116H71.7759V36.316L73.2639 36.16V38.116H74.6199V39.328H73.2639V42.772C73.2639 43.18 73.4319 43.276 73.8039 43.276H74.6199V44.5H73.2879ZM77.769 44.608C76.233 44.608 75.201 43.468 75.201 41.308C75.201 39.136 76.233 37.996 77.769 37.996C78.801 37.996 79.569 38.512 79.881 39.292H79.965L80.025 38.116H81.465V44.5H79.965V43.312H79.881C79.569 44.092 78.801 44.608 77.769 44.608ZM78.333 43.384C79.401 43.384 79.941 42.532 79.941 41.632V40.972C79.941 40.06 79.401 39.22 78.333 39.22C77.373 39.22 76.725 39.904 76.725 41.308C76.725 42.7 77.373 43.384 78.333 43.384ZM83.0735 44.5V35.752H84.5975V40.96L85.1375 40.348L87.2735 38.116H89.1335L86.6615 40.624L89.1935 44.5H87.4295L85.9895 42.28L85.6055 41.62L84.5975 42.616V44.5H83.0735ZM92.4775 44.608C90.5215 44.608 89.3455 43.312 89.3455 41.344C89.3455 39.304 90.5455 37.996 92.4175 37.996C94.5895 37.996 95.6215 39.556 95.4055 41.632H90.8215C90.8215 42.796 91.4815 43.456 92.4775 43.456C93.2455 43.456 93.8095 43.084 93.9535 42.508H95.3815C95.2015 43.768 94.0375 44.608 92.4775 44.608ZM92.4175 39.148C91.5175 39.148 90.9295 39.712 90.8335 40.624H93.9415C93.8935 39.616 93.2575 39.148 92.4175 39.148Z" fill="black"/>
<path d="M177.863 44.608C175.619 44.608 174.287 43.324 174.287 41.26V35.752H175.595V41.236C175.595 42.7 176.459 43.432 177.875 43.432C179.411 43.432 180.155 42.592 180.155 41.236V35.752H181.451V41.26C181.451 43.324 180.107 44.608 177.863 44.608ZM183.307 44.5V38.152H184.483L184.531 39.412H184.603C184.975 38.512 185.815 38.056 186.751 38.056C188.047 38.056 189.019 38.788 189.019 40.732V44.5H187.783V40.984C187.783 39.688 187.315 39.076 186.307 39.076C185.215 39.076 184.531 39.94 184.531 41.032V44.5H183.307ZM193.054 44.62C191.314 44.62 190.342 43.768 190.342 42.508H191.566C191.566 43.372 192.202 43.744 193.09 43.744C194.002 43.744 194.482 43.396 194.482 42.808C194.482 42.1 194.026 41.932 192.958 41.776C191.518 41.572 190.522 41.236 190.522 39.94C190.522 38.728 191.542 38.032 193.078 38.032C194.638 38.032 195.586 38.788 195.61 40.024H194.398C194.386 39.256 193.87 38.908 193.054 38.908C192.214 38.908 191.758 39.28 191.758 39.82C191.758 40.444 192.238 40.636 193.318 40.78C194.638 40.96 195.742 41.248 195.742 42.7C195.742 43.996 194.71 44.62 193.054 44.62ZM198.959 44.5C197.915 44.5 197.591 44.032 197.591 43.18V39.16H196.391V38.152H197.591V36.316L198.827 36.172V38.152H200.231V39.16H198.827V42.952C198.827 43.372 198.971 43.48 199.367 43.48H200.231V44.5H198.959ZM203.444 44.608C201.896 44.608 200.852 43.444 200.852 41.32C200.852 39.196 201.896 38.044 203.444 38.044C204.512 38.044 205.304 38.584 205.604 39.4H205.676L205.724 38.152H206.912V44.5H205.676V43.24H205.604C205.304 44.056 204.512 44.608 203.444 44.608ZM203.876 43.588C205.052 43.588 205.664 42.664 205.664 41.68V40.96C205.664 39.988 205.052 39.052 203.876 39.052C202.82 39.052 202.124 39.82 202.124 41.32C202.124 42.808 202.82 43.588 203.876 43.588ZM208.643 44.5V35.752H209.891V41.188L210.443 40.588L212.807 38.152H214.343L211.883 40.624L214.439 44.5H212.987L211.403 42.1L211.019 41.464L209.891 42.556V44.5H208.643ZM217.74 44.608C215.832 44.608 214.668 43.312 214.668 41.356C214.668 39.352 215.832 38.056 217.692 38.056C219.78 38.056 220.788 39.58 220.596 41.572H215.892C215.916 42.88 216.636 43.624 217.74 43.624C218.592 43.624 219.228 43.204 219.384 42.544H220.56C220.392 43.792 219.24 44.608 217.74 44.608ZM217.68 39.028C216.684 39.028 216.012 39.664 215.916 40.696H219.384C219.348 39.52 218.616 39.028 217.68 39.028Z" fill="black"/>
<path d="M104.04 84L106.71 76.71H107.9L110.57 84H109.68L109.02 82.2H105.59L104.94 84H104.04ZM105.81 81.52H108.8L107.9 79.08L107.34 77.51H107.29L106.72 79.08L105.81 81.52ZM112.12 84L110.19 78.75H111.07L112.25 82.2L112.6 83.28H112.63L112.96 82.2L114.14 78.75H115.01L113.1 84H112.12ZM117.439 84.09C116.149 84.09 115.279 83.1 115.279 81.37C115.279 79.64 116.149 78.66 117.439 78.66C118.359 78.66 119.039 79.13 119.299 79.84H119.349L119.379 78.75H120.159V84H119.349V82.9H119.299C119.039 83.61 118.359 84.09 117.439 84.09ZM117.709 83.41C118.759 83.41 119.339 82.57 119.339 81.69V81.05C119.339 80.17 118.759 79.33 117.709 79.33C116.749 79.33 116.109 80.04 116.109 81.37C116.109 82.69 116.749 83.41 117.709 83.41ZM121.674 77.88V76.71H122.484V77.88H121.674ZM121.674 84V78.75H122.484V84H121.674ZM124.008 84V76.71H124.818V84H124.008ZM128.132 84.09C126.842 84.09 125.972 83.1 125.972 81.37C125.972 79.64 126.842 78.66 128.132 78.66C129.052 78.66 129.732 79.13 129.992 79.84H130.042L130.072 78.75H130.852V84H130.042V82.9H129.992C129.732 83.61 129.052 84.09 128.132 84.09ZM128.402 83.41C129.452 83.41 130.032 82.57 130.032 81.69V81.05C130.032 80.17 129.452 79.33 128.402 79.33C127.442 79.33 126.802 80.04 126.802 81.37C126.802 82.69 127.442 83.41 128.402 83.41ZM135.077 84.09C134.167 84.09 133.487 83.62 133.227 82.91H133.177L133.147 84H132.367V76.71H133.177V79.84H133.227C133.487 79.14 134.167 78.66 135.077 78.66C136.377 78.66 137.247 79.65 137.247 81.38C137.247 83.11 136.377 84.09 135.077 84.09ZM134.817 83.41C135.777 83.41 136.417 82.7 136.417 81.38C136.417 80.05 135.777 79.34 134.817 79.34C133.757 79.34 133.187 80.17 133.187 81.06V81.69C133.187 82.58 133.757 83.41 134.817 83.41ZM138.393 84V76.71H139.203V84H138.393ZM142.857 84.09C141.317 84.09 140.357 83.02 140.357 81.39C140.357 79.75 141.297 78.67 142.817 78.67C144.507 78.67 145.327 79.91 145.167 81.52H141.157C141.187 82.73 141.847 83.42 142.857 83.42C143.647 83.42 144.227 83.03 144.367 82.41H145.147C144.997 83.42 144.057 84.09 142.857 84.09ZM142.807 79.33C141.897 79.33 141.277 79.92 141.177 80.89H144.377C144.347 79.78 143.677 79.33 142.807 79.33ZM148.797 84V76.71H152.067C153.467 76.71 154.237 77.46 154.237 78.58C154.237 79.35 153.847 80.01 153.037 80.21V80.25C153.957 80.43 154.427 81.13 154.427 81.97C154.427 83.25 153.497 84 151.977 84H148.797ZM149.637 79.93H152.007C152.917 79.93 153.387 79.43 153.387 78.69C153.387 77.87 152.797 77.4 151.887 77.4H149.637V79.93ZM149.637 83.31H151.907C153.017 83.31 153.557 82.74 153.557 81.92C153.557 81.08 152.997 80.6 152.047 80.6H149.637V83.31ZM157.419 84.09C156.129 84.09 155.259 83.1 155.259 81.37C155.259 79.64 156.129 78.66 157.419 78.66C158.339 78.66 159.019 79.13 159.279 79.84H159.329L159.359 78.75H160.139V84H159.329V82.9H159.279C159.019 83.61 158.339 84.09 157.419 84.09ZM157.689 83.41C158.739 83.41 159.319 82.57 159.319 81.69V81.05C159.319 80.17 158.739 79.33 157.689 79.33C156.729 79.33 156.089 80.04 156.089 81.37C156.089 82.69 156.729 83.41 157.689 83.41ZM161.655 84V76.71H162.465V84H161.655ZM165.779 84.09C164.489 84.09 163.619 83.1 163.619 81.37C163.619 79.64 164.489 78.66 165.779 78.66C166.699 78.66 167.379 79.13 167.639 79.84H167.689L167.719 78.75H168.499V84H167.689V82.9H167.639C167.379 83.61 166.699 84.09 165.779 84.09ZM166.049 83.41C167.099 83.41 167.679 82.57 167.679 81.69V81.05C167.679 80.17 167.099 79.33 166.049 79.33C165.089 79.33 164.449 80.04 164.449 81.37C164.449 82.69 165.089 83.41 166.049 83.41ZM170.014 84V78.75H170.784L170.814 79.84H170.874C171.194 79.07 171.914 78.67 172.704 78.67C173.794 78.67 174.594 79.29 174.594 80.91V84H173.784V81.07C173.784 79.89 173.354 79.35 172.444 79.35C171.454 79.35 170.814 80.13 170.814 81.16V84H170.014ZM178.219 84.09C176.699 84.09 175.699 83.01 175.699 81.38C175.699 79.76 176.699 78.67 178.249 78.67C179.489 78.67 180.399 79.41 180.489 80.51H179.709C179.569 79.76 178.979 79.36 178.229 79.36C177.149 79.36 176.519 80.18 176.519 81.39C176.519 82.66 177.189 83.4 178.219 83.4C179.059 83.4 179.639 82.9 179.729 82.16H180.519C180.419 83.33 179.489 84.09 178.219 84.09ZM183.765 84.09C182.225 84.09 181.265 83.02 181.265 81.39C181.265 79.75 182.205 78.67 183.725 78.67C185.415 78.67 186.235 79.91 186.075 81.52H182.065C182.095 82.73 182.755 83.42 183.765 83.42C184.555 83.42 185.135 83.03 185.275 82.41H186.055C185.905 83.42 184.965 84.09 183.765 84.09ZM183.715 79.33C182.805 79.33 182.185 79.92 182.085 80.89H185.285C185.255 79.78 184.585 79.33 183.715 79.33ZM187.07 79.66V78.75H187.9V79.66H187.07ZM187.07 84V83.1H187.9V84H187.07ZM192.808 84V78.59H191.108V77.97H191.378C192.348 77.97 192.758 77.5 192.828 76.79H193.618V84H192.808ZM195.044 85.55V85.09H195.174C195.484 85.06 195.584 84.84 195.584 84.52V84H195.204V83.1H196.034V84.57C196.034 85.25 195.754 85.51 195.254 85.54L195.044 85.55ZM199.547 84.09C198.097 84.09 197.157 83.17 197.157 81.8H197.957C197.947 82.74 198.577 83.37 199.557 83.37C200.617 83.37 201.217 82.67 201.217 81.65C201.217 80.55 200.567 79.9 199.577 79.9C198.837 79.9 198.297 80.27 198.067 80.79H197.307L197.467 76.79H201.707V77.5H198.177L198.067 79.95L198.117 79.97C198.427 79.51 199.037 79.21 199.737 79.21C201.147 79.21 202.057 80.19 202.057 81.62C202.057 83.1 201.077 84.09 199.547 84.09ZM204.644 84C204.644 81.07 205.744 79.22 206.924 77.5H203.684V78.99H203.014V76.79H207.884V77.37C206.614 79.22 205.514 80.96 205.514 84H204.644ZM211.336 84.07C209.816 84.07 208.786 83.31 208.786 82.11C208.786 81.27 209.326 80.51 210.326 80.38V80.34C209.366 80.18 208.916 79.45 208.916 78.64C208.916 77.47 209.846 76.71 211.336 76.71C212.826 76.71 213.766 77.49 213.766 78.65C213.766 79.46 213.326 80.2 212.356 80.34V80.38C213.346 80.48 213.876 81.21 213.876 82.1C213.876 83.3 212.846 84.07 211.336 84.07ZM211.336 80.03C212.466 80.03 212.936 79.44 212.936 78.72C212.936 77.89 212.296 77.39 211.336 77.39C210.346 77.39 209.756 77.91 209.756 78.72C209.756 79.48 210.236 80.03 211.336 80.03ZM211.336 83.37C212.356 83.37 213.006 82.83 213.006 82C213.006 81.25 212.476 80.71 211.336 80.71C210.176 80.71 209.666 81.3 209.666 82C209.666 82.86 210.336 83.37 211.336 83.37ZM214.902 84V83.1H215.732V84H214.902ZM216.764 84V83.84C216.764 81.11 220.534 80.76 220.534 78.8C220.534 77.95 219.954 77.41 219.074 77.41C218.154 77.41 217.524 78.01 217.564 78.97H216.784C216.734 77.6 217.704 76.7 219.124 76.7C220.484 76.7 221.374 77.53 221.374 78.75C221.374 80.99 218.024 81.55 217.754 83.28H221.464V84H216.764ZM224.759 84.09C223.289 84.09 222.369 83.17 222.389 81.79H223.179C223.149 82.74 223.779 83.38 224.759 83.38C225.729 83.38 226.369 82.82 226.369 81.95C226.369 81.04 225.779 80.6 224.899 80.6H224.159V79.96H224.869C225.779 79.96 226.259 79.4 226.259 78.66C226.259 77.86 225.669 77.41 224.789 77.41C223.799 77.41 223.239 78.03 223.229 78.97H222.449C222.429 77.6 223.369 76.7 224.809 76.7C226.209 76.7 227.099 77.44 227.099 78.58C227.099 79.4 226.629 80.01 225.929 80.23V80.28C226.739 80.47 227.209 81.12 227.209 82.01C227.209 83.26 226.229 84.09 224.759 84.09ZM230.965 84V76.71H235.955V77.46H231.815V80.05H235.555V80.76H231.815V84H230.965ZM240.056 84.09C238.236 84.09 237.136 83.05 237.136 81.33V76.71H237.986V81.31C237.986 82.65 238.786 83.31 240.066 83.31C241.466 83.31 242.136 82.53 242.136 81.31V76.71H242.976V81.33C242.976 83.02 241.906 84.09 240.056 84.09ZM247.154 84.09C245.234 84.09 244.344 83.11 244.314 81.73H245.204C245.224 82.76 245.824 83.4 247.164 83.4C248.294 83.4 249.044 82.99 249.044 82.12C249.044 81.17 248.504 80.88 247.014 80.63C245.354 80.33 244.494 79.88 244.494 78.64C244.494 77.41 245.464 76.63 247.094 76.63C248.744 76.63 249.674 77.47 249.694 78.74H248.824C248.784 77.79 248.114 77.3 247.054 77.3C245.984 77.3 245.374 77.79 245.374 78.52C245.374 79.4 245.954 79.6 247.424 79.86C248.754 80.09 249.934 80.41 249.934 82.04C249.934 83.26 248.954 84.09 247.154 84.09ZM251.336 84V76.71H256.346V77.46H252.186V79.92H255.856V80.62H252.186V83.24H256.356V84H251.336Z" fill="#666666"/>
<rect x="17" y="96" width="240" height="43" rx="10" fill="white"/>
<rect x="27" y="102" width="31" height="31" rx="15.5" fill="#CFCFCF"/>
<path d="M39.2965 109.315L42.5017 107.464C42.5929 107.412 42.7062 107.412 42.7974 107.464L51.2447 112.341C51.336 112.394 51.3922 112.491 51.393 112.597L51.4044 115.951C51.4044 116.057 51.3483 116.156 51.2561 116.208L48.0554 118.057C47.8588 118.171 47.6122 118.028 47.6113 117.801L47.6008 114.791C47.6008 114.686 47.5437 114.588 47.4524 114.535L39.2965 109.828C39.0991 109.714 39.0991 109.429 39.2965 109.315Z" fill="black"/>
<path d="M37.2266 124.51L34.0223 122.66C33.9302 122.607 33.874 122.509 33.874 122.403V112.649C33.874 112.544 33.9302 112.446 34.0215 112.393L36.9212 110.705C37.0133 110.652 37.1266 110.652 37.2178 110.705L40.4186 112.553C40.6152 112.668 40.616 112.951 40.4195 113.066L37.8181 114.58C37.7269 114.633 37.6707 114.73 37.6707 114.836V124.254C37.6707 124.482 37.4241 124.625 37.2266 124.51V124.51Z" fill="black"/>
<path d="M51.4048 118.703V122.403C51.4048 122.509 51.3486 122.606 51.2565 122.659L42.8092 127.536C42.7179 127.589 42.6056 127.589 42.5143 127.536L39.6032 125.869C39.511 125.816 39.454 125.718 39.454 125.611V121.916C39.454 121.688 39.6997 121.546 39.8972 121.659L42.509 123.155C42.6003 123.208 42.7127 123.207 42.8039 123.155L50.9598 118.445C51.1573 118.331 51.4039 118.474 51.4039 118.702L51.4048 118.703Z" fill="black"/>
<path d="M72.172 123.112C69.918 123.112 68.49 121.222 68.49 117.932C68.49 114.586 69.974 112.794 72.186 112.794C74.412 112.794 75.812 114.67 75.812 117.946C75.812 121.306 74.342 123.112 72.172 123.112ZM72.158 121.88C73.53 121.88 74.37 120.718 74.37 117.946C74.37 115.174 73.53 114.012 72.158 114.012C70.786 114.012 69.946 115.16 69.946 117.946C69.946 120.718 70.786 121.88 72.158 121.88ZM77.0825 123V121.53H78.5245V123H77.0825ZM83.465 123.112C81.211 123.112 79.783 121.222 79.783 117.932C79.783 114.586 81.267 112.794 83.479 112.794C85.705 112.794 87.105 114.67 87.105 117.946C87.105 121.306 85.635 123.112 83.465 123.112ZM83.451 121.88C84.823 121.88 85.663 120.718 85.663 117.946C85.663 115.174 84.823 114.012 83.451 114.012C82.079 114.012 81.239 115.16 81.239 117.946C81.239 120.718 82.079 121.88 83.451 121.88Z" fill="black"/>
<rect x="201" y="105" width="46" height="26" rx="8" fill="#D9D9D9"/>
<path d="M210.232 122V111.794H212.57L215.412 119.606H215.468L218.31 111.794H220.634V122H219.15V117.226L219.192 113.404H219.094L216.056 122H214.838L211.8 113.404H211.702L211.73 117.24V122H210.232ZM225.407 122.126C223.601 122.126 222.383 120.768 222.383 118.29C222.383 115.812 223.601 114.468 225.407 114.468C226.653 114.468 227.577 115.098 227.927 116.05H228.011L228.067 114.594H229.453V122H228.011V120.53H227.927C227.577 121.482 226.653 122.126 225.407 122.126ZM225.911 120.936C227.283 120.936 227.997 119.858 227.997 118.71V117.87C227.997 116.736 227.283 115.644 225.911 115.644C224.679 115.644 223.867 116.54 223.867 118.29C223.867 120.026 224.679 120.936 225.911 120.936ZM230.423 122L233.307 118.178L230.717 114.594H232.425L234.259 117.184H234.329L236.135 114.594H237.773L235.253 118.136L238.053 122H236.359L234.287 119.102H234.203L232.047 122H230.423Z" fill="black"/>
<path d="M21.74 168.108C21.1 168.108 20.52 168.004 20 167.796C19.48 167.58 19.032 167.276 18.656 166.884C18.288 166.492 18.004 166.024 17.804 165.48C17.604 164.928 17.504 164.312 17.504 163.632C17.504 162.944 17.604 162.328 17.804 161.784C18.004 161.232 18.292 160.76 18.668 160.368C19.044 159.976 19.488 159.676 20 159.468C20.52 159.26 21.1 159.156 21.74 159.156C22.444 159.156 23.072 159.28 23.624 159.528C24.184 159.768 24.64 160.112 24.992 160.56C25.352 161.008 25.576 161.536 25.664 162.144H24.62C24.54 161.736 24.372 161.376 24.116 161.064C23.86 160.752 23.532 160.508 23.132 160.332C22.732 160.148 22.268 160.056 21.74 160.056C21.092 160.056 20.528 160.2 20.048 160.488C19.568 160.776 19.2 161.188 18.944 161.724C18.688 162.252 18.56 162.888 18.56 163.632C18.56 164.184 18.632 164.684 18.776 165.132C18.928 165.572 19.14 165.948 19.412 166.26C19.692 166.564 20.028 166.8 20.42 166.968C20.812 167.128 21.252 167.208 21.74 167.208C22.26 167.208 22.72 167.12 23.12 166.944C23.528 166.768 23.86 166.52 24.116 166.2C24.38 165.88 24.548 165.504 24.62 165.072L25.664 165.084C25.592 165.692 25.38 166.224 25.028 166.68C24.676 167.136 24.216 167.488 23.648 167.736C23.088 167.984 22.452 168.108 21.74 168.108ZM28.9361 168.108C28.4721 168.108 28.0681 168.016 27.7241 167.832C27.3801 167.64 27.1161 167.356 26.9321 166.98C26.7481 166.596 26.6561 166.124 26.6561 165.564V161.7H27.6281V165.324C27.6281 165.74 27.6841 166.096 27.7961 166.392C27.9081 166.68 28.0841 166.9 28.3241 167.052C28.5721 167.204 28.8881 167.28 29.2721 167.28C29.6481 167.28 29.9801 167.188 30.2681 167.004C30.5561 166.82 30.7801 166.56 30.9401 166.224C31.1001 165.888 31.1801 165.5 31.1801 165.06V161.7H32.1521V168H31.2281L31.1801 166.656H31.1201C30.9521 167.104 30.6721 167.46 30.2801 167.724C29.8881 167.98 29.4401 168.108 28.9361 168.108ZM33.5514 168V161.7H34.4154L34.4754 162.864H34.5234C34.6594 162.464 34.8994 162.156 35.2434 161.94C35.5874 161.724 35.9714 161.616 36.3954 161.616C36.4674 161.616 36.5354 161.62 36.5994 161.628C36.6634 161.628 36.7234 161.632 36.7794 161.64V162.564C36.7234 162.556 36.6634 162.552 36.5994 162.552C36.5354 162.544 36.4674 162.54 36.3954 162.54C36.0274 162.54 35.7074 162.608 35.4354 162.744C35.1634 162.88 34.9474 163.076 34.7874 163.332C34.6354 163.58 34.5434 163.884 34.5114 164.244V168H33.5514ZM37.5625 168V161.7H38.4265L38.4865 162.864H38.5345C38.6705 162.464 38.9105 162.156 39.2545 161.94C39.5985 161.724 39.9825 161.616 40.4065 161.616C40.4785 161.616 40.5465 161.62 40.6105 161.628C40.6745 161.628 40.7345 161.632 40.7905 161.64V162.564C40.7345 162.556 40.6745 162.552 40.6105 162.552C40.5465 162.544 40.4785 162.54 40.4065 162.54C40.0385 162.54 39.7185 162.608 39.4465 162.744C39.1745 162.88 38.9585 163.076 38.7985 163.332C38.6465 163.58 38.5545 163.884 38.5225 164.244V168H37.5625ZM43.8952 168.108C43.2792 168.108 42.7472 167.976 42.2992 167.712C41.8512 167.44 41.5032 167.06 41.2552 166.572C41.0152 166.084 40.8952 165.516 40.8952 164.868C40.8952 164.212 41.0152 163.64 41.2552 163.152C41.4952 162.656 41.8352 162.276 42.2752 162.012C42.7232 161.74 43.2472 161.604 43.8472 161.604C44.5272 161.604 45.0832 161.756 45.5152 162.06C45.9552 162.356 46.2712 162.764 46.4632 163.284C46.6632 163.796 46.7312 164.376 46.6672 165.024H41.8552C41.8712 165.504 41.9632 165.916 42.1312 166.26C42.2992 166.596 42.5312 166.856 42.8272 167.04C43.1312 167.216 43.4872 167.304 43.8952 167.304C44.3672 167.304 44.7632 167.196 45.0832 166.98C45.4112 166.756 45.6192 166.46 45.7072 166.092H46.6432C46.5872 166.492 46.4312 166.844 46.1752 167.148C45.9272 167.452 45.6032 167.688 45.2032 167.856C44.8112 168.024 44.3752 168.108 43.8952 168.108ZM41.8672 164.448L41.7712 164.268H45.8272L45.7192 164.472C45.7352 163.984 45.6592 163.588 45.4912 163.284C45.3312 162.972 45.1072 162.748 44.8192 162.612C44.5312 162.468 44.2032 162.396 43.8352 162.396C43.4512 162.396 43.1112 162.48 42.8152 162.648C42.5272 162.808 42.3032 163.044 42.1432 163.356C41.9832 163.66 41.8912 164.024 41.8672 164.448ZM47.7175 168V161.7H48.6415L48.6775 163.008H48.7495C48.9415 162.544 49.2375 162.196 49.6375 161.964C50.0375 161.724 50.4735 161.604 50.9455 161.604C51.2735 161.604 51.5735 161.652 51.8455 161.748C52.1255 161.844 52.3655 162 52.5655 162.216C52.7735 162.432 52.9335 162.712 53.0455 163.056C53.1575 163.392 53.2135 163.804 53.2135 164.292V168H52.2415V164.484C52.2415 164.012 52.1815 163.624 52.0615 163.32C51.9495 163.016 51.7735 162.792 51.5335 162.648C51.3015 162.496 51.0015 162.42 50.6335 162.42C50.2415 162.42 49.8975 162.516 49.6015 162.708C49.3055 162.9 49.0775 163.16 48.9175 163.488C48.7575 163.808 48.6775 164.176 48.6775 164.592V168H47.7175ZM56.1388 168C55.8268 168 55.5788 167.956 55.3948 167.868C55.2188 167.78 55.0908 167.648 55.0108 167.472C54.9388 167.288 54.9028 167.064 54.9028 166.8V162.504H53.6788V161.7H54.9028V159.816L55.8748 159.684V161.7H57.3388V162.504H55.8748V166.632C55.8748 166.856 55.9148 167.004 55.9948 167.076C56.0748 167.148 56.2228 167.184 56.4388 167.184H57.3388V168H56.1388ZM63.6894 168.108C62.9214 168.108 62.2854 167.988 61.7814 167.748C61.2854 167.508 60.9134 167.176 60.6654 166.752C60.4254 166.32 60.2974 165.828 60.2814 165.276H61.3494C61.3574 165.684 61.4454 166.04 61.6134 166.344C61.7894 166.648 62.0454 166.88 62.3814 167.04C62.7254 167.2 63.1654 167.28 63.7014 167.28C64.3814 167.28 64.9254 167.156 65.3334 166.908C65.7494 166.652 65.9574 166.264 65.9574 165.744C65.9574 165.456 65.9134 165.216 65.8254 165.024C65.7374 164.824 65.5974 164.66 65.4054 164.532C65.2134 164.404 64.9614 164.296 64.6494 164.208C64.3374 164.112 63.9614 164.028 63.5214 163.956C63.0174 163.86 62.5774 163.752 62.2014 163.632C61.8254 163.512 61.5094 163.364 61.2534 163.188C61.0054 163.004 60.8174 162.78 60.6894 162.516C60.5614 162.252 60.4974 161.936 60.4974 161.568C60.4974 161.08 60.6214 160.656 60.8694 160.296C61.1174 159.928 61.4734 159.648 61.9374 159.456C62.4014 159.256 62.9614 159.156 63.6174 159.156C64.2814 159.156 64.8414 159.264 65.2974 159.48C65.7534 159.688 66.1054 159.98 66.3534 160.356C66.6014 160.732 66.7294 161.176 66.7374 161.688H65.6934C65.6774 161.304 65.5814 160.984 65.4054 160.728C65.2294 160.472 64.9854 160.28 64.6734 160.152C64.3614 160.024 63.9934 159.96 63.5694 159.96C63.1374 159.96 62.7734 160.024 62.4774 160.152C62.1814 160.272 61.9534 160.44 61.7934 160.656C61.6334 160.872 61.5534 161.128 61.5534 161.424C61.5534 161.776 61.6334 162.052 61.7934 162.252C61.9614 162.444 62.2254 162.596 62.5854 162.708C62.9534 162.82 63.4294 162.928 64.0134 163.032C64.4134 163.096 64.7934 163.18 65.1534 163.284C65.5134 163.388 65.8334 163.532 66.1134 163.716C66.3934 163.9 66.6134 164.148 66.7734 164.46C66.9414 164.764 67.0254 165.16 67.0254 165.648C67.0254 166.136 66.8974 166.564 66.6414 166.932C66.3854 167.3 66.0094 167.588 65.5134 167.796C65.0174 168.004 64.4094 168.108 63.6894 168.108ZM69.8127 168C69.5007 168 69.2527 167.956 69.0687 167.868C68.8927 167.78 68.7647 167.648 68.6847 167.472C68.6127 167.288 68.5767 167.064 68.5767 166.8V162.504H67.3527V161.7H68.5767V159.816L69.5487 159.684V161.7H71.0127V162.504H69.5487V166.632C69.5487 166.856 69.5887 167.004 69.6687 167.076C69.7487 167.148 69.8967 167.184 70.1127 167.184H71.0127V168H69.8127ZM73.8936 168.108C73.5096 168.108 73.1576 168.036 72.8376 167.892C72.5256 167.74 72.2536 167.528 72.0216 167.256C71.7896 166.976 71.6096 166.636 71.4816 166.236C71.3616 165.828 71.3016 165.364 71.3016 164.844C71.3016 164.156 71.4096 163.568 71.6256 163.08C71.8496 162.592 72.1536 162.224 72.5376 161.976C72.9296 161.72 73.3816 161.592 73.8936 161.592C74.2616 161.592 74.5936 161.652 74.8896 161.772C75.1936 161.884 75.4496 162.048 75.6576 162.264C75.8656 162.472 76.0216 162.72 76.1256 163.008H76.1856L76.2216 161.7H77.1576V168H76.1856V166.68H76.1256C75.9656 167.104 75.6936 167.448 75.3096 167.712C74.9256 167.976 74.4536 168.108 73.8936 168.108ZM74.2176 167.292C74.6416 167.292 74.9976 167.192 75.2856 166.992C75.5736 166.792 75.7936 166.536 75.9456 166.224C76.0976 165.912 76.1736 165.58 76.1736 165.228V164.46C76.1736 164.108 76.0976 163.776 75.9456 163.464C75.7936 163.144 75.5736 162.888 75.2856 162.696C74.9976 162.496 74.6416 162.396 74.2176 162.396C73.8336 162.396 73.4976 162.492 73.2096 162.684C72.9216 162.868 72.6976 163.14 72.5376 163.5C72.3776 163.86 72.2976 164.308 72.2976 164.844C72.2976 165.372 72.3776 165.82 72.5376 166.188C72.6976 166.548 72.9216 166.824 73.2096 167.016C73.4976 167.2 73.8336 167.292 74.2176 167.292ZM78.6161 168V159.252H79.6001V164.916L80.1641 164.316L82.7561 161.7H83.9801L81.5201 164.136L84.0881 168H82.9481L81.2321 165.42L80.8481 164.796L79.6001 166.008V168H78.6161ZM87.0816 168.108C86.4656 168.108 85.9336 167.976 85.4856 167.712C85.0376 167.44 84.6896 167.06 84.4416 166.572C84.2016 166.084 84.0816 165.516 84.0816 164.868C84.0816 164.212 84.2016 163.64 84.4416 163.152C84.6816 162.656 85.0216 162.276 85.4616 162.012C85.9096 161.74 86.4336 161.604 87.0336 161.604C87.7136 161.604 88.2696 161.756 88.7016 162.06C89.1416 162.356 89.4576 162.764 89.6496 163.284C89.8496 163.796 89.9176 164.376 89.8536 165.024H85.0416C85.0576 165.504 85.1496 165.916 85.3176 166.26C85.4856 166.596 85.7176 166.856 86.0136 167.04C86.3176 167.216 86.6736 167.304 87.0816 167.304C87.5536 167.304 87.9496 167.196 88.2696 166.98C88.5976 166.756 88.8056 166.46 88.8936 166.092H89.8296C89.7736 166.492 89.6176 166.844 89.3616 167.148C89.1136 167.452 88.7896 167.688 88.3896 167.856C87.9976 168.024 87.5616 168.108 87.0816 168.108ZM85.0536 164.448L84.9576 164.268H89.0136L88.9056 164.472C88.9216 163.984 88.8456 163.588 88.6776 163.284C88.5176 162.972 88.2936 162.748 88.0056 162.612C87.7176 162.468 87.3896 162.396 87.0216 162.396C86.6376 162.396 86.2976 162.48 86.0016 162.648C85.7136 162.808 85.4896 163.044 85.3296 163.356C85.1696 163.66 85.0776 164.024 85.0536 164.448Z" fill="#666666"/>
<path d="M190.356 168.108C189.78 168.108 189.276 167.992 188.844 167.76C188.42 167.528 188.088 167.208 187.848 166.8C187.608 166.384 187.488 165.904 187.488 165.36H188.448C188.448 165.736 188.524 166.064 188.676 166.344C188.836 166.624 189.06 166.844 189.348 167.004C189.636 167.164 189.976 167.244 190.368 167.244C191.008 167.244 191.5 167.052 191.844 166.668C192.188 166.284 192.36 165.788 192.36 165.18C192.36 164.732 192.276 164.356 192.108 164.052C191.948 163.74 191.72 163.5 191.424 163.332C191.136 163.164 190.792 163.08 190.392 163.08C189.952 163.08 189.576 163.18 189.264 163.38C188.952 163.58 188.724 163.836 188.58 164.148H187.668L187.86 159.348H192.948V160.2H188.712L188.58 163.14L188.64 163.164C188.824 162.892 189.088 162.672 189.432 162.504C189.784 162.336 190.168 162.252 190.584 162.252C191.008 162.252 191.392 162.324 191.736 162.468C192.08 162.604 192.372 162.804 192.612 163.068C192.86 163.324 193.048 163.628 193.176 163.98C193.304 164.324 193.368 164.712 193.368 165.144C193.368 165.736 193.244 166.256 192.996 166.704C192.748 167.144 192.4 167.488 191.952 167.736C191.504 167.984 190.972 168.108 190.356 168.108ZM197.168 168.108C196.704 168.108 196.28 168.012 195.896 167.82C195.52 167.62 195.196 167.332 194.924 166.956C194.652 166.58 194.444 166.116 194.3 165.564C194.156 165.012 194.084 164.38 194.084 163.668C194.084 162.948 194.156 162.312 194.3 161.76C194.452 161.208 194.664 160.748 194.936 160.38C195.208 160.004 195.532 159.724 195.908 159.54C196.284 159.348 196.704 159.252 197.168 159.252C197.632 159.252 198.048 159.348 198.416 159.54C198.792 159.732 199.112 160.016 199.376 160.392C199.648 160.768 199.856 161.232 200 161.784C200.144 162.328 200.216 162.956 200.216 163.668C200.216 164.396 200.14 165.036 199.988 165.588C199.844 166.132 199.636 166.596 199.364 166.98C199.1 167.356 198.78 167.64 198.404 167.832C198.036 168.016 197.624 168.108 197.168 168.108ZM197.156 167.268C197.484 167.268 197.776 167.196 198.032 167.052C198.288 166.9 198.504 166.676 198.68 166.38C198.864 166.084 199 165.712 199.088 165.264C199.184 164.808 199.232 164.276 199.232 163.668C199.232 163.06 199.184 162.532 199.088 162.084C199 161.636 198.864 161.264 198.68 160.968C198.504 160.672 198.288 160.452 198.032 160.308C197.776 160.156 197.484 160.08 197.156 160.08C196.828 160.08 196.536 160.156 196.28 160.308C196.024 160.452 195.804 160.672 195.62 160.968C195.444 161.256 195.308 161.628 195.212 162.084C195.116 162.532 195.068 163.06 195.068 163.668C195.068 164.276 195.116 164.808 195.212 165.264C195.308 165.712 195.444 166.084 195.62 166.38C195.804 166.676 196.024 166.9 196.28 167.052C196.536 167.196 196.828 167.268 197.156 167.268ZM200.755 169.86V169.308H200.911C201.095 169.292 201.223 169.22 201.295 169.092C201.367 168.972 201.403 168.816 201.403 168.624V168H200.947V166.92H201.943V168.684C201.943 169.092 201.863 169.384 201.703 169.56C201.543 169.736 201.311 169.832 201.007 169.848L200.755 169.86ZM205.811 168.108C205.347 168.108 204.923 168.012 204.539 167.82C204.163 167.62 203.839 167.332 203.567 166.956C203.295 166.58 203.087 166.116 202.943 165.564C202.799 165.012 202.727 164.38 202.727 163.668C202.727 162.948 202.799 162.312 202.943 161.76C203.095 161.208 203.307 160.748 203.579 160.38C203.851 160.004 204.175 159.724 204.551 159.54C204.927 159.348 205.347 159.252 205.811 159.252C206.275 159.252 206.691 159.348 207.059 159.54C207.435 159.732 207.755 160.016 208.019 160.392C208.291 160.768 208.499 161.232 208.643 161.784C208.787 162.328 208.859 162.956 208.859 163.668C208.859 164.396 208.783 165.036 208.631 165.588C208.487 166.132 208.279 166.596 208.007 166.98C207.743 167.356 207.423 167.64 207.047 167.832C206.679 168.016 206.267 168.108 205.811 168.108ZM205.799 167.268C206.127 167.268 206.419 167.196 206.675 167.052C206.931 166.9 207.147 166.676 207.323 166.38C207.507 166.084 207.643 165.712 207.731 165.264C207.827 164.808 207.875 164.276 207.875 163.668C207.875 163.06 207.827 162.532 207.731 162.084C207.643 161.636 207.507 161.264 207.323 160.968C207.147 160.672 206.931 160.452 206.675 160.308C206.419 160.156 206.127 160.08 205.799 160.08C205.471 160.08 205.179 160.156 204.923 160.308C204.667 160.452 204.447 160.672 204.263 160.968C204.087 161.256 203.951 161.628 203.855 162.084C203.759 162.532 203.711 163.06 203.711 163.668C203.711 164.276 203.759 164.808 203.855 165.264C203.951 165.712 204.087 166.084 204.263 166.38C204.447 166.676 204.667 166.9 204.923 167.052C205.179 167.196 205.471 167.268 205.799 167.268ZM212.483 168.108C212.019 168.108 211.595 168.012 211.211 167.82C210.835 167.62 210.511 167.332 210.239 166.956C209.967 166.58 209.759 166.116 209.615 165.564C209.471 165.012 209.399 164.38 209.399 163.668C209.399 162.948 209.471 162.312 209.615 161.76C209.767 161.208 209.979 160.748 210.251 160.38C210.523 160.004 210.847 159.724 211.223 159.54C211.599 159.348 212.019 159.252 212.483 159.252C212.947 159.252 213.363 159.348 213.731 159.54C214.107 159.732 214.427 160.016 214.691 160.392C214.963 160.768 215.171 161.232 215.315 161.784C215.459 162.328 215.531 162.956 215.531 163.668C215.531 164.396 215.455 165.036 215.303 165.588C215.159 166.132 214.951 166.596 214.679 166.98C214.415 167.356 214.095 167.64 213.719 167.832C213.351 168.016 212.939 168.108 212.483 168.108ZM212.471 167.268C212.799 167.268 213.091 167.196 213.347 167.052C213.603 166.9 213.819 166.676 213.995 166.38C214.179 166.084 214.315 165.712 214.403 165.264C214.499 164.808 214.547 164.276 214.547 163.668C214.547 163.06 214.499 162.532 214.403 162.084C214.315 161.636 214.179 161.264 213.995 160.968C213.819 160.672 213.603 160.452 213.347 160.308C213.091 160.156 212.799 160.08 212.471 160.08C212.143 160.08 211.851 160.156 211.595 160.308C211.339 160.452 211.119 160.672 210.935 160.968C210.759 161.256 210.623 161.628 210.527 162.084C210.431 162.532 210.383 163.06 210.383 163.668C210.383 164.276 210.431 164.808 210.527 165.264C210.623 165.712 210.759 166.084 210.935 166.38C211.119 166.676 211.339 166.9 211.595 167.052C211.851 167.196 212.143 167.268 212.471 167.268ZM219.154 168.108C218.69 168.108 218.266 168.012 217.882 167.82C217.506 167.62 217.182 167.332 216.91 166.956C216.638 166.58 216.43 166.116 216.286 165.564C216.142 165.012 216.07 164.38 216.07 163.668C216.07 162.948 216.142 162.312 216.286 161.76C216.438 161.208 216.65 160.748 216.922 160.38C217.194 160.004 217.518 159.724 217.894 159.54C218.27 159.348 218.69 159.252 219.154 159.252C219.618 159.252 220.034 159.348 220.402 159.54C220.778 159.732 221.098 160.016 221.362 160.392C221.634 160.768 221.842 161.232 221.986 161.784C222.13 162.328 222.202 162.956 222.202 163.668C222.202 164.396 222.126 165.036 221.974 165.588C221.83 166.132 221.622 166.596 221.35 166.98C221.086 167.356 220.766 167.64 220.39 167.832C220.022 168.016 219.61 168.108 219.154 168.108ZM219.142 167.268C219.47 167.268 219.762 167.196 220.018 167.052C220.274 166.9 220.49 166.676 220.666 166.38C220.85 166.084 220.986 165.712 221.074 165.264C221.17 164.808 221.218 164.276 221.218 163.668C221.218 163.06 221.17 162.532 221.074 162.084C220.986 161.636 220.85 161.264 220.666 160.968C220.49 160.672 220.274 160.452 220.018 160.308C219.762 160.156 219.47 160.08 219.142 160.08C218.814 160.08 218.522 160.156 218.266 160.308C218.01 160.452 217.79 160.672 217.606 160.968C217.43 161.256 217.294 161.628 217.198 162.084C217.102 162.532 217.054 163.06 217.054 163.668C217.054 164.276 217.102 164.808 217.198 165.264C217.294 165.712 217.43 166.084 217.606 166.38C217.79 166.676 218.01 166.9 218.266 167.052C218.522 167.196 218.814 167.268 219.142 167.268ZM225.795 168V159.252H231.783V160.152H226.611L226.815 159.948V163.464L226.611 163.26H231.303V164.112H226.611L226.815 163.908V168H225.795ZM236.344 168.108C235.616 168.108 234.988 167.976 234.46 167.712C233.94 167.44 233.54 167.06 233.26 166.572C232.98 166.076 232.84 165.484 232.84 164.796V159.252H233.86V164.772C233.86 165.308 233.96 165.756 234.16 166.116C234.368 166.468 234.656 166.732 235.024 166.908C235.4 167.084 235.844 167.172 236.356 167.172C236.916 167.172 237.38 167.076 237.748 166.884C238.116 166.684 238.388 166.404 238.564 166.044C238.748 165.684 238.84 165.26 238.84 164.772V159.252H239.848V164.796C239.848 165.468 239.712 166.052 239.44 166.548C239.168 167.044 238.768 167.428 238.24 167.7C237.72 167.972 237.088 168.108 236.344 168.108ZM244.501 168.108C243.733 168.108 243.097 167.988 242.593 167.748C242.097 167.508 241.725 167.176 241.477 166.752C241.237 166.32 241.109 165.828 241.093 165.276H242.161C242.169 165.684 242.257 166.04 242.425 166.344C242.601 166.648 242.857 166.88 243.193 167.04C243.537 167.2 243.977 167.28 244.513 167.28C245.193 167.28 245.737 167.156 246.145 166.908C246.561 166.652 246.769 166.264 246.769 165.744C246.769 165.456 246.725 165.216 246.637 165.024C246.549 164.824 246.409 164.66 246.217 164.532C246.025 164.404 245.773 164.296 245.461 164.208C245.149 164.112 244.773 164.028 244.333 163.956C243.829 163.86 243.389 163.752 243.013 163.632C242.637 163.512 242.321 163.364 242.065 163.188C241.817 163.004 241.629 162.78 241.501 162.516C241.373 162.252 241.309 161.936 241.309 161.568C241.309 161.08 241.433 160.656 241.681 160.296C241.929 159.928 242.285 159.648 242.749 159.456C243.213 159.256 243.773 159.156 244.429 159.156C245.093 159.156 245.653 159.264 246.109 159.48C246.565 159.688 246.917 159.98 247.165 160.356C247.413 160.732 247.541 161.176 247.549 161.688H246.505C246.489 161.304 246.393 160.984 246.217 160.728C246.041 160.472 245.797 160.28 245.485 160.152C245.173 160.024 244.805 159.96 244.381 159.96C243.949 159.96 243.585 160.024 243.289 160.152C242.993 160.272 242.765 160.44 242.605 160.656C242.445 160.872 242.365 161.128 242.365 161.424C242.365 161.776 242.445 162.052 242.605 162.252C242.773 162.444 243.037 162.596 243.397 162.708C243.765 162.82 244.241 162.928 244.825 163.032C245.225 163.096 245.605 163.18 245.965 163.284C246.325 163.388 246.645 163.532 246.925 163.716C247.205 163.9 247.425 164.148 247.585 164.46C247.753 164.764 247.837 165.16 247.837 165.648C247.837 166.136 247.709 166.564 247.453 166.932C247.197 167.3 246.821 167.588 246.325 167.796C245.829 168.004 245.221 168.108 244.501 168.108ZM249.161 168V159.252H255.173V160.152H249.953L250.181 159.912V163.344L249.953 163.104H254.585V163.944H249.953L250.181 163.704V167.328L249.953 167.088H255.185V168H249.161Z" fill="#071927"/>
<path d="M18.4549 197.5V188.752H19.7509L24.6949 196.168H24.7669L24.7069 193.18V188.752H25.7029V197.5H24.4549L19.5229 190.144H19.4509L19.4989 192.952V197.5H18.4549ZM29.9273 197.608C29.3113 197.608 28.7793 197.476 28.3313 197.212C27.8833 196.94 27.5353 196.56 27.2873 196.072C27.0473 195.584 26.9273 195.016 26.9273 194.368C26.9273 193.712 27.0473 193.14 27.2873 192.652C27.5273 192.156 27.8673 191.776 28.3073 191.512C28.7553 191.24 29.2793 191.104 29.8793 191.104C30.5593 191.104 31.1153 191.256 31.5473 191.56C31.9873 191.856 32.3033 192.264 32.4953 192.784C32.6953 193.296 32.7633 193.876 32.6993 194.524H27.8873C27.9033 195.004 27.9953 195.416 28.1633 195.76C28.3313 196.096 28.5633 196.356 28.8593 196.54C29.1633 196.716 29.5193 196.804 29.9273 196.804C30.3993 196.804 30.7953 196.696 31.1153 196.48C31.4433 196.256 31.6513 195.96 31.7393 195.592H32.6753C32.6193 195.992 32.4633 196.344 32.2073 196.648C31.9593 196.952 31.6353 197.188 31.2353 197.356C30.8433 197.524 30.4073 197.608 29.9273 197.608ZM27.8993 193.948L27.8033 193.768H31.8593L31.7513 193.972C31.7673 193.484 31.6913 193.088 31.5233 192.784C31.3633 192.472 31.1393 192.248 30.8513 192.112C30.5633 191.968 30.2353 191.896 29.8673 191.896C29.4833 191.896 29.1433 191.98 28.8473 192.148C28.5593 192.308 28.3353 192.544 28.1753 192.856C28.0153 193.16 27.9233 193.524 27.8993 193.948ZM34.4604 197.5L32.8044 191.2H33.7884L35.1684 196.528H35.2164L36.5364 191.2H37.6284L38.9844 196.528H39.0204L40.3764 191.2H41.3244L39.6684 197.5H38.3964L37.0644 192.436H37.0164L35.7324 197.5H34.4604ZM47.3862 197.608C46.6182 197.608 45.9822 197.488 45.4782 197.248C44.9822 197.008 44.6102 196.676 44.3622 196.252C44.1222 195.82 43.9942 195.328 43.9782 194.776H45.0462C45.0542 195.184 45.1422 195.54 45.3102 195.844C45.4862 196.148 45.7422 196.38 46.0782 196.54C46.4222 196.7 46.8622 196.78 47.3982 196.78C48.0782 196.78 48.6222 196.656 49.0302 196.408C49.4462 196.152 49.6542 195.764 49.6542 195.244C49.6542 194.956 49.6102 194.716 49.5222 194.524C49.4342 194.324 49.2942 194.16 49.1022 194.032C48.9102 193.904 48.6582 193.796 48.3462 193.708C48.0342 193.612 47.6582 193.528 47.2182 193.456C46.7142 193.36 46.2742 193.252 45.8982 193.132C45.5222 193.012 45.2062 192.864 44.9502 192.688C44.7022 192.504 44.5142 192.28 44.3862 192.016C44.2582 191.752 44.1942 191.436 44.1942 191.068C44.1942 190.58 44.3182 190.156 44.5662 189.796C44.8142 189.428 45.1702 189.148 45.6342 188.956C46.0982 188.756 46.6582 188.656 47.3142 188.656C47.9782 188.656 48.5382 188.764 48.9942 188.98C49.4502 189.188 49.8022 189.48 50.0502 189.856C50.2982 190.232 50.4262 190.676 50.4342 191.188H49.3902C49.3742 190.804 49.2782 190.484 49.1022 190.228C48.9262 189.972 48.6822 189.78 48.3702 189.652C48.0582 189.524 47.6902 189.46 47.2662 189.46C46.8342 189.46 46.4702 189.524 46.1742 189.652C45.8782 189.772 45.6502 189.94 45.4902 190.156C45.3302 190.372 45.2502 190.628 45.2502 190.924C45.2502 191.276 45.3302 191.552 45.4902 191.752C45.6582 191.944 45.9222 192.096 46.2822 192.208C46.6502 192.32 47.1262 192.428 47.7102 192.532C48.1102 192.596 48.4902 192.68 48.8502 192.784C49.2102 192.888 49.5302 193.032 49.8102 193.216C50.0902 193.4 50.3102 193.648 50.4702 193.96C50.6382 194.264 50.7222 194.66 50.7222 195.148C50.7222 195.636 50.5942 196.064 50.3382 196.432C50.0822 196.8 49.7062 197.088 49.2102 197.296C48.7142 197.504 48.1062 197.608 47.3862 197.608ZM53.5095 197.5C53.1975 197.5 52.9495 197.456 52.7655 197.368C52.5895 197.28 52.4615 197.148 52.3815 196.972C52.3095 196.788 52.2735 196.564 52.2735 196.3V192.004H51.0495V191.2H52.2735V189.316L53.2455 189.184V191.2H54.7095V192.004H53.2455V196.132C53.2455 196.356 53.2855 196.504 53.3655 196.576C53.4455 196.648 53.5935 196.684 53.8095 196.684H54.7095V197.5H53.5095ZM57.5904 197.608C57.2064 197.608 56.8544 197.536 56.5344 197.392C56.2224 197.24 55.9504 197.028 55.7184 196.756C55.4864 196.476 55.3064 196.136 55.1784 195.736C55.0584 195.328 54.9984 194.864 54.9984 194.344C54.9984 193.656 55.1064 193.068 55.3224 192.58C55.5464 192.092 55.8504 191.724 56.2344 191.476C56.6264 191.22 57.0784 191.092 57.5904 191.092C57.9584 191.092 58.2904 191.152 58.5864 191.272C58.8904 191.384 59.1464 191.548 59.3544 191.764C59.5624 191.972 59.7184 192.22 59.8224 192.508H59.8824L59.9184 191.2H60.8544V197.5H59.8824V196.18H59.8224C59.6624 196.604 59.3904 196.948 59.0064 197.212C58.6224 197.476 58.1504 197.608 57.5904 197.608ZM57.9144 196.792C58.3384 196.792 58.6944 196.692 58.9824 196.492C59.2704 196.292 59.4904 196.036 59.6424 195.724C59.7944 195.412 59.8704 195.08 59.8704 194.728V193.96C59.8704 193.608 59.7944 193.276 59.6424 192.964C59.4904 192.644 59.2704 192.388 58.9824 192.196C58.6944 191.996 58.3384 191.896 57.9144 191.896C57.5304 191.896 57.1944 191.992 56.9064 192.184C56.6184 192.368 56.3944 192.64 56.2344 193C56.0744 193.36 55.9944 193.808 55.9944 194.344C55.9944 194.872 56.0744 195.32 56.2344 195.688C56.3944 196.048 56.6184 196.324 56.9064 196.516C57.1944 196.7 57.5304 196.792 57.9144 196.792ZM62.3129 197.5V188.752H63.2969V194.416L63.8609 193.816L66.4529 191.2H67.6769L65.2169 193.636L67.7849 197.5H66.6449L64.9289 194.92L64.5449 194.296L63.2969 195.508V197.5H62.3129ZM70.7784 197.608C70.1624 197.608 69.6304 197.476 69.1824 197.212C68.7344 196.94 68.3864 196.56 68.1384 196.072C67.8984 195.584 67.7784 195.016 67.7784 194.368C67.7784 193.712 67.8984 193.14 68.1384 192.652C68.3784 192.156 68.7184 191.776 69.1584 191.512C69.6064 191.24 70.1304 191.104 70.7304 191.104C71.4104 191.104 71.9664 191.256 72.3984 191.56C72.8384 191.856 73.1544 192.264 73.3464 192.784C73.5464 193.296 73.6144 193.876 73.5504 194.524H68.7384C68.7544 195.004 68.8464 195.416 69.0144 195.76C69.1824 196.096 69.4144 196.356 69.7104 196.54C70.0144 196.716 70.3704 196.804 70.7784 196.804C71.2504 196.804 71.6464 196.696 71.9664 196.48C72.2944 196.256 72.5024 195.96 72.5904 195.592H73.5264C73.4704 195.992 73.3144 196.344 73.0584 196.648C72.8104 196.952 72.4864 197.188 72.0864 197.356C71.6944 197.524 71.2584 197.608 70.7784 197.608ZM68.7504 193.948L68.6544 193.768H72.7104L72.6024 193.972C72.6184 193.484 72.5424 193.088 72.3744 192.784C72.2144 192.472 71.9904 192.248 71.7024 192.112C71.4144 191.968 71.0864 191.896 70.7184 191.896C70.3344 191.896 69.9944 191.98 69.6984 192.148C69.4104 192.308 69.1864 192.544 69.0264 192.856C68.8664 193.16 68.7744 193.524 68.7504 193.948Z" fill="#666666"/>
<path d="M190.319 197.608C189.743 197.608 189.239 197.492 188.807 197.26C188.383 197.028 188.051 196.708 187.811 196.3C187.571 195.884 187.451 195.404 187.451 194.86H188.411C188.411 195.236 188.487 195.564 188.639 195.844C188.799 196.124 189.023 196.344 189.311 196.504C189.599 196.664 189.939 196.744 190.331 196.744C190.971 196.744 191.463 196.552 191.807 196.168C192.151 195.784 192.323 195.288 192.323 194.68C192.323 194.232 192.239 193.856 192.071 193.552C191.911 193.24 191.683 193 191.387 192.832C191.099 192.664 190.755 192.58 190.355 192.58C189.915 192.58 189.539 192.68 189.227 192.88C188.915 193.08 188.687 193.336 188.543 193.648H187.631L187.823 188.848H192.911V189.7H188.675L188.543 192.64L188.603 192.664C188.787 192.392 189.051 192.172 189.395 192.004C189.747 191.836 190.131 191.752 190.547 191.752C190.971 191.752 191.355 191.824 191.699 191.968C192.043 192.104 192.335 192.304 192.575 192.568C192.823 192.824 193.011 193.128 193.139 193.48C193.267 193.824 193.331 194.212 193.331 194.644C193.331 195.236 193.207 195.756 192.959 196.204C192.711 196.644 192.363 196.988 191.915 197.236C191.467 197.484 190.935 197.608 190.319 197.608ZM197.131 197.608C196.667 197.608 196.243 197.512 195.859 197.32C195.483 197.12 195.159 196.832 194.887 196.456C194.615 196.08 194.407 195.616 194.263 195.064C194.119 194.512 194.047 193.88 194.047 193.168C194.047 192.448 194.119 191.812 194.263 191.26C194.415 190.708 194.627 190.248 194.899 189.88C195.171 189.504 195.495 189.224 195.871 189.04C196.247 188.848 196.667 188.752 197.131 188.752C197.595 188.752 198.011 188.848 198.379 189.04C198.755 189.232 199.075 189.516 199.339 189.892C199.611 190.268 199.819 190.732 199.963 191.284C200.107 191.828 200.179 192.456 200.179 193.168C200.179 193.896 200.103 194.536 199.951 195.088C199.807 195.632 199.599 196.096 199.327 196.48C199.063 196.856 198.743 197.14 198.367 197.332C197.999 197.516 197.587 197.608 197.131 197.608ZM197.119 196.768C197.447 196.768 197.739 196.696 197.995 196.552C198.251 196.4 198.467 196.176 198.643 195.88C198.827 195.584 198.963 195.212 199.051 194.764C199.147 194.308 199.195 193.776 199.195 193.168C199.195 192.56 199.147 192.032 199.051 191.584C198.963 191.136 198.827 190.764 198.643 190.468C198.467 190.172 198.251 189.952 197.995 189.808C197.739 189.656 197.447 189.58 197.119 189.58C196.791 189.58 196.499 189.656 196.243 189.808C195.987 189.952 195.767 190.172 195.583 190.468C195.407 190.756 195.271 191.128 195.175 191.584C195.079 192.032 195.031 192.56 195.031 193.168C195.031 193.776 195.079 194.308 195.175 194.764C195.271 195.212 195.407 195.584 195.583 195.88C195.767 196.176 195.987 196.4 196.243 196.552C196.499 196.696 196.791 196.768 197.119 196.768ZM200.718 199.36V198.808H200.874C201.058 198.792 201.186 198.72 201.258 198.592C201.33 198.472 201.366 198.316 201.366 198.124V197.5H200.91V196.42H201.906V198.184C201.906 198.592 201.826 198.884 201.666 199.06C201.506 199.236 201.274 199.332 200.97 199.348L200.718 199.36ZM205.774 197.608C205.31 197.608 204.886 197.512 204.502 197.32C204.126 197.12 203.802 196.832 203.53 196.456C203.258 196.08 203.05 195.616 202.906 195.064C202.762 194.512 202.69 193.88 202.69 193.168C202.69 192.448 202.762 191.812 202.906 191.26C203.058 190.708 203.27 190.248 203.542 189.88C203.814 189.504 204.138 189.224 204.514 189.04C204.89 188.848 205.31 188.752 205.774 188.752C206.238 188.752 206.654 188.848 207.022 189.04C207.398 189.232 207.718 189.516 207.982 189.892C208.254 190.268 208.462 190.732 208.606 191.284C208.75 191.828 208.822 192.456 208.822 193.168C208.822 193.896 208.746 194.536 208.594 195.088C208.45 195.632 208.242 196.096 207.97 196.48C207.706 196.856 207.386 197.14 207.01 197.332C206.642 197.516 206.23 197.608 205.774 197.608ZM205.762 196.768C206.09 196.768 206.382 196.696 206.638 196.552C206.894 196.4 207.11 196.176 207.286 195.88C207.47 195.584 207.606 195.212 207.694 194.764C207.79 194.308 207.838 193.776 207.838 193.168C207.838 192.56 207.79 192.032 207.694 191.584C207.606 191.136 207.47 190.764 207.286 190.468C207.11 190.172 206.894 189.952 206.638 189.808C206.382 189.656 206.09 189.58 205.762 189.58C205.434 189.58 205.142 189.656 204.886 189.808C204.63 189.952 204.41 190.172 204.226 190.468C204.05 190.756 203.914 191.128 203.818 191.584C203.722 192.032 203.674 192.56 203.674 193.168C203.674 193.776 203.722 194.308 203.818 194.764C203.914 195.212 204.05 195.584 204.226 195.88C204.41 196.176 204.63 196.4 204.886 196.552C205.142 196.696 205.434 196.768 205.762 196.768ZM212.445 197.608C211.981 197.608 211.557 197.512 211.173 197.32C210.797 197.12 210.473 196.832 210.201 196.456C209.929 196.08 209.721 195.616 209.577 195.064C209.433 194.512 209.361 193.88 209.361 193.168C209.361 192.448 209.433 191.812 209.577 191.26C209.729 190.708 209.941 190.248 210.213 189.88C210.485 189.504 210.809 189.224 211.185 189.04C211.561 188.848 211.981 188.752 212.445 188.752C212.909 188.752 213.325 188.848 213.693 189.04C214.069 189.232 214.389 189.516 214.653 189.892C214.925 190.268 215.133 190.732 215.277 191.284C215.421 191.828 215.493 192.456 215.493 193.168C215.493 193.896 215.417 194.536 215.265 195.088C215.121 195.632 214.913 196.096 214.641 196.48C214.377 196.856 214.057 197.14 213.681 197.332C213.313 197.516 212.901 197.608 212.445 197.608ZM212.433 196.768C212.761 196.768 213.053 196.696 213.309 196.552C213.565 196.4 213.781 196.176 213.957 195.88C214.141 195.584 214.277 195.212 214.365 194.764C214.461 194.308 214.509 193.776 214.509 193.168C214.509 192.56 214.461 192.032 214.365 191.584C214.277 191.136 214.141 190.764 213.957 190.468C213.781 190.172 213.565 189.952 213.309 189.808C213.053 189.656 212.761 189.58 212.433 189.58C212.105 189.58 211.813 189.656 211.557 189.808C211.301 189.952 211.081 190.172 210.897 190.468C210.721 190.756 210.585 191.128 210.489 191.584C210.393 192.032 210.345 192.56 210.345 193.168C210.345 193.776 210.393 194.308 210.489 194.764C210.585 195.212 210.721 195.584 210.897 195.88C211.081 196.176 211.301 196.4 211.557 196.552C211.813 196.696 212.105 196.768 212.433 196.768ZM219.117 197.608C218.653 197.608 218.229 197.512 217.845 197.32C217.469 197.12 217.145 196.832 216.873 196.456C216.601 196.08 216.393 195.616 216.249 195.064C216.105 194.512 216.033 193.88 216.033 193.168C216.033 192.448 216.105 191.812 216.249 191.26C216.401 190.708 216.613 190.248 216.885 189.88C217.157 189.504 217.481 189.224 217.857 189.04C218.233 188.848 218.653 188.752 219.117 188.752C219.581 188.752 219.997 188.848 220.365 189.04C220.741 189.232 221.061 189.516 221.325 189.892C221.597 190.268 221.805 190.732 221.949 191.284C222.093 191.828 222.165 192.456 222.165 193.168C222.165 193.896 222.089 194.536 221.937 195.088C221.793 195.632 221.585 196.096 221.313 196.48C221.049 196.856 220.729 197.14 220.353 197.332C219.985 197.516 219.573 197.608 219.117 197.608ZM219.105 196.768C219.433 196.768 219.725 196.696 219.981 196.552C220.237 196.4 220.453 196.176 220.629 195.88C220.813 195.584 220.949 195.212 221.037 194.764C221.133 194.308 221.181 193.776 221.181 193.168C221.181 192.56 221.133 192.032 221.037 191.584C220.949 191.136 220.813 190.764 220.629 190.468C220.453 190.172 220.237 189.952 219.981 189.808C219.725 189.656 219.433 189.58 219.105 189.58C218.777 189.58 218.485 189.656 218.229 189.808C217.973 189.952 217.753 190.172 217.569 190.468C217.393 190.756 217.257 191.128 217.161 191.584C217.065 192.032 217.017 192.56 217.017 193.168C217.017 193.776 217.065 194.308 217.161 194.764C217.257 195.212 217.393 195.584 217.569 195.88C217.753 196.176 217.973 196.4 218.229 196.552C218.485 196.696 218.777 196.768 219.105 196.768ZM225.758 197.5V188.752H231.746V189.652H226.574L226.778 189.448V192.964L226.574 192.76H231.266V193.612H226.574L226.778 193.408V197.5H225.758ZM236.307 197.608C235.579 197.608 234.951 197.476 234.423 197.212C233.903 196.94 233.503 196.56 233.223 196.072C232.943 195.576 232.803 194.984 232.803 194.296V188.752H233.823V194.272C233.823 194.808 233.923 195.256 234.123 195.616C234.331 195.968 234.619 196.232 234.987 196.408C235.363 196.584 235.807 196.672 236.319 196.672C236.879 196.672 237.343 196.576 237.711 196.384C238.079 196.184 238.351 195.904 238.527 195.544C238.711 195.184 238.803 194.76 238.803 194.272V188.752H239.811V194.296C239.811 194.968 239.675 195.552 239.403 196.048C239.131 196.544 238.731 196.928 238.203 197.2C237.683 197.472 237.051 197.608 236.307 197.608ZM244.464 197.608C243.696 197.608 243.06 197.488 242.556 197.248C242.06 197.008 241.688 196.676 241.44 196.252C241.2 195.82 241.072 195.328 241.056 194.776H242.124C242.132 195.184 242.22 195.54 242.388 195.844C242.564 196.148 242.82 196.38 243.156 196.54C243.5 196.7 243.94 196.78 244.476 196.78C245.156 196.78 245.7 196.656 246.108 196.408C246.524 196.152 246.732 195.764 246.732 195.244C246.732 194.956 246.688 194.716 246.6 194.524C246.512 194.324 246.372 194.16 246.18 194.032C245.988 193.904 245.736 193.796 245.424 193.708C245.112 193.612 244.736 193.528 244.296 193.456C243.792 193.36 243.352 193.252 242.976 193.132C242.6 193.012 242.284 192.864 242.028 192.688C241.78 192.504 241.592 192.28 241.464 192.016C241.336 191.752 241.272 191.436 241.272 191.068C241.272 190.58 241.396 190.156 241.644 189.796C241.892 189.428 242.248 189.148 242.712 188.956C243.176 188.756 243.736 188.656 244.392 188.656C245.056 188.656 245.616 188.764 246.072 188.98C246.528 189.188 246.88 189.48 247.128 189.856C247.376 190.232 247.504 190.676 247.512 191.188H246.468C246.452 190.804 246.356 190.484 246.18 190.228C246.004 189.972 245.76 189.78 245.448 189.652C245.136 189.524 244.768 189.46 244.344 189.46C243.912 189.46 243.548 189.524 243.252 189.652C242.956 189.772 242.728 189.94 242.568 190.156C242.408 190.372 242.328 190.628 242.328 190.924C242.328 191.276 242.408 191.552 242.568 191.752C242.736 191.944 243 192.096 243.36 192.208C243.728 192.32 244.204 192.428 244.788 192.532C245.188 192.596 245.568 192.68 245.928 192.784C246.288 192.888 246.608 193.032 246.888 193.216C247.168 193.4 247.388 193.648 247.548 193.96C247.716 194.264 247.8 194.66 247.8 195.148C247.8 195.636 247.672 196.064 247.416 196.432C247.16 196.8 246.784 197.088 246.288 197.296C245.792 197.504 245.184 197.608 244.464 197.608ZM249.123 197.5V188.752H255.135V189.652H249.915L250.143 189.412V192.844L249.915 192.604H254.547V193.444H249.915L250.143 193.204V196.828L249.915 196.588H255.147V197.5H249.123Z" fill="#071927"/>
<path d="M17 217L257 217" stroke="#A7A7A7" stroke-width="0.5"/>
<path d="M21.688 241.5V234.372H19.108V232.752H26.188V234.372H23.548V241.5H21.688ZM28.3338 241.608C27.8457 241.608 27.4057 241.536 27.0138 241.392C26.6217 241.24 26.2817 241.02 25.9937 240.732C25.7057 240.444 25.4857 240.096 25.3337 239.688C25.1817 239.272 25.1057 238.804 25.1057 238.284C25.1057 237.62 25.2337 237.04 25.4897 236.544C25.7457 236.04 26.1137 235.648 26.5937 235.368C27.0737 235.088 27.6537 234.948 28.3338 234.948C28.8138 234.948 29.2498 235.024 29.6417 235.176C30.0338 235.328 30.3698 235.548 30.6498 235.836C30.9378 236.124 31.1578 236.472 31.3098 236.88C31.4698 237.288 31.5498 237.756 31.5498 238.284C31.5498 238.94 31.4218 239.52 31.1658 240.024C30.9097 240.52 30.5418 240.908 30.0618 241.188C29.5898 241.468 29.0138 241.608 28.3338 241.608ZM28.3218 240.18C28.6098 240.18 28.8618 240.112 29.0778 239.976C29.3018 239.832 29.4698 239.62 29.5818 239.34C29.7018 239.06 29.7618 238.708 29.7618 238.284C29.7618 237.964 29.7298 237.688 29.6658 237.456C29.6018 237.216 29.5058 237.016 29.3778 236.856C29.2498 236.696 29.0978 236.58 28.9217 236.508C28.7458 236.428 28.5498 236.388 28.3338 236.388C28.0457 236.388 27.7897 236.456 27.5658 236.592C27.3497 236.728 27.1817 236.936 27.0617 237.216C26.9417 237.496 26.8817 237.852 26.8817 238.284C26.8817 238.604 26.9137 238.884 26.9777 239.124C27.0497 239.356 27.1497 239.552 27.2778 239.712C27.4058 239.864 27.5577 239.98 27.7337 240.06C27.9097 240.14 28.1058 240.18 28.3218 240.18ZM34.4373 241.5C34.0053 241.5 33.6693 241.436 33.4293 241.308C33.1893 241.18 33.0213 241 32.9253 240.768C32.8373 240.528 32.7933 240.248 32.7933 239.928V236.484H31.6413V235.068H32.7933V233.316L34.5453 233.148V235.068H35.8413V236.484H34.5453V239.592C34.5453 239.784 34.5893 239.912 34.6773 239.976C34.7653 240.04 34.8933 240.072 35.0613 240.072H35.8413V241.5H34.4373ZM38.5905 241.608C38.2065 241.608 37.8545 241.54 37.5345 241.404C37.2225 241.268 36.9505 241.06 36.7185 240.78C36.4945 240.5 36.3225 240.152 36.2025 239.736C36.0825 239.32 36.0225 238.836 36.0225 238.284C36.0225 237.54 36.1265 236.924 36.3345 236.436C36.5505 235.94 36.8505 235.568 37.2345 235.32C37.6265 235.072 38.0785 234.948 38.5905 234.948C38.9265 234.948 39.2265 235 39.4905 235.104C39.7625 235.208 39.9945 235.352 40.1865 235.536C40.3865 235.72 40.5345 235.936 40.6305 236.184H40.7265L40.7985 235.068H42.4905V241.5H40.7265V240.372H40.6305C40.4865 240.748 40.2345 241.048 39.8745 241.272C39.5145 241.496 39.0865 241.608 38.5905 241.608ZM39.2625 240.18C39.5905 240.18 39.8585 240.104 40.0665 239.952C40.2825 239.8 40.4425 239.604 40.5465 239.364C40.6505 239.116 40.7025 238.856 40.7025 238.584V237.972C40.7025 237.692 40.6505 237.432 40.5465 237.192C40.4425 236.952 40.2825 236.756 40.0665 236.604C39.8585 236.452 39.5905 236.376 39.2625 236.376C38.9745 236.376 38.7225 236.444 38.5065 236.58C38.2905 236.716 38.1225 236.924 38.0025 237.204C37.8825 237.484 37.8225 237.844 37.8225 238.284C37.8225 238.708 37.8825 239.064 38.0025 239.352C38.1225 239.632 38.2905 239.84 38.5065 239.976C38.7225 240.112 38.9745 240.18 39.2625 240.18ZM43.6402 241.5V232.752H45.4042V241.5H43.6402Z" fill="#666666"/>
<path d="M183.392 241.5V235.692H181.208V234.348H181.568C182.144 234.348 182.596 234.212 182.924 233.94C183.26 233.66 183.448 233.296 183.488 232.848H185.156V241.5H183.392ZM189.53 241.584C189.018 241.584 188.558 241.484 188.15 241.284C187.75 241.076 187.406 240.78 187.118 240.396C186.838 240.004 186.622 239.536 186.47 238.992C186.326 238.448 186.254 237.832 186.254 237.144C186.254 236.432 186.33 235.804 186.482 235.26C186.642 234.716 186.866 234.256 187.154 233.88C187.45 233.504 187.802 233.22 188.21 233.028C188.618 232.836 189.07 232.74 189.566 232.74C190.078 232.74 190.534 232.844 190.934 233.052C191.334 233.252 191.674 233.544 191.954 233.928C192.242 234.312 192.458 234.776 192.602 235.32C192.746 235.864 192.818 236.48 192.818 237.168C192.818 237.872 192.738 238.5 192.578 239.052C192.426 239.604 192.202 240.068 191.906 240.444C191.618 240.82 191.274 241.104 190.874 241.296C190.474 241.488 190.026 241.584 189.53 241.584ZM189.542 240.096C189.766 240.096 189.97 240.052 190.154 239.964C190.338 239.868 190.498 239.708 190.634 239.484C190.77 239.26 190.874 238.96 190.946 238.584C191.026 238.2 191.066 237.724 191.066 237.156C191.066 236.588 191.026 236.116 190.946 235.74C190.874 235.356 190.77 235.056 190.634 234.84C190.498 234.616 190.338 234.46 190.154 234.372C189.97 234.276 189.766 234.228 189.542 234.228C189.318 234.228 189.11 234.276 188.918 234.372C188.734 234.46 188.574 234.616 188.438 234.84C188.302 235.056 188.198 235.352 188.126 235.728C188.054 236.104 188.018 236.58 188.018 237.156C188.018 237.724 188.054 238.2 188.126 238.584C188.198 238.96 188.302 239.26 188.438 239.484C188.574 239.708 188.734 239.868 188.918 239.964C189.11 240.052 189.318 240.096 189.542 240.096ZM196.494 241.584C195.982 241.584 195.522 241.484 195.114 241.284C194.714 241.076 194.37 240.78 194.082 240.396C193.802 240.004 193.586 239.536 193.434 238.992C193.29 238.448 193.218 237.832 193.218 237.144C193.218 236.432 193.294 235.804 193.446 235.26C193.606 234.716 193.83 234.256 194.118 233.88C194.414 233.504 194.766 233.22 195.174 233.028C195.582 232.836 196.034 232.74 196.53 232.74C197.042 232.74 197.498 232.844 197.898 233.052C198.298 233.252 198.638 233.544 198.918 233.928C199.206 234.312 199.422 234.776 199.566 235.32C199.71 235.864 199.782 236.48 199.782 237.168C199.782 237.872 199.702 238.5 199.542 239.052C199.39 239.604 199.166 240.068 198.87 240.444C198.582 240.82 198.238 241.104 197.838 241.296C197.438 241.488 196.99 241.584 196.494 241.584ZM196.506 240.096C196.73 240.096 196.934 240.052 197.118 239.964C197.302 239.868 197.462 239.708 197.598 239.484C197.734 239.26 197.838 238.96 197.91 238.584C197.99 238.2 198.03 237.724 198.03 237.156C198.03 236.588 197.99 236.116 197.91 235.74C197.838 235.356 197.734 235.056 197.598 234.84C197.462 234.616 197.302 234.46 197.118 234.372C196.934 234.276 196.73 234.228 196.506 234.228C196.282 234.228 196.074 234.276 195.882 234.372C195.698 234.46 195.538 234.616 195.402 234.84C195.266 235.056 195.162 235.352 195.09 235.728C195.018 236.104 194.982 236.58 194.982 237.156C194.982 237.724 195.018 238.2 195.09 238.584C195.162 238.96 195.266 239.26 195.402 239.484C195.538 239.708 195.698 239.868 195.882 239.964C196.074 240.052 196.282 240.096 196.506 240.096ZM200.098 243.516V242.64L200.326 242.628C200.59 242.628 200.774 242.564 200.878 242.436C200.99 242.308 201.046 242.136 201.046 241.92V241.5H200.278V239.88H201.97V242.004C201.97 242.556 201.838 242.944 201.574 243.168C201.318 243.392 200.974 243.508 200.542 243.516H200.098ZM205.875 241.584C205.363 241.584 204.903 241.484 204.495 241.284C204.095 241.076 203.751 240.78 203.463 240.396C203.183 240.004 202.967 239.536 202.815 238.992C202.671 238.448 202.599 237.832 202.599 237.144C202.599 236.432 202.675 235.804 202.827 235.26C202.987 234.716 203.211 234.256 203.499 233.88C203.795 233.504 204.147 233.22 204.555 233.028C204.963 232.836 205.415 232.74 205.911 232.74C206.423 232.74 206.879 232.844 207.279 233.052C207.679 233.252 208.019 233.544 208.299 233.928C208.587 234.312 208.803 234.776 208.947 235.32C209.091 235.864 209.163 236.48 209.163 237.168C209.163 237.872 209.083 238.5 208.923 239.052C208.771 239.604 208.547 240.068 208.251 240.444C207.963 240.82 207.619 241.104 207.219 241.296C206.819 241.488 206.371 241.584 205.875 241.584ZM205.887 240.096C206.111 240.096 206.315 240.052 206.499 239.964C206.683 239.868 206.843 239.708 206.979 239.484C207.115 239.26 207.219 238.96 207.291 238.584C207.371 238.2 207.411 237.724 207.411 237.156C207.411 236.588 207.371 236.116 207.291 235.74C207.219 235.356 207.115 235.056 206.979 234.84C206.843 234.616 206.683 234.46 206.499 234.372C206.315 234.276 206.111 234.228 205.887 234.228C205.663 234.228 205.455 234.276 205.263 234.372C205.079 234.46 204.919 234.616 204.783 234.84C204.647 235.056 204.543 235.352 204.471 235.728C204.399 236.104 204.363 236.58 204.363 237.156C204.363 237.724 204.399 238.2 204.471 238.584C204.543 238.96 204.647 239.26 204.783 239.484C204.919 239.708 205.079 239.868 205.263 239.964C205.455 240.052 205.663 240.096 205.887 240.096ZM212.84 241.584C212.328 241.584 211.868 241.484 211.46 241.284C211.06 241.076 210.716 240.78 210.428 240.396C210.148 240.004 209.932 239.536 209.78 238.992C209.636 238.448 209.564 237.832 209.564 237.144C209.564 236.432 209.64 235.804 209.792 235.26C209.952 234.716 210.176 234.256 210.464 233.88C210.76 233.504 211.112 233.22 211.52 233.028C211.928 232.836 212.38 232.74 212.876 232.74C213.388 232.74 213.844 232.844 214.244 233.052C214.644 233.252 214.984 233.544 215.264 233.928C215.552 234.312 215.768 234.776 215.912 235.32C216.056 235.864 216.128 236.48 216.128 237.168C216.128 237.872 216.048 238.5 215.888 239.052C215.736 239.604 215.512 240.068 215.216 240.444C214.928 240.82 214.584 241.104 214.184 241.296C213.784 241.488 213.336 241.584 212.84 241.584ZM212.852 240.096C213.076 240.096 213.28 240.052 213.464 239.964C213.648 239.868 213.808 239.708 213.944 239.484C214.08 239.26 214.184 238.96 214.256 238.584C214.336 238.2 214.376 237.724 214.376 237.156C214.376 236.588 214.336 236.116 214.256 235.74C214.184 235.356 214.08 235.056 213.944 234.84C213.808 234.616 213.648 234.46 213.464 234.372C213.28 234.276 213.076 234.228 212.852 234.228C212.628 234.228 212.42 234.276 212.228 234.372C212.044 234.46 211.884 234.616 211.748 234.84C211.612 235.056 211.508 235.352 211.436 235.728C211.364 236.104 211.328 236.58 211.328 237.156C211.328 237.724 211.364 238.2 211.436 238.584C211.508 238.96 211.612 239.26 211.748 239.484C211.884 239.708 212.044 239.868 212.228 239.964C212.42 240.052 212.628 240.096 212.852 240.096ZM219.804 241.584C219.292 241.584 218.832 241.484 218.424 241.284C218.024 241.076 217.68 240.78 217.392 240.396C217.112 240.004 216.896 239.536 216.744 238.992C216.6 238.448 216.528 237.832 216.528 237.144C216.528 236.432 216.604 235.804 216.756 235.26C216.916 234.716 217.14 234.256 217.428 233.88C217.724 233.504 218.076 233.22 218.484 233.028C218.892 232.836 219.344 232.74 219.84 232.74C220.352 232.74 220.808 232.844 221.208 233.052C221.608 233.252 221.948 233.544 222.228 233.928C222.516 234.312 222.732 234.776 222.876 235.32C223.02 235.864 223.092 236.48 223.092 237.168C223.092 237.872 223.012 238.5 222.852 239.052C222.7 239.604 222.476 240.068 222.18 240.444C221.892 240.82 221.548 241.104 221.148 241.296C220.748 241.488 220.3 241.584 219.804 241.584ZM219.816 240.096C220.04 240.096 220.244 240.052 220.428 239.964C220.612 239.868 220.772 239.708 220.908 239.484C221.044 239.26 221.148 238.96 221.22 238.584C221.3 238.2 221.34 237.724 221.34 237.156C221.34 236.588 221.3 236.116 221.22 235.74C221.148 235.356 221.044 235.056 220.908 234.84C220.772 234.616 220.612 234.46 220.428 234.372C220.244 234.276 220.04 234.228 219.816 234.228C219.592 234.228 219.384 234.276 219.192 234.372C219.008 234.46 218.848 234.616 218.712 234.84C218.576 235.056 218.472 235.352 218.4 235.728C218.328 236.104 218.292 236.58 218.292 237.156C218.292 237.724 218.328 238.2 218.4 238.584C218.472 238.96 218.576 239.26 218.712 239.484C218.848 239.708 219.008 239.868 219.192 239.964C219.384 240.052 219.592 240.096 219.816 240.096ZM226.251 241.5V232.752H232.599V234.348H227.811L228.123 234.036V236.856L227.811 236.544H232.119V238.068H227.811L228.123 237.756V241.5H226.251ZM237.132 241.608C236.348 241.608 235.676 241.468 235.116 241.188C234.564 240.908 234.14 240.512 233.844 240C233.556 239.48 233.412 238.872 233.412 238.176V232.752H235.272V238.164C235.272 238.556 235.344 238.888 235.488 239.16C235.64 239.424 235.856 239.624 236.136 239.76C236.416 239.888 236.752 239.952 237.144 239.952C237.56 239.952 237.904 239.884 238.176 239.748C238.456 239.604 238.664 239.4 238.8 239.136C238.944 238.864 239.016 238.54 239.016 238.164V232.752H240.876V238.176C240.876 238.896 240.72 239.512 240.408 240.024C240.104 240.536 239.672 240.928 239.112 241.2C238.56 241.472 237.9 241.608 237.132 241.608ZM245.396 241.608C244.612 241.608 243.952 241.488 243.416 241.248C242.88 241.008 242.472 240.672 242.192 240.24C241.92 239.808 241.784 239.312 241.784 238.752H243.68C243.688 239.04 243.752 239.292 243.872 239.508C244 239.716 244.192 239.88 244.448 240C244.712 240.12 245.052 240.18 245.468 240.18C245.948 240.18 246.332 240.092 246.62 239.916C246.908 239.74 247.052 239.48 247.052 239.136C247.052 238.928 247.02 238.756 246.956 238.62C246.892 238.484 246.78 238.372 246.62 238.284C246.468 238.188 246.26 238.112 245.996 238.056C245.74 237.992 245.412 237.924 245.012 237.852C244.516 237.78 244.076 237.676 243.692 237.54C243.308 237.404 242.988 237.236 242.732 237.036C242.476 236.836 242.284 236.596 242.156 236.316C242.028 236.028 241.964 235.692 241.964 235.308C241.964 234.756 242.1 234.284 242.372 233.892C242.652 233.492 243.048 233.184 243.56 232.968C244.072 232.752 244.68 232.644 245.384 232.644C246.072 232.644 246.664 232.752 247.16 232.968C247.664 233.184 248.052 233.488 248.324 233.88C248.596 234.272 248.732 234.728 248.732 235.248H246.848C246.84 234.968 246.764 234.74 246.62 234.564C246.484 234.388 246.304 234.26 246.08 234.18C245.856 234.1 245.604 234.06 245.324 234.06C245.036 234.06 244.784 234.1 244.568 234.18C244.352 234.26 244.188 234.376 244.076 234.528C243.964 234.68 243.908 234.86 243.908 235.068C243.908 235.332 243.976 235.532 244.112 235.668C244.256 235.804 244.484 235.912 244.796 235.992C245.108 236.064 245.516 236.144 246.02 236.232C246.388 236.288 246.748 236.364 247.1 236.46C247.452 236.556 247.772 236.7 248.06 236.892C248.348 237.076 248.576 237.336 248.744 237.672C248.912 238 248.996 238.428 248.996 238.956C248.996 239.476 248.86 239.94 248.588 240.348C248.324 240.748 247.924 241.06 247.388 241.284C246.86 241.5 246.196 241.608 245.396 241.608ZM250.038 241.5V232.752H256.398V234.348H251.502L251.91 233.952V236.7L251.502 236.304H255.81V237.804H251.502L251.91 237.408V240.3L251.502 239.904H256.422V241.5H250.038Z" fill="#071927"/>
</g>
<rect x="0.25" y="0.25" width="272.5" height="302.5" rx="14.75" stroke="black" stroke-width="0.5"/>
<rect y="54" width="273" height="207" fill="url(#paint0_linear_65_304)"/>
<defs>
<linearGradient id="paint0_linear_65_304" x1="136.5" y1="54" x2="136.5" y2="261" gradientUnits="userSpaceOnUse">
<stop stop-color="#D9D9D9" stop-opacity="0"/>
<stop offset="1" stop-color="#D9D9D9"/>
</linearGradient>
<clipPath id="clip0_65_304">
<rect width="273" height="303" rx="15" fill="white"/>
</clipPath>
</defs>
</svg>
