<svg width="288" height="261" viewBox="0 0 288 261" fill="none" xmlns="http://www.w3.org/2000/svg">
<g clip-path="url(#clip0_5252_83)">
<rect x="10" width="273" height="303" rx="15" fill="#F2F2F2"/>
<rect x="27" y="24" width="240" height="32" rx="10" fill="#D9D9D9"/>
<rect x="29" y="26" width="126" height="28" rx="10" fill="white"/>
<path d="M76.496 44.608C74.156 44.608 72.968 43.444 72.956 41.764H74.576C74.6 42.748 75.188 43.384 76.556 43.384C77.648 43.384 78.356 42.988 78.356 42.172C78.356 41.236 77.84 40.996 76.184 40.72C74.18 40.396 73.148 39.736 73.148 38.224C73.148 36.64 74.396 35.644 76.472 35.644C78.5 35.644 79.724 36.676 79.736 38.224H78.14C78.092 37.276 77.384 36.856 76.412 36.856C75.404 36.856 74.792 37.312 74.792 38.02C74.792 38.908 75.428 39.064 77.024 39.328C78.536 39.58 80.012 39.964 80.012 42.016C80.012 43.552 78.812 44.608 76.496 44.608ZM83.2879 44.5C82.0999 44.5 81.7759 43.96 81.7759 43.048V39.328H80.5999V38.116H81.7759V36.316L83.2639 36.16V38.116H84.6199V39.328H83.2639V42.772C83.2639 43.18 83.4319 43.276 83.8039 43.276H84.6199V44.5H83.2879ZM87.769 44.608C86.233 44.608 85.201 43.468 85.201 41.308C85.201 39.136 86.233 37.996 87.769 37.996C88.801 37.996 89.569 38.512 89.881 39.292H89.965L90.025 38.116H91.465V44.5H89.965V43.312H89.881C89.569 44.092 88.801 44.608 87.769 44.608ZM88.333 43.384C89.401 43.384 89.941 42.532 89.941 41.632V40.972C89.941 40.06 89.401 39.22 88.333 39.22C87.373 39.22 86.725 39.904 86.725 41.308C86.725 42.7 87.373 43.384 88.333 43.384ZM93.0735 44.5V35.752H94.5975V40.96L95.1375 40.348L97.2735 38.116H99.1335L96.6615 40.624L99.1935 44.5H97.4295L95.9895 42.28L95.6055 41.62L94.5975 42.616V44.5H93.0735ZM102.478 44.608C100.521 44.608 99.3455 43.312 99.3455 41.344C99.3455 39.304 100.546 37.996 102.418 37.996C104.59 37.996 105.622 39.556 105.406 41.632H100.822C100.822 42.796 101.482 43.456 102.478 43.456C103.246 43.456 103.81 43.084 103.954 42.508H105.382C105.202 43.768 104.038 44.608 102.478 44.608ZM102.418 39.148C101.518 39.148 100.93 39.712 100.834 40.624H103.942C103.894 39.616 103.258 39.148 102.418 39.148Z" fill="black"/>
<path d="M187.863 44.608C185.619 44.608 184.287 43.324 184.287 41.26V35.752H185.595V41.236C185.595 42.7 186.459 43.432 187.875 43.432C189.411 43.432 190.155 42.592 190.155 41.236V35.752H191.451V41.26C191.451 43.324 190.107 44.608 187.863 44.608ZM193.307 44.5V38.152H194.483L194.531 39.412H194.603C194.975 38.512 195.815 38.056 196.751 38.056C198.047 38.056 199.019 38.788 199.019 40.732V44.5H197.783V40.984C197.783 39.688 197.315 39.076 196.307 39.076C195.215 39.076 194.531 39.94 194.531 41.032V44.5H193.307ZM203.054 44.62C201.314 44.62 200.342 43.768 200.342 42.508H201.566C201.566 43.372 202.202 43.744 203.09 43.744C204.002 43.744 204.482 43.396 204.482 42.808C204.482 42.1 204.026 41.932 202.958 41.776C201.518 41.572 200.522 41.236 200.522 39.94C200.522 38.728 201.542 38.032 203.078 38.032C204.638 38.032 205.586 38.788 205.61 40.024H204.398C204.386 39.256 203.87 38.908 203.054 38.908C202.214 38.908 201.758 39.28 201.758 39.82C201.758 40.444 202.238 40.636 203.318 40.78C204.638 40.96 205.742 41.248 205.742 42.7C205.742 43.996 204.71 44.62 203.054 44.62ZM208.959 44.5C207.915 44.5 207.591 44.032 207.591 43.18V39.16H206.391V38.152H207.591V36.316L208.827 36.172V38.152H210.231V39.16H208.827V42.952C208.827 43.372 208.971 43.48 209.367 43.48H210.231V44.5H208.959ZM213.444 44.608C211.896 44.608 210.852 43.444 210.852 41.32C210.852 39.196 211.896 38.044 213.444 38.044C214.512 38.044 215.304 38.584 215.604 39.4H215.676L215.724 38.152H216.912V44.5H215.676V43.24H215.604C215.304 44.056 214.512 44.608 213.444 44.608ZM213.876 43.588C215.052 43.588 215.664 42.664 215.664 41.68V40.96C215.664 39.988 215.052 39.052 213.876 39.052C212.82 39.052 212.124 39.82 212.124 41.32C212.124 42.808 212.82 43.588 213.876 43.588ZM218.643 44.5V35.752H219.891V41.188L220.443 40.588L222.807 38.152H224.343L221.883 40.624L224.439 44.5H222.987L221.403 42.1L221.019 41.464L219.891 42.556V44.5H218.643ZM227.74 44.608C225.832 44.608 224.668 43.312 224.668 41.356C224.668 39.352 225.832 38.056 227.692 38.056C229.78 38.056 230.788 39.58 230.596 41.572H225.892C225.916 42.88 226.636 43.624 227.74 43.624C228.592 43.624 229.228 43.204 229.384 42.544H230.56C230.392 43.792 229.24 44.608 227.74 44.608ZM227.68 39.028C226.684 39.028 226.012 39.664 225.916 40.696H229.384C229.348 39.52 228.616 39.028 227.68 39.028Z" fill="black"/>
<path d="M114.04 84L116.71 76.71H117.9L120.57 84H119.68L119.02 82.2H115.59L114.94 84H114.04ZM115.81 81.52H118.8L117.9 79.08L117.34 77.51H117.29L116.72 79.08L115.81 81.52ZM122.12 84L120.19 78.75H121.07L122.25 82.2L122.6 83.28H122.63L122.96 82.2L124.14 78.75H125.01L123.1 84H122.12ZM127.439 84.09C126.149 84.09 125.279 83.1 125.279 81.37C125.279 79.64 126.149 78.66 127.439 78.66C128.359 78.66 129.039 79.13 129.299 79.84H129.349L129.379 78.75H130.159V84H129.349V82.9H129.299C129.039 83.61 128.359 84.09 127.439 84.09ZM127.709 83.41C128.759 83.41 129.339 82.57 129.339 81.69V81.05C129.339 80.17 128.759 79.33 127.709 79.33C126.749 79.33 126.109 80.04 126.109 81.37C126.109 82.69 126.749 83.41 127.709 83.41ZM131.674 77.88V76.71H132.484V77.88H131.674ZM131.674 84V78.75H132.484V84H131.674ZM134.008 84V76.71H134.818V84H134.008ZM138.132 84.09C136.842 84.09 135.972 83.1 135.972 81.37C135.972 79.64 136.842 78.66 138.132 78.66C139.052 78.66 139.732 79.13 139.992 79.84H140.042L140.072 78.75H140.852V84H140.042V82.9H139.992C139.732 83.61 139.052 84.09 138.132 84.09ZM138.402 83.41C139.452 83.41 140.032 82.57 140.032 81.69V81.05C140.032 80.17 139.452 79.33 138.402 79.33C137.442 79.33 136.802 80.04 136.802 81.37C136.802 82.69 137.442 83.41 138.402 83.41ZM145.077 84.09C144.167 84.09 143.487 83.62 143.227 82.91H143.177L143.147 84H142.367V76.71H143.177V79.84H143.227C143.487 79.14 144.167 78.66 145.077 78.66C146.377 78.66 147.247 79.65 147.247 81.38C147.247 83.11 146.377 84.09 145.077 84.09ZM144.817 83.41C145.777 83.41 146.417 82.7 146.417 81.38C146.417 80.05 145.777 79.34 144.817 79.34C143.757 79.34 143.187 80.17 143.187 81.06V81.69C143.187 82.58 143.757 83.41 144.817 83.41ZM148.393 84V76.71H149.203V84H148.393ZM152.857 84.09C151.317 84.09 150.357 83.02 150.357 81.39C150.357 79.75 151.297 78.67 152.817 78.67C154.507 78.67 155.327 79.91 155.167 81.52H151.157C151.187 82.73 151.847 83.42 152.857 83.42C153.647 83.42 154.227 83.03 154.367 82.41H155.147C154.997 83.42 154.057 84.09 152.857 84.09ZM152.807 79.33C151.897 79.33 151.277 79.92 151.177 80.89H154.377C154.347 79.78 153.677 79.33 152.807 79.33ZM158.797 84V76.71H162.067C163.467 76.71 164.237 77.46 164.237 78.58C164.237 79.35 163.847 80.01 163.037 80.21V80.25C163.957 80.43 164.427 81.13 164.427 81.97C164.427 83.25 163.497 84 161.977 84H158.797ZM159.637 79.93H162.007C162.917 79.93 163.387 79.43 163.387 78.69C163.387 77.87 162.797 77.4 161.887 77.4H159.637V79.93ZM159.637 83.31H161.907C163.017 83.31 163.557 82.74 163.557 81.92C163.557 81.08 162.997 80.6 162.047 80.6H159.637V83.31ZM167.419 84.09C166.129 84.09 165.259 83.1 165.259 81.37C165.259 79.64 166.129 78.66 167.419 78.66C168.339 78.66 169.019 79.13 169.279 79.84H169.329L169.359 78.75H170.139V84H169.329V82.9H169.279C169.019 83.61 168.339 84.09 167.419 84.09ZM167.689 83.41C168.739 83.41 169.319 82.57 169.319 81.69V81.05C169.319 80.17 168.739 79.33 167.689 79.33C166.729 79.33 166.089 80.04 166.089 81.37C166.089 82.69 166.729 83.41 167.689 83.41ZM171.655 84V76.71H172.465V84H171.655ZM175.779 84.09C174.489 84.09 173.619 83.1 173.619 81.37C173.619 79.64 174.489 78.66 175.779 78.66C176.699 78.66 177.379 79.13 177.639 79.84H177.689L177.719 78.75H178.499V84H177.689V82.9H177.639C177.379 83.61 176.699 84.09 175.779 84.09ZM176.049 83.41C177.099 83.41 177.679 82.57 177.679 81.69V81.05C177.679 80.17 177.099 79.33 176.049 79.33C175.089 79.33 174.449 80.04 174.449 81.37C174.449 82.69 175.089 83.41 176.049 83.41ZM180.014 84V78.75H180.784L180.814 79.84H180.874C181.194 79.07 181.914 78.67 182.704 78.67C183.794 78.67 184.594 79.29 184.594 80.91V84H183.784V81.07C183.784 79.89 183.354 79.35 182.444 79.35C181.454 79.35 180.814 80.13 180.814 81.16V84H180.014ZM188.219 84.09C186.699 84.09 185.699 83.01 185.699 81.38C185.699 79.76 186.699 78.67 188.249 78.67C189.489 78.67 190.399 79.41 190.489 80.51H189.709C189.569 79.76 188.979 79.36 188.229 79.36C187.149 79.36 186.519 80.18 186.519 81.39C186.519 82.66 187.189 83.4 188.219 83.4C189.059 83.4 189.639 82.9 189.729 82.16H190.519C190.419 83.33 189.489 84.09 188.219 84.09ZM193.765 84.09C192.225 84.09 191.265 83.02 191.265 81.39C191.265 79.75 192.205 78.67 193.725 78.67C195.415 78.67 196.235 79.91 196.075 81.52H192.065C192.095 82.73 192.755 83.42 193.765 83.42C194.555 83.42 195.135 83.03 195.275 82.41H196.055C195.905 83.42 194.965 84.09 193.765 84.09ZM193.715 79.33C192.805 79.33 192.185 79.92 192.085 80.89H195.285C195.255 79.78 194.585 79.33 193.715 79.33ZM197.07 79.66V78.75H197.9V79.66H197.07ZM197.07 84V83.1H197.9V84H197.07ZM202.808 84V78.59H201.108V77.97H201.378C202.348 77.97 202.758 77.5 202.828 76.79H203.618V84H202.808ZM205.044 85.55V85.09H205.174C205.484 85.06 205.584 84.84 205.584 84.52V84H205.204V83.1H206.034V84.57C206.034 85.25 205.754 85.51 205.254 85.54L205.044 85.55ZM209.547 84.09C208.097 84.09 207.157 83.17 207.157 81.8H207.957C207.947 82.74 208.577 83.37 209.557 83.37C210.617 83.37 211.217 82.67 211.217 81.65C211.217 80.55 210.567 79.9 209.577 79.9C208.837 79.9 208.297 80.27 208.067 80.79H207.307L207.467 76.79H211.707V77.5H208.177L208.067 79.95L208.117 79.97C208.427 79.51 209.037 79.21 209.737 79.21C211.147 79.21 212.057 80.19 212.057 81.62C212.057 83.1 211.077 84.09 209.547 84.09ZM214.644 84C214.644 81.07 215.744 79.22 216.924 77.5H213.684V78.99H213.014V76.79H217.884V77.37C216.614 79.22 215.514 80.96 215.514 84H214.644ZM221.336 84.07C219.816 84.07 218.786 83.31 218.786 82.11C218.786 81.27 219.326 80.51 220.326 80.38V80.34C219.366 80.18 218.916 79.45 218.916 78.64C218.916 77.47 219.846 76.71 221.336 76.71C222.826 76.71 223.766 77.49 223.766 78.65C223.766 79.46 223.326 80.2 222.356 80.34V80.38C223.346 80.48 223.876 81.21 223.876 82.1C223.876 83.3 222.846 84.07 221.336 84.07ZM221.336 80.03C222.466 80.03 222.936 79.44 222.936 78.72C222.936 77.89 222.296 77.39 221.336 77.39C220.346 77.39 219.756 77.91 219.756 78.72C219.756 79.48 220.236 80.03 221.336 80.03ZM221.336 83.37C222.356 83.37 223.006 82.83 223.006 82C223.006 81.25 222.476 80.71 221.336 80.71C220.176 80.71 219.666 81.3 219.666 82C219.666 82.86 220.336 83.37 221.336 83.37ZM224.902 84V83.1H225.732V84H224.902ZM226.764 84V83.84C226.764 81.11 230.534 80.76 230.534 78.8C230.534 77.95 229.954 77.41 229.074 77.41C228.154 77.41 227.524 78.01 227.564 78.97H226.784C226.734 77.6 227.704 76.7 229.124 76.7C230.484 76.7 231.374 77.53 231.374 78.75C231.374 80.99 228.024 81.55 227.754 83.28H231.464V84H226.764ZM234.759 84.09C233.289 84.09 232.369 83.17 232.389 81.79H233.179C233.149 82.74 233.779 83.38 234.759 83.38C235.729 83.38 236.369 82.82 236.369 81.95C236.369 81.04 235.779 80.6 234.899 80.6H234.159V79.96H234.869C235.779 79.96 236.259 79.4 236.259 78.66C236.259 77.86 235.669 77.41 234.789 77.41C233.799 77.41 233.239 78.03 233.229 78.97H232.449C232.429 77.6 233.369 76.7 234.809 76.7C236.209 76.7 237.099 77.44 237.099 78.58C237.099 79.4 236.629 80.01 235.929 80.23V80.28C236.739 80.47 237.209 81.12 237.209 82.01C237.209 83.26 236.229 84.09 234.759 84.09ZM240.965 84V76.71H245.955V77.46H241.815V80.05H245.555V80.76H241.815V84H240.965ZM250.056 84.09C248.236 84.09 247.136 83.05 247.136 81.33V76.71H247.986V81.31C247.986 82.65 248.786 83.31 250.066 83.31C251.466 83.31 252.136 82.53 252.136 81.31V76.71H252.976V81.33C252.976 83.02 251.906 84.09 250.056 84.09ZM257.154 84.09C255.234 84.09 254.344 83.11 254.314 81.73H255.204C255.224 82.76 255.824 83.4 257.164 83.4C258.294 83.4 259.044 82.99 259.044 82.12C259.044 81.17 258.504 80.88 257.014 80.63C255.354 80.33 254.494 79.88 254.494 78.64C254.494 77.41 255.464 76.63 257.094 76.63C258.744 76.63 259.674 77.47 259.694 78.74H258.824C258.784 77.79 258.114 77.3 257.054 77.3C255.984 77.3 255.374 77.79 255.374 78.52C255.374 79.4 255.954 79.6 257.424 79.86C258.754 80.09 259.934 80.41 259.934 82.04C259.934 83.26 258.954 84.09 257.154 84.09ZM261.336 84V76.71H266.346V77.46H262.186V79.92H265.856V80.62H262.186V83.24H266.356V84H261.336Z" fill="#666666"/>
<rect x="27" y="96" width="240" height="43" rx="10" fill="white"/>
<rect x="37" y="102" width="31" height="31" rx="15.5" fill="#CFCFCF"/>
<path d="M49.2965 109.315L52.5017 107.464C52.5929 107.412 52.7062 107.412 52.7974 107.464L61.2447 112.341C61.336 112.394 61.3922 112.491 61.393 112.597L61.4044 115.951C61.4044 116.057 61.3483 116.156 61.2561 116.208L58.0554 118.057C57.8588 118.171 57.6122 118.028 57.6113 117.801L57.6008 114.791C57.6008 114.686 57.5437 114.588 57.4524 114.535L49.2965 109.828C49.0991 109.714 49.0991 109.429 49.2965 109.315Z" fill="black"/>
<path d="M47.2266 124.51L44.0223 122.66C43.9302 122.607 43.874 122.509 43.874 122.403V112.649C43.874 112.544 43.9302 112.446 44.0215 112.393L46.9212 110.705C47.0133 110.652 47.1266 110.652 47.2178 110.705L50.4186 112.553C50.6152 112.668 50.616 112.951 50.4195 113.066L47.8181 114.58C47.7269 114.633 47.6707 114.73 47.6707 114.836V124.254C47.6707 124.482 47.4241 124.625 47.2266 124.51V124.51Z" fill="black"/>
<path d="M61.4049 118.703V122.403C61.4049 122.509 61.3487 122.606 61.2566 122.659L52.8093 127.536C52.718 127.589 52.6057 127.589 52.5144 127.536L49.6033 125.869C49.5111 125.816 49.4541 125.718 49.4541 125.611V121.916C49.4541 121.688 49.6998 121.546 49.8973 121.659L52.5092 123.155C52.6004 123.208 52.7128 123.207 52.804 123.155L60.9599 118.445C61.1574 118.331 61.404 118.474 61.404 118.702L61.4049 118.703Z" fill="black"/>
<path d="M82.172 123.112C79.918 123.112 78.49 121.222 78.49 117.932C78.49 114.586 79.974 112.794 82.186 112.794C84.412 112.794 85.812 114.67 85.812 117.946C85.812 121.306 84.342 123.112 82.172 123.112ZM82.158 121.88C83.53 121.88 84.37 120.718 84.37 117.946C84.37 115.174 83.53 114.012 82.158 114.012C80.786 114.012 79.946 115.16 79.946 117.946C79.946 120.718 80.786 121.88 82.158 121.88ZM87.0825 123V121.53H88.5245V123H87.0825ZM93.465 123.112C91.211 123.112 89.783 121.222 89.783 117.932C89.783 114.586 91.267 112.794 93.479 112.794C95.705 112.794 97.105 114.67 97.105 117.946C97.105 121.306 95.635 123.112 93.465 123.112ZM93.451 121.88C94.823 121.88 95.663 120.718 95.663 117.946C95.663 115.174 94.823 114.012 93.451 114.012C92.079 114.012 91.239 115.16 91.239 117.946C91.239 120.718 92.079 121.88 93.451 121.88Z" fill="black"/>
<rect x="211" y="105" width="46" height="26" rx="8" fill="#D9D9D9"/>
<path d="M220.232 122V111.794H222.57L225.412 119.606H225.468L228.31 111.794H230.634V122H229.15V117.226L229.192 113.404H229.094L226.056 122H224.838L221.8 113.404H221.702L221.73 117.24V122H220.232ZM235.407 122.126C233.601 122.126 232.383 120.768 232.383 118.29C232.383 115.812 233.601 114.468 235.407 114.468C236.653 114.468 237.577 115.098 237.927 116.05H238.011L238.067 114.594H239.453V122H238.011V120.53H237.927C237.577 121.482 236.653 122.126 235.407 122.126ZM235.911 120.936C237.283 120.936 237.997 119.858 237.997 118.71V117.87C237.997 116.736 237.283 115.644 235.911 115.644C234.679 115.644 233.867 116.54 233.867 118.29C233.867 120.026 234.679 120.936 235.911 120.936ZM240.423 122L243.307 118.178L240.717 114.594H242.425L244.259 117.184H244.329L246.135 114.594H247.773L245.253 118.136L248.053 122H246.359L244.287 119.102H244.203L242.047 122H240.423Z" fill="black"/>
<path d="M31.74 168.108C31.1 168.108 30.52 168.004 30 167.796C29.48 167.58 29.032 167.276 28.656 166.884C28.288 166.492 28.004 166.024 27.804 165.48C27.604 164.928 27.504 164.312 27.504 163.632C27.504 162.944 27.604 162.328 27.804 161.784C28.004 161.232 28.292 160.76 28.668 160.368C29.044 159.976 29.488 159.676 30 159.468C30.52 159.26 31.1 159.156 31.74 159.156C32.444 159.156 33.072 159.28 33.624 159.528C34.184 159.768 34.64 160.112 34.992 160.56C35.352 161.008 35.576 161.536 35.664 162.144H34.62C34.54 161.736 34.372 161.376 34.116 161.064C33.86 160.752 33.532 160.508 33.132 160.332C32.732 160.148 32.268 160.056 31.74 160.056C31.092 160.056 30.528 160.2 30.048 160.488C29.568 160.776 29.2 161.188 28.944 161.724C28.688 162.252 28.56 162.888 28.56 163.632C28.56 164.184 28.632 164.684 28.776 165.132C28.928 165.572 29.14 165.948 29.412 166.26C29.692 166.564 30.028 166.8 30.42 166.968C30.812 167.128 31.252 167.208 31.74 167.208C32.26 167.208 32.72 167.12 33.12 166.944C33.528 166.768 33.86 166.52 34.116 166.2C34.38 165.88 34.548 165.504 34.62 165.072L35.664 165.084C35.592 165.692 35.38 166.224 35.028 166.68C34.676 167.136 34.216 167.488 33.648 167.736C33.088 167.984 32.452 168.108 31.74 168.108ZM38.9361 168.108C38.4721 168.108 38.0681 168.016 37.7241 167.832C37.3801 167.64 37.1161 167.356 36.9321 166.98C36.7481 166.596 36.6561 166.124 36.6561 165.564V161.7H37.6281V165.324C37.6281 165.74 37.6841 166.096 37.7961 166.392C37.9081 166.68 38.0841 166.9 38.3241 167.052C38.5721 167.204 38.8881 167.28 39.2721 167.28C39.6481 167.28 39.9801 167.188 40.2681 167.004C40.5561 166.82 40.7801 166.56 40.9401 166.224C41.1001 165.888 41.1801 165.5 41.1801 165.06V161.7H42.1521V168H41.2281L41.1801 166.656H41.1201C40.9521 167.104 40.6721 167.46 40.2801 167.724C39.8881 167.98 39.4401 168.108 38.9361 168.108ZM43.5514 168V161.7H44.4154L44.4754 162.864H44.5234C44.6594 162.464 44.8994 162.156 45.2434 161.94C45.5874 161.724 45.9714 161.616 46.3954 161.616C46.4674 161.616 46.5354 161.62 46.5994 161.628C46.6634 161.628 46.7234 161.632 46.7794 161.64V162.564C46.7234 162.556 46.6634 162.552 46.5994 162.552C46.5354 162.544 46.4674 162.54 46.3954 162.54C46.0274 162.54 45.7074 162.608 45.4354 162.744C45.1634 162.88 44.9474 163.076 44.7874 163.332C44.6354 163.58 44.5434 163.884 44.5114 164.244V168H43.5514ZM47.5625 168V161.7H48.4265L48.4865 162.864H48.5345C48.6705 162.464 48.9105 162.156 49.2545 161.94C49.5985 161.724 49.9825 161.616 50.4065 161.616C50.4785 161.616 50.5465 161.62 50.6105 161.628C50.6745 161.628 50.7345 161.632 50.7905 161.64V162.564C50.7345 162.556 50.6745 162.552 50.6105 162.552C50.5465 162.544 50.4785 162.54 50.4065 162.54C50.0385 162.54 49.7185 162.608 49.4465 162.744C49.1745 162.88 48.9585 163.076 48.7985 163.332C48.6465 163.58 48.5545 163.884 48.5225 164.244V168H47.5625ZM53.8952 168.108C53.2792 168.108 52.7472 167.976 52.2992 167.712C51.8512 167.44 51.5032 167.06 51.2552 166.572C51.0152 166.084 50.8952 165.516 50.8952 164.868C50.8952 164.212 51.0152 163.64 51.2552 163.152C51.4952 162.656 51.8352 162.276 52.2752 162.012C52.7232 161.74 53.2472 161.604 53.8472 161.604C54.5272 161.604 55.0832 161.756 55.5152 162.06C55.9552 162.356 56.2712 162.764 56.4632 163.284C56.6632 163.796 56.7312 164.376 56.6672 165.024H51.8552C51.8712 165.504 51.9632 165.916 52.1312 166.26C52.2992 166.596 52.5312 166.856 52.8272 167.04C53.1312 167.216 53.4872 167.304 53.8952 167.304C54.3672 167.304 54.7632 167.196 55.0832 166.98C55.4112 166.756 55.6192 166.46 55.7072 166.092H56.6432C56.5872 166.492 56.4312 166.844 56.1752 167.148C55.9272 167.452 55.6032 167.688 55.2032 167.856C54.8112 168.024 54.3752 168.108 53.8952 168.108ZM51.8672 164.448L51.7712 164.268H55.8272L55.7192 164.472C55.7352 163.984 55.6592 163.588 55.4912 163.284C55.3312 162.972 55.1072 162.748 54.8192 162.612C54.5312 162.468 54.2032 162.396 53.8352 162.396C53.4512 162.396 53.1112 162.48 52.8152 162.648C52.5272 162.808 52.3032 163.044 52.1432 163.356C51.9832 163.66 51.8912 164.024 51.8672 164.448ZM57.7175 168V161.7H58.6415L58.6775 163.008H58.7495C58.9415 162.544 59.2375 162.196 59.6375 161.964C60.0375 161.724 60.4735 161.604 60.9455 161.604C61.2735 161.604 61.5735 161.652 61.8455 161.748C62.1255 161.844 62.3655 162 62.5655 162.216C62.7735 162.432 62.9335 162.712 63.0455 163.056C63.1575 163.392 63.2135 163.804 63.2135 164.292V168H62.2415V164.484C62.2415 164.012 62.1815 163.624 62.0615 163.32C61.9495 163.016 61.7735 162.792 61.5335 162.648C61.3015 162.496 61.0015 162.42 60.6335 162.42C60.2415 162.42 59.8975 162.516 59.6015 162.708C59.3055 162.9 59.0775 163.16 58.9175 163.488C58.7575 163.808 58.6775 164.176 58.6775 164.592V168H57.7175ZM66.1388 168C65.8268 168 65.5788 167.956 65.3948 167.868C65.2188 167.78 65.0908 167.648 65.0108 167.472C64.9388 167.288 64.9028 167.064 64.9028 166.8V162.504H63.6788V161.7H64.9028V159.816L65.8748 159.684V161.7H67.3388V162.504H65.8748V166.632C65.8748 166.856 65.9148 167.004 65.9948 167.076C66.0748 167.148 66.2228 167.184 66.4388 167.184H67.3388V168H66.1388ZM73.6894 168.108C72.9214 168.108 72.2854 167.988 71.7814 167.748C71.2854 167.508 70.9134 167.176 70.6654 166.752C70.4254 166.32 70.2974 165.828 70.2814 165.276H71.3494C71.3574 165.684 71.4454 166.04 71.6134 166.344C71.7894 166.648 72.0454 166.88 72.3814 167.04C72.7254 167.2 73.1654 167.28 73.7014 167.28C74.3814 167.28 74.9254 167.156 75.3334 166.908C75.7494 166.652 75.9574 166.264 75.9574 165.744C75.9574 165.456 75.9134 165.216 75.8254 165.024C75.7374 164.824 75.5974 164.66 75.4054 164.532C75.2134 164.404 74.9614 164.296 74.6494 164.208C74.3374 164.112 73.9614 164.028 73.5214 163.956C73.0174 163.86 72.5774 163.752 72.2014 163.632C71.8254 163.512 71.5094 163.364 71.2534 163.188C71.0054 163.004 70.8174 162.78 70.6894 162.516C70.5614 162.252 70.4974 161.936 70.4974 161.568C70.4974 161.08 70.6214 160.656 70.8694 160.296C71.1174 159.928 71.4734 159.648 71.9374 159.456C72.4014 159.256 72.9614 159.156 73.6174 159.156C74.2814 159.156 74.8414 159.264 75.2974 159.48C75.7534 159.688 76.1054 159.98 76.3534 160.356C76.6014 160.732 76.7294 161.176 76.7374 161.688H75.6934C75.6774 161.304 75.5814 160.984 75.4054 160.728C75.2294 160.472 74.9854 160.28 74.6734 160.152C74.3614 160.024 73.9934 159.96 73.5694 159.96C73.1374 159.96 72.7734 160.024 72.4774 160.152C72.1814 160.272 71.9534 160.44 71.7934 160.656C71.6334 160.872 71.5534 161.128 71.5534 161.424C71.5534 161.776 71.6334 162.052 71.7934 162.252C71.9614 162.444 72.2254 162.596 72.5854 162.708C72.9534 162.82 73.4294 162.928 74.0134 163.032C74.4134 163.096 74.7934 163.18 75.1534 163.284C75.5134 163.388 75.8334 163.532 76.1134 163.716C76.3934 163.9 76.6134 164.148 76.7734 164.46C76.9414 164.764 77.0254 165.16 77.0254 165.648C77.0254 166.136 76.8974 166.564 76.6414 166.932C76.3854 167.3 76.0094 167.588 75.5134 167.796C75.0174 168.004 74.4094 168.108 73.6894 168.108ZM79.8127 168C79.5007 168 79.2527 167.956 79.0687 167.868C78.8927 167.78 78.7647 167.648 78.6847 167.472C78.6127 167.288 78.5767 167.064 78.5767 166.8V162.504H77.3527V161.7H78.5767V159.816L79.5487 159.684V161.7H81.0127V162.504H79.5487V166.632C79.5487 166.856 79.5887 167.004 79.6687 167.076C79.7487 167.148 79.8967 167.184 80.1127 167.184H81.0127V168H79.8127ZM83.8936 168.108C83.5096 168.108 83.1576 168.036 82.8376 167.892C82.5256 167.74 82.2536 167.528 82.0216 167.256C81.7896 166.976 81.6096 166.636 81.4816 166.236C81.3616 165.828 81.3016 165.364 81.3016 164.844C81.3016 164.156 81.4096 163.568 81.6256 163.08C81.8496 162.592 82.1536 162.224 82.5376 161.976C82.9296 161.72 83.3816 161.592 83.8936 161.592C84.2616 161.592 84.5936 161.652 84.8896 161.772C85.1936 161.884 85.4496 162.048 85.6576 162.264C85.8656 162.472 86.0216 162.72 86.1256 163.008H86.1856L86.2216 161.7H87.1576V168H86.1856V166.68H86.1256C85.9656 167.104 85.6936 167.448 85.3096 167.712C84.9256 167.976 84.4536 168.108 83.8936 168.108ZM84.2176 167.292C84.6416 167.292 84.9976 167.192 85.2856 166.992C85.5736 166.792 85.7936 166.536 85.9456 166.224C86.0976 165.912 86.1736 165.58 86.1736 165.228V164.46C86.1736 164.108 86.0976 163.776 85.9456 163.464C85.7936 163.144 85.5736 162.888 85.2856 162.696C84.9976 162.496 84.6416 162.396 84.2176 162.396C83.8336 162.396 83.4976 162.492 83.2096 162.684C82.9216 162.868 82.6976 163.14 82.5376 163.5C82.3776 163.86 82.2976 164.308 82.2976 164.844C82.2976 165.372 82.3776 165.82 82.5376 166.188C82.6976 166.548 82.9216 166.824 83.2096 167.016C83.4976 167.2 83.8336 167.292 84.2176 167.292ZM88.6161 168V159.252H89.6001V164.916L90.1641 164.316L92.7561 161.7H93.9801L91.5201 164.136L94.0881 168H92.9481L91.2321 165.42L90.8481 164.796L89.6001 166.008V168H88.6161ZM97.0816 168.108C96.4656 168.108 95.9336 167.976 95.4856 167.712C95.0376 167.44 94.6896 167.06 94.4416 166.572C94.2016 166.084 94.0816 165.516 94.0816 164.868C94.0816 164.212 94.2016 163.64 94.4416 163.152C94.6816 162.656 95.0216 162.276 95.4616 162.012C95.9096 161.74 96.4336 161.604 97.0336 161.604C97.7136 161.604 98.2696 161.756 98.7016 162.06C99.1416 162.356 99.4576 162.764 99.6496 163.284C99.8496 163.796 99.9176 164.376 99.8536 165.024H95.0416C95.0576 165.504 95.1496 165.916 95.3176 166.26C95.4856 166.596 95.7176 166.856 96.0136 167.04C96.3176 167.216 96.6736 167.304 97.0816 167.304C97.5536 167.304 97.9496 167.196 98.2696 166.98C98.5976 166.756 98.8056 166.46 98.8936 166.092H99.8296C99.7736 166.492 99.6176 166.844 99.3616 167.148C99.1136 167.452 98.7896 167.688 98.3896 167.856C97.9976 168.024 97.5616 168.108 97.0816 168.108ZM95.0536 164.448L94.9576 164.268H99.0136L98.9056 164.472C98.9216 163.984 98.8456 163.588 98.6776 163.284C98.5176 162.972 98.2936 162.748 98.0056 162.612C97.7176 162.468 97.3896 162.396 97.0216 162.396C96.6376 162.396 96.2976 162.48 96.0016 162.648C95.7136 162.808 95.4896 163.044 95.3296 163.356C95.1696 163.66 95.0776 164.024 95.0536 164.448Z" fill="#666666"/>
<path d="M200.356 168.108C199.78 168.108 199.276 167.992 198.844 167.76C198.42 167.528 198.088 167.208 197.848 166.8C197.608 166.384 197.488 165.904 197.488 165.36H198.448C198.448 165.736 198.524 166.064 198.676 166.344C198.836 166.624 199.06 166.844 199.348 167.004C199.636 167.164 199.976 167.244 200.368 167.244C201.008 167.244 201.5 167.052 201.844 166.668C202.188 166.284 202.36 165.788 202.36 165.18C202.36 164.732 202.276 164.356 202.108 164.052C201.948 163.74 201.72 163.5 201.424 163.332C201.136 163.164 200.792 163.08 200.392 163.08C199.952 163.08 199.576 163.18 199.264 163.38C198.952 163.58 198.724 163.836 198.58 164.148H197.668L197.86 159.348H202.948V160.2H198.712L198.58 163.14L198.64 163.164C198.824 162.892 199.088 162.672 199.432 162.504C199.784 162.336 200.168 162.252 200.584 162.252C201.008 162.252 201.392 162.324 201.736 162.468C202.08 162.604 202.372 162.804 202.612 163.068C202.86 163.324 203.048 163.628 203.176 163.98C203.304 164.324 203.368 164.712 203.368 165.144C203.368 165.736 203.244 166.256 202.996 166.704C202.748 167.144 202.4 167.488 201.952 167.736C201.504 167.984 200.972 168.108 200.356 168.108ZM207.168 168.108C206.704 168.108 206.28 168.012 205.896 167.82C205.52 167.62 205.196 167.332 204.924 166.956C204.652 166.58 204.444 166.116 204.3 165.564C204.156 165.012 204.084 164.38 204.084 163.668C204.084 162.948 204.156 162.312 204.3 161.76C204.452 161.208 204.664 160.748 204.936 160.38C205.208 160.004 205.532 159.724 205.908 159.54C206.284 159.348 206.704 159.252 207.168 159.252C207.632 159.252 208.048 159.348 208.416 159.54C208.792 159.732 209.112 160.016 209.376 160.392C209.648 160.768 209.856 161.232 210 161.784C210.144 162.328 210.216 162.956 210.216 163.668C210.216 164.396 210.14 165.036 209.988 165.588C209.844 166.132 209.636 166.596 209.364 166.98C209.1 167.356 208.78 167.64 208.404 167.832C208.036 168.016 207.624 168.108 207.168 168.108ZM207.156 167.268C207.484 167.268 207.776 167.196 208.032 167.052C208.288 166.9 208.504 166.676 208.68 166.38C208.864 166.084 209 165.712 209.088 165.264C209.184 164.808 209.232 164.276 209.232 163.668C209.232 163.06 209.184 162.532 209.088 162.084C209 161.636 208.864 161.264 208.68 160.968C208.504 160.672 208.288 160.452 208.032 160.308C207.776 160.156 207.484 160.08 207.156 160.08C206.828 160.08 206.536 160.156 206.28 160.308C206.024 160.452 205.804 160.672 205.62 160.968C205.444 161.256 205.308 161.628 205.212 162.084C205.116 162.532 205.068 163.06 205.068 163.668C205.068 164.276 205.116 164.808 205.212 165.264C205.308 165.712 205.444 166.084 205.62 166.38C205.804 166.676 206.024 166.9 206.28 167.052C206.536 167.196 206.828 167.268 207.156 167.268ZM210.755 169.86V169.308H210.911C211.095 169.292 211.223 169.22 211.295 169.092C211.367 168.972 211.403 168.816 211.403 168.624V168H210.947V166.92H211.943V168.684C211.943 169.092 211.863 169.384 211.703 169.56C211.543 169.736 211.311 169.832 211.007 169.848L210.755 169.86ZM215.811 168.108C215.347 168.108 214.923 168.012 214.539 167.82C214.163 167.62 213.839 167.332 213.567 166.956C213.295 166.58 213.087 166.116 212.943 165.564C212.799 165.012 212.727 164.38 212.727 163.668C212.727 162.948 212.799 162.312 212.943 161.76C213.095 161.208 213.307 160.748 213.579 160.38C213.851 160.004 214.175 159.724 214.551 159.54C214.927 159.348 215.347 159.252 215.811 159.252C216.275 159.252 216.691 159.348 217.059 159.54C217.435 159.732 217.755 160.016 218.019 160.392C218.291 160.768 218.499 161.232 218.643 161.784C218.787 162.328 218.859 162.956 218.859 163.668C218.859 164.396 218.783 165.036 218.631 165.588C218.487 166.132 218.279 166.596 218.007 166.98C217.743 167.356 217.423 167.64 217.047 167.832C216.679 168.016 216.267 168.108 215.811 168.108ZM215.799 167.268C216.127 167.268 216.419 167.196 216.675 167.052C216.931 166.9 217.147 166.676 217.323 166.38C217.507 166.084 217.643 165.712 217.731 165.264C217.827 164.808 217.875 164.276 217.875 163.668C217.875 163.06 217.827 162.532 217.731 162.084C217.643 161.636 217.507 161.264 217.323 160.968C217.147 160.672 216.931 160.452 216.675 160.308C216.419 160.156 216.127 160.08 215.799 160.08C215.471 160.08 215.179 160.156 214.923 160.308C214.667 160.452 214.447 160.672 214.263 160.968C214.087 161.256 213.951 161.628 213.855 162.084C213.759 162.532 213.711 163.06 213.711 163.668C213.711 164.276 213.759 164.808 213.855 165.264C213.951 165.712 214.087 166.084 214.263 166.38C214.447 166.676 214.667 166.9 214.923 167.052C215.179 167.196 215.471 167.268 215.799 167.268ZM222.483 168.108C222.019 168.108 221.595 168.012 221.211 167.82C220.835 167.62 220.511 167.332 220.239 166.956C219.967 166.58 219.759 166.116 219.615 165.564C219.471 165.012 219.399 164.38 219.399 163.668C219.399 162.948 219.471 162.312 219.615 161.76C219.767 161.208 219.979 160.748 220.251 160.38C220.523 160.004 220.847 159.724 221.223 159.54C221.599 159.348 222.019 159.252 222.483 159.252C222.947 159.252 223.363 159.348 223.731 159.54C224.107 159.732 224.427 160.016 224.691 160.392C224.963 160.768 225.171 161.232 225.315 161.784C225.459 162.328 225.531 162.956 225.531 163.668C225.531 164.396 225.455 165.036 225.303 165.588C225.159 166.132 224.951 166.596 224.679 166.98C224.415 167.356 224.095 167.64 223.719 167.832C223.351 168.016 222.939 168.108 222.483 168.108ZM222.471 167.268C222.799 167.268 223.091 167.196 223.347 167.052C223.603 166.9 223.819 166.676 223.995 166.38C224.179 166.084 224.315 165.712 224.403 165.264C224.499 164.808 224.547 164.276 224.547 163.668C224.547 163.06 224.499 162.532 224.403 162.084C224.315 161.636 224.179 161.264 223.995 160.968C223.819 160.672 223.603 160.452 223.347 160.308C223.091 160.156 222.799 160.08 222.471 160.08C222.143 160.08 221.851 160.156 221.595 160.308C221.339 160.452 221.119 160.672 220.935 160.968C220.759 161.256 220.623 161.628 220.527 162.084C220.431 162.532 220.383 163.06 220.383 163.668C220.383 164.276 220.431 164.808 220.527 165.264C220.623 165.712 220.759 166.084 220.935 166.38C221.119 166.676 221.339 166.9 221.595 167.052C221.851 167.196 222.143 167.268 222.471 167.268ZM229.154 168.108C228.69 168.108 228.266 168.012 227.882 167.82C227.506 167.62 227.182 167.332 226.91 166.956C226.638 166.58 226.43 166.116 226.286 165.564C226.142 165.012 226.07 164.38 226.07 163.668C226.07 162.948 226.142 162.312 226.286 161.76C226.438 161.208 226.65 160.748 226.922 160.38C227.194 160.004 227.518 159.724 227.894 159.54C228.27 159.348 228.69 159.252 229.154 159.252C229.618 159.252 230.034 159.348 230.402 159.54C230.778 159.732 231.098 160.016 231.362 160.392C231.634 160.768 231.842 161.232 231.986 161.784C232.13 162.328 232.202 162.956 232.202 163.668C232.202 164.396 232.126 165.036 231.974 165.588C231.83 166.132 231.622 166.596 231.35 166.98C231.086 167.356 230.766 167.64 230.39 167.832C230.022 168.016 229.61 168.108 229.154 168.108ZM229.142 167.268C229.47 167.268 229.762 167.196 230.018 167.052C230.274 166.9 230.49 166.676 230.666 166.38C230.85 166.084 230.986 165.712 231.074 165.264C231.17 164.808 231.218 164.276 231.218 163.668C231.218 163.06 231.17 162.532 231.074 162.084C230.986 161.636 230.85 161.264 230.666 160.968C230.49 160.672 230.274 160.452 230.018 160.308C229.762 160.156 229.47 160.08 229.142 160.08C228.814 160.08 228.522 160.156 228.266 160.308C228.01 160.452 227.79 160.672 227.606 160.968C227.43 161.256 227.294 161.628 227.198 162.084C227.102 162.532 227.054 163.06 227.054 163.668C227.054 164.276 227.102 164.808 227.198 165.264C227.294 165.712 227.43 166.084 227.606 166.38C227.79 166.676 228.01 166.9 228.266 167.052C228.522 167.196 228.814 167.268 229.142 167.268ZM235.795 168V159.252H241.783V160.152H236.611L236.815 159.948V163.464L236.611 163.26H241.303V164.112H236.611L236.815 163.908V168H235.795ZM246.344 168.108C245.616 168.108 244.988 167.976 244.46 167.712C243.94 167.44 243.54 167.06 243.26 166.572C242.98 166.076 242.84 165.484 242.84 164.796V159.252H243.86V164.772C243.86 165.308 243.96 165.756 244.16 166.116C244.368 166.468 244.656 166.732 245.024 166.908C245.4 167.084 245.844 167.172 246.356 167.172C246.916 167.172 247.38 167.076 247.748 166.884C248.116 166.684 248.388 166.404 248.564 166.044C248.748 165.684 248.84 165.26 248.84 164.772V159.252H249.848V164.796C249.848 165.468 249.712 166.052 249.44 166.548C249.168 167.044 248.768 167.428 248.24 167.7C247.72 167.972 247.088 168.108 246.344 168.108ZM254.501 168.108C253.733 168.108 253.097 167.988 252.593 167.748C252.097 167.508 251.725 167.176 251.477 166.752C251.237 166.32 251.109 165.828 251.093 165.276H252.161C252.169 165.684 252.257 166.04 252.425 166.344C252.601 166.648 252.857 166.88 253.193 167.04C253.537 167.2 253.977 167.28 254.513 167.28C255.193 167.28 255.737 167.156 256.145 166.908C256.561 166.652 256.769 166.264 256.769 165.744C256.769 165.456 256.725 165.216 256.637 165.024C256.549 164.824 256.409 164.66 256.217 164.532C256.025 164.404 255.773 164.296 255.461 164.208C255.149 164.112 254.773 164.028 254.333 163.956C253.829 163.86 253.389 163.752 253.013 163.632C252.637 163.512 252.321 163.364 252.065 163.188C251.817 163.004 251.629 162.78 251.501 162.516C251.373 162.252 251.309 161.936 251.309 161.568C251.309 161.08 251.433 160.656 251.681 160.296C251.929 159.928 252.285 159.648 252.749 159.456C253.213 159.256 253.773 159.156 254.429 159.156C255.093 159.156 255.653 159.264 256.109 159.48C256.565 159.688 256.917 159.98 257.165 160.356C257.413 160.732 257.541 161.176 257.549 161.688H256.505C256.489 161.304 256.393 160.984 256.217 160.728C256.041 160.472 255.797 160.28 255.485 160.152C255.173 160.024 254.805 159.96 254.381 159.96C253.949 159.96 253.585 160.024 253.289 160.152C252.993 160.272 252.765 160.44 252.605 160.656C252.445 160.872 252.365 161.128 252.365 161.424C252.365 161.776 252.445 162.052 252.605 162.252C252.773 162.444 253.037 162.596 253.397 162.708C253.765 162.82 254.241 162.928 254.825 163.032C255.225 163.096 255.605 163.18 255.965 163.284C256.325 163.388 256.645 163.532 256.925 163.716C257.205 163.9 257.425 164.148 257.585 164.46C257.753 164.764 257.837 165.16 257.837 165.648C257.837 166.136 257.709 166.564 257.453 166.932C257.197 167.3 256.821 167.588 256.325 167.796C255.829 168.004 255.221 168.108 254.501 168.108ZM259.161 168V159.252H265.173V160.152H259.953L260.181 159.912V163.344L259.953 163.104H264.585V163.944H259.953L260.181 163.704V167.328L259.953 167.088H265.185V168H259.161Z" fill="#071927"/>
<path d="M28.4549 197.5V188.752H29.7509L34.6949 196.168H34.7669L34.7069 193.18V188.752H35.7029V197.5H34.4549L29.5229 190.144H29.4509L29.4989 192.952V197.5H28.4549ZM39.9273 197.608C39.3113 197.608 38.7793 197.476 38.3313 197.212C37.8833 196.94 37.5353 196.56 37.2873 196.072C37.0473 195.584 36.9273 195.016 36.9273 194.368C36.9273 193.712 37.0473 193.14 37.2873 192.652C37.5273 192.156 37.8673 191.776 38.3073 191.512C38.7553 191.24 39.2793 191.104 39.8793 191.104C40.5593 191.104 41.1153 191.256 41.5473 191.56C41.9873 191.856 42.3033 192.264 42.4953 192.784C42.6953 193.296 42.7633 193.876 42.6993 194.524H37.8873C37.9033 195.004 37.9953 195.416 38.1633 195.76C38.3313 196.096 38.5633 196.356 38.8593 196.54C39.1633 196.716 39.5193 196.804 39.9273 196.804C40.3993 196.804 40.7953 196.696 41.1153 196.48C41.4433 196.256 41.6513 195.96 41.7393 195.592H42.6753C42.6193 195.992 42.4633 196.344 42.2073 196.648C41.9593 196.952 41.6353 197.188 41.2353 197.356C40.8433 197.524 40.4073 197.608 39.9273 197.608ZM37.8993 193.948L37.8033 193.768H41.8593L41.7513 193.972C41.7673 193.484 41.6913 193.088 41.5233 192.784C41.3633 192.472 41.1393 192.248 40.8513 192.112C40.5633 191.968 40.2353 191.896 39.8673 191.896C39.4833 191.896 39.1433 191.98 38.8473 192.148C38.5593 192.308 38.3353 192.544 38.1753 192.856C38.0153 193.16 37.9233 193.524 37.8993 193.948ZM44.4604 197.5L42.8044 191.2H43.7884L45.1684 196.528H45.2164L46.5364 191.2H47.6284L48.9844 196.528H49.0204L50.3764 191.2H51.3244L49.6684 197.5H48.3964L47.0644 192.436H47.0164L45.7324 197.5H44.4604ZM57.3862 197.608C56.6182 197.608 55.9822 197.488 55.4782 197.248C54.9822 197.008 54.6102 196.676 54.3622 196.252C54.1222 195.82 53.9942 195.328 53.9782 194.776H55.0462C55.0542 195.184 55.1422 195.54 55.3102 195.844C55.4862 196.148 55.7422 196.38 56.0782 196.54C56.4222 196.7 56.8622 196.78 57.3982 196.78C58.0782 196.78 58.6222 196.656 59.0302 196.408C59.4462 196.152 59.6542 195.764 59.6542 195.244C59.6542 194.956 59.6102 194.716 59.5222 194.524C59.4342 194.324 59.2942 194.16 59.1022 194.032C58.9102 193.904 58.6582 193.796 58.3462 193.708C58.0342 193.612 57.6582 193.528 57.2182 193.456C56.7142 193.36 56.2742 193.252 55.8982 193.132C55.5222 193.012 55.2062 192.864 54.9502 192.688C54.7022 192.504 54.5142 192.28 54.3862 192.016C54.2582 191.752 54.1942 191.436 54.1942 191.068C54.1942 190.58 54.3182 190.156 54.5662 189.796C54.8142 189.428 55.1702 189.148 55.6342 188.956C56.0982 188.756 56.6582 188.656 57.3142 188.656C57.9782 188.656 58.5382 188.764 58.9942 188.98C59.4502 189.188 59.8022 189.48 60.0502 189.856C60.2982 190.232 60.4262 190.676 60.4342 191.188H59.3902C59.3742 190.804 59.2782 190.484 59.1022 190.228C58.9262 189.972 58.6822 189.78 58.3702 189.652C58.0582 189.524 57.6902 189.46 57.2662 189.46C56.8342 189.46 56.4702 189.524 56.1742 189.652C55.8782 189.772 55.6502 189.94 55.4902 190.156C55.3302 190.372 55.2502 190.628 55.2502 190.924C55.2502 191.276 55.3302 191.552 55.4902 191.752C55.6582 191.944 55.9222 192.096 56.2822 192.208C56.6502 192.32 57.1262 192.428 57.7102 192.532C58.1102 192.596 58.4902 192.68 58.8502 192.784C59.2102 192.888 59.5302 193.032 59.8102 193.216C60.0902 193.4 60.3102 193.648 60.4702 193.96C60.6382 194.264 60.7222 194.66 60.7222 195.148C60.7222 195.636 60.5942 196.064 60.3382 196.432C60.0822 196.8 59.7062 197.088 59.2102 197.296C58.7142 197.504 58.1062 197.608 57.3862 197.608ZM63.5095 197.5C63.1975 197.5 62.9495 197.456 62.7655 197.368C62.5895 197.28 62.4615 197.148 62.3815 196.972C62.3095 196.788 62.2735 196.564 62.2735 196.3V192.004H61.0495V191.2H62.2735V189.316L63.2455 189.184V191.2H64.7095V192.004H63.2455V196.132C63.2455 196.356 63.2855 196.504 63.3655 196.576C63.4455 196.648 63.5935 196.684 63.8095 196.684H64.7095V197.5H63.5095ZM67.5904 197.608C67.2064 197.608 66.8544 197.536 66.5344 197.392C66.2224 197.24 65.9504 197.028 65.7184 196.756C65.4864 196.476 65.3064 196.136 65.1784 195.736C65.0584 195.328 64.9984 194.864 64.9984 194.344C64.9984 193.656 65.1064 193.068 65.3224 192.58C65.5464 192.092 65.8504 191.724 66.2344 191.476C66.6264 191.22 67.0784 191.092 67.5904 191.092C67.9584 191.092 68.2904 191.152 68.5864 191.272C68.8904 191.384 69.1464 191.548 69.3544 191.764C69.5624 191.972 69.7184 192.22 69.8224 192.508H69.8824L69.9184 191.2H70.8544V197.5H69.8824V196.18H69.8224C69.6624 196.604 69.3904 196.948 69.0064 197.212C68.6224 197.476 68.1504 197.608 67.5904 197.608ZM67.9144 196.792C68.3384 196.792 68.6944 196.692 68.9824 196.492C69.2704 196.292 69.4904 196.036 69.6424 195.724C69.7944 195.412 69.8704 195.08 69.8704 194.728V193.96C69.8704 193.608 69.7944 193.276 69.6424 192.964C69.4904 192.644 69.2704 192.388 68.9824 192.196C68.6944 191.996 68.3384 191.896 67.9144 191.896C67.5304 191.896 67.1944 191.992 66.9064 192.184C66.6184 192.368 66.3944 192.64 66.2344 193C66.0744 193.36 65.9944 193.808 65.9944 194.344C65.9944 194.872 66.0744 195.32 66.2344 195.688C66.3944 196.048 66.6184 196.324 66.9064 196.516C67.1944 196.7 67.5304 196.792 67.9144 196.792ZM72.3129 197.5V188.752H73.2969V194.416L73.8609 193.816L76.4529 191.2H77.6769L75.2169 193.636L77.7849 197.5H76.6449L74.9289 194.92L74.5449 194.296L73.2969 195.508V197.5H72.3129ZM80.7784 197.608C80.1624 197.608 79.6304 197.476 79.1824 197.212C78.7344 196.94 78.3864 196.56 78.1384 196.072C77.8984 195.584 77.7784 195.016 77.7784 194.368C77.7784 193.712 77.8984 193.14 78.1384 192.652C78.3784 192.156 78.7184 191.776 79.1584 191.512C79.6064 191.24 80.1304 191.104 80.7304 191.104C81.4104 191.104 81.9664 191.256 82.3984 191.56C82.8384 191.856 83.1544 192.264 83.3464 192.784C83.5464 193.296 83.6144 193.876 83.5504 194.524H78.7384C78.7544 195.004 78.8464 195.416 79.0144 195.76C79.1824 196.096 79.4144 196.356 79.7104 196.54C80.0144 196.716 80.3704 196.804 80.7784 196.804C81.2504 196.804 81.6464 196.696 81.9664 196.48C82.2944 196.256 82.5024 195.96 82.5904 195.592H83.5264C83.4704 195.992 83.3144 196.344 83.0584 196.648C82.8104 196.952 82.4864 197.188 82.0864 197.356C81.6944 197.524 81.2584 197.608 80.7784 197.608ZM78.7504 193.948L78.6544 193.768H82.7104L82.6024 193.972C82.6184 193.484 82.5424 193.088 82.3744 192.784C82.2144 192.472 81.9904 192.248 81.7024 192.112C81.4144 191.968 81.0864 191.896 80.7184 191.896C80.3344 191.896 79.9944 191.98 79.6984 192.148C79.4104 192.308 79.1864 192.544 79.0264 192.856C78.8664 193.16 78.7744 193.524 78.7504 193.948Z" fill="#666666"/>
<path d="M200.319 197.608C199.743 197.608 199.239 197.492 198.807 197.26C198.383 197.028 198.051 196.708 197.811 196.3C197.571 195.884 197.451 195.404 197.451 194.86H198.411C198.411 195.236 198.487 195.564 198.639 195.844C198.799 196.124 199.023 196.344 199.311 196.504C199.599 196.664 199.939 196.744 200.331 196.744C200.971 196.744 201.463 196.552 201.807 196.168C202.151 195.784 202.323 195.288 202.323 194.68C202.323 194.232 202.239 193.856 202.071 193.552C201.911 193.24 201.683 193 201.387 192.832C201.099 192.664 200.755 192.58 200.355 192.58C199.915 192.58 199.539 192.68 199.227 192.88C198.915 193.08 198.687 193.336 198.543 193.648H197.631L197.823 188.848H202.911V189.7H198.675L198.543 192.64L198.603 192.664C198.787 192.392 199.051 192.172 199.395 192.004C199.747 191.836 200.131 191.752 200.547 191.752C200.971 191.752 201.355 191.824 201.699 191.968C202.043 192.104 202.335 192.304 202.575 192.568C202.823 192.824 203.011 193.128 203.139 193.48C203.267 193.824 203.331 194.212 203.331 194.644C203.331 195.236 203.207 195.756 202.959 196.204C202.711 196.644 202.363 196.988 201.915 197.236C201.467 197.484 200.935 197.608 200.319 197.608ZM207.131 197.608C206.667 197.608 206.243 197.512 205.859 197.32C205.483 197.12 205.159 196.832 204.887 196.456C204.615 196.08 204.407 195.616 204.263 195.064C204.119 194.512 204.047 193.88 204.047 193.168C204.047 192.448 204.119 191.812 204.263 191.26C204.415 190.708 204.627 190.248 204.899 189.88C205.171 189.504 205.495 189.224 205.871 189.04C206.247 188.848 206.667 188.752 207.131 188.752C207.595 188.752 208.011 188.848 208.379 189.04C208.755 189.232 209.075 189.516 209.339 189.892C209.611 190.268 209.819 190.732 209.963 191.284C210.107 191.828 210.179 192.456 210.179 193.168C210.179 193.896 210.103 194.536 209.951 195.088C209.807 195.632 209.599 196.096 209.327 196.48C209.063 196.856 208.743 197.14 208.367 197.332C207.999 197.516 207.587 197.608 207.131 197.608ZM207.119 196.768C207.447 196.768 207.739 196.696 207.995 196.552C208.251 196.4 208.467 196.176 208.643 195.88C208.827 195.584 208.963 195.212 209.051 194.764C209.147 194.308 209.195 193.776 209.195 193.168C209.195 192.56 209.147 192.032 209.051 191.584C208.963 191.136 208.827 190.764 208.643 190.468C208.467 190.172 208.251 189.952 207.995 189.808C207.739 189.656 207.447 189.58 207.119 189.58C206.791 189.58 206.499 189.656 206.243 189.808C205.987 189.952 205.767 190.172 205.583 190.468C205.407 190.756 205.271 191.128 205.175 191.584C205.079 192.032 205.031 192.56 205.031 193.168C205.031 193.776 205.079 194.308 205.175 194.764C205.271 195.212 205.407 195.584 205.583 195.88C205.767 196.176 205.987 196.4 206.243 196.552C206.499 196.696 206.791 196.768 207.119 196.768ZM210.718 199.36V198.808H210.874C211.058 198.792 211.186 198.72 211.258 198.592C211.33 198.472 211.366 198.316 211.366 198.124V197.5H210.91V196.42H211.906V198.184C211.906 198.592 211.826 198.884 211.666 199.06C211.506 199.236 211.274 199.332 210.97 199.348L210.718 199.36ZM215.774 197.608C215.31 197.608 214.886 197.512 214.502 197.32C214.126 197.12 213.802 196.832 213.53 196.456C213.258 196.08 213.05 195.616 212.906 195.064C212.762 194.512 212.69 193.88 212.69 193.168C212.69 192.448 212.762 191.812 212.906 191.26C213.058 190.708 213.27 190.248 213.542 189.88C213.814 189.504 214.138 189.224 214.514 189.04C214.89 188.848 215.31 188.752 215.774 188.752C216.238 188.752 216.654 188.848 217.022 189.04C217.398 189.232 217.718 189.516 217.982 189.892C218.254 190.268 218.462 190.732 218.606 191.284C218.75 191.828 218.822 192.456 218.822 193.168C218.822 193.896 218.746 194.536 218.594 195.088C218.45 195.632 218.242 196.096 217.97 196.48C217.706 196.856 217.386 197.14 217.01 197.332C216.642 197.516 216.23 197.608 215.774 197.608ZM215.762 196.768C216.09 196.768 216.382 196.696 216.638 196.552C216.894 196.4 217.11 196.176 217.286 195.88C217.47 195.584 217.606 195.212 217.694 194.764C217.79 194.308 217.838 193.776 217.838 193.168C217.838 192.56 217.79 192.032 217.694 191.584C217.606 191.136 217.47 190.764 217.286 190.468C217.11 190.172 216.894 189.952 216.638 189.808C216.382 189.656 216.09 189.58 215.762 189.58C215.434 189.58 215.142 189.656 214.886 189.808C214.63 189.952 214.41 190.172 214.226 190.468C214.05 190.756 213.914 191.128 213.818 191.584C213.722 192.032 213.674 192.56 213.674 193.168C213.674 193.776 213.722 194.308 213.818 194.764C213.914 195.212 214.05 195.584 214.226 195.88C214.41 196.176 214.63 196.4 214.886 196.552C215.142 196.696 215.434 196.768 215.762 196.768ZM222.445 197.608C221.981 197.608 221.557 197.512 221.173 197.32C220.797 197.12 220.473 196.832 220.201 196.456C219.929 196.08 219.721 195.616 219.577 195.064C219.433 194.512 219.361 193.88 219.361 193.168C219.361 192.448 219.433 191.812 219.577 191.26C219.729 190.708 219.941 190.248 220.213 189.88C220.485 189.504 220.809 189.224 221.185 189.04C221.561 188.848 221.981 188.752 222.445 188.752C222.909 188.752 223.325 188.848 223.693 189.04C224.069 189.232 224.389 189.516 224.653 189.892C224.925 190.268 225.133 190.732 225.277 191.284C225.421 191.828 225.493 192.456 225.493 193.168C225.493 193.896 225.417 194.536 225.265 195.088C225.121 195.632 224.913 196.096 224.641 196.48C224.377 196.856 224.057 197.14 223.681 197.332C223.313 197.516 222.901 197.608 222.445 197.608ZM222.433 196.768C222.761 196.768 223.053 196.696 223.309 196.552C223.565 196.4 223.781 196.176 223.957 195.88C224.141 195.584 224.277 195.212 224.365 194.764C224.461 194.308 224.509 193.776 224.509 193.168C224.509 192.56 224.461 192.032 224.365 191.584C224.277 191.136 224.141 190.764 223.957 190.468C223.781 190.172 223.565 189.952 223.309 189.808C223.053 189.656 222.761 189.58 222.433 189.58C222.105 189.58 221.813 189.656 221.557 189.808C221.301 189.952 221.081 190.172 220.897 190.468C220.721 190.756 220.585 191.128 220.489 191.584C220.393 192.032 220.345 192.56 220.345 193.168C220.345 193.776 220.393 194.308 220.489 194.764C220.585 195.212 220.721 195.584 220.897 195.88C221.081 196.176 221.301 196.4 221.557 196.552C221.813 196.696 222.105 196.768 222.433 196.768ZM229.117 197.608C228.653 197.608 228.229 197.512 227.845 197.32C227.469 197.12 227.145 196.832 226.873 196.456C226.601 196.08 226.393 195.616 226.249 195.064C226.105 194.512 226.033 193.88 226.033 193.168C226.033 192.448 226.105 191.812 226.249 191.26C226.401 190.708 226.613 190.248 226.885 189.88C227.157 189.504 227.481 189.224 227.857 189.04C228.233 188.848 228.653 188.752 229.117 188.752C229.581 188.752 229.997 188.848 230.365 189.04C230.741 189.232 231.061 189.516 231.325 189.892C231.597 190.268 231.805 190.732 231.949 191.284C232.093 191.828 232.165 192.456 232.165 193.168C232.165 193.896 232.089 194.536 231.937 195.088C231.793 195.632 231.585 196.096 231.313 196.48C231.049 196.856 230.729 197.14 230.353 197.332C229.985 197.516 229.573 197.608 229.117 197.608ZM229.105 196.768C229.433 196.768 229.725 196.696 229.981 196.552C230.237 196.4 230.453 196.176 230.629 195.88C230.813 195.584 230.949 195.212 231.037 194.764C231.133 194.308 231.181 193.776 231.181 193.168C231.181 192.56 231.133 192.032 231.037 191.584C230.949 191.136 230.813 190.764 230.629 190.468C230.453 190.172 230.237 189.952 229.981 189.808C229.725 189.656 229.433 189.58 229.105 189.58C228.777 189.58 228.485 189.656 228.229 189.808C227.973 189.952 227.753 190.172 227.569 190.468C227.393 190.756 227.257 191.128 227.161 191.584C227.065 192.032 227.017 192.56 227.017 193.168C227.017 193.776 227.065 194.308 227.161 194.764C227.257 195.212 227.393 195.584 227.569 195.88C227.753 196.176 227.973 196.4 228.229 196.552C228.485 196.696 228.777 196.768 229.105 196.768ZM235.758 197.5V188.752H241.746V189.652H236.574L236.778 189.448V192.964L236.574 192.76H241.266V193.612H236.574L236.778 193.408V197.5H235.758ZM246.307 197.608C245.579 197.608 244.951 197.476 244.423 197.212C243.903 196.94 243.503 196.56 243.223 196.072C242.943 195.576 242.803 194.984 242.803 194.296V188.752H243.823V194.272C243.823 194.808 243.923 195.256 244.123 195.616C244.331 195.968 244.619 196.232 244.987 196.408C245.363 196.584 245.807 196.672 246.319 196.672C246.879 196.672 247.343 196.576 247.711 196.384C248.079 196.184 248.351 195.904 248.527 195.544C248.711 195.184 248.803 194.76 248.803 194.272V188.752H249.811V194.296C249.811 194.968 249.675 195.552 249.403 196.048C249.131 196.544 248.731 196.928 248.203 197.2C247.683 197.472 247.051 197.608 246.307 197.608ZM254.464 197.608C253.696 197.608 253.06 197.488 252.556 197.248C252.06 197.008 251.688 196.676 251.44 196.252C251.2 195.82 251.072 195.328 251.056 194.776H252.124C252.132 195.184 252.22 195.54 252.388 195.844C252.564 196.148 252.82 196.38 253.156 196.54C253.5 196.7 253.94 196.78 254.476 196.78C255.156 196.78 255.7 196.656 256.108 196.408C256.524 196.152 256.732 195.764 256.732 195.244C256.732 194.956 256.688 194.716 256.6 194.524C256.512 194.324 256.372 194.16 256.18 194.032C255.988 193.904 255.736 193.796 255.424 193.708C255.112 193.612 254.736 193.528 254.296 193.456C253.792 193.36 253.352 193.252 252.976 193.132C252.6 193.012 252.284 192.864 252.028 192.688C251.78 192.504 251.592 192.28 251.464 192.016C251.336 191.752 251.272 191.436 251.272 191.068C251.272 190.58 251.396 190.156 251.644 189.796C251.892 189.428 252.248 189.148 252.712 188.956C253.176 188.756 253.736 188.656 254.392 188.656C255.056 188.656 255.616 188.764 256.072 188.98C256.528 189.188 256.88 189.48 257.128 189.856C257.376 190.232 257.504 190.676 257.512 191.188H256.468C256.452 190.804 256.356 190.484 256.18 190.228C256.004 189.972 255.76 189.78 255.448 189.652C255.136 189.524 254.768 189.46 254.344 189.46C253.912 189.46 253.548 189.524 253.252 189.652C252.956 189.772 252.728 189.94 252.568 190.156C252.408 190.372 252.328 190.628 252.328 190.924C252.328 191.276 252.408 191.552 252.568 191.752C252.736 191.944 253 192.096 253.36 192.208C253.728 192.32 254.204 192.428 254.788 192.532C255.188 192.596 255.568 192.68 255.928 192.784C256.288 192.888 256.608 193.032 256.888 193.216C257.168 193.4 257.388 193.648 257.548 193.96C257.716 194.264 257.8 194.66 257.8 195.148C257.8 195.636 257.672 196.064 257.416 196.432C257.16 196.8 256.784 197.088 256.288 197.296C255.792 197.504 255.184 197.608 254.464 197.608ZM259.123 197.5V188.752H265.135V189.652H259.915L260.143 189.412V192.844L259.915 192.604H264.547V193.444H259.915L260.143 193.204V196.828L259.915 196.588H265.147V197.5H259.123Z" fill="#071927"/>
<path d="M27 217L267 217" stroke="#A7A7A7" stroke-width="0.5"/>
<path d="M31.688 241.5V234.372H29.108V232.752H36.188V234.372H33.548V241.5H31.688ZM38.3338 241.608C37.8457 241.608 37.4057 241.536 37.0138 241.392C36.6217 241.24 36.2817 241.02 35.9937 240.732C35.7057 240.444 35.4857 240.096 35.3337 239.688C35.1817 239.272 35.1057 238.804 35.1057 238.284C35.1057 237.62 35.2337 237.04 35.4897 236.544C35.7457 236.04 36.1137 235.648 36.5937 235.368C37.0737 235.088 37.6537 234.948 38.3338 234.948C38.8138 234.948 39.2498 235.024 39.6417 235.176C40.0338 235.328 40.3698 235.548 40.6498 235.836C40.9378 236.124 41.1578 236.472 41.3098 236.88C41.4698 237.288 41.5498 237.756 41.5498 238.284C41.5498 238.94 41.4218 239.52 41.1658 240.024C40.9097 240.52 40.5418 240.908 40.0618 241.188C39.5898 241.468 39.0138 241.608 38.3338 241.608ZM38.3218 240.18C38.6098 240.18 38.8618 240.112 39.0778 239.976C39.3018 239.832 39.4698 239.62 39.5818 239.34C39.7018 239.06 39.7618 238.708 39.7618 238.284C39.7618 237.964 39.7298 237.688 39.6658 237.456C39.6018 237.216 39.5058 237.016 39.3778 236.856C39.2498 236.696 39.0978 236.58 38.9217 236.508C38.7458 236.428 38.5498 236.388 38.3338 236.388C38.0457 236.388 37.7897 236.456 37.5658 236.592C37.3497 236.728 37.1817 236.936 37.0617 237.216C36.9417 237.496 36.8817 237.852 36.8817 238.284C36.8817 238.604 36.9137 238.884 36.9777 239.124C37.0497 239.356 37.1497 239.552 37.2778 239.712C37.4058 239.864 37.5577 239.98 37.7337 240.06C37.9097 240.14 38.1058 240.18 38.3218 240.18ZM44.4373 241.5C44.0053 241.5 43.6693 241.436 43.4293 241.308C43.1893 241.18 43.0213 241 42.9253 240.768C42.8373 240.528 42.7933 240.248 42.7933 239.928V236.484H41.6413V235.068H42.7933V233.316L44.5453 233.148V235.068H45.8413V236.484H44.5453V239.592C44.5453 239.784 44.5893 239.912 44.6773 239.976C44.7653 240.04 44.8933 240.072 45.0613 240.072H45.8413V241.5H44.4373ZM48.5905 241.608C48.2065 241.608 47.8545 241.54 47.5345 241.404C47.2225 241.268 46.9505 241.06 46.7185 240.78C46.4945 240.5 46.3225 240.152 46.2025 239.736C46.0825 239.32 46.0225 238.836 46.0225 238.284C46.0225 237.54 46.1265 236.924 46.3345 236.436C46.5505 235.94 46.8505 235.568 47.2345 235.32C47.6265 235.072 48.0785 234.948 48.5905 234.948C48.9265 234.948 49.2265 235 49.4905 235.104C49.7625 235.208 49.9945 235.352 50.1865 235.536C50.3865 235.72 50.5345 235.936 50.6305 236.184H50.7265L50.7985 235.068H52.4905V241.5H50.7265V240.372H50.6305C50.4865 240.748 50.2345 241.048 49.8745 241.272C49.5145 241.496 49.0865 241.608 48.5905 241.608ZM49.2625 240.18C49.5905 240.18 49.8585 240.104 50.0665 239.952C50.2825 239.8 50.4425 239.604 50.5465 239.364C50.6505 239.116 50.7025 238.856 50.7025 238.584V237.972C50.7025 237.692 50.6505 237.432 50.5465 237.192C50.4425 236.952 50.2825 236.756 50.0665 236.604C49.8585 236.452 49.5905 236.376 49.2625 236.376C48.9745 236.376 48.7225 236.444 48.5065 236.58C48.2905 236.716 48.1225 236.924 48.0025 237.204C47.8825 237.484 47.8225 237.844 47.8225 238.284C47.8225 238.708 47.8825 239.064 48.0025 239.352C48.1225 239.632 48.2905 239.84 48.5065 239.976C48.7225 240.112 48.9745 240.18 49.2625 240.18ZM53.6402 241.5V232.752H55.4042V241.5H53.6402Z" fill="#666666"/>
<path d="M193.392 241.5V235.692H191.208V234.348H191.568C192.144 234.348 192.596 234.212 192.924 233.94C193.26 233.66 193.448 233.296 193.488 232.848H195.156V241.5H193.392ZM199.53 241.584C199.018 241.584 198.558 241.484 198.15 241.284C197.75 241.076 197.406 240.78 197.118 240.396C196.838 240.004 196.622 239.536 196.47 238.992C196.326 238.448 196.254 237.832 196.254 237.144C196.254 236.432 196.33 235.804 196.482 235.26C196.642 234.716 196.866 234.256 197.154 233.88C197.45 233.504 197.802 233.22 198.21 233.028C198.618 232.836 199.07 232.74 199.566 232.74C200.078 232.74 200.534 232.844 200.934 233.052C201.334 233.252 201.674 233.544 201.954 233.928C202.242 234.312 202.458 234.776 202.602 235.32C202.746 235.864 202.818 236.48 202.818 237.168C202.818 237.872 202.738 238.5 202.578 239.052C202.426 239.604 202.202 240.068 201.906 240.444C201.618 240.82 201.274 241.104 200.874 241.296C200.474 241.488 200.026 241.584 199.53 241.584ZM199.542 240.096C199.766 240.096 199.97 240.052 200.154 239.964C200.338 239.868 200.498 239.708 200.634 239.484C200.77 239.26 200.874 238.96 200.946 238.584C201.026 238.2 201.066 237.724 201.066 237.156C201.066 236.588 201.026 236.116 200.946 235.74C200.874 235.356 200.77 235.056 200.634 234.84C200.498 234.616 200.338 234.46 200.154 234.372C199.97 234.276 199.766 234.228 199.542 234.228C199.318 234.228 199.11 234.276 198.918 234.372C198.734 234.46 198.574 234.616 198.438 234.84C198.302 235.056 198.198 235.352 198.126 235.728C198.054 236.104 198.018 236.58 198.018 237.156C198.018 237.724 198.054 238.2 198.126 238.584C198.198 238.96 198.302 239.26 198.438 239.484C198.574 239.708 198.734 239.868 198.918 239.964C199.11 240.052 199.318 240.096 199.542 240.096ZM206.494 241.584C205.982 241.584 205.522 241.484 205.114 241.284C204.714 241.076 204.37 240.78 204.082 240.396C203.802 240.004 203.586 239.536 203.434 238.992C203.29 238.448 203.218 237.832 203.218 237.144C203.218 236.432 203.294 235.804 203.446 235.26C203.606 234.716 203.83 234.256 204.118 233.88C204.414 233.504 204.766 233.22 205.174 233.028C205.582 232.836 206.034 232.74 206.53 232.74C207.042 232.74 207.498 232.844 207.898 233.052C208.298 233.252 208.638 233.544 208.918 233.928C209.206 234.312 209.422 234.776 209.566 235.32C209.71 235.864 209.782 236.48 209.782 237.168C209.782 237.872 209.702 238.5 209.542 239.052C209.39 239.604 209.166 240.068 208.87 240.444C208.582 240.82 208.238 241.104 207.838 241.296C207.438 241.488 206.99 241.584 206.494 241.584ZM206.506 240.096C206.73 240.096 206.934 240.052 207.118 239.964C207.302 239.868 207.462 239.708 207.598 239.484C207.734 239.26 207.838 238.96 207.91 238.584C207.99 238.2 208.03 237.724 208.03 237.156C208.03 236.588 207.99 236.116 207.91 235.74C207.838 235.356 207.734 235.056 207.598 234.84C207.462 234.616 207.302 234.46 207.118 234.372C206.934 234.276 206.73 234.228 206.506 234.228C206.282 234.228 206.074 234.276 205.882 234.372C205.698 234.46 205.538 234.616 205.402 234.84C205.266 235.056 205.162 235.352 205.09 235.728C205.018 236.104 204.982 236.58 204.982 237.156C204.982 237.724 205.018 238.2 205.09 238.584C205.162 238.96 205.266 239.26 205.402 239.484C205.538 239.708 205.698 239.868 205.882 239.964C206.074 240.052 206.282 240.096 206.506 240.096ZM210.098 243.516V242.64L210.326 242.628C210.59 242.628 210.774 242.564 210.878 242.436C210.99 242.308 211.046 242.136 211.046 241.92V241.5H210.278V239.88H211.97V242.004C211.97 242.556 211.838 242.944 211.574 243.168C211.318 243.392 210.974 243.508 210.542 243.516H210.098ZM215.875 241.584C215.363 241.584 214.903 241.484 214.495 241.284C214.095 241.076 213.751 240.78 213.463 240.396C213.183 240.004 212.967 239.536 212.815 238.992C212.671 238.448 212.599 237.832 212.599 237.144C212.599 236.432 212.675 235.804 212.827 235.26C212.987 234.716 213.211 234.256 213.499 233.88C213.795 233.504 214.147 233.22 214.555 233.028C214.963 232.836 215.415 232.74 215.911 232.74C216.423 232.74 216.879 232.844 217.279 233.052C217.679 233.252 218.019 233.544 218.299 233.928C218.587 234.312 218.803 234.776 218.947 235.32C219.091 235.864 219.163 236.48 219.163 237.168C219.163 237.872 219.083 238.5 218.923 239.052C218.771 239.604 218.547 240.068 218.251 240.444C217.963 240.82 217.619 241.104 217.219 241.296C216.819 241.488 216.371 241.584 215.875 241.584ZM215.887 240.096C216.111 240.096 216.315 240.052 216.499 239.964C216.683 239.868 216.843 239.708 216.979 239.484C217.115 239.26 217.219 238.96 217.291 238.584C217.371 238.2 217.411 237.724 217.411 237.156C217.411 236.588 217.371 236.116 217.291 235.74C217.219 235.356 217.115 235.056 216.979 234.84C216.843 234.616 216.683 234.46 216.499 234.372C216.315 234.276 216.111 234.228 215.887 234.228C215.663 234.228 215.455 234.276 215.263 234.372C215.079 234.46 214.919 234.616 214.783 234.84C214.647 235.056 214.543 235.352 214.471 235.728C214.399 236.104 214.363 236.58 214.363 237.156C214.363 237.724 214.399 238.2 214.471 238.584C214.543 238.96 214.647 239.26 214.783 239.484C214.919 239.708 215.079 239.868 215.263 239.964C215.455 240.052 215.663 240.096 215.887 240.096ZM222.84 241.584C222.328 241.584 221.868 241.484 221.46 241.284C221.06 241.076 220.716 240.78 220.428 240.396C220.148 240.004 219.932 239.536 219.78 238.992C219.636 238.448 219.564 237.832 219.564 237.144C219.564 236.432 219.64 235.804 219.792 235.26C219.952 234.716 220.176 234.256 220.464 233.88C220.76 233.504 221.112 233.22 221.52 233.028C221.928 232.836 222.38 232.74 222.876 232.74C223.388 232.74 223.844 232.844 224.244 233.052C224.644 233.252 224.984 233.544 225.264 233.928C225.552 234.312 225.768 234.776 225.912 235.32C226.056 235.864 226.128 236.48 226.128 237.168C226.128 237.872 226.048 238.5 225.888 239.052C225.736 239.604 225.512 240.068 225.216 240.444C224.928 240.82 224.584 241.104 224.184 241.296C223.784 241.488 223.336 241.584 222.84 241.584ZM222.852 240.096C223.076 240.096 223.28 240.052 223.464 239.964C223.648 239.868 223.808 239.708 223.944 239.484C224.08 239.26 224.184 238.96 224.256 238.584C224.336 238.2 224.376 237.724 224.376 237.156C224.376 236.588 224.336 236.116 224.256 235.74C224.184 235.356 224.08 235.056 223.944 234.84C223.808 234.616 223.648 234.46 223.464 234.372C223.28 234.276 223.076 234.228 222.852 234.228C222.628 234.228 222.42 234.276 222.228 234.372C222.044 234.46 221.884 234.616 221.748 234.84C221.612 235.056 221.508 235.352 221.436 235.728C221.364 236.104 221.328 236.58 221.328 237.156C221.328 237.724 221.364 238.2 221.436 238.584C221.508 238.96 221.612 239.26 221.748 239.484C221.884 239.708 222.044 239.868 222.228 239.964C222.42 240.052 222.628 240.096 222.852 240.096ZM229.804 241.584C229.292 241.584 228.832 241.484 228.424 241.284C228.024 241.076 227.68 240.78 227.392 240.396C227.112 240.004 226.896 239.536 226.744 238.992C226.6 238.448 226.528 237.832 226.528 237.144C226.528 236.432 226.604 235.804 226.756 235.26C226.916 234.716 227.14 234.256 227.428 233.88C227.724 233.504 228.076 233.22 228.484 233.028C228.892 232.836 229.344 232.74 229.84 232.74C230.352 232.74 230.808 232.844 231.208 233.052C231.608 233.252 231.948 233.544 232.228 233.928C232.516 234.312 232.732 234.776 232.876 235.32C233.02 235.864 233.092 236.48 233.092 237.168C233.092 237.872 233.012 238.5 232.852 239.052C232.7 239.604 232.476 240.068 232.18 240.444C231.892 240.82 231.548 241.104 231.148 241.296C230.748 241.488 230.3 241.584 229.804 241.584ZM229.816 240.096C230.04 240.096 230.244 240.052 230.428 239.964C230.612 239.868 230.772 239.708 230.908 239.484C231.044 239.26 231.148 238.96 231.22 238.584C231.3 238.2 231.34 237.724 231.34 237.156C231.34 236.588 231.3 236.116 231.22 235.74C231.148 235.356 231.044 235.056 230.908 234.84C230.772 234.616 230.612 234.46 230.428 234.372C230.244 234.276 230.04 234.228 229.816 234.228C229.592 234.228 229.384 234.276 229.192 234.372C229.008 234.46 228.848 234.616 228.712 234.84C228.576 235.056 228.472 235.352 228.4 235.728C228.328 236.104 228.292 236.58 228.292 237.156C228.292 237.724 228.328 238.2 228.4 238.584C228.472 238.96 228.576 239.26 228.712 239.484C228.848 239.708 229.008 239.868 229.192 239.964C229.384 240.052 229.592 240.096 229.816 240.096ZM236.251 241.5V232.752H242.599V234.348H237.811L238.123 234.036V236.856L237.811 236.544H242.119V238.068H237.811L238.123 237.756V241.5H236.251ZM247.132 241.608C246.348 241.608 245.676 241.468 245.116 241.188C244.564 240.908 244.14 240.512 243.844 240C243.556 239.48 243.412 238.872 243.412 238.176V232.752H245.272V238.164C245.272 238.556 245.344 238.888 245.488 239.16C245.64 239.424 245.856 239.624 246.136 239.76C246.416 239.888 246.752 239.952 247.144 239.952C247.56 239.952 247.904 239.884 248.176 239.748C248.456 239.604 248.664 239.4 248.8 239.136C248.944 238.864 249.016 238.54 249.016 238.164V232.752H250.876V238.176C250.876 238.896 250.72 239.512 250.408 240.024C250.104 240.536 249.672 240.928 249.112 241.2C248.56 241.472 247.9 241.608 247.132 241.608ZM255.396 241.608C254.612 241.608 253.952 241.488 253.416 241.248C252.88 241.008 252.472 240.672 252.192 240.24C251.92 239.808 251.784 239.312 251.784 238.752H253.68C253.688 239.04 253.752 239.292 253.872 239.508C254 239.716 254.192 239.88 254.448 240C254.712 240.12 255.052 240.18 255.468 240.18C255.948 240.18 256.332 240.092 256.62 239.916C256.908 239.74 257.052 239.48 257.052 239.136C257.052 238.928 257.02 238.756 256.956 238.62C256.892 238.484 256.78 238.372 256.62 238.284C256.468 238.188 256.26 238.112 255.996 238.056C255.74 237.992 255.412 237.924 255.012 237.852C254.516 237.78 254.076 237.676 253.692 237.54C253.308 237.404 252.988 237.236 252.732 237.036C252.476 236.836 252.284 236.596 252.156 236.316C252.028 236.028 251.964 235.692 251.964 235.308C251.964 234.756 252.1 234.284 252.372 233.892C252.652 233.492 253.048 233.184 253.56 232.968C254.072 232.752 254.68 232.644 255.384 232.644C256.072 232.644 256.664 232.752 257.16 232.968C257.664 233.184 258.052 233.488 258.324 233.88C258.596 234.272 258.732 234.728 258.732 235.248H256.848C256.84 234.968 256.764 234.74 256.62 234.564C256.484 234.388 256.304 234.26 256.08 234.18C255.856 234.1 255.604 234.06 255.324 234.06C255.036 234.06 254.784 234.1 254.568 234.18C254.352 234.26 254.188 234.376 254.076 234.528C253.964 234.68 253.908 234.86 253.908 235.068C253.908 235.332 253.976 235.532 254.112 235.668C254.256 235.804 254.484 235.912 254.796 235.992C255.108 236.064 255.516 236.144 256.02 236.232C256.388 236.288 256.748 236.364 257.1 236.46C257.452 236.556 257.772 236.7 258.06 236.892C258.348 237.076 258.576 237.336 258.744 237.672C258.912 238 258.996 238.428 258.996 238.956C258.996 239.476 258.86 239.94 258.588 240.348C258.324 240.748 257.924 241.06 257.388 241.284C256.86 241.5 256.196 241.608 255.396 241.608ZM260.038 241.5V232.752H266.398V234.348H261.502L261.91 233.952V236.7L261.502 236.304H265.81V237.804H261.502L261.91 237.408V240.3L261.502 239.904H266.422V241.5H260.038Z" fill="#071927"/>
</g>
<rect x="10.25" y="0.25" width="272.5" height="302.5" rx="14.75" stroke="black" stroke-width="0.5"/>
<rect x="0.462891" y="54" width="286.948" height="207" fill="url(#paint0_linear_5252_83)"/>
<defs>
<linearGradient id="paint0_linear_5252_83" x1="143.937" y1="54" x2="143.937" y2="261" gradientUnits="userSpaceOnUse">
<stop stop-color="#D9D9D9" stop-opacity="0"/>
<stop offset="1" stop-color="#D9D9D9"/>
</linearGradient>
<clipPath id="clip0_5252_83">
<rect x="10" width="273" height="303" rx="15" fill="white"/>
</clipPath>
</defs>
</svg>
