<svg width="36" height="35" viewBox="0 0 36 35" fill="none" xmlns="http://www.w3.org/2000/svg">
<path d="M18.3457 0.308594L24.2031 6.14551L32.4187 7.08578L31.5072 15.3046L35.8944 22.314L28.9004 26.7257L26.1556 34.526L18.3457 31.8086L10.5358 34.526L7.79098 26.7257L0.797001 22.314L5.18418 15.3046L4.27274 7.08578L12.4883 6.14551L18.3457 0.308594Z" fill="#FFB464"/>
<path d="M23.8502 6.49969L23.9734 6.62249L24.1463 6.64227L31.8668 7.52588L31.0103 15.2495L30.9911 15.4224L31.0834 15.5698L35.2062 22.1569L28.6337 26.3028L28.4865 26.3956L28.4288 26.5597L25.8493 33.8901L18.51 31.3364L18.3457 31.2792L18.1814 31.3364L10.8421 33.8901L8.26263 26.5597L8.20488 26.3956L8.05774 26.3028L1.48517 22.1569L5.608 15.5698L5.70031 15.4224L5.68113 15.2495L4.82461 7.52588L12.5451 6.64227L12.718 6.62249L12.8412 6.49969L18.3457 1.01446L23.8502 6.49969Z" stroke="white" stroke-opacity="0.5"/>
</svg>
