<svg width="16" height="17" viewBox="0 0 16 17" fill="none" xmlns="http://www.w3.org/2000/svg">
<g id="stop" clip-path="url(#clip0_1027_4633)">
<path id="Icon" fill-rule="evenodd" clip-rule="evenodd" d="M4.46967 0.71967C4.61032 0.579018 4.80109 0.5 5 0.5H11C11.1989 0.5 11.3897 0.579018 11.5303 0.71967L15.7803 4.96967C15.921 5.11032 16 5.30109 16 5.5V11.5C16 11.6989 15.921 11.8897 15.7803 12.0303L11.5303 16.2803C11.3897 16.421 11.1989 16.5 11 16.5H5C4.80109 16.5 4.61032 16.421 4.46967 16.2803L0.21967 12.0303C0.0790176 11.8897 0 11.6989 0 11.5V5.5C0 5.30109 0.0790176 5.11032 0.21967 4.96967L4.46967 0.71967ZM5.31066 2L1.5 5.81066V11.1893L5.31066 15H10.6893L14.5 11.1893V5.81066L10.6893 2H5.31066ZM8 4.5C8.41421 4.5 8.75 4.83579 8.75 5.25V8.75C8.75 9.16421 8.41421 9.5 8 9.5C7.58579 9.5 7.25 9.16421 7.25 8.75V5.25C7.25 4.83579 7.58579 4.5 8 4.5ZM8 12.5C8.55229 12.5 9 12.0523 9 11.5C9 10.9477 8.55229 10.5 8 10.5C7.44772 10.5 7 10.9477 7 11.5C7 12.0523 7.44772 12.5 8 12.5Z" fill="#CF222E"/>
</g>
<defs>
<clipPath id="clip0_1027_4633">
<rect width="16" height="16" fill="white" transform="translate(0 0.5)"/>
</clipPath>
</defs>
</svg>
