<svg width="13" height="21" viewBox="0 0 13 21" fill="none" xmlns="http://www.w3.org/2000/svg">
<path d="M12.2624 5.30765C12.2624 4.89067 11.8595 4.5528 11.3626 4.5528L1.50503 4.5528C1.0081 4.5528 0.605225 4.89067 0.605225 5.30765C0.605225 5.72463 1.0081 6.0625 1.50503 6.0625L11.3626 6.0625C11.8596 6.0625 12.2624 5.72463 12.2624 5.30765Z" fill="#666666" stroke="#666666" stroke-width="0.5"/>
<path d="M12.0787 5.83077C12.3736 5.53592 12.4503 5.13483 12.2502 4.93478L8.28204 0.966577C8.08199 0.766535 7.6809 0.843267 7.38605 1.13812C7.09121 1.43296 7.01447 1.83405 7.21452 2.0341L11.1827 6.0023C11.3828 6.20239 11.7839 6.12561 12.0787 5.83077Z" fill="#666666" stroke="#666666" stroke-width="0.5"/>
<path d="M12.0786 4.7814C11.7837 4.48655 11.3826 4.40982 11.1826 4.60987L7.21438 8.57807C7.01434 8.77812 7.09107 9.1792 7.38592 9.47405C7.68077 9.7689 8.08186 9.84563 8.2819 9.64559L12.2501 5.67738C12.4502 5.47729 12.3734 5.07625 12.0786 4.7814Z" fill="#666666" stroke="#666666" stroke-width="0.5"/>
<path d="M0.804021 15.708C0.804021 16.125 1.21212 16.4628 1.71551 16.4628L11.7011 16.4628C12.2044 16.4628 12.6125 16.125 12.6125 15.708C12.6125 15.291 12.2044 14.9531 11.7011 14.9531L1.71551 14.9531C1.212 14.9531 0.804021 15.291 0.804021 15.708Z" fill="#666666" stroke="#666666" stroke-width="0.5"/>
<path d="M0.98697 15.1849C0.692122 15.4797 0.615389 15.8808 0.815432 16.0808L4.78364 20.049C4.98368 20.2491 5.38477 20.1724 5.67962 19.8775C5.97447 19.5827 6.0512 19.1816 5.85116 18.9815L1.88295 15.0133C1.68286 14.8132 1.28182 14.89 0.98697 15.1849Z" fill="#666666" stroke="#666666" stroke-width="0.5"/>
<path d="M0.987106 16.2342C1.28195 16.5291 1.68304 16.6058 1.88309 16.4058L5.85129 12.4376C6.05134 12.2375 5.9746 11.8364 5.67976 11.5416C5.38491 11.2467 4.98382 11.17 4.78377 11.37L0.815568 15.3382C0.615477 15.5383 0.692257 15.9394 0.987106 16.2342Z" fill="#666666" stroke="#666666" stroke-width="0.5"/>
</svg>
