<svg width="14" height="16" viewBox="0 0 14 16" fill="none" xmlns="http://www.w3.org/2000/svg">
<g id="Group 1000004775">
<path id="Arrow 2" d="M4.79199 6.62549C4.79199 6.34935 4.56813 6.12549 4.29199 6.12549C4.01585 6.12549 3.79199 6.34935 3.79199 6.62549L4.79199 6.62549ZM3.93844 14.979C4.1337 15.1743 4.45028 15.1743 4.64555 14.979L7.82753 11.7971C8.02279 11.6018 8.02279 11.2852 7.82753 11.09C7.63226 10.8947 7.31568 10.8947 7.12042 11.09L4.29199 13.9184L1.46357 11.09C1.2683 10.8947 0.951721 10.8947 0.756458 11.09C0.561196 11.2852 0.561196 11.6018 0.756459 11.7971L3.93844 14.979ZM3.79199 6.62549L3.79199 14.6255L4.79199 14.6255L4.79199 6.62549L3.79199 6.62549Z" fill="black"/>
<path id="Arrow 3" d="M9.20801 9.37451C9.20801 9.65065 9.43187 9.87451 9.70801 9.87451C9.98415 9.87451 10.208 9.65065 10.208 9.37451L9.20801 9.37451ZM10.0616 1.02096C9.8663 0.825696 9.54972 0.825696 9.35445 1.02096L6.17247 4.20294C5.97721 4.3982 5.97721 4.71478 6.17247 4.91005C6.36774 5.10531 6.68432 5.10531 6.87958 4.91005L9.70801 2.08162L12.5364 4.91005C12.7317 5.10531 13.0483 5.10531 13.2435 4.91005C13.4388 4.71478 13.4388 4.3982 13.2435 4.20294L10.0616 1.02096ZM10.208 9.37451L10.208 1.37451L9.20801 1.37451L9.20801 9.37451L10.208 9.37451Z" fill="black"/>
</g>
</svg>
