<svg width="968" height="387" viewBox="0 0 968 387" fill="none" xmlns="http://www.w3.org/2000/svg">
<path d="M715.016 -7.00015L15.5001 410.527" stroke="black" stroke-width="0.5" stroke-linecap="round" stroke-linejoin="round"/>
<path d="M408.787 283.056C451.257 263.769 474.528 229.749 464.358 206.732L455.998 190L305.616 261.701L315.202 275.771C329.82 298.058 366.316 302.343 408.787 283.056Z" fill="#66E070" stroke="black" stroke-width="0.5" stroke-linecap="round" stroke-linejoin="round"/>
<path d="M304.331 259.426C299.407 248.282 303.293 234.341 313.679 220.777C324.059 207.223 340.893 194.101 361.726 184.641C382.559 175.18 403.721 171.048 420.905 172.087C438.102 173.127 451.242 179.337 456.164 190.478C461.089 201.624 457.221 216.075 446.854 230.15C436.494 244.214 419.681 257.844 398.852 267.303C378.022 276.762 356.842 280.385 339.639 278.838C322.423 277.289 309.256 270.573 304.331 259.426Z" fill="#B4F9BA" stroke="#4A4A4A" stroke-width="0.5"/>
<path d="M391.126 198.493L408.662 197.383C409.162 197.351 409.59 197.486 409.781 197.735L427.482 220.794C427.674 221.043 427.601 221.369 427.297 221.651L417.534 230.599C417.224 230.881 416.724 231.076 416.222 231.107L398.71 232.215C397.632 232.284 397.115 231.612 397.776 231.005L406.536 222.975C406.844 222.694 406.913 222.367 406.721 222.118L389.628 199.858C389.214 199.319 390.045 198.561 391.126 198.493Z" fill="#010101"/>
<path d="M338.869 236.52L332.153 227.771C331.958 227.521 332.031 227.195 332.341 226.912L360.864 200.925C361.172 200.644 361.669 200.452 362.171 200.418L378.08 199.379C378.586 199.346 379.014 199.481 379.203 199.732L385.911 208.472C386.322 209.011 385.496 209.767 384.416 209.839L370.144 210.771C369.645 210.803 369.147 210.995 368.837 211.278L341.297 236.369C340.63 236.977 339.281 237.062 338.867 236.523L338.869 236.52Z" fill="#010101"/>
<path d="M409.46 237.937L398.644 247.792C398.334 248.075 397.836 248.268 397.334 248.298L351.122 251.22C350.623 251.251 350.198 251.117 350.006 250.868L343.868 242.958C343.673 242.708 343.745 242.378 344.055 242.095L354.858 232.252C355.522 231.646 356.868 231.56 357.286 232.095L362.793 239.193C362.984 239.442 363.412 239.574 363.908 239.545L408.528 236.722C409.609 236.654 410.126 237.326 409.459 237.934L409.46 237.937Z" fill="#010101"/>
<path d="M604.787 168.056C647.257 148.769 670.528 114.749 660.358 91.7324L651.998 75.0001L501.616 146.701L511.202 160.771C525.82 183.058 562.316 187.343 604.787 168.056Z" fill="#66E070" stroke="black" stroke-width="0.5" stroke-linecap="round" stroke-linejoin="round"/>
<path d="M500.33 144.426C495.406 133.282 499.292 119.342 509.679 105.778C520.058 92.2233 536.893 79.1024 557.726 69.6415C578.56 60.1808 599.721 56.048 616.905 57.0871C634.103 58.1271 647.242 64.3377 652.165 75.4781C657.089 86.6234 653.222 101.075 642.854 115.15C632.494 129.214 615.681 142.843 594.852 152.302C574.022 161.762 552.842 165.385 535.638 163.838C518.422 162.289 505.255 155.572 500.33 144.426Z" fill="#B4F9BA" stroke="#4A4A4A" stroke-width="0.5"/>
<path d="M587.99 83.4953L605.523 82.3788C606.022 82.3472 606.451 82.482 606.642 82.731L624.309 105.786C624.5 106.035 624.427 106.361 624.123 106.643L614.351 115.596C614.04 115.879 613.54 116.074 613.038 116.104L595.528 117.219C594.451 117.289 593.935 116.616 594.597 116.01L603.365 107.975C603.673 107.694 603.742 107.367 603.551 107.118L586.49 84.8612C586.077 84.322 586.909 83.5642 587.99 83.4953Z" fill="#010101"/>
<path d="M535.698 121.526L528.997 112.78C528.802 112.53 528.875 112.204 529.186 111.921L557.726 85.9265C558.034 85.6459 558.531 85.4531 559.033 85.4192L574.934 84.3741C575.44 84.3411 575.868 84.4759 576.056 84.7273L582.749 93.4639C583.159 94.002 582.333 94.7585 581.253 94.8308L566.988 95.7681C566.489 95.7997 565.992 95.9925 565.681 96.2755L538.124 121.374C537.457 121.982 536.108 122.067 535.696 121.528L535.698 121.526Z" fill="#010101"/>
<path d="M606.3 122.924L595.473 132.784C595.163 133.067 594.665 133.26 594.163 133.291L547.955 136.23C547.456 136.262 547.031 136.128 546.84 135.879L540.713 127.969C540.519 127.719 540.591 127.389 540.901 127.106L551.715 117.257C552.38 116.651 553.725 116.565 554.143 117.1L559.64 124.197C559.831 124.446 560.258 124.578 560.755 124.548L605.37 121.709C606.45 121.64 606.967 122.312 606.299 122.92L606.3 122.924Z" fill="#010101"/>
<path d="M787.787 60.0561C830.257 40.7691 853.528 6.74894 843.358 -16.2676L834.998 -32.9999L684.616 38.701L694.202 52.7713C708.82 75.0579 745.316 79.3431 787.787 60.0561Z" fill="#66E070" stroke="black" stroke-width="0.5" stroke-linecap="round" stroke-linejoin="round"/>
<path d="M683.33 36.4263C678.406 25.2825 682.292 11.3417 692.679 -2.22216C703.058 -15.7767 719.893 -28.8976 740.726 -38.3585C761.56 -47.8192 782.721 -51.952 799.905 -50.9129C817.103 -49.8729 830.242 -43.6623 835.165 -32.5219C840.089 -21.3766 836.222 -6.92531 825.854 7.14972C815.494 21.2137 798.681 34.8432 777.852 44.3024C757.022 53.7616 735.842 57.3853 718.638 55.8378C701.422 54.2891 688.255 47.5722 683.33 36.4263Z" fill="#B4F9BA" stroke="#4A4A4A" stroke-width="0.5"/>
<path d="M771.777 -24.5047L789.31 -25.6212C789.81 -25.6528 790.238 -25.518 790.429 -25.269L808.096 -2.21425C808.287 -1.96524 808.214 -1.63875 807.91 -1.35705L798.138 7.59564C797.827 7.87864 797.327 8.07372 796.825 8.10433L779.315 9.21899C778.238 9.28897 777.722 8.61644 778.384 8.00964L787.152 -0.0251772C787.46 -0.30584 787.529 -0.633376 787.338 -0.882383L770.277 -23.1388C769.864 -23.678 770.696 -24.4358 771.777 -24.5047Z" fill="#010101"/>
<path d="M719.485 13.5256L712.784 4.78013C712.589 4.53008 712.662 4.20359 712.973 3.92059L741.513 -22.0735C741.821 -22.3541 742.318 -22.5469 742.82 -22.5808L758.722 -23.6259C759.227 -23.6589 759.655 -23.5241 759.843 -23.2727L766.536 -14.5361C766.946 -13.998 766.12 -13.2415 765.04 -13.1692L750.775 -12.2319C750.276 -12.2003 749.779 -12.0075 749.468 -11.7245L721.911 13.3737C721.244 13.9818 719.895 14.0671 719.483 13.5279L719.485 13.5256Z" fill="#010101"/>
<path d="M790.087 14.9238L779.261 24.7844C778.95 25.0674 778.452 25.2601 777.95 25.2907L731.742 28.23C731.243 28.2617 730.819 28.1279 730.628 27.8789L724.5 19.969C724.306 19.7189 724.378 19.389 724.689 19.106L735.502 9.25712C736.167 8.65136 737.512 8.56505 737.93 9.09954L743.427 16.1971C743.618 16.4461 744.045 16.5775 744.542 16.5482L789.157 13.7087C790.238 13.6398 790.754 14.3123 790.086 14.9204L790.087 14.9238Z" fill="#010101"/>
<path d="M897 -2.50015L231.5 388" stroke="black" stroke-width="0.5" stroke-linecap="round" stroke-linejoin="round"/>
<path d="M706.245 -18.3556L0.828125 396" stroke="black" stroke-width="0.5" stroke-linecap="round" stroke-linejoin="round"/>
<path d="M209.787 400.056C252.257 380.769 275.528 346.749 265.358 323.732L256.998 307L106.616 378.701L116.202 392.771C130.82 415.058 167.316 419.343 209.787 400.056Z" fill="#66E070" stroke="black" stroke-width="0.5" stroke-linecap="round" stroke-linejoin="round"/>
<path d="M105.33 376.426C100.406 365.282 104.292 351.342 114.679 337.778C125.058 324.223 141.893 311.102 162.726 301.642C183.56 292.181 204.721 288.048 221.905 289.087C239.103 290.127 252.242 296.338 257.165 307.478C262.089 318.623 258.222 333.075 247.854 347.15C237.494 361.214 220.681 374.843 199.852 384.302C179.022 393.762 157.842 397.385 140.638 395.838C123.422 394.289 110.255 387.572 105.33 376.426Z" fill="#B4F9BA" stroke="#4A4A4A" stroke-width="0.5"/>
<path d="M191.292 315.495L208.826 314.379C209.325 314.347 209.753 314.482 209.944 314.731L227.612 337.786C227.803 338.035 227.73 338.361 227.425 338.643L217.654 347.596C217.343 347.879 216.843 348.074 216.341 348.104L198.831 349.219C197.754 349.289 197.238 348.616 197.899 348.01L206.668 339.975C206.976 339.694 207.045 339.367 206.854 339.118L189.793 316.861C189.38 316.322 190.212 315.564 191.292 315.495Z" fill="#010101"/>
<path d="M139.001 353.526L132.299 344.78C132.105 344.53 132.178 344.204 132.488 343.921L161.029 317.926C161.337 317.646 161.834 317.453 162.336 317.419L178.237 316.374C178.742 316.341 179.17 316.476 179.359 316.727L186.052 325.464C186.462 326.002 185.635 326.758 184.556 326.831L170.291 327.768C169.792 327.8 169.294 327.992 168.984 328.275L141.427 353.374C140.759 353.982 139.411 354.067 138.998 353.528L139.001 353.526Z" fill="#010101"/>
<path d="M209.603 354.924L198.776 364.784C198.465 365.067 197.968 365.26 197.466 365.291L151.258 368.23C150.759 368.262 150.334 368.128 150.143 367.879L144.016 359.969C143.821 359.719 143.893 359.389 144.204 359.106L155.018 349.257C155.683 348.651 157.028 348.565 157.446 349.1L162.942 356.197C163.133 356.446 163.561 356.578 164.057 356.548L208.673 353.709C209.753 353.64 210.27 354.312 209.602 354.92L209.603 354.924Z" fill="#010101"/>
<path d="M861.5 -3.50015L158.5 409.002" stroke="black" stroke-width="0.5" stroke-linecap="round" stroke-linejoin="round"/>
<path d="M968.688 24.9999L269.172 442.527" stroke="black" stroke-width="0.5" stroke-linecap="round" stroke-linejoin="round"/>
<path d="M662.458 315.056C704.929 295.769 728.2 261.749 718.03 238.732L709.67 222L559.288 293.701L568.874 307.771C583.492 330.058 619.988 334.343 662.458 315.056Z" fill="#66E070" stroke="black" stroke-width="0.5" stroke-linecap="round" stroke-linejoin="round"/>
<path d="M558.003 291.426C553.078 280.282 556.965 266.341 567.351 252.777C577.731 239.223 594.565 226.101 615.398 216.641C636.231 207.18 657.393 203.048 674.577 204.087C691.774 205.127 704.914 211.337 709.836 222.478C714.761 233.624 710.893 248.075 700.526 262.15C690.166 276.214 673.353 289.844 652.524 299.303C631.694 308.762 610.514 312.385 593.311 310.838C576.094 309.289 562.928 302.573 558.003 291.426Z" fill="#B4F9BA" stroke="#4A4A4A" stroke-width="0.5"/>
<path d="M645.888 230.493L663.424 229.383C663.923 229.351 664.352 229.486 664.543 229.735L682.244 252.794C682.435 253.043 682.363 253.369 682.058 253.651L672.296 262.599C671.986 262.881 671.486 263.076 670.983 263.107L653.471 264.215C652.394 264.284 651.877 263.612 652.538 263.005L661.298 254.975C661.606 254.694 661.675 254.367 661.483 254.118L644.389 231.858C643.976 231.319 644.807 230.561 645.888 230.493Z" fill="#010101"/>
<path d="M593.631 268.52L586.915 259.771C586.72 259.521 586.792 259.195 587.103 258.912L615.626 232.925C615.934 232.644 616.431 232.452 616.933 232.418L632.842 231.379C633.347 231.346 633.776 231.481 633.965 231.732L640.673 240.472C641.083 241.011 640.258 241.767 639.178 241.839L624.906 242.771C624.407 242.803 623.909 242.995 623.599 243.278L596.059 268.369C595.391 268.977 594.042 269.062 593.629 268.523L593.631 268.52Z" fill="#010101"/>
<path d="M664.222 269.937L653.406 279.792C653.095 280.075 652.598 280.268 652.096 280.298L605.884 283.22C605.384 283.251 604.959 283.117 604.768 282.868L598.629 274.958C598.435 274.708 598.506 274.378 598.817 274.095L609.62 264.252C610.284 263.646 611.629 263.56 612.048 264.095L617.555 271.193C617.746 271.442 618.174 271.574 618.67 271.545L663.29 268.722C664.371 268.654 664.888 269.326 664.221 269.934L664.222 269.937Z" fill="#010101"/>
<path d="M858.458 200.056C900.929 180.769 924.2 146.749 914.03 123.732L905.67 107L755.288 178.701L764.874 192.771C779.492 215.058 815.988 219.343 858.458 200.056Z" fill="#66E070" stroke="black" stroke-width="0.5" stroke-linecap="round" stroke-linejoin="round"/>
<path d="M754.002 176.426C749.078 165.282 752.964 151.342 763.35 137.778C773.73 124.223 790.565 111.102 811.398 101.642C832.231 92.1808 853.393 88.048 870.577 89.0871C887.775 90.1271 900.914 96.3377 905.836 107.478C910.761 118.623 906.894 133.075 896.526 147.15C886.166 161.214 869.353 174.843 848.524 184.302C827.694 193.762 806.514 197.385 789.31 195.838C772.094 194.289 758.927 187.572 754.002 176.426Z" fill="#B4F9BA" stroke="#4A4A4A" stroke-width="0.5"/>
<path d="M842.751 115.495L860.285 114.379C860.784 114.347 861.212 114.482 861.403 114.731L879.071 137.786C879.262 138.035 879.189 138.361 878.884 138.643L869.113 147.596C868.802 147.879 868.302 148.074 867.8 148.104L850.29 149.219C849.213 149.289 848.697 148.616 849.358 148.01L858.127 139.975C858.435 139.694 858.504 139.367 858.313 139.118L841.252 116.861C840.839 116.322 841.671 115.564 842.751 115.495Z" fill="#010101"/>
<path d="M790.46 153.526L783.758 144.78C783.564 144.53 783.637 144.204 783.947 143.921L812.487 117.927C812.796 117.646 813.293 117.453 813.795 117.419L829.696 116.374C830.201 116.341 830.629 116.476 830.818 116.727L837.511 125.464C837.921 126.002 837.094 126.758 836.015 126.831L821.75 127.768C821.251 127.8 820.753 127.992 820.443 128.275L792.886 153.374C792.218 153.982 790.87 154.067 790.457 153.528L790.46 153.526Z" fill="#010101"/>
<path d="M861.062 154.924L850.235 164.784C849.924 165.067 849.427 165.26 848.925 165.291L802.717 168.23C802.218 168.262 801.793 168.128 801.602 167.879L795.475 159.969C795.28 159.719 795.352 159.389 795.663 159.106L806.477 149.257C807.142 148.651 808.487 148.565 808.905 149.1L814.401 156.197C814.592 156.446 815.02 156.578 815.516 156.548L860.132 153.709C861.212 153.64 861.729 154.312 861.061 154.92L861.062 154.924Z" fill="#010101"/>
<path d="M1041.46 92.0561C1083.93 72.7691 1107.2 38.7489 1097.03 15.7324L1088.67 -0.999878L938.288 70.701L947.874 84.7713C962.492 107.058 998.988 111.343 1041.46 92.0561Z" fill="#66E070" stroke="black" stroke-width="0.5" stroke-linecap="round" stroke-linejoin="round"/>
<path d="M937.002 68.4263C932.078 57.2825 935.964 43.3417 946.35 29.7778C956.73 16.2233 973.565 3.10238 994.398 -6.35846C1015.23 -15.8192 1036.39 -19.952 1053.58 -18.9129C1070.77 -17.8729 1083.91 -11.6623 1088.84 -0.521903C1093.76 10.6234 1089.89 25.0747 1079.53 39.1497C1069.17 53.2137 1052.35 66.8432 1031.52 76.3024C1010.69 85.7616 989.514 89.3853 972.31 87.8378C955.094 86.2891 941.927 79.5722 937.002 68.4263Z" fill="#B4F9BA" stroke="#4A4A4A" stroke-width="0.5"/>
<path d="M974.247 45.5256L967.545 36.7801C967.351 36.5301 967.424 36.2036 967.735 35.9206L996.275 9.92654C996.583 9.64588 997.08 9.45315 997.582 9.41915L1013.48 8.37408C1013.99 8.34113 1014.42 8.47593 1014.6 8.72727L1021.3 17.4639C1021.71 18.002 1020.88 18.7585 1019.8 18.8308L1005.54 19.7681C1005.04 19.7997 1004.54 19.9925 1004.23 20.2755L976.673 45.3737C976.006 45.9818 974.657 46.0671 974.244 45.5279L974.247 45.5256Z" fill="#010101"/>
<path d="M1150.67 29.4999L485.172 420" stroke="black" stroke-width="0.5" stroke-linecap="round" stroke-linejoin="round"/>
<path d="M959.917 13.6444L254.5 428" stroke="black" stroke-width="0.5" stroke-linecap="round" stroke-linejoin="round"/>
<path d="M463.458 432.056C505.929 412.769 529.2 378.749 519.03 355.732L510.67 339L360.288 410.701L369.874 424.771C384.492 447.058 420.988 451.343 463.458 432.056Z" fill="#66E070" stroke="black" stroke-width="0.5" stroke-linecap="round" stroke-linejoin="round"/>
<path d="M359.002 408.426C354.078 397.282 357.964 383.342 368.35 369.778C378.73 356.223 395.565 343.102 416.398 333.642C437.231 324.181 458.393 320.048 475.577 321.087C492.775 322.127 505.914 328.338 510.836 339.478C515.761 350.623 511.894 365.075 501.526 379.15C491.166 393.214 474.353 406.843 453.524 416.302C432.694 425.762 411.514 429.385 394.31 427.838C377.094 426.289 363.927 419.572 359.002 408.426Z" fill="#B4F9BA" stroke="#4A4A4A" stroke-width="0.5"/>
<path d="M446.054 347.495L463.588 346.379C464.087 346.347 464.515 346.482 464.706 346.731L482.373 369.786C482.564 370.035 482.492 370.361 482.187 370.643L472.415 379.596C472.105 379.879 471.605 380.074 471.102 380.104L453.593 381.219C452.516 381.289 451.999 380.616 452.661 380.01L461.429 371.975C461.737 371.694 461.807 371.367 461.616 371.118L444.554 348.861C444.142 348.322 444.974 347.564 446.054 347.495Z" fill="#010101"/>
<path d="M393.763 385.526L387.061 376.78C386.867 376.53 386.939 376.204 387.25 375.921L415.79 349.926C416.098 349.646 416.596 349.453 417.098 349.419L432.999 348.374C433.504 348.341 433.932 348.476 434.12 348.727L440.814 357.464C441.223 358.002 440.397 358.758 439.317 358.831L425.053 359.768C424.554 359.8 424.056 359.992 423.745 360.275L396.189 385.374C395.521 385.982 394.173 386.067 393.76 385.528L393.763 385.526Z" fill="#010101"/>
<path d="M464.364 386.924L453.538 396.784C453.227 397.067 452.73 397.26 452.227 397.291L406.02 400.23C405.521 400.262 405.096 400.128 404.905 399.879L398.778 391.969C398.583 391.719 398.655 391.389 398.966 391.106L409.779 381.257C410.445 380.651 411.79 380.565 412.208 381.1L417.704 388.197C417.895 388.446 418.322 388.578 418.819 388.548L463.434 385.709C464.515 385.64 465.031 386.312 464.364 386.92L464.364 386.924Z" fill="#010101"/>
<path d="M1115.17 28.4999L412.172 441.002" stroke="black" stroke-width="0.5" stroke-linecap="round" stroke-linejoin="round"/>
<path d="M1006.69 191L307.172 608.527" stroke="black" stroke-width="0.5" stroke-linecap="round" stroke-linejoin="round"/>
<path d="M596.003 457.426C591.078 446.282 594.965 432.341 605.351 418.777C615.731 405.223 632.565 392.101 653.398 382.641C674.231 373.18 695.393 369.048 712.577 370.087C729.774 371.127 742.914 377.337 747.836 388.478C752.761 399.624 748.893 414.075 738.526 428.15C728.166 442.214 711.353 455.844 690.524 465.303C669.694 474.762 648.514 478.385 631.311 476.838C614.094 475.289 600.928 468.573 596.003 457.426Z" fill="#B4F9BA" stroke="#4A4A4A" stroke-width="0.5"/>
<path d="M896.458 366.056C938.929 346.769 962.2 312.749 952.03 289.732L943.67 273L793.288 344.701L802.874 358.771C817.492 381.058 853.988 385.343 896.458 366.056Z" fill="#66E070" stroke="black" stroke-width="0.5" stroke-linecap="round" stroke-linejoin="round"/>
<path d="M792.002 342.426C787.078 331.282 790.964 317.342 801.35 303.778C811.73 290.223 828.565 277.102 849.398 267.642C870.231 258.181 891.393 254.048 908.577 255.087C925.775 256.127 938.914 262.338 943.836 273.478C948.761 284.623 944.894 299.075 934.526 313.15C924.166 327.214 907.353 340.843 886.524 350.302C865.694 359.762 844.514 363.385 827.31 361.838C810.094 360.289 796.927 353.572 792.002 342.426Z" fill="#B4F9BA" stroke="#4A4A4A" stroke-width="0.5"/>
<path d="M880.915 281.495L898.449 280.379C898.948 280.347 899.376 280.482 899.567 280.731L917.235 303.786C917.426 304.035 917.353 304.361 917.048 304.643L907.277 313.596C906.966 313.879 906.466 314.074 905.964 314.104L888.454 315.219C887.377 315.289 886.861 314.616 887.522 314.01L896.291 305.975C896.599 305.694 896.668 305.367 896.477 305.118L879.416 282.861C879.003 282.322 879.835 281.564 880.915 281.495Z" fill="#010101"/>
<path d="M828.624 319.526L821.922 310.78C821.728 310.53 821.801 310.204 822.111 309.921L850.652 283.926C850.96 283.646 851.457 283.453 851.959 283.419L867.86 282.374C868.365 282.341 868.793 282.476 868.982 282.727L875.675 291.464C876.085 292.002 875.258 292.758 874.179 292.831L859.914 293.768C859.415 293.8 858.917 293.992 858.607 294.275L831.05 319.374C830.382 319.982 829.034 320.067 828.621 319.528L828.624 319.526Z" fill="#010101"/>
<path d="M899.226 320.924L888.399 330.784C888.089 331.067 887.591 331.26 887.089 331.291L840.881 334.23C840.382 334.262 839.957 334.128 839.766 333.879L833.639 325.969C833.445 325.719 833.516 325.389 833.827 325.106L844.641 315.257C845.306 314.651 846.651 314.565 847.069 315.1L852.565 322.197C852.756 322.446 853.184 322.578 853.68 322.548L898.296 319.709C899.376 319.64 899.893 320.312 899.225 320.92L899.226 320.924Z" fill="#010101"/>
<path d="M975.002 234.426C970.078 223.282 973.964 209.342 984.35 195.778C994.73 182.223 1011.57 169.102 1032.4 159.642C1053.23 150.181 1074.39 146.048 1091.58 147.087C1108.77 148.127 1121.91 154.338 1126.84 165.478C1131.76 176.623 1127.89 191.075 1117.53 205.15C1107.17 219.214 1090.35 232.843 1069.52 242.302C1048.69 251.762 1027.51 255.385 1010.31 253.838C993.094 252.289 979.927 245.572 975.002 234.426Z" fill="#B4F9BA" stroke="#4A4A4A" stroke-width="0.5"/>
<path d="M1188.67 195.5L523.172 586" stroke="black" stroke-width="0.5" stroke-linecap="round" stroke-linejoin="round"/>
<path d="M997.917 179.644L292.5 594" stroke="black" stroke-width="0.5" stroke-linecap="round" stroke-linejoin="round"/>
<path d="M1153.17 194.5L450.172 607.002" stroke="black" stroke-width="0.5" stroke-linecap="round" stroke-linejoin="round"/>
</svg>
