<svg width="89" height="29" viewBox="0 0 89 29" fill="none" xmlns="http://www.w3.org/2000/svg">
<g clip-path="url(#clip0_1346_2305)">
<path d="M14.5212 28.5209C22.2649 28.5209 28.5424 22.2434 28.5424 14.4997C28.5424 6.75602 22.2649 0.478516 14.5212 0.478516C6.77751 0.478516 0.5 6.75602 0.5 14.4997C0.5 22.2434 6.77751 28.5209 14.5212 28.5209Z" fill="url(#paint0_linear_1346_2305)"/>
<path d="M23.3747 13.6421L19.4144 9.68179L19.4072 9.67461L19.3915 9.66089C19.3659 9.63772 19.3391 9.61592 19.3112 9.59555C19.2916 9.57988 19.272 9.56485 19.2511 9.55113C19.2419 9.5446 19.2328 9.53937 19.223 9.53349C18.9972 9.38562 18.724 9.32805 18.4578 9.37223C18.1915 9.4164 17.9516 9.55909 17.7857 9.77195L11.6263 15.9319V10.4442C11.6263 10.1557 11.5117 9.87903 11.3077 9.67504C11.1038 9.47105 10.8271 9.35645 10.5386 9.35645C10.2501 9.35645 9.97343 9.47105 9.76944 9.67504C9.56544 9.87903 9.45084 10.1557 9.45084 10.4442V15.9319L7.20217 13.6833C6.99663 13.4873 6.72258 13.3795 6.43859 13.3828C6.1546 13.3862 5.88319 13.5005 5.68236 13.7013C5.48154 13.9022 5.36722 14.1736 5.36385 14.4576C5.36047 14.7416 5.4683 15.0156 5.66429 15.2212L9.76966 19.3265C9.79545 19.3526 9.82272 19.3773 9.85132 19.4003C9.87876 19.4225 9.9075 19.4441 9.93625 19.4657C10.0846 19.5618 10.2541 19.6203 10.4301 19.6362H10.4347C10.47 19.6394 10.5053 19.6414 10.5406 19.6414H10.5569C10.5865 19.6414 10.6159 19.6401 10.6451 19.6375H10.6666C10.6947 19.6342 10.7228 19.631 10.7503 19.6251H10.7627C10.7934 19.6185 10.8241 19.6114 10.8541 19.6022H10.8594C10.8922 19.5923 10.9244 19.5808 10.9561 19.5676C11.0011 19.549 11.0448 19.5271 11.0867 19.5022L11.1115 19.4879C11.1526 19.4628 11.1919 19.4348 11.2291 19.4043L11.2402 19.3945C11.2631 19.3749 11.286 19.3553 11.3056 19.333L17.5512 13.0835V18.5543C17.5512 18.8428 17.6658 19.1195 17.8697 19.3235C18.0737 19.5275 18.3504 19.6421 18.6389 19.6421C18.9274 19.6421 19.2041 19.5275 19.4081 19.3235C19.6121 19.1195 19.7267 18.8428 19.7267 18.5543V13.0666L21.8368 15.1806C22.0417 15.3806 22.3171 15.4918 22.6033 15.49C22.8896 15.4882 23.1636 15.3737 23.366 15.1713C23.5683 14.9688 23.6827 14.6947 23.6844 14.4085C23.686 14.1222 23.5747 13.8469 23.3747 13.6421Z" fill="white"/>
<path d="M33.4409 11.2257H36.6682V19.6559H38.6014V11.2257H41.8287V9.41992H33.4409V11.2257Z" fill="black"/>
<path d="M46.0645 11.9616C45.8357 11.9775 45.6092 12.018 45.389 12.0825C45.177 12.1442 44.974 12.2336 44.7854 12.3484C44.5481 12.4869 44.3403 12.6707 44.1739 12.8893C44.0954 12.9931 44.0242 13.1022 43.9609 13.2159V11.9792H42.2551V19.6562H44.2059V15.7325C44.2007 15.4632 44.2402 15.195 44.3228 14.9387C44.3976 14.7119 44.5192 14.5033 44.6797 14.3264C44.8401 14.1495 45.036 14.0082 45.2544 13.9117C45.4946 13.7993 45.7536 13.7328 46.0182 13.7157C46.2679 13.691 46.52 13.7131 46.7616 13.781V11.9792C46.5304 11.9505 46.2969 11.9446 46.0645 11.9616Z" fill="black"/>
<path d="M54.0971 13.1591C53.8456 12.6644 53.4203 12.2798 52.9029 12.0792C52.3772 11.8702 51.7753 11.7656 51.0971 11.7656C50.1733 11.7656 49.4436 11.9649 48.9079 12.3634C48.383 12.7459 47.9985 13.2904 47.8136 13.913L49.5619 14.467C49.6855 14.116 49.9011 13.8721 50.2086 13.7353C50.4869 13.6044 50.7897 13.5341 51.0971 13.5289C51.6093 13.5289 51.9743 13.6356 52.1921 13.849C52.3626 14.0156 52.4645 14.2593 52.5011 14.5742C52.1744 14.6232 51.8641 14.6696 51.5734 14.712C51.0764 14.7856 50.6311 14.8627 50.2374 14.9433C49.8923 15.0109 49.5525 15.1035 49.2208 15.2203C48.8589 15.3438 48.5245 15.5366 48.2363 15.788C48 16.0016 47.8184 16.2686 47.7065 16.5668C47.5947 16.879 47.5394 17.2086 47.5432 17.5402C47.5386 17.949 47.6404 18.3519 47.8384 18.7096C48.0403 19.0697 48.3411 19.3645 48.7054 19.5589C49.0869 19.7701 49.5525 19.8755 50.1021 19.8751C50.7659 19.8751 51.3145 19.7601 51.7478 19.5301C52.12 19.3227 52.4493 19.0462 52.718 18.7155V19.6621H54.41V14.9642C54.4115 14.6464 54.3971 14.3287 54.3669 14.0123C54.334 13.7129 54.2423 13.423 54.0971 13.1591ZM52.2914 17.3246C52.2117 17.4721 52.1126 17.6084 51.9967 17.7296C51.8303 17.9073 51.6328 18.0529 51.414 18.1595C51.1334 18.2932 50.825 18.3577 50.5144 18.3477C50.3179 18.3525 50.1223 18.3188 49.9388 18.2484C49.789 18.1911 49.6593 18.0912 49.5658 17.9609C49.476 17.8278 49.4303 17.6699 49.4351 17.5095C49.4335 17.3884 49.4618 17.2688 49.5174 17.1613C49.5801 17.0474 49.6673 16.949 49.7729 16.8732C49.9141 16.772 50.0678 16.6897 50.2302 16.6282C50.4184 16.5598 50.6106 16.5029 50.8058 16.4577C51.0235 16.4054 51.3103 16.3472 51.6661 16.2832C51.8928 16.2427 52.1698 16.1944 52.486 16.1408C52.4821 16.2773 52.4762 16.4243 52.4658 16.5981C52.4554 16.8493 52.3961 17.096 52.2914 17.3246Z" fill="black"/>
<path d="M63.2588 13.8108C63.1645 13.4612 63.0122 13.13 62.808 12.8309C62.5806 12.5043 62.2767 12.2383 61.9228 12.0561C61.5439 11.8527 61.0535 11.751 60.4516 11.751C59.6981 11.751 59.0738 11.9143 58.5786 12.241C58.3514 12.3911 58.1448 12.57 57.9638 12.7734V11.9803H56.2437V19.6573H58.2036V15.7623C58.2036 15.2832 58.2567 14.8992 58.363 14.6105C58.4692 14.3217 58.6064 14.1027 58.7745 13.9533C58.926 13.8119 59.1086 13.7083 59.3076 13.6508C59.481 13.6008 59.6603 13.5745 59.8407 13.5724C60.2528 13.5724 60.5713 13.6649 60.7965 13.85C61.0191 14.0307 61.1877 14.2692 61.2839 14.5393C61.381 14.8034 61.4408 15.0798 61.4616 15.3605C61.4808 15.6327 61.4901 15.8566 61.4897 16.0321V19.6573H63.4496V15.3494C63.4496 15.2187 63.4404 15.0181 63.4215 14.7379C63.3969 14.4244 63.3424 14.114 63.2588 13.8108Z" fill="black"/>
<path d="M70.4988 15.5921C70.1452 15.3917 69.6772 15.2153 69.0949 15.0629C68.4977 14.9113 68.0535 14.7881 67.7621 14.6931C67.4707 14.5982 67.2789 14.5058 67.1866 14.4161C67.1413 14.3732 67.1055 14.3212 67.0816 14.2636C67.0576 14.206 67.046 14.144 67.0474 14.0816C67.0474 13.8589 67.1552 13.6897 67.3708 13.5701C67.5864 13.4505 67.8725 13.4048 68.2273 13.4283C68.5923 13.4566 68.8814 13.5538 69.0949 13.7197C69.1997 13.8007 69.2867 13.9026 69.3504 14.0188C69.414 14.1351 69.4529 14.2632 69.4646 14.3952L71.4409 14.0392C71.3827 13.5941 71.1989 13.1749 70.911 12.8306C70.6073 12.4776 70.2198 12.2065 69.7841 12.042C69.2735 11.8488 68.7307 11.7545 68.1848 11.7644C67.5642 11.7644 67.0252 11.8628 66.5679 12.0597C66.1403 12.2324 65.771 12.524 65.5037 12.8998C65.2481 13.2781 65.1166 13.7265 65.1273 14.1829C65.1169 14.5344 65.2027 14.8821 65.3756 15.1883C65.5415 15.4662 65.8118 15.7044 66.1864 15.903C66.5609 16.1017 67.0618 16.2817 67.6889 16.4433C68.243 16.5905 68.6515 16.709 68.9145 16.7987C69.1759 16.8889 69.347 16.9797 69.4228 17.0725C69.5027 17.1772 69.543 17.3068 69.5365 17.4383C69.5409 17.5489 69.5171 17.6587 69.4674 17.7575C69.4176 17.8564 69.3437 17.941 69.2523 18.0034C69.0615 18.138 68.7919 18.2053 68.4435 18.2053C68.0167 18.2053 67.6648 18.1034 67.3878 17.8995C67.1088 17.6937 66.9174 17.3906 66.8514 17.0502L64.8726 17.356C65.0006 18.1569 65.3619 18.7767 65.9564 19.2153C66.5509 19.6539 67.3316 19.873 68.2985 19.8725C69.3033 19.8725 70.0898 19.6473 70.6582 19.197C71.2266 18.7467 71.5119 18.1273 71.514 17.339C71.5245 16.9835 71.4411 16.6316 71.2723 16.3185C71.1099 16.0372 70.852 15.795 70.4988 15.5921Z" fill="black"/>
<path d="M79.2028 13.1591C78.9512 12.6645 78.526 12.28 78.0086 12.0792C77.4825 11.8702 76.8806 11.7656 76.2029 11.7656C75.2791 11.7656 74.5494 11.9649 74.0136 12.3634C73.4888 12.746 73.1041 13.2905 72.9187 13.913L74.6676 14.467C74.7913 14.116 75.0069 13.8721 75.3144 13.7353C75.5926 13.6044 75.8954 13.5341 76.2029 13.5289C76.7151 13.5289 77.08 13.6356 77.2978 13.849C77.4683 14.0156 77.5696 14.2593 77.6068 14.5742C77.2802 14.6232 76.9699 14.6696 76.6791 14.712C76.1822 14.7856 75.7368 14.8627 75.3431 14.9433C74.998 15.0109 74.6583 15.1035 74.3266 15.2203C73.9146 15.3727 73.5864 15.5611 73.342 15.7854C73.1058 15.9989 72.9241 16.266 72.8122 16.5641C72.7001 16.8763 72.6448 17.2059 72.6489 17.5376C72.6444 17.9464 72.7461 18.3493 72.9442 18.707C73.1459 19.0672 73.4468 19.362 73.8111 19.5563C74.1927 19.7675 74.6582 19.8729 75.2079 19.8725C75.8716 19.8725 76.4202 19.7575 76.8536 19.5275C77.2258 19.3201 77.555 19.0436 77.8237 18.7129V19.6595H79.5158V14.9642C79.5173 14.6464 79.5029 14.3287 79.4726 14.0123C79.4398 13.7129 79.3481 13.423 79.2028 13.1591ZM77.3971 17.3246C77.3174 17.4721 77.2183 17.6084 77.1025 17.7296C76.9361 17.9073 76.7386 18.0529 76.5197 18.1595C76.2392 18.2932 75.9307 18.3577 75.6201 18.3477C75.4236 18.3525 75.2281 18.3188 75.0446 18.2484C74.8947 18.1911 74.765 18.0912 74.6715 17.9609C74.5817 17.8278 74.536 17.6699 74.5409 17.5095C74.5392 17.3884 74.5675 17.2688 74.6232 17.1613C74.6856 17.0472 74.7729 16.9488 74.8786 16.8732C75.0198 16.772 75.1735 16.6897 75.3359 16.6282C75.5242 16.5597 75.7164 16.5028 75.9115 16.4577C76.1293 16.4054 76.4161 16.3472 76.7719 16.2832C76.9986 16.2427 77.2756 16.1944 77.5918 16.1408C77.5879 16.2773 77.5813 16.4243 77.5715 16.5981C77.5605 16.8492 77.5013 17.0959 77.3971 17.3246Z" fill="black"/>
<path d="M85.5431 15.8171L88.3151 11.9789H85.9266L83.3251 15.6753V9.41992H81.3632L81.3489 19.6559H83.3251V15.9595L85.9834 19.6559H88.4999L85.5431 15.8171Z" fill="black"/>
</g>
<defs>
<linearGradient id="paint0_linear_1346_2305" x1="2.37629" y1="7.48781" x2="26.6661" y2="21.511" gradientUnits="userSpaceOnUse">
<stop offset="0.13" stop-color="#348BED"/>
<stop offset="0.31" stop-color="#2B80E8"/>
<stop offset="0.64" stop-color="#1461DB"/>
<stop offset="0.72" stop-color="#0E57D7"/>
</linearGradient>
<clipPath id="clip0_1346_2305">
<rect width="88" height="28.0424" fill="white" transform="translate(0.5 0.478516)"/>
</clipPath>
</defs>
</svg>
