<svg width="31" height="31" viewBox="0 0 31 31" fill="none" xmlns="http://www.w3.org/2000/svg">
<g id="Frame 48095991">
<g id="Group">
<g id="Group_2">
<path id="Vector" d="M27.6763 6.99569C26.7513 7.40146 25.7656 7.67042 24.738 7.80101C25.7952 7.16981 26.6021 6.17792 26.9814 4.98237C25.9957 5.57004 24.9074 5.98514 23.7477 6.21679C22.8117 5.22024 21.4778 4.60303 20.0226 4.60303C17.1993 4.60303 14.9264 6.89463 14.9264 9.70395C14.9264 10.1082 14.9606 10.4968 15.0445 10.8669C10.8049 10.6601 7.05345 8.62811 4.53331 5.53273C4.09333 6.29608 3.83526 7.16981 3.83526 8.1104C3.83526 9.87652 4.74475 11.4421 6.10043 12.3485C5.28111 12.3329 4.47734 12.0951 3.79639 11.7204C3.79639 11.7359 3.79639 11.7561 3.79639 11.7763C3.79639 14.2545 5.56407 16.3129 7.8821 16.7871C7.467 16.9006 7.01459 16.955 6.54507 16.955C6.21859 16.955 5.88899 16.9363 5.57961 16.8679C6.24035 18.8875 8.1153 20.3722 10.3447 20.4204C8.60969 21.7776 6.40671 22.5954 4.02182 22.5954C3.60361 22.5954 3.2025 22.5767 2.80139 22.5254C5.06035 23.9822 7.73751 24.8139 10.6246 24.8139C20.0086 24.8139 25.1391 17.0405 25.1391 10.3025C25.1391 10.0771 25.1313 9.85942 25.1204 9.64331C26.1325 8.92505 26.983 8.028 27.6763 6.99569Z" fill="#2FACFF"/>
</g>
</g>
</g>
</svg>
