<svg width="23" height="19" viewBox="0 0 23 19" fill="none" xmlns="http://www.w3.org/2000/svg">
<path fill-rule="evenodd" clip-rule="evenodd" d="M20.1593 5.17455C20.1593 4.97517 20.1553 4.77741 20.1464 4.58045C21.0433 3.93227 21.8232 3.12345 22.4375 2.20244C21.6149 2.5681 20.7293 2.81429 19.8001 2.92569C20.7487 2.35661 21.476 1.45739 21.8199 0.38543C20.9319 0.910918 19.9494 1.29353 18.9032 1.50017C18.0644 0.606603 16.8712 0.0488281 15.5505 0.0488281C13.0132 0.0488281 10.9562 2.10557 10.9562 4.64099C10.9562 5.001 10.9966 5.35213 11.0749 5.68873C7.25721 5.49662 3.87224 3.66912 1.60698 0.88993C1.21221 1.56879 0.984554 2.35661 0.984554 3.19852C0.984554 4.79193 1.79588 6.19888 3.02862 7.02142C2.27541 6.99801 1.56742 6.79056 0.948226 6.4475C0.947419 6.46607 0.947419 6.48463 0.947419 6.50562C0.947419 8.73026 2.53132 10.5868 4.6327 11.0082C4.24682 11.1131 3.84075 11.1696 3.42177 11.1696C3.1263 11.1696 2.8381 11.1406 2.55797 11.0873C3.14325 12.9116 4.83856 14.2394 6.84953 14.2773C5.27692 15.5091 3.29664 16.2429 1.1444 16.2429C0.773851 16.2429 0.408148 16.2219 0.0480957 16.1791C2.08166 17.4819 4.49547 18.2423 7.0901 18.2423C15.5384 18.2423 20.1593 11.2439 20.1593 5.17455Z" fill="#666666"/>
</svg>
