<svg width="70" height="70" viewBox="0 0 70 70" fill="none" xmlns="http://www.w3.org/2000/svg">
<mask id="mask0_10353_1408" style="mask-type:alpha" maskUnits="userSpaceOnUse" x="0" y="0" width="70" height="70">
<rect width="70" height="70" fill="#D9D9D9"/>
</mask>
<g mask="url(#mask0_10353_1408)">
<path d="M33.5404 51.827H36.457V38.1354L42.582 44.2604L44.6463 42.1794L34.9987 32.5318L25.3511 42.1794L27.4321 44.2436L33.5404 38.1354V51.827ZM19.2939 61.25C17.9513 61.25 16.8303 60.8004 15.931 59.901C15.0317 59.0017 14.582 57.8808 14.582 56.5381V13.4619C14.582 12.1192 15.0317 10.9983 15.931 10.099C16.8303 9.19965 17.9513 8.75 19.2939 8.75H42.2904L55.4154 21.875V56.5381C55.4154 57.8808 54.9657 59.0017 54.0664 59.901C53.1671 60.8004 52.0461 61.25 50.7035 61.25H19.2939ZM40.832 23.3333V11.6667H19.2939C18.8447 11.6667 18.4332 11.8536 18.0594 12.2274C17.6856 12.6012 17.4987 13.0127 17.4987 13.4619V56.5381C17.4987 56.9873 17.6856 57.3988 18.0594 57.7726C18.4332 58.1464 18.8447 58.3333 19.2939 58.3333H50.7035C51.1527 58.3333 51.5641 58.1464 51.938 57.7726C52.3118 57.3988 52.4987 56.9873 52.4987 56.5381V23.3333H40.832Z" fill="#1C1B1F"/>
</g>
</svg>
