<svg width="25" height="24" viewBox="0 0 25 24" fill="none" xmlns="http://www.w3.org/2000/svg">
<g clip-path="url(#clip0_1535_1647)">
<path d="M12.7129 24C19.3629 24 24.7129 18.65 24.7129 12C24.7129 5.34996 19.3629 0 12.7129 0C6.06285 0 0.712891 5.34996 0.712891 12C0.712891 18.65 6.06285 24 12.7129 24Z" fill="#2775CA"/>
<path d="M16.0129 13.9001C16.0129 12.1501 14.9629 11.5501 12.8629 11.3002C11.3629 11.1001 11.0629 10.7002 11.0629 10.0001C11.0629 9.30002 11.563 8.85014 12.5629 8.85014C13.4629 8.85014 13.963 9.15014 14.2129 9.90013C14.263 10.0501 14.413 10.1501 14.563 10.1501H15.3629C15.5629 10.1501 15.7129 10.0001 15.7129 9.80017V9.75013C15.5129 8.6501 14.6129 7.80014 13.4629 7.70018V6.50018C13.4629 6.30014 13.3129 6.15014 13.063 6.1001H12.313C12.1129 6.1001 11.9629 6.2501 11.9129 6.50018V7.65014C10.4129 7.85018 9.46299 8.85014 9.46299 10.1002C9.46299 11.7502 10.4629 12.4001 12.5629 12.6502C13.963 12.9001 14.413 13.2001 14.413 14.0002C14.413 14.8002 13.7129 15.3502 12.763 15.3502C11.4629 15.3502 11.0129 14.8001 10.8629 14.0501C10.813 13.8502 10.663 13.7501 10.513 13.7501H9.66291C9.46299 13.7501 9.31299 13.9001 9.31299 14.1001V14.1502C9.51291 15.4001 10.3129 16.3001 11.9629 16.5502V17.7502C11.9629 17.9501 12.1129 18.1001 12.3629 18.1501H13.1129C13.3129 18.1501 13.4629 18.0001 13.513 17.7502V16.5502C15.013 16.3001 16.0129 15.2501 16.0129 13.9001Z" fill="white"/>
<path d="M10.1629 19.1499C6.26289 17.75 4.26285 13.4 5.71293 9.54992C6.46293 7.44992 8.11293 5.84996 10.1629 5.09996C10.3629 5 10.4629 4.85 10.4629 4.59992V3.89996C10.4629 3.69992 10.3629 3.54992 10.1629 3.5C10.1129 3.5 10.0129 3.5 9.96286 3.54992C5.21289 5.04992 2.61285 10.1 4.11285 14.85C5.01285 17.6499 7.16289 19.8 9.96286 20.7C10.1629 20.7999 10.3629 20.7 10.4129 20.4999C10.4629 20.45 10.4629 20.4 10.4629 20.3V19.5999C10.4629 19.4499 10.3129 19.25 10.1629 19.1499ZM15.4629 3.54992C15.2629 3.44996 15.0629 3.54992 15.0129 3.74996C14.9629 3.8 14.9629 3.84992 14.9629 3.95V4.64996C14.9629 4.85 15.1129 5.04992 15.2629 5.15C19.1629 6.54992 21.163 10.8999 19.7129 14.75C18.9629 16.85 17.3129 18.45 15.2629 19.2C15.0629 19.2999 14.9629 19.4499 14.9629 19.7V20.4C14.9629 20.6 15.0629 20.75 15.2629 20.7999C15.3129 20.7999 15.4129 20.7999 15.4629 20.75C20.2129 19.25 22.813 14.1999 21.313 9.44996C20.413 6.59996 18.2129 4.44992 15.4629 3.54992Z" fill="white"/>
</g>
<defs>
<clipPath id="clip0_1535_1647">
<rect width="24" height="24" fill="white" transform="translate(0.712891)"/>
</clipPath>
</defs>
</svg>
