<svg width="165" height="165" viewBox="0 0 165 165" fill="none" xmlns="http://www.w3.org/2000/svg">
<circle cx="82.5" cy="82.5" r="82.5" fill="#019493"/>
<path d="M128.225 75.7989L112.84 49.3817C112.209 48.3015 111.049 47.6384 109.787 47.6384H56.9688C55.7442 47.6384 54.6051 48.2694 53.9634 49.2962L37.5196 75.7721C36.664 77.1518 36.8832 78.9272 38.0436 80.0662L80.3431 121.355C81.7121 122.697 83.9206 122.697 85.295 121.355L127.648 80.0128C128.787 78.9005 129.022 77.1732 128.225 75.8042V75.7989ZM106.477 83.1304C106.418 85.8363 98.4875 88.0876 87.9206 88.6384V101.253H77.9313V88.6384C67.3645 88.0876 59.4394 85.8363 59.3805 83.1304V77.494C59.4394 74.7882 67.3645 72.5315 77.9313 71.9807V66.8416H62.8886V59.4299H102.969V66.8416H87.926V71.9807C98.4928 72.5315 106.423 74.7882 106.482 77.494V83.1304H106.477Z" fill="white"/>
<path d="M87.9206 81.3657C86.311 81.4513 84.6372 81.4887 82.926 81.4887C81.2148 81.4887 79.541 81.4459 77.9313 81.3657V75.9807C68.9527 76.4459 61.8725 78.1465 59.9206 80.3069C62.2255 82.8523 71.6533 84.7614 82.9313 84.7614C94.2094 84.7614 103.632 82.8523 105.937 80.3069C103.979 78.1465 96.91 76.4459 87.926 75.9807V81.3657H87.9206Z" fill="white"/>
</svg>
