<svg width="175" height="176" viewBox="0 0 175 176" fill="none" xmlns="http://www.w3.org/2000/svg">
<g filter="url(#filter0_d_8966_2063)">
<mask id="path-1-inside-1_8966_2063" fill="white">
<path d="M87.5001 151.697C124.78 151.697 155.002 121.521 155.002 84.2978C155.002 47.0742 124.78 16.8984 87.5001 16.8984C50.2197 16.8984 19.998 47.0742 19.998 84.2978C19.998 121.521 50.2197 151.697 87.5001 151.697Z"/>
</mask>
<path d="M87.5001 151.697C124.78 151.697 155.002 121.521 155.002 84.2978C155.002 47.0742 124.78 16.8984 87.5001 16.8984C50.2197 16.8984 19.998 47.0742 19.998 84.2978C19.998 121.521 50.2197 151.697 87.5001 151.697Z" fill="#F8B374" stroke="#F65D51" stroke-width="2" mask="url(#path-1-inside-1_8966_2063)"/>
<mask id="path-2-inside-2_8966_2063" fill="white">
<path d="M118.174 55.2728C112.64 52.6836 106.723 50.8019 100.536 49.7305C99.7767 51.104 98.8891 52.9515 98.2771 54.4212C91.7011 53.4322 85.1855 53.4322 78.7304 54.4212C78.1186 52.9515 77.2108 51.104 76.4443 49.7305C70.2514 50.8019 64.3276 52.6905 58.7937 55.2865C47.6318 72.1536 44.606 88.6017 46.1189 104.816C53.522 110.345 60.6966 113.703 67.7501 115.901C69.4916 113.504 71.0448 110.956 72.3829 108.271C69.8345 107.302 67.3937 106.107 65.0874 104.72C65.6993 104.267 66.2977 103.793 66.8759 103.305C80.9426 109.885 96.2263 109.885 110.125 103.305C110.71 103.793 111.308 104.267 111.913 104.72C109.6 106.114 107.153 107.309 104.604 108.278C105.943 110.956 107.489 113.511 109.237 115.908C116.298 113.71 123.479 110.352 130.882 104.816C132.657 86.0195 127.849 69.7224 118.174 55.2728ZM74.2993 94.8445C70.0766 94.8445 66.6137 90.9024 66.6137 86.1018C66.6137 81.3013 70.0027 77.3524 74.2993 77.3524C78.596 77.3524 82.0588 81.2944 81.9848 86.1018C81.9915 90.9024 78.596 94.8445 74.2993 94.8445ZM102.702 94.8445C98.4789 94.8445 95.016 90.9024 95.016 86.1018C95.016 81.3013 98.4048 77.3524 102.702 77.3524C106.998 77.3524 110.461 81.2944 110.387 86.1018C110.387 90.9024 106.998 94.8445 102.702 94.8445Z"/>
</mask>
<path d="M118.174 55.2728C112.64 52.6836 106.723 50.8019 100.536 49.7305C99.7767 51.104 98.8891 52.9515 98.2771 54.4212C91.7011 53.4322 85.1855 53.4322 78.7304 54.4212C78.1186 52.9515 77.2108 51.104 76.4443 49.7305C70.2514 50.8019 64.3276 52.6905 58.7937 55.2865C47.6318 72.1536 44.606 88.6017 46.1189 104.816C53.522 110.345 60.6966 113.703 67.7501 115.901C69.4916 113.504 71.0448 110.956 72.3829 108.271C69.8345 107.302 67.3937 106.107 65.0874 104.72C65.6993 104.267 66.2977 103.793 66.8759 103.305C80.9426 109.885 96.2263 109.885 110.125 103.305C110.71 103.793 111.308 104.267 111.913 104.72C109.6 106.114 107.153 107.309 104.604 108.278C105.943 110.956 107.489 113.511 109.237 115.908C116.298 113.71 123.479 110.352 130.882 104.816C132.657 86.0195 127.849 69.7224 118.174 55.2728ZM74.2993 94.8445C70.0766 94.8445 66.6137 90.9024 66.6137 86.1018C66.6137 81.3013 70.0027 77.3524 74.2993 77.3524C78.596 77.3524 82.0588 81.2944 81.9848 86.1018C81.9915 90.9024 78.596 94.8445 74.2993 94.8445ZM102.702 94.8445C98.4789 94.8445 95.016 90.9024 95.016 86.1018C95.016 81.3013 98.4048 77.3524 102.702 77.3524C106.998 77.3524 110.461 81.2944 110.387 86.1018C110.387 90.9024 106.998 94.8445 102.702 94.8445Z" fill="#F65D51" stroke="black" mask="url(#path-2-inside-2_8966_2063)"/>
</g>
<defs>
<filter id="filter0_d_8966_2063" x="-0.00195312" y="0.898438" width="175.004" height="174.799" filterUnits="userSpaceOnUse" color-interpolation-filters="sRGB">
<feFlood flood-opacity="0" result="BackgroundImageFix"/>
<feColorMatrix in="SourceAlpha" type="matrix" values="0 0 0 0 0 0 0 0 0 0 0 0 0 0 0 0 0 0 127 0" result="hardAlpha"/>
<feOffset dy="4"/>
<feGaussianBlur stdDeviation="10"/>
<feComposite in2="hardAlpha" operator="out"/>
<feColorMatrix type="matrix" values="0 0 0 0 1 0 0 0 0 0.752941 0 0 0 0 0.529412 0 0 0 1 0"/>
<feBlend mode="normal" in2="BackgroundImageFix" result="effect1_dropShadow_8966_2063"/>
<feBlend mode="normal" in="SourceGraphic" in2="effect1_dropShadow_8966_2063" result="shape"/>
</filter>
</defs>
</svg>
