<svg width="271" height="271" viewBox="0 0 271 271" fill="none" xmlns="http://www.w3.org/2000/svg">
<g filter="url(#filter0_f_9214_2085)">
<mask id="path-1-inside-1_9214_2085" fill="white">
<path d="M135.5 220.906C182.515 220.906 220.629 182.85 220.629 135.906C220.629 88.962 182.515 50.9062 135.5 50.9062C88.4839 50.9062 50.3701 88.962 50.3701 135.906C50.3701 182.85 88.4839 220.906 135.5 220.906Z"/>
</mask>
<path d="M135.5 220.906C182.515 220.906 220.629 182.85 220.629 135.906C220.629 88.962 182.515 50.9062 135.5 50.9062C88.4839 50.9062 50.3701 88.962 50.3701 135.906C50.3701 182.85 88.4839 220.906 135.5 220.906Z" fill="url(#paint0_linear_9214_2085)"/>
<path d="M135.5 220.906C182.515 220.906 220.629 182.85 220.629 135.906C220.629 88.962 182.515 50.9062 135.5 50.9062C88.4839 50.9062 50.3701 88.962 50.3701 135.906C50.3701 182.85 88.4839 220.906 135.5 220.906Z" stroke="#F65D51" stroke-width="2" mask="url(#path-1-inside-1_9214_2085)"/>
</g>
<mask id="path-2-inside-2_9214_2085" fill="white">
<path d="M135.5 220.906C182.515 220.906 220.629 182.85 220.629 135.906C220.629 88.962 182.515 50.9062 135.5 50.9062C88.4839 50.9062 50.3701 88.962 50.3701 135.906C50.3701 182.85 88.4839 220.906 135.5 220.906Z"/>
</mask>
<path d="M135.5 220.906C182.515 220.906 220.629 182.85 220.629 135.906C220.629 88.962 182.515 50.9062 135.5 50.9062C88.4839 50.9062 50.3701 88.962 50.3701 135.906C50.3701 182.85 88.4839 220.906 135.5 220.906Z" fill="white" fill-opacity="0.5" stroke="#F65D51" stroke-width="2" mask="url(#path-2-inside-2_9214_2085)"/>
<mask id="path-3-inside-3_9214_2085" fill="white">
<path d="M174.183 99.1171C167.204 95.8518 159.742 93.4787 151.94 92.1274C150.982 93.8597 149.863 96.1896 149.091 98.0431C140.798 96.7959 132.581 96.7959 124.44 98.0431C123.668 96.1896 122.524 93.8597 121.557 92.1274C113.747 93.4787 106.276 95.8605 99.297 99.1344C85.2203 120.406 81.4043 141.149 83.3123 161.598C92.6487 168.571 101.697 172.806 110.592 175.577C112.789 172.555 114.747 169.341 116.435 165.955C113.221 164.734 110.143 163.227 107.234 161.477C108.006 160.905 108.761 160.308 109.49 159.693C127.23 167.99 146.505 167.99 164.033 159.693C164.771 160.308 165.525 160.905 166.288 161.477C163.371 163.235 160.285 164.742 157.071 165.964C158.758 169.341 160.709 172.563 162.913 175.586C171.817 172.814 180.874 168.579 190.21 161.598C192.449 137.893 186.386 117.34 174.183 99.1171ZM118.852 149.022C113.526 149.022 109.159 144.051 109.159 137.997C109.159 131.943 113.433 126.963 118.852 126.963C124.27 126.963 128.638 131.934 128.544 137.997C128.553 144.051 124.27 149.022 118.852 149.022ZM154.671 149.022C149.346 149.022 144.978 144.051 144.978 137.997C144.978 131.943 149.252 126.963 154.671 126.963C160.09 126.963 164.457 131.934 164.364 137.997C164.364 144.051 160.09 149.022 154.671 149.022Z"/>
</mask>
<path d="M174.183 99.1171C167.204 95.8518 159.742 93.4787 151.94 92.1274C150.982 93.8597 149.863 96.1896 149.091 98.0431C140.798 96.7959 132.581 96.7959 124.44 98.0431C123.668 96.1896 122.524 93.8597 121.557 92.1274C113.747 93.4787 106.276 95.8605 99.297 99.1344C85.2203 120.406 81.4043 141.149 83.3123 161.598C92.6487 168.571 101.697 172.806 110.592 175.577C112.789 172.555 114.747 169.341 116.435 165.955C113.221 164.734 110.143 163.227 107.234 161.477C108.006 160.905 108.761 160.308 109.49 159.693C127.23 167.99 146.505 167.99 164.033 159.693C164.771 160.308 165.525 160.905 166.288 161.477C163.371 163.235 160.285 164.742 157.071 165.964C158.758 169.341 160.709 172.563 162.913 175.586C171.817 172.814 180.874 168.579 190.21 161.598C192.449 137.893 186.386 117.34 174.183 99.1171ZM118.852 149.022C113.526 149.022 109.159 144.051 109.159 137.997C109.159 131.943 113.433 126.963 118.852 126.963C124.27 126.963 128.638 131.934 128.544 137.997C128.553 144.051 124.27 149.022 118.852 149.022ZM154.671 149.022C149.346 149.022 144.978 144.051 144.978 137.997C144.978 131.943 149.252 126.963 154.671 126.963C160.09 126.963 164.457 131.934 164.364 137.997C164.364 144.051 160.09 149.022 154.671 149.022Z" fill="#F65D51" stroke="black" mask="url(#path-3-inside-3_9214_2085)"/>
<defs>
<filter id="filter0_f_9214_2085" x="0.370117" y="0.90625" width="270.259" height="270" filterUnits="userSpaceOnUse" color-interpolation-filters="sRGB">
<feFlood flood-opacity="0" result="BackgroundImageFix"/>
<feBlend mode="normal" in="SourceGraphic" in2="BackgroundImageFix" result="shape"/>
<feGaussianBlur stdDeviation="25" result="effect1_foregroundBlur_9214_2085"/>
</filter>
<linearGradient id="paint0_linear_9214_2085" x1="50.3701" y1="50.9062" x2="220.629" y2="220.906" gradientUnits="userSpaceOnUse">
<stop offset="0.425" stop-color="#FFC17B"/>
<stop offset="1" stop-color="#F65D51"/>
</linearGradient>
</defs>
</svg>
