<svg width="271" height="270" viewBox="0 0 271 270" fill="none" xmlns="http://www.w3.org/2000/svg">
<g filter="url(#filter0_f_9866_1365)">
<mask id="path-1-inside-1_9866_1365" fill="white">
<path d="M135.456 220C182.471 220 220.585 181.944 220.585 135C220.585 88.0558 182.471 50 135.456 50C88.4399 50 50.3262 88.0558 50.3262 135C50.3262 181.944 88.4399 220 135.456 220Z"/>
</mask>
<path d="M135.456 220C182.471 220 220.585 181.944 220.585 135C220.585 88.0558 182.471 50 135.456 50C88.4399 50 50.3262 88.0558 50.3262 135C50.3262 181.944 88.4399 220 135.456 220Z" fill="url(#paint0_linear_9866_1365)"/>
<path d="M135.456 220C182.471 220 220.585 181.944 220.585 135C220.585 88.0558 182.471 50 135.456 50C88.4399 50 50.3262 88.0558 50.3262 135C50.3262 181.944 88.4399 220 135.456 220Z" stroke="#66E070" stroke-width="2" mask="url(#path-1-inside-1_9866_1365)"/>
</g>
<mask id="path-2-inside-2_9866_1365" fill="white">
<path d="M135.456 220C182.471 220 220.585 181.944 220.585 135C220.585 88.0558 182.471 50 135.456 50C88.4399 50 50.3262 88.0558 50.3262 135C50.3262 181.944 88.4399 220 135.456 220Z"/>
</mask>
<path d="M135.456 220C182.471 220 220.585 181.944 220.585 135C220.585 88.0558 182.471 50 135.456 50C88.4399 50 50.3262 88.0558 50.3262 135C50.3262 181.944 88.4399 220 135.456 220Z" fill="white" fill-opacity="0.5" stroke="#66E070" stroke-width="2" mask="url(#path-2-inside-2_9866_1365)"/>
<mask id="path-3-inside-3_9866_1365" fill="white">
<path d="M165.795 107.454C160.261 104.865 154.344 102.983 148.157 101.912C147.398 103.285 146.51 105.133 145.898 106.602C139.322 105.613 132.807 105.613 126.351 106.602C125.74 105.133 124.832 103.285 124.065 101.912C117.873 102.983 111.949 104.872 106.415 107.468C95.2529 124.335 92.2271 140.783 93.74 156.997C101.143 162.526 108.318 165.884 115.371 168.082C117.113 165.685 118.666 163.137 120.004 160.452C117.456 159.484 115.015 158.289 112.709 156.901C113.32 156.448 113.919 155.974 114.497 155.487C128.564 162.066 143.847 162.066 157.746 155.487C158.331 155.974 158.929 156.448 159.535 156.901C157.221 158.295 154.774 159.49 152.226 160.459C153.564 163.137 155.11 165.692 156.858 168.089C163.919 165.891 171.1 162.533 178.503 156.997C180.278 138.201 175.471 121.904 165.795 107.454ZM121.92 147.026C117.698 147.026 114.235 143.084 114.235 138.283C114.235 133.482 117.624 129.534 121.92 129.534C126.217 129.534 129.68 133.476 129.606 138.283C129.613 143.084 126.217 147.026 121.92 147.026ZM150.323 147.026C146.1 147.026 142.637 143.084 142.637 138.283C142.637 133.482 146.026 129.534 150.323 129.534C154.619 129.534 158.082 133.476 158.008 138.283C158.008 143.084 154.619 147.026 150.323 147.026Z"/>
</mask>
<path d="M165.795 107.454C160.261 104.865 154.344 102.983 148.157 101.912C147.398 103.285 146.51 105.133 145.898 106.602C139.322 105.613 132.807 105.613 126.351 106.602C125.74 105.133 124.832 103.285 124.065 101.912C117.873 102.983 111.949 104.872 106.415 107.468C95.2529 124.335 92.2271 140.783 93.74 156.997C101.143 162.526 108.318 165.884 115.371 168.082C117.113 165.685 118.666 163.137 120.004 160.452C117.456 159.484 115.015 158.289 112.709 156.901C113.32 156.448 113.919 155.974 114.497 155.487C128.564 162.066 143.847 162.066 157.746 155.487C158.331 155.974 158.929 156.448 159.535 156.901C157.221 158.295 154.774 159.49 152.226 160.459C153.564 163.137 155.11 165.692 156.858 168.089C163.919 165.891 171.1 162.533 178.503 156.997C180.278 138.201 175.471 121.904 165.795 107.454ZM121.92 147.026C117.698 147.026 114.235 143.084 114.235 138.283C114.235 133.482 117.624 129.534 121.92 129.534C126.217 129.534 129.68 133.476 129.606 138.283C129.613 143.084 126.217 147.026 121.92 147.026ZM150.323 147.026C146.1 147.026 142.637 143.084 142.637 138.283C142.637 133.482 146.026 129.534 150.323 129.534C154.619 129.534 158.082 133.476 158.008 138.283C158.008 143.084 154.619 147.026 150.323 147.026Z" fill="#66E070" stroke="black" mask="url(#path-3-inside-3_9866_1365)"/>
<defs>
<filter id="filter0_f_9866_1365" x="0.326172" y="0" width="270.26" height="270" filterUnits="userSpaceOnUse" color-interpolation-filters="sRGB">
<feFlood flood-opacity="0" result="BackgroundImageFix"/>
<feBlend mode="normal" in="SourceGraphic" in2="BackgroundImageFix" result="shape"/>
<feGaussianBlur stdDeviation="25" result="effect1_foregroundBlur_9866_1365"/>
</filter>
<linearGradient id="paint0_linear_9866_1365" x1="50.3262" y1="50" x2="220.585" y2="220" gradientUnits="userSpaceOnUse">
<stop offset="0.425" stop-color="#A3F5AA"/>
<stop offset="1" stop-color="#66E070"/>
</linearGradient>
</defs>
</svg>
