<svg width="51" height="51" viewBox="0 0 51 51" fill="none" xmlns="http://www.w3.org/2000/svg">
<path d="M22.3986 5.10209C24.2656 3.12214 27.4141 3.12214 29.2811 5.10209C30.738 6.64717 32.8816 7.34367 34.9685 6.95003C37.6427 6.4456 40.1899 8.29628 40.5366 10.9955C40.8071 13.1018 42.1319 14.9253 44.0515 15.8334C46.5115 16.9972 47.4845 19.9917 46.1784 22.3791C45.1591 24.2422 45.1591 26.4961 46.1784 28.3592C47.4845 30.7466 46.5115 33.7411 44.0515 34.9048C42.1319 35.813 40.8071 37.6365 40.5366 39.7428C40.1899 42.442 37.6427 44.2927 34.9685 43.7882C32.8816 43.3946 30.738 44.0911 29.2811 45.6362C27.4141 47.6161 24.2656 47.6161 22.3986 45.6362C20.9417 44.0911 18.7981 43.3946 16.7112 43.7882C14.037 44.2927 11.4898 42.442 11.1431 39.7428C10.8726 37.6365 9.54781 35.813 7.62814 34.9048C5.16817 33.7411 4.19521 30.7466 5.50133 28.3592C6.52057 26.4961 6.52057 24.2422 5.50133 22.3791C4.19521 19.9917 5.16817 16.9972 7.62814 15.8334C9.54781 14.9253 10.8726 13.1018 11.1431 10.9955C11.4898 8.29628 14.037 6.4456 16.7112 6.95003C18.798 7.34367 20.9417 6.64717 22.3986 5.10209Z" stroke="black" stroke-width="1.5"/>
<path fill-rule="evenodd" clip-rule="evenodd" d="M39.0369 19.3978C39.8255 20.8113 39.319 22.5964 37.9055 23.3851C32.5414 26.3779 30.0133 28.4315 25.8986 33.0325L23.8329 35.3424L16.04 27.5495C14.8955 26.405 14.8955 24.5494 16.04 23.4049C17.1845 22.2604 19.0402 22.2604 20.1847 23.4049L23.6325 26.8527C27.1224 23.2339 30.0619 21.0493 35.0496 18.2665C36.4631 17.4778 38.2483 17.9844 39.0369 19.3978Z" stroke="black" stroke-width="1.5" stroke-linecap="round"/>
</svg>
