<svg width="17" height="16" viewBox="0 0 17 16" fill="none" xmlns="http://www.w3.org/2000/svg">
<g clip-path="url(#clip0_120_781)">
<path d="M15.9295 8.52657C15.7305 8.52657 15.5398 8.60558 15.3991 8.74624C15.2585 8.88689 15.1795 9.07765 15.1795 9.27657V12.2956C15.1788 12.8787 14.9469 13.4378 14.5345 13.8501C14.1222 14.2624 13.5632 14.4943 12.9801 14.495H4.38883C3.80572 14.4943 3.24669 14.2624 2.83437 13.8501C2.42205 13.4378 2.19011 12.8787 2.18945 12.2956V3.70438C2.19011 3.12127 2.42205 2.56224 2.83437 2.14992C3.24669 1.7376 3.80572 1.50567 4.38883 1.505H7.40789C7.6068 1.505 7.79757 1.42599 7.93822 1.28533C8.07887 1.14468 8.15789 0.953917 8.15789 0.755005C8.15789 0.556093 8.07887 0.365327 7.93822 0.224675C7.79757 0.0840225 7.6068 0.00500488 7.40789 0.00500488H4.38883C3.40805 0.00616273 2.46777 0.396289 1.77425 1.08981C1.08074 1.78332 0.690611 2.7236 0.689453 3.70438V12.2956C0.690611 13.2764 1.08074 14.2167 1.77425 14.9102C2.46777 15.6037 3.40805 15.9938 4.38883 15.995H12.9801C13.9609 15.9938 14.9011 15.6037 15.5947 14.9102C16.2882 14.2167 16.6783 13.2764 16.6795 12.2956V9.27657C16.6795 9.07765 16.6004 8.88689 16.4598 8.74624C16.3191 8.60558 16.1284 8.52657 15.9295 8.52657Z" fill="black"/>
<path d="M15.9135 6.33675e-08H11.251C11.0546 -3.75993e-05 10.8661 0.0769607 10.7258 0.214452C10.5856 0.351943 10.5049 0.538957 10.501 0.735313C10.4932 1.15625 10.8473 1.5 11.2679 1.5H14.122L8.14885 7.475C8.00821 7.61565 7.9292 7.80641 7.9292 8.00531C7.9292 8.20422 8.00821 8.39497 8.14885 8.53563C8.2895 8.67627 8.48026 8.75528 8.67916 8.75528C8.87807 8.75528 9.06883 8.67627 9.20948 8.53563L15.1845 2.5625V5.42688C15.1845 5.62579 15.2635 5.81655 15.4041 5.95721C15.5448 6.09786 15.7356 6.17688 15.9345 6.17688C16.1334 6.17688 16.3242 6.09786 16.4648 5.95721C16.6055 5.81655 16.6845 5.62579 16.6845 5.42688V0.770625C16.6845 0.669399 16.6645 0.569164 16.6258 0.475647C16.587 0.382131 16.5302 0.297164 16.4587 0.2256C16.3871 0.154037 16.3021 0.0972798 16.2085 0.0585707C16.115 0.0198615 16.0148 -4.09854e-05 15.9135 6.33675e-08Z" fill="black"/>
</g>
<defs>
<clipPath id="clip0_120_781">
<rect width="16" height="16" fill="white" transform="translate(0.68457)"/>
</clipPath>
</defs>
</svg>
