<svg width="271" height="271" viewBox="0 0 271 271" fill="none" xmlns="http://www.w3.org/2000/svg">
<g filter="url(#filter0_f_11607_1935)">
<path d="M135.501 220.446C182.516 220.446 220.63 182.39 220.63 135.446C220.63 88.5021 182.516 50.4463 135.501 50.4463C88.4849 50.4463 50.3711 88.5021 50.3711 135.446C50.3711 182.39 88.4849 220.446 135.501 220.446Z" fill="url(#paint0_linear_11607_1935)"/>
<path d="M220.13 135.446C220.13 182.114 182.241 219.946 135.501 219.946C88.7603 219.946 50.8711 182.114 50.8711 135.446C50.8711 88.7789 88.7603 50.9463 135.501 50.9463C182.241 50.9463 220.13 88.7789 220.13 135.446Z" stroke="#F2D27B"/>
</g>
<path d="M220.13 135.446C220.13 182.114 182.241 219.946 135.501 219.946C88.7603 219.946 50.8711 182.114 50.8711 135.446C50.8711 88.7789 88.7603 50.9463 135.501 50.9463C182.241 50.9463 220.13 88.7789 220.13 135.446Z" fill="white" fill-opacity="0.5" stroke="#F2CE6E"/>
<mask id="path-4-outside-1_11607_1935" maskUnits="userSpaceOnUse" x="101.355" y="82.7896" width="68" height="105" fill="black">
<rect fill="white" x="101.355" y="82.7896" width="68" height="105"/>
<path fill-rule="evenodd" clip-rule="evenodd" d="M102.565 142.438L142.539 84.3016C143.193 83.3497 144.685 83.8129 144.685 84.9682L144.685 126.612L167.467 126.612C168.414 126.612 168.973 127.674 168.436 128.455L128.462 186.591C127.807 187.543 126.316 187.08 126.316 185.924L126.316 144.281L103.534 144.281C102.587 144.281 102.028 143.218 102.565 142.438Z"/>
</mask>
<path fill-rule="evenodd" clip-rule="evenodd" d="M102.565 142.438L142.539 84.3016C143.193 83.3497 144.685 83.8129 144.685 84.9682L144.685 126.612L167.467 126.612C168.414 126.612 168.973 127.674 168.436 128.455L128.462 186.591C127.807 187.543 126.316 187.08 126.316 185.924L126.316 144.281L103.534 144.281C102.587 144.281 102.028 143.218 102.565 142.438Z" fill="#F2D27B"/>
<path d="M142.539 84.3016L142.951 84.5849V84.5849L142.539 84.3016ZM102.565 142.438L102.153 142.155H102.153L102.565 142.438ZM144.685 84.9682H144.185V84.9682L144.685 84.9682ZM144.685 126.612H144.185V127.112H144.685V126.612ZM167.467 126.612V127.112V126.612ZM168.436 128.455L168.024 128.171V128.171L168.436 128.455ZM128.462 186.591L128.05 186.308L128.462 186.591ZM126.316 185.924H125.816H126.316ZM126.316 144.281H126.816V143.781H126.316V144.281ZM103.534 144.281V144.781V144.281ZM142.127 84.0183L102.153 142.155L102.977 142.721L142.951 84.5849L142.127 84.0183ZM145.185 84.9682C145.185 83.3219 143.06 82.6618 142.127 84.0183L142.951 84.5849C143.327 84.0376 144.185 84.3039 144.185 84.9682H145.185ZM145.185 126.612L145.185 84.9682L144.185 84.9682L144.185 126.612H145.185ZM167.467 126.112L144.685 126.112V127.112L167.467 127.112V126.112ZM168.848 128.738C169.613 127.626 168.817 126.112 167.467 126.112V127.112C168.012 127.112 168.333 127.723 168.024 128.171L168.848 128.738ZM128.874 186.874L168.848 128.738L168.024 128.171L128.05 186.308L128.874 186.874ZM125.816 185.924C125.816 187.571 127.941 188.231 128.874 186.874L128.05 186.308C127.674 186.855 126.816 186.589 126.816 185.924H125.816ZM125.816 144.281L125.816 185.924H126.816L126.816 144.281H125.816ZM103.534 144.781L126.316 144.781V143.781L103.534 143.781L103.534 144.781ZM102.153 142.155C101.388 143.267 102.184 144.781 103.534 144.781V143.781C102.989 143.781 102.668 143.17 102.977 142.721L102.153 142.155Z" fill="black" mask="url(#path-4-outside-1_11607_1935)"/>
<defs>
<filter id="filter0_f_11607_1935" x="0.371094" y="0.446289" width="270.258" height="270" filterUnits="userSpaceOnUse" color-interpolation-filters="sRGB">
<feFlood flood-opacity="0" result="BackgroundImageFix"/>
<feBlend mode="normal" in="SourceGraphic" in2="BackgroundImageFix" result="shape"/>
<feGaussianBlur stdDeviation="25" result="effect1_foregroundBlur_11607_1935"/>
</filter>
<linearGradient id="paint0_linear_11607_1935" x1="50.3711" y1="50.4463" x2="220.63" y2="220.446" gradientUnits="userSpaceOnUse">
<stop offset="0.425" stop-color="#F5DC99"/>
<stop offset="1" stop-color="#EDC765"/>
</linearGradient>
</defs>
</svg>
