<svg width="271" height="271" viewBox="0 0 271 271" fill="none" xmlns="http://www.w3.org/2000/svg">
<g filter="url(#filter0_f_11607_1878)">
<path d="M135.501 220.446C182.516 220.446 220.63 182.39 220.63 135.446C220.63 88.5021 182.516 50.4463 135.501 50.4463C88.4849 50.4463 50.3711 88.5021 50.3711 135.446C50.3711 182.39 88.4849 220.446 135.501 220.446Z" fill="url(#paint0_linear_11607_1878)"/>
<path d="M220.13 135.446C220.13 182.114 182.241 219.946 135.501 219.946C88.7603 219.946 50.8711 182.114 50.8711 135.446C50.8711 88.7789 88.7603 50.9463 135.501 50.9463C182.241 50.9463 220.13 88.7789 220.13 135.446Z" stroke="#F2D27B"/>
</g>
<path d="M220.13 135.446C220.13 182.114 182.241 219.946 135.501 219.946C88.7603 219.946 50.8711 182.114 50.8711 135.446C50.8711 88.7789 88.7603 50.9463 135.501 50.9463C182.241 50.9463 220.13 88.7789 220.13 135.446Z" fill="white" fill-opacity="0.5" stroke="#F2D27B"/>
<path d="M156.121 185.717V190.23L161.541 182.426L156.121 185.717Z" fill="#F2D27B"/>
<path d="M156.121 172.175L161.541 181.371L156.121 184.662L150.66 181.371" fill="#F2D27B"/>
<path d="M156.121 172.175V178.84L150.66 181.371M150.66 182.426L156.121 185.716V190.23" fill="#F2D27B"/>
<path d="M156.121 178.84V184.662L161.541 181.371" fill="#F2D27B"/>
<path d="M179.234 173.864L182.095 172.212C182.176 172.165 182.277 172.165 182.359 172.212L189.899 176.565C189.981 176.612 190.031 176.699 190.032 176.793L190.042 179.787C190.042 179.882 189.992 179.97 189.909 180.017L187.052 181.667C186.877 181.769 186.657 181.642 186.656 181.439L186.647 178.752C186.647 178.658 186.596 178.571 186.514 178.524L179.234 174.321C179.057 174.219 179.057 173.966 179.234 173.864Z" fill="#F2D27B"/>
<path d="M177.383 187.428L174.523 185.777C174.441 185.73 174.391 185.643 174.391 185.548V176.841C174.391 176.747 174.441 176.66 174.522 176.612L177.111 175.106C177.193 175.058 177.294 175.058 177.375 175.106L180.233 176.756C180.408 176.857 180.409 177.11 180.233 177.213L177.911 178.564C177.83 178.611 177.78 178.698 177.78 178.793V187.2C177.78 187.404 177.56 187.531 177.383 187.429V187.428Z" fill="#F2D27B"/>
<path d="M190.039 182.242V185.545C190.039 185.64 189.989 185.727 189.907 185.774L182.366 190.128C182.285 190.175 182.184 190.175 182.103 190.128L179.504 188.639C179.422 188.592 179.371 188.504 179.371 188.41V185.111C179.371 184.908 179.59 184.781 179.767 184.881L182.098 186.217C182.18 186.264 182.28 186.263 182.361 186.217L189.642 182.013C189.818 181.911 190.038 182.038 190.038 182.242L190.039 182.242Z" fill="#F2D27B"/>
<g clip-path="url(#clip0_11607_1878)">
<path d="M94.687 190.67C99.6483 190.67 103.64 186.512 103.64 181.344C103.64 176.176 99.6483 172.019 94.687 172.019C89.7257 172.019 85.7344 176.176 85.7344 181.344C85.7344 186.512 89.7257 190.67 94.687 190.67Z" fill="#F2D27B"/>
<path d="M97.1509 182.82C97.1509 181.461 96.3675 180.994 94.8008 180.8C93.6817 180.645 93.4579 180.334 93.4579 179.79C93.4579 179.246 93.831 178.896 94.577 178.896C95.2484 178.896 95.6215 179.129 95.808 179.712C95.8453 179.829 95.9572 179.906 96.0691 179.906H96.6659C96.8152 179.906 96.9271 179.79 96.9271 179.634V179.595C96.7778 178.74 96.1064 178.08 95.2484 178.002V177.07C95.2484 176.914 95.1365 176.798 94.9501 176.759H94.3905C94.2413 176.759 94.1294 176.875 94.092 177.07V177.963C92.9729 178.119 92.2643 178.896 92.2643 179.867C92.2643 181.15 93.0103 181.655 94.577 181.849C95.6215 182.043 95.9572 182.277 95.9572 182.898C95.9572 183.52 95.4349 183.947 94.7262 183.947C93.7563 183.947 93.4206 183.52 93.3087 182.937C93.2714 182.782 93.1595 182.704 93.0476 182.704H92.4134C92.2643 182.704 92.1523 182.82 92.1523 182.976V183.015C92.3015 183.986 92.8984 184.686 94.1294 184.88V185.813C94.1294 185.968 94.2413 186.084 94.4278 186.123H94.9873C95.1365 186.123 95.2484 186.007 95.2858 185.813V184.88C96.4049 184.686 97.1509 183.87 97.1509 182.82Z" fill="white"/>
<path d="M92.7834 186.901C89.8738 185.814 88.3816 182.433 89.4635 179.441C90.023 177.809 91.254 176.566 92.7834 175.983C92.9326 175.905 93.0072 175.788 93.0072 175.594V175.05C93.0072 174.895 92.9326 174.778 92.7834 174.739C92.7461 174.739 92.6715 174.739 92.6342 174.778C89.0904 175.944 87.1506 179.868 88.2697 183.56C88.9412 185.736 90.5452 187.407 92.6342 188.106C92.7834 188.184 92.9326 188.106 92.9699 187.951C93.0072 187.912 93.0072 187.873 93.0072 187.795V187.251C93.0072 187.135 92.8953 186.979 92.7834 186.901ZM96.7375 174.778C96.5883 174.7 96.439 174.778 96.4018 174.934C96.3645 174.972 96.3645 175.011 96.3645 175.089V175.633C96.3645 175.788 96.4764 175.944 96.5883 176.022C99.4979 177.109 100.99 180.49 99.9082 183.482C99.3487 185.114 98.1177 186.357 96.5883 186.94C96.439 187.018 96.3645 187.135 96.3645 187.329V187.873C96.3645 188.028 96.439 188.145 96.5883 188.184C96.6256 188.184 96.7002 188.184 96.7375 188.145C100.281 186.979 102.221 183.055 101.102 179.363C100.431 177.148 98.7891 175.477 96.7375 174.778Z" fill="white"/>
</g>
<g clip-path="url(#clip1_11607_1878)">
<path d="M125.611 172.019C130.761 172.019 134.937 176.194 134.937 181.344C134.937 186.494 130.761 190.67 125.611 190.67C120.461 190.67 116.285 186.496 116.285 181.344C116.285 176.193 120.46 172.019 125.611 172.019Z" fill="#F2D27B"/>
<path d="M126.76 180.102V178.715H129.932V176.601H121.294V178.715H124.467V180.101C121.888 180.219 119.949 180.73 119.949 181.342C119.949 181.954 121.889 182.464 124.467 182.584V187.027H126.761V182.583C129.335 182.464 131.269 181.954 131.269 181.343C131.269 180.732 129.335 180.221 126.761 180.103M126.761 182.207V182.206C126.696 182.21 126.363 182.23 125.623 182.23C125.031 182.23 124.614 182.213 124.468 182.205V182.207C122.19 182.106 120.489 181.71 120.489 181.235C120.489 180.76 122.19 180.364 124.468 180.263V181.812C124.617 181.822 125.044 181.847 125.633 181.847C126.34 181.847 126.696 181.818 126.761 181.812V180.263C129.035 180.364 130.731 180.761 130.731 181.234C130.731 181.707 129.034 182.105 126.761 182.206" fill="white"/>
</g>
<path d="M87.9531 159.257C88.579 157.374 89.3343 155.538 90.2137 153.759" stroke="black" stroke-width="0.5" stroke-miterlimit="10" stroke-linecap="round"/>
<path d="M92.0195 150.449C92.7028 149.318 93.4733 148.145 94.3674 146.953" stroke="black" stroke-width="0.5" stroke-miterlimit="10" stroke-linecap="round"/>
<path d="M95.0664 146.035C96.9617 143.619 99.1084 141.412 101.47 139.45C107.824 134.195 115.529 130.836 123.703 129.758" stroke="black" stroke-width="0.5" stroke-miterlimit="10" stroke-linecap="round"/>
<path d="M127.806 136.507C121.946 141.708 117.735 148.51 115.691 156.075" stroke="black" stroke-width="0.5" stroke-miterlimit="10" stroke-linecap="round"/>
<path d="M115.486 156.786C115.208 157.889 114.983 158.967 114.801 160.016" stroke="black" stroke-width="0.5" stroke-miterlimit="10" stroke-linecap="round"/>
<path d="M114.414 162.754C114.271 164.046 114.194 165.274 114.172 166.42" stroke="black" stroke-width="0.5" stroke-miterlimit="10" stroke-linecap="round"/>
<path d="M114.148 168.677C114.182 170.453 114.313 171.946 114.439 173.06" stroke="black" stroke-width="0.5" stroke-miterlimit="10" stroke-linecap="round"/>
<path d="M134.692 139.872C133.254 145.423 132.574 151.144 132.669 156.878C132.7 158.763 132.814 160.581 132.996 162.325" stroke="black" stroke-width="0.5" stroke-miterlimit="10" stroke-linecap="round"/>
<path d="M134.031 168.896C134.426 170.769 134.884 172.53 135.374 174.156" stroke="black" stroke-width="0.5" stroke-miterlimit="10" stroke-linecap="round"/>
<path d="M136.613 177.874C137.236 179.57 137.866 181.069 138.455 182.363" stroke="black" stroke-width="0.5" stroke-miterlimit="10" stroke-linecap="round"/>
<path d="M147.547 119.449H147.647L147.72 119.38L177.262 91.29L195.326 109.025C195.326 109.025 195.326 109.025 195.327 109.026C197.385 111.085 198.133 114.541 196.936 118.959L196.936 118.96C195.751 123.378 192.883 127.873 189.192 131.564C185.501 135.256 181.005 138.124 176.587 139.308L176.587 139.308C172.168 140.494 168.711 139.757 166.652 137.699L162.667 133.713L162.635 133.681L162.594 133.662L142.377 124.394L140.822 118.072L141.515 118.217C142.166 118.353 143.034 118.535 143.908 118.717C144.781 118.899 145.66 119.08 146.329 119.217C146.664 119.285 146.948 119.342 147.152 119.382C147.254 119.402 147.338 119.418 147.398 119.429C147.429 119.434 147.455 119.439 147.475 119.442L147.477 119.442C147.489 119.444 147.52 119.449 147.547 119.449Z" fill="#F2D27B" stroke="black" stroke-width="0.5"/>
<path d="M166.939 89.1145C158.001 91.5108 148.81 100.701 146.414 109.642C145.324 113.708 145.833 117.02 147.548 119.198L158.771 121.342C167.55 118.743 176.439 109.736 178.79 100.965C181.186 92.0245 175.88 86.7182 166.939 89.1145Z" fill="#F2D27B" stroke="black" stroke-width="0.5" stroke-miterlimit="10"/>
<path d="M146.02 110.868L146.124 110.901L146.609 108.978L146.662 108.653C146.233 107.926 145.797 107.134 145.373 106.274C144.923 105.367 144.537 104.495 144.205 103.674C143.65 102.206 143.189 100.705 142.824 99.1792C142.647 98.4232 142.565 97.9677 142.526 97.7254C142.338 96.578 142.257 95.4156 142.284 94.2533C142.29 93.2993 142.408 92.3493 142.638 91.4232C142.962 90.1056 143.503 88.8512 144.239 87.7112L144.082 87.6216C142.386 89.4712 141.353 91.8323 141.145 94.3332C141.034 95.65 141.054 96.9746 141.203 98.2875C141.223 98.4523 141.307 99.1646 141.501 100.11C141.708 101.136 141.984 102.147 142.328 103.136C143.249 105.852 144.491 108.448 146.027 110.87L146.02 110.868Z" fill="#F2D27B"/>
<path d="M167.05 89.0854L166.939 89.1145C158.001 91.5108 148.81 100.701 146.414 109.642C145.324 113.708 145.833 117.02 147.548 119.198L158.771 121.342C167.55 118.743 176.439 109.736 178.79 100.965C180.946 92.9186 176.864 87.8158 169.505 88.6227" stroke="black" stroke-width="0.5" stroke-miterlimit="10"/>
<path d="M138.736 113.259C136.633 111.946 134.699 111.806 133.299 112.624L131.186 113.749L131.634 114.58C131.265 115.458 131.068 116.399 131.053 117.352C130.89 122.159 134.067 128.117 138.147 130.661C139.011 131.227 139.986 131.603 141.006 131.764L141.421 132.444L143.143 131.516C143.366 131.424 143.579 131.31 143.778 131.175H143.793C144.992 130.358 145.758 128.781 145.831 126.571C145.986 121.762 142.816 115.803 138.736 113.259Z" fill="#F2D27B" stroke="black" stroke-width="0.5" stroke-miterlimit="10"/>
<path d="M141.188 132.605C144.188 131.006 144.375 125.496 141.605 120.299C138.835 115.102 134.156 112.186 131.156 113.785C128.155 115.385 127.968 120.894 130.739 126.091C133.509 131.288 138.187 134.205 141.188 132.605Z" fill="#F2D27B" stroke="black" stroke-width="0.5" stroke-miterlimit="10"/>
<path d="M133.076 120.498C133.578 120.231 133.61 119.31 133.147 118.442C132.685 117.574 131.903 117.087 131.401 117.355C130.899 117.622 130.867 118.543 131.33 119.411C131.793 120.279 132.574 120.766 133.076 120.498Z" fill="black"/>
<path d="M134.092 126.553C134.594 126.285 134.626 125.365 134.163 124.497C133.7 123.629 132.918 123.142 132.417 123.41C131.915 123.677 131.883 124.598 132.346 125.466C132.808 126.334 133.59 126.82 134.092 126.553Z" fill="black"/>
<path d="M139.037 130.287C139.539 130.019 139.571 129.099 139.108 128.231C138.646 127.363 137.864 126.876 137.362 127.144C136.86 127.411 136.828 128.332 137.291 129.199C137.754 130.067 138.535 130.554 139.037 130.287Z" fill="black"/>
<path d="M140.873 125.487C141.375 125.22 141.407 124.299 140.944 123.431C140.482 122.563 139.7 122.077 139.198 122.344C138.696 122.612 138.664 123.532 139.127 124.4C139.589 125.268 140.371 125.755 140.873 125.487Z" fill="black"/>
<path d="M137.748 120.449C138.25 120.181 138.282 119.261 137.819 118.393C137.357 117.525 136.575 117.038 136.073 117.306C135.571 117.573 135.539 118.494 136.002 119.362C136.464 120.23 137.246 120.716 137.748 120.449Z" fill="black"/>
<path d="M145.282 86.6071C145.261 86.5829 145.299 86.486 145.597 86.1444C146.141 85.632 146.739 85.1811 147.381 84.7996C148.134 84.3619 148.936 84.0138 149.77 83.7626C151.451 83.2626 153.21 83.0721 154.96 83.2004C157.982 83.4597 160.939 84.223 163.709 85.4587C164.889 85.982 166.132 86.5926 167.402 87.3122C170.353 88.9847 173.093 91.0053 175.562 93.3309C176.488 94.1838 177.433 95.1166 178.378 96.1391C178.712 96.5026 179.037 96.866 179.347 97.2198C179.347 97.2198 179.135 96.3219 179.135 97.171C179.135 98.02 178.923 99.0813 178.923 99.0813L179.148 99.6718L178.421 98.8092C178.179 98.5451 177.959 98.281 177.728 98.0145C175.761 95.8 173.593 93.7722 171.252 91.9571C170.326 91.2302 169.413 90.5881 168.524 89.9945C164.893 87.4468 160.777 85.6758 156.43 84.7923C153.79 84.1868 151.038 84.2627 148.435 85.0128C148.054 85.1188 147.682 85.2541 147.323 85.4175C146.121 85.9748 145.353 86.6895 145.282 86.6071Z" fill="#F2D27B"/>
<path d="M146.686 108.702C145.115 106.088 143.903 103.274 143.083 100.335C139.776 87.9953 147.098 80.673 159.438 83.9804C166.594 85.897 173.867 90.9707 179.36 97.3067L179.396 97.3237" stroke="black" stroke-width="0.5" stroke-miterlimit="10"/>
<path d="M146.119 111.036C144.229 108.112 142.789 104.921 141.845 101.57C138.538 89.2319 145.86 81.9072 158.2 85.2146C165.787 87.2475 173.501 92.8227 179.089 99.6846" stroke="black" stroke-width="0.5" stroke-miterlimit="10"/>
<defs>
<filter id="filter0_f_11607_1878" x="0.371094" y="0.446289" width="270.258" height="270" filterUnits="userSpaceOnUse" color-interpolation-filters="sRGB">
<feFlood flood-opacity="0" result="BackgroundImageFix"/>
<feBlend mode="normal" in="SourceGraphic" in2="BackgroundImageFix" result="shape"/>
<feGaussianBlur stdDeviation="25" result="effect1_foregroundBlur_11607_1878"/>
</filter>
<linearGradient id="paint0_linear_11607_1878" x1="50.3711" y1="50.4463" x2="220.63" y2="220.446" gradientUnits="userSpaceOnUse">
<stop offset="0.425" stop-color="#F5DC99"/>
<stop offset="1" stop-color="#EDC765"/>
</linearGradient>
<clipPath id="clip0_11607_1878">
<rect width="17.9053" height="18.6514" fill="white" transform="translate(85.7344 172.019)"/>
</clipPath>
<clipPath id="clip1_11607_1878">
<rect width="18.6514" height="18.6514" fill="white" transform="translate(116.285 172.019)"/>
</clipPath>
</defs>
</svg>
