<svg width="49" height="48" viewBox="0 0 49 48" fill="none" xmlns="http://www.w3.org/2000/svg">
<rect width="49" height="48" fill="black"/>
<rect width="1280" height="720" transform="translate(-491.5 -390)" fill="#F2F2F2"/>
<rect x="-80.5" y="-301" width="458" height="373" rx="8" fill="white"/>
<path d="M-48.5 -24C-48.5 -26.2091 -46.7091 -28 -44.5 -28H340.5C342.709 -28 344.5 -26.2091 344.5 -24V32C344.5 34.2091 342.709 36 340.5 36H-44.5C-46.7091 36 -48.5 34.2091 -48.5 32V-24Z" fill="#F2F2F2"/>
<path d="M-36 -16C-36 -18.2091 -34.2091 -20 -32 -20H8C10.2091 -20 12 -18.2091 12 -16V24C12 26.2091 10.2091 28 8 28H-32C-34.2091 28 -36 26.2091 -36 24V-16Z" fill="black"/>
<path d="M25.528 20.126C23.722 20.126 22.504 18.768 22.504 16.29C22.504 13.812 23.722 12.468 25.528 12.468C26.774 12.468 27.698 13.098 28.048 14.05H28.132L28.188 12.594H29.574V20H28.132V18.53H28.048C27.698 19.482 26.774 20.126 25.528 20.126ZM26.032 18.936C27.404 18.936 28.118 17.858 28.118 16.71V15.87C28.118 14.736 27.404 13.644 26.032 13.644C24.8 13.644 23.988 14.54 23.988 16.29C23.988 18.026 24.8 18.936 26.032 18.936ZM31.5939 22.338V12.594H32.9799L33.0359 14.05H33.1199C33.4839 13.112 34.4079 12.468 35.6399 12.468C37.4459 12.468 38.6639 13.826 38.6639 16.304C38.6639 18.782 37.4459 20.126 35.6399 20.126C34.4079 20.126 33.4839 19.496 33.1199 18.544H33.0359V22.338H31.5939ZM35.1359 18.936C36.3679 18.936 37.1939 18.04 37.1939 16.304C37.1939 14.554 36.3679 13.658 35.1359 13.658C33.7639 13.658 33.0499 14.736 33.0499 15.884V16.71C33.0499 17.858 33.7639 18.936 35.1359 18.936ZM40.1935 22.338V12.594H41.5795L41.6355 14.05H41.7195C42.0835 13.112 43.0075 12.468 44.2395 12.468C46.0455 12.468 47.2635 13.826 47.2635 16.304C47.2635 18.782 46.0455 20.126 44.2395 20.126C43.0075 20.126 42.0835 19.496 41.7195 18.544H41.6355V22.338H40.1935ZM43.7355 18.936C44.9675 18.936 45.7935 18.04 45.7935 16.304C45.7935 14.554 44.9675 13.658 43.7355 13.658C42.3635 13.658 41.6495 14.736 41.6495 15.884V16.71C41.6495 17.858 42.3635 18.936 43.7355 18.936ZM48.5552 20V18.53H49.9972V20H48.5552ZM53.3836 20L50.7236 12.594H52.2776L53.7616 17.158L54.2376 18.754H54.2936L54.7416 17.158L56.2256 12.594H57.7796L55.1476 20H53.3836ZM61.7179 20.126C59.5479 20.126 58.0919 18.642 58.0919 16.318C58.0919 14.036 59.4779 12.482 61.7179 12.482C63.8739 12.482 65.3299 13.952 65.3299 16.304C65.3299 18.572 63.9439 20.126 61.7179 20.126ZM61.7179 18.922C63.0059 18.922 63.8599 17.984 63.8599 16.304C63.8599 14.638 63.0479 13.672 61.7179 13.672C60.4299 13.672 59.5619 14.61 59.5619 16.318C59.5619 17.97 60.4019 18.922 61.7179 18.922ZM66.84 20V9.794H68.282V20H66.84ZM72.3993 20C71.1813 20 70.8033 19.454 70.8033 18.46V13.77H69.4033V12.594H70.8033V10.452L72.2453 10.284V12.594H73.8833V13.77H72.2453V18.194C72.2453 18.684 72.4133 18.81 72.8753 18.81H73.8833V20H72.3993ZM77.6315 20.126C75.8255 20.126 74.6075 18.768 74.6075 16.29C74.6075 13.812 75.8255 12.468 77.6315 12.468C78.8775 12.468 79.8015 13.098 80.1515 14.05H80.2355L80.2915 12.594H81.6775V20H80.2355V18.53H80.1515C79.8015 19.482 78.8775 20.126 77.6315 20.126ZM78.1355 18.936C79.5075 18.936 80.2215 17.858 80.2215 16.71V15.87C80.2215 14.736 79.5075 13.644 78.1355 13.644C76.9035 13.644 76.0915 14.54 76.0915 16.29C76.0915 18.026 76.9035 18.936 78.1355 18.936ZM86.5688 22.478C84.7908 22.478 83.6568 21.666 83.5028 20.35H84.9028C85.0148 21.008 85.6588 21.414 86.5968 21.414C87.9268 21.414 88.6408 20.882 88.6408 19.51V18.068H88.5428C88.2068 18.964 87.2968 19.566 86.1208 19.566C84.3148 19.566 83.1388 18.278 83.1388 16.024C83.1388 13.756 84.3428 12.468 86.1348 12.468C87.3108 12.468 88.2068 13.07 88.5428 13.966H88.6408L88.6688 12.594H90.0688V19.314C90.0688 21.638 88.6548 22.478 86.5688 22.478ZM86.6108 18.446C87.8988 18.446 88.6128 17.438 88.6408 16.458L88.6268 15.562C88.6128 14.596 87.9268 13.602 86.6248 13.602C85.3928 13.602 84.6228 14.484 84.6228 16.024C84.6228 17.592 85.4068 18.446 86.6108 18.446ZM95.0353 20.126C92.8093 20.126 91.4513 18.614 91.4513 16.332C91.4513 13.994 92.8093 12.482 94.9793 12.482C97.4153 12.482 98.5913 14.26 98.3673 16.584H92.8793C92.9073 18.11 93.7473 18.978 95.0353 18.978C96.0293 18.978 96.7713 18.488 96.9533 17.718H98.3253C98.1293 19.174 96.7853 20.126 95.0353 20.126ZM94.9653 13.616C93.8033 13.616 93.0193 14.358 92.9073 15.562H96.9533C96.9113 14.19 96.0573 13.616 94.9653 13.616ZM99.688 20V18.53H101.13V20H99.688ZM102.742 20V13.77H101.398V12.594H102.742V11.502C102.742 10.382 103.47 9.794 104.646 9.794H105.976V10.844H105.024C104.366 10.844 104.184 11.166 104.184 11.642V12.594H105.822V13.77H104.184V20H102.742ZM107.076 11.46V9.794H108.518V11.46H107.076ZM107.076 20V12.594H108.518V20H107.076ZM110.522 20V12.594H111.894L111.95 14.064H112.034C112.468 13.014 113.448 12.482 114.54 12.482C116.052 12.482 117.186 13.336 117.186 15.604V20H115.744V15.898C115.744 14.386 115.198 13.672 114.022 13.672C112.748 13.672 111.95 14.68 111.95 15.954V20H110.522ZM121.655 20.126C119.849 20.126 118.631 18.768 118.631 16.29C118.631 13.812 119.849 12.468 121.655 12.468C122.901 12.468 123.825 13.098 124.175 14.05H124.259L124.315 12.594H125.701V20H124.259V18.53H124.175C123.825 19.482 122.901 20.126 121.655 20.126ZM122.159 18.936C123.531 18.936 124.245 17.858 124.245 16.71V15.87C124.245 14.736 123.531 13.644 122.159 13.644C120.927 13.644 120.115 14.54 120.115 16.29C120.115 18.026 120.927 18.936 122.159 18.936ZM127.721 20V12.594H129.093L129.149 14.064H129.233C129.667 13.014 130.647 12.482 131.739 12.482C133.251 12.482 134.385 13.336 134.385 15.604V20H132.943V15.898C132.943 14.386 132.397 13.672 131.221 13.672C129.947 13.672 129.149 14.68 129.149 15.954V20H127.721ZM139.428 20.126C137.258 20.126 135.83 18.6 135.83 16.304C135.83 14.008 137.258 12.482 139.484 12.482C141.276 12.482 142.592 13.56 142.704 15.156H141.304C141.136 14.19 140.394 13.686 139.442 13.686C138.07 13.686 137.3 14.736 137.3 16.318C137.3 17.984 138.14 18.922 139.428 18.922C140.506 18.922 141.22 18.292 141.332 17.354H142.732C142.62 19.034 141.276 20.126 139.428 20.126ZM147.276 20.126C145.05 20.126 143.692 18.614 143.692 16.332C143.692 13.994 145.05 12.482 147.22 12.482C149.656 12.482 150.832 14.26 150.608 16.584H145.12C145.148 18.11 145.988 18.978 147.276 18.978C148.27 18.978 149.012 18.488 149.194 17.718H150.566C150.37 19.174 149.026 20.126 147.276 20.126ZM147.206 13.616C146.044 13.616 145.26 14.358 145.148 15.562H149.194C149.152 14.19 148.298 13.616 147.206 13.616ZM151.578 21.134L155.918 9.794H157.304L152.978 21.134H151.578ZM160.093 20V17.284H158.511V16.136H160.093V13.462H158.511V12.328H160.093V9.794H161.381V12.328H164.055V9.794H165.329V12.328H166.869V13.462H165.329V16.136H166.869V17.284H165.329V20H164.055V17.284H161.381V20H160.093ZM161.381 16.136H164.055V13.462H161.381V16.136ZM167.779 21.134L172.119 9.794H173.505L169.179 21.134H167.779ZM179.277 20.126C178.031 20.126 177.107 19.496 176.757 18.544H176.673L176.617 20H175.231V9.794H176.673V14.05H176.757C177.107 13.112 178.031 12.468 179.277 12.468C181.083 12.468 182.301 13.826 182.301 16.304C182.301 18.782 181.083 20.126 179.277 20.126ZM178.773 18.936C180.005 18.936 180.817 18.04 180.817 16.304C180.817 14.554 180.005 13.658 178.773 13.658C177.401 13.658 176.687 14.736 176.687 15.884V16.71C176.687 17.858 177.401 18.936 178.773 18.936ZM183.817 20V12.594H185.105L185.175 13.91H185.245C185.567 12.958 186.407 12.496 187.387 12.496C187.555 12.496 187.695 12.51 187.821 12.524V13.882C187.709 13.868 187.541 13.868 187.373 13.868C186.057 13.868 185.315 14.554 185.245 15.772V20H183.817ZM189.08 11.46V9.794H190.522V11.46H189.08ZM189.08 20V12.594H190.522V20H189.08ZM195.046 20.126C193.24 20.126 192.022 18.768 192.022 16.29C192.022 13.812 193.24 12.468 195.046 12.468C196.292 12.468 197.216 13.098 197.566 14.05H197.65V9.794H199.092V20H197.706L197.65 18.53H197.566C197.216 19.482 196.292 20.126 195.046 20.126ZM195.55 18.936C196.922 18.936 197.636 17.858 197.636 16.71V15.87C197.636 14.736 196.922 13.644 195.55 13.644C194.318 13.644 193.506 14.54 193.506 16.29C193.506 18.026 194.318 18.936 195.55 18.936ZM204.038 22.478C202.26 22.478 201.126 21.666 200.972 20.35H202.372C202.484 21.008 203.128 21.414 204.066 21.414C205.396 21.414 206.11 20.882 206.11 19.51V18.068H206.012C205.676 18.964 204.766 19.566 203.59 19.566C201.784 19.566 200.608 18.278 200.608 16.024C200.608 13.756 201.812 12.468 203.604 12.468C204.78 12.468 205.676 13.07 206.012 13.966H206.11L206.138 12.594H207.538V19.314C207.538 21.638 206.124 22.478 204.038 22.478ZM204.08 18.446C205.368 18.446 206.082 17.438 206.11 16.458L206.096 15.562C206.082 14.596 205.396 13.602 204.094 13.602C202.862 13.602 202.092 14.484 202.092 16.024C202.092 17.592 202.876 18.446 204.08 18.446ZM212.504 20.126C210.278 20.126 208.92 18.614 208.92 16.332C208.92 13.994 210.278 12.482 212.448 12.482C214.884 12.482 216.06 14.26 215.836 16.584H210.348C210.376 18.11 211.216 18.978 212.504 18.978C213.498 18.978 214.24 18.488 214.422 17.718H215.794C215.598 19.174 214.254 20.126 212.504 20.126ZM212.434 13.616C211.272 13.616 210.488 14.358 210.376 15.562H214.422C214.38 14.19 213.526 13.616 212.434 13.616Z" fill="#898888"/>
<rect width="1280" height="720" transform="translate(-454 -390)" fill="#F2F2F2"/>
<rect x="-43" y="-301" width="458" height="389" rx="8" fill="white"/>
<path d="M-12 -4C-12 -6.20914 -10.2091 -8 -8 -8H377C379.209 -8 381 -6.20914 381 -4V52C381 54.2091 379.209 56 377 56H-8.00001C-10.2091 56 -12 54.2091 -12 52V-4Z" fill="#F2F2F2"/>
<path d="M0.5 4C0.5 1.79086 2.29086 0 4.5 0H44.5C46.7091 0 48.5 1.79086 48.5 4V44C48.5 46.2091 46.7091 48 44.5 48H4.5C2.29086 48 0.5 46.2091 0.5 44V4Z" fill="black"/>
<path fill-rule="evenodd" clip-rule="evenodd" d="M15.3208 25.8294L26.3196 9.83353C26.5536 9.4932 27.0867 9.6588 27.0867 10.0718L27.0867 21.5118L33.3333 21.5118C33.672 21.5118 33.8717 21.8916 33.6799 22.1707L22.6811 38.1665C22.4471 38.5069 21.914 38.3413 21.914 37.9282L21.914 26.4883L15.6674 26.4883C15.3287 26.4883 15.129 26.1084 15.3208 25.8294Z" fill="#5ED73E"/>
</svg>
