<svg width="271" height="270" viewBox="0 0 271 270" fill="none" xmlns="http://www.w3.org/2000/svg">
<g filter="url(#filter0_f_9226_2625)">
<path d="M135.5 220C182.515 220 220.629 181.944 220.629 135C220.629 88.0558 182.515 50 135.5 50C88.4839 50 50.3701 88.0558 50.3701 135C50.3701 181.944 88.4839 220 135.5 220Z" fill="url(#paint0_linear_9226_2625)"/>
<path d="M220.129 135C220.129 181.667 182.24 219.5 135.5 219.5C88.7593 219.5 50.8701 181.667 50.8701 135C50.8701 88.3326 88.7593 50.5 135.5 50.5C182.24 50.5 220.129 88.3326 220.129 135Z" stroke="#F65D51"/>
</g>
<path d="M220.129 135C220.129 181.667 182.24 219.5 135.5 219.5C88.7593 219.5 50.8701 181.667 50.8701 135C50.8701 88.3326 88.7593 50.5 135.5 50.5C182.24 50.5 220.129 88.3326 220.129 135Z" fill="white" fill-opacity="0.5" stroke="#F65D51"/>
<path d="M96.9697 107.538C96.2104 109.028 95.8486 110.716 95.6706 112.894C95.4941 115.058 95.4941 117.769 95.4941 121.322V148.678C95.4941 152.231 95.4941 154.942 95.6721 157.106C95.8501 159.284 96.2104 160.972 96.9697 162.463C98.2665 165.009 100.336 167.079 102.883 168.375C104.373 169.135 106.061 169.496 108.239 169.674C110.403 169.851 113.114 169.851 116.667 169.851H161.077C164.631 169.851 167.342 169.851 169.505 169.674C171.684 169.496 173.372 169.135 174.862 168.375C177.408 167.079 179.478 165.009 180.775 162.463C181.534 160.972 181.896 159.284 182.074 157.106C182.25 154.942 182.25 152.231 182.25 148.678V148.644C182.25 147.763 181.537 147.05 180.656 147.05H160.19C156.995 147.05 153.93 145.78 151.67 143.52C149.411 141.261 148.141 138.196 148.141 135C148.141 131.804 149.411 128.74 151.67 126.48C153.93 124.22 156.995 122.951 160.19 122.951H180.656C181.537 122.951 182.25 122.237 182.25 121.356V121.322C182.25 117.769 182.25 115.058 182.074 112.894C181.896 110.716 181.534 109.028 180.775 107.538C179.478 104.992 177.408 102.922 174.862 101.625C173.372 100.866 171.684 100.504 169.505 100.326C167.342 100.149 164.631 100.149 161.077 100.149H116.667C113.114 100.149 110.403 100.149 108.239 100.327C106.061 100.505 104.373 100.866 102.883 101.625C100.337 102.922 98.2671 104.992 96.9697 107.538Z" fill="#F65D51" stroke="black" stroke-width="0.5"/>
<path d="M160.191 140.005C161.518 140.005 162.791 139.478 163.73 138.539C164.669 137.6 165.196 136.327 165.196 135C165.196 133.672 164.669 132.399 163.73 131.461C162.791 130.522 161.518 129.995 160.191 129.995C158.863 129.995 157.59 130.522 156.652 131.461C155.713 132.399 155.186 133.672 155.186 135C155.186 136.327 155.713 137.6 156.652 138.539C157.59 139.478 158.863 140.005 160.191 140.005Z" fill="#F65D51" stroke="black" stroke-width="0.5"/>
<defs>
<filter id="filter0_f_9226_2625" x="0.370117" y="0" width="270.259" height="270" filterUnits="userSpaceOnUse" color-interpolation-filters="sRGB">
<feFlood flood-opacity="0" result="BackgroundImageFix"/>
<feBlend mode="normal" in="SourceGraphic" in2="BackgroundImageFix" result="shape"/>
<feGaussianBlur stdDeviation="25" result="effect1_foregroundBlur_9226_2625"/>
</filter>
<linearGradient id="paint0_linear_9226_2625" x1="50.3701" y1="50" x2="220.629" y2="220" gradientUnits="userSpaceOnUse">
<stop offset="0.425" stop-color="#FFC17B"/>
<stop offset="1" stop-color="#F65D51"/>
</linearGradient>
</defs>
</svg>
