<svg width="271" height="270" viewBox="0 0 271 270" fill="none" xmlns="http://www.w3.org/2000/svg">
<g filter="url(#filter0_f_9226_2625)">
<path d="M135.5 220C182.515 220 220.629 181.944 220.629 135C220.629 88.0558 182.515 50 135.5 50C88.4839 50 50.3701 88.0558 50.3701 135C50.3701 181.944 88.4839 220 135.5 220Z" fill="url(#paint0_linear_9226_2625)"/>
<path d="M220.129 135C220.129 181.667 182.24 219.5 135.5 219.5C88.7593 219.5 50.8701 181.667 50.8701 135C50.8701 88.3326 88.7593 50.5 135.5 50.5C182.24 50.5 220.129 88.3326 220.129 135Z" stroke="#F65D51"/>
</g>
<path d="M220.129 135C220.129 181.667 182.24 219.5 135.5 219.5C88.7593 219.5 50.8701 181.667 50.8701 135C50.8701 88.3326 88.7593 50.5 135.5 50.5C182.24 50.5 220.129 88.3326 220.129 135Z" fill="white" fill-opacity="0.5" stroke="#F65D51"/>
<mask id="path-4-outside-1_9226_2625" maskUnits="userSpaceOnUse" x="101.355" y="82.3433" width="68" height="105" fill="black">
<rect fill="white" x="101.355" y="82.3433" width="68" height="105"/>
<path fill-rule="evenodd" clip-rule="evenodd" d="M102.565 141.992L142.539 83.8553C143.193 82.9034 144.685 83.3666 144.685 84.5219L144.685 126.165L167.468 126.165C168.415 126.165 168.974 127.228 168.437 128.008L128.463 186.145C127.808 187.097 126.317 186.633 126.317 185.478L126.317 143.834L103.534 143.834C102.587 143.834 102.028 142.772 102.565 141.992Z"/>
</mask>
<path fill-rule="evenodd" clip-rule="evenodd" d="M102.565 141.992L142.539 83.8553C143.193 82.9034 144.685 83.3666 144.685 84.5219L144.685 126.165L167.468 126.165C168.415 126.165 168.974 127.228 168.437 128.008L128.463 186.145C127.808 187.097 126.317 186.633 126.317 185.478L126.317 143.834L103.534 143.834C102.587 143.834 102.028 142.772 102.565 141.992Z" fill="#F65D51"/>
<path d="M142.539 83.8553L142.951 84.1386V84.1386L142.539 83.8553ZM102.565 141.992L102.153 141.708H102.153L102.565 141.992ZM144.685 84.5219H144.185V84.5219L144.685 84.5219ZM144.685 126.165H144.185V126.665H144.685V126.165ZM167.468 126.165V126.665V126.165ZM168.437 128.008L168.025 127.725V127.725L168.437 128.008ZM128.463 186.145L128.051 185.861L128.463 186.145ZM126.317 185.478H125.817H126.317ZM126.317 143.834H126.817V143.334H126.317V143.834ZM103.534 143.834V144.334V143.834ZM142.127 83.572L102.153 141.708L102.977 142.275L142.951 84.1386L142.127 83.572ZM145.185 84.5219C145.185 82.8756 143.06 82.2155 142.127 83.572L142.951 84.1386C143.327 83.5913 144.185 83.8576 144.185 84.5219H145.185ZM145.185 126.165L145.185 84.5219L144.185 84.5219L144.185 126.165H145.185ZM167.468 125.665L144.685 125.665V126.665L167.468 126.665V125.665ZM168.849 128.292C169.614 127.179 168.818 125.665 167.468 125.665V126.665C168.013 126.665 168.334 127.276 168.025 127.725L168.849 128.292ZM128.875 186.428L168.849 128.292L168.025 127.725L128.051 185.861L128.875 186.428ZM125.817 185.478C125.817 187.124 127.942 187.784 128.875 186.428L128.051 185.861C127.675 186.409 126.817 186.142 126.817 185.478H125.817ZM125.817 143.834L125.817 185.478H126.817L126.817 143.834H125.817ZM103.534 144.334L126.317 144.334V143.334L103.534 143.334L103.534 144.334ZM102.153 141.708C101.388 142.821 102.184 144.334 103.534 144.334V143.334C102.989 143.334 102.668 142.724 102.977 142.275L102.153 141.708Z" fill="black" mask="url(#path-4-outside-1_9226_2625)"/>
<defs>
<filter id="filter0_f_9226_2625" x="0.370117" y="0" width="270.259" height="270" filterUnits="userSpaceOnUse" color-interpolation-filters="sRGB">
<feFlood flood-opacity="0" result="BackgroundImageFix"/>
<feBlend mode="normal" in="SourceGraphic" in2="BackgroundImageFix" result="shape"/>
<feGaussianBlur stdDeviation="25" result="effect1_foregroundBlur_9226_2625"/>
</filter>
<linearGradient id="paint0_linear_9226_2625" x1="50.3701" y1="50" x2="220.629" y2="220" gradientUnits="userSpaceOnUse">
<stop offset="0.425" stop-color="#FFC17B"/>
<stop offset="1" stop-color="#F65D51"/>
</linearGradient>
</defs>
</svg>
