<svg width="271" height="270" viewBox="0 0 271 270" fill="none" xmlns="http://www.w3.org/2000/svg">
<g filter="url(#filter0_f_9999_1279)">
<path d="M135.501 220C182.516 220 220.63 181.944 220.63 135C220.63 88.0558 182.516 50 135.501 50C88.4849 50 50.3711 88.0558 50.3711 135C50.3711 181.944 88.4849 220 135.501 220Z" fill="url(#paint0_linear_9999_1279)"/>
<path d="M220.13 135C220.13 181.667 182.241 219.5 135.501 219.5C88.7603 219.5 50.8711 181.667 50.8711 135C50.8711 88.3326 88.7603 50.5 135.501 50.5C182.241 50.5 220.13 88.3326 220.13 135Z" stroke="#66E070"/>
</g>
<path d="M220.13 135C220.13 181.667 182.241 219.5 135.501 219.5C88.7603 219.5 50.8711 181.667 50.8711 135C50.8711 88.3326 88.7603 50.5 135.501 50.5C182.241 50.5 220.13 88.3326 220.13 135Z" fill="white" fill-opacity="0.5" stroke="#66E070"/>
<path d="M156.119 185.27V189.783L161.539 181.979L156.119 185.27Z" fill="#66E070"/>
<path d="M156.119 171.729L161.539 180.925L156.119 184.215L150.658 180.925" fill="#66E070"/>
<path d="M156.119 171.729V178.394L150.658 180.925M150.658 181.98L156.119 185.27V189.783" fill="#66E070"/>
<path d="M156.119 178.394V184.215L161.539 180.925" fill="#66E070"/>
<path d="M179.23 173.417L182.091 171.765C182.172 171.718 182.273 171.718 182.355 171.765L189.895 176.119C189.977 176.166 190.027 176.253 190.028 176.347L190.038 179.341C190.038 179.436 189.988 179.523 189.906 179.57L187.048 181.22C186.873 181.322 186.653 181.195 186.652 180.992L186.643 178.305C186.643 178.211 186.592 178.124 186.51 178.077L179.23 173.875C179.054 173.773 179.054 173.519 179.23 173.417Z" fill="#66E070"/>
<path d="M177.381 186.982L174.521 185.33C174.439 185.283 174.389 185.196 174.389 185.102V176.395C174.389 176.301 174.439 176.214 174.52 176.166L177.109 174.659C177.191 174.612 177.292 174.612 177.374 174.659L180.231 176.309C180.406 176.411 180.407 176.664 180.231 176.767L177.909 178.118C177.828 178.165 177.778 178.252 177.778 178.347V186.754C177.778 186.958 177.558 187.084 177.381 186.983V186.982Z" fill="#66E070"/>
<path d="M190.037 181.796V185.099C190.037 185.194 189.987 185.281 189.905 185.328L182.364 189.681C182.283 189.728 182.182 189.728 182.101 189.681L179.502 188.193C179.42 188.146 179.369 188.058 179.369 187.963V184.664C179.369 184.461 179.588 184.335 179.765 184.435L182.096 185.771C182.178 185.818 182.278 185.817 182.359 185.771L189.64 181.567C189.816 181.465 190.036 181.592 190.036 181.795L190.037 181.796Z" fill="#66E070"/>
<g clip-path="url(#clip0_9999_1279)">
<path d="M94.687 190.224C99.6483 190.224 103.64 186.066 103.64 180.898C103.64 175.73 99.6483 171.572 94.687 171.572C89.7257 171.572 85.7344 175.73 85.7344 180.898C85.7344 186.066 89.7257 190.224 94.687 190.224Z" fill="#66E070"/>
<path d="M97.1489 182.374C97.1489 181.014 96.3656 180.548 94.7989 180.354C93.6798 180.198 93.456 179.887 93.456 179.343C93.456 178.799 93.829 178.45 94.575 178.45C95.2465 178.45 95.6196 178.683 95.806 179.266C95.8434 179.382 95.9553 179.46 96.0672 179.46H96.664C96.8132 179.46 96.9251 179.343 96.9251 179.188V179.149C96.7759 178.294 96.1044 177.634 95.2465 177.556V176.623C95.2465 176.468 95.1346 176.351 94.9481 176.312H94.3886C94.2393 176.312 94.1274 176.429 94.0901 176.623V177.517C92.971 177.673 92.2623 178.45 92.2623 179.421C92.2623 180.703 93.0083 181.208 94.575 181.403C95.6196 181.597 95.9553 181.83 95.9553 182.452C95.9553 183.074 95.433 183.501 94.7243 183.501C93.7544 183.501 93.4186 183.074 93.3067 182.491C93.2695 182.335 93.1576 182.258 93.0457 182.258H92.4115C92.2623 182.258 92.1504 182.374 92.1504 182.53V182.569C92.2995 183.54 92.8964 184.239 94.1274 184.434V185.366C94.1274 185.522 94.2393 185.638 94.4258 185.677H94.9853C95.1346 185.677 95.2465 185.561 95.2838 185.366V184.434C96.4029 184.239 97.1489 183.423 97.1489 182.374Z" fill="#DFFBE1"/>
<path d="M92.7854 186.455C89.8757 185.367 88.3836 181.987 89.4654 178.995C90.025 177.363 91.256 176.119 92.7854 175.536C92.9346 175.459 93.0092 175.342 93.0092 175.148V174.604C93.0092 174.448 92.9346 174.332 92.7854 174.293C92.748 174.293 92.6734 174.293 92.6361 174.332C89.0924 175.497 87.1526 179.422 88.2717 183.113C88.9431 185.289 90.5472 186.96 92.6361 187.66C92.7854 187.737 92.9346 187.66 92.9718 187.504C93.0092 187.466 93.0092 187.427 93.0092 187.349V186.805C93.0092 186.688 92.8973 186.533 92.7854 186.455ZM96.7395 174.332C96.5902 174.254 96.441 174.332 96.4038 174.487C96.3664 174.526 96.3664 174.565 96.3664 174.643V175.187C96.3664 175.342 96.4783 175.497 96.5902 175.575C99.4999 176.663 100.992 180.044 99.9102 183.036C99.3506 184.668 98.1196 185.911 96.5902 186.494C96.441 186.572 96.3664 186.688 96.3664 186.883V187.427C96.3664 187.582 96.441 187.699 96.5902 187.737C96.6276 187.737 96.7021 187.737 96.7395 187.699C100.283 186.533 102.223 182.608 101.104 178.917C100.432 176.702 98.7911 175.031 96.7395 174.332Z" fill="#DFFBE1"/>
</g>
<g clip-path="url(#clip1_9999_1279)">
<path d="M125.609 171.572C130.759 171.572 134.935 175.748 134.935 180.898C134.935 186.048 130.759 190.224 125.609 190.224C120.459 190.224 116.283 186.049 116.283 180.898C116.283 175.747 120.458 171.572 125.609 171.572Z" fill="#66E070"/>
<path d="M126.76 179.656V178.269H129.932V176.155H121.294V178.269H124.467V179.655C121.888 179.773 119.949 180.284 119.949 180.896C119.949 181.507 121.889 182.018 124.467 182.137V186.581H126.761V182.137C129.335 182.018 131.269 181.508 131.269 180.897C131.269 180.285 129.335 179.775 126.761 179.656M126.761 181.76V181.759C126.696 181.763 126.363 181.783 125.623 181.783C125.031 181.783 124.614 181.767 124.468 181.759V181.761C122.19 181.66 120.489 181.263 120.489 180.789C120.489 180.314 122.19 179.918 124.468 179.817V181.366C124.617 181.376 125.044 181.401 125.633 181.401C126.34 181.401 126.696 181.372 126.761 181.366V179.817C129.035 179.918 130.731 180.315 130.731 180.788C130.731 181.261 129.034 181.658 126.761 181.76" fill="#DFFBE1"/>
</g>
<path d="M87.9551 158.811C88.581 156.928 89.3363 155.091 90.2157 153.313" stroke="black" stroke-width="0.5" stroke-miterlimit="10" stroke-linecap="round"/>
<path d="M92.0215 150.003C92.7048 148.872 93.4753 147.699 94.3693 146.507" stroke="black" stroke-width="0.5" stroke-miterlimit="10" stroke-linecap="round"/>
<path d="M95.0684 145.589C96.9636 143.173 99.1103 140.966 101.472 139.003C107.826 133.748 115.531 130.389 123.705 129.312" stroke="black" stroke-width="0.5" stroke-miterlimit="10" stroke-linecap="round"/>
<path d="M127.808 136.061C121.948 141.262 117.737 148.064 115.693 155.628" stroke="black" stroke-width="0.5" stroke-miterlimit="10" stroke-linecap="round"/>
<path d="M115.488 156.34C115.21 157.442 114.984 158.521 114.803 159.57" stroke="black" stroke-width="0.5" stroke-miterlimit="10" stroke-linecap="round"/>
<path d="M114.416 162.308C114.273 163.6 114.196 164.828 114.174 165.974" stroke="black" stroke-width="0.5" stroke-miterlimit="10" stroke-linecap="round"/>
<path d="M114.152 168.231C114.186 170.007 114.317 171.5 114.443 172.614" stroke="black" stroke-width="0.5" stroke-miterlimit="10" stroke-linecap="round"/>
<path d="M134.694 139.425C133.256 144.977 132.576 150.698 132.671 156.432C132.702 158.317 132.816 160.134 132.998 161.879" stroke="black" stroke-width="0.5" stroke-miterlimit="10" stroke-linecap="round"/>
<path d="M134.031 168.45C134.426 170.323 134.884 172.084 135.374 173.71" stroke="black" stroke-width="0.5" stroke-miterlimit="10" stroke-linecap="round"/>
<path d="M136.617 177.427C137.24 179.123 137.87 180.623 138.459 181.917" stroke="black" stroke-width="0.5" stroke-miterlimit="10" stroke-linecap="round"/>
<path d="M147.553 119.003H147.653L147.725 118.934L177.268 90.8437L195.332 108.579C195.332 108.579 195.332 108.579 195.333 108.579C197.391 110.639 198.139 114.095 196.942 118.513L196.941 118.514C195.757 122.932 192.889 127.427 189.198 131.118C185.507 134.81 181.011 137.678 176.593 138.862L176.593 138.862C172.174 140.048 168.717 139.311 166.658 137.252L162.672 133.266L162.641 133.235L162.6 133.216L142.383 123.948L140.828 117.625L141.521 117.771C142.171 117.907 143.04 118.089 143.914 118.271C144.787 118.452 145.665 118.634 146.335 118.771C146.67 118.839 146.953 118.896 147.158 118.936C147.26 118.956 147.344 118.972 147.404 118.982C147.435 118.988 147.46 118.992 147.481 118.996L147.483 118.996C147.495 118.998 147.526 119.003 147.553 119.003Z" fill="#66E070" stroke="black" stroke-width="0.5"/>
<path d="M166.943 88.6682C158.005 91.0646 148.814 100.255 146.418 109.196C145.328 113.261 145.836 116.574 147.552 118.752L158.775 120.896C167.554 118.296 176.443 109.29 178.794 100.519C181.19 91.5782 175.884 86.2719 166.943 88.6682Z" fill="#66E070" stroke="black" stroke-width="0.5" stroke-miterlimit="10"/>
<path d="M146.022 110.421L146.126 110.455L146.611 108.531L146.664 108.207C146.235 107.48 145.799 106.687 145.375 105.827C144.924 104.921 144.539 104.049 144.207 103.227C143.652 101.76 143.191 100.259 142.826 98.7329C142.649 97.9769 142.567 97.5214 142.528 97.2791C142.34 96.1317 142.259 94.9694 142.286 93.807C142.292 92.853 142.41 91.903 142.64 90.9769C142.964 89.6593 143.505 88.4049 144.241 87.2649L144.084 87.1753C142.388 89.025 141.355 91.386 141.147 93.8869C141.036 95.2037 141.055 96.5283 141.205 97.8412C141.225 98.006 141.309 98.7183 141.503 99.6633C141.71 100.69 141.986 101.701 142.329 102.69C143.251 105.406 144.493 108.002 146.029 110.424L146.022 110.421Z" fill="#66E070"/>
<path d="M167.054 88.6392L166.943 88.6682C158.005 91.0645 148.814 100.255 146.418 109.196C145.328 113.261 145.836 116.574 147.552 118.752L158.775 120.896C167.554 118.296 176.443 109.29 178.794 100.519C180.95 92.4723 176.867 87.3695 169.509 88.1764" stroke="black" stroke-width="0.5" stroke-miterlimit="10"/>
<path d="M138.738 112.813C136.635 111.5 134.701 111.359 133.301 112.178L131.188 113.302L131.636 114.134C131.267 115.012 131.07 115.953 131.055 116.905C130.892 121.713 134.069 127.671 138.149 130.215C139.013 130.781 139.988 131.157 141.008 131.317L141.423 131.998L143.145 131.07C143.368 130.978 143.581 130.864 143.78 130.728H143.795C144.994 129.912 145.76 128.335 145.832 126.125C145.988 121.315 142.818 115.357 138.738 112.813Z" fill="#66E070" stroke="black" stroke-width="0.5" stroke-miterlimit="10"/>
<path d="M141.192 132.159C144.192 130.559 144.379 125.05 141.609 119.853C138.838 114.656 134.16 111.739 131.16 113.339C128.159 114.938 127.972 120.448 130.743 125.645C133.513 130.842 138.191 133.758 141.192 132.159Z" fill="#66E070" stroke="black" stroke-width="0.5" stroke-miterlimit="10"/>
<path d="M133.082 120.052C133.584 119.784 133.616 118.864 133.153 117.996C132.691 117.128 131.909 116.641 131.407 116.909C130.905 117.176 130.873 118.097 131.336 118.965C131.798 119.833 132.58 120.319 133.082 120.052Z" fill="black"/>
<path d="M134.098 126.106C134.6 125.839 134.631 124.918 134.169 124.051C133.706 123.183 132.924 122.696 132.422 122.963C131.921 123.231 131.889 124.151 132.351 125.019C132.814 125.887 133.596 126.374 134.098 126.106Z" fill="black"/>
<path d="M139.043 129.84C139.545 129.573 139.577 128.652 139.114 127.784C138.651 126.916 137.87 126.43 137.368 126.697C136.866 126.965 136.834 127.885 137.297 128.753C137.759 129.621 138.541 130.108 139.043 129.84Z" fill="black"/>
<path d="M140.875 125.041C141.377 124.774 141.409 123.853 140.946 122.985C140.484 122.117 139.702 121.63 139.2 121.898C138.698 122.165 138.666 123.086 139.129 123.954C139.591 124.822 140.373 125.309 140.875 125.041Z" fill="black"/>
<path d="M137.75 120.002C138.252 119.735 138.284 118.814 137.821 117.947C137.359 117.079 136.577 116.592 136.075 116.859C135.573 117.127 135.541 118.047 136.004 118.915C136.466 119.783 137.248 120.27 137.75 120.002Z" fill="black"/>
<path d="M145.284 86.1609C145.263 86.1366 145.301 86.0397 145.599 85.6981C146.143 85.1857 146.741 84.7348 147.383 84.3533C148.136 83.9156 148.938 83.5675 149.772 83.3163C151.453 82.8163 153.212 82.6258 154.962 82.7542C157.984 83.0134 160.941 83.7767 163.711 85.0124C164.891 85.5357 166.134 86.1463 167.404 86.8659C170.355 88.5384 173.095 90.559 175.564 92.8846C176.49 93.7375 177.435 94.6703 178.38 95.6928C178.714 96.0563 179.039 96.4197 179.349 96.7735C179.349 96.7735 179.137 95.8756 179.137 96.7247C179.137 97.5737 178.925 98.6351 178.925 98.6351L179.15 99.2255L178.423 98.3629C178.181 98.0988 177.961 97.8347 177.73 97.5682C175.763 95.3537 173.595 93.3259 171.254 91.5108C170.328 90.7839 169.415 90.1418 168.525 89.5482C164.895 87.0005 160.778 85.2295 156.432 84.346C153.792 83.7405 151.04 83.8164 148.437 84.5665C148.056 84.6725 147.684 84.8078 147.324 84.9712C146.123 85.5285 145.355 86.2432 145.284 86.1609Z" fill="#66E070"/>
<path d="M146.688 108.256C145.117 105.642 143.905 102.827 143.085 99.8892C139.778 87.549 147.1 80.2267 159.44 83.5341C166.595 85.4507 173.869 90.5244 179.362 96.8604L179.398 96.8774" stroke="black" stroke-width="0.5" stroke-miterlimit="10"/>
<path d="M146.123 110.59C144.233 107.666 142.792 104.475 141.849 101.123C138.542 88.7856 145.864 81.461 158.204 84.7683C165.79 86.8012 173.505 92.3764 179.093 99.2383" stroke="black" stroke-width="0.5" stroke-miterlimit="10"/>
<defs>
<filter id="filter0_f_9999_1279" x="0.371094" y="0" width="270.26" height="270" filterUnits="userSpaceOnUse" color-interpolation-filters="sRGB">
<feFlood flood-opacity="0" result="BackgroundImageFix"/>
<feBlend mode="normal" in="SourceGraphic" in2="BackgroundImageFix" result="shape"/>
<feGaussianBlur stdDeviation="25" result="effect1_foregroundBlur_9999_1279"/>
</filter>
<linearGradient id="paint0_linear_9999_1279" x1="50.3711" y1="50" x2="220.63" y2="220" gradientUnits="userSpaceOnUse">
<stop offset="0.425" stop-color="#A3F5AA"/>
<stop offset="1" stop-color="#66E070"/>
</linearGradient>
<clipPath id="clip0_9999_1279">
<rect width="17.9053" height="18.6514" fill="white" transform="translate(85.7344 171.572)"/>
</clipPath>
<clipPath id="clip1_9999_1279">
<rect width="18.6514" height="18.6514" fill="white" transform="translate(116.283 171.572)"/>
</clipPath>
</defs>
</svg>
