<svg width="17" height="17" viewBox="0 0 17 17" fill="none" xmlns="http://www.w3.org/2000/svg">
<path d="M1.6155 16.5C1.168 16.5 0.786833 16.3427 0.472 16.028C0.157333 15.7132 0 15.332 0 14.8845V2.1155C0 1.668 0.157333 1.28683 0.472 0.972C0.786833 0.657333 1.168 0.5 1.6155 0.5H14.3845C14.832 0.5 15.2132 0.657333 15.528 0.972C15.8427 1.28683 16 1.668 16 2.1155V5.05775H15V2.1155C15 1.936 14.9423 1.7885 14.827 1.673C14.7115 1.55767 14.564 1.5 14.3845 1.5H1.6155C1.436 1.5 1.2885 1.55767 1.173 1.673C1.05767 1.7885 1 1.936 1 2.1155V14.8845C1 15.064 1.05767 15.2115 1.173 15.327C1.2885 15.4423 1.436 15.5 1.6155 15.5H14.3845C14.564 15.5 14.7115 15.4423 14.827 15.327C14.9423 15.2115 15 15.064 15 14.8845V11.9423H16V14.8845C16 15.332 15.8427 15.7132 15.528 16.028C15.2132 16.3427 14.832 16.5 14.3845 16.5H1.6155ZM9.6155 12.5C9.168 12.5 8.78683 12.3427 8.472 12.028C8.15733 11.7132 8 11.332 8 10.8845V6.1155C8 5.668 8.15733 5.28683 8.472 4.972C8.78683 4.65733 9.168 4.5 9.6155 4.5H15.3845C15.832 4.5 16.2132 4.65733 16.528 4.972C16.8427 5.28683 17 5.668 17 6.1155V10.8845C17 11.332 16.8427 11.7132 16.528 12.028C16.2132 12.3427 15.832 12.5 15.3845 12.5H9.6155ZM15.3845 11.5C15.564 11.5 15.7115 11.4423 15.827 11.327C15.9423 11.2115 16 11.064 16 10.8845V6.1155C16 5.936 15.9423 5.7885 15.827 5.673C15.7115 5.55767 15.564 5.5 15.3845 5.5H9.6155C9.436 5.5 9.2885 5.55767 9.173 5.673C9.05767 5.7885 9 5.936 9 6.1155V10.8845C9 11.064 9.05767 11.2115 9.173 11.327C9.2885 11.4423 9.436 11.5 9.6155 11.5H15.3845ZM12 10C12.4167 10 12.7708 9.85417 13.0625 9.5625C13.3542 9.27083 13.5 8.91667 13.5 8.5C13.5 8.08333 13.3542 7.72917 13.0625 7.4375C12.7708 7.14583 12.4167 7 12 7C11.5833 7 11.2292 7.14583 10.9375 7.4375C10.6458 7.72917 10.5 8.08333 10.5 8.5C10.5 8.91667 10.6458 9.27083 10.9375 9.5625C11.2292 9.85417 11.5833 10 12 10Z" fill="#666666"/>
</svg>
