<svg width="40" height="40" viewBox="0 0 40 40" fill="none" xmlns="http://www.w3.org/2000/svg">
<mask id="mask0_10495_1344" style="mask-type:alpha" maskUnits="userSpaceOnUse" x="0" y="0" width="40" height="40">
<rect width="40" height="40" fill="#D9D9D9"/>
</mask>
<g mask="url(#mask0_10495_1344)">
<path d="M9.36047 33.3332C8.61464 33.3332 7.97936 33.0709 7.45464 32.5465C6.93019 32.0218 6.66797 31.3865 6.66797 30.6407V9.359C6.66797 8.61317 6.93019 7.97789 7.45464 7.45317C7.97936 6.92873 8.61464 6.6665 9.36047 6.6665H30.6421C31.388 6.6665 32.0232 6.92873 32.548 7.45317C33.0724 7.97789 33.3346 8.61317 33.3346 9.359V14.2628H31.668V9.359C31.668 9.05984 31.5719 8.814 31.3796 8.6215C31.1871 8.42928 30.9413 8.33317 30.6421 8.33317H9.36047C9.0613 8.33317 8.81547 8.42928 8.62297 8.6215C8.43075 8.814 8.33464 9.05984 8.33464 9.359V30.6407C8.33464 30.9398 8.43075 31.1857 8.62297 31.3782C8.81547 31.5704 9.0613 31.6665 9.36047 31.6665H30.6421C30.9413 31.6665 31.1871 31.5704 31.3796 31.3782C31.5719 31.1857 31.668 30.9398 31.668 30.6407V25.7369H33.3346V30.6407C33.3346 31.3865 33.0724 32.0218 32.548 32.5465C32.0232 33.0709 31.388 33.3332 30.6421 33.3332H9.36047ZM22.6938 26.6665C21.948 26.6665 21.3127 26.4043 20.788 25.8798C20.2635 25.3551 20.0013 24.7198 20.0013 23.974V16.0257C20.0013 15.2798 20.2635 14.6446 20.788 14.1198C21.3127 13.5954 21.948 13.3332 22.6938 13.3332H32.3088C33.0546 13.3332 33.6899 13.5954 34.2146 14.1198C34.7391 14.6446 35.0013 15.2798 35.0013 16.0257V23.974C35.0013 24.7198 34.7391 25.3551 34.2146 25.8798C33.6899 26.4043 33.0546 26.6665 32.3088 26.6665H22.6938ZM32.3088 24.9998C32.608 24.9998 32.8538 24.9037 33.0463 24.7115C33.2385 24.519 33.3346 24.2732 33.3346 23.974V16.0257C33.3346 15.7265 33.2385 15.4807 33.0463 15.2882C32.8538 15.0959 32.608 14.9998 32.3088 14.9998H22.6938C22.3946 14.9998 22.1488 15.0959 21.9563 15.2882C21.7641 15.4807 21.668 15.7265 21.668 16.0257V23.974C21.668 24.2732 21.7641 24.519 21.9563 24.7115C22.1488 24.9037 22.3946 24.9998 22.6938 24.9998H32.3088ZM26.668 22.4998C27.3624 22.4998 27.9527 22.2568 28.4388 21.7707C28.9249 21.2846 29.168 20.6943 29.168 19.9998C29.168 19.3054 28.9249 18.7151 28.4388 18.229C27.9527 17.7429 27.3624 17.4998 26.668 17.4998C25.9735 17.4998 25.3832 17.7429 24.8971 18.229C24.411 18.7151 24.168 19.3054 24.168 19.9998C24.168 20.6943 24.411 21.2846 24.8971 21.7707C25.3832 22.2568 25.9735 22.4998 26.668 22.4998Z" fill="#1C1B1F"/>
</g>
</svg>
