<svg width="32" height="30" viewBox="0 0 32 30" fill="none" xmlns="http://www.w3.org/2000/svg">
<path fill-rule="evenodd" clip-rule="evenodd" d="M16.1138 3.50747C15.9255 3.15507 15.4202 3.15507 15.2319 3.50749L3.06859 26.2645C2.89057 26.5977 3.13191 27.0003 3.50955 27.0003H27.8361C28.2139 27.0003 28.4551 26.5977 28.2771 26.2645L16.1138 3.50747ZM12.5861 2.09335C13.9046 -0.373561 17.4411 -0.373565 18.7596 2.09335L30.9229 24.8505C32.1691 27.1819 30.4797 30.0003 27.8361 30.0003H3.50955C0.86596 30.0003 -0.823334 27.1819 0.4228 24.8505L12.5861 2.09335ZM17.6729 22.0003C17.6729 23.1049 16.7774 24.0003 15.6729 24.0003C14.5683 24.0003 13.6729 23.1049 13.6729 22.0003C13.6729 20.8957 14.5683 20.0003 15.6729 20.0003C16.7774 20.0003 17.6729 20.8957 17.6729 22.0003ZM17.1729 11.5003C17.1729 10.6719 16.5013 10.0003 15.6729 10.0003C14.8444 10.0003 14.1729 10.6719 14.1729 11.5003V16.5003C14.1729 17.3287 14.8444 18.0003 15.6729 18.0003C16.5013 18.0003 17.1729 17.3287 17.1729 16.5003V11.5003Z" fill="black"/>
</svg>
