<svg width="35" height="23" viewBox="0 0 35 23" fill="none" xmlns="http://www.w3.org/2000/svg">
<g id="Group 1000004841">
<path id="Vector" d="M34.1892 12.433C32.7778 13.8703 31.376 15.3076 29.9551 16.7351C28.3354 18.3777 26.6967 20.0203 25.058 21.6531C24.5181 22.2006 24.2529 22.1908 23.713 21.6531C21.7144 19.6487 19.7063 17.6639 17.7171 15.6498C17.4045 15.3369 17.1962 15.2978 16.8646 15.6302C14.8755 17.6444 12.88 19.6455 10.8782 21.6335C10.3099 22.2006 10.0731 22.2104 9.4953 21.6335L2.67536 14.7698C2.03125 14.1245 1.37767 13.4988 0.74304 12.8437C0.250489 12.3548 0.269431 12.0224 0.75251 11.5335L2.41961 9.87138C2.9311 9.37273 3.29105 9.36295 3.79307 9.88115L9.73211 15.8649C10.1868 16.3244 10.2152 16.3244 10.6698 15.8649L16.4384 10.0376C17.1488 9.31407 17.414 9.31407 18.115 10.018L23.713 15.6791L23.9119 15.8747C24.3571 16.3049 24.4045 16.3049 24.8307 15.8747L30.694 9.9496C31.3002 9.3434 31.5938 9.33362 32.2095 9.93004C32.8252 10.5265 33.5356 11.2695 34.1892 11.9442V12.433Z" fill="#3B99FB"/>
<path id="Vector_2" d="M17.1774 0.77832C21.4493 0.856539 24.9635 2.45025 27.843 5.54967C28.184 5.92121 28.1935 6.29275 27.8525 6.66429C27.1705 7.37804 26.4601 8.07223 25.7781 8.78598C25.5034 9.06952 25.2855 9.00108 25.0108 8.75665C24.0826 7.96468 23.2111 7.05539 22.1787 6.44919C19.2991 4.74793 16.287 4.66971 13.237 5.9701C11.9014 6.53719 10.8121 7.45626 9.80806 8.50244C9.1166 9.20641 9.10712 9.19663 8.42513 8.52199C7.74314 7.84735 7.279 7.40737 6.72962 6.83051C6.18023 6.25364 6.30337 5.99943 6.73909 5.53012C9.1166 2.92934 12.034 1.40407 15.4535 0.89565C16.0597 0.807654 16.6754 0.807652 17.1774 0.77832Z" fill="#3B99FB"/>
</g>
</svg>
