<svg width="26" height="20" viewBox="0 0 26 20" fill="none" xmlns="http://www.w3.org/2000/svg">
<g clip-path="url(#clip0_2535_259)">
<path d="M20.0982 1.12109H5.652C2.81768 1.12109 0.52002 3.48156 0.52002 6.39336V13.8124C0.52002 16.7241 2.81768 19.0846 5.652 19.0846H20.0982C22.9325 19.0846 25.2302 16.7241 25.2302 13.8124V6.39336C25.2302 3.48156 22.9325 1.12109 20.0982 1.12109ZM16.6274 10.4638L9.87052 13.7746C9.69047 13.8628 9.4825 13.7279 9.4825 13.523V6.69457C9.4825 6.48675 9.69594 6.35206 9.87636 6.44601L16.6334 9.9637C16.8342 10.0683 16.8308 10.3643 16.6274 10.4638Z" fill="#666666"/>
</g>
<defs>
<clipPath id="clip0_2535_259">
<rect width="26" height="19" fill="white" transform="translate(0 0.645508)"/>
</clipPath>
</defs>
</svg>
