<svg width="1923" height="693" viewBox="0 0 1923 693" fill="none" xmlns="http://www.w3.org/2000/svg">
<g clip-path="url(#clip0_10413_1364)">
<rect width="1923" height="693" fill="#1A1A1A"/>
<path d="M1114 134H84L329 765.003L628.137 971L916 785.5L1114 134Z" fill="url(#paint0_linear_10413_1364)" fill-opacity="0.5"/>
<g style="mix-blend-mode:color-dodge" opacity="0.8" filter="url(#filter0_f_10413_1364)">
<ellipse cx="230.173" cy="163.975" rx="230.173" ry="163.975" transform="matrix(-1 8.74228e-08 0.0309297 0.999521 856.113 649.294)" fill="#A67900"/>
</g>
<path d="M765.019 685.473L764.942 378.586L637.387 434.401L637.475 741.288L765.019 685.473Z" fill="#EDC765" stroke="black" stroke-width="0.759009" stroke-linecap="round" stroke-linejoin="round"/>
<path d="M637.472 741.81L637.384 434.401L505.93 375.815L506.007 683.224L637.472 741.81Z" fill="#F5DC99" stroke="black" stroke-width="0.759009" stroke-linecap="round" stroke-linejoin="round"/>
<path d="M637.384 434.401L505.93 375.815L633.485 320L764.94 378.586L637.384 434.401Z" fill="#F5DC99" stroke="black" stroke-width="0.759009" stroke-linecap="round" stroke-linejoin="round"/>
<path d="M945.09 727.186L945.013 616.344L817.457 672.158L817.545 783.001L945.09 727.186Z" fill="#F6E3B1" stroke="black" stroke-width="0.759009" stroke-linecap="round" stroke-linejoin="round"/>
<path d="M817.542 783L817.454 672.158L686 613.572L686.077 724.414L817.542 783Z" fill="#FCF4DE" stroke="black" stroke-width="0.759009" stroke-linecap="round" stroke-linejoin="round"/>
<path d="M817.454 672.158L686 613.571L813.556 557.757L945.01 616.343L817.454 672.158Z" fill="#FCF4DE" stroke="black" stroke-width="0.759009" stroke-linecap="round" stroke-linejoin="round"/>
<path d="M560.09 707.398L560.013 502.679L432.457 558.493L432.545 763.212L560.09 707.398Z" fill="#F3DA9B" stroke="black" stroke-width="0.759009" stroke-linecap="round" stroke-linejoin="round"/>
<path d="M432.543 763.187L432.454 558.493L301 499.907L301.078 704.601L432.543 763.187Z" fill="#FBEFD0" stroke="black" stroke-width="0.759009" stroke-linecap="round" stroke-linejoin="round"/>
<path d="M432.454 558.494L301 499.907L428.556 444.093L560.01 502.679L432.454 558.494Z" fill="#FBEFD0" stroke="black" stroke-width="0.759009" stroke-linecap="round" stroke-linejoin="round"/>
<g style="mix-blend-mode:plus-lighter" filter="url(#filter1_d_10413_1364)">
<path d="M634.1 149L649.172 173.713L675.892 162.579L673.559 191.431L701.72 198.129L682.875 220.1L701.72 242.071L673.559 248.769L675.892 277.621L649.172 266.487L634.1 291.2L619.028 266.487L592.308 277.621L594.641 248.769L566.48 242.071L585.325 220.1L566.48 198.129L594.641 191.431L592.308 162.579L619.028 173.713L634.1 149Z" fill="#F8E7B9"/>
<path d="M634.1 149.48L648.959 173.843L649.07 174.026L649.268 173.943L675.609 162.967L673.31 191.411L673.293 191.625L673.502 191.674L701.264 198.277L682.685 219.937L682.545 220.1L682.685 220.263L701.263 241.923L673.502 248.526L673.293 248.575L673.31 248.789L675.609 277.233L649.268 266.257L649.07 266.174L648.959 266.357L634.1 290.72L619.241 266.357L619.13 266.174L618.932 266.257L592.591 277.233L594.89 248.789L594.907 248.575L594.698 248.526L566.937 241.923L585.515 220.263L585.655 220.1L585.515 219.937L566.937 198.277L594.698 191.674L594.907 191.625L594.89 191.411L592.591 162.967L618.932 173.943L619.13 174.026L619.241 173.843L634.1 149.48Z" stroke="black" stroke-width="0.5"/>
</g>
<path d="M633.792 235V209.944H625.44V206.152H626.784C629.088 206.152 630.816 205.624 631.968 204.568C633.152 203.512 633.824 202.12 633.984 200.392H638.736V235H633.792Z" fill="black"/>
<g style="mix-blend-mode:hard-light" filter="url(#filter2_d_10413_1364)">
<path d="M426.435 308L439.246 329.006L461.958 319.542L459.976 344.066L483.912 349.76L467.893 368.435L483.912 387.11L459.976 392.804L461.958 417.328L439.246 407.864L426.435 428.87L413.624 407.864L390.912 417.328L392.894 392.804L368.958 387.11L384.977 368.435L368.958 349.76L392.894 344.066L390.912 319.542L413.624 329.006L426.435 308Z" fill="#FBEFD0"/>
<path d="M426.435 308.48L439.033 329.136L439.145 329.319L439.343 329.236L461.676 319.93L459.726 344.046L459.709 344.26L459.918 344.31L483.455 349.908L467.704 368.272L467.564 368.435L467.704 368.598L483.455 386.962L459.918 392.56L459.709 392.61L459.726 392.824L461.676 416.94L439.343 407.634L439.145 407.551L439.033 407.734L426.435 428.39L413.837 407.734L413.725 407.551L413.527 407.634L391.194 416.94L393.144 392.824L393.161 392.61L392.952 392.56L369.415 386.962L385.166 368.598L385.306 368.435L385.166 368.272L369.415 349.908L392.952 344.31L393.161 344.26L393.144 344.046L391.194 319.93L413.527 329.236L413.725 329.319L413.837 329.136L426.435 308.48Z" stroke="black" stroke-width="0.5"/>
</g>
<path d="M415.754 381V380.266C415.754 378.362 416.108 376.702 416.815 375.288C417.55 373.874 418.488 372.636 419.63 371.575C420.773 370.487 421.983 369.508 423.262 368.638C424.567 367.74 425.791 366.87 426.934 366.026C428.076 365.156 429.001 364.245 429.708 363.293C430.442 362.314 430.81 361.198 430.81 359.947C430.81 358.397 430.32 357.159 429.341 356.234C428.362 355.31 427.07 354.847 425.465 354.847C423.778 354.847 422.405 355.364 421.344 356.398C420.31 357.431 419.848 358.873 419.957 360.722H415.836C415.782 358.791 416.162 357.118 416.978 355.704C417.794 354.29 418.95 353.188 420.446 352.399C421.97 351.61 423.724 351.216 425.71 351.216C427.614 351.216 429.273 351.57 430.687 352.277C432.102 352.984 433.203 353.977 433.992 355.255C434.781 356.534 435.175 358.03 435.175 359.743C435.175 361.239 434.862 362.572 434.237 363.742C433.638 364.884 432.836 365.931 431.83 366.883C430.85 367.808 429.79 368.678 428.647 369.494C427.505 370.31 426.39 371.113 425.302 371.902C424.241 372.69 423.316 373.52 422.527 374.39C421.766 375.261 421.262 376.226 421.018 377.287H435.502V381H415.754Z" fill="black"/>
<g style="mix-blend-mode:hard-light" filter="url(#filter3_d_10413_1364)">
<path d="M812.34 444L822.891 461.299L841.594 453.505L839.962 473.702L859.674 478.39L846.483 493.77L859.674 509.15L839.962 513.838L841.594 534.035L822.891 526.241L812.34 543.54L801.79 526.241L783.086 534.035L784.719 513.838L765.006 509.15L778.198 493.77L765.006 478.39L784.719 473.702L783.086 453.505L801.79 461.299L812.34 444Z" fill="#F9E8B9"/>
<path d="M812.34 444.48L822.677 461.429L822.789 461.612L822.987 461.53L841.312 453.894L839.713 473.682L839.695 473.895L839.904 473.945L859.218 478.539L846.293 493.607L846.153 493.77L846.293 493.933L859.218 509.001L839.904 513.595L839.695 513.645L839.713 513.858L841.312 533.646L822.987 526.01L822.789 525.928L822.677 526.111L812.34 543.06L802.003 526.111L801.892 525.928L801.694 526.01L783.368 533.646L784.968 513.858L784.985 513.645L784.777 513.595L765.463 509.001L778.388 493.933L778.527 493.77L778.388 493.607L765.463 478.539L784.777 473.945L784.985 473.895L784.968 473.682L783.368 453.894L801.694 461.53L801.892 461.612L802.003 461.429L812.34 444.48Z" stroke="black" stroke-width="0.5"/>
</g>
<path d="M812.146 505.302C810.444 505.302 808.966 504.978 807.711 504.328C806.479 503.678 805.527 502.771 804.855 501.606C804.206 500.442 803.881 499.086 803.881 497.541H807.274C807.252 498.974 807.678 500.128 808.551 501.002C809.447 501.875 810.646 502.312 812.146 502.312C813.625 502.312 814.812 501.92 815.708 501.136C816.604 500.33 817.052 499.266 817.052 497.944C817.052 496.578 816.638 495.558 815.809 494.886C815.002 494.214 813.938 493.878 812.617 493.878H809.962V491.224H812.415C813.804 491.224 814.857 490.843 815.574 490.082C816.313 489.32 816.682 488.379 816.682 487.259C816.682 486.05 816.268 485.12 815.439 484.47C814.633 483.798 813.558 483.462 812.214 483.462C810.713 483.462 809.548 483.888 808.719 484.739C807.913 485.59 807.498 486.722 807.476 488.133H804.082C804.082 486.587 804.418 485.243 805.09 484.101C805.785 482.936 806.748 482.04 807.98 481.413C809.234 480.786 810.69 480.472 812.348 480.472C814.745 480.472 816.66 481.054 818.094 482.219C819.527 483.384 820.244 484.93 820.244 486.856C820.244 488.2 819.897 489.354 819.202 490.317C818.508 491.28 817.601 491.952 816.481 492.333V492.534C817.802 492.848 818.822 493.52 819.538 494.55C820.255 495.558 820.614 496.79 820.614 498.246C820.614 499.658 820.255 500.89 819.538 501.942C818.844 502.995 817.858 503.824 816.582 504.429C815.327 505.011 813.849 505.302 812.146 505.302Z" fill="black"/>
</g>
<defs>
<filter id="filter0_f_10413_1364" x="304.531" y="553.044" width="652.961" height="520.293" filterUnits="userSpaceOnUse" color-interpolation-filters="sRGB">
<feFlood flood-opacity="0" result="BackgroundImageFix"/>
<feBlend mode="normal" in="SourceGraphic" in2="BackgroundImageFix" result="shape"/>
<feGaussianBlur stdDeviation="48.125" result="effect1_foregroundBlur_10413_1364"/>
</filter>
<filter id="filter1_d_10413_1364" x="536.48" y="123.8" width="195.239" height="202.201" filterUnits="userSpaceOnUse" color-interpolation-filters="sRGB">
<feFlood flood-opacity="0" result="BackgroundImageFix"/>
<feColorMatrix in="SourceAlpha" type="matrix" values="0 0 0 0 0 0 0 0 0 0 0 0 0 0 0 0 0 0 127 0" result="hardAlpha"/>
<feOffset dy="4.80003"/>
<feGaussianBlur stdDeviation="15.0001"/>
<feComposite in2="hardAlpha" operator="out"/>
<feColorMatrix type="matrix" values="0 0 0 0 0.960784 0 0 0 0 0.862745 0 0 0 0 0.6 0 0 0 1 0"/>
<feBlend mode="normal" in2="BackgroundImageFix" result="effect1_dropShadow_10413_1364"/>
<feBlend mode="normal" in="SourceGraphic" in2="effect1_dropShadow_10413_1364" result="shape"/>
</filter>
<filter id="filter2_d_10413_1364" x="347.957" y="290.36" width="156.953" height="162.87" filterUnits="userSpaceOnUse" color-interpolation-filters="sRGB">
<feFlood flood-opacity="0" result="BackgroundImageFix"/>
<feColorMatrix in="SourceAlpha" type="matrix" values="0 0 0 0 0 0 0 0 0 0 0 0 0 0 0 0 0 0 127 0" result="hardAlpha"/>
<feOffset dy="3.36002"/>
<feGaussianBlur stdDeviation="10.5001"/>
<feComposite in2="hardAlpha" operator="out"/>
<feColorMatrix type="matrix" values="0 0 0 0 0.960784 0 0 0 0 0.862745 0 0 0 0 0.6 0 0 0 1 0"/>
<feBlend mode="normal" in2="BackgroundImageFix" result="effect1_dropShadow_10413_1364"/>
<feBlend mode="normal" in="SourceGraphic" in2="effect1_dropShadow_10413_1364" result="shape"/>
</filter>
<filter id="filter3_d_10413_1364" x="744.008" y="426.36" width="136.668" height="141.54" filterUnits="userSpaceOnUse" color-interpolation-filters="sRGB">
<feFlood flood-opacity="0" result="BackgroundImageFix"/>
<feColorMatrix in="SourceAlpha" type="matrix" values="0 0 0 0 0 0 0 0 0 0 0 0 0 0 0 0 0 0 127 0" result="hardAlpha"/>
<feOffset dy="3.36002"/>
<feGaussianBlur stdDeviation="10.5001"/>
<feComposite in2="hardAlpha" operator="out"/>
<feColorMatrix type="matrix" values="0 0 0 0 0.960784 0 0 0 0 0.862745 0 0 0 0 0.6 0 0 0 1 0"/>
<feBlend mode="normal" in2="BackgroundImageFix" result="effect1_dropShadow_10413_1364"/>
<feBlend mode="normal" in="SourceGraphic" in2="effect1_dropShadow_10413_1364" result="shape"/>
</filter>
<linearGradient id="paint0_linear_10413_1364" x1="639.064" y1="114.543" x2="669.758" y2="877.963" gradientUnits="userSpaceOnUse">
<stop stop-color="#F87D0A" stop-opacity="0"/>
<stop offset="1" stop-color="#F8B60D"/>
</linearGradient>
<clipPath id="clip0_10413_1364">
<rect width="1926" height="693" fill="white"/>
</clipPath>
</defs>
</svg>
