<svg width="1281" height="387" viewBox="0 0 1281 387" fill="none" xmlns="http://www.w3.org/2000/svg">
<path d="M1029.45 -11.8203L329.937 405.707" stroke="black" stroke-width="0.5" stroke-linecap="round" stroke-linejoin="round"/>
<path d="M881.862 91.9018C872.487 87.1822 861.393 87.3601 852.174 92.378L671.708 190.607L671.242 192.432C669.056 201.001 672.757 209.989 680.344 214.533L745.388 253.495C755.423 259.506 767.938 259.563 778.027 253.643L946.547 154.755C955.054 149.763 959.199 139.719 956.688 130.18L956.504 129.478L881.862 91.9018Z" fill="url(#paint0_linear_5286_2173)" stroke="black" stroke-width="0.5" stroke-linecap="round" stroke-linejoin="round"/>
<path d="M883.136 84.0132C873.117 78.0338 860.639 77.9808 850.57 83.8749L675.6 186.298C669.692 189.757 669.656 198.285 675.535 201.794L745.422 243.504C755.44 249.483 767.919 249.536 777.988 243.642L952.957 141.22C958.866 137.761 958.902 129.233 953.023 125.725L883.136 84.0132Z" fill="white" stroke="black" stroke-width="0.5" stroke-linecap="round" stroke-linejoin="round"/>
<path d="M1134.04 -55.0367C1124.52 -59.9806 1113.16 -59.8254 1103.77 -54.6235L923.14 45.5357C920.96 53.842 924.527 62.5902 931.894 67.0032L997.29 106.176C1007.33 112.187 1019.84 112.244 1029.93 106.324L1201.97 5.36887C1208.7 1.41907 1212.84 -5.80117 1212.84 -13.6055V-14.1165L1134.04 -55.0367Z" fill="url(#paint1_linear_5286_2173)" stroke="black" stroke-width="0.5" stroke-linecap="round" stroke-linejoin="round"/>
<path d="M1135.04 -63.3061C1125.02 -69.2854 1112.54 -69.3384 1102.47 -63.4443L927.503 38.9792C921.594 42.438 921.558 50.9658 927.437 54.4746L997.325 96.185C1007.34 102.164 1019.82 102.217 1029.89 96.3231L1204.86 -6.09927C1210.77 -9.558 1210.8 -18.0858 1204.93 -21.5946L1135.04 -63.3061Z" fill="white" stroke="black" stroke-width="0.5" stroke-linecap="round" stroke-linejoin="round"/>
<path d="M1096.65 67.0559L574.283 373.12" stroke="black" stroke-width="0.5" stroke-linecap="round" stroke-linejoin="round"/>
<path d="M1024.74 -18.3555L319.326 396" stroke="black" stroke-width="0.5" stroke-linecap="round" stroke-linejoin="round"/>
<path d="M621.713 244.696C612.249 239.806 600.972 239.947 591.633 245.072L411.324 344.006L411.105 344.827C408.815 353.445 412.507 362.539 420.157 367.121L485.068 406.003C495.103 412.014 507.618 412.071 517.707 406.151L686.899 306.868C695.02 302.103 699.004 292.537 696.667 283.416L621.713 244.696Z" fill="url(#paint2_linear_5286_2173)" stroke="black" stroke-width="0.5" stroke-linecap="round" stroke-linejoin="round"/>
<path d="M622.816 236.521C612.797 230.542 600.318 230.489 590.25 236.383L415.28 338.806C409.371 342.265 409.335 350.793 415.214 354.302L485.102 396.012C495.12 401.991 507.599 402.044 517.667 396.15L692.637 293.728C698.546 290.269 698.582 281.741 692.703 278.233L622.816 236.521Z" fill="white" stroke="black" stroke-width="0.5" stroke-linecap="round" stroke-linejoin="round"/>
<path d="M1089.27 61.752L485.078 415.754" stroke="black" stroke-width="0.5" stroke-linecap="round" stroke-linejoin="round"/>
<path d="M1228.7 63.3774L529.18 480.905" stroke="black" stroke-width="0.5" stroke-linecap="round" stroke-linejoin="round"/>
<path d="M1081.11 167.1C1071.73 162.38 1060.64 162.558 1051.42 167.576L870.951 265.805L870.485 267.63C868.299 276.199 872 285.187 879.587 289.731L944.631 328.693C954.666 334.704 967.181 334.761 977.27 328.841L1145.79 229.952C1154.3 224.96 1158.44 214.916 1155.93 205.378L1155.75 204.676L1081.11 167.1Z" fill="url(#paint3_linear_5286_2173)" stroke="black" stroke-width="0.5" stroke-linecap="round" stroke-linejoin="round"/>
<path d="M1082.38 159.211C1072.36 153.232 1059.88 153.179 1049.81 159.073L874.843 261.496C868.935 264.955 868.899 273.483 874.778 276.992L944.665 318.702C954.684 324.681 967.162 324.734 977.231 318.84L1152.2 216.418C1158.11 212.959 1158.15 204.431 1152.27 200.922L1082.38 159.211Z" fill="white" stroke="black" stroke-width="0.5" stroke-linecap="round" stroke-linejoin="round"/>
<path d="M1333.28 20.161C1323.76 15.2172 1312.4 15.3724 1303.02 20.5743L1122.38 120.733C1120.2 129.04 1123.77 137.788 1131.14 142.201L1196.53 181.374C1206.57 187.385 1219.08 187.442 1229.17 181.521L1401.21 80.5666C1407.95 76.6168 1412.08 69.3966 1412.08 61.5922V61.0813L1333.28 20.161Z" fill="url(#paint4_linear_5286_2173)" stroke="black" stroke-width="0.5" stroke-linecap="round" stroke-linejoin="round"/>
<path d="M1334.28 11.8917C1324.26 5.91231 1311.78 5.85931 1301.72 11.7534L1126.75 114.177C1120.84 117.636 1120.8 126.164 1126.68 129.672L1196.57 171.383C1206.59 177.362 1219.06 177.415 1229.13 171.521L1404.1 69.0985C1410.01 65.6398 1410.05 57.112 1404.17 53.6032L1334.28 11.8917Z" fill="white" stroke="black" stroke-width="0.5" stroke-linecap="round" stroke-linejoin="round"/>
<path d="M1295.9 142.254L773.526 448.318" stroke="black" stroke-width="0.5" stroke-linecap="round" stroke-linejoin="round"/>
<path d="M1223.99 56.8423L518.569 471.198" stroke="black" stroke-width="0.5" stroke-linecap="round" stroke-linejoin="round"/>
<path d="M820.956 319.893C811.492 315.004 800.215 315.145 790.876 320.269L610.567 419.203L610.348 420.025C608.058 428.643 611.75 437.737 619.4 442.319L684.311 481.201C694.346 487.212 706.861 487.269 716.95 481.348L886.142 382.066C894.263 377.301 898.247 367.734 895.91 358.614L820.956 319.893Z" fill="url(#paint5_linear_5286_2173)" stroke="black" stroke-width="0.5" stroke-linecap="round" stroke-linejoin="round"/>
<path d="M822.059 311.719C812.04 305.739 799.562 305.686 789.493 311.581L614.523 414.004C608.615 417.463 608.578 425.991 614.457 429.499L684.345 471.21C694.363 477.189 706.842 477.242 716.91 471.348L891.88 368.926C897.789 365.467 897.825 356.939 891.946 353.43L822.059 311.719Z" fill="white" stroke="black" stroke-width="0.5" stroke-linecap="round" stroke-linejoin="round"/>
<path d="M1288.51 136.95L684.321 490.952" stroke="black" stroke-width="0.5" stroke-linecap="round" stroke-linejoin="round"/>
<path d="M1558.7 63.3774L859.18 480.905" stroke="black" stroke-width="0.5" stroke-linecap="round" stroke-linejoin="round"/>
<path d="M1411.11 167.1C1401.73 162.38 1390.64 162.558 1381.42 167.576L1200.95 265.805L1200.49 267.63C1198.3 276.199 1202 285.187 1209.59 289.731L1274.63 328.693C1284.67 334.704 1297.18 334.761 1307.27 328.841L1475.79 229.952C1484.3 224.96 1488.44 214.916 1485.93 205.378L1485.75 204.676L1411.11 167.1Z" fill="url(#paint6_linear_5286_2173)" stroke="black" stroke-width="0.5" stroke-linecap="round" stroke-linejoin="round"/>
<path d="M1412.38 159.211C1402.36 153.232 1389.88 153.179 1379.81 159.073L1204.84 261.496C1198.93 264.955 1198.9 273.483 1204.78 276.992L1274.67 318.702C1284.68 324.681 1297.16 324.734 1307.23 318.84L1482.2 216.418C1488.11 212.959 1488.15 204.431 1482.27 200.922L1412.38 159.211Z" fill="white" stroke="black" stroke-width="0.5" stroke-linecap="round" stroke-linejoin="round"/>
<path d="M1625.9 142.254L1103.53 448.318" stroke="black" stroke-width="0.5" stroke-linecap="round" stroke-linejoin="round"/>
<path d="M1553.99 56.8423L848.569 471.198" stroke="black" stroke-width="0.5" stroke-linecap="round" stroke-linejoin="round"/>
<path d="M1150.96 319.893C1141.49 315.004 1130.22 315.145 1120.88 320.269L940.567 419.203L940.348 420.025C938.058 428.643 941.75 437.737 949.4 442.319L1014.31 481.201C1024.35 487.212 1036.86 487.269 1046.95 481.348L1216.14 382.066C1224.26 377.301 1228.25 367.734 1225.91 358.614L1150.96 319.893Z" fill="url(#paint7_linear_5286_2173)" stroke="black" stroke-width="0.5" stroke-linecap="round" stroke-linejoin="round"/>
<path d="M1152.06 311.719C1142.04 305.739 1129.56 305.686 1119.49 311.581L944.523 414.004C938.615 417.463 938.578 425.991 944.457 429.499L1014.35 471.21C1024.36 477.189 1036.84 477.242 1046.91 471.348L1221.88 368.926C1227.79 365.467 1227.83 356.939 1221.95 353.43L1152.06 311.719Z" fill="white" stroke="black" stroke-width="0.5" stroke-linecap="round" stroke-linejoin="round"/>
<path d="M1618.51 136.95L1014.32 490.952" stroke="black" stroke-width="0.5" stroke-linecap="round" stroke-linejoin="round"/>
<defs>
<linearGradient id="paint0_linear_5286_2173" x1="750.498" y1="238.131" x2="771.753" y2="238.131" gradientUnits="userSpaceOnUse">
<stop stop-color="#B4F9BA"/>
<stop offset="1" stop-color="#66E070"/>
</linearGradient>
<linearGradient id="paint1_linear_5286_2173" x1="1002.4" y1="90.812" x2="1023.66" y2="90.812" gradientUnits="userSpaceOnUse">
<stop stop-color="#B4F9BA"/>
<stop offset="1" stop-color="#66E070"/>
</linearGradient>
<linearGradient id="paint2_linear_5286_2173" x1="490.178" y1="390.639" x2="511.433" y2="390.639" gradientUnits="userSpaceOnUse">
<stop stop-color="#B4F9BA"/>
<stop offset="1" stop-color="#66E070"/>
</linearGradient>
<linearGradient id="paint3_linear_5286_2173" x1="949.741" y1="313.329" x2="970.996" y2="313.329" gradientUnits="userSpaceOnUse">
<stop stop-color="#B4F9BA"/>
<stop offset="1" stop-color="#66E070"/>
</linearGradient>
<linearGradient id="paint4_linear_5286_2173" x1="1201.64" y1="166.01" x2="1222.9" y2="166.01" gradientUnits="userSpaceOnUse">
<stop stop-color="#B4F9BA"/>
<stop offset="1" stop-color="#66E070"/>
</linearGradient>
<linearGradient id="paint5_linear_5286_2173" x1="689.421" y1="465.837" x2="710.676" y2="465.837" gradientUnits="userSpaceOnUse">
<stop stop-color="#B4F9BA"/>
<stop offset="1" stop-color="#66E070"/>
</linearGradient>
<linearGradient id="paint6_linear_5286_2173" x1="1279.74" y1="313.329" x2="1301" y2="313.329" gradientUnits="userSpaceOnUse">
<stop stop-color="#B4F9BA"/>
<stop offset="1" stop-color="#66E070"/>
</linearGradient>
<linearGradient id="paint7_linear_5286_2173" x1="1019.42" y1="465.837" x2="1040.68" y2="465.837" gradientUnits="userSpaceOnUse">
<stop stop-color="#B4F9BA"/>
<stop offset="1" stop-color="#66E070"/>
</linearGradient>
</defs>
</svg>
