<svg width="627" height="377" viewBox="0 0 627 377" fill="none" xmlns="http://www.w3.org/2000/svg">
<path d="M589.453 238.156L4.10675 587.537" stroke="black" stroke-width="0.5" stroke-linecap="round" stroke-linejoin="round"/>
<path d="M441.862 341.878C432.487 337.159 421.393 337.337 412.174 342.355L231.708 440.584L231.242 442.409C229.056 450.978 232.757 459.966 240.344 464.51L305.388 503.472C315.423 509.483 327.938 509.54 338.027 503.619L506.547 404.731C515.054 399.739 519.199 389.695 516.688 380.157L516.504 379.455L441.862 341.878Z" fill="url(#paint0_linear_62_2)" stroke="black" stroke-width="0.5" stroke-linecap="round" stroke-linejoin="round"/>
<path d="M443.136 333.99C433.118 328.01 420.639 327.957 410.57 333.852L235.6 436.275C229.692 439.734 229.656 448.262 235.535 451.77L305.422 493.481C315.441 499.46 327.919 499.513 337.988 493.619L512.957 391.197C518.866 387.738 518.902 379.21 513.023 375.701L443.136 333.99Z" fill="#B4F9BA" stroke="black" stroke-width="0.5" stroke-linecap="round" stroke-linejoin="round"/>
<path d="M694.039 194.94C684.519 189.996 673.155 190.151 663.774 195.353L483.14 295.512C480.96 303.819 484.527 312.567 491.894 316.98L557.29 356.153C567.325 362.164 579.84 362.22 589.929 356.3L761.971 255.345C768.702 251.396 772.837 244.175 772.837 236.371V235.86L694.039 194.94Z" fill="url(#paint1_linear_62_2)" stroke="black" stroke-width="0.5" stroke-linecap="round" stroke-linejoin="round"/>
<path d="M695.038 186.671C685.02 180.691 672.541 180.638 662.472 186.532L487.503 288.956C481.594 292.415 481.558 300.942 487.437 304.451L557.325 346.162C567.343 352.141 579.821 352.194 589.89 346.3L764.86 243.877C770.768 240.419 770.805 231.891 764.926 228.382L695.038 186.671Z" fill="#B4F9BA" stroke="black" stroke-width="0.5" stroke-linecap="round" stroke-linejoin="round"/>
<path d="M656.654 317.032L134.283 623.097" stroke="black" stroke-width="0.5" stroke-linecap="round" stroke-linejoin="round"/>
<path d="M584.744 231.621L-17.7346 585.511" stroke="black" stroke-width="0.5" stroke-linecap="round" stroke-linejoin="round"/>
<path d="M649.265 311.728L117.85 623.091" stroke="black" stroke-width="0.5" stroke-linecap="round" stroke-linejoin="round"/>
<path d="M573.511 61.179L-11.8356 410.561" stroke="black" stroke-width="0.5" stroke-linecap="round" stroke-linejoin="round"/>
<path d="M425.92 164.902C416.544 160.182 405.451 160.36 396.232 165.378L215.765 263.607L215.3 265.432C213.114 274.001 216.815 282.989 224.402 287.533L289.446 326.495C299.481 332.507 311.996 332.563 322.085 326.643L490.605 227.755C499.112 222.763 503.257 212.719 500.746 203.18L500.561 202.478L425.92 164.902Z" fill="url(#paint2_linear_62_2)" stroke="black" stroke-width="0.5" stroke-linecap="round" stroke-linejoin="round"/>
<path d="M427.194 157.013C417.175 151.034 404.696 150.981 394.628 156.875L219.658 259.299C213.749 262.757 213.713 271.285 219.592 274.794L289.48 316.504C299.498 322.483 311.977 322.536 322.045 316.642L497.015 214.22C502.924 210.761 502.96 202.234 497.081 198.725L427.194 157.013Z" fill="#B4F9BA" stroke="black" stroke-width="0.5" stroke-linecap="round" stroke-linejoin="round"/>
<path d="M678.097 17.9633C668.577 13.0194 657.213 13.1746 647.831 18.3765L467.198 118.536C465.017 126.842 468.585 135.59 475.952 140.003L541.348 179.176C551.383 185.187 563.898 185.244 573.987 179.324L746.029 78.3689C752.76 74.4191 756.895 67.1988 756.895 59.3945V58.8835L678.097 17.9633Z" fill="url(#paint3_linear_62_2)" stroke="black" stroke-width="0.5" stroke-linecap="round" stroke-linejoin="round"/>
<path d="M679.096 9.69394C669.077 3.71456 656.599 3.66156 646.53 9.55565L471.56 111.979C465.652 115.438 465.616 123.966 471.495 127.475L541.382 169.185C551.4 175.164 563.879 175.217 573.948 169.323L748.917 66.9007C754.826 63.442 754.862 54.9142 748.983 51.4054L679.096 9.69394Z" fill="#B4F9BA" stroke="black" stroke-width="0.5" stroke-linecap="round" stroke-linejoin="round"/>
<path d="M640.711 140.056L118.341 446.12" stroke="black" stroke-width="0.5" stroke-linecap="round" stroke-linejoin="round"/>
<path d="M568.801 54.644L-33.677 408.534" stroke="black" stroke-width="0.5" stroke-linecap="round" stroke-linejoin="round"/>
<path d="M165.719 317.669C156.283 312.794 145.044 312.919 135.719 318.001L-48.7054 418.512L-48.7053 421.049C-48.7053 428.079 -45.0139 434.593 -38.9828 438.206L29.1249 479.003C39.1599 485.014 51.6752 485.071 61.7641 479.151L230.957 379.868C239.077 375.103 243.061 365.537 240.724 356.416L165.719 317.669Z" fill="url(#paint4_linear_62_2)" stroke="black" stroke-width="0.5" stroke-linecap="round" stroke-linejoin="round"/>
<path d="M166.873 309.521C156.855 303.542 144.376 303.489 134.307 309.383L-40.6626 411.806C-46.5712 415.265 -46.6073 423.793 -40.7283 427.302L29.1593 469.012C39.1776 474.991 51.6561 475.044 61.7247 469.15L236.694 366.728C242.603 363.269 242.639 354.741 236.76 351.233L166.873 309.521Z" fill="#B4F9BA" stroke="black" stroke-width="0.5" stroke-linecap="round" stroke-linejoin="round"/>
<path d="M633.323 134.751L101.908 446.115" stroke="black" stroke-width="0.5" stroke-linecap="round" stroke-linejoin="round"/>
<defs>
<linearGradient id="paint0_linear_62_2" x1="310.498" y1="488.108" x2="331.753" y2="488.108" gradientUnits="userSpaceOnUse">
<stop stop-color="#B4F9BA"/>
<stop offset="1" stop-color="#66E070"/>
</linearGradient>
<linearGradient id="paint1_linear_62_2" x1="562.401" y1="340.789" x2="583.655" y2="340.789" gradientUnits="userSpaceOnUse">
<stop stop-color="#B4F9BA"/>
<stop offset="1" stop-color="#66E070"/>
</linearGradient>
<linearGradient id="paint2_linear_62_2" x1="294.556" y1="311.131" x2="315.811" y2="311.131" gradientUnits="userSpaceOnUse">
<stop stop-color="#B4F9BA"/>
<stop offset="1" stop-color="#66E070"/>
</linearGradient>
<linearGradient id="paint3_linear_62_2" x1="546.458" y1="163.812" x2="567.713" y2="163.812" gradientUnits="userSpaceOnUse">
<stop stop-color="#B4F9BA"/>
<stop offset="1" stop-color="#66E070"/>
</linearGradient>
<linearGradient id="paint4_linear_62_2" x1="34.2354" y1="463.639" x2="55.4899" y2="463.639" gradientUnits="userSpaceOnUse">
<stop stop-color="#B4F9BA"/>
<stop offset="1" stop-color="#66E070"/>
</linearGradient>
</defs>
</svg>
