<svg width="396" height="367" viewBox="0 0 396 367" fill="none" xmlns="http://www.w3.org/2000/svg">
<mask id="mask0_7602_4545" style="mask-type:alpha" maskUnits="userSpaceOnUse" x="-429" y="0" width="1051" height="476">
<rect width="1049.37" height="475.051" transform="matrix(-1 0 0 1 621.191 0.767578)" fill="#D9D9D9"/>
</mask>
<g mask="url(#mask0_7602_4545)">
<circle cx="1872.49" cy="1872.49" r="1872.24" transform="matrix(-1 0 0 1 2662.02 32.2119)" stroke="black" stroke-width="0.5"/>
<path d="M205.436 190.085C205.436 190.085 169.006 101.453 95.267 122.724C-8.28378 152.594 130.533 521.801 130.533 521.801" stroke="black" stroke-dasharray="3 3"/>
<path d="M286.452 323.076C286.452 323.076 259.94 231.914 375.114 249.701C488.324 267.185 603.111 495.674 603.111 495.674" stroke="black" stroke-dasharray="3 3"/>
<path d="M205.979 192.841C203.926 193.451 201.978 193.74 200.485 193.708C199.74 193.693 199.094 193.597 198.6 193.412C198.111 193.228 197.725 192.938 197.596 192.503C197.467 192.068 197.632 191.613 197.941 191.193C198.254 190.768 198.743 190.335 199.359 189.916C200.593 189.074 202.382 188.253 204.436 187.644C206.489 187.034 208.437 186.745 209.93 186.777C210.675 186.792 211.322 186.888 211.815 187.073C212.304 187.257 212.69 187.547 212.819 187.982C212.948 188.417 212.784 188.871 212.474 189.292C212.162 189.717 211.672 190.15 211.056 190.569C209.823 191.411 208.033 192.231 205.979 192.841Z" fill="#8EE896" stroke="black" stroke-width="0.5"/>
<path d="M212.789 141.226V187.962L197.942 193.192L166.897 161.641L212.789 141.226Z" fill="url(#paint0_linear_7602_4545)"/>
<path d="M181.345 196.908C181.631 197.874 182.529 198.654 184.005 199.208C185.476 199.761 187.475 200.069 189.871 200.119C194.66 200.22 200.975 199.291 207.676 197.301C214.377 195.312 220.175 192.643 224.133 189.945C226.113 188.595 227.62 187.246 228.552 185.98C229.486 184.711 229.812 183.567 229.525 182.601C229.239 181.636 228.341 180.855 226.865 180.301C225.394 179.749 223.395 179.441 220.999 179.391C216.21 179.29 209.895 180.219 203.194 182.208C196.493 184.198 190.695 186.866 186.737 189.564C184.757 190.914 183.25 192.264 182.318 193.529C181.384 194.799 181.058 195.943 181.345 196.908Z" stroke="black" stroke-opacity="0.5" stroke-width="0.5"/>
<path d="M289.413 339.437C286.366 340.104 283.512 340.314 281.356 340.11C280.279 340.008 279.362 339.801 278.68 339.486C278.002 339.173 277.51 338.731 277.38 338.135C277.249 337.539 277.512 336.931 277.997 336.364C278.486 335.793 279.233 335.223 280.168 334.681C282.042 333.595 284.724 332.595 287.771 331.929C290.818 331.262 293.673 331.052 295.829 331.256C296.905 331.358 297.822 331.565 298.505 331.88C299.182 332.193 299.674 332.635 299.805 333.231C299.935 333.827 299.673 334.435 299.187 335.002C298.699 335.573 297.952 336.143 297.016 336.685C295.142 337.771 292.46 338.771 289.413 339.437Z" fill="#8EE896" stroke="black" stroke-width="0.5"/>
<path d="M304.883 265.117L299.882 333.169L277.704 339.196L235.876 289.933L304.883 265.117Z" fill="url(#paint1_linear_7602_4545)"/>
<path d="M243.361 345.575C243.776 347.473 245.383 349.061 248.034 350.285C250.68 351.506 254.322 352.342 258.709 352.757C267.482 353.588 279.18 352.735 291.719 349.993C304.258 347.251 315.244 343.144 322.869 338.727C326.683 336.518 329.644 334.238 331.538 332.024C333.437 329.806 334.234 327.692 333.819 325.794C333.404 323.896 331.797 322.308 329.146 321.085C326.5 319.863 322.858 319.028 318.471 318.612C309.698 317.781 298 318.635 285.461 321.377C272.922 324.119 261.936 328.226 254.311 332.643C250.497 334.852 247.536 337.131 245.642 339.346C243.743 341.564 242.946 343.677 243.361 345.575Z" stroke="black" stroke-opacity="0.5" stroke-width="0.5"/>
</g>
<defs>
<linearGradient id="paint0_linear_7602_4545" x1="205.704" y1="189.48" x2="189.844" y2="151.011" gradientUnits="userSpaceOnUse">
<stop stop-color="#8EE896"/>
<stop offset="1" stop-color="#8EE896" stop-opacity="0"/>
</linearGradient>
<linearGradient id="paint1_linear_7602_4545" x1="289.402" y1="334.622" x2="270.426" y2="276.911" gradientUnits="userSpaceOnUse">
<stop stop-color="#8EE896"/>
<stop offset="1" stop-color="#8EE896" stop-opacity="0"/>
</linearGradient>
</defs>
</svg>
