<svg width="1046" height="368" viewBox="0 0 1046 368" fill="none" xmlns="http://www.w3.org/2000/svg">
<mask id="mask0_4595_29" style="mask-type:alpha" maskUnits="userSpaceOnUse" x="0" y="0" width="1051" height="476">
<rect width="1049.37" height="475.051" transform="matrix(-1 0 0 1 1050.35 0.832031)" fill="#D9D9D9"/>
</mask>
<g mask="url(#mask0_4595_29)">
<circle cx="1872.49" cy="1872.49" r="1872.24" transform="matrix(-1 0 0 1 3091.18 32.2764)" stroke="black" stroke-width="0.5"/>
<path d="M634.591 190.15C634.591 190.15 598.162 101.518 524.423 122.789C420.872 152.659 559.688 521.866 559.688 521.866" stroke="black" stroke-dasharray="3 3"/>
<path d="M715.607 323.141C715.607 323.141 689.095 231.978 804.269 249.765C917.479 267.249 1032.27 495.738 1032.27 495.738" stroke="black" stroke-dasharray="3 3"/>
<path d="M854.715 95.3708C854.715 95.3708 843.197 15.9029 935.071 28.11C1060.63 44.7927 1102.36 310.91 1102.36 310.91" stroke="black" stroke-dasharray="3 3"/>
<path d="M855.968 99.584C854.752 99.8046 853.613 99.8488 852.75 99.7359C852.321 99.6796 851.945 99.5825 851.66 99.4386C851.38 99.297 851.144 99.0855 851.088 98.7818C851.033 98.4781 851.181 98.1969 851.393 97.9659C851.609 97.7312 851.926 97.5083 852.309 97.3047C853.077 96.896 854.159 96.537 855.375 96.3164C856.59 96.0958 857.73 96.0516 858.592 96.1645C859.022 96.2208 859.397 96.3178 859.682 96.4618C859.962 96.6034 860.199 96.8149 860.254 97.1186C860.309 97.4222 860.161 97.7035 859.949 97.9345C859.733 98.1692 859.416 98.392 859.033 98.5957C858.265 99.0044 857.183 99.3633 855.968 99.584Z" fill="#8EE896" stroke="black" stroke-width="0.5"/>
<path d="M863.049 70.4993L860.132 97.1266L851.347 99.1798L835.629 79.266L863.049 70.4993Z" fill="url(#paint0_linear_4595_29)"/>
<path d="M837.936 101.168C838.06 101.85 838.618 102.465 839.622 102.972C840.622 103.478 842.02 103.854 843.727 104.077C847.137 104.524 851.722 104.355 856.669 103.457C861.615 102.56 865.967 101.107 869.003 99.4903C870.523 98.6813 871.7 97.8382 872.458 97.0136C873.22 96.1852 873.526 95.4138 873.403 94.7314C873.279 94.0491 872.721 93.4346 871.716 92.9267C870.717 92.4211 869.319 92.0453 867.612 91.8219C864.201 91.3753 859.616 91.5442 854.67 92.4419C849.723 93.3396 845.371 94.7924 842.335 96.4089C840.816 97.2179 839.639 98.061 838.881 98.8856C838.119 99.714 837.812 100.485 837.936 101.168Z" stroke="black" stroke-opacity="0.5" stroke-width="0.5"/>
<path d="M635.134 192.906C633.081 193.515 631.133 193.804 629.64 193.773C628.895 193.757 628.248 193.661 627.755 193.476C627.266 193.293 626.88 193.002 626.751 192.567C626.622 192.132 626.786 191.678 627.096 191.257C627.408 190.833 627.898 190.4 628.514 189.98C629.748 189.139 631.537 188.318 633.591 187.708C635.644 187.098 637.592 186.809 639.085 186.841C639.83 186.857 640.477 186.952 640.97 187.138C641.459 187.321 641.845 187.612 641.974 188.047C642.103 188.482 641.938 188.936 641.629 189.356C641.316 189.781 640.827 190.214 640.211 190.634C638.977 191.475 637.188 192.296 635.134 192.906Z" fill="#8EE896" stroke="black" stroke-width="0.5"/>
<path d="M641.945 141.29V188.026L627.098 193.256L596.053 161.705L641.945 141.29Z" fill="url(#paint1_linear_4595_29)"/>
<path d="M610.499 196.974C610.786 197.939 611.683 198.72 613.159 199.274C614.63 199.826 616.63 200.134 619.026 200.184C623.815 200.285 630.129 199.356 636.83 197.366C643.531 195.377 649.33 192.709 653.287 190.01C655.268 188.66 656.775 187.311 657.706 186.046C658.64 184.776 658.967 183.632 658.68 182.667C658.393 181.701 657.496 180.92 656.02 180.367C654.549 179.814 652.549 179.506 650.153 179.456C645.364 179.355 639.049 180.284 632.349 182.274C625.648 184.263 619.849 186.931 615.891 189.63C613.911 190.98 612.404 192.329 611.473 193.594C610.538 194.864 610.212 196.008 610.499 196.974Z" stroke="black" stroke-opacity="0.5" stroke-width="0.5"/>
<path d="M718.569 339.502C715.522 340.168 712.667 340.378 710.511 340.174C709.435 340.072 708.518 339.866 707.835 339.551C707.158 339.238 706.666 338.795 706.535 338.199C706.405 337.603 706.667 336.996 707.153 336.429C707.641 335.857 708.388 335.287 709.324 334.745C711.198 333.66 713.88 332.659 716.927 331.993C719.974 331.327 722.828 331.116 724.984 331.32C726.061 331.422 726.978 331.629 727.66 331.944C728.338 332.257 728.83 332.699 728.96 333.295C729.091 333.891 728.828 334.499 728.343 335.066C727.854 335.637 727.107 336.208 726.172 336.75C724.298 337.835 721.616 338.835 718.569 339.502Z" fill="#8EE896" stroke="black" stroke-width="0.5"/>
<path d="M734.038 265.181L729.037 333.233L706.859 339.26L665.031 289.997L734.038 265.181Z" fill="url(#paint2_linear_4595_29)"/>
<path d="M672.517 345.64C672.932 347.538 674.538 349.126 677.189 350.349C679.835 351.57 683.477 352.406 687.865 352.822C696.638 353.653 708.335 352.799 720.874 350.057C733.413 347.315 744.4 343.208 752.025 338.791C755.839 336.582 758.799 334.303 760.694 332.088C762.592 329.87 763.389 327.756 762.974 325.858C762.559 323.96 760.953 322.373 758.302 321.149C755.656 319.928 752.014 319.092 747.626 318.676C738.853 317.846 727.156 318.699 714.617 321.441C702.078 324.183 691.091 328.29 683.466 332.707C679.652 334.916 676.692 337.195 674.797 339.41C672.899 341.628 672.102 343.742 672.517 345.64Z" stroke="black" stroke-opacity="0.5" stroke-width="0.5"/>
</g>
<defs>
<linearGradient id="paint0_linear_4595_29" x1="856" y1="97.5495" x2="849.366" y2="74.6424" gradientUnits="userSpaceOnUse">
<stop stop-color="#8EE896"/>
<stop offset="1" stop-color="#8EE896" stop-opacity="0"/>
</linearGradient>
<linearGradient id="paint1_linear_4595_29" x1="634.859" y1="189.545" x2="619" y2="151.076" gradientUnits="userSpaceOnUse">
<stop stop-color="#8EE896"/>
<stop offset="1" stop-color="#8EE896" stop-opacity="0"/>
</linearGradient>
<linearGradient id="paint2_linear_4595_29" x1="718.557" y1="334.686" x2="699.581" y2="276.975" gradientUnits="userSpaceOnUse">
<stop stop-color="#8EE896"/>
<stop offset="1" stop-color="#8EE896" stop-opacity="0"/>
</linearGradient>
</defs>
</svg>
