<svg width="624" height="476" viewBox="0 0 624 476" fill="none" xmlns="http://www.w3.org/2000/svg">
<path d="M729.531 226.179L144.185 575.561" stroke="black" stroke-width="0.5" stroke-linecap="round" stroke-linejoin="round"/>
<path d="M581.94 329.902C572.565 325.182 561.471 325.36 552.253 330.378L371.786 428.607L371.32 430.432C369.134 439.001 372.835 447.989 380.422 452.533L445.466 491.495C455.501 497.507 468.016 497.563 478.105 491.643L646.625 392.755C655.133 387.763 659.277 377.719 656.766 368.18L656.582 367.478L581.94 329.902Z" fill="url(#paint0_linear_60_2222)" stroke="black" stroke-width="0.5" stroke-linecap="round" stroke-linejoin="round"/>
<path d="M583.214 322.013C573.196 316.034 560.717 315.981 550.648 321.875L375.679 424.299C369.77 427.757 369.734 436.285 375.613 439.794L445.5 481.504C455.519 487.483 467.997 487.536 478.066 481.642L653.036 379.22C658.944 375.761 658.98 367.234 653.101 363.725L583.214 322.013Z" fill="#B4F9BA" stroke="black" stroke-width="0.5" stroke-linecap="round" stroke-linejoin="round"/>
<path d="M834.118 182.963C824.597 178.019 813.234 178.175 803.852 183.377L623.218 283.536V283.536C621.038 291.842 624.605 300.59 631.972 305.003L697.368 344.176C707.403 350.187 719.919 350.244 730.007 344.324L902.049 243.369C908.78 239.419 912.915 232.199 912.915 224.394V223.884L834.118 182.963Z" fill="url(#paint1_linear_60_2222)" stroke="black" stroke-width="0.5" stroke-linecap="round" stroke-linejoin="round"/>
<path d="M835.116 174.694C825.098 168.715 812.619 168.662 802.55 174.556L627.581 276.979C621.672 280.438 621.636 288.966 627.515 292.475L697.403 334.185C707.421 340.164 719.899 340.217 729.968 334.323L904.938 231.901C910.846 228.442 910.883 219.914 905.004 216.405L835.116 174.694Z" fill="#B4F9BA" stroke="black" stroke-width="0.5" stroke-linecap="round" stroke-linejoin="round"/>
<path d="M796.732 305.056L274.361 611.12" stroke="black" stroke-width="0.5" stroke-linecap="round" stroke-linejoin="round"/>
<path d="M724.822 219.644L122.344 573.534" stroke="black" stroke-width="0.5" stroke-linecap="round" stroke-linejoin="round"/>
<path d="M322.893 474.521C312.875 468.542 300.396 468.489 290.327 474.383L115.358 576.806C109.449 580.265 109.413 588.793 115.292 592.302L185.18 634.012C195.198 639.991 207.677 640.044 217.745 634.15L392.715 531.728C398.624 528.269 398.66 519.741 392.781 516.233L322.893 474.521Z" fill="#B4F9BA" stroke="black" stroke-width="0.5" stroke-linecap="round" stroke-linejoin="round"/>
<path d="M789.343 299.751L257.929 611.115" stroke="black" stroke-width="0.5" stroke-linecap="round" stroke-linejoin="round"/>
<path d="M690.453 61.1797L-9.06337 478.707" stroke="black" stroke-width="0.5" stroke-linecap="round" stroke-linejoin="round"/>
<path d="M542.862 164.902C533.487 160.182 522.393 160.36 513.174 165.378L332.708 263.607L332.242 265.432C330.056 274.001 333.757 282.989 341.344 287.533L406.388 326.495C416.423 332.507 428.938 332.563 439.027 326.643L607.547 227.755C616.054 222.763 620.199 212.719 617.688 203.18L617.504 202.478L542.862 164.902Z" fill="url(#paint2_linear_60_2222)" stroke="black" stroke-width="0.5" stroke-linecap="round" stroke-linejoin="round"/>
<path d="M544.136 157.013C534.118 151.034 521.639 150.981 511.57 156.875L336.6 259.299C330.692 262.757 330.656 271.285 336.535 274.794L406.422 316.504C416.441 322.483 428.919 322.536 438.988 316.642L613.957 214.22C619.866 210.761 619.902 202.234 614.023 198.725L544.136 157.013Z" fill="#B4F9BA" stroke="black" stroke-width="0.5" stroke-linecap="round" stroke-linejoin="round"/>
<path d="M795.039 17.9633C785.519 13.0194 774.155 13.1746 764.774 18.3765L584.14 118.536V118.536C581.96 126.842 585.527 135.59 592.894 140.003L658.29 179.176C668.325 185.187 680.84 185.244 690.929 179.324L862.971 78.3689C869.702 74.4191 873.837 67.1988 873.837 59.3945V58.8835L795.039 17.9633Z" fill="url(#paint3_linear_60_2222)" stroke="black" stroke-width="0.5" stroke-linecap="round" stroke-linejoin="round"/>
<path d="M796.038 9.69394C786.02 3.71456 773.541 3.66156 763.472 9.55565L588.503 111.979C582.594 115.438 582.558 123.966 588.437 127.475L658.325 169.185C668.343 175.164 680.821 175.217 690.89 169.323L865.86 66.9007C871.768 63.442 871.805 54.9142 865.926 51.4054L796.038 9.69394Z" fill="#B4F9BA" stroke="black" stroke-width="0.5" stroke-linecap="round" stroke-linejoin="round"/>
<path d="M757.654 140.056L235.283 446.12" stroke="black" stroke-width="0.5" stroke-linecap="round" stroke-linejoin="round"/>
<path d="M685.744 54.6445L-19.6737 469" stroke="black" stroke-width="0.5" stroke-linecap="round" stroke-linejoin="round"/>
<path d="M282.713 317.696C273.249 312.806 261.972 312.947 252.633 318.072L72.3234 417.006L72.105 417.827C69.8148 426.445 73.5068 435.539 81.1567 440.121L146.067 479.003C156.102 485.014 168.618 485.071 178.706 479.151L347.899 379.868C356.02 375.103 360.004 365.537 357.666 356.416V356.416L282.713 317.696Z" fill="url(#paint4_linear_60_2222)" stroke="black" stroke-width="0.5" stroke-linecap="round" stroke-linejoin="round"/>
<path d="M283.815 309.521C273.797 303.542 261.318 303.489 251.249 309.383L76.2798 411.806C70.3712 415.265 70.3351 423.793 76.2141 427.302L146.102 469.012C156.12 474.991 168.598 475.044 178.667 469.15L353.637 366.728C359.545 363.269 359.582 354.741 353.703 351.233L283.815 309.521Z" fill="#B4F9BA" stroke="black" stroke-width="0.5" stroke-linecap="round" stroke-linejoin="round"/>
<path d="M750.266 134.752L146.078 488.754" stroke="black" stroke-width="0.5" stroke-linecap="round" stroke-linejoin="round"/>
<defs>
<linearGradient id="paint0_linear_60_2222" x1="450.576" y1="476.131" x2="471.831" y2="476.131" gradientUnits="userSpaceOnUse">
<stop stop-color="#B4F9BA"/>
<stop offset="1" stop-color="#66E070"/>
</linearGradient>
<linearGradient id="paint1_linear_60_2222" x1="702.479" y1="328.812" x2="723.733" y2="328.812" gradientUnits="userSpaceOnUse">
<stop stop-color="#B4F9BA"/>
<stop offset="1" stop-color="#66E070"/>
</linearGradient>
<linearGradient id="paint2_linear_60_2222" x1="411.498" y1="311.131" x2="432.753" y2="311.131" gradientUnits="userSpaceOnUse">
<stop stop-color="#B4F9BA"/>
<stop offset="1" stop-color="#66E070"/>
</linearGradient>
<linearGradient id="paint3_linear_60_2222" x1="663.401" y1="163.812" x2="684.655" y2="163.812" gradientUnits="userSpaceOnUse">
<stop stop-color="#B4F9BA"/>
<stop offset="1" stop-color="#66E070"/>
</linearGradient>
<linearGradient id="paint4_linear_60_2222" x1="151.178" y1="463.639" x2="172.432" y2="463.639" gradientUnits="userSpaceOnUse">
<stop stop-color="#B4F9BA"/>
<stop offset="1" stop-color="#66E070"/>
</linearGradient>
</defs>
</svg>
