<svg width="390" height="285" viewBox="0 0 390 285" fill="none" xmlns="http://www.w3.org/2000/svg">
<path d="M316.979 62.1084L-382.537 479.636" stroke="black" stroke-width="0.5" stroke-linecap="round" stroke-linejoin="round"/>
<path d="M169.388 165.83C160.013 161.111 148.92 161.289 139.701 166.307L-40.7659 264.536L-41.2315 266.361C-43.4176 274.93 -39.7163 283.917 -32.1296 288.462L32.9143 327.424C42.9493 333.435 55.4646 333.492 65.5535 327.571L234.074 228.683C242.581 223.691 246.726 213.647 244.215 204.109L244.03 203.407L169.388 165.83Z" fill="url(#paint0_linear_7602_4176)" stroke="black" stroke-width="0.5" stroke-linecap="round" stroke-linejoin="round"/>
<path d="M170.662 157.942C160.644 151.963 148.165 151.91 138.096 157.804L-36.8733 260.227C-42.7819 263.686 -42.8181 272.214 -36.939 275.723L32.9485 317.433C42.9669 323.412 55.4453 323.465 65.514 317.571L240.484 215.149C246.392 211.69 246.429 203.162 240.55 199.653L170.662 157.942Z" fill="#B4F9BA" stroke="black" stroke-width="0.5" stroke-linecap="round" stroke-linejoin="round"/>
<path d="M421.566 18.8918C412.046 13.9479 400.682 14.1031 391.3 19.305L210.666 119.464C208.486 127.77 212.053 136.519 219.421 140.932L284.817 180.105C294.852 186.116 307.367 186.172 317.456 180.252L489.498 79.2973C496.229 75.3475 500.363 68.1273 500.363 60.3229V59.812L421.566 18.8918Z" fill="url(#paint1_linear_7602_4176)" stroke="black" stroke-width="0.5" stroke-linecap="round" stroke-linejoin="round"/>
<path d="M422.565 10.6227C412.546 4.64327 400.067 4.59027 389.999 10.4844L215.029 112.908C209.12 116.367 209.084 124.895 214.963 128.403L284.851 170.114C294.869 176.093 307.348 176.146 317.416 170.252L492.386 67.8294C498.295 64.3707 498.331 55.843 492.452 52.3341L422.565 10.6227Z" fill="#B4F9BA" stroke="black" stroke-width="0.5" stroke-linecap="round" stroke-linejoin="round"/>
<path d="M384.179 140.984L-138.191 447.048" stroke="black" stroke-width="0.5" stroke-linecap="round" stroke-linejoin="round"/>
<path d="M312.269 55.5732L-393.148 469.929" stroke="black" stroke-width="0.5" stroke-linecap="round" stroke-linejoin="round"/>
<path d="M376.791 135.681L-227.396 489.683" stroke="black" stroke-width="0.5" stroke-linecap="round" stroke-linejoin="round"/>
<path d="M516.222 137.307L-183.295 554.834" stroke="black" stroke-width="0.5" stroke-linecap="round" stroke-linejoin="round"/>
<path d="M368.63 241.029C359.255 236.309 348.162 236.487 338.943 241.505L158.476 339.734L158.011 341.559C155.825 350.128 159.526 359.116 167.113 363.66L232.156 402.622C242.191 408.633 254.707 408.69 264.796 402.77L433.316 303.881C441.823 298.889 445.968 288.845 443.457 279.307L443.272 278.605L368.63 241.029Z" fill="url(#paint2_linear_7602_4176)" stroke="black" stroke-width="0.5" stroke-linecap="round" stroke-linejoin="round"/>
<path d="M369.904 233.14C359.886 227.161 347.407 227.108 337.338 233.002L162.369 335.426C156.46 338.884 156.424 347.412 162.303 350.921L232.191 392.631C242.209 398.61 254.688 398.663 264.756 392.769L439.726 290.347C445.635 286.888 445.671 278.361 439.792 274.852L369.904 233.14Z" fill="#B4F9BA" stroke="black" stroke-width="0.5" stroke-linecap="round" stroke-linejoin="round"/>
<path d="M583.421 216.183L61.0508 522.247" stroke="black" stroke-width="0.5" stroke-linecap="round" stroke-linejoin="round"/>
<path d="M511.511 130.771L-193.906 545.127" stroke="black" stroke-width="0.5" stroke-linecap="round" stroke-linejoin="round"/>
<path d="M576.033 210.879L-28.1543 564.881" stroke="black" stroke-width="0.5" stroke-linecap="round" stroke-linejoin="round"/>
<path d="M846.222 137.307L146.705 554.834" stroke="black" stroke-width="0.5" stroke-linecap="round" stroke-linejoin="round"/>
<path d="M841.511 130.771L136.094 545.127" stroke="black" stroke-width="0.5" stroke-linecap="round" stroke-linejoin="round"/>
<path d="M906.033 210.879L301.846 564.881" stroke="black" stroke-width="0.5" stroke-linecap="round" stroke-linejoin="round"/>
<defs>
<linearGradient id="paint0_linear_7602_4176" x1="38.0247" y1="312.06" x2="59.2793" y2="312.06" gradientUnits="userSpaceOnUse">
<stop stop-color="#B4F9BA"/>
<stop offset="1" stop-color="#66E070"/>
</linearGradient>
<linearGradient id="paint1_linear_7602_4176" x1="289.927" y1="164.74" x2="311.182" y2="164.74" gradientUnits="userSpaceOnUse">
<stop stop-color="#B4F9BA"/>
<stop offset="1" stop-color="#66E070"/>
</linearGradient>
<linearGradient id="paint2_linear_7602_4176" x1="237.267" y1="387.258" x2="258.521" y2="387.258" gradientUnits="userSpaceOnUse">
<stop stop-color="#B4F9BA"/>
<stop offset="1" stop-color="#66E070"/>
</linearGradient>
</defs>
</svg>
