<svg width="313" height="254" viewBox="0 0 313 254" fill="none" xmlns="http://www.w3.org/2000/svg">
<path d="M162.324 479.607C160.343 478.4 163.952 468.136 172.759 449.83C181.566 431.524 195.275 405.829 212.499 375.316C229.723 344.804 249.858 310.561 270.884 276.037C291.919 241.496 313.098 207.898 332.287 178.584C351.492 149.28 368.035 125.31 380.254 109.091C392.482 92.8573 399.953 84.9552 401.934 86.1624M133.389 458.784C125.161 451.823 123.945 436.853 129.852 415.385C135.775 393.925 148.63 366.699 167.116 336.478C185.601 306.256 209.089 274.091 235.195 243.228C261.311 212.349 289.12 183.856 315.833 160.596C342.563 137.346 367.252 120.141 387.435 110.738C407.618 101.336 422.58 100.051 430.818 106.997M105.166 430.36C93.3042 416.121 89.842 395.334 95.0949 370.074C100.348 344.815 114.167 315.968 135.137 286.436C156.107 256.904 183.498 227.726 214.561 201.837C245.624 175.948 279.262 154.27 312.077 138.969C344.909 123.677 375.762 115.285 401.572 114.656C427.373 114.043 447.202 121.195 459.047 135.426M77.8716 389.383C66.3106 367.227 64.387 340.524 72.3045 311.98C80.2219 283.435 97.7007 254.056 122.96 226.777C148.236 199.506 180.407 175.31 216.254 156.606C252.101 137.9 290.372 125.391 327.192 120.27C364.029 115.157 398.124 117.662 426.054 127.502C453.983 137.342 474.775 154.213 486.336 176.371M56.2639 328.149C50.4149 298.966 55.1046 268.198 69.8613 238.945C84.6178 209.693 108.916 182.98 140.327 161.51C171.739 140.038 209.144 124.548 248.786 116.596C288.429 108.644 328.913 108.531 366.173 116.244C403.434 123.956 436.148 139.234 461.034 160.534C485.92 181.835 502.105 208.435 507.955 237.619M55.4983 241.62C61.3209 209.627 77.5144 180.115 102.458 156.046C127.384 131.966 160.181 114.174 197.554 104.445C234.919 94.732 275.532 93.4197 315.309 100.676C355.096 107.915 392.641 123.462 424.167 145.732C455.693 168.003 480.128 196.211 494.963 227.536C509.796 258.863 514.556 292.184 508.732 324.177M95.7552 147.519C125.1 107.137 172.865 82.6543 228.567 79.4805C284.269 76.3068 343.324 94.6985 392.745 130.594C442.166 166.488 477.92 216.977 492.121 270.912C506.313 324.863 497.819 377.858 468.491 418.249M167.005 83.3731C207.984 59.7359 259.419 58.0726 309.987 78.7796C360.555 99.4878 406.112 140.825 436.631 193.755C467.161 246.666 480.157 306.81 472.751 360.948C465.346 415.087 438.169 458.785 397.19 482.422M236.844 57.0398C277.525 48.8869 321.303 64.8548 358.562 101.454C395.821 138.055 423.484 192.244 435.496 252.142C447.507 312.039 442.846 372.725 422.574 420.84C402.302 468.955 368.054 500.578 327.375 508.731M292.332 52.7819C325.13 54.2434 355.515 79.8901 376.795 124.067C398.075 168.243 408.492 227.363 405.799 288.388C403.081 349.42 387.463 407.362 362.346 449.489C337.228 491.614 304.702 514.471 271.905 513.008M335.552 58.8416C356.895 63.9258 371.725 92.4251 376.796 138.035C381.866 183.644 376.755 242.658 362.574 302.087C348.402 361.501 326.322 416.482 301.213 454.904C276.104 493.326 250.008 512.057 228.673 506.958M370.938 70.3569C379.755 74.0453 378.835 99.9654 368.409 142.424C357.983 184.882 338.9 240.404 315.342 296.763C291.786 353.121 265.7 405.726 242.794 442.979C219.913 480.223 202.104 499.094 193.287 495.404M203.244 499.324C180.761 491.128 158.928 479.005 140.086 464.252M287.24 513.177C251.762 513.979 210.222 502.444 171.978 481.207C133.733 459.97 102.008 430.797 83.9086 400.266M342.134 505.286C297.019 517.464 234.007 505.304 176.386 473.306C118.764 441.309 75.1332 394.25 61.6219 349.516M387.758 487.569C363.976 499.845 331.701 503.847 295.217 499.045C258.733 494.242 219.718 480.877 183.386 460.702C147.053 440.526 115.074 414.489 91.7209 386.042C68.3583 357.611 54.6944 328.098 52.5419 301.421M426.424 462.431C403.183 481.108 367.455 489.423 325.039 486.026C282.622 482.63 236.014 467.72 192.794 443.72C149.573 419.72 112.279 388.038 86.9734 353.827C61.6674 319.618 49.8404 284.895 53.4082 255.293M458.431 431.115C437.519 456.001 400.04 468.907 353.191 467.36C306.332 465.829 253.361 449.953 204.44 422.786C155.518 395.621 114.04 359.049 87.97 320.081C61.8999 281.114 53.0433 242.478 63.104 211.589M483.494 394.716C472.231 414.999 451.867 429.735 424.45 437.491C397.016 445.238 363.51 445.711 327.267 438.844C291.025 431.977 253.342 418.036 217.982 398.401C182.622 378.765 150.867 354.147 125.88 327.013C100.892 299.878 83.5654 271.177 75.6555 243.804C67.7291 216.42 69.4982 191.339 80.7527 171.071M483.494 394.716C453.839 448.119 404.168 487.562 345.431 504.357C286.693 521.151 223.705 513.919 170.285 484.255C116.881 454.6 77.4382 404.93 60.6346 346.208C43.8401 287.47 51.0718 224.482 80.7362 171.062C110.391 117.659 160.062 78.216 218.783 61.4124C277.521 44.617 340.509 51.8493 393.929 81.514C447.332 111.169 486.775 160.839 503.579 219.56C520.374 278.298 513.149 341.312 483.494 394.716ZM501.143 354.199C493.455 377.826 475.051 395.826 448.047 406.14C421.049 416.436 386.567 418.631 348.549 412.438C310.522 406.262 270.502 391.95 233.097 371.18C195.677 350.4 162.39 324.003 137.044 294.989C111.699 265.975 95.3075 235.551 89.7937 207.201C84.2635 178.841 89.8311 153.714 105.816 134.671M510.797 310.492C507.601 336.939 492.281 357.966 466.853 370.836C441.415 383.723 407.035 387.829 368.238 382.648C329.443 377.468 288.028 363.222 249.421 341.784C210.814 320.345 176.829 292.72 151.923 262.528C127.017 232.334 112.328 200.98 109.82 172.574C107.312 144.169 117.063 120.048 137.813 103.373M511.704 264.365C514.011 292.94 502.983 316.759 480.293 332.229C457.604 347.699 424.487 353.993 385.92 350.147C347.353 346.301 305.453 332.541 266.534 310.929C227.614 289.317 193.767 261.015 170.132 230.32C146.479 199.615 134.316 168.176 135.453 140.738C136.59 113.3 150.996 91.3564 176.454 78.1993M502.625 216.272C511.641 246.156 506.441 272.524 487.928 290.722C469.415 308.921 438.787 317.761 401.459 315.681C364.149 313.611 322.557 300.733 284.065 279.359C245.574 257.984 212.672 229.495 191.175 198.909C169.694 168.332 161.006 137.66 166.667 112.325C172.329 86.9898 191.971 68.6208 222.097 60.493M480.305 165.503C498.08 195.531 501.21 224.41 488.985 245.842C476.761 267.274 450.185 279.529 415.072 279.908C379.949 280.303 339.124 268.8 301.523 247.92C263.921 227.038 232.575 198.465 214.344 168.442C196.113 138.421 192.458 109.4 204.188 87.6931C215.919 65.9879 242.087 53.3765 276.973 52.592M424.135 101.543C449.3 121.252 467.641 144.479 475.797 166.945C483.936 189.401 481.333 209.579 468.437 223.718C455.541 237.856 433.255 244.991 405.683 243.823C378.112 242.654 347.143 233.24 318.522 217.346C289.884 201.443 265.538 180.141 249.971 157.354C234.405 134.569 228.68 111.878 233.865 93.4579C239.049 75.0375 254.784 62.1515 278.166 57.1998C301.531 52.2374 330.959 55.5365 360.993 66.4798M455.158 186.679C447.435 200.586 430.384 208.58 407.786 208.901C385.17 209.213 358.856 201.822 334.617 188.362C310.362 174.894 290.178 156.464 278.504 137.11C266.813 117.748 264.592 99.0735 272.325 85.151C280.047 71.2441 297.098 63.25 319.697 62.9288C342.312 62.6171 368.628 70.007 392.865 83.4674C417.104 96.9266 437.305 115.366 448.979 134.719C460.653 154.073 462.881 172.772 455.158 186.679ZM431.459 160.563C426.198 170.036 414.598 175.474 399.218 175.685C383.836 175.898 365.906 170.878 349.412 161.719C332.919 152.559 319.169 140.01 311.228 126.825C303.277 113.656 301.76 100.936 307.021 91.4615C312.283 81.9868 323.882 76.5492 339.264 76.3378C354.644 76.1265 372.575 81.1462 389.068 90.3057C405.563 99.4639 419.311 112.014 427.254 125.199C435.205 138.367 436.721 151.088 431.459 160.563ZM404.087 137.45C398.542 147.436 379.945 147.693 362.544 138.031C345.144 128.369 335.532 112.445 341.078 102.461C346.623 92.4752 365.22 92.2173 382.619 101.879C400.02 111.542 409.632 127.465 404.087 137.45Z" stroke="white" stroke-width="0.464542"/>
<circle opacity="0.3" cx="278.53" cy="278.206" r="225.668" fill="url(#paint0_radial_22821_3)"/>
<path d="M469.595 408.069C473.106 422.583 475.178 436.273 475.797 449.039L475.793 449.031C476.32 459.9 475.796 470.102 474.214 479.562C470.653 500.892 461.85 517.515 448.049 528.979C427.375 546.153 397.07 550.168 360.413 540.586L360.577 539.968C397.025 549.495 427.134 545.526 447.642 528.489C474.724 505.99 482.297 463.277 468.968 408.217C455.618 353.078 422.912 292.186 376.865 236.757C330.819 181.328 276.96 138.007 225.203 114.774C173.52 91.5738 130.142 91.1851 103.059 113.684C85.3573 128.388 75.9288 151.853 75.3848 182.127L74.7344 182.676C75.1762 151.935 84.6913 128.111 102.651 113.191C116.45 101.726 134.408 96.1241 156.029 96.5304C176.881 96.9257 200.242 102.867 225.47 114.191C250.68 125.509 276.489 141.633 302.176 162.12C328.765 183.325 354.06 208.299 377.363 236.35C400.665 264.399 420.575 293.848 436.546 323.875C451.975 352.882 463.092 381.209 469.595 408.069Z" stroke="#A3F5AA" stroke-width="0.48" stroke-linejoin="bevel" stroke-dasharray="4 4"/>
<path d="M411.26 467.995C407.043 482.32 401.993 495.211 396.146 506.576L396.146 506.567C391.168 516.244 385.613 524.818 379.513 532.219C365.764 548.91 349.829 558.905 332.146 561.933C305.654 566.469 277.402 554.793 250.446 528.167L250.898 527.714C277.699 554.188 305.758 565.806 332.038 561.305C366.741 555.361 394.656 522.157 410.643 467.81C426.651 413.382 428.772 344.296 416.609 273.269C404.447 202.244 379.464 137.796 346.258 91.7982C313.099 45.8643 275.727 23.8384 241.022 29.7817C218.341 33.665 198.443 49.2724 182.835 75.2177L181.997 75.368C197.75 48.9664 217.902 33.0924 240.916 29.1507C258.599 26.1216 276.951 30.2487 295.473 41.4114C313.334 52.1797 330.594 69.0058 346.78 91.4267C362.954 113.833 377.243 140.701 389.246 171.287C401.669 202.945 411.089 237.221 417.245 273.165C423.4 309.108 425.918 344.566 424.735 378.556C423.594 411.391 419.059 441.482 411.26 467.995Z" stroke="#A3F5AA" stroke-width="0.48" stroke-linejoin="bevel" stroke-dasharray="4 4"/>
<defs>
<radialGradient id="paint0_radial_22821_3" cx="0" cy="0" r="1" gradientUnits="userSpaceOnUse" gradientTransform="translate(145.579 112.361) rotate(50.5993) scale(166.781)">
<stop stop-color="#A6A6A6"/>
<stop offset="1" stop-color="#474747"/>
</radialGradient>
</defs>
</svg>
