<svg width="387" height="208" viewBox="0 0 387 208" fill="none" xmlns="http://www.w3.org/2000/svg">
<path d="M126.168 442.567C124.338 441.452 127.672 431.971 135.807 415.061C143.943 398.151 156.606 374.415 172.516 346.23C188.426 318.045 207.026 286.414 226.448 254.522C245.879 222.616 265.442 191.58 283.168 164.502C300.909 137.433 316.19 115.291 327.477 100.31C338.772 85.3135 345.674 78.0141 347.503 79.1292M99.44 423.332C91.8395 416.902 90.7156 403.074 96.1722 383.242C101.644 363.42 113.518 338.27 130.594 310.354C147.67 282.436 169.366 252.725 193.481 224.216C217.606 195.692 243.294 169.372 267.969 147.886C292.661 126.409 315.467 110.516 334.11 101.831C352.754 93.1457 366.575 91.9589 374.184 98.3749M73.369 397.076C62.4121 383.923 59.214 364.721 64.0662 341.388C68.9183 318.055 81.6838 291.408 101.054 264.128C120.425 236.848 145.727 209.896 174.421 185.982C203.115 162.067 234.188 142.043 264.499 127.908C294.828 113.782 323.327 106.031 347.169 105.449C371.002 104.884 389.319 111.49 400.261 124.636M48.1565 359.224C37.4773 338.757 35.7004 314.092 43.0141 287.724C50.3276 261.356 66.4734 234.218 89.8061 209.019C113.154 183.829 142.872 161.478 175.985 144.2C209.098 126.921 244.45 115.366 278.462 110.636C312.49 105.913 343.984 108.227 369.784 117.316C395.583 126.406 414.789 141.99 425.468 162.457M28.1969 302.66C22.794 275.703 27.126 247.281 40.7572 220.26C54.3882 193.238 76.8334 168.562 105.849 148.73C134.865 128.896 169.417 114.587 206.035 107.242C242.655 99.8959 280.051 99.7922 314.47 106.916C348.889 114.04 379.108 128.153 402.096 147.829C425.084 167.505 440.035 192.077 445.438 219.034M27.4896 222.73C32.8682 193.177 47.8266 165.916 70.8676 143.683C93.8932 121.439 124.188 105.005 158.711 96.0179C193.227 87.0452 230.742 85.833 267.485 92.5358C304.237 99.2231 338.919 113.584 368.041 134.155C397.163 154.728 419.734 180.784 433.437 209.721C447.139 238.658 451.536 269.438 446.156 298.991M64.6762 135.806C91.7827 98.5039 135.905 75.8886 187.359 72.9569C238.812 70.0252 293.363 87.0143 339.015 120.172C384.667 153.328 417.694 199.967 430.812 249.788C443.922 299.625 436.075 348.578 408.984 385.888M130.492 76.5526C168.346 54.7182 215.857 53.1818 262.569 72.3095C309.28 91.4383 351.363 129.623 379.555 178.516C407.755 227.392 419.76 282.948 412.92 332.958C406.079 382.968 380.975 423.333 343.121 445.168M195.005 52.2277C232.583 44.6966 273.022 59.4467 307.439 93.2549C341.856 127.064 367.41 177.12 378.506 232.45C389.601 287.779 385.296 343.837 366.569 388.282C347.843 432.727 316.208 461.938 278.631 469.469M246.261 48.2945C276.557 49.6445 304.624 73.3353 324.282 114.143C343.939 154.95 353.561 209.561 351.074 265.932C348.563 322.309 334.137 375.832 310.935 414.745C287.732 453.658 257.688 474.771 227.391 473.42M286.184 53.8921C305.899 58.5886 319.598 84.9142 324.283 127.046C328.966 169.176 324.245 223.689 311.145 278.586C298.054 333.469 277.658 384.256 254.465 419.747C231.27 455.24 207.165 472.542 187.457 467.831M318.872 64.5291C327.016 67.9362 326.167 91.8795 316.535 131.1C306.904 170.319 289.277 221.608 267.516 273.668C245.757 325.728 221.66 374.32 200.501 408.732C179.364 443.136 162.914 460.567 154.769 457.159M163.967 460.78C143.199 453.209 123.031 442.011 105.626 428.383M241.557 473.577C208.785 474.317 170.413 463.662 135.086 444.045C99.7578 424.427 70.4524 397.48 53.7332 369.277M292.265 466.287C250.59 477.536 192.384 466.304 139.158 436.746C85.9305 407.19 45.627 363.72 33.1462 322.397M334.409 449.921C312.44 461.261 282.627 464.958 248.926 460.522C215.224 456.086 179.185 443.74 145.624 425.103C112.061 406.467 82.5218 382.415 60.9496 356.138C39.3688 329.875 26.747 302.613 24.7587 277.97M370.125 426.701C348.657 443.953 315.654 451.634 276.473 448.496C237.291 445.359 194.238 431.587 154.314 409.417C114.39 387.247 79.94 357.981 56.5642 326.38C33.1882 294.78 22.2632 262.705 25.5589 235.361M399.692 397.773C380.374 420.761 345.754 432.683 302.478 431.254C259.193 429.84 210.262 415.175 165.072 390.08C119.881 364.986 81.5666 331.203 57.4848 295.208C33.403 259.212 25.2218 223.523 34.5152 194.99M422.843 364.15C412.439 382.886 393.629 396.498 368.302 403.663C342.96 410.819 312.01 411.256 278.531 404.912C245.053 398.569 210.244 385.692 177.581 367.554C144.918 349.415 115.585 326.675 92.5036 301.61C69.4215 276.545 53.4161 250.033 46.1094 224.748C38.7876 199.452 40.4217 176.284 50.8179 157.562M422.843 364.15C395.45 413.48 349.567 449.915 295.31 465.429C241.051 480.942 182.868 474.262 133.522 446.861C84.1911 419.467 47.7562 373.585 32.2342 319.342C16.7206 265.083 23.4007 206.899 50.8027 157.554C78.1961 108.223 124.078 71.7889 178.321 56.2668C232.579 40.7524 290.763 47.4331 340.109 74.8353C389.44 102.229 425.874 148.11 441.396 202.353C456.91 256.611 450.236 314.82 422.843 364.15ZM439.146 326.723C432.044 348.548 415.044 365.176 390.099 374.703C365.161 384.214 333.308 386.241 298.19 380.52C263.063 374.816 226.095 361.595 191.543 342.409C156.977 323.214 126.229 298.83 102.816 272.029C79.4044 245.228 64.2627 217.124 59.1694 190.936C54.061 164.74 59.2039 141.529 73.9698 123.938M448.064 286.35C445.112 310.779 430.96 330.203 407.471 342.092C383.973 353.996 352.215 357.788 316.378 353.002C280.541 348.218 242.285 335.058 206.622 315.255C170.96 295.451 139.567 269.933 116.56 242.043C93.5538 214.153 79.9846 185.19 77.6681 158.95C75.3514 132.711 84.3586 110.43 103.527 95.0274M448.902 243.741C451.033 270.136 440.846 292.139 419.886 306.429C398.927 320.719 368.336 326.533 332.71 322.981C297.086 319.428 258.381 306.717 222.43 286.753C186.479 266.79 155.213 240.646 133.381 212.292C111.532 183.929 100.296 154.888 101.347 129.543C102.397 104.197 115.704 83.9271 139.221 71.7734M440.515 199.315C448.843 226.921 444.04 251.277 426.939 268.088C409.838 284.898 381.546 293.065 347.065 291.143C312.6 289.231 274.18 277.335 238.624 257.591C203.068 237.847 172.676 211.53 152.818 183.277C132.976 155.032 124.951 126.699 130.18 103.296C135.41 79.8935 153.554 62.9254 181.382 55.4175M419.897 152.418C436.317 180.157 439.208 206.833 427.916 226.631C416.623 246.428 392.075 257.749 359.639 258.098C327.196 258.463 289.484 247.837 254.75 228.55C220.017 209.261 191.061 182.867 174.22 155.134C157.38 127.402 154.004 100.594 164.839 80.5432C175.675 60.4934 199.848 48.8438 232.073 48.1191M368.011 93.3365C391.257 111.542 408.199 132.998 415.733 153.751C423.251 174.494 420.847 193.133 408.935 206.194C397.022 219.254 376.436 225.844 350.967 224.765C325.498 223.686 296.891 214.99 270.453 200.308C244 185.618 221.51 165.941 207.131 144.892C192.751 123.844 187.464 102.884 192.253 85.8683C197.042 68.8528 211.577 56.9495 233.175 52.3755C254.758 47.7916 281.942 50.8391 309.685 60.9478M396.668 171.979C389.534 184.826 373.784 192.21 352.909 192.507C332.018 192.795 307.711 185.967 285.32 173.535C262.916 161.093 244.271 144.069 233.487 126.191C222.688 108.306 220.637 91.0556 227.779 78.1949C234.912 65.3487 250.663 57.9643 271.539 57.6676C292.429 57.3797 316.737 64.206 339.126 76.6398C361.517 89.0724 380.177 106.106 390.961 123.983C401.744 141.861 403.802 159.133 396.668 171.979ZM374.777 147.855C369.917 156.606 359.202 161.629 344.994 161.824C330.786 162.021 314.224 157.384 298.987 148.923C283.752 140.462 271.051 128.87 263.715 116.691C256.371 104.526 254.97 92.7762 259.829 84.0241C264.69 75.2721 275.405 70.2492 289.613 70.0539C303.82 69.8587 320.384 74.4956 335.619 82.9565C350.855 91.4163 363.555 103.01 370.892 115.189C378.237 127.352 379.637 139.103 374.777 147.855ZM349.492 126.505C344.37 135.729 327.191 135.967 311.118 127.042C295.045 118.117 286.166 103.408 291.288 94.1847C296.411 84.9606 313.589 84.7223 329.662 93.6476C345.735 102.573 354.614 117.282 349.492 126.505Z" stroke="white" stroke-width="0.464542"/>
<circle opacity="0.3" cx="233.511" cy="256.526" r="208.457" fill="url(#paint0_radial_22956_1985)"/>
<path d="M410.004 376.485C413.246 389.892 415.16 402.538 415.732 414.33L415.728 414.323C416.215 424.363 415.731 433.787 414.27 442.525C410.98 462.228 402.849 477.584 390.101 488.173C371.004 504.038 343.01 507.746 309.148 498.895L309.3 498.324C342.968 507.124 370.78 503.459 389.725 487.721C414.741 466.938 421.737 427.482 409.424 376.622C397.092 325.688 366.88 269.44 324.346 218.238C281.812 167.037 232.06 127.02 184.251 105.559C136.509 84.128 96.4393 83.7689 71.4219 104.552C55.0706 118.135 46.3612 139.81 45.8586 167.775L45.2578 168.282C45.666 139.885 54.4553 117.879 71.045 104.097C83.792 93.5062 100.38 88.3312 120.353 88.7065C139.614 89.0717 161.194 94.5601 184.497 105.021C207.785 115.475 231.625 130.369 255.354 149.294C279.914 168.881 303.28 191.951 324.806 217.862C346.331 243.772 364.722 270.975 379.475 298.712C393.727 325.507 403.997 351.673 410.004 376.485Z" stroke="#A3F5AA" stroke-width="0.48" stroke-linejoin="bevel" stroke-dasharray="4 4"/>
<path d="M356.118 431.84C352.223 445.073 347.558 456.981 342.157 467.479L342.157 467.471C337.558 476.41 332.427 484.329 326.792 491.166C314.092 506.585 299.372 515.817 283.038 518.614C258.567 522.804 232.469 512.019 207.57 487.423L207.987 487.005C232.744 511.46 258.663 522.191 282.938 518.034C314.995 512.544 340.781 481.872 355.548 431.669C370.335 381.393 372.295 317.575 361.059 251.966C349.824 186.357 326.747 126.825 296.073 84.3353C265.444 41.9047 230.921 21.5587 198.864 27.0487C177.912 30.6358 159.532 45.0528 145.114 69.0194L144.341 69.1582C158.892 44.7702 177.507 30.1068 198.766 26.4658C215.1 23.6678 232.053 27.4801 249.162 37.7914C265.661 47.7385 281.605 63.2812 296.556 83.9921C311.496 104.69 324.695 129.508 335.783 157.762C347.259 187.005 355.96 218.667 361.646 251.87C367.332 285.071 369.658 317.825 368.566 349.223C367.511 379.554 363.322 407.349 356.118 431.84Z" stroke="#A3F5AA" stroke-width="0.48" stroke-linejoin="bevel" stroke-dasharray="4 4"/>
<defs>
<radialGradient id="paint0_radial_22956_1985" cx="0" cy="0" r="1" gradientUnits="userSpaceOnUse" gradientTransform="translate(110.7 103.329) rotate(50.5993) scale(154.061)">
<stop stop-color="#A6A6A6"/>
<stop offset="1" stop-color="#474747"/>
</radialGradient>
</defs>
</svg>
