<svg width="407" height="248" viewBox="0 0 407 248" fill="none" xmlns="http://www.w3.org/2000/svg">
<circle cx="1004.95" cy="1004.95" r="1004.7" transform="matrix(-1 0 0 1 1480.52 3.90234)" stroke="black" stroke-width="0.5"/>
<path d="M162.086 88.6321C162.086 88.6321 142.535 41.0642 102.96 52.48C47.3848 68.5111 121.887 266.662 121.887 266.662" stroke="black" stroke-dasharray="3 3"/>
<path d="M205.567 160.005C205.567 160.005 191.338 111.079 253.151 120.625C313.91 130.009 375.516 252.637 375.516 252.637" stroke="black" stroke-dasharray="3 3"/>
<path d="M280.225 37.7632C280.225 37.7632 274.043 -4.88672 323.351 1.66475C390.737 10.6183 413.132 153.442 413.132 153.442" stroke="black" stroke-dasharray="3 3"/>
<path d="M280.918 40.1382C280.257 40.2582 279.633 40.2832 279.156 40.2206C278.918 40.1896 278.703 40.1351 278.534 40.0496C278.369 39.9665 278.204 39.8294 278.165 39.6144C278.126 39.3995 278.233 39.213 278.357 39.0775C278.485 38.9381 278.668 38.8112 278.88 38.6987C279.305 38.4724 279.898 38.2766 280.559 38.1566C281.22 38.0367 281.843 38.0117 282.321 38.0742C282.558 38.1053 282.774 38.1598 282.943 38.2452C283.108 38.3284 283.273 38.4655 283.312 38.6804C283.351 38.8953 283.244 39.0818 283.12 39.2174C282.991 39.3567 282.808 39.4836 282.597 39.5961C282.172 39.8225 281.579 40.0183 280.918 40.1382Z" fill="#8EE896" stroke="black" stroke-width="0.5"/>
<path d="M284.698 24.4141L283.132 38.7048L278.417 39.8067L269.982 29.1191L284.698 24.4141Z" fill="url(#paint0_linear_12065_2685)"/>
<path d="M271.334 40.8541C271.391 41.1684 271.652 41.4746 272.177 41.7401C272.697 42.0032 273.434 42.2025 274.343 42.3215C276.158 42.5593 278.607 42.4699 281.253 41.9897C283.899 41.5094 286.223 40.7328 287.839 39.8723C288.649 39.4413 289.268 38.9961 289.662 38.5669C290.061 38.134 290.198 37.7555 290.141 37.4412C290.084 37.1269 289.822 36.8207 289.297 36.5553C288.777 36.2922 288.041 36.0929 287.132 35.9738C285.316 35.7361 282.868 35.8254 280.221 36.3057C277.575 36.7859 275.252 37.5625 273.635 38.423C272.826 38.854 272.207 39.2992 271.812 39.7284C271.414 40.1614 271.277 40.5399 271.334 40.8541Z" stroke="black" stroke-opacity="0.5" stroke-width="0.5"/>
<path d="M162.411 90.2204C161.3 90.5501 160.243 90.7078 159.427 90.6906C159.02 90.682 158.658 90.6298 158.377 90.524C158.099 90.42 157.852 90.2446 157.767 89.9606C157.683 89.6766 157.795 89.3945 157.97 89.1561C158.149 88.9136 158.423 88.6726 158.759 88.4435C159.434 87.9836 160.406 87.5386 161.516 87.2089C162.627 86.8792 163.684 86.7215 164.501 86.7387C164.907 86.7472 165.269 86.7994 165.551 86.9052C165.828 87.0093 166.075 87.1846 166.16 87.4686C166.244 87.7526 166.132 88.0347 165.957 88.2731C165.778 88.5156 165.504 88.7566 165.168 88.9857C164.493 89.4456 163.521 89.8907 162.411 90.2204Z" fill="#8EE896" stroke="black" stroke-width="0.5"/>
<path d="M166.033 62.4062V87.4891L158.065 90.2963L141.403 73.363L166.033 62.4062Z" fill="url(#paint1_linear_12065_2685)"/>
<path d="M149.267 92.2609C149.406 92.7286 149.847 93.1281 150.624 93.4198C151.397 93.7098 152.455 93.8743 153.734 93.9012C156.29 93.955 159.667 93.4591 163.255 92.3937C166.843 91.3282 169.943 89.9008 172.055 88.4611C173.112 87.7404 173.909 87.0248 174.398 86.3602C174.89 85.6916 175.042 85.1161 174.903 84.6483C174.764 84.1806 174.323 83.7811 173.546 83.4894C172.773 83.1994 171.715 83.0349 170.435 83.008C167.88 82.9541 164.503 83.4501 160.915 84.5155C157.327 85.581 154.227 87.0084 152.115 88.4481C151.058 89.1688 150.261 89.8844 149.772 90.5489C149.28 91.2176 149.128 91.7931 149.267 92.2609Z" stroke="black" stroke-opacity="0.5" stroke-width="0.5"/>
<path d="M207.181 168.901C205.537 169.26 203.993 169.375 202.821 169.264C202.236 169.208 201.73 169.096 201.347 168.919C200.969 168.744 200.666 168.485 200.584 168.113C200.503 167.742 200.67 167.379 200.941 167.063C201.215 166.743 201.628 166.429 202.136 166.135C203.155 165.544 204.606 165.004 206.25 164.645C207.894 164.285 209.438 164.17 210.61 164.281C211.195 164.337 211.701 164.45 212.084 164.626C212.462 164.801 212.765 165.061 212.846 165.432C212.927 165.803 212.76 166.166 212.49 166.482C212.216 166.803 211.802 167.117 211.294 167.411C210.276 168.001 208.824 168.541 207.181 168.901Z" fill="#8EE896" stroke="black" stroke-width="0.5"/>
<path d="M215.459 128.898L212.775 165.421L200.872 168.656L178.423 142.217L215.459 128.898Z" fill="url(#paint2_linear_12065_2685)"/>
<path d="M182.554 172.059C182.765 173.026 183.589 173.856 184.997 174.506C186.401 175.154 188.341 175.601 190.689 175.823C195.382 176.268 201.648 175.812 208.369 174.342C215.09 172.872 220.975 170.671 225.054 168.308C227.095 167.126 228.672 165.911 229.677 164.736C230.685 163.557 231.087 162.459 230.876 161.492C230.664 160.525 229.841 159.695 228.432 159.045C227.029 158.397 225.089 157.951 222.74 157.728C218.047 157.284 211.781 157.74 205.06 159.21C198.339 160.68 192.455 162.88 188.375 165.243C186.334 166.426 184.758 167.641 183.753 168.816C182.744 169.994 182.342 171.092 182.554 172.059Z" stroke="black" stroke-opacity="0.5" stroke-width="0.5"/>
<defs>
<linearGradient id="paint0_linear_12065_2685" x1="280.915" y1="38.9317" x2="277.354" y2="26.6376" gradientUnits="userSpaceOnUse">
<stop stop-color="#8EE896"/>
<stop offset="1" stop-color="#8EE896" stop-opacity="0"/>
</linearGradient>
<linearGradient id="paint1_linear_12065_2685" x1="162.23" y1="88.3041" x2="153.719" y2="67.6583" gradientUnits="userSpaceOnUse">
<stop stop-color="#8EE896"/>
<stop offset="1" stop-color="#8EE896" stop-opacity="0"/>
</linearGradient>
<linearGradient id="paint2_linear_12065_2685" x1="207.15" y1="166.201" x2="196.966" y2="135.228" gradientUnits="userSpaceOnUse">
<stop stop-color="#8EE896"/>
<stop offset="1" stop-color="#8EE896" stop-opacity="0"/>
</linearGradient>
</defs>
</svg>
